<?xml version="1.0" encoding="UTF-8" standalone="no"?>
<!DOCTYPE svg PUBLIC "-//W3C//DTD SVG 1.1//EN"
 "http://www.w3.org/Graphics/SVG/1.1/DTD/svg11.dtd">
<!-- Generated by graphviz version 2.40.1 (20161225.0304)
 -->
<!-- Title: WriteRequest Pages: 1 -->
<svg width="475pt" height="112pt"
 viewBox="0.00 0.00 475.02 112.00" xmlns="http://www.w3.org/2000/svg" xmlns:xlink="http://www.w3.org/1999/xlink">
<g id="graph0" class="graph" transform="scale(1 1) rotate(0) translate(4 108)">
<title>WriteRequest</title>
<polygon fill="#ffffff" stroke="transparent" points="-4,4 -4,-108 471.0225,-108 471.0225,4 -4,4"/>
<!-- Node1 -->
<g id="node1" class="node">
<title>Node1</title>
<polygon fill="#bfbfbf" stroke="#000000" points="0,-.5 0,-18.5 76.4004,-18.5 76.4004,-.5 0,-.5"/>
<text text-anchor="middle" x="38.2002" y="-6.5" font-family="Helvetica,sans-Serif" font-size="10.00" fill="#000000">WriteRequest</text>
</g>
<!-- Node2 -->
<g id="node2" class="node">
<title>Node2</title>
<g id="a_node2"><a xlink:href="../../d3/d31/classnode_1_1inspector_1_1_inspector_socket.html" target="_top" xlink:title="InspectorSocket">
<polygon fill="#ffffff" stroke="#000000" points="125.3481,-85.5 125.3481,-103.5 213.0522,-103.5 213.0522,-85.5 125.3481,-85.5"/>
<text text-anchor="middle" x="169.2002" y="-91.5" font-family="Helvetica,sans-Serif" font-size="10.00" fill="#000000">InspectorSocket</text>
</a>
</g>
</g>
<!-- Node2&#45;&gt;Node1 -->
<g id="edge1" class="edge">
<title>Node2&#45;&gt;Node1</title>
<path fill="none" stroke="#9a32cd" stroke-dasharray="5,2" d="M115.1652,-86.1802C91.2562,-81.5104 66.5806,-75.0053 57.8457,-67 44.0024,-54.313 39.9121,-31.4699 38.7048,-18.7277"/>
<polygon fill="#9a32cd" stroke="#9a32cd" points="114.8449,-89.6805 125.3163,-88.0682 116.1249,-82.7985 114.8449,-89.6805"/>
<text text-anchor="middle" x="79.8774" y="-49" font-family="Helvetica,sans-Serif" font-size="10.00" fill="#000000"> inspector</text>
</g>
<!-- Node3 -->
<g id="node3" class="node">
<title>Node3</title>
<g id="a_node3"><a xlink:href="../../de/d14/structnode_1_1inspector_1_1ws__state__s.html" target="_top" xlink:title="ws_state_s">
<polygon fill="#ffffff" stroke="#000000" points="115.188,-.5 115.188,-18.5 181.2124,-18.5 181.2124,-.5 115.188,-.5"/>
<text text-anchor="middle" x="148.2002" y="-6.5" font-family="Helvetica,sans-Serif" font-size="10.00" fill="#000000">ws_state_s</text>
</a>
</g>
</g>
<!-- Node2&#45;&gt;Node3 -->
<g id="edge3" class="edge">
<title>Node2&#45;&gt;Node3</title>
<path fill="none" stroke="#9a32cd" stroke-dasharray="5,2" d="M123.9781,-80.4984C118.4264,-76.9491 113.4776,-72.5201 109.9541,-67 102.7802,-55.7611 103.8716,-48.8651 109.9541,-37 113.9834,-29.1401 121.4199,-23.0176 128.6717,-18.5655"/>
<polygon fill="#9a32cd" stroke="#9a32cd" points="122.6137,-83.7383 133.0802,-85.3821 125.9233,-77.57 122.6137,-83.7383"/>
<text text-anchor="middle" x="131.3232" y="-49" font-family="Helvetica,sans-Serif" font-size="10.00" fill="#000000"> close_cb</text>
</g>
<!-- Node4 -->
<g id="node4" class="node">
<title>Node4</title>
<g id="a_node4"><a xlink:href="../../db/dab/structnode_1_1inspector_1_1http__parsing__state__s.html" target="_top" xlink:title="http_parsing_state_s">
<polygon fill="#ffffff" stroke="#000000" points="241.7793,-.5 241.7793,-18.5 350.6211,-18.5 350.6211,-.5 241.7793,-.5"/>
<text text-anchor="middle" x="296.2002" y="-6.5" font-family="Helvetica,sans-Serif" font-size="10.00" fill="#000000">http_parsing_state_s</text>
</a>
</g>
</g>
<!-- Node2&#45;&gt;Node4 -->
<g id="edge5" class="edge">
<title>Node2&#45;&gt;Node4</title>
<path fill="none" stroke="#9a32cd" stroke-dasharray="5,2" d="M193.0101,-79.4248C198.2504,-75.6488 203.6033,-71.4082 208.2002,-67 220.3448,-55.3538 217.9781,-47.2866 231.2939,-37 241.5599,-29.0694 254.4524,-22.9916 266.0362,-18.5918"/>
<polygon fill="#9a32cd" stroke="#9a32cd" points="190.7222,-76.7496 184.4505,-85.2887 194.6784,-82.5244 190.7222,-76.7496"/>
<text text-anchor="middle" x="251.6533" y="-49" font-family="Helvetica,sans-Serif" font-size="10.00" fill="#000000"> callback</text>
</g>
<!-- Node3&#45;&gt;Node2 -->
<g id="edge2" class="edge">
<title>Node3&#45;&gt;Node2</title>
<path fill="none" stroke="#9a32cd" stroke-dasharray="5,2" d="M152.8563,-28.346C157.2358,-46.0727 163.6056,-71.8553 166.9528,-85.4035"/>
<polygon fill="#9a32cd" stroke="#9a32cd" points="156.2278,-27.3997 150.4314,-18.5311 149.4321,-29.0787 156.2278,-27.3997"/>
<text text-anchor="middle" x="183.3208" y="-49" font-family="Helvetica,sans-Serif" font-size="10.00" fill="#000000"> ws_state</text>
</g>
<!-- Node4&#45;&gt;Node2 -->
<g id="edge4" class="edge">
<title>Node4&#45;&gt;Node2</title>
<path fill="none" stroke="#9a32cd" stroke-dasharray="5,2" d="M293.4678,-28.7028C290.6925,-41.2914 285.1579,-57.1787 274.2002,-67 265.0089,-75.2381 237.7294,-82.246 213.2807,-87.1256"/>
<polygon fill="#9a32cd" stroke="#9a32cd" points="296.9369,-29.1864 295.2634,-18.7246 290.0476,-27.9466 296.9369,-29.1864"/>
<text text-anchor="middle" x="334.7295" y="-49" font-family="Helvetica,sans-Serif" font-size="10.00" fill="#000000"> http_parsing_state</text>
</g>
<!-- Node5 -->
<g id="node5" class="node">
<title>Node5</title>
<polygon fill="#ffffff" stroke="#bfbfbf" points="383.9736,-85.5 383.9736,-103.5 424.4268,-103.5 424.4268,-85.5 383.9736,-85.5"/>
<text text-anchor="middle" x="404.2002" y="-91.5" font-family="Helvetica,sans-Serif" font-size="10.00" fill="#000000">string</text>
</g>
<!-- Node5&#45;&gt;Node4 -->
<g id="edge6" class="edge">
<title>Node5&#45;&gt;Node4</title>
<path fill="none" stroke="#9a32cd" stroke-dasharray="5,2" d="M401.2974,-75.4823C398.4468,-62.9755 392.8921,-47.11 382.2002,-37 375.1386,-30.3227 354.7406,-23.662 335.5828,-18.5685"/>
<polygon fill="#9a32cd" stroke="#9a32cd" points="397.8716,-76.2032 403.1677,-85.3793 404.7499,-74.9033 397.8716,-76.2032"/>
<text text-anchor="middle" x="433.1113" y="-59" font-family="Helvetica,sans-Serif" font-size="10.00" fill="#000000"> path</text>
<text text-anchor="middle" x="433.1113" y="-49" font-family="Helvetica,sans-Serif" font-size="10.00" fill="#000000">ws_key</text>
<text text-anchor="middle" x="433.1113" y="-39" font-family="Helvetica,sans-Serif" font-size="10.00" fill="#000000">current_header</text>
</g>
</g>
</svg>
