<?xml version="1.0" encoding="UTF-8" standalone="no"?>
<!DOCTYPE svg PUBLIC "-//W3C//DTD SVG 1.1//EN"
 "http://www.w3.org/Graphics/SVG/1.1/DTD/svg11.dtd">
<!-- Generated by graphviz version 2.40.1 (20161225.0304)
 -->
<!-- Title: src/node_file.cc Pages: 1 -->
<svg width="1355pt" height="192pt"
 viewBox="0.00 0.00 1354.63 192.00" xmlns="http://www.w3.org/2000/svg" xmlns:xlink="http://www.w3.org/1999/xlink">
<g id="graph0" class="graph" transform="scale(1 1) rotate(0) translate(4 188)">
<title>src/node_file.cc</title>
<polygon fill="#ffffff" stroke="transparent" points="-4,4 -4,-188 1350.6255,-188 1350.6255,4 -4,4"/>
<!-- Node0 -->
<g id="node1" class="node">
<title>Node0</title>
<polygon fill="#bfbfbf" stroke="#000000" points="718.271,-165.5 718.271,-183.5 803.7485,-183.5 803.7485,-165.5 718.271,-165.5"/>
<text text-anchor="middle" x="761.0098" y="-171.5" font-family="Helvetica,sans-Serif" font-size="10.00" fill="#000000">src/node_file.cc</text>
</g>
<!-- Node1 -->
<g id="node2" class="node">
<title>Node1</title>
<g id="a_node2"><a xlink:href="../../d1/d77/node_8h.html" target="_top" xlink:title="node.h">
<polygon fill="#ffffff" stroke="#000000" points="168.7168,-55.5 168.7168,-73.5 215.3027,-73.5 215.3027,-55.5 168.7168,-55.5"/>
<text text-anchor="middle" x="192.0098" y="-61.5" font-family="Helvetica,sans-Serif" font-size="10.00" fill="#000000">node.h</text>
</a>
</g>
</g>
<!-- Node0&#45;&gt;Node1 -->
<g id="edge1" class="edge">
<title>Node0&#45;&gt;Node1</title>
<path fill="none" stroke="#191970" d="M717.9886,-172.751C585.6611,-167.1656 192.4733,-148.9501 174.0098,-129 162.2203,-116.2614 170.3039,-96.4436 179.0907,-82.1363"/>
<polygon fill="#191970" stroke="#191970" points="182.1105,-83.9169 184.7646,-73.6599 176.2934,-80.0231 182.1105,-83.9169"/>
</g>
<!-- Node6 -->
<g id="node7" class="node">
<title>Node6</title>
<polygon fill="#ffffff" stroke="#bfbfbf" points="0,-.5 0,-18.5 66.0195,-18.5 66.0195,-.5 0,-.5"/>
<text text-anchor="middle" x="33.0098" y="-6.5" font-family="Helvetica,sans-Serif" font-size="10.00" fill="#000000">sys/types.h</text>
</g>
<!-- Node0&#45;&gt;Node6 -->
<g id="edge19" class="edge">
<title>Node0&#45;&gt;Node6</title>
<path fill="none" stroke="#191970" d="M718.2682,-172.8362C590.2254,-167.6297 215.4797,-150.6942 165.0098,-129 112.4474,-106.4064 66.8933,-54.022 45.687,-26.731"/>
<polygon fill="#191970" stroke="#191970" points="48.287,-24.3673 39.4537,-18.5171 42.7108,-28.5989 48.287,-24.3673"/>
</g>
<!-- Node7 -->
<g id="node8" class="node">
<title>Node7</title>
<g id="a_node8"><a xlink:href="../../d8/d1c/node__buffer_8h.html" target="_top" xlink:title="node_buffer.h">
<polygon fill="#ffffff" stroke="#000000" points="182.5117,-110.5 182.5117,-128.5 259.5078,-128.5 259.5078,-110.5 182.5117,-110.5"/>
<text text-anchor="middle" x="221.0098" y="-116.5" font-family="Helvetica,sans-Serif" font-size="10.00" fill="#000000">node_buffer.h</text>
</a>
</g>
</g>
<!-- Node0&#45;&gt;Node7 -->
<g id="edge7" class="edge">
<title>Node0&#45;&gt;Node7</title>
<path fill="none" stroke="#191970" d="M717.9617,-172.0874C633.7002,-167.0277 440.9429,-153.7949 269.6323,-129.1096"/>
<polygon fill="#191970" stroke="#191970" points="270.0811,-125.6381 259.6808,-127.659 269.0713,-132.5649 270.0811,-125.6381"/>
</g>
<!-- Node8 -->
<g id="node9" class="node">
<title>Node8</title>
<g id="a_node9"><a xlink:href="../../d4/dbf/node__internals_8h.html" target="_top" xlink:title="node_internals.h">
<polygon fill="#ffffff" stroke="#000000" points="277.0371,-110.5 277.0371,-128.5 366.9824,-128.5 366.9824,-110.5 277.0371,-110.5"/>
<text text-anchor="middle" x="322.0098" y="-116.5" font-family="Helvetica,sans-Serif" font-size="10.00" fill="#000000">node_internals.h</text>
</a>
</g>
</g>
<!-- Node0&#45;&gt;Node8 -->
<g id="edge10" class="edge">
<title>Node0&#45;&gt;Node8</title>
<path fill="none" stroke="#191970" d="M718.1768,-170.2367C648.7912,-163.1562 507.2898,-147.9945 377.2026,-129.1055"/>
<polygon fill="#191970" stroke="#191970" points="377.4616,-125.6062 367.0602,-127.6217 376.4482,-132.5325 377.4616,-125.6062"/>
</g>
<!-- Node9 -->
<g id="node10" class="node">
<title>Node9</title>
<g id="a_node10"><a xlink:href="../../da/db0/node__stat__watcher_8h.html" target="_top" xlink:title="node_stat_watcher.h">
<polygon fill="#ffffff" stroke="#000000" points="384.8623,-110.5 384.8623,-128.5 493.1572,-128.5 493.1572,-110.5 384.8623,-110.5"/>
<text text-anchor="middle" x="439.0098" y="-116.5" font-family="Helvetica,sans-Serif" font-size="10.00" fill="#000000">node_stat_watcher.h</text>
</a>
</g>
</g>
<!-- Node0&#45;&gt;Node9 -->
<g id="edge11" class="edge">
<title>Node0&#45;&gt;Node9</title>
<path fill="none" stroke="#191970" d="M718.2507,-167.1964C662.7953,-157.7242 565.6282,-141.1274 501.7954,-130.2243"/>
<polygon fill="#191970" stroke="#191970" points="502.2949,-126.759 491.8484,-128.5252 501.1163,-133.659 502.2949,-126.759"/>
</g>
<!-- Node10 -->
<g id="node11" class="node">
<title>Node10</title>
<g id="a_node11"><a xlink:href="../../d5/d81/env_8h.html" target="_top" xlink:title="env.h">
<polygon fill="#ffffff" stroke="#000000" points="511.147,-110.5 511.147,-128.5 550.8726,-128.5 550.8726,-110.5 511.147,-110.5"/>
<text text-anchor="middle" x="531.0098" y="-116.5" font-family="Helvetica,sans-Serif" font-size="10.00" fill="#000000">env.h</text>
</a>
</g>
</g>
<!-- Node0&#45;&gt;Node10 -->
<g id="edge12" class="edge">
<title>Node0&#45;&gt;Node10</title>
<path fill="none" stroke="#191970" d="M717.9801,-165.9813C679.2388,-158.0393 620.5744,-145.3418 560.8792,-129.0444"/>
<polygon fill="#191970" stroke="#191970" points="561.4741,-125.5777 550.9032,-126.2893 559.6106,-132.3251 561.4741,-125.5777"/>
</g>
<!-- Node11 -->
<g id="node12" class="node">
<title>Node11</title>
<g id="a_node12"><a xlink:href="../../d9/d50/env-inl_8h.html" target="_top" xlink:title="env&#45;inl.h">
<polygon fill="#ffffff" stroke="#000000" points="569.1108,-110.5 569.1108,-128.5 622.9087,-128.5 622.9087,-110.5 569.1108,-110.5"/>
<text text-anchor="middle" x="596.0098" y="-116.5" font-family="Helvetica,sans-Serif" font-size="10.00" fill="#000000">env&#45;inl.h</text>
</a>
</g>
</g>
<!-- Node0&#45;&gt;Node11 -->
<g id="edge13" class="edge">
<title>Node0&#45;&gt;Node11</title>
<path fill="none" stroke="#191970" d="M733.7634,-165.4179C706.2142,-156.2348 663.452,-141.9807 632.8824,-131.7909"/>
<polygon fill="#191970" stroke="#191970" points="633.6161,-128.3462 623.0224,-128.5042 631.4024,-134.9869 633.6161,-128.3462"/>
</g>
<!-- Node12 -->
<g id="node13" class="node">
<title>Node12</title>
<g id="a_node13"><a xlink:href="../../d6/dae/req-wrap_8h.html" target="_top" xlink:title="req&#45;wrap.h">
<polygon fill="#ffffff" stroke="#000000" points="641.1108,-110.5 641.1108,-128.5 704.9087,-128.5 704.9087,-110.5 641.1108,-110.5"/>
<text text-anchor="middle" x="673.0098" y="-116.5" font-family="Helvetica,sans-Serif" font-size="10.00" fill="#000000">req&#45;wrap.h</text>
</a>
</g>
</g>
<!-- Node0&#45;&gt;Node12 -->
<g id="edge14" class="edge">
<title>Node0&#45;&gt;Node12</title>
<path fill="none" stroke="#191970" d="M746.4784,-165.4179C732.8484,-156.8992 712.2363,-144.0166 696.3101,-134.0627"/>
<polygon fill="#191970" stroke="#191970" points="697.8978,-130.9277 687.5628,-128.5956 694.1877,-136.8637 697.8978,-130.9277"/>
</g>
<!-- Node13 -->
<g id="node14" class="node">
<title>Node13</title>
<g id="a_node14"><a xlink:href="../../dd/d0b/req-wrap-inl_8h.html" target="_top" xlink:title="req&#45;wrap&#45;inl.h">
<polygon fill="#ffffff" stroke="#000000" points="722.4434,-110.5 722.4434,-128.5 799.5762,-128.5 799.5762,-110.5 722.4434,-110.5"/>
<text text-anchor="middle" x="761.0098" y="-116.5" font-family="Helvetica,sans-Serif" font-size="10.00" fill="#000000">req&#45;wrap&#45;inl.h</text>
</a>
</g>
</g>
<!-- Node0&#45;&gt;Node13 -->
<g id="edge15" class="edge">
<title>Node0&#45;&gt;Node13</title>
<path fill="none" stroke="#191970" d="M761.0098,-165.4179C761.0098,-158.2164 761.0098,-147.8962 761.0098,-138.8632"/>
<polygon fill="#191970" stroke="#191970" points="764.5099,-138.7794 761.0098,-128.7795 757.5099,-138.7795 764.5099,-138.7794"/>
</g>
<!-- Node14 -->
<g id="node15" class="node">
<title>Node14</title>
<g id="a_node15"><a xlink:href="../../d8/dbe/string__bytes_8h.html" target="_top" xlink:title="string_bytes.h">
<polygon fill="#ffffff" stroke="#000000" points="817.8818,-110.5 817.8818,-128.5 896.1377,-128.5 896.1377,-110.5 817.8818,-110.5"/>
<text text-anchor="middle" x="857.0098" y="-116.5" font-family="Helvetica,sans-Serif" font-size="10.00" fill="#000000">string_bytes.h</text>
</a>
</g>
</g>
<!-- Node0&#45;&gt;Node14 -->
<g id="edge16" class="edge">
<title>Node0&#45;&gt;Node14</title>
<path fill="none" stroke="#191970" d="M776.8622,-165.4179C791.8702,-156.8195 814.6382,-143.7754 832.077,-133.7844"/>
<polygon fill="#191970" stroke="#191970" points="834.1968,-136.6037 841.1338,-128.5956 830.717,-130.5299 834.1968,-136.6037"/>
</g>
<!-- Node15 -->
<g id="node16" class="node">
<title>Node15</title>
<g id="a_node16"><a xlink:href="../../d8/d3c/util_8h.html" target="_top" xlink:title="util.h">
<polygon fill="#ffffff" stroke="#000000" points="914.4482,-110.5 914.4482,-128.5 951.5713,-128.5 951.5713,-110.5 914.4482,-110.5"/>
<text text-anchor="middle" x="933.0098" y="-116.5" font-family="Helvetica,sans-Serif" font-size="10.00" fill="#000000">util.h</text>
</a>
</g>
</g>
<!-- Node0&#45;&gt;Node15 -->
<g id="edge17" class="edge">
<title>Node0&#45;&gt;Node15</title>
<path fill="none" stroke="#191970" d="M790.3021,-165.4427C817.5046,-156.9879 859.365,-143.8677 904.6424,-129.0727"/>
<polygon fill="#191970" stroke="#191970" points="905.9389,-132.3311 914.352,-125.8913 903.7593,-125.6791 905.9389,-132.3311"/>
</g>
<!-- Node16 -->
<g id="node17" class="node">
<title>Node16</title>
<polygon fill="#ffffff" stroke="#bfbfbf" points="969.6699,-110.5 969.6699,-128.5 1012.3496,-128.5 1012.3496,-110.5 969.6699,-110.5"/>
<text text-anchor="middle" x="991.0098" y="-116.5" font-family="Helvetica,sans-Serif" font-size="10.00" fill="#000000">fcntl.h</text>
</g>
<!-- Node0&#45;&gt;Node16 -->
<g id="edge18" class="edge">
<title>Node0&#45;&gt;Node16</title>
<path fill="none" stroke="#191970" d="M803.79,-165.8419C842.3146,-157.8055 900.6703,-145.0416 959.5993,-129.2331"/>
<polygon fill="#191970" stroke="#191970" points="960.707,-132.5592 969.4431,-126.5649 958.8757,-125.803 960.707,-132.5592"/>
</g>
<!-- Node17 -->
<g id="node18" class="node">
<title>Node17</title>
<polygon fill="#ffffff" stroke="#bfbfbf" points="1029.8916,-110.5 1029.8916,-128.5 1088.1279,-128.5 1088.1279,-110.5 1029.8916,-110.5"/>
<text text-anchor="middle" x="1059.0098" y="-116.5" font-family="Helvetica,sans-Serif" font-size="10.00" fill="#000000">sys/stat.h</text>
</g>
<!-- Node0&#45;&gt;Node17 -->
<g id="edge20" class="edge">
<title>Node0&#45;&gt;Node17</title>
<path fill="none" stroke="#191970" d="M803.9781,-167.949C853.6624,-160.1598 938.1059,-146.2641 1019.6697,-129.1737"/>
<polygon fill="#191970" stroke="#191970" points="1020.5402,-132.5671 1029.5997,-127.0738 1019.0919,-125.7185 1020.5402,-132.5671"/>
</g>
<!-- Node18 -->
<g id="node19" class="node">
<title>Node18</title>
<polygon fill="#ffffff" stroke="#bfbfbf" points="1106.6133,-110.5 1106.6133,-128.5 1155.4063,-128.5 1155.4063,-110.5 1106.6133,-110.5"/>
<text text-anchor="middle" x="1131.0098" y="-116.5" font-family="Helvetica,sans-Serif" font-size="10.00" fill="#000000">string.h</text>
</g>
<!-- Node0&#45;&gt;Node18 -->
<g id="edge21" class="edge">
<title>Node0&#45;&gt;Node18</title>
<path fill="none" stroke="#191970" d="M803.7605,-170.6178C866.0252,-164.5472 985.404,-151.3399 1096.5547,-128.8206"/>
<polygon fill="#191970" stroke="#191970" points="1097.5043,-132.1987 1106.5944,-126.7561 1096.0943,-125.3421 1097.5043,-132.1987"/>
</g>
<!-- Node19 -->
<g id="node20" class="node">
<title>Node19</title>
<polygon fill="#ffffff" stroke="#bfbfbf" points="1173.1675,-110.5 1173.1675,-128.5 1220.8521,-128.5 1220.8521,-110.5 1173.1675,-110.5"/>
<text text-anchor="middle" x="1197.0098" y="-116.5" font-family="Helvetica,sans-Serif" font-size="10.00" fill="#000000">errno.h</text>
</g>
<!-- Node0&#45;&gt;Node19 -->
<g id="edge22" class="edge">
<title>Node0&#45;&gt;Node19</title>
<path fill="none" stroke="#191970" d="M804.0222,-172.022C876.306,-167.3425 1026.7758,-155.3942 1162.7912,-128.9382"/>
<polygon fill="#191970" stroke="#191970" points="1163.8429,-132.298 1172.9739,-126.9246 1162.4849,-125.431 1163.8429,-132.298"/>
</g>
<!-- Node20 -->
<g id="node21" class="node">
<title>Node20</title>
<polygon fill="#ffffff" stroke="#bfbfbf" points="1238.4531,-110.5 1238.4531,-128.5 1285.5664,-128.5 1285.5664,-110.5 1238.4531,-110.5"/>
<text text-anchor="middle" x="1262.0098" y="-116.5" font-family="Helvetica,sans-Serif" font-size="10.00" fill="#000000">limits.h</text>
</g>
<!-- Node0&#45;&gt;Node20 -->
<g id="edge23" class="edge">
<title>Node0&#45;&gt;Node20</title>
<path fill="none" stroke="#191970" d="M803.7635,-173.0946C884.9832,-169.8347 1067.1712,-159.6955 1228.2794,-129.0223"/>
<polygon fill="#191970" stroke="#191970" points="1229.2177,-132.4057 1238.37,-127.0685 1227.887,-125.5333 1229.2177,-132.4057"/>
</g>
<!-- Node21 -->
<g id="node22" class="node">
<title>Node21</title>
<polygon fill="#ffffff" stroke="#bfbfbf" points="1303.394,-110.5 1303.394,-128.5 1346.6255,-128.5 1346.6255,-110.5 1303.394,-110.5"/>
<text text-anchor="middle" x="1325.0098" y="-116.5" font-family="Helvetica,sans-Serif" font-size="10.00" fill="#000000">vector</text>
</g>
<!-- Node0&#45;&gt;Node21 -->
<g id="edge24" class="edge">
<title>Node0&#45;&gt;Node21</title>
<path fill="none" stroke="#191970" d="M803.8042,-172.0819C909.7938,-165.9023 1183.3003,-148.7443 1293.0975,-128.9458"/>
<polygon fill="#191970" stroke="#191970" points="1294.0322,-132.3308 1303.2009,-127.0218 1292.7226,-125.4543 1294.0322,-132.3308"/>
</g>
<!-- Node2 -->
<g id="node3" class="node">
<title>Node2</title>
<polygon fill="#ffffff" stroke="#bfbfbf" points="321.5591,-.5 321.5591,-18.5 356.4604,-18.5 356.4604,-.5 321.5591,-.5"/>
<text text-anchor="middle" x="339.0098" y="-6.5" font-family="Helvetica,sans-Serif" font-size="10.00" fill="#000000">v8.h</text>
</g>
<!-- Node1&#45;&gt;Node2 -->
<g id="edge2" class="edge">
<title>Node1&#45;&gt;Node2</title>
<path fill="none" stroke="#191970" d="M215.6279,-55.6633C241.9386,-45.8191 284.3963,-29.9336 312.0047,-19.604"/>
<polygon fill="#191970" stroke="#191970" points="313.3075,-22.8535 321.4469,-16.0711 310.8545,-16.2974 313.3075,-22.8535"/>
</g>
<!-- Node3 -->
<g id="node4" class="node">
<title>Node3</title>
<g id="a_node4"><a xlink:href="../../da/d9c/node__version_8h.html" target="_top" xlink:title="node_version.h">
<polygon fill="#ffffff" stroke="#000000" points="149.8179,-.5 149.8179,-18.5 234.2017,-18.5 234.2017,-.5 149.8179,-.5"/>
<text text-anchor="middle" x="192.0098" y="-6.5" font-family="Helvetica,sans-Serif" font-size="10.00" fill="#000000">node_version.h</text>
</a>
</g>
</g>
<!-- Node1&#45;&gt;Node3 -->
<g id="edge3" class="edge">
<title>Node1&#45;&gt;Node3</title>
<path fill="none" stroke="#191970" d="M192.0098,-55.4179C192.0098,-48.2164 192.0098,-37.8962 192.0098,-28.8632"/>
<polygon fill="#191970" stroke="#191970" points="195.5099,-28.7794 192.0098,-18.7795 188.5099,-28.7795 195.5099,-28.7794"/>
</g>
<!-- Node4 -->
<g id="node5" class="node">
<title>Node4</title>
<polygon fill="#ffffff" stroke="#bfbfbf" points="252.2241,-.5 252.2241,-18.5 303.7954,-18.5 303.7954,-.5 252.2241,-.5"/>
<text text-anchor="middle" x="278.0098" y="-6.5" font-family="Helvetica,sans-Serif" font-size="10.00" fill="#000000">assert.h</text>
</g>
<!-- Node1&#45;&gt;Node4 -->
<g id="edge4" class="edge">
<title>Node1&#45;&gt;Node4</title>
<path fill="none" stroke="#191970" d="M206.2109,-55.4179C219.5311,-46.8992 239.6748,-34.0166 255.239,-24.0627"/>
<polygon fill="#191970" stroke="#191970" points="257.2487,-26.932 263.7875,-18.5956 253.4773,-21.0348 257.2487,-26.932"/>
</g>
<!-- Node5 -->
<g id="node6" class="node">
<title>Node5</title>
<polygon fill="#ffffff" stroke="#bfbfbf" points="83.8892,-.5 83.8892,-18.5 132.1304,-18.5 132.1304,-.5 83.8892,-.5"/>
<text text-anchor="middle" x="108.0098" y="-6.5" font-family="Helvetica,sans-Serif" font-size="10.00" fill="#000000">stdint.h</text>
</g>
<!-- Node1&#45;&gt;Node5 -->
<g id="edge5" class="edge">
<title>Node1&#45;&gt;Node5</title>
<path fill="none" stroke="#191970" d="M178.1389,-55.4179C165.2501,-46.9788 145.8204,-34.257 130.6784,-24.3426"/>
<polygon fill="#191970" stroke="#191970" points="132.1847,-21.1454 121.9013,-18.5956 128.3502,-27.0017 132.1847,-21.1454"/>
</g>
<!-- Node1&#45;&gt;Node6 -->
<g id="edge6" class="edge">
<title>Node1&#45;&gt;Node6</title>
<path fill="none" stroke="#191970" d="M168.5488,-56.3846C142.3164,-47.3105 99.5217,-32.5073 69.0391,-21.963"/>
<polygon fill="#191970" stroke="#191970" points="69.81,-18.5262 59.2153,-18.5648 67.5216,-25.1416 69.81,-18.5262"/>
</g>
<!-- Node7&#45;&gt;Node1 -->
<g id="edge8" class="edge">
<title>Node7&#45;&gt;Node1</title>
<path fill="none" stroke="#191970" d="M216.221,-110.4179C212.2569,-102.8998 206.5007,-91.9829 201.5955,-82.6799"/>
<polygon fill="#191970" stroke="#191970" points="204.6627,-80.9927 196.9026,-73.7795 198.4707,-84.2576 204.6627,-80.9927"/>
</g>
<!-- Node7&#45;&gt;Node2 -->
<g id="edge9" class="edge">
<title>Node7&#45;&gt;Node2</title>
<path fill="none" stroke="#191970" d="M230.6662,-110.4982C250.6325,-91.8856 296.6898,-48.9508 321.8462,-25.4999"/>
<polygon fill="#191970" stroke="#191970" points="324.2918,-28.0051 329.2199,-18.6261 319.5186,-22.8848 324.2918,-28.0051"/>
</g>
</g>
</svg>
