<?xml version="1.0" encoding="UTF-8" standalone="no"?>
<!DOCTYPE svg PUBLIC "-//W3C//DTD SVG 1.1//EN"
 "http://www.w3.org/Graphics/SVG/1.1/DTD/svg11.dtd">
<!-- Generated by graphviz version 2.40.1 (20161225.0304)
 -->
<!-- Title: src/tracing/trace_event_common.h Pages: 1 -->
<svg width="138pt" height="147pt"
 viewBox="0.00 0.00 137.94 147.00" xmlns="http://www.w3.org/2000/svg" xmlns:xlink="http://www.w3.org/1999/xlink">
<g id="graph0" class="graph" transform="scale(1 1) rotate(0) translate(4 143)">
<title>src/tracing/trace_event_common.h</title>
<polygon fill="#ffffff" stroke="transparent" points="-4,4 -4,-143 133.9355,-143 133.9355,4 -4,4"/>
<!-- Node1 -->
<g id="node1" class="node">
<title>Node1</title>
<polygon fill="#bfbfbf" stroke="#000000" points="6.3892,-110.5 6.3892,-138.5 123.5464,-138.5 123.5464,-110.5 6.3892,-110.5"/>
<text text-anchor="start" x="14.3892" y="-126.5" font-family="Helvetica,sans-Serif" font-size="10.00" fill="#000000">src/tracing/trace_event</text>
<text text-anchor="middle" x="64.9678" y="-116.5" font-family="Helvetica,sans-Serif" font-size="10.00" fill="#000000">_common.h</text>
</g>
<!-- Node2 -->
<g id="node2" class="node">
<title>Node2</title>
<g id="a_node2"><a xlink:href="../../db/d4b/trace__event_8h.html" target="_top" xlink:title="src/tracing/trace_event.h">
<polygon fill="#ffffff" stroke="#000000" points="2.2192,-55.5 2.2192,-73.5 127.7163,-73.5 127.7163,-55.5 2.2192,-55.5"/>
<text text-anchor="middle" x="64.9678" y="-61.5" font-family="Helvetica,sans-Serif" font-size="10.00" fill="#000000">src/tracing/trace_event.h</text>
</a>
</g>
</g>
<!-- Node1&#45;&gt;Node2 -->
<g id="edge1" class="edge">
<title>Node1&#45;&gt;Node2</title>
<path fill="none" stroke="#191970" d="M64.9678,-100.2151C64.9678,-90.8253 64.9678,-80.6598 64.9678,-73.5842"/>
<polygon fill="#191970" stroke="#191970" points="61.4679,-100.2808 64.9678,-110.2808 68.4679,-100.2809 61.4679,-100.2808"/>
</g>
<!-- Node3 -->
<g id="node3" class="node">
<title>Node3</title>
<g id="a_node3"><a xlink:href="../../db/d07/trace__event_8cc.html" target="_top" xlink:title="src/tracing/trace_event.cc">
<polygon fill="#ffffff" stroke="#000000" points="0,-.5 0,-18.5 129.9355,-18.5 129.9355,-.5 0,-.5"/>
<text text-anchor="middle" x="64.9678" y="-6.5" font-family="Helvetica,sans-Serif" font-size="10.00" fill="#000000">src/tracing/trace_event.cc</text>
</a>
</g>
</g>
<!-- Node2&#45;&gt;Node3 -->
<g id="edge2" class="edge">
<title>Node2&#45;&gt;Node3</title>
<path fill="none" stroke="#191970" d="M64.9678,-45.383C64.9678,-36.3738 64.9678,-26.0373 64.9678,-18.7795"/>
<polygon fill="#191970" stroke="#191970" points="61.4679,-45.4178 64.9678,-55.4179 68.4679,-45.4179 61.4679,-45.4178"/>
</g>
</g>
</svg>
