<?xml version="1.0" encoding="UTF-8" standalone="no"?>
<!DOCTYPE svg PUBLIC "-//W3C//DTD SVG 1.1//EN"
 "http://www.w3.org/Graphics/SVG/1.1/DTD/svg11.dtd">
<!-- Generated by graphviz version 2.40.1 (20161225.0304)
 -->
<!-- Title: src/uv.cc Pages: 1 -->
<svg width="365pt" height="137pt"
 viewBox="0.00 0.00 365.46 137.00" xmlns="http://www.w3.org/2000/svg" xmlns:xlink="http://www.w3.org/1999/xlink">
<g id="graph0" class="graph" transform="scale(1 1) rotate(0) translate(4 133)">
<title>src/uv.cc</title>
<polygon fill="#ffffff" stroke="transparent" points="-4,4 -4,-133 361.4604,-133 361.4604,4 -4,4"/>
<!-- Node0 -->
<g id="node1" class="node">
<title>Node0</title>
<polygon fill="#bfbfbf" stroke="#000000" points="184.0952,-110.5 184.0952,-128.5 238.8062,-128.5 238.8062,-110.5 184.0952,-110.5"/>
<text text-anchor="middle" x="211.4507" y="-116.5" font-family="Helvetica,sans-Serif" font-size="10.00" fill="#000000">src/uv.cc</text>
</g>
<!-- Node1 -->
<g id="node2" class="node">
<title>Node1</title>
<polygon fill="#ffffff" stroke="#bfbfbf" points="106.3687,-55.5 106.3687,-73.5 140.5327,-73.5 140.5327,-55.5 106.3687,-55.5"/>
<text text-anchor="middle" x="123.4507" y="-61.5" font-family="Helvetica,sans-Serif" font-size="10.00" fill="#000000">uv.h</text>
</g>
<!-- Node0&#45;&gt;Node1 -->
<g id="edge1" class="edge">
<title>Node0&#45;&gt;Node1</title>
<path fill="none" stroke="#191970" d="M196.9193,-110.4179C183.2893,-101.8992 162.6772,-89.0166 146.751,-79.0627"/>
<polygon fill="#191970" stroke="#191970" points="148.3387,-75.9277 138.0037,-73.5956 144.6287,-81.8637 148.3387,-75.9277"/>
</g>
<!-- Node2 -->
<g id="node3" class="node">
<title>Node2</title>
<g id="a_node3"><a xlink:href="../../d1/d77/node_8h.html" target="_top" xlink:title="node.h">
<polygon fill="#ffffff" stroke="#000000" points="158.1577,-55.5 158.1577,-73.5 204.7437,-73.5 204.7437,-55.5 158.1577,-55.5"/>
<text text-anchor="middle" x="181.4507" y="-61.5" font-family="Helvetica,sans-Serif" font-size="10.00" fill="#000000">node.h</text>
</a>
</g>
</g>
<!-- Node0&#45;&gt;Node2 -->
<g id="edge2" class="edge">
<title>Node0&#45;&gt;Node2</title>
<path fill="none" stroke="#191970" d="M206.4968,-110.4179C202.396,-102.8998 196.4413,-91.9829 191.367,-82.6799"/>
<polygon fill="#191970" stroke="#191970" points="194.3734,-80.8824 186.5122,-73.7795 188.2281,-84.2344 194.3734,-80.8824"/>
</g>
<!-- Node8 -->
<g id="node9" class="node">
<title>Node8</title>
<g id="a_node9"><a xlink:href="../../d5/d81/env_8h.html" target="_top" xlink:title="env.h">
<polygon fill="#ffffff" stroke="#000000" points="222.5879,-55.5 222.5879,-73.5 262.3135,-73.5 262.3135,-55.5 222.5879,-55.5"/>
<text text-anchor="middle" x="242.4507" y="-61.5" font-family="Helvetica,sans-Serif" font-size="10.00" fill="#000000">env.h</text>
</a>
</g>
</g>
<!-- Node0&#45;&gt;Node8 -->
<g id="edge8" class="edge">
<title>Node0&#45;&gt;Node8</title>
<path fill="none" stroke="#191970" d="M216.5697,-110.4179C220.8072,-102.8998 226.9603,-91.9829 232.2039,-82.6799"/>
<polygon fill="#191970" stroke="#191970" points="235.3593,-84.2096 237.2204,-73.7795 229.2612,-80.7724 235.3593,-84.2096"/>
</g>
<!-- Node9 -->
<g id="node10" class="node">
<title>Node9</title>
<g id="a_node10"><a xlink:href="../../d9/d50/env-inl_8h.html" target="_top" xlink:title="env&#45;inl.h">
<polygon fill="#ffffff" stroke="#000000" points="280.5518,-55.5 280.5518,-73.5 334.3496,-73.5 334.3496,-55.5 280.5518,-55.5"/>
<text text-anchor="middle" x="307.4507" y="-61.5" font-family="Helvetica,sans-Serif" font-size="10.00" fill="#000000">env&#45;inl.h</text>
</a>
</g>
</g>
<!-- Node0&#45;&gt;Node9 -->
<g id="edge9" class="edge">
<title>Node0&#45;&gt;Node9</title>
<path fill="none" stroke="#191970" d="M227.3031,-110.4179C242.3111,-101.8195 265.0791,-88.7754 282.5179,-78.7844"/>
<polygon fill="#191970" stroke="#191970" points="284.6377,-81.6037 291.5747,-73.5956 281.1579,-75.5299 284.6377,-81.6037"/>
</g>
<!-- Node3 -->
<g id="node4" class="node">
<title>Node3</title>
<polygon fill="#ffffff" stroke="#bfbfbf" points="0,-.5 0,-18.5 34.9014,-18.5 34.9014,-.5 0,-.5"/>
<text text-anchor="middle" x="17.4507" y="-6.5" font-family="Helvetica,sans-Serif" font-size="10.00" fill="#000000">v8.h</text>
</g>
<!-- Node2&#45;&gt;Node3 -->
<g id="edge3" class="edge">
<title>Node2&#45;&gt;Node3</title>
<path fill="none" stroke="#191970" d="M158.1376,-56.8963C132.6007,-48.5371 90.211,-34.5739 44.6182,-19.0161"/>
<polygon fill="#191970" stroke="#191970" points="45.7485,-15.7036 35.1539,-15.7792 43.4832,-22.327 45.7485,-15.7036"/>
</g>
<!-- Node4 -->
<g id="node5" class="node">
<title>Node4</title>
<g id="a_node5"><a xlink:href="../../da/d9c/node__version_8h.html" target="_top" xlink:title="node_version.h">
<polygon fill="#ffffff" stroke="#000000" points="53.2588,-.5 53.2588,-18.5 137.6426,-18.5 137.6426,-.5 53.2588,-.5"/>
<text text-anchor="middle" x="95.4507" y="-6.5" font-family="Helvetica,sans-Serif" font-size="10.00" fill="#000000">node_version.h</text>
</a>
</g>
</g>
<!-- Node2&#45;&gt;Node4 -->
<g id="edge4" class="edge">
<title>Node2&#45;&gt;Node4</title>
<path fill="none" stroke="#191970" d="M167.2495,-55.4179C153.9294,-46.8992 133.7857,-34.0166 118.2215,-24.0627"/>
<polygon fill="#191970" stroke="#191970" points="119.9832,-21.0348 109.6729,-18.5956 116.2117,-26.932 119.9832,-21.0348"/>
</g>
<!-- Node5 -->
<g id="node6" class="node">
<title>Node5</title>
<polygon fill="#ffffff" stroke="#bfbfbf" points="155.665,-.5 155.665,-18.5 207.2363,-18.5 207.2363,-.5 155.665,-.5"/>
<text text-anchor="middle" x="181.4507" y="-6.5" font-family="Helvetica,sans-Serif" font-size="10.00" fill="#000000">assert.h</text>
</g>
<!-- Node2&#45;&gt;Node5 -->
<g id="edge5" class="edge">
<title>Node2&#45;&gt;Node5</title>
<path fill="none" stroke="#191970" d="M181.4507,-55.4179C181.4507,-48.2164 181.4507,-37.8962 181.4507,-28.8632"/>
<polygon fill="#191970" stroke="#191970" points="184.9508,-28.7794 181.4507,-18.7795 177.9508,-28.7795 184.9508,-28.7794"/>
</g>
<!-- Node6 -->
<g id="node7" class="node">
<title>Node6</title>
<polygon fill="#ffffff" stroke="#bfbfbf" points="225.3301,-.5 225.3301,-18.5 273.5713,-18.5 273.5713,-.5 225.3301,-.5"/>
<text text-anchor="middle" x="249.4507" y="-6.5" font-family="Helvetica,sans-Serif" font-size="10.00" fill="#000000">stdint.h</text>
</g>
<!-- Node2&#45;&gt;Node6 -->
<g id="edge6" class="edge">
<title>Node2&#45;&gt;Node6</title>
<path fill="none" stroke="#191970" d="M192.6795,-55.4179C202.8551,-47.1876 218.067,-34.8839 230.1837,-25.0836"/>
<polygon fill="#191970" stroke="#191970" points="232.4038,-27.7895 237.9779,-18.7795 228.0017,-22.3469 232.4038,-27.7895"/>
</g>
<!-- Node7 -->
<g id="node8" class="node">
<title>Node7</title>
<polygon fill="#ffffff" stroke="#bfbfbf" points="291.4409,-.5 291.4409,-18.5 357.4604,-18.5 357.4604,-.5 291.4409,-.5"/>
<text text-anchor="middle" x="324.4507" y="-6.5" font-family="Helvetica,sans-Serif" font-size="10.00" fill="#000000">sys/types.h</text>
</g>
<!-- Node2&#45;&gt;Node7 -->
<g id="edge7" class="edge">
<title>Node2&#45;&gt;Node7</title>
<path fill="none" stroke="#191970" d="M204.7444,-55.5409C228.1834,-46.5259 264.5597,-32.535 291.0635,-22.3412"/>
<polygon fill="#191970" stroke="#191970" points="292.6134,-25.4951 300.6904,-18.6386 290.1005,-18.9617 292.6134,-25.4951"/>
</g>
</g>
</svg>
