<?xml version="1.0" encoding="UTF-8" standalone="no"?>
<!DOCTYPE svg PUBLIC "-//W3C//DTD SVG 1.1//EN"
 "http://www.w3.org/Graphics/SVG/1.1/DTD/svg11.dtd">
<!-- Generated by graphviz version 2.40.1 (20161225.0304)
 -->
<!-- Title: src/string_bytes.h Pages: 1 -->
<svg width="1073pt" height="82pt"
 viewBox="0.00 0.00 1072.80 82.00" xmlns="http://www.w3.org/2000/svg" xmlns:xlink="http://www.w3.org/1999/xlink">
<g id="graph0" class="graph" transform="scale(1 1) rotate(0) translate(4 78)">
<title>src/string_bytes.h</title>
<polygon fill="#ffffff" stroke="transparent" points="-4,4 -4,-78 1068.7979,-78 1068.7979,4 -4,4"/>
<!-- Node1 -->
<g id="node1" class="node">
<title>Node1</title>
<polygon fill="#bfbfbf" stroke="#000000" points="493.7808,-55.5 493.7808,-73.5 588.145,-73.5 588.145,-55.5 493.7808,-55.5"/>
<text text-anchor="middle" x="540.9629" y="-61.5" font-family="Helvetica,sans-Serif" font-size="10.00" fill="#000000">src/string_bytes.h</text>
</g>
<!-- Node2 -->
<g id="node2" class="node">
<title>Node2</title>
<g id="a_node2"><a xlink:href="../../d6/d2f/fs__event__wrap_8cc.html" target="_top" xlink:title="src/fs_event_wrap.cc">
<polygon fill="#ffffff" stroke="#000000" points="0,-.5 0,-18.5 109.9258,-18.5 109.9258,-.5 0,-.5"/>
<text text-anchor="middle" x="54.9629" y="-6.5" font-family="Helvetica,sans-Serif" font-size="10.00" fill="#000000">src/fs_event_wrap.cc</text>
</a>
</g>
</g>
<!-- Node1&#45;&gt;Node2 -->
<g id="edge1" class="edge">
<title>Node1&#45;&gt;Node2</title>
<path fill="none" stroke="#191970" d="M483.7213,-59.0603C402.4903,-51.1744 249.1617,-35.6754 118.9629,-19 116.066,-18.629 113.0974,-18.2353 110.1015,-17.8275"/>
<polygon fill="#191970" stroke="#191970" points="483.4503,-62.5503 493.7409,-60.0298 484.1245,-55.5829 483.4503,-62.5503"/>
</g>
<!-- Node3 -->
<g id="node3" class="node">
<title>Node3</title>
<g id="a_node3"><a xlink:href="../../dc/dfd/node_8cc.html" target="_top" xlink:title="src/node.cc">
<polygon fill="#ffffff" stroke="#000000" points="128.3965,-.5 128.3965,-18.5 195.5293,-18.5 195.5293,-.5 128.3965,-.5"/>
<text text-anchor="middle" x="161.9629" y="-6.5" font-family="Helvetica,sans-Serif" font-size="10.00" fill="#000000">src/node.cc</text>
</a>
</g>
</g>
<!-- Node1&#45;&gt;Node3 -->
<g id="edge2" class="edge">
<title>Node1&#45;&gt;Node3</title>
<path fill="none" stroke="#191970" d="M483.622,-58.3199C416.3673,-50.7107 301.6431,-36.6059 203.9629,-19 201.3143,-18.5226 198.58,-17.9916 195.8365,-17.4315"/>
<polygon fill="#191970" stroke="#191970" points="483.2673,-61.802 493.5955,-59.44 484.0486,-54.8457 483.2673,-61.802"/>
</g>
<!-- Node4 -->
<g id="node4" class="node">
<title>Node4</title>
<g id="a_node4"><a xlink:href="../../d2/deb/node__buffer_8cc.html" target="_top" xlink:title="src/node_buffer.cc">
<polygon fill="#ffffff" stroke="#000000" points="213.1914,-.5 213.1914,-18.5 310.7344,-18.5 310.7344,-.5 213.1914,-.5"/>
<text text-anchor="middle" x="261.9629" y="-6.5" font-family="Helvetica,sans-Serif" font-size="10.00" fill="#000000">src/node_buffer.cc</text>
</a>
</g>
</g>
<!-- Node1&#45;&gt;Node4 -->
<g id="edge3" class="edge">
<title>Node1&#45;&gt;Node4</title>
<path fill="none" stroke="#191970" d="M485.1335,-53.4942C433.0571,-43.2282 356.3081,-28.0985 307.7466,-18.5255"/>
<polygon fill="#191970" stroke="#191970" points="484.716,-56.9792 495.2041,-55.4795 486.0699,-50.1114 484.716,-56.9792"/>
</g>
<!-- Node5 -->
<g id="node5" class="node">
<title>Node5</title>
<g id="a_node5"><a xlink:href="../../d5/d61/node__crypto_8cc.html" target="_top" xlink:title="src/node_crypto.cc">
<polygon fill="#ffffff" stroke="#000000" points="329,-.5 329,-18.5 428.9258,-18.5 428.9258,-.5 329,-.5"/>
<text text-anchor="middle" x="378.9629" y="-6.5" font-family="Helvetica,sans-Serif" font-size="10.00" fill="#000000">src/node_crypto.cc</text>
</a>
</g>
</g>
<!-- Node1&#45;&gt;Node5 -->
<g id="edge4" class="edge">
<title>Node1&#45;&gt;Node5</title>
<path fill="none" stroke="#191970" d="M504.5053,-52.1224C474.4239,-41.9096 432.4478,-27.6584 405.4844,-18.5042"/>
<polygon fill="#191970" stroke="#191970" points="503.6175,-55.5172 514.2119,-55.4179 505.8679,-48.8888 503.6175,-55.5172"/>
</g>
<!-- Node6 -->
<g id="node6" class="node">
<title>Node6</title>
<g id="a_node6"><a xlink:href="../../dd/daa/node__file_8cc.html" target="_top" xlink:title="src/node_file.cc">
<polygon fill="#ffffff" stroke="#000000" points="447.2241,-.5 447.2241,-18.5 532.7017,-18.5 532.7017,-.5 447.2241,-.5"/>
<text text-anchor="middle" x="489.9629" y="-6.5" font-family="Helvetica,sans-Serif" font-size="10.00" fill="#000000">src/node_file.cc</text>
</a>
</g>
</g>
<!-- Node1&#45;&gt;Node6 -->
<g id="edge5" class="edge">
<title>Node1&#45;&gt;Node6</title>
<path fill="none" stroke="#191970" d="M525.6748,-48.0129C516.8061,-38.4485 505.9631,-26.7552 498.5675,-18.7795"/>
<polygon fill="#191970" stroke="#191970" points="523.1754,-50.465 532.5413,-55.4179 528.3083,-45.7054 523.1754,-50.465"/>
</g>
<!-- Node7 -->
<g id="node7" class="node">
<title>Node7</title>
<g id="a_node7"><a xlink:href="../../d2/da2/node__os_8cc.html" target="_top" xlink:title="src/node_os.cc">
<polygon fill="#ffffff" stroke="#000000" points="550.335,-.5 550.335,-18.5 633.5908,-18.5 633.5908,-.5 550.335,-.5"/>
<text text-anchor="middle" x="591.9629" y="-6.5" font-family="Helvetica,sans-Serif" font-size="10.00" fill="#000000">src/node_os.cc</text>
</a>
</g>
</g>
<!-- Node1&#45;&gt;Node7 -->
<g id="edge6" class="edge">
<title>Node1&#45;&gt;Node7</title>
<path fill="none" stroke="#191970" d="M556.2509,-48.0129C565.1197,-38.4485 575.9627,-26.7552 583.3583,-18.7795"/>
<polygon fill="#191970" stroke="#191970" points="553.6175,-45.7054 549.3845,-55.4179 558.7504,-50.465 553.6175,-45.7054"/>
</g>
<!-- Node8 -->
<g id="node8" class="node">
<title>Node8</title>
<g id="a_node8"><a xlink:href="../../d5/d09/spawn__sync_8cc.html" target="_top" xlink:title="src/spawn_sync.cc">
<polygon fill="#ffffff" stroke="#000000" points="652.0049,-.5 652.0049,-18.5 751.9209,-18.5 751.9209,-.5 652.0049,-.5"/>
<text text-anchor="middle" x="701.9629" y="-6.5" font-family="Helvetica,sans-Serif" font-size="10.00" fill="#000000">src/spawn_sync.cc</text>
</a>
</g>
</g>
<!-- Node1&#45;&gt;Node8 -->
<g id="edge7" class="edge">
<title>Node1&#45;&gt;Node8</title>
<path fill="none" stroke="#191970" d="M577.1955,-52.1224C607.0911,-41.9096 648.8082,-27.6584 675.6051,-18.5042"/>
<polygon fill="#191970" stroke="#191970" points="575.8804,-48.873 567.5488,-55.4179 578.1433,-55.4972 575.8804,-48.873"/>
</g>
<!-- Node9 -->
<g id="node9" class="node">
<title>Node9</title>
<g id="a_node9"><a xlink:href="../../d6/d00/stream__base_8cc.html" target="_top" xlink:title="src/stream_base.cc">
<polygon fill="#ffffff" stroke="#000000" points="769.6157,-.5 769.6157,-18.5 872.3101,-18.5 872.3101,-.5 769.6157,-.5"/>
<text text-anchor="middle" x="820.9629" y="-6.5" font-family="Helvetica,sans-Serif" font-size="10.00" fill="#000000">src/stream_base.cc</text>
</a>
</g>
</g>
<!-- Node1&#45;&gt;Node9 -->
<g id="edge8" class="edge">
<title>Node1&#45;&gt;Node9</title>
<path fill="none" stroke="#191970" d="M596.9924,-53.4942C649.2555,-43.2282 726.2795,-28.0985 775.015,-18.5255"/>
<polygon fill="#191970" stroke="#191970" points="596.0235,-50.1176 586.8857,-55.4795 597.3728,-56.9863 596.0235,-50.1176"/>
</g>
<!-- Node10 -->
<g id="node10" class="node">
<title>Node10</title>
<g id="a_node10"><a xlink:href="../../df/db9/string__bytes_8cc.html" target="_top" xlink:title="src/string_bytes.cc">
<polygon fill="#ffffff" stroke="#000000" points="890.5615,-.5 890.5615,-18.5 989.3643,-18.5 989.3643,-.5 890.5615,-.5"/>
<text text-anchor="middle" x="939.9629" y="-6.5" font-family="Helvetica,sans-Serif" font-size="10.00" fill="#000000">src/string_bytes.cc</text>
</a>
</g>
</g>
<!-- Node1&#45;&gt;Node10 -->
<g id="edge9" class="edge">
<title>Node1&#45;&gt;Node10</title>
<path fill="none" stroke="#191970" d="M598.3498,-57.2936C665.996,-48.6893 781.771,-33.6202 880.9629,-19 884.0421,-18.5461 887.2099,-18.0682 890.4032,-17.578"/>
<polygon fill="#191970" stroke="#191970" points="597.8009,-53.8351 588.3213,-58.5666 598.6824,-60.7794 597.8009,-53.8351"/>
</g>
<!-- Node11 -->
<g id="node11" class="node">
<title>Node11</title>
<g id="a_node11"><a xlink:href="../../d9/d6f/util_8cc.html" target="_top" xlink:title="src/util.cc">
<polygon fill="#ffffff" stroke="#000000" points="1007.1279,-.5 1007.1279,-18.5 1064.7979,-18.5 1064.7979,-.5 1007.1279,-.5"/>
<text text-anchor="middle" x="1035.9629" y="-6.5" font-family="Helvetica,sans-Serif" font-size="10.00" fill="#000000">src/util.cc</text>
</a>
</g>
</g>
<!-- Node1&#45;&gt;Node11 -->
<g id="edge10" class="edge">
<title>Node1&#45;&gt;Node11</title>
<path fill="none" stroke="#191970" d="M598.4989,-61.4688C685.4944,-56.2788 855.483,-43.7668 997.9629,-19 1000.9108,-18.4876 1003.9679,-17.8707 1007.0096,-17.2003"/>
<polygon fill="#191970" stroke="#191970" points="598.0867,-57.9869 588.3085,-62.0658 598.4961,-64.9749 598.0867,-57.9869"/>
</g>
</g>
</svg>
