<?xml version="1.0" encoding="UTF-8" standalone="no"?>
<!DOCTYPE svg PUBLIC "-//W3C//DTD SVG 1.1//EN"
 "http://www.w3.org/Graphics/SVG/1.1/DTD/svg11.dtd">
<!-- Generated by graphviz version 2.40.1 (20161225.0304)
 -->
<!-- Title: src/node_mutex.h Pages: 1 -->
<svg width="103pt" height="82pt"
 viewBox="0.00 0.00 103.49 82.00" xmlns="http://www.w3.org/2000/svg" xmlns:xlink="http://www.w3.org/1999/xlink">
<g id="graph0" class="graph" transform="scale(1 1) rotate(0) translate(4 78)">
<title>src/node_mutex.h</title>
<polygon fill="#ffffff" stroke="transparent" points="-4,4 -4,-78 99.4873,-78 99.4873,4 -4,4"/>
<!-- Node0 -->
<g id="node1" class="node">
<title>Node0</title>
<polygon fill="#bfbfbf" stroke="#000000" points="0,-55.5 0,-73.5 95.4873,-73.5 95.4873,-55.5 0,-55.5"/>
<text text-anchor="middle" x="47.7437" y="-61.5" font-family="Helvetica,sans-Serif" font-size="10.00" fill="#000000">src/node_mutex.h</text>
</g>
<!-- Node1 -->
<g id="node2" class="node">
<title>Node1</title>
<g id="a_node2"><a xlink:href="../../d8/d3c/util_8h.html" target="_top" xlink:title="util.h">
<polygon fill="#ffffff" stroke="#000000" points="2.1821,-.5 2.1821,-18.5 39.3052,-18.5 39.3052,-.5 2.1821,-.5"/>
<text text-anchor="middle" x="20.7437" y="-6.5" font-family="Helvetica,sans-Serif" font-size="10.00" fill="#000000">util.h</text>
</a>
</g>
</g>
<!-- Node0&#45;&gt;Node1 -->
<g id="edge1" class="edge">
<title>Node0&#45;&gt;Node1</title>
<path fill="none" stroke="#191970" d="M43.2852,-55.4179C39.6333,-47.9789 34.3479,-37.2123 29.8128,-27.9742"/>
<polygon fill="#191970" stroke="#191970" points="32.8476,-26.2138 25.299,-18.7795 26.564,-29.2985 32.8476,-26.2138"/>
</g>
<!-- Node2 -->
<g id="node3" class="node">
<title>Node2</title>
<polygon fill="#ffffff" stroke="#bfbfbf" points="57.6616,-.5 57.6616,-18.5 91.8257,-18.5 91.8257,-.5 57.6616,-.5"/>
<text text-anchor="middle" x="74.7437" y="-6.5" font-family="Helvetica,sans-Serif" font-size="10.00" fill="#000000">uv.h</text>
</g>
<!-- Node0&#45;&gt;Node2 -->
<g id="edge2" class="edge">
<title>Node0&#45;&gt;Node2</title>
<path fill="none" stroke="#191970" d="M52.2022,-55.4179C55.854,-47.9789 61.1394,-37.2123 65.6745,-27.9742"/>
<polygon fill="#191970" stroke="#191970" points="68.9233,-29.2985 70.1883,-18.7795 62.6397,-26.2138 68.9233,-29.2985"/>
</g>
</g>
</svg>
