<?xml version="1.0" encoding="UTF-8" standalone="no"?>
<!DOCTYPE svg PUBLIC "-//W3C//DTD SVG 1.1//EN"
 "http://www.w3.org/Graphics/SVG/1.1/DTD/svg11.dtd">
<!-- Generated by graphviz version 2.40.1 (20161225.0304)
 -->
<!-- Title: src/env&#45;inl.h Pages: 1 -->
<svg width="4682pt" height="82pt"
 viewBox="0.00 0.00 4682.36 82.00" xmlns="http://www.w3.org/2000/svg" xmlns:xlink="http://www.w3.org/1999/xlink">
<g id="graph0" class="graph" transform="scale(1 1) rotate(0) translate(4 78)">
<title>src/env&#45;inl.h</title>
<polygon fill="#ffffff" stroke="transparent" points="-4,4 -4,-78 4678.3628,-78 4678.3628,4 -4,4"/>
<!-- Node1 -->
<g id="node1" class="node">
<title>Node1</title>
<polygon fill="#bfbfbf" stroke="#000000" points="2378.0542,-55.5 2378.0542,-73.5 2447.9604,-73.5 2447.9604,-55.5 2378.0542,-55.5"/>
<text text-anchor="middle" x="2413.0073" y="-61.5" font-family="Helvetica,sans-Serif" font-size="10.00" fill="#000000">src/env&#45;inl.h</text>
</g>
<!-- Node2 -->
<g id="node2" class="node">
<title>Node2</title>
<g id="a_node2"><a xlink:href="../../de/dd2/async-wrap_8cc.html" target="_top" xlink:title="src/async&#45;wrap.cc">
<polygon fill="#ffffff" stroke="#000000" points="0,-.5 0,-18.5 96.0146,-18.5 96.0146,-.5 0,-.5"/>
<text text-anchor="middle" x="48.0073" y="-6.5" font-family="Helvetica,sans-Serif" font-size="10.00" fill="#000000">src/async&#45;wrap.cc</text>
</a>
</g>
</g>
<!-- Node1&#45;&gt;Node2 -->
<g id="edge1" class="edge">
<title>Node1&#45;&gt;Node2</title>
<path fill="none" stroke="#191970" d="M2367.5007,-64.0016C2063.9789,-60.6247 337.8178,-40.5802 105.0073,-19 102.1104,-18.7315 99.1383,-18.4019 96.1453,-18.0285"/>
<polygon fill="#191970" stroke="#191970" points="2367.6547,-67.5034 2377.6929,-64.1147 2367.7324,-60.5039 2367.6547,-67.5034"/>
</g>
<!-- Node3 -->
<g id="node3" class="node">
<title>Node3</title>
<g id="a_node3"><a xlink:href="../../dc/ded/cares__wrap_8cc.html" target="_top" xlink:title="src/cares_wrap.cc">
<polygon fill="#ffffff" stroke="#000000" points="113.7192,-.5 113.7192,-18.5 210.2954,-18.5 210.2954,-.5 113.7192,-.5"/>
<text text-anchor="middle" x="162.0073" y="-6.5" font-family="Helvetica,sans-Serif" font-size="10.00" fill="#000000">src/cares_wrap.cc</text>
</a>
</g>
</g>
<!-- Node1&#45;&gt;Node3 -->
<g id="edge2" class="edge">
<title>Node1&#45;&gt;Node3</title>
<path fill="none" stroke="#191970" d="M2367.4361,-64.4523C2092.9976,-64.0294 657.4522,-59.8677 219.0073,-19 216.2104,-18.7393 213.3434,-18.422 210.4552,-18.0635"/>
<polygon fill="#191970" stroke="#191970" points="2367.8035,-67.9527 2377.8085,-64.4673 2367.8137,-60.9527 2367.8035,-67.9527"/>
</g>
<!-- Node4 -->
<g id="node4" class="node">
<title>Node4</title>
<g id="a_node4"><a xlink:href="../../d3/d36/connect__wrap_8cc.html" target="_top" xlink:title="src/connect_wrap.cc">
<polygon fill="#ffffff" stroke="#000000" points="228.4336,-.5 228.4336,-18.5 335.5811,-18.5 335.5811,-.5 228.4336,-.5"/>
<text text-anchor="middle" x="282.0073" y="-6.5" font-family="Helvetica,sans-Serif" font-size="10.00" fill="#000000">src/connect_wrap.cc</text>
</a>
</g>
</g>
<!-- Node1&#45;&gt;Node4 -->
<g id="edge3" class="edge">
<title>Node1&#45;&gt;Node4</title>
<path fill="none" stroke="#191970" d="M2367.5752,-64.2905C2102.8837,-62.9503 757.2398,-54.47 345.0073,-19 342.0318,-18.744 338.9831,-18.4363 335.9099,-18.0907"/>
<polygon fill="#191970" stroke="#191970" points="2367.9364,-67.7922 2377.9537,-64.3422 2367.9713,-60.7923 2367.9364,-67.7922"/>
</g>
<!-- Node5 -->
<g id="node5" class="node">
<title>Node5</title>
<g id="a_node5"><a xlink:href="../../d7/d47/connection__wrap_8cc.html" target="_top" xlink:title="src/connection_wrap.cc">
<polygon fill="#ffffff" stroke="#000000" points="353.7612,-.5 353.7612,-18.5 474.2534,-18.5 474.2534,-.5 353.7612,-.5"/>
<text text-anchor="middle" x="414.0073" y="-6.5" font-family="Helvetica,sans-Serif" font-size="10.00" fill="#000000">src/connection_wrap.cc</text>
</a>
</g>
</g>
<!-- Node1&#45;&gt;Node5 -->
<g id="edge4" class="edge">
<title>Node1&#45;&gt;Node5</title>
<path fill="none" stroke="#191970" d="M2367.4179,-64.1274C2112.9885,-61.9415 866.2938,-49.8041 483.0073,-19 480.2351,-18.7772 477.404,-18.5177 474.547,-18.23"/>
<polygon fill="#191970" stroke="#191970" points="2367.7323,-67.6301 2377.7617,-64.2155 2367.7919,-60.6304 2367.7323,-67.6301"/>
</g>
<!-- Node6 -->
<g id="node6" class="node">
<title>Node6</title>
<g id="a_node6"><a xlink:href="../../d3/d7d/env_8cc.html" target="_top" xlink:title="src/env.cc">
<polygon fill="#ffffff" stroke="#000000" points="491.8711,-.5 491.8711,-18.5 552.1436,-18.5 552.1436,-.5 491.8711,-.5"/>
<text text-anchor="middle" x="522.0073" y="-6.5" font-family="Helvetica,sans-Serif" font-size="10.00" fill="#000000">src/env.cc</text>
</a>
</g>
</g>
<!-- Node1&#45;&gt;Node6 -->
<g id="edge5" class="edge">
<title>Node1&#45;&gt;Node6</title>
<path fill="none" stroke="#191970" d="M2367.5956,-63.9673C2101.011,-60.7629 744.8716,-43.3652 561.0073,-19 558.244,-18.6338 555.392,-18.1501 552.5466,-17.5946"/>
<polygon fill="#191970" stroke="#191970" points="2367.6501,-67.4682 2377.6913,-64.0882 2367.7339,-60.4687 2367.6501,-67.4682"/>
</g>
<!-- Node7 -->
<g id="node7" class="node">
<title>Node7</title>
<g id="a_node7"><a xlink:href="../../d6/d2f/fs__event__wrap_8cc.html" target="_top" xlink:title="src/fs_event_wrap.cc">
<polygon fill="#ffffff" stroke="#000000" points="570.0444,-.5 570.0444,-18.5 679.9702,-18.5 679.9702,-.5 570.0444,-.5"/>
<text text-anchor="middle" x="625.0073" y="-6.5" font-family="Helvetica,sans-Serif" font-size="10.00" fill="#000000">src/fs_event_wrap.cc</text>
</a>
</g>
</g>
<!-- Node1&#45;&gt;Node7 -->
<g id="edge6" class="edge">
<title>Node1&#45;&gt;Node7</title>
<path fill="none" stroke="#191970" d="M2367.4528,-64.0448C2129.6603,-61.555 1028.8575,-48.5985 689.0073,-19 686.0978,-18.7466 683.1191,-18.4467 680.1153,-18.1123"/>
<polygon fill="#191970" stroke="#191970" points="2367.7636,-67.5481 2377.7994,-64.1522 2367.8363,-60.5485 2367.7636,-67.5481"/>
</g>
<!-- Node8 -->
<g id="node8" class="node">
<title>Node8</title>
<g id="a_node8"><a xlink:href="../../df/dcb/handle__wrap_8cc.html" target="_top" xlink:title="src/handle_wrap.cc">
<polygon fill="#ffffff" stroke="#000000" points="697.9312,-.5 697.9312,-18.5 800.0835,-18.5 800.0835,-.5 697.9312,-.5"/>
<text text-anchor="middle" x="749.0073" y="-6.5" font-family="Helvetica,sans-Serif" font-size="10.00" fill="#000000">src/handle_wrap.cc</text>
</a>
</g>
</g>
<!-- Node1&#45;&gt;Node8 -->
<g id="edge7" class="edge">
<title>Node1&#45;&gt;Node8</title>
<path fill="none" stroke="#191970" d="M2367.7361,-64.0039C2140.6041,-61.3944 1123.7021,-48.2543 809.0073,-19 806.172,-18.7364 803.2674,-18.4228 800.3395,-18.0725"/>
<polygon fill="#191970" stroke="#191970" points="2367.9098,-67.506 2377.949,-64.1202 2367.9895,-60.5064 2367.9098,-67.506"/>
</g>
<!-- Node9 -->
<g id="node9" class="node">
<title>Node9</title>
<g id="a_node9"><a xlink:href="../../d5/d2d/inspector__agent_8cc.html" target="_top" xlink:title="src/inspector_agent.cc">
<polygon fill="#ffffff" stroke="#000000" points="817.9829,-.5 817.9829,-18.5 934.0317,-18.5 934.0317,-.5 817.9829,-.5"/>
<text text-anchor="middle" x="876.0073" y="-6.5" font-family="Helvetica,sans-Serif" font-size="10.00" fill="#000000">src/inspector_agent.cc</text>
</a>
</g>
</g>
<!-- Node1&#45;&gt;Node9 -->
<g id="edge8" class="edge">
<title>Node1&#45;&gt;Node9</title>
<path fill="none" stroke="#191970" d="M2367.7562,-63.7707C2152.4028,-60.1974 1229.9024,-43.7043 943.0073,-19 940.0811,-18.748 937.0874,-18.4547 934.0674,-18.1304"/>
<polygon fill="#191970" stroke="#191970" points="2367.7055,-67.2703 2377.7619,-63.9359 2367.8211,-60.2712 2367.7055,-67.2703"/>
</g>
<!-- Node10 -->
<g id="node10" class="node">
<title>Node10</title>
<g id="a_node10"><a xlink:href="../../d1/d89/inspector__io_8cc.html" target="_top" xlink:title="src/inspector_io.cc">
<polygon fill="#ffffff" stroke="#000000" points="951.6035,-.5 951.6035,-18.5 1050.4111,-18.5 1050.4111,-.5 951.6035,-.5"/>
<text text-anchor="middle" x="1001.0073" y="-6.5" font-family="Helvetica,sans-Serif" font-size="10.00" fill="#000000">src/inspector_io.cc</text>
</a>
</g>
</g>
<!-- Node1&#45;&gt;Node10 -->
<g id="edge9" class="edge">
<title>Node1&#45;&gt;Node10</title>
<path fill="none" stroke="#191970" d="M2367.7739,-63.7461C2163.0962,-60.2171 1322.2761,-44.4226 1060.0073,-19 1056.9093,-18.6997 1053.7272,-18.3393 1050.5232,-17.9371"/>
<polygon fill="#191970" stroke="#191970" points="2367.8083,-67.2471 2377.8668,-63.9191 2367.9283,-60.2482 2367.8083,-67.2471"/>
</g>
<!-- Node11 -->
<g id="node11" class="node">
<title>Node11</title>
<g id="a_node11"><a xlink:href="../../d4/da3/js__stream_8cc.html" target="_top" xlink:title="src/js_stream.cc">
<polygon fill="#ffffff" stroke="#000000" points="1068.8916,-.5 1068.8916,-18.5 1157.123,-18.5 1157.123,-.5 1068.8916,-.5"/>
<text text-anchor="middle" x="1113.0073" y="-6.5" font-family="Helvetica,sans-Serif" font-size="10.00" fill="#000000">src/js_stream.cc</text>
</a>
</g>
</g>
<!-- Node1&#45;&gt;Node11 -->
<g id="edge10" class="edge">
<title>Node1&#45;&gt;Node11</title>
<path fill="none" stroke="#191970" d="M2367.8945,-63.7069C2173.4594,-60.1572 1406.0696,-44.7649 1166.0073,-19 1163.126,-18.6908 1160.1653,-18.3171 1157.1867,-17.8992"/>
<polygon fill="#191970" stroke="#191970" points="2367.976,-67.2088 2378.0379,-63.8908 2368.103,-60.21 2367.976,-67.2088"/>
</g>
<!-- Node12 -->
<g id="node12" class="node">
<title>Node12</title>
<g id="a_node12"><a xlink:href="../../dc/dfd/node_8cc.html" target="_top" xlink:title="src/node.cc">
<polygon fill="#ffffff" stroke="#000000" points="1175.4409,-.5 1175.4409,-18.5 1242.5737,-18.5 1242.5737,-.5 1175.4409,-.5"/>
<text text-anchor="middle" x="1209.0073" y="-6.5" font-family="Helvetica,sans-Serif" font-size="10.00" fill="#000000">src/node.cc</text>
</a>
</g>
</g>
<!-- Node1&#45;&gt;Node12 -->
<g id="edge11" class="edge">
<title>Node1&#45;&gt;Node12</title>
<path fill="none" stroke="#191970" d="M2367.6483,-63.8354C2181.1378,-60.931 1472.7653,-48.1707 1251.0073,-19 1248.339,-18.649 1245.5906,-18.2089 1242.8373,-17.7116"/>
<polygon fill="#191970" stroke="#191970" points="2367.8602,-67.339 2377.9129,-63.9934 2367.968,-60.3398 2367.8602,-67.339"/>
</g>
<!-- Node13 -->
<g id="node13" class="node">
<title>Node13</title>
<g id="a_node13"><a xlink:href="../../d2/deb/node__buffer_8cc.html" target="_top" xlink:title="src/node_buffer.cc">
<polygon fill="#ffffff" stroke="#000000" points="1260.2358,-.5 1260.2358,-18.5 1357.7788,-18.5 1357.7788,-.5 1260.2358,-.5"/>
<text text-anchor="middle" x="1309.0073" y="-6.5" font-family="Helvetica,sans-Serif" font-size="10.00" fill="#000000">src/node_buffer.cc</text>
</a>
</g>
</g>
<!-- Node1&#45;&gt;Node13 -->
<g id="edge12" class="edge">
<title>Node1&#45;&gt;Node13</title>
<path fill="none" stroke="#191970" d="M2367.9576,-63.2739C2193.8552,-58.422 1564.84,-39.8117 1366.0073,-19 1363.4131,-18.7285 1360.7579,-18.4141 1358.0808,-18.0684"/>
<polygon fill="#191970" stroke="#191970" points="2367.9572,-66.7752 2378.0504,-63.554 2368.1514,-59.7779 2367.9572,-66.7752"/>
</g>
<!-- Node14 -->
<g id="node14" class="node">
<title>Node14</title>
<g id="a_node14"><a xlink:href="../../d1/d72/node__config_8cc.html" target="_top" xlink:title="src/node_config.cc">
<polygon fill="#ffffff" stroke="#000000" points="1375.3179,-.5 1375.3179,-18.5 1474.6968,-18.5 1474.6968,-.5 1375.3179,-.5"/>
<text text-anchor="middle" x="1425.0073" y="-6.5" font-family="Helvetica,sans-Serif" font-size="10.00" fill="#000000">src/node_config.cc</text>
</a>
</g>
</g>
<!-- Node1&#45;&gt;Node14 -->
<g id="edge13" class="edge">
<title>Node1&#45;&gt;Node14</title>
<path fill="none" stroke="#191970" d="M2367.4761,-64.0996C2232.2709,-62.5186 1821.4648,-54.8809 1483.0073,-19 1480.3692,-18.7203 1477.6686,-18.3995 1474.9456,-18.0487"/>
<polygon fill="#191970" stroke="#191970" points="2367.809,-67.6035 2377.8474,-64.2152 2367.8871,-60.6039 2367.809,-67.6035"/>
</g>
<!-- Node15 -->
<g id="node15" class="node">
<title>Node15</title>
<g id="a_node15"><a xlink:href="../../d1/d7e/node__constants_8cc.html" target="_top" xlink:title="src/node_constants.cc">
<polygon fill="#ffffff" stroke="#000000" points="1492.2588,-.5 1492.2588,-18.5 1607.7559,-18.5 1607.7559,-.5 1492.2588,-.5"/>
<text text-anchor="middle" x="1550.0073" y="-6.5" font-family="Helvetica,sans-Serif" font-size="10.00" fill="#000000">src/node_constants.cc</text>
</a>
</g>
</g>
<!-- Node1&#45;&gt;Node15 -->
<g id="edge14" class="edge">
<title>Node1&#45;&gt;Node15</title>
<path fill="none" stroke="#191970" d="M2367.9648,-63.2474C2246.4941,-59.5838 1902.0901,-47.3087 1617.0073,-19 1614.0846,-18.7098 1611.0938,-18.3856 1608.076,-18.037"/>
<polygon fill="#191970" stroke="#191970" points="2367.9112,-66.7473 2378.0108,-63.546 2368.1192,-59.7504 2367.9112,-66.7473"/>
</g>
<!-- Node16 -->
<g id="node16" class="node">
<title>Node16</title>
<g id="a_node16"><a xlink:href="../../d2/d17/node__contextify_8cc.html" target="_top" xlink:title="src/node_contextify.cc">
<polygon fill="#ffffff" stroke="#000000" points="1625.9082,-.5 1625.9082,-18.5 1740.1064,-18.5 1740.1064,-.5 1625.9082,-.5"/>
<text text-anchor="middle" x="1683.0073" y="-6.5" font-family="Helvetica,sans-Serif" font-size="10.00" fill="#000000">src/node_contextify.cc</text>
</a>
</g>
</g>
<!-- Node1&#45;&gt;Node16 -->
<g id="edge15" class="edge">
<title>Node1&#45;&gt;Node16</title>
<path fill="none" stroke="#191970" d="M2367.8566,-62.5689C2260.4088,-57.7199 1981.1382,-43.625 1749.0073,-19 1746.1294,-18.6947 1743.1841,-18.3584 1740.2121,-18.0001"/>
<polygon fill="#191970" stroke="#191970" points="2367.8645,-66.0726 2378.0108,-63.0226 2368.1771,-59.0796 2367.8645,-66.0726"/>
</g>
<!-- Node17 -->
<g id="node17" class="node">
<title>Node17</title>
<g id="a_node17"><a xlink:href="../../de/d23/node__counters_8cc.html" target="_top" xlink:title="src/node_counters.cc">
<polygon fill="#ffffff" stroke="#000000" points="1758.4829,-.5 1758.4829,-18.5 1869.5317,-18.5 1869.5317,-.5 1758.4829,-.5"/>
<text text-anchor="middle" x="1814.0073" y="-6.5" font-family="Helvetica,sans-Serif" font-size="10.00" fill="#000000">src/node_counters.cc</text>
</a>
</g>
</g>
<!-- Node1&#45;&gt;Node17 -->
<g id="edge16" class="edge">
<title>Node1&#45;&gt;Node17</title>
<path fill="none" stroke="#191970" d="M2367.7718,-61.6115C2275.4998,-55.5083 2058.9894,-40.1073 1878.0073,-19 1875.3296,-18.6877 1872.5914,-18.3505 1869.8277,-17.9957"/>
<polygon fill="#191970" stroke="#191970" points="2367.6695,-65.1123 2377.8774,-62.2756 2368.1285,-58.1273 2367.6695,-65.1123"/>
</g>
<!-- Node18 -->
<g id="node18" class="node">
<title>Node18</title>
<g id="a_node18"><a xlink:href="../../d5/d61/node__crypto_8cc.html" target="_top" xlink:title="src/node_crypto.cc">
<polygon fill="#ffffff" stroke="#000000" points="1887.0444,-.5 1887.0444,-18.5 1986.9702,-18.5 1986.9702,-.5 1887.0444,-.5"/>
<text text-anchor="middle" x="1937.0073" y="-6.5" font-family="Helvetica,sans-Serif" font-size="10.00" fill="#000000">src/node_crypto.cc</text>
</a>
</g>
</g>
<!-- Node1&#45;&gt;Node18 -->
<g id="edge17" class="edge">
<title>Node1&#45;&gt;Node18</title>
<path fill="none" stroke="#191970" d="M2367.522,-60.3028C2290.7801,-53.0499 2130.7635,-37.1888 1996.0073,-19 1993.1284,-18.6114 1990.1735,-18.1942 1987.1936,-17.7592"/>
<polygon fill="#191970" stroke="#191970" points="2367.5027,-63.8163 2377.7866,-61.2684 2368.1584,-56.8471 2367.5027,-63.8163"/>
</g>
<!-- Node19 -->
<g id="node19" class="node">
<title>Node19</title>
<g id="a_node19"><a xlink:href="../../d6/dad/node__dtrace_8cc.html" target="_top" xlink:title="src/node_dtrace.cc">
<polygon fill="#ffffff" stroke="#000000" points="2004.7637,-.5 2004.7637,-18.5 2105.251,-18.5 2105.251,-.5 2004.7637,-.5"/>
<text text-anchor="middle" x="2055.0073" y="-6.5" font-family="Helvetica,sans-Serif" font-size="10.00" fill="#000000">src/node_dtrace.cc</text>
</a>
</g>
</g>
<!-- Node1&#45;&gt;Node19 -->
<g id="edge18" class="edge">
<title>Node1&#45;&gt;Node19</title>
<path fill="none" stroke="#191970" d="M2367.9847,-57.7725C2309.45,-48.9975 2204.0512,-33.1002 2114.0073,-19 2111.2398,-18.5666 2108.3998,-18.119 2105.5333,-17.6649"/>
<polygon fill="#191970" stroke="#191970" points="2367.5997,-61.2538 2378.0079,-59.2741 2368.6369,-54.331 2367.5997,-61.2538"/>
</g>
<!-- Node20 -->
<g id="node20" class="node">
<title>Node20</title>
<g id="a_node20"><a xlink:href="../../dd/daa/node__file_8cc.html" target="_top" xlink:title="src/node_file.cc">
<polygon fill="#ffffff" stroke="#000000" points="2123.2686,-.5 2123.2686,-18.5 2208.7461,-18.5 2208.7461,-.5 2123.2686,-.5"/>
<text text-anchor="middle" x="2166.0073" y="-6.5" font-family="Helvetica,sans-Serif" font-size="10.00" fill="#000000">src/node_file.cc</text>
</a>
</g>
</g>
<!-- Node1&#45;&gt;Node20 -->
<g id="edge19" class="edge">
<title>Node1&#45;&gt;Node20</title>
<path fill="none" stroke="#191970" d="M2367.8879,-54.4532C2321.8776,-44.208 2251.1303,-28.4545 2206.7646,-18.5755"/>
<polygon fill="#191970" stroke="#191970" points="2367.3589,-57.921 2377.8806,-56.6783 2368.8804,-51.0884 2367.3589,-57.921"/>
</g>
<!-- Node21 -->
<g id="node21" class="node">
<title>Node21</title>
<g id="a_node21"><a xlink:href="../../d1/d90/node__http__parser_8cc.html" target="_top" xlink:title="src/node_http_parser.cc">
<polygon fill="#ffffff" stroke="#000000" points="2226.6406,-.5 2226.6406,-18.5 2349.374,-18.5 2349.374,-.5 2226.6406,-.5"/>
<text text-anchor="middle" x="2288.0073" y="-6.5" font-family="Helvetica,sans-Serif" font-size="10.00" fill="#000000">src/node_http_parser.cc</text>
</a>
</g>
</g>
<!-- Node1&#45;&gt;Node21 -->
<g id="edge20" class="edge">
<title>Node1&#45;&gt;Node21</title>
<path fill="none" stroke="#191970" d="M2383.0711,-51.328C2360.0888,-41.2159 2328.9556,-27.5172 2308.6792,-18.5956"/>
<polygon fill="#191970" stroke="#191970" points="2381.8034,-54.594 2392.3661,-55.4179 2384.6226,-48.1868 2381.8034,-54.594"/>
</g>
<!-- Node22 -->
<g id="node22" class="node">
<title>Node22</title>
<g id="a_node22"><a xlink:href="../../dc/de7/node__lttng_8cc.html" target="_top" xlink:title="src/node_lttng.cc">
<polygon fill="#ffffff" stroke="#000000" points="2367.2095,-.5 2367.2095,-18.5 2458.8052,-18.5 2458.8052,-.5 2367.2095,-.5"/>
<text text-anchor="middle" x="2413.0073" y="-6.5" font-family="Helvetica,sans-Serif" font-size="10.00" fill="#000000">src/node_lttng.cc</text>
</a>
</g>
</g>
<!-- Node1&#45;&gt;Node22 -->
<g id="edge21" class="edge">
<title>Node1&#45;&gt;Node22</title>
<path fill="none" stroke="#191970" d="M2413.0073,-45.383C2413.0073,-36.3738 2413.0073,-26.0373 2413.0073,-18.7795"/>
<polygon fill="#191970" stroke="#191970" points="2409.5074,-45.4178 2413.0073,-55.4179 2416.5074,-45.4179 2409.5074,-45.4178"/>
</g>
<!-- Node23 -->
<g id="node23" class="node">
<title>Node23</title>
<g id="a_node23"><a xlink:href="../../d2/da2/node__os_8cc.html" target="_top" xlink:title="src/node_os.cc">
<polygon fill="#ffffff" stroke="#000000" points="2476.3794,-.5 2476.3794,-18.5 2559.6353,-18.5 2559.6353,-.5 2476.3794,-.5"/>
<text text-anchor="middle" x="2518.0073" y="-6.5" font-family="Helvetica,sans-Serif" font-size="10.00" fill="#000000">src/node_os.cc</text>
</a>
</g>
</g>
<!-- Node1&#45;&gt;Node23 -->
<g id="edge22" class="edge">
<title>Node1&#45;&gt;Node23</title>
<path fill="none" stroke="#191970" d="M2439.4566,-50.6456C2458.6218,-40.6067 2483.991,-27.3181 2500.643,-18.5956"/>
<polygon fill="#191970" stroke="#191970" points="2437.5802,-47.6773 2430.3459,-55.4179 2440.8283,-53.8782 2437.5802,-47.6773"/>
</g>
<!-- Node24 -->
<g id="node24" class="node">
<title>Node24</title>
<g id="a_node24"><a xlink:href="../../da/d00/node__perf_8cc.html" target="_top" xlink:title="src/node_perf.cc">
<polygon fill="#ffffff" stroke="#000000" points="2578.0444,-.5 2578.0444,-18.5 2667.9702,-18.5 2667.9702,-.5 2578.0444,-.5"/>
<text text-anchor="middle" x="2623.0073" y="-6.5" font-family="Helvetica,sans-Serif" font-size="10.00" fill="#000000">src/node_perf.cc</text>
</a>
</g>
</g>
<!-- Node1&#45;&gt;Node24 -->
<g id="edge23" class="edge">
<title>Node1&#45;&gt;Node24</title>
<path fill="none" stroke="#191970" d="M2457.4967,-52.848C2496.648,-42.5941 2552.8392,-27.8774 2588.6276,-18.5042"/>
<polygon fill="#191970" stroke="#191970" points="2456.4715,-49.4984 2447.6846,-55.4179 2458.2451,-56.27 2456.4715,-49.4984"/>
</g>
<!-- Node25 -->
<g id="node25" class="node">
<title>Node25</title>
<g id="a_node25"><a xlink:href="../../dc/d3a/node__serdes_8cc.html" target="_top" xlink:title="src/node_serdes.cc">
<polygon fill="#ffffff" stroke="#000000" points="2685.6528,-.5 2685.6528,-18.5 2788.3618,-18.5 2788.3618,-.5 2685.6528,-.5"/>
<text text-anchor="middle" x="2737.0073" y="-6.5" font-family="Helvetica,sans-Serif" font-size="10.00" fill="#000000">src/node_serdes.cc</text>
</a>
</g>
</g>
<!-- Node1&#45;&gt;Node25 -->
<g id="edge24" class="edge">
<title>Node1&#45;&gt;Node25</title>
<path fill="none" stroke="#191970" d="M2457.8622,-56.8857C2517.4818,-46.7651 2622.5983,-28.9213 2685.4297,-18.2555"/>
<polygon fill="#191970" stroke="#191970" points="2457.262,-53.4375 2447.9888,-58.5618 2458.4336,-60.3387 2457.262,-53.4375"/>
</g>
<!-- Node26 -->
<g id="node26" class="node">
<title>Node26</title>
<g id="a_node26"><a xlink:href="../../dc/de6/node__stat__watcher_8cc.html" target="_top" xlink:title="src/node_stat_watcher.cc">
<polygon fill="#ffffff" stroke="#000000" points="2806.5864,-.5 2806.5864,-18.5 2935.4282,-18.5 2935.4282,-.5 2806.5864,-.5"/>
<text text-anchor="middle" x="2871.0073" y="-6.5" font-family="Helvetica,sans-Serif" font-size="10.00" fill="#000000">src/node_stat_watcher.cc</text>
</a>
</g>
</g>
<!-- Node1&#45;&gt;Node26 -->
<g id="edge25" class="edge">
<title>Node1&#45;&gt;Node26</title>
<path fill="none" stroke="#191970" d="M2458.009,-59.3117C2529.7467,-51.0085 2674.4441,-34.1281 2797.0073,-19 2800.0925,-18.6192 2803.2497,-18.2263 2806.4381,-17.8269"/>
<polygon fill="#191970" stroke="#191970" points="2457.4971,-55.8475 2447.9654,-60.4733 2458.3014,-62.8011 2457.4971,-55.8475"/>
</g>
<!-- Node27 -->
<g id="node27" class="node">
<title>Node27</title>
<g id="a_node27"><a xlink:href="../../df/dcb/node__url_8cc.html" target="_top" xlink:title="src/node_url.cc">
<polygon fill="#ffffff" stroke="#000000" points="2953.1035,-.5 2953.1035,-18.5 3036.9111,-18.5 3036.9111,-.5 2953.1035,-.5"/>
<text text-anchor="middle" x="2995.0073" y="-6.5" font-family="Helvetica,sans-Serif" font-size="10.00" fill="#000000">src/node_url.cc</text>
</a>
</g>
</g>
<!-- Node1&#45;&gt;Node27 -->
<g id="edge26" class="edge">
<title>Node1&#45;&gt;Node27</title>
<path fill="none" stroke="#191970" d="M2458.3134,-62.1297C2550.2123,-56.9889 2765.013,-43.2795 2944.0073,-19 2946.9525,-18.6005 2949.9858,-18.1461 2953.0356,-17.6577"/>
<polygon fill="#191970" stroke="#191970" points="2458.0366,-58.6396 2448.2449,-62.686 2458.4228,-65.6289 2458.0366,-58.6396"/>
</g>
<!-- Node28 -->
<g id="node28" class="node">
<title>Node28</title>
<g id="a_node28"><a xlink:href="../../da/dc5/node__util_8cc.html" target="_top" xlink:title="src/node_util.cc">
<polygon fill="#ffffff" stroke="#000000" points="3055.2686,-.5 3055.2686,-18.5 3140.7461,-18.5 3140.7461,-.5 3055.2686,-.5"/>
<text text-anchor="middle" x="3098.0073" y="-6.5" font-family="Helvetica,sans-Serif" font-size="10.00" fill="#000000">src/node_util.cc</text>
</a>
</g>
</g>
<!-- Node1&#45;&gt;Node28 -->
<g id="edge27" class="edge">
<title>Node1&#45;&gt;Node28</title>
<path fill="none" stroke="#191970" d="M2458.2889,-62.9396C2562.4069,-58.9821 2826.7347,-46.8263 3046.0073,-19 3049.0117,-18.6187 3052.1056,-18.1779 3055.216,-17.6992"/>
<polygon fill="#191970" stroke="#191970" points="2457.9993,-59.4479 2448.1368,-63.3186 2458.2605,-66.443 2457.9993,-59.4479"/>
</g>
<!-- Node29 -->
<g id="node29" class="node">
<title>Node29</title>
<g id="a_node29"><a xlink:href="../../d6/d35/node__v8_8cc.html" target="_top" xlink:title="src/node_v8.cc">
<polygon fill="#ffffff" stroke="#000000" points="3158.3794,-.5 3158.3794,-18.5 3241.6353,-18.5 3241.6353,-.5 3158.3794,-.5"/>
<text text-anchor="middle" x="3200.0073" y="-6.5" font-family="Helvetica,sans-Serif" font-size="10.00" fill="#000000">src/node_v8.cc</text>
</a>
</g>
</g>
<!-- Node1&#45;&gt;Node29 -->
<g id="edge28" class="edge">
<title>Node1&#45;&gt;Node29</title>
<path fill="none" stroke="#191970" d="M2458.302,-63.6889C2573.957,-61.1879 2889.4333,-51.6658 3150.0073,-19 3152.7252,-18.6593 3155.518,-18.2618 3158.3277,-17.8262"/>
<polygon fill="#191970" stroke="#191970" points="2457.9869,-60.1946 2448.0623,-63.903 2458.1333,-67.1931 2457.9869,-60.1946"/>
</g>
<!-- Node30 -->
<g id="node30" class="node">
<title>Node30</title>
<g id="a_node30"><a xlink:href="../../d9/d0d/node__zlib_8cc.html" target="_top" xlink:title="src/node_zlib.cc">
<polygon fill="#ffffff" stroke="#000000" points="3259.1577,-.5 3259.1577,-18.5 3346.8569,-18.5 3346.8569,-.5 3259.1577,-.5"/>
<text text-anchor="middle" x="3303.0073" y="-6.5" font-family="Helvetica,sans-Serif" font-size="10.00" fill="#000000">src/node_zlib.cc</text>
</a>
</g>
</g>
<!-- Node1&#45;&gt;Node30 -->
<g id="edge29" class="edge">
<title>Node1&#45;&gt;Node30</title>
<path fill="none" stroke="#191970" d="M2458.3294,-64.0507C2584.4122,-62.3678 2949.8243,-54.5439 3251.0073,-19 3253.6504,-18.6881 3256.3619,-18.3249 3259.0925,-17.9261"/>
<polygon fill="#191970" stroke="#191970" points="2458.2248,-60.5517 2448.2701,-64.1786 2458.3138,-67.5511 2458.2248,-60.5517"/>
</g>
<!-- Node31 -->
<g id="node31" class="node">
<title>Node31</title>
<g id="a_node31"><a xlink:href="../../d7/d2c/pipe__wrap_8cc.html" target="_top" xlink:title="src/pipe_wrap.cc">
<polygon fill="#ffffff" stroke="#000000" points="3364.4927,-.5 3364.4927,-18.5 3455.522,-18.5 3455.522,-.5 3364.4927,-.5"/>
<text text-anchor="middle" x="3410.0073" y="-6.5" font-family="Helvetica,sans-Serif" font-size="10.00" fill="#000000">src/pipe_wrap.cc</text>
</a>
</g>
</g>
<!-- Node1&#45;&gt;Node31 -->
<g id="edge30" class="edge">
<title>Node1&#45;&gt;Node31</title>
<path fill="none" stroke="#191970" d="M2458.3375,-63.0712C2621.5345,-57.809 3178.781,-38.7853 3356.0073,-19 3358.7508,-18.6937 3361.5656,-18.3349 3364.4005,-17.9394"/>
<polygon fill="#191970" stroke="#191970" points="2458.0485,-59.5786 2448.166,-63.3978 2458.2732,-66.575 2458.0485,-59.5786"/>
</g>
<!-- Node32 -->
<g id="node32" class="node">
<title>Node32</title>
<g id="a_node32"><a xlink:href="../../d8/d14/process__wrap_8cc.html" target="_top" xlink:title="src/process_wrap.cc">
<polygon fill="#ffffff" stroke="#000000" points="3473.4385,-.5 3473.4385,-18.5 3580.5762,-18.5 3580.5762,-.5 3473.4385,-.5"/>
<text text-anchor="middle" x="3527.0073" y="-6.5" font-family="Helvetica,sans-Serif" font-size="10.00" fill="#000000">src/process_wrap.cc</text>
</a>
</g>
</g>
<!-- Node1&#45;&gt;Node32 -->
<g id="edge31" class="edge">
<title>Node1&#45;&gt;Node32</title>
<path fill="none" stroke="#191970" d="M2458.2642,-63.1999C2633.1684,-58.0735 3265.0922,-38.5807 3465.0073,-19 3467.7167,-18.7346 3470.4882,-18.4305 3473.2839,-18.0977"/>
<polygon fill="#191970" stroke="#191970" points="2458.0184,-59.7055 2448.1249,-63.496 2458.2228,-66.7025 2458.0184,-59.7055"/>
</g>
<!-- Node33 -->
<g id="node33" class="node">
<title>Node33</title>
<g id="a_node33"><a xlink:href="../../d2/d9f/signal__wrap_8cc.html" target="_top" xlink:title="src/signal_wrap.cc">
<polygon fill="#ffffff" stroke="#000000" points="3598.8818,-.5 3598.8818,-18.5 3697.1328,-18.5 3697.1328,-.5 3598.8818,-.5"/>
<text text-anchor="middle" x="3648.0073" y="-6.5" font-family="Helvetica,sans-Serif" font-size="10.00" fill="#000000">src/signal_wrap.cc</text>
</a>
</g>
</g>
<!-- Node1&#45;&gt;Node33 -->
<g id="edge32" class="edge">
<title>Node1&#45;&gt;Node33</title>
<path fill="none" stroke="#191970" d="M2458.3155,-63.4994C2646.15,-59.2352 3364.3621,-41.7528 3590.0073,-19 3592.8499,-18.7134 3595.7646,-18.3758 3598.7014,-18.0018"/>
<polygon fill="#191970" stroke="#191970" points="2458.1562,-60.002 2448.2378,-63.727 2458.3144,-67.0002 2458.1562,-60.002"/>
</g>
<!-- Node34 -->
<g id="node34" class="node">
<title>Node34</title>
<g id="a_node34"><a xlink:href="../../d5/d09/spawn__sync_8cc.html" target="_top" xlink:title="src/spawn_sync.cc">
<polygon fill="#ffffff" stroke="#000000" points="3715.0493,-.5 3715.0493,-18.5 3814.9653,-18.5 3814.9653,-.5 3715.0493,-.5"/>
<text text-anchor="middle" x="3765.0073" y="-6.5" font-family="Helvetica,sans-Serif" font-size="10.00" fill="#000000">src/spawn_sync.cc</text>
</a>
</g>
</g>
<!-- Node1&#45;&gt;Node34 -->
<g id="edge33" class="edge">
<title>Node1&#45;&gt;Node34</title>
<path fill="none" stroke="#191970" d="M2458.1525,-63.6666C2657.0307,-59.8792 3456.1855,-43.4126 3706.0073,-19 3708.8985,-18.7175 3711.8631,-18.3831 3714.8504,-18.0116"/>
<polygon fill="#191970" stroke="#191970" points="2457.9922,-60.1689 2448.0603,-63.8577 2458.1248,-67.1677 2457.9922,-60.1689"/>
</g>
<!-- Node35 -->
<g id="node35" class="node">
<title>Node35</title>
<g id="a_node35"><a xlink:href="../../d6/d00/stream__base_8cc.html" target="_top" xlink:title="src/stream_base.cc">
<polygon fill="#ffffff" stroke="#000000" points="3832.6602,-.5 3832.6602,-18.5 3935.3545,-18.5 3935.3545,-.5 3832.6602,-.5"/>
<text text-anchor="middle" x="3884.0073" y="-6.5" font-family="Helvetica,sans-Serif" font-size="10.00" fill="#000000">src/stream_base.cc</text>
</a>
</g>
</g>
<!-- Node1&#45;&gt;Node35 -->
<g id="edge34" class="edge">
<title>Node1&#45;&gt;Node35</title>
<path fill="none" stroke="#191970" d="M2458.1255,-63.804C2667.9372,-60.4511 3549.5699,-45.0485 3824.0073,-19 3826.7371,-18.7409 3829.5313,-18.4364 3832.3487,-18.0985"/>
<polygon fill="#191970" stroke="#191970" points="2458.0232,-60.3051 2448.0801,-63.9635 2458.1344,-67.3042 2458.0232,-60.3051"/>
</g>
<!-- Node36 -->
<g id="node36" class="node">
<title>Node36</title>
<g id="a_node36"><a xlink:href="../../dc/d29/stream__wrap_8cc.html" target="_top" xlink:title="src/stream_wrap.cc">
<polygon fill="#ffffff" stroke="#000000" points="3953.665,-.5 3953.665,-18.5 4056.3496,-18.5 4056.3496,-.5 3953.665,-.5"/>
<text text-anchor="middle" x="4005.0073" y="-6.5" font-family="Helvetica,sans-Serif" font-size="10.00" fill="#000000">src/stream_wrap.cc</text>
</a>
</g>
</g>
<!-- Node1&#45;&gt;Node36 -->
<g id="edge35" class="edge">
<title>Node1&#45;&gt;Node36</title>
<path fill="none" stroke="#191970" d="M2458.3255,-63.9172C2679.2237,-60.9597 3644.5696,-46.6575 3944.0073,-19 3947.1024,-18.7141 3950.279,-18.3711 3953.4789,-17.9876"/>
<polygon fill="#191970" stroke="#191970" points="2458.0302,-60.4207 2448.0776,-64.0534 2458.1233,-67.4201 2458.0302,-60.4207"/>
</g>
<!-- Node37 -->
<g id="node37" class="node">
<title>Node37</title>
<g id="a_node37"><a xlink:href="../../d3/dfb/tcp__wrap_8cc.html" target="_top" xlink:title="src/tcp_wrap.cc">
<polygon fill="#ffffff" stroke="#000000" points="4074.2759,-.5 4074.2759,-18.5 4159.7388,-18.5 4159.7388,-.5 4074.2759,-.5"/>
<text text-anchor="middle" x="4117.0073" y="-6.5" font-family="Helvetica,sans-Serif" font-size="10.00" fill="#000000">src/tcp_wrap.cc</text>
</a>
</g>
</g>
<!-- Node1&#45;&gt;Node37 -->
<g id="edge36" class="edge">
<title>Node1&#45;&gt;Node37</title>
<path fill="none" stroke="#191970" d="M2458.1679,-64.1923C2689.194,-62.4753 3740.5804,-52.9011 4065.0073,-19 4068.0194,-18.6853 4071.119,-18.2938 4074.2335,-17.8506"/>
<polygon fill="#191970" stroke="#191970" points="2458.0768,-60.6927 2448.1027,-64.2659 2458.1281,-67.6925 2458.0768,-60.6927"/>
</g>
<!-- Node38 -->
<g id="node38" class="node">
<title>Node38</title>
<g id="a_node38"><a xlink:href="../../d7/dc1/timer__wrap_8cc.html" target="_top" xlink:title="src/timer_wrap.cc">
<polygon fill="#ffffff" stroke="#000000" points="4177.835,-.5 4177.835,-18.5 4272.1797,-18.5 4272.1797,-.5 4177.835,-.5"/>
<text text-anchor="middle" x="4225.0073" y="-6.5" font-family="Helvetica,sans-Serif" font-size="10.00" fill="#000000">src/timer_wrap.cc</text>
</a>
</g>
</g>
<!-- Node1&#45;&gt;Node38 -->
<g id="edge37" class="edge">
<title>Node1&#45;&gt;Node38</title>
<path fill="none" stroke="#191970" d="M2458.2798,-64.1995C2698.1467,-62.4745 3822.6302,-52.6953 4169.0073,-19 4171.8536,-18.7231 4174.7737,-18.3871 4177.7143,-18.0088"/>
<polygon fill="#191970" stroke="#191970" points="2458.149,-60.7002 2448.1741,-64.2711 2458.1987,-67.7 2458.149,-60.7002"/>
</g>
<!-- Node39 -->
<g id="node39" class="node">
<title>Node39</title>
<g id="a_node39"><a xlink:href="../../d2/d0e/agent_8cc.html" target="_top" xlink:title="src/tracing/agent.cc">
<polygon fill="#ffffff" stroke="#000000" points="4290.6553,-.5 4290.6553,-18.5 4393.3594,-18.5 4393.3594,-.5 4290.6553,-.5"/>
<text text-anchor="middle" x="4342.0073" y="-6.5" font-family="Helvetica,sans-Serif" font-size="10.00" fill="#000000">src/tracing/agent.cc</text>
</a>
</g>
</g>
<!-- Node1&#45;&gt;Node39 -->
<g id="edge38" class="edge">
<title>Node1&#45;&gt;Node39</title>
<path fill="none" stroke="#191970" d="M2458.3394,-64.1973C2707.3339,-62.4132 3910.9149,-52.1839 4281.0073,-19 4284.1031,-18.7224 4287.2803,-18.3858 4290.4807,-18.0071"/>
<polygon fill="#191970" stroke="#191970" points="2458.1812,-60.6983 2448.2062,-64.269 2458.2308,-67.6981 2458.1812,-60.6983"/>
</g>
<!-- Node40 -->
<g id="node40" class="node">
<title>Node40</title>
<g id="a_node40"><a xlink:href="../../de/d6d/tty__wrap_8cc.html" target="_top" xlink:title="src/tty_wrap.cc">
<polygon fill="#ffffff" stroke="#000000" points="4411.6675,-.5 4411.6675,-18.5 4494.3472,-18.5 4494.3472,-.5 4411.6675,-.5"/>
<text text-anchor="middle" x="4453.0073" y="-6.5" font-family="Helvetica,sans-Serif" font-size="10.00" fill="#000000">src/tty_wrap.cc</text>
</a>
</g>
</g>
<!-- Node1&#45;&gt;Node40 -->
<g id="edge39" class="edge">
<title>Node1&#45;&gt;Node40</title>
<path fill="none" stroke="#191970" d="M2458.1821,-63.9042C2735.5854,-60.1875 4203.0498,-39.6695 4402.0073,-19 4405.1427,-18.6743 4408.3741,-18.26 4411.6165,-17.7876"/>
<polygon fill="#191970" stroke="#191970" points="2458.0289,-60.4058 2448.0766,-64.0392 2458.1225,-67.4052 2458.0289,-60.4058"/>
</g>
<!-- Node41 -->
<g id="node41" class="node">
<title>Node41</title>
<g id="a_node41"><a xlink:href="../../d1/d05/udp__wrap_8cc.html" target="_top" xlink:title="src/udp_wrap.cc">
<polygon fill="#ffffff" stroke="#000000" points="4512.6035,-.5 4512.6035,-18.5 4601.4111,-18.5 4601.4111,-.5 4512.6035,-.5"/>
<text text-anchor="middle" x="4557.0073" y="-6.5" font-family="Helvetica,sans-Serif" font-size="10.00" fill="#000000">src/udp_wrap.cc</text>
</a>
</g>
</g>
<!-- Node1&#45;&gt;Node41 -->
<g id="edge40" class="edge">
<title>Node1&#45;&gt;Node41</title>
<path fill="none" stroke="#191970" d="M2458.1131,-64.4541C2723.7192,-64.0425 4086.428,-59.9372 4503.0073,-19 4506.1335,-18.6928 4509.3511,-18.3069 4512.5844,-17.8678"/>
<polygon fill="#191970" stroke="#191970" points="2458.055,-60.9541 2448.0601,-64.4687 2458.0652,-67.9541 2458.055,-60.9541"/>
</g>
<!-- Node42 -->
<g id="node42" class="node">
<title>Node42</title>
<g id="a_node42"><a xlink:href="../../d5/d6e/uv_8cc.html" target="_top" xlink:title="src/uv.cc">
<polygon fill="#ffffff" stroke="#000000" points="4619.6519,-.5 4619.6519,-18.5 4674.3628,-18.5 4674.3628,-.5 4619.6519,-.5"/>
<text text-anchor="middle" x="4647.0073" y="-6.5" font-family="Helvetica,sans-Serif" font-size="10.00" fill="#000000">src/uv.cc</text>
</a>
</g>
</g>
<!-- Node1&#45;&gt;Node42 -->
<g id="edge41" class="edge">
<title>Node1&#45;&gt;Node42</title>
<path fill="none" stroke="#191970" d="M2458.643,-64.1871C2754.0185,-62.0781 4390.0704,-49.1011 4610.0073,-19 4613.0299,-18.5863 4616.1608,-18.0146 4619.2636,-17.3549"/>
<polygon fill="#191970" stroke="#191970" points="2458.2867,-60.6894 2448.3117,-64.2603 2458.3363,-67.6893 2458.2867,-60.6894"/>
</g>
</g>
</svg>
