<?xml version="1.0" encoding="UTF-8" standalone="no"?>
<!DOCTYPE svg PUBLIC "-//W3C//DTD SVG 1.1//EN"
 "http://www.w3.org/Graphics/SVG/1.1/DTD/svg11.dtd">
<!-- Generated by graphviz version 2.40.1 (20161225.0304)
 -->
<!-- Title: src/tcp_wrap.cc Pages: 1 -->
<!--zoomable 192 -->
<svg id="main" version="1.1" xmlns="http://www.w3.org/2000/svg" xmlns:xlink="http://www.w3.org/1999/xlink" xml:space="preserve" onload="init(evt)">
<style type="text/css"><![CDATA[
.edge:hover path { stroke: red; }
.edge:hover polygon { stroke: red; fill: red; }
]]></style>
<script type="text/javascript"><![CDATA[
var edges = document.getElementsByTagName('g');
if (edges && edges.length) {
  for (var i=0;i<edges.length;i++) {
    if (edges[i].id.substr(0,4)=='edge') {
      edges[i].setAttribute('class','edge');
    }
  }
}
]]></script>
        <defs>
                <circle id="rim" cx="0" cy="0" r="7"/>
                <circle id="rim2" cx="0" cy="0" r="3.5"/>
                <g id="zoomPlus">
                        <use xlink:href="#rim" fill="#404040">
                                <set attributeName="fill" to="#808080" begin="zoomplus.mouseover" end="zoomplus.mouseout"/>
                        </use>
                        <path d="M-4,0h8M0,-4v8" fill="none" stroke="white" stroke-width="1.5" pointer-events="none"/>
                </g>
                <g id="zoomMin">
                        <use xlink:href="#rim" fill="#404040">
                                <set attributeName="fill" to="#808080" begin="zoomminus.mouseover" end="zoomminus.mouseout"/>
                        </use>
                        <path d="M-4,0h8" fill="none" stroke="white" stroke-width="1.5" pointer-events="none"/>
                </g>
                <g id="dirArrow">
                        <path fill="none" stroke="white" stroke-width="1.5" d="M0,-3.0v7 M-2.5,-0.5L0,-3.0L2.5,-0.5"/>
                </g>
               <g id="resetDef">
                       <use xlink:href="#rim2" fill="#404040">
                               <set attributeName="fill" to="#808080" begin="reset.mouseover" end="reset.mouseout"/>
                       </use>
               </g>
        </defs>

<script type="text/javascript">
var viewWidth = 1000;
var viewHeight = 192;
var sectionId = 'dynsection-0';
</script>
<script xlink:href="../../svgpan.js"/>
<svg id="graph" class="graph">
<g id="viewport">
<title>src/tcp_wrap.cc</title>
<polygon fill="#ffffff" stroke="transparent" points="-4,4 -4,-188 996.3003,-188 996.3003,4 -4,4"/>
<!-- Node0 -->
<g id="node1" class="node">
<title>Node0</title>
<polygon fill="#bfbfbf" stroke="#000000" points="471.7266,-165.5 471.7266,-183.5 557.1895,-183.5 557.1895,-165.5 471.7266,-165.5"/>
<text text-anchor="middle" x="514.458" y="-171.5" font-family="Helvetica,sans-Serif" font-size="10.00" fill="#000000">src/tcp_wrap.cc</text>
</g>
<!-- Node1 -->
<g id="node2" class="node">
<title>Node1</title>
<g id="a_node2"><a xlink:href="../../d3/d24/tcp__wrap_8h.html" target="_top" xlink:title="tcp_wrap.h">
<polygon fill="#ffffff" stroke="#000000" points="0,-110.5 0,-128.5 64.916,-128.5 64.916,-110.5 0,-110.5"/>
<text text-anchor="middle" x="32.458" y="-116.5" font-family="Helvetica,sans-Serif" font-size="10.00" fill="#000000">tcp_wrap.h</text>
</a>
</g>
</g>
<!-- Node0&#45;&gt;Node1 -->
<g id="edge1" class="edge">
<title>Node0&#45;&gt;Node1</title>
<path fill="none" stroke="#191970" d="M471.649,-171.8668C394.2789,-166.7213 225.9036,-153.7562 74.9732,-129.0827"/>
<polygon fill="#191970" stroke="#191970" points="75.4956,-125.6217 65.0581,-127.4406 74.3518,-132.5276 75.4956,-125.6217"/>
</g>
<!-- Node2 -->
<g id="node3" class="node">
<title>Node2</title>
<g id="a_node3"><a xlink:href="../../dc/d27/connection__wrap_8h.html" target="_top" xlink:title="connection_wrap.h">
<polygon fill="#ffffff" stroke="#000000" points="82.4854,-110.5 82.4854,-128.5 182.4307,-128.5 182.4307,-110.5 82.4854,-110.5"/>
<text text-anchor="middle" x="132.458" y="-116.5" font-family="Helvetica,sans-Serif" font-size="10.00" fill="#000000">connection_wrap.h</text>
</a>
</g>
</g>
<!-- Node0&#45;&gt;Node2 -->
<g id="edge2" class="edge">
<title>Node0&#45;&gt;Node2</title>
<path fill="none" stroke="#191970" d="M471.5758,-168.733C411.5452,-160.5995 298.7826,-145.1026 192.5846,-129.1477"/>
<polygon fill="#191970" stroke="#191970" points="193.0694,-125.6813 182.6595,-127.6523 192.0264,-132.6032 193.0694,-125.6813"/>
</g>
<!-- Node3 -->
<g id="node4" class="node">
<title>Node3</title>
<g id="a_node4"><a xlink:href="../../d5/d81/env_8h.html" target="_top" xlink:title="env.h">
<polygon fill="#ffffff" stroke="#000000" points="200.5952,-110.5 200.5952,-128.5 240.3208,-128.5 240.3208,-110.5 200.5952,-110.5"/>
<text text-anchor="middle" x="220.458" y="-116.5" font-family="Helvetica,sans-Serif" font-size="10.00" fill="#000000">env.h</text>
</a>
</g>
</g>
<!-- Node0&#45;&gt;Node3 -->
<g id="edge3" class="edge">
<title>Node0&#45;&gt;Node3</title>
<path fill="none" stroke="#191970" d="M471.3733,-169.0805C420.6133,-162.2604 333.647,-149.2167 250.487,-128.9658"/>
<polygon fill="#191970" stroke="#191970" points="251.1775,-125.5311 240.6295,-126.5264 249.4959,-132.3262 251.1775,-125.5311"/>
</g>
<!-- Node4 -->
<g id="node5" class="node">
<title>Node4</title>
<g id="a_node5"><a xlink:href="../../d9/d50/env-inl_8h.html" target="_top" xlink:title="env&#45;inl.h">
<polygon fill="#ffffff" stroke="#000000" points="258.5591,-110.5 258.5591,-128.5 312.3569,-128.5 312.3569,-110.5 258.5591,-110.5"/>
<text text-anchor="middle" x="285.458" y="-116.5" font-family="Helvetica,sans-Serif" font-size="10.00" fill="#000000">env&#45;inl.h</text>
</a>
</g>
</g>
<!-- Node0&#45;&gt;Node4 -->
<g id="edge4" class="edge">
<title>Node0&#45;&gt;Node4</title>
<path fill="none" stroke="#191970" d="M474.8331,-165.4814C437.8258,-156.9865 380.8066,-143.715 322.3398,-129.175"/>
<polygon fill="#191970" stroke="#191970" points="323.115,-125.7611 312.565,-126.7354 321.4199,-132.5528 323.115,-125.7611"/>
</g>
<!-- Node5 -->
<g id="node6" class="node">
<title>Node5</title>
<g id="a_node6"><a xlink:href="../../da/db4/handle__wrap_8h.html" target="_top" xlink:title="handle_wrap.h">
<polygon fill="#ffffff" stroke="#000000" points="330.6553,-110.5 330.6553,-128.5 412.2607,-128.5 412.2607,-110.5 330.6553,-110.5"/>
<text text-anchor="middle" x="371.458" y="-116.5" font-family="Helvetica,sans-Serif" font-size="10.00" fill="#000000">handle_wrap.h</text>
</a>
</g>
</g>
<!-- Node0&#45;&gt;Node5 -->
<g id="edge5" class="edge">
<title>Node0&#45;&gt;Node5</title>
<path fill="none" stroke="#191970" d="M490.8445,-165.4179C467.3503,-156.3817 431.0897,-142.4353 404.6932,-132.2828"/>
<polygon fill="#191970" stroke="#191970" points="405.6965,-128.9188 395.1066,-128.5956 403.1836,-135.4522 405.6965,-128.9188"/>
</g>
<!-- Node6 -->
<g id="node7" class="node">
<title>Node6</title>
<g id="a_node7"><a xlink:href="../../d8/d1c/node__buffer_8h.html" target="_top" xlink:title="node_buffer.h">
<polygon fill="#ffffff" stroke="#000000" points="429.96,-110.5 429.96,-128.5 506.9561,-128.5 506.9561,-110.5 429.96,-110.5"/>
<text text-anchor="middle" x="468.458" y="-116.5" font-family="Helvetica,sans-Serif" font-size="10.00" fill="#000000">node_buffer.h</text>
</a>
</g>
</g>
<!-- Node0&#45;&gt;Node6 -->
<g id="edge6" class="edge">
<title>Node0&#45;&gt;Node6</title>
<path fill="none" stroke="#191970" d="M506.862,-165.4179C500.3095,-157.5833 490.6698,-146.0575 482.6876,-136.5137"/>
<polygon fill="#191970" stroke="#191970" points="485.3194,-134.2048 476.219,-128.7795 479.9498,-138.6957 485.3194,-134.2048"/>
</g>
<!-- Node13 -->
<g id="node14" class="node">
<title>Node13</title>
<g id="a_node14"><a xlink:href="../../dc/dc4/node__wrap_8h.html" target="_top" xlink:title="node_wrap.h">
<polygon fill="#ffffff" stroke="#000000" points="524.5469,-110.5 524.5469,-128.5 598.3691,-128.5 598.3691,-110.5 524.5469,-110.5"/>
<text text-anchor="middle" x="561.458" y="-116.5" font-family="Helvetica,sans-Serif" font-size="10.00" fill="#000000">node_wrap.h</text>
</a>
</g>
</g>
<!-- Node0&#45;&gt;Node13 -->
<g id="edge14" class="edge">
<title>Node0&#45;&gt;Node13</title>
<path fill="none" stroke="#191970" d="M522.2191,-165.4179C528.9141,-157.5833 538.7634,-146.0575 546.919,-136.5137"/>
<polygon fill="#191970" stroke="#191970" points="549.6926,-138.6556 553.5283,-128.7795 544.3709,-134.108 549.6926,-138.6556"/>
</g>
<!-- Node14 -->
<g id="node15" class="node">
<title>Node14</title>
<g id="a_node15"><a xlink:href="../../d5/d01/connect__wrap_8h.html" target="_top" xlink:title="connect_wrap.h">
<polygon fill="#ffffff" stroke="#000000" points="616.1577,-110.5 616.1577,-128.5 702.7583,-128.5 702.7583,-110.5 616.1577,-110.5"/>
<text text-anchor="middle" x="659.458" y="-116.5" font-family="Helvetica,sans-Serif" font-size="10.00" fill="#000000">connect_wrap.h</text>
</a>
</g>
</g>
<!-- Node0&#45;&gt;Node14 -->
<g id="edge15" class="edge">
<title>Node0&#45;&gt;Node14</title>
<path fill="none" stroke="#191970" d="M538.4018,-165.4179C562.3295,-156.3419 599.3165,-142.3123 626.1111,-132.1488"/>
<polygon fill="#191970" stroke="#191970" points="627.37,-135.4147 635.4786,-128.5956 624.8873,-128.8697 627.37,-135.4147"/>
</g>
<!-- Node15 -->
<g id="node16" class="node">
<title>Node15</title>
<g id="a_node16"><a xlink:href="../../da/d2f/stream__wrap_8h.html" target="_top" xlink:title="stream_wrap.h">
<polygon fill="#ffffff" stroke="#000000" points="720.3892,-110.5 720.3892,-128.5 802.5269,-128.5 802.5269,-110.5 720.3892,-110.5"/>
<text text-anchor="middle" x="761.458" y="-116.5" font-family="Helvetica,sans-Serif" font-size="10.00" fill="#000000">stream_wrap.h</text>
</a>
</g>
</g>
<!-- Node0&#45;&gt;Node15 -->
<g id="edge16" class="edge">
<title>Node0&#45;&gt;Node15</title>
<path fill="none" stroke="#191970" d="M554.9684,-165.4795C597.683,-155.9681 665.0489,-140.9676 711.1411,-130.7042"/>
<polygon fill="#191970" stroke="#191970" points="711.9252,-134.1154 720.9254,-128.5255 710.4038,-127.2827 711.9252,-134.1154"/>
</g>
<!-- Node16 -->
<g id="node17" class="node">
<title>Node16</title>
<g id="a_node17"><a xlink:href="../../d8/d3c/util_8h.html" target="_top" xlink:title="util.h">
<polygon fill="#ffffff" stroke="#000000" points="820.8965,-110.5 820.8965,-128.5 858.0195,-128.5 858.0195,-110.5 820.8965,-110.5"/>
<text text-anchor="middle" x="839.458" y="-116.5" font-family="Helvetica,sans-Serif" font-size="10.00" fill="#000000">util.h</text>
</a>
</g>
</g>
<!-- Node0&#45;&gt;Node16 -->
<g id="edge17" class="edge">
<title>Node0&#45;&gt;Node16</title>
<path fill="none" stroke="#191970" d="M557.2133,-170.329C613.4073,-164.3268 715.2238,-151.6615 810.7908,-128.787"/>
<polygon fill="#191970" stroke="#191970" points="811.7256,-132.1617 820.6129,-126.3939 810.0686,-125.3606 811.7256,-132.1617"/>
</g>
<!-- Node17 -->
<g id="node18" class="node">
<title>Node17</title>
<g id="a_node18"><a xlink:href="../../d5/d8c/util-inl_8h.html" target="_top" xlink:title="util&#45;inl.h">
<polygon fill="#ffffff" stroke="#000000" points="876.229,-110.5 876.229,-128.5 926.687,-128.5 926.687,-110.5 876.229,-110.5"/>
<text text-anchor="middle" x="901.458" y="-116.5" font-family="Helvetica,sans-Serif" font-size="10.00" fill="#000000">util&#45;inl.h</text>
</a>
</g>
</g>
<!-- Node0&#45;&gt;Node17 -->
<g id="edge18" class="edge">
<title>Node0&#45;&gt;Node17</title>
<path fill="none" stroke="#191970" d="M557.4401,-170.9754C622.3449,-165.2142 749.3367,-152.2335 865.7815,-129.1057"/>
<polygon fill="#191970" stroke="#191970" points="866.824,-132.466 875.9344,-127.0575 865.4397,-125.6042 866.824,-132.466"/>
</g>
<!-- Node18 -->
<g id="node19" class="node">
<title>Node18</title>
<polygon fill="#ffffff" stroke="#bfbfbf" points="944.6157,-110.5 944.6157,-128.5 992.3003,-128.5 992.3003,-110.5 944.6157,-110.5"/>
<text text-anchor="middle" x="968.458" y="-116.5" font-family="Helvetica,sans-Serif" font-size="10.00" fill="#000000">stdlib.h</text>
</g>
<!-- Node0&#45;&gt;Node18 -->
<g id="edge19" class="edge">
<title>Node0&#45;&gt;Node18</title>
<path fill="none" stroke="#191970" d="M557.2512,-172.3206C632.0342,-167.983 791.3905,-156.3911 934.5814,-128.8612"/>
<polygon fill="#191970" stroke="#191970" points="935.2815,-132.2906 944.4249,-126.9381 933.9393,-125.4205 935.2815,-132.2906"/>
</g>
<!-- Node7 -->
<g id="node8" class="node">
<title>Node7</title>
<g id="a_node8"><a xlink:href="../../d1/d77/node_8h.html" target="_top" xlink:title="node.h">
<polygon fill="#ffffff" stroke="#000000" points="477.165,-55.5 477.165,-73.5 523.751,-73.5 523.751,-55.5 477.165,-55.5"/>
<text text-anchor="middle" x="500.458" y="-61.5" font-family="Helvetica,sans-Serif" font-size="10.00" fill="#000000">node.h</text>
</a>
</g>
</g>
<!-- Node6&#45;&gt;Node7 -->
<g id="edge7" class="edge">
<title>Node6&#45;&gt;Node7</title>
<path fill="none" stroke="#191970" d="M473.7422,-110.4179C478.1163,-102.8998 484.468,-91.9829 489.8806,-82.6799"/>
<polygon fill="#191970" stroke="#191970" points="493.0553,-84.1831 495.0591,-73.7795 487.0048,-80.6628 493.0553,-84.1831"/>
</g>
<!-- Node8 -->
<g id="node9" class="node">
<title>Node8</title>
<polygon fill="#ffffff" stroke="#bfbfbf" points="362.0073,-.5 362.0073,-18.5 396.9087,-18.5 396.9087,-.5 362.0073,-.5"/>
<text text-anchor="middle" x="379.458" y="-6.5" font-family="Helvetica,sans-Serif" font-size="10.00" fill="#000000">v8.h</text>
</g>
<!-- Node6&#45;&gt;Node8 -->
<g id="edge13" class="edge">
<title>Node6&#45;&gt;Node8</title>
<path fill="none" stroke="#191970" d="M461.1748,-110.4982C446.311,-92.1273 412.2762,-50.0619 393.1505,-26.4233"/>
<polygon fill="#191970" stroke="#191970" points="395.8528,-24.1988 386.8419,-18.6261 390.4109,-28.6018 395.8528,-24.1988"/>
</g>
<!-- Node7&#45;&gt;Node8 -->
<g id="edge8" class="edge">
<title>Node7&#45;&gt;Node8</title>
<path fill="none" stroke="#191970" d="M480.4773,-55.4179C460.2463,-46.222 428.8277,-31.9408 406.4038,-21.7481"/>
<polygon fill="#191970" stroke="#191970" points="407.6571,-18.4732 397.105,-17.5214 404.7604,-24.8458 407.6571,-18.4732"/>
</g>
<!-- Node9 -->
<g id="node10" class="node">
<title>Node9</title>
<g id="a_node10"><a xlink:href="../../da/d9c/node__version_8h.html" target="_top" xlink:title="node_version.h">
<polygon fill="#ffffff" stroke="#000000" points="415.2661,-.5 415.2661,-18.5 499.6499,-18.5 499.6499,-.5 415.2661,-.5"/>
<text text-anchor="middle" x="457.458" y="-6.5" font-family="Helvetica,sans-Serif" font-size="10.00" fill="#000000">node_version.h</text>
</a>
</g>
</g>
<!-- Node7&#45;&gt;Node9 -->
<g id="edge9" class="edge">
<title>Node7&#45;&gt;Node9</title>
<path fill="none" stroke="#191970" d="M493.3574,-55.4179C487.2941,-47.6624 478.4029,-36.29 470.9862,-26.8035"/>
<polygon fill="#191970" stroke="#191970" points="473.6294,-24.5018 464.7129,-18.7795 468.1148,-28.8133 473.6294,-24.5018"/>
</g>
<!-- Node10 -->
<g id="node11" class="node">
<title>Node10</title>
<polygon fill="#ffffff" stroke="#bfbfbf" points="517.6724,-.5 517.6724,-18.5 569.2437,-18.5 569.2437,-.5 517.6724,-.5"/>
<text text-anchor="middle" x="543.458" y="-6.5" font-family="Helvetica,sans-Serif" font-size="10.00" fill="#000000">assert.h</text>
</g>
<!-- Node7&#45;&gt;Node10 -->
<g id="edge10" class="edge">
<title>Node7&#45;&gt;Node10</title>
<path fill="none" stroke="#191970" d="M507.5586,-55.4179C513.622,-47.6624 522.5131,-36.29 529.9298,-26.8035"/>
<polygon fill="#191970" stroke="#191970" points="532.8012,-28.8133 536.2032,-18.7795 527.2866,-24.5018 532.8012,-28.8133"/>
</g>
<!-- Node11 -->
<g id="node12" class="node">
<title>Node11</title>
<polygon fill="#ffffff" stroke="#bfbfbf" points="587.3374,-.5 587.3374,-18.5 635.5786,-18.5 635.5786,-.5 587.3374,-.5"/>
<text text-anchor="middle" x="611.458" y="-6.5" font-family="Helvetica,sans-Serif" font-size="10.00" fill="#000000">stdint.h</text>
</g>
<!-- Node7&#45;&gt;Node11 -->
<g id="edge11" class="edge">
<title>Node7&#45;&gt;Node11</title>
<path fill="none" stroke="#191970" d="M518.7874,-55.4179C536.5421,-46.6205 563.6895,-33.1691 584.0196,-23.0956"/>
<polygon fill="#191970" stroke="#191970" points="585.695,-26.1716 593.1014,-18.5956 582.5871,-19.8994 585.695,-26.1716"/>
</g>
<!-- Node12 -->
<g id="node13" class="node">
<title>Node12</title>
<polygon fill="#ffffff" stroke="#bfbfbf" points="653.4482,-.5 653.4482,-18.5 719.4678,-18.5 719.4678,-.5 653.4482,-.5"/>
<text text-anchor="middle" x="686.458" y="-6.5" font-family="Helvetica,sans-Serif" font-size="10.00" fill="#000000">sys/types.h</text>
</g>
<!-- Node7&#45;&gt;Node12 -->
<g id="edge12" class="edge">
<title>Node7&#45;&gt;Node12</title>
<path fill="none" stroke="#191970" d="M524.015,-57.5342C554.6632,-48.4716 608.6883,-32.4964 645.9683,-21.4728"/>
<polygon fill="#191970" stroke="#191970" points="647.4087,-24.6967 656.0058,-18.5047 645.4237,-17.984 647.4087,-24.6967"/>
</g>
</g>
</svg>
        <g id="navigator" transform="translate(0 0)" fill="#404254">
                <rect fill="#f2f5e9" fill-opacity="0.5" stroke="#606060" stroke-width=".5" x="0" y="0" width="60" height="60"/>
                <use id="zoomplus" xlink:href="#zoomPlus" x="17" y="9" onmousedown="handleZoom(evt,'in')"/>
                <use id="zoomminus" xlink:href="#zoomMin" x="42" y="9" onmousedown="handleZoom(evt,'out')"/>
                <use id="reset" xlink:href="#resetDef" x="30" y="36" onmousedown="handleReset()"/>
                <g id="arrowUp" xlink:href="#dirArrow" transform="translate(30 24)" onmousedown="handlePan(0,-1)">
                  <use xlink:href="#rim" fill="#404040">
                        <set attributeName="fill" to="#808080" begin="arrowUp.mouseover" end="arrowUp.mouseout"/>
                  </use>
                  <path fill="none" stroke="white" stroke-width="1.5" d="M0,-3.0v7 M-2.5,-0.5L0,-3.0L2.5,-0.5"/>
                </g>
                <g id="arrowRight" xlink:href="#dirArrow" transform="rotate(90) translate(36 -43)" onmousedown="handlePan(1,0)">
                  <use xlink:href="#rim" fill="#404040">
                        <set attributeName="fill" to="#808080" begin="arrowRight.mouseover" end="arrowRight.mouseout"/>
                  </use>
                  <path fill="none" stroke="white" stroke-width="1.5" d="M0,-3.0v7 M-2.5,-0.5L0,-3.0L2.5,-0.5"/>
                </g>
                <g id="arrowDown" xlink:href="#dirArrow" transform="rotate(180) translate(-30 -48)" onmousedown="handlePan(0,1)">
                  <use xlink:href="#rim" fill="#404040">
                        <set attributeName="fill" to="#808080" begin="arrowDown.mouseover" end="arrowDown.mouseout"/>
                  </use>
                  <path fill="none" stroke="white" stroke-width="1.5" d="M0,-3.0v7 M-2.5,-0.5L0,-3.0L2.5,-0.5"/>
                </g>
                <g id="arrowLeft" xlink:href="#dirArrow" transform="rotate(270) translate(-36 17)" onmousedown="handlePan(-1,0)">
                  <use xlink:href="#rim" fill="#404040">
                        <set attributeName="fill" to="#808080" begin="arrowLeft.mouseover" end="arrowLeft.mouseout"/>
                  </use>
                  <path fill="none" stroke="white" stroke-width="1.5" d="M0,-3.0v7 M-2.5,-0.5L0,-3.0L2.5,-0.5"/>
                </g>
        </g>
        <svg viewBox="0 0 15 15" width="100%" height="30px" preserveAspectRatio="xMaxYMin meet">
         <g id="arrow_out" transform="scale(0.3 0.3)">
          <a xlink:href="tcp__wrap_8cc__incl_org.svg" target="_base">
           <rect id="button" ry="5" rx="5" y="6" x="6" height="38" width="38"
                fill="#f2f5e9" fill-opacity="0.5" stroke="#606060" stroke-width="1.0"/>
           <path id="arrow"
             d="M 11.500037,31.436501 C 11.940474,20.09759 22.043105,11.32322 32.158766,21.979434 L 37.068811,17.246167 C 37.068811,17.246167 37.088388,32 37.088388,32 L 22.160133,31.978069 C 22.160133,31.978069 26.997745,27.140456 26.997745,27.140456 C 18.528582,18.264221 13.291696,25.230495 11.500037,31.436501 z"
             style="fill:#404040;"/>
          </a>
         </g>
        </svg>
</svg>
