<?xml version="1.0" encoding="UTF-8" standalone="no"?>
<!DOCTYPE svg PUBLIC "-//W3C//DTD SVG 1.1//EN"
 "http://www.w3.org/Graphics/SVG/1.1/DTD/svg11.dtd">
<!-- Generated by graphviz version 2.40.1 (20161225.0304)
 -->
<!-- Title: src/node_watchdog.cc Pages: 1 -->
<svg width="410pt" height="82pt"
 viewBox="0.00 0.00 410.04 82.00" xmlns="http://www.w3.org/2000/svg" xmlns:xlink="http://www.w3.org/1999/xlink">
<g id="graph0" class="graph" transform="scale(1 1) rotate(0) translate(4 78)">
<title>src/node_watchdog.cc</title>
<polygon fill="#ffffff" stroke="transparent" points="-4,4 -4,-78 406.0415,-78 406.0415,4 -4,4"/>
<!-- Node0 -->
<g id="node1" class="node">
<title>Node0</title>
<polygon fill="#bfbfbf" stroke="#000000" points="181.7266,-55.5 181.7266,-73.5 297.2285,-73.5 297.2285,-55.5 181.7266,-55.5"/>
<text text-anchor="middle" x="239.4775" y="-61.5" font-family="Helvetica,sans-Serif" font-size="10.00" fill="#000000">src/node_watchdog.cc</text>
</g>
<!-- Node1 -->
<g id="node2" class="node">
<title>Node1</title>
<g id="a_node2"><a xlink:href="../../db/dff/node__watchdog_8h.html" target="_top" xlink:title="node_watchdog.h">
<polygon fill="#ffffff" stroke="#000000" points="0,-.5 0,-18.5 94.9551,-18.5 94.9551,-.5 0,-.5"/>
<text text-anchor="middle" x="47.4775" y="-6.5" font-family="Helvetica,sans-Serif" font-size="10.00" fill="#000000">node_watchdog.h</text>
</a>
</g>
</g>
<!-- Node0&#45;&gt;Node1 -->
<g id="edge1" class="edge">
<title>Node0&#45;&gt;Node1</title>
<path fill="none" stroke="#191970" d="M207.7726,-55.4179C175.158,-46.0751 124.2196,-31.4834 88.541,-21.263"/>
<polygon fill="#191970" stroke="#191970" points="89.4876,-17.8934 78.9104,-18.5042 87.5599,-24.6228 89.4876,-17.8934"/>
</g>
<!-- Node2 -->
<g id="node3" class="node">
<title>Node2</title>
<g id="a_node3"><a xlink:href="../../d4/dbf/node__internals_8h.html" target="_top" xlink:title="node_internals.h">
<polygon fill="#ffffff" stroke="#000000" points="112.5049,-.5 112.5049,-18.5 202.4502,-18.5 202.4502,-.5 112.5049,-.5"/>
<text text-anchor="middle" x="157.4775" y="-6.5" font-family="Helvetica,sans-Serif" font-size="10.00" fill="#000000">node_internals.h</text>
</a>
</g>
</g>
<!-- Node0&#45;&gt;Node2 -->
<g id="edge2" class="edge">
<title>Node0&#45;&gt;Node2</title>
<path fill="none" stroke="#191970" d="M225.9369,-55.4179C213.355,-46.9788 194.3879,-34.257 179.6065,-24.3426"/>
<polygon fill="#191970" stroke="#191970" points="181.2928,-21.2593 171.0383,-18.5956 177.3936,-27.0727 181.2928,-21.2593"/>
</g>
<!-- Node3 -->
<g id="node4" class="node">
<title>Node3</title>
<g id="a_node4"><a xlink:href="../../d8/d3c/util_8h.html" target="_top" xlink:title="util.h">
<polygon fill="#ffffff" stroke="#000000" points="220.916,-.5 220.916,-18.5 258.0391,-18.5 258.0391,-.5 220.916,-.5"/>
<text text-anchor="middle" x="239.4775" y="-6.5" font-family="Helvetica,sans-Serif" font-size="10.00" fill="#000000">util.h</text>
</a>
</g>
</g>
<!-- Node0&#45;&gt;Node3 -->
<g id="edge3" class="edge">
<title>Node0&#45;&gt;Node3</title>
<path fill="none" stroke="#191970" d="M239.4775,-55.4179C239.4775,-48.2164 239.4775,-37.8962 239.4775,-28.8632"/>
<polygon fill="#191970" stroke="#191970" points="242.9776,-28.7794 239.4775,-18.7795 235.9776,-28.7795 242.9776,-28.7794"/>
</g>
<!-- Node4 -->
<g id="node5" class="node">
<title>Node4</title>
<g id="a_node5"><a xlink:href="../../d5/d8c/util-inl_8h.html" target="_top" xlink:title="util&#45;inl.h">
<polygon fill="#ffffff" stroke="#000000" points="276.2485,-.5 276.2485,-18.5 326.7065,-18.5 326.7065,-.5 276.2485,-.5"/>
<text text-anchor="middle" x="301.4775" y="-6.5" font-family="Helvetica,sans-Serif" font-size="10.00" fill="#000000">util&#45;inl.h</text>
</a>
</g>
</g>
<!-- Node0&#45;&gt;Node4 -->
<g id="edge4" class="edge">
<title>Node0&#45;&gt;Node4</title>
<path fill="none" stroke="#191970" d="M249.7156,-55.4179C258.8149,-47.3458 272.3312,-35.3556 283.2702,-25.6517"/>
<polygon fill="#191970" stroke="#191970" points="285.859,-28.0339 291.0171,-18.7795 281.2136,-22.7974 285.859,-28.0339"/>
</g>
<!-- Node5 -->
<g id="node6" class="node">
<title>Node5</title>
<polygon fill="#ffffff" stroke="#bfbfbf" points="344.9136,-.5 344.9136,-18.5 402.0415,-18.5 402.0415,-.5 344.9136,-.5"/>
<text text-anchor="middle" x="373.4775" y="-6.5" font-family="Helvetica,sans-Serif" font-size="10.00" fill="#000000">algorithm</text>
</g>
<!-- Node0&#45;&gt;Node5 -->
<g id="edge5" class="edge">
<title>Node0&#45;&gt;Node5</title>
<path fill="none" stroke="#191970" d="M261.6049,-55.4179C283.5234,-46.4215 317.2997,-32.5581 342.0066,-22.4172"/>
<polygon fill="#191970" stroke="#191970" points="343.3952,-25.6306 351.3173,-18.5956 340.7372,-19.1549 343.3952,-25.6306"/>
</g>
</g>
</svg>
