<?xml version="1.0" encoding="UTF-8" standalone="no"?>
<!DOCTYPE svg PUBLIC "-//W3C//DTD SVG 1.1//EN"
 "http://www.w3.org/Graphics/SVG/1.1/DTD/svg11.dtd">
<!-- Generated by graphviz version 2.40.1 (20161225.0304)
 -->
<!-- Title: napi_property_descriptor Pages: 1 -->
<svg width="138pt" height="177pt"
 viewBox="0.00 0.00 137.97 177.00" xmlns="http://www.w3.org/2000/svg" xmlns:xlink="http://www.w3.org/1999/xlink">
<g id="graph0" class="graph" transform="scale(1 1) rotate(0) translate(4 173)">
<title>napi_property_descriptor</title>
<polygon fill="#ffffff" stroke="transparent" points="-4,4 -4,-173 133.9746,-173 133.9746,4 -4,4"/>
<!-- Node1 -->
<g id="node1" class="node">
<title>Node1</title>
<polygon fill="#bfbfbf" stroke="#000000" points="1.6772,-.5 1.6772,-18.5 128.2974,-18.5 128.2974,-.5 1.6772,-.5"/>
<text text-anchor="middle" x="64.9873" y="-6.5" font-family="Helvetica,sans-Serif" font-size="10.00" fill="#000000">napi_property_descriptor</text>
</g>
<!-- Node2 -->
<g id="node2" class="node">
<title>Node2</title>
<g id="a_node2"><a xlink:href="../../da/d99/structnapi__env____.html" target="_top" xlink:title="napi_env__">
<polygon fill="#ffffff" stroke="#000000" points="31.1304,-85.5 31.1304,-103.5 98.8442,-103.5 98.8442,-85.5 31.1304,-85.5"/>
<text text-anchor="middle" x="64.9873" y="-91.5" font-family="Helvetica,sans-Serif" font-size="10.00" fill="#000000">napi_env__</text>
</a>
</g>
</g>
<!-- Node2&#45;&gt;Node1 -->
<g id="edge1" class="edge">
<title>Node2&#45;&gt;Node1</title>
<path fill="none" stroke="#9a32cd" stroke-dasharray="5,2" d="M64.9873,-75.3165C64.9873,-57.5727 64.9873,-31.9761 64.9873,-18.5311"/>
<polygon fill="#9a32cd" stroke="#9a32cd" points="61.4874,-75.4035 64.9873,-85.4035 68.4874,-75.4035 61.4874,-75.4035"/>
<text text-anchor="middle" x="83.0537" y="-59" font-family="Helvetica,sans-Serif" font-size="10.00" fill="#000000"> method</text>
<text text-anchor="middle" x="83.0537" y="-49" font-family="Helvetica,sans-Serif" font-size="10.00" fill="#000000">getter</text>
<text text-anchor="middle" x="83.0537" y="-39" font-family="Helvetica,sans-Serif" font-size="10.00" fill="#000000">setter</text>
</g>
<!-- Node3 -->
<g id="node3" class="node">
<title>Node3</title>
<g id="a_node3"><a xlink:href="../../d3/df8/structnapi__extended__error__info.html" target="_top" xlink:title="napi_extended_error_info">
<polygon fill="#ffffff" stroke="#000000" points="0,-150.5 0,-168.5 129.9746,-168.5 129.9746,-150.5 0,-150.5"/>
<text text-anchor="middle" x="64.9873" y="-156.5" font-family="Helvetica,sans-Serif" font-size="10.00" fill="#000000">napi_extended_error_info</text>
</a>
</g>
</g>
<!-- Node3&#45;&gt;Node2 -->
<g id="edge2" class="edge">
<title>Node3&#45;&gt;Node2</title>
<path fill="none" stroke="#9a32cd" stroke-dasharray="5,2" d="M64.9873,-140.1265C64.9873,-128.1522 64.9873,-113.3205 64.9873,-103.8821"/>
<polygon fill="#9a32cd" stroke="#9a32cd" points="61.4874,-140.462 64.9873,-150.462 68.4874,-140.4621 61.4874,-140.462"/>
<text text-anchor="middle" x="87.4946" y="-124" font-family="Helvetica,sans-Serif" font-size="10.00" fill="#000000"> last_error</text>
</g>
</g>
</svg>
