<?xml version="1.0" encoding="UTF-8" standalone="no"?>
<!DOCTYPE svg PUBLIC "-//W3C//DTD SVG 1.1//EN"
 "http://www.w3.org/Graphics/SVG/1.1/DTD/svg11.dtd">
<!-- Generated by graphviz version 2.40.1 (20161225.0304)
 -->
<!-- Title: src/node_os.cc Pages: 1 -->
<svg width="528pt" height="137pt"
 viewBox="0.00 0.00 527.85 137.00" xmlns="http://www.w3.org/2000/svg" xmlns:xlink="http://www.w3.org/1999/xlink">
<g id="graph0" class="graph" transform="scale(1 1) rotate(0) translate(4 133)">
<title>src/node_os.cc</title>
<polygon fill="#ffffff" stroke="transparent" points="-4,4 -4,-133 523.8472,-133 523.8472,4 -4,4"/>
<!-- Node0 -->
<g id="node1" class="node">
<title>Node0</title>
<polygon fill="#bfbfbf" stroke="#000000" points="222.8228,-110.5 222.8228,-128.5 306.0786,-128.5 306.0786,-110.5 222.8228,-110.5"/>
<text text-anchor="middle" x="264.4507" y="-116.5" font-family="Helvetica,sans-Serif" font-size="10.00" fill="#000000">src/node_os.cc</text>
</g>
<!-- Node1 -->
<g id="node2" class="node">
<title>Node1</title>
<g id="a_node2"><a xlink:href="../../d1/d77/node_8h.html" target="_top" xlink:title="node.h">
<polygon fill="#ffffff" stroke="#000000" points="115.1577,-55.5 115.1577,-73.5 161.7437,-73.5 161.7437,-55.5 115.1577,-55.5"/>
<text text-anchor="middle" x="138.4507" y="-61.5" font-family="Helvetica,sans-Serif" font-size="10.00" fill="#000000">node.h</text>
</a>
</g>
</g>
<!-- Node0&#45;&gt;Node1 -->
<g id="edge1" class="edge">
<title>Node0&#45;&gt;Node1</title>
<path fill="none" stroke="#191970" d="M243.6443,-110.4179C223.2168,-101.5011 191.8358,-87.803 168.6615,-77.6873"/>
<polygon fill="#191970" stroke="#191970" points="169.8531,-74.3885 159.2879,-73.5956 167.0526,-80.804 169.8531,-74.3885"/>
</g>
<!-- Node2 -->
<g id="node3" class="node">
<title>Node2</title>
<polygon fill="#ffffff" stroke="#bfbfbf" points="0,-.5 0,-18.5 34.9014,-18.5 34.9014,-.5 0,-.5"/>
<text text-anchor="middle" x="17.4507" y="-6.5" font-family="Helvetica,sans-Serif" font-size="10.00" fill="#000000">v8.h</text>
</g>
<!-- Node0&#45;&gt;Node2 -->
<g id="edge7" class="edge">
<title>Node0&#45;&gt;Node2</title>
<path fill="none" stroke="#191970" d="M222.7531,-111.636C190.0324,-104.4987 143.9095,-92.2685 106.4507,-74 79.7226,-60.9648 52.5555,-39.8986 35.3882,-25.4092"/>
<polygon fill="#191970" stroke="#191970" points="37.2385,-22.3836 27.3776,-18.509 32.67,-27.6873 37.2385,-22.3836"/>
</g>
<!-- Node7 -->
<g id="node8" class="node">
<title>Node7</title>
<g id="a_node8"><a xlink:href="../../d5/d81/env_8h.html" target="_top" xlink:title="env.h">
<polygon fill="#ffffff" stroke="#000000" points="179.5879,-55.5 179.5879,-73.5 219.3135,-73.5 219.3135,-55.5 179.5879,-55.5"/>
<text text-anchor="middle" x="199.4507" y="-61.5" font-family="Helvetica,sans-Serif" font-size="10.00" fill="#000000">env.h</text>
</a>
</g>
</g>
<!-- Node0&#45;&gt;Node7 -->
<g id="edge8" class="edge">
<title>Node0&#45;&gt;Node7</title>
<path fill="none" stroke="#191970" d="M253.7173,-110.4179C244.0841,-102.2667 229.729,-90.1201 218.2025,-80.3669"/>
<polygon fill="#191970" stroke="#191970" points="220.312,-77.5671 210.4173,-73.7795 215.7904,-82.9108 220.312,-77.5671"/>
</g>
<!-- Node8 -->
<g id="node9" class="node">
<title>Node8</title>
<g id="a_node9"><a xlink:href="../../d9/d50/env-inl_8h.html" target="_top" xlink:title="env&#45;inl.h">
<polygon fill="#ffffff" stroke="#000000" points="237.5518,-55.5 237.5518,-73.5 291.3496,-73.5 291.3496,-55.5 237.5518,-55.5"/>
<text text-anchor="middle" x="264.4507" y="-61.5" font-family="Helvetica,sans-Serif" font-size="10.00" fill="#000000">env&#45;inl.h</text>
</a>
</g>
</g>
<!-- Node0&#45;&gt;Node8 -->
<g id="edge9" class="edge">
<title>Node0&#45;&gt;Node8</title>
<path fill="none" stroke="#191970" d="M264.4507,-110.4179C264.4507,-103.2164 264.4507,-92.8962 264.4507,-83.8632"/>
<polygon fill="#191970" stroke="#191970" points="267.9508,-83.7794 264.4507,-73.7795 260.9508,-83.7795 267.9508,-83.7794"/>
</g>
<!-- Node9 -->
<g id="node10" class="node">
<title>Node9</title>
<g id="a_node10"><a xlink:href="../../d8/dbe/string__bytes_8h.html" target="_top" xlink:title="string_bytes.h">
<polygon fill="#ffffff" stroke="#000000" points="309.3228,-55.5 309.3228,-73.5 387.5786,-73.5 387.5786,-55.5 309.3228,-55.5"/>
<text text-anchor="middle" x="348.4507" y="-61.5" font-family="Helvetica,sans-Serif" font-size="10.00" fill="#000000">string_bytes.h</text>
</a>
</g>
</g>
<!-- Node0&#45;&gt;Node9 -->
<g id="edge10" class="edge">
<title>Node0&#45;&gt;Node9</title>
<path fill="none" stroke="#191970" d="M278.3216,-110.4179C291.2104,-101.9788 310.64,-89.257 325.782,-79.3426"/>
<polygon fill="#191970" stroke="#191970" points="328.1103,-82.0017 334.5592,-73.5956 324.2757,-76.1454 328.1103,-82.0017"/>
</g>
<!-- Node10 -->
<g id="node11" class="node">
<title>Node10</title>
<polygon fill="#ffffff" stroke="#bfbfbf" points="405.6084,-55.5 405.6084,-73.5 453.293,-73.5 453.293,-55.5 405.6084,-55.5"/>
<text text-anchor="middle" x="429.4507" y="-61.5" font-family="Helvetica,sans-Serif" font-size="10.00" fill="#000000">errno.h</text>
</g>
<!-- Node0&#45;&gt;Node10 -->
<g id="edge11" class="edge">
<title>Node0&#45;&gt;Node10</title>
<path fill="none" stroke="#191970" d="M291.6971,-110.4179C320.1508,-100.9333 364.8331,-86.0392 395.5489,-75.8006"/>
<polygon fill="#191970" stroke="#191970" points="397.0065,-79.0041 405.3865,-72.5214 394.7929,-72.3633 397.0065,-79.0041"/>
</g>
<!-- Node11 -->
<g id="node12" class="node">
<title>Node11</title>
<polygon fill="#ffffff" stroke="#bfbfbf" points="471.0542,-55.5 471.0542,-73.5 519.8472,-73.5 519.8472,-55.5 471.0542,-55.5"/>
<text text-anchor="middle" x="495.4507" y="-61.5" font-family="Helvetica,sans-Serif" font-size="10.00" fill="#000000">string.h</text>
</g>
<!-- Node0&#45;&gt;Node11 -->
<g id="edge12" class="edge">
<title>Node0&#45;&gt;Node11</title>
<path fill="none" stroke="#191970" d="M306.3289,-110.5701C344.3959,-102.298 402.3277,-89.3247 461.1535,-74.2423"/>
<polygon fill="#191970" stroke="#191970" points="462.1757,-77.5932 470.983,-71.7042 460.4255,-70.8155 462.1757,-77.5932"/>
</g>
<!-- Node1&#45;&gt;Node2 -->
<g id="edge2" class="edge">
<title>Node1&#45;&gt;Node2</title>
<path fill="none" stroke="#191970" d="M118.47,-55.4179C98.239,-46.222 66.8204,-31.9408 44.3964,-21.7481"/>
<polygon fill="#191970" stroke="#191970" points="45.6497,-18.4732 35.0977,-17.5214 42.7531,-24.8458 45.6497,-18.4732"/>
</g>
<!-- Node3 -->
<g id="node4" class="node">
<title>Node3</title>
<g id="a_node4"><a xlink:href="../../da/d9c/node__version_8h.html" target="_top" xlink:title="node_version.h">
<polygon fill="#ffffff" stroke="#000000" points="53.2588,-.5 53.2588,-18.5 137.6426,-18.5 137.6426,-.5 53.2588,-.5"/>
<text text-anchor="middle" x="95.4507" y="-6.5" font-family="Helvetica,sans-Serif" font-size="10.00" fill="#000000">node_version.h</text>
</a>
</g>
</g>
<!-- Node1&#45;&gt;Node3 -->
<g id="edge3" class="edge">
<title>Node1&#45;&gt;Node3</title>
<path fill="none" stroke="#191970" d="M131.3501,-55.4179C125.2867,-47.6624 116.3956,-36.29 108.9789,-26.8035"/>
<polygon fill="#191970" stroke="#191970" points="111.6221,-24.5018 102.7055,-18.7795 106.1075,-28.8133 111.6221,-24.5018"/>
</g>
<!-- Node4 -->
<g id="node5" class="node">
<title>Node4</title>
<polygon fill="#ffffff" stroke="#bfbfbf" points="155.665,-.5 155.665,-18.5 207.2363,-18.5 207.2363,-.5 155.665,-.5"/>
<text text-anchor="middle" x="181.4507" y="-6.5" font-family="Helvetica,sans-Serif" font-size="10.00" fill="#000000">assert.h</text>
</g>
<!-- Node1&#45;&gt;Node4 -->
<g id="edge4" class="edge">
<title>Node1&#45;&gt;Node4</title>
<path fill="none" stroke="#191970" d="M145.5513,-55.4179C151.6146,-47.6624 160.5058,-36.29 167.9225,-26.8035"/>
<polygon fill="#191970" stroke="#191970" points="170.7939,-28.8133 174.1958,-18.7795 165.2792,-24.5018 170.7939,-28.8133"/>
</g>
<!-- Node5 -->
<g id="node6" class="node">
<title>Node5</title>
<polygon fill="#ffffff" stroke="#bfbfbf" points="225.3301,-.5 225.3301,-18.5 273.5713,-18.5 273.5713,-.5 225.3301,-.5"/>
<text text-anchor="middle" x="249.4507" y="-6.5" font-family="Helvetica,sans-Serif" font-size="10.00" fill="#000000">stdint.h</text>
</g>
<!-- Node1&#45;&gt;Node5 -->
<g id="edge5" class="edge">
<title>Node1&#45;&gt;Node5</title>
<path fill="none" stroke="#191970" d="M156.7801,-55.4179C174.5348,-46.6205 201.6821,-33.1691 222.0123,-23.0956"/>
<polygon fill="#191970" stroke="#191970" points="223.6876,-26.1716 231.0941,-18.5956 220.5797,-19.8994 223.6876,-26.1716"/>
</g>
<!-- Node6 -->
<g id="node7" class="node">
<title>Node6</title>
<polygon fill="#ffffff" stroke="#bfbfbf" points="291.4409,-.5 291.4409,-18.5 357.4604,-18.5 357.4604,-.5 291.4409,-.5"/>
<text text-anchor="middle" x="324.4507" y="-6.5" font-family="Helvetica,sans-Serif" font-size="10.00" fill="#000000">sys/types.h</text>
</g>
<!-- Node1&#45;&gt;Node6 -->
<g id="edge6" class="edge">
<title>Node1&#45;&gt;Node6</title>
<path fill="none" stroke="#191970" d="M161.8684,-57.544C164.7586,-56.6867 167.6724,-55.8228 170.4507,-55 209.0435,-43.5702 253.087,-30.5608 284.1585,-21.3889"/>
<polygon fill="#191970" stroke="#191970" points="285.1674,-24.7404 293.7675,-18.5527 283.1857,-18.0268 285.1674,-24.7404"/>
</g>
</g>
</svg>
