<?xml version="1.0" encoding="UTF-8" standalone="no"?>
<!DOCTYPE svg PUBLIC "-//W3C//DTD SVG 1.1//EN"
 "http://www.w3.org/Graphics/SVG/1.1/DTD/svg11.dtd">
<!-- Generated by graphviz version 2.40.1 (20161225.0304)
 -->
<!-- Title: url_host_value Pages: 1 -->
<svg width="89pt" height="102pt"
 viewBox="0.00 0.00 89.04 102.00" xmlns="http://www.w3.org/2000/svg" xmlns:xlink="http://www.w3.org/1999/xlink">
<g id="graph0" class="graph" transform="scale(1 1) rotate(0) translate(4 98)">
<title>url_host_value</title>
<polygon fill="#ffffff" stroke="transparent" points="-4,4 -4,-98 85.0439,-98 85.0439,4 -4,4"/>
<!-- Node1 -->
<g id="node1" class="node">
<title>Node1</title>
<polygon fill="#bfbfbf" stroke="#000000" points="0,-.5 0,-18.5 81.0439,-18.5 81.0439,-.5 0,-.5"/>
<text text-anchor="middle" x="40.522" y="-6.5" font-family="Helvetica,sans-Serif" font-size="10.00" fill="#000000">url_host_value</text>
</g>
<!-- Node2 -->
<g id="node2" class="node">
<title>Node2</title>
<polygon fill="#ffffff" stroke="#bfbfbf" points="20.2954,-75.5 20.2954,-93.5 60.7485,-93.5 60.7485,-75.5 20.2954,-75.5"/>
<text text-anchor="middle" x="40.522" y="-81.5" font-family="Helvetica,sans-Serif" font-size="10.00" fill="#000000">string</text>
</g>
<!-- Node2&#45;&gt;Node1 -->
<g id="edge1" class="edge">
<title>Node2&#45;&gt;Node1</title>
<path fill="none" stroke="#9a32cd" stroke-dasharray="5,2" d="M40.522,-65.1079C40.522,-50.2042 40.522,-30.2791 40.522,-18.7717"/>
<polygon fill="#9a32cd" stroke="#9a32cd" points="37.0221,-65.3035 40.522,-75.3035 44.0221,-65.3036 37.0221,-65.3035"/>
<text text-anchor="middle" x="58.5957" y="-49" font-family="Helvetica,sans-Serif" font-size="10.00" fill="#000000"> opaque</text>
<text text-anchor="middle" x="58.5957" y="-39" font-family="Helvetica,sans-Serif" font-size="10.00" fill="#000000">domain</text>
</g>
</g>
</svg>
