<?xml version="1.0" encoding="UTF-8" standalone="no"?>
<!DOCTYPE svg PUBLIC "-//W3C//DTD SVG 1.1//EN"
 "http://www.w3.org/Graphics/SVG/1.1/DTD/svg11.dtd">
<!-- Generated by graphviz version 2.40.1 (20161225.0304)
 -->
<!-- Title: src/backtrace_posix.cc Pages: 1 -->
<svg width="491pt" height="137pt"
 viewBox="0.00 0.00 491.18 137.00" xmlns="http://www.w3.org/2000/svg" xmlns:xlink="http://www.w3.org/1999/xlink">
<g id="graph0" class="graph" transform="scale(1 1) rotate(0) translate(4 133)">
<title>src/backtrace_posix.cc</title>
<polygon fill="#ffffff" stroke="transparent" points="-4,4 -4,-133 487.1821,-133 487.1821,4 -4,4"/>
<!-- Node0 -->
<g id="node1" class="node">
<title>Node0</title>
<polygon fill="#bfbfbf" stroke="#000000" points="257.877,-110.5 257.877,-128.5 375.0244,-128.5 375.0244,-110.5 257.877,-110.5"/>
<text text-anchor="middle" x="316.4507" y="-116.5" font-family="Helvetica,sans-Serif" font-size="10.00" fill="#000000">src/backtrace_posix.cc</text>
</g>
<!-- Node1 -->
<g id="node2" class="node">
<title>Node1</title>
<g id="a_node2"><a xlink:href="../../d1/d77/node_8h.html" target="_top" xlink:title="node.h">
<polygon fill="#ffffff" stroke="#000000" points="158.1577,-55.5 158.1577,-73.5 204.7437,-73.5 204.7437,-55.5 158.1577,-55.5"/>
<text text-anchor="middle" x="181.4507" y="-61.5" font-family="Helvetica,sans-Serif" font-size="10.00" fill="#000000">node.h</text>
</a>
</g>
</g>
<!-- Node0&#45;&gt;Node1 -->
<g id="edge1" class="edge">
<title>Node0&#45;&gt;Node1</title>
<path fill="none" stroke="#191970" d="M294.1582,-110.4179C272.0761,-101.4215 238.0477,-87.5581 213.1564,-77.4172"/>
<polygon fill="#191970" stroke="#191970" points="214.3578,-74.1273 203.7763,-73.5956 211.7167,-80.61 214.3578,-74.1273"/>
</g>
<!-- Node7 -->
<g id="node8" class="node">
<title>Node7</title>
<polygon fill="#ffffff" stroke="#bfbfbf" points="223.1084,-55.5 223.1084,-73.5 275.793,-73.5 275.793,-55.5 223.1084,-55.5"/>
<text text-anchor="middle" x="249.4507" y="-61.5" font-family="Helvetica,sans-Serif" font-size="10.00" fill="#000000">cxxabi.h</text>
</g>
<!-- Node0&#45;&gt;Node7 -->
<g id="edge7" class="edge">
<title>Node0&#45;&gt;Node7</title>
<path fill="none" stroke="#191970" d="M305.387,-110.4179C295.4574,-102.2667 280.6607,-90.1201 268.7795,-80.3669"/>
<polygon fill="#191970" stroke="#191970" points="270.7048,-77.4192 260.7547,-73.7795 266.2633,-82.8297 270.7048,-77.4192"/>
</g>
<!-- Node8 -->
<g id="node9" class="node">
<title>Node8</title>
<polygon fill="#ffffff" stroke="#bfbfbf" points="293.7192,-55.5 293.7192,-73.5 339.1821,-73.5 339.1821,-55.5 293.7192,-55.5"/>
<text text-anchor="middle" x="316.4507" y="-61.5" font-family="Helvetica,sans-Serif" font-size="10.00" fill="#000000">dlfcn.h</text>
</g>
<!-- Node0&#45;&gt;Node8 -->
<g id="edge8" class="edge">
<title>Node0&#45;&gt;Node8</title>
<path fill="none" stroke="#191970" d="M316.4507,-110.4179C316.4507,-103.2164 316.4507,-92.8962 316.4507,-83.8632"/>
<polygon fill="#191970" stroke="#191970" points="319.9508,-83.7794 316.4507,-73.7795 312.9508,-83.7795 319.9508,-83.7794"/>
</g>
<!-- Node9 -->
<g id="node10" class="node">
<title>Node9</title>
<polygon fill="#ffffff" stroke="#bfbfbf" points="357.6577,-55.5 357.6577,-73.5 419.2437,-73.5 419.2437,-55.5 357.6577,-55.5"/>
<text text-anchor="middle" x="388.4507" y="-61.5" font-family="Helvetica,sans-Serif" font-size="10.00" fill="#000000">execinfo.h</text>
</g>
<!-- Node0&#45;&gt;Node9 -->
<g id="edge9" class="edge">
<title>Node0&#45;&gt;Node9</title>
<path fill="none" stroke="#191970" d="M328.34,-110.4179C339.1142,-102.1876 355.2209,-89.8839 368.0504,-80.0836"/>
<polygon fill="#191970" stroke="#191970" points="370.481,-82.6313 376.303,-73.7795 366.2316,-77.0685 370.481,-82.6313"/>
</g>
<!-- Node10 -->
<g id="node11" class="node">
<title>Node10</title>
<polygon fill="#ffffff" stroke="#bfbfbf" points="437.7192,-55.5 437.7192,-73.5 483.1821,-73.5 483.1821,-55.5 437.7192,-55.5"/>
<text text-anchor="middle" x="460.4507" y="-61.5" font-family="Helvetica,sans-Serif" font-size="10.00" fill="#000000">stdio.h</text>
</g>
<!-- Node0&#45;&gt;Node10 -->
<g id="edge10" class="edge">
<title>Node0&#45;&gt;Node10</title>
<path fill="none" stroke="#191970" d="M340.2294,-110.4179C364.1711,-101.2734 401.2784,-87.1005 427.9338,-76.9197"/>
<polygon fill="#191970" stroke="#191970" points="429.4958,-80.0697 437.5887,-73.232 426.9981,-73.5305 429.4958,-80.0697"/>
</g>
<!-- Node2 -->
<g id="node3" class="node">
<title>Node2</title>
<polygon fill="#ffffff" stroke="#bfbfbf" points="0,-.5 0,-18.5 34.9014,-18.5 34.9014,-.5 0,-.5"/>
<text text-anchor="middle" x="17.4507" y="-6.5" font-family="Helvetica,sans-Serif" font-size="10.00" fill="#000000">v8.h</text>
</g>
<!-- Node1&#45;&gt;Node2 -->
<g id="edge2" class="edge">
<title>Node1&#45;&gt;Node2</title>
<path fill="none" stroke="#191970" d="M158.1376,-56.8963C132.6007,-48.5371 90.211,-34.5739 44.6182,-19.0161"/>
<polygon fill="#191970" stroke="#191970" points="45.7485,-15.7036 35.1539,-15.7792 43.4832,-22.327 45.7485,-15.7036"/>
</g>
<!-- Node3 -->
<g id="node4" class="node">
<title>Node3</title>
<g id="a_node4"><a xlink:href="../../da/d9c/node__version_8h.html" target="_top" xlink:title="node_version.h">
<polygon fill="#ffffff" stroke="#000000" points="53.2588,-.5 53.2588,-18.5 137.6426,-18.5 137.6426,-.5 53.2588,-.5"/>
<text text-anchor="middle" x="95.4507" y="-6.5" font-family="Helvetica,sans-Serif" font-size="10.00" fill="#000000">node_version.h</text>
</a>
</g>
</g>
<!-- Node1&#45;&gt;Node3 -->
<g id="edge3" class="edge">
<title>Node1&#45;&gt;Node3</title>
<path fill="none" stroke="#191970" d="M167.2495,-55.4179C153.9294,-46.8992 133.7857,-34.0166 118.2215,-24.0627"/>
<polygon fill="#191970" stroke="#191970" points="119.9832,-21.0348 109.6729,-18.5956 116.2117,-26.932 119.9832,-21.0348"/>
</g>
<!-- Node4 -->
<g id="node5" class="node">
<title>Node4</title>
<polygon fill="#ffffff" stroke="#bfbfbf" points="155.665,-.5 155.665,-18.5 207.2363,-18.5 207.2363,-.5 155.665,-.5"/>
<text text-anchor="middle" x="181.4507" y="-6.5" font-family="Helvetica,sans-Serif" font-size="10.00" fill="#000000">assert.h</text>
</g>
<!-- Node1&#45;&gt;Node4 -->
<g id="edge4" class="edge">
<title>Node1&#45;&gt;Node4</title>
<path fill="none" stroke="#191970" d="M181.4507,-55.4179C181.4507,-48.2164 181.4507,-37.8962 181.4507,-28.8632"/>
<polygon fill="#191970" stroke="#191970" points="184.9508,-28.7794 181.4507,-18.7795 177.9508,-28.7795 184.9508,-28.7794"/>
</g>
<!-- Node5 -->
<g id="node6" class="node">
<title>Node5</title>
<polygon fill="#ffffff" stroke="#bfbfbf" points="225.3301,-.5 225.3301,-18.5 273.5713,-18.5 273.5713,-.5 225.3301,-.5"/>
<text text-anchor="middle" x="249.4507" y="-6.5" font-family="Helvetica,sans-Serif" font-size="10.00" fill="#000000">stdint.h</text>
</g>
<!-- Node1&#45;&gt;Node5 -->
<g id="edge5" class="edge">
<title>Node1&#45;&gt;Node5</title>
<path fill="none" stroke="#191970" d="M192.6795,-55.4179C202.8551,-47.1876 218.067,-34.8839 230.1837,-25.0836"/>
<polygon fill="#191970" stroke="#191970" points="232.4038,-27.7895 237.9779,-18.7795 228.0017,-22.3469 232.4038,-27.7895"/>
</g>
<!-- Node6 -->
<g id="node7" class="node">
<title>Node6</title>
<polygon fill="#ffffff" stroke="#bfbfbf" points="291.4409,-.5 291.4409,-18.5 357.4604,-18.5 357.4604,-.5 291.4409,-.5"/>
<text text-anchor="middle" x="324.4507" y="-6.5" font-family="Helvetica,sans-Serif" font-size="10.00" fill="#000000">sys/types.h</text>
</g>
<!-- Node1&#45;&gt;Node6 -->
<g id="edge6" class="edge">
<title>Node1&#45;&gt;Node6</title>
<path fill="none" stroke="#191970" d="M204.7444,-55.5409C228.1834,-46.5259 264.5597,-32.535 291.0635,-22.3412"/>
<polygon fill="#191970" stroke="#191970" points="292.6134,-25.4951 300.6904,-18.6386 290.1005,-18.9617 292.6134,-25.4951"/>
</g>
</g>
</svg>
