<?xml version="1.0" encoding="UTF-8" standalone="no"?>
<!DOCTYPE svg PUBLIC "-//W3C//DTD SVG 1.1//EN"
 "http://www.w3.org/Graphics/SVG/1.1/DTD/svg11.dtd">
<!-- Generated by graphviz version 2.40.1 (20161225.0304)
 -->
<!-- Title: src/tty_wrap.cc Pages: 1 -->
<!--zoomable 192 -->
<svg id="main" version="1.1" xmlns="http://www.w3.org/2000/svg" xmlns:xlink="http://www.w3.org/1999/xlink" xml:space="preserve" onload="init(evt)">
<style type="text/css"><![CDATA[
.edge:hover path { stroke: red; }
.edge:hover polygon { stroke: red; fill: red; }
]]></style>
<script type="text/javascript"><![CDATA[
var edges = document.getElementsByTagName('g');
if (edges && edges.length) {
  for (var i=0;i<edges.length;i++) {
    if (edges[i].id.substr(0,4)=='edge') {
      edges[i].setAttribute('class','edge');
    }
  }
}
]]></script>
        <defs>
                <circle id="rim" cx="0" cy="0" r="7"/>
                <circle id="rim2" cx="0" cy="0" r="3.5"/>
                <g id="zoomPlus">
                        <use xlink:href="#rim" fill="#404040">
                                <set attributeName="fill" to="#808080" begin="zoomplus.mouseover" end="zoomplus.mouseout"/>
                        </use>
                        <path d="M-4,0h8M0,-4v8" fill="none" stroke="white" stroke-width="1.5" pointer-events="none"/>
                </g>
                <g id="zoomMin">
                        <use xlink:href="#rim" fill="#404040">
                                <set attributeName="fill" to="#808080" begin="zoomminus.mouseover" end="zoomminus.mouseout"/>
                        </use>
                        <path d="M-4,0h8" fill="none" stroke="white" stroke-width="1.5" pointer-events="none"/>
                </g>
                <g id="dirArrow">
                        <path fill="none" stroke="white" stroke-width="1.5" d="M0,-3.0v7 M-2.5,-0.5L0,-3.0L2.5,-0.5"/>
                </g>
               <g id="resetDef">
                       <use xlink:href="#rim2" fill="#404040">
                               <set attributeName="fill" to="#808080" begin="reset.mouseover" end="reset.mouseout"/>
                       </use>
               </g>
        </defs>

<script type="text/javascript">
var viewWidth = 887;
var viewHeight = 192;
var sectionId = 'dynsection-0';
</script>
<script xlink:href="../../svgpan.js"/>
<svg id="graph" class="graph">
<g id="viewport">
<title>src/tty_wrap.cc</title>
<polygon fill="#ffffff" stroke="transparent" points="-4,4 -4,-188 883.2954,-188 883.2954,4 -4,4"/>
<!-- Node0 -->
<g id="node1" class="node">
<title>Node0</title>
<polygon fill="#bfbfbf" stroke="#000000" points="399.7266,-165.5 399.7266,-183.5 482.4063,-183.5 482.4063,-165.5 399.7266,-165.5"/>
<text text-anchor="middle" x="441.0664" y="-171.5" font-family="Helvetica,sans-Serif" font-size="10.00" fill="#000000">src/tty_wrap.cc</text>
</g>
<!-- Node1 -->
<g id="node2" class="node">
<title>Node1</title>
<g id="a_node2"><a xlink:href="../../d3/d04/tty__wrap_8h.html" target="_top" xlink:title="tty_wrap.h">
<polygon fill="#ffffff" stroke="#000000" points="0,-110.5 0,-128.5 62.1328,-128.5 62.1328,-110.5 0,-110.5"/>
<text text-anchor="middle" x="31.0664" y="-116.5" font-family="Helvetica,sans-Serif" font-size="10.00" fill="#000000">tty_wrap.h</text>
</a>
</g>
</g>
<!-- Node0&#45;&gt;Node1 -->
<g id="edge1" class="edge">
<title>Node0&#45;&gt;Node1</title>
<path fill="none" stroke="#191970" d="M399.5017,-170.9041C332.6125,-164.7876 196.7959,-151.0104 72.5108,-129.0967"/>
<polygon fill="#191970" stroke="#191970" points="72.8999,-125.6109 62.4403,-127.2984 71.6693,-132.5019 72.8999,-125.6109"/>
</g>
<!-- Node2 -->
<g id="node3" class="node">
<title>Node2</title>
<g id="a_node3"><a xlink:href="../../d5/d81/env_8h.html" target="_top" xlink:title="env.h">
<polygon fill="#ffffff" stroke="#000000" points="80.2036,-110.5 80.2036,-128.5 119.9292,-128.5 119.9292,-110.5 80.2036,-110.5"/>
<text text-anchor="middle" x="100.0664" y="-116.5" font-family="Helvetica,sans-Serif" font-size="10.00" fill="#000000">env.h</text>
</a>
</g>
</g>
<!-- Node0&#45;&gt;Node2 -->
<g id="edge2" class="edge">
<title>Node0&#45;&gt;Node2</title>
<path fill="none" stroke="#191970" d="M399.5084,-170.7328C341.1886,-164.9465 231.7046,-152.2609 130.0345,-128.8883"/>
<polygon fill="#191970" stroke="#191970" points="130.7562,-125.4627 120.2218,-126.593 129.1618,-132.2787 130.7562,-125.4627"/>
</g>
<!-- Node3 -->
<g id="node4" class="node">
<title>Node3</title>
<g id="a_node4"><a xlink:href="../../d9/d50/env-inl_8h.html" target="_top" xlink:title="env&#45;inl.h">
<polygon fill="#ffffff" stroke="#000000" points="138.1675,-110.5 138.1675,-128.5 191.9653,-128.5 191.9653,-110.5 138.1675,-110.5"/>
<text text-anchor="middle" x="165.0664" y="-116.5" font-family="Helvetica,sans-Serif" font-size="10.00" fill="#000000">env&#45;inl.h</text>
</a>
</g>
</g>
<!-- Node0&#45;&gt;Node3 -->
<g id="edge3" class="edge">
<title>Node0&#45;&gt;Node3</title>
<path fill="none" stroke="#191970" d="M399.6894,-167.5711C353.7742,-159.6797 277.2779,-145.934 202.2384,-129.144"/>
<polygon fill="#191970" stroke="#191970" points="202.6681,-125.653 192.1427,-126.8644 201.1262,-132.4811 202.6681,-125.653"/>
</g>
<!-- Node4 -->
<g id="node5" class="node">
<title>Node4</title>
<g id="a_node5"><a xlink:href="../../da/db4/handle__wrap_8h.html" target="_top" xlink:title="handle_wrap.h">
<polygon fill="#ffffff" stroke="#000000" points="210.2637,-110.5 210.2637,-128.5 291.8691,-128.5 291.8691,-110.5 210.2637,-110.5"/>
<text text-anchor="middle" x="251.0664" y="-116.5" font-family="Helvetica,sans-Serif" font-size="10.00" fill="#000000">handle_wrap.h</text>
</a>
</g>
</g>
<!-- Node0&#45;&gt;Node4 -->
<g id="edge4" class="edge">
<title>Node0&#45;&gt;Node4</title>
<path fill="none" stroke="#191970" d="M409.6918,-165.4179C377.5547,-156.115 327.4396,-141.608 292.1556,-131.3943"/>
<polygon fill="#191970" stroke="#191970" points="292.7507,-127.9229 282.1719,-128.5042 290.8043,-134.6468 292.7507,-127.9229"/>
</g>
<!-- Node5 -->
<g id="node6" class="node">
<title>Node5</title>
<g id="a_node6"><a xlink:href="../../d8/d1c/node__buffer_8h.html" target="_top" xlink:title="node_buffer.h">
<polygon fill="#ffffff" stroke="#000000" points="309.5684,-110.5 309.5684,-128.5 386.5645,-128.5 386.5645,-110.5 309.5684,-110.5"/>
<text text-anchor="middle" x="348.0664" y="-116.5" font-family="Helvetica,sans-Serif" font-size="10.00" fill="#000000">node_buffer.h</text>
</a>
</g>
</g>
<!-- Node0&#45;&gt;Node5 -->
<g id="edge5" class="edge">
<title>Node0&#45;&gt;Node5</title>
<path fill="none" stroke="#191970" d="M425.7093,-165.4179C411.1703,-156.8195 389.1139,-143.7754 372.2201,-133.7844"/>
<polygon fill="#191970" stroke="#191970" points="373.8354,-130.6735 363.4463,-128.5956 370.2721,-136.6987 373.8354,-130.6735"/>
</g>
<!-- Node12 -->
<g id="node13" class="node">
<title>Node12</title>
<g id="a_node13"><a xlink:href="../../dc/dc4/node__wrap_8h.html" target="_top" xlink:title="node_wrap.h">
<polygon fill="#ffffff" stroke="#000000" points="404.1553,-110.5 404.1553,-128.5 477.9775,-128.5 477.9775,-110.5 404.1553,-110.5"/>
<text text-anchor="middle" x="441.0664" y="-116.5" font-family="Helvetica,sans-Serif" font-size="10.00" fill="#000000">node_wrap.h</text>
</a>
</g>
</g>
<!-- Node0&#45;&gt;Node12 -->
<g id="edge13" class="edge">
<title>Node0&#45;&gt;Node12</title>
<path fill="none" stroke="#191970" d="M441.0664,-165.4179C441.0664,-158.2164 441.0664,-147.8962 441.0664,-138.8632"/>
<polygon fill="#191970" stroke="#191970" points="444.5665,-138.7794 441.0664,-128.7795 437.5665,-138.7795 444.5665,-138.7794"/>
</g>
<!-- Node13 -->
<g id="node14" class="node">
<title>Node13</title>
<g id="a_node14"><a xlink:href="../../d6/dae/req-wrap_8h.html" target="_top" xlink:title="req&#45;wrap.h">
<polygon fill="#ffffff" stroke="#000000" points="496.1675,-110.5 496.1675,-128.5 559.9653,-128.5 559.9653,-110.5 496.1675,-110.5"/>
<text text-anchor="middle" x="528.0664" y="-116.5" font-family="Helvetica,sans-Serif" font-size="10.00" fill="#000000">req&#45;wrap.h</text>
</a>
</g>
</g>
<!-- Node0&#45;&gt;Node13 -->
<g id="edge14" class="edge">
<title>Node0&#45;&gt;Node13</title>
<path fill="none" stroke="#191970" d="M455.4327,-165.4179C468.9077,-156.8992 489.2857,-144.0166 505.0308,-134.0627"/>
<polygon fill="#191970" stroke="#191970" points="507.0965,-136.8977 513.6788,-128.5956 503.3559,-130.9808 507.0965,-136.8977"/>
</g>
<!-- Node14 -->
<g id="node15" class="node">
<title>Node14</title>
<g id="a_node15"><a xlink:href="../../dd/d0b/req-wrap-inl_8h.html" target="_top" xlink:title="req&#45;wrap&#45;inl.h">
<polygon fill="#ffffff" stroke="#000000" points="577.5,-110.5 577.5,-128.5 654.6328,-128.5 654.6328,-110.5 577.5,-110.5"/>
<text text-anchor="middle" x="616.0664" y="-116.5" font-family="Helvetica,sans-Serif" font-size="10.00" fill="#000000">req&#45;wrap&#45;inl.h</text>
</a>
</g>
</g>
<!-- Node0&#45;&gt;Node14 -->
<g id="edge15" class="edge">
<title>Node0&#45;&gt;Node14</title>
<path fill="none" stroke="#191970" d="M469.9641,-165.4179C499.4369,-156.155 545.3268,-141.7325 577.8019,-131.526"/>
<polygon fill="#191970" stroke="#191970" points="578.9261,-134.8415 587.4166,-128.5042 576.8273,-128.1636 578.9261,-134.8415"/>
</g>
<!-- Node15 -->
<g id="node16" class="node">
<title>Node15</title>
<g id="a_node16"><a xlink:href="../../da/d2f/stream__wrap_8h.html" target="_top" xlink:title="stream_wrap.h">
<polygon fill="#ffffff" stroke="#000000" points="672.9976,-110.5 672.9976,-128.5 755.1353,-128.5 755.1353,-110.5 672.9976,-110.5"/>
<text text-anchor="middle" x="714.0664" y="-116.5" font-family="Helvetica,sans-Serif" font-size="10.00" fill="#000000">stream_wrap.h</text>
</a>
</g>
</g>
<!-- Node0&#45;&gt;Node15 -->
<g id="edge16" class="edge">
<title>Node0&#45;&gt;Node15</title>
<path fill="none" stroke="#191970" d="M482.5292,-166.1467C530.7738,-156.4271 610.4626,-140.3726 662.6156,-129.8656"/>
<polygon fill="#191970" stroke="#191970" points="663.5498,-133.2478 672.6615,-127.8416 662.1672,-126.3856 663.5498,-133.2478"/>
</g>
<!-- Node16 -->
<g id="node17" class="node">
<title>Node16</title>
<g id="a_node17"><a xlink:href="../../d8/d3c/util_8h.html" target="_top" xlink:title="util.h">
<polygon fill="#ffffff" stroke="#000000" points="773.5049,-110.5 773.5049,-128.5 810.6279,-128.5 810.6279,-110.5 773.5049,-110.5"/>
<text text-anchor="middle" x="792.0664" y="-116.5" font-family="Helvetica,sans-Serif" font-size="10.00" fill="#000000">util.h</text>
</a>
</g>
</g>
<!-- Node0&#45;&gt;Node16 -->
<g id="edge17" class="edge">
<title>Node0&#45;&gt;Node16</title>
<path fill="none" stroke="#191970" d="M482.5722,-171.1569C542.6293,-165.7754 657.2746,-153.4619 763.3239,-128.7742"/>
<polygon fill="#191970" stroke="#191970" points="764.3062,-132.1384 773.2289,-126.4257 762.6912,-125.3272 764.3062,-132.1384"/>
</g>
<!-- Node17 -->
<g id="node18" class="node">
<title>Node17</title>
<g id="a_node18"><a xlink:href="../../d5/d8c/util-inl_8h.html" target="_top" xlink:title="util&#45;inl.h">
<polygon fill="#ffffff" stroke="#000000" points="828.8374,-110.5 828.8374,-128.5 879.2954,-128.5 879.2954,-110.5 828.8374,-110.5"/>
<text text-anchor="middle" x="854.0664" y="-116.5" font-family="Helvetica,sans-Serif" font-size="10.00" fill="#000000">util&#45;inl.h</text>
</a>
</g>
</g>
<!-- Node0&#45;&gt;Node17 -->
<g id="edge18" class="edge">
<title>Node0&#45;&gt;Node17</title>
<path fill="none" stroke="#191970" d="M482.6133,-171.6032C550.9234,-166.3869 691.3104,-153.7617 818.6253,-129.0388"/>
<polygon fill="#191970" stroke="#191970" points="819.4139,-132.4507 828.5477,-127.0818 818.0594,-125.583 819.4139,-132.4507"/>
</g>
<!-- Node6 -->
<g id="node7" class="node">
<title>Node6</title>
<g id="a_node7"><a xlink:href="../../d1/d77/node_8h.html" target="_top" xlink:title="node.h">
<polygon fill="#ffffff" stroke="#000000" points="356.7734,-55.5 356.7734,-73.5 403.3594,-73.5 403.3594,-55.5 356.7734,-55.5"/>
<text text-anchor="middle" x="380.0664" y="-61.5" font-family="Helvetica,sans-Serif" font-size="10.00" fill="#000000">node.h</text>
</a>
</g>
</g>
<!-- Node5&#45;&gt;Node6 -->
<g id="edge6" class="edge">
<title>Node5&#45;&gt;Node6</title>
<path fill="none" stroke="#191970" d="M353.3506,-110.4179C357.7247,-102.8998 364.0764,-91.9829 369.489,-82.6799"/>
<polygon fill="#191970" stroke="#191970" points="372.6637,-84.1831 374.6674,-73.7795 366.6132,-80.6628 372.6637,-84.1831"/>
</g>
<!-- Node7 -->
<g id="node8" class="node">
<title>Node7</title>
<polygon fill="#ffffff" stroke="#bfbfbf" points="241.6157,-.5 241.6157,-18.5 276.5171,-18.5 276.5171,-.5 241.6157,-.5"/>
<text text-anchor="middle" x="259.0664" y="-6.5" font-family="Helvetica,sans-Serif" font-size="10.00" fill="#000000">v8.h</text>
</g>
<!-- Node5&#45;&gt;Node7 -->
<g id="edge12" class="edge">
<title>Node5&#45;&gt;Node7</title>
<path fill="none" stroke="#191970" d="M340.7832,-110.4982C325.9194,-92.1273 291.8846,-50.0619 272.7589,-26.4233"/>
<polygon fill="#191970" stroke="#191970" points="275.4612,-24.1988 266.4503,-18.6261 270.0193,-28.6018 275.4612,-24.1988"/>
</g>
<!-- Node6&#45;&gt;Node7 -->
<g id="edge7" class="edge">
<title>Node6&#45;&gt;Node7</title>
<path fill="none" stroke="#191970" d="M360.0857,-55.4179C339.8547,-46.222 308.4361,-31.9408 286.0122,-21.7481"/>
<polygon fill="#191970" stroke="#191970" points="287.2654,-18.4732 276.7134,-17.5214 284.3688,-24.8458 287.2654,-18.4732"/>
</g>
<!-- Node8 -->
<g id="node9" class="node">
<title>Node8</title>
<g id="a_node9"><a xlink:href="../../da/d9c/node__version_8h.html" target="_top" xlink:title="node_version.h">
<polygon fill="#ffffff" stroke="#000000" points="294.8745,-.5 294.8745,-18.5 379.2583,-18.5 379.2583,-.5 294.8745,-.5"/>
<text text-anchor="middle" x="337.0664" y="-6.5" font-family="Helvetica,sans-Serif" font-size="10.00" fill="#000000">node_version.h</text>
</a>
</g>
</g>
<!-- Node6&#45;&gt;Node8 -->
<g id="edge8" class="edge">
<title>Node6&#45;&gt;Node8</title>
<path fill="none" stroke="#191970" d="M372.9658,-55.4179C366.9025,-47.6624 358.0113,-36.29 350.5946,-26.8035"/>
<polygon fill="#191970" stroke="#191970" points="353.2378,-24.5018 344.3213,-18.7795 347.7232,-28.8133 353.2378,-24.5018"/>
</g>
<!-- Node9 -->
<g id="node10" class="node">
<title>Node9</title>
<polygon fill="#ffffff" stroke="#bfbfbf" points="397.2808,-.5 397.2808,-18.5 448.8521,-18.5 448.8521,-.5 397.2808,-.5"/>
<text text-anchor="middle" x="423.0664" y="-6.5" font-family="Helvetica,sans-Serif" font-size="10.00" fill="#000000">assert.h</text>
</g>
<!-- Node6&#45;&gt;Node9 -->
<g id="edge9" class="edge">
<title>Node6&#45;&gt;Node9</title>
<path fill="none" stroke="#191970" d="M387.167,-55.4179C393.2303,-47.6624 402.1215,-36.29 409.5382,-26.8035"/>
<polygon fill="#191970" stroke="#191970" points="412.4096,-28.8133 415.8116,-18.7795 406.895,-24.5018 412.4096,-28.8133"/>
</g>
<!-- Node10 -->
<g id="node11" class="node">
<title>Node10</title>
<polygon fill="#ffffff" stroke="#bfbfbf" points="466.9458,-.5 466.9458,-18.5 515.187,-18.5 515.187,-.5 466.9458,-.5"/>
<text text-anchor="middle" x="491.0664" y="-6.5" font-family="Helvetica,sans-Serif" font-size="10.00" fill="#000000">stdint.h</text>
</g>
<!-- Node6&#45;&gt;Node10 -->
<g id="edge10" class="edge">
<title>Node6&#45;&gt;Node10</title>
<path fill="none" stroke="#191970" d="M398.3958,-55.4179C416.1505,-46.6205 443.2979,-33.1691 463.628,-23.0956"/>
<polygon fill="#191970" stroke="#191970" points="465.3034,-26.1716 472.7098,-18.5956 462.1955,-19.8994 465.3034,-26.1716"/>
</g>
<!-- Node11 -->
<g id="node12" class="node">
<title>Node11</title>
<polygon fill="#ffffff" stroke="#bfbfbf" points="533.0566,-.5 533.0566,-18.5 599.0762,-18.5 599.0762,-.5 533.0566,-.5"/>
<text text-anchor="middle" x="566.0664" y="-6.5" font-family="Helvetica,sans-Serif" font-size="10.00" fill="#000000">sys/types.h</text>
</g>
<!-- Node6&#45;&gt;Node11 -->
<g id="edge11" class="edge">
<title>Node6&#45;&gt;Node11</title>
<path fill="none" stroke="#191970" d="M403.6234,-57.5342C434.2716,-48.4716 488.2967,-32.4964 525.5767,-21.4728"/>
<polygon fill="#191970" stroke="#191970" points="527.0171,-24.6967 535.6142,-18.5047 525.0321,-17.984 527.0171,-24.6967"/>
</g>
</g>
</svg>
        <g id="navigator" transform="translate(0 0)" fill="#404254">
                <rect fill="#f2f5e9" fill-opacity="0.5" stroke="#606060" stroke-width=".5" x="0" y="0" width="60" height="60"/>
                <use id="zoomplus" xlink:href="#zoomPlus" x="17" y="9" onmousedown="handleZoom(evt,'in')"/>
                <use id="zoomminus" xlink:href="#zoomMin" x="42" y="9" onmousedown="handleZoom(evt,'out')"/>
                <use id="reset" xlink:href="#resetDef" x="30" y="36" onmousedown="handleReset()"/>
                <g id="arrowUp" xlink:href="#dirArrow" transform="translate(30 24)" onmousedown="handlePan(0,-1)">
                  <use xlink:href="#rim" fill="#404040">
                        <set attributeName="fill" to="#808080" begin="arrowUp.mouseover" end="arrowUp.mouseout"/>
                  </use>
                  <path fill="none" stroke="white" stroke-width="1.5" d="M0,-3.0v7 M-2.5,-0.5L0,-3.0L2.5,-0.5"/>
                </g>
                <g id="arrowRight" xlink:href="#dirArrow" transform="rotate(90) translate(36 -43)" onmousedown="handlePan(1,0)">
                  <use xlink:href="#rim" fill="#404040">
                        <set attributeName="fill" to="#808080" begin="arrowRight.mouseover" end="arrowRight.mouseout"/>
                  </use>
                  <path fill="none" stroke="white" stroke-width="1.5" d="M0,-3.0v7 M-2.5,-0.5L0,-3.0L2.5,-0.5"/>
                </g>
                <g id="arrowDown" xlink:href="#dirArrow" transform="rotate(180) translate(-30 -48)" onmousedown="handlePan(0,1)">
                  <use xlink:href="#rim" fill="#404040">
                        <set attributeName="fill" to="#808080" begin="arrowDown.mouseover" end="arrowDown.mouseout"/>
                  </use>
                  <path fill="none" stroke="white" stroke-width="1.5" d="M0,-3.0v7 M-2.5,-0.5L0,-3.0L2.5,-0.5"/>
                </g>
                <g id="arrowLeft" xlink:href="#dirArrow" transform="rotate(270) translate(-36 17)" onmousedown="handlePan(-1,0)">
                  <use xlink:href="#rim" fill="#404040">
                        <set attributeName="fill" to="#808080" begin="arrowLeft.mouseover" end="arrowLeft.mouseout"/>
                  </use>
                  <path fill="none" stroke="white" stroke-width="1.5" d="M0,-3.0v7 M-2.5,-0.5L0,-3.0L2.5,-0.5"/>
                </g>
        </g>
        <svg viewBox="0 0 15 15" width="100%" height="30px" preserveAspectRatio="xMaxYMin meet">
         <g id="arrow_out" transform="scale(0.3 0.3)">
          <a xlink:href="tty__wrap_8cc__incl_org.svg" target="_base">
           <rect id="button" ry="5" rx="5" y="6" x="6" height="38" width="38"
                fill="#f2f5e9" fill-opacity="0.5" stroke="#606060" stroke-width="1.0"/>
           <path id="arrow"
             d="M 11.500037,31.436501 C 11.940474,20.09759 22.043105,11.32322 32.158766,21.979434 L 37.068811,17.246167 C 37.068811,17.246167 37.088388,32 37.088388,32 L 22.160133,31.978069 C 22.160133,31.978069 26.997745,27.140456 26.997745,27.140456 C 18.528582,18.264221 13.291696,25.230495 11.500037,31.436501 z"
             style="fill:#404040;"/>
          </a>
         </g>
        </svg>
</svg>
