<?xml version="1.0" encoding="UTF-8" standalone="no"?>
<!DOCTYPE svg PUBLIC "-//W3C//DTD SVG 1.1//EN"
 "http://www.w3.org/Graphics/SVG/1.1/DTD/svg11.dtd">
<!-- Generated by graphviz version 2.40.1 (20161225.0304)
 -->
<!-- Title: src/node_serdes.cc Pages: 1 -->
<svg width="499pt" height="192pt"
 viewBox="0.00 0.00 499.35 192.00" xmlns="http://www.w3.org/2000/svg" xmlns:xlink="http://www.w3.org/1999/xlink">
<g id="graph0" class="graph" transform="scale(1 1) rotate(0) translate(4 188)">
<title>src/node_serdes.cc</title>
<polygon fill="#ffffff" stroke="transparent" points="-4,4 -4,-188 495.3496,-188 495.3496,4 -4,4"/>
<!-- Node0 -->
<g id="node1" class="node">
<title>Node0</title>
<polygon fill="#bfbfbf" stroke="#000000" points="164.0962,-165.5 164.0962,-183.5 266.8052,-183.5 266.8052,-165.5 164.0962,-165.5"/>
<text text-anchor="middle" x="215.4507" y="-171.5" font-family="Helvetica,sans-Serif" font-size="10.00" fill="#000000">src/node_serdes.cc</text>
</g>
<!-- Node1 -->
<g id="node2" class="node">
<title>Node1</title>
<g id="a_node2"><a xlink:href="../../d1/d77/node_8h.html" target="_top" xlink:title="node.h">
<polygon fill="#ffffff" stroke="#000000" points="126.1577,-55.5 126.1577,-73.5 172.7437,-73.5 172.7437,-55.5 126.1577,-55.5"/>
<text text-anchor="middle" x="149.4507" y="-61.5" font-family="Helvetica,sans-Serif" font-size="10.00" fill="#000000">node.h</text>
</a>
</g>
</g>
<!-- Node0&#45;&gt;Node1 -->
<g id="edge1" class="edge">
<title>Node0&#45;&gt;Node1</title>
<path fill="none" stroke="#191970" d="M202.9065,-165.3865C192.2798,-157.0414 177.3858,-143.7702 168.4507,-129 160.0482,-115.1101 155.1678,-97.2779 152.4625,-83.885"/>
<polygon fill="#191970" stroke="#191970" points="155.8763,-83.0917 150.672,-73.8631 148.9854,-84.3228 155.8763,-83.0917"/>
</g>
<!-- Node2 -->
<g id="node3" class="node">
<title>Node2</title>
<polygon fill="#ffffff" stroke="#bfbfbf" points="0,-.5 0,-18.5 34.9014,-18.5 34.9014,-.5 0,-.5"/>
<text text-anchor="middle" x="17.4507" y="-6.5" font-family="Helvetica,sans-Serif" font-size="10.00" fill="#000000">v8.h</text>
</g>
<!-- Node0&#45;&gt;Node2 -->
<g id="edge14" class="edge">
<title>Node0&#45;&gt;Node2</title>
<path fill="none" stroke="#191970" d="M163.9034,-167.7589C117.3037,-160.5747 53.4729,-147.6508 36.4507,-129 11.4088,-101.5623 11.8967,-55.0121 14.5934,-28.8448"/>
<polygon fill="#191970" stroke="#191970" points="18.0946,-29.0515 15.8601,-18.695 11.1485,-28.1845 18.0946,-29.0515"/>
</g>
<!-- Node7 -->
<g id="node8" class="node">
<title>Node7</title>
<g id="a_node8"><a xlink:href="../../d8/d1c/node__buffer_8h.html" target="_top" xlink:title="node_buffer.h">
<polygon fill="#ffffff" stroke="#000000" points="44.9526,-110.5 44.9526,-128.5 121.9487,-128.5 121.9487,-110.5 44.9526,-110.5"/>
<text text-anchor="middle" x="83.4507" y="-116.5" font-family="Helvetica,sans-Serif" font-size="10.00" fill="#000000">node_buffer.h</text>
</a>
</g>
</g>
<!-- Node0&#45;&gt;Node7 -->
<g id="edge7" class="edge">
<title>Node0&#45;&gt;Node7</title>
<path fill="none" stroke="#191970" d="M193.6536,-165.4179C172.1577,-156.4613 139.0842,-142.6806 114.7755,-132.552"/>
<polygon fill="#191970" stroke="#191970" points="115.8571,-129.2111 105.2802,-128.5956 113.1648,-135.6726 115.8571,-129.2111"/>
</g>
<!-- Node8 -->
<g id="node9" class="node">
<title>Node8</title>
<g id="a_node9"><a xlink:href="../../de/da6/base-object_8h.html" target="_top" xlink:title="base&#45;object.h">
<polygon fill="#ffffff" stroke="#000000" points="177.4312,-110.5 177.4312,-128.5 253.4702,-128.5 253.4702,-110.5 177.4312,-110.5"/>
<text text-anchor="middle" x="215.4507" y="-116.5" font-family="Helvetica,sans-Serif" font-size="10.00" fill="#000000">base&#45;object.h</text>
</a>
</g>
</g>
<!-- Node0&#45;&gt;Node8 -->
<g id="edge10" class="edge">
<title>Node0&#45;&gt;Node8</title>
<path fill="none" stroke="#191970" d="M215.4507,-165.4179C215.4507,-158.2164 215.4507,-147.8962 215.4507,-138.8632"/>
<polygon fill="#191970" stroke="#191970" points="218.9508,-138.7794 215.4507,-128.7795 211.9508,-138.7795 218.9508,-138.7794"/>
</g>
<!-- Node9 -->
<g id="node10" class="node">
<title>Node9</title>
<g id="a_node10"><a xlink:href="../../d2/dc1/base-object-inl_8h.html" target="_top" xlink:title="base&#45;object&#45;inl.h">
<polygon fill="#ffffff" stroke="#000000" points="271.7637,-110.5 271.7637,-128.5 361.1377,-128.5 361.1377,-110.5 271.7637,-110.5"/>
<text text-anchor="middle" x="316.4507" y="-116.5" font-family="Helvetica,sans-Serif" font-size="10.00" fill="#000000">base&#45;object&#45;inl.h</text>
</a>
</g>
</g>
<!-- Node0&#45;&gt;Node9 -->
<g id="edge11" class="edge">
<title>Node0&#45;&gt;Node9</title>
<path fill="none" stroke="#191970" d="M232.1288,-165.4179C248.0646,-156.7399 272.3165,-143.5334 290.7275,-133.5077"/>
<polygon fill="#191970" stroke="#191970" points="292.6394,-136.4519 299.7478,-128.5956 289.2917,-130.3043 292.6394,-136.4519"/>
</g>
<!-- Node10 -->
<g id="node11" class="node">
<title>Node10</title>
<g id="a_node11"><a xlink:href="../../d5/d81/env_8h.html" target="_top" xlink:title="env.h">
<polygon fill="#ffffff" stroke="#000000" points="379.5879,-110.5 379.5879,-128.5 419.3135,-128.5 419.3135,-110.5 379.5879,-110.5"/>
<text text-anchor="middle" x="399.4507" y="-116.5" font-family="Helvetica,sans-Serif" font-size="10.00" fill="#000000">env.h</text>
</a>
</g>
</g>
<!-- Node0&#45;&gt;Node10 -->
<g id="edge12" class="edge">
<title>Node0&#45;&gt;Node10</title>
<path fill="none" stroke="#191970" d="M247.3011,-165.4633C276.7347,-157.0432 321.9055,-143.9477 369.88,-129.1123"/>
<polygon fill="#191970" stroke="#191970" points="370.996,-132.4307 379.5085,-126.1229 368.9204,-125.7455 370.996,-132.4307"/>
</g>
<!-- Node11 -->
<g id="node12" class="node">
<title>Node11</title>
<g id="a_node12"><a xlink:href="../../d9/d50/env-inl_8h.html" target="_top" xlink:title="env&#45;inl.h">
<polygon fill="#ffffff" stroke="#000000" points="437.5518,-110.5 437.5518,-128.5 491.3496,-128.5 491.3496,-110.5 437.5518,-110.5"/>
<text text-anchor="middle" x="464.4507" y="-116.5" font-family="Helvetica,sans-Serif" font-size="10.00" fill="#000000">env&#45;inl.h</text>
</a>
</g>
</g>
<!-- Node0&#45;&gt;Node11 -->
<g id="edge13" class="edge">
<title>Node0&#45;&gt;Node11</title>
<path fill="none" stroke="#191970" d="M260.8821,-165.4472C301.992,-157.1091 364.4227,-144.0844 427.6224,-129.1169"/>
<polygon fill="#191970" stroke="#191970" points="428.4423,-132.5196 437.3587,-126.7969 426.8197,-125.7103 428.4423,-132.5196"/>
</g>
<!-- Node1&#45;&gt;Node2 -->
<g id="edge2" class="edge">
<title>Node1&#45;&gt;Node2</title>
<path fill="none" stroke="#191970" d="M127.6536,-55.4179C104.8706,-45.9249 69.0818,-31.013 44.5073,-20.7736"/>
<polygon fill="#191970" stroke="#191970" points="45.6287,-17.4492 35.0518,-16.8338 42.9364,-23.9108 45.6287,-17.4492"/>
</g>
<!-- Node3 -->
<g id="node4" class="node">
<title>Node3</title>
<g id="a_node4"><a xlink:href="../../da/d9c/node__version_8h.html" target="_top" xlink:title="node_version.h">
<polygon fill="#ffffff" stroke="#000000" points="53.2588,-.5 53.2588,-18.5 137.6426,-18.5 137.6426,-.5 53.2588,-.5"/>
<text text-anchor="middle" x="95.4507" y="-6.5" font-family="Helvetica,sans-Serif" font-size="10.00" fill="#000000">node_version.h</text>
</a>
</g>
</g>
<!-- Node1&#45;&gt;Node3 -->
<g id="edge3" class="edge">
<title>Node1&#45;&gt;Node3</title>
<path fill="none" stroke="#191970" d="M140.5337,-55.4179C132.6861,-47.425 121.0667,-35.5903 111.5896,-25.9377"/>
<polygon fill="#191970" stroke="#191970" points="114.0648,-23.463 104.5614,-18.7795 109.0699,-28.3672 114.0648,-23.463"/>
</g>
<!-- Node4 -->
<g id="node5" class="node">
<title>Node4</title>
<polygon fill="#ffffff" stroke="#bfbfbf" points="155.665,-.5 155.665,-18.5 207.2363,-18.5 207.2363,-.5 155.665,-.5"/>
<text text-anchor="middle" x="181.4507" y="-6.5" font-family="Helvetica,sans-Serif" font-size="10.00" fill="#000000">assert.h</text>
</g>
<!-- Node1&#45;&gt;Node4 -->
<g id="edge4" class="edge">
<title>Node1&#45;&gt;Node4</title>
<path fill="none" stroke="#191970" d="M154.7348,-55.4179C159.109,-47.8998 165.4606,-36.9829 170.8733,-27.6799"/>
<polygon fill="#191970" stroke="#191970" points="174.048,-29.1831 176.0517,-18.7795 167.9975,-25.6628 174.048,-29.1831"/>
</g>
<!-- Node5 -->
<g id="node6" class="node">
<title>Node5</title>
<polygon fill="#ffffff" stroke="#bfbfbf" points="225.3301,-.5 225.3301,-18.5 273.5713,-18.5 273.5713,-.5 225.3301,-.5"/>
<text text-anchor="middle" x="249.4507" y="-6.5" font-family="Helvetica,sans-Serif" font-size="10.00" fill="#000000">stdint.h</text>
</g>
<!-- Node1&#45;&gt;Node5 -->
<g id="edge5" class="edge">
<title>Node1&#45;&gt;Node5</title>
<path fill="none" stroke="#191970" d="M165.9636,-55.4179C181.7417,-46.7399 205.7535,-33.5334 223.9822,-23.5077"/>
<polygon fill="#191970" stroke="#191970" points="225.8377,-26.4816 232.9132,-18.5956 222.4643,-20.3481 225.8377,-26.4816"/>
</g>
<!-- Node6 -->
<g id="node7" class="node">
<title>Node6</title>
<polygon fill="#ffffff" stroke="#bfbfbf" points="291.4409,-.5 291.4409,-18.5 357.4604,-18.5 357.4604,-.5 291.4409,-.5"/>
<text text-anchor="middle" x="324.4507" y="-6.5" font-family="Helvetica,sans-Serif" font-size="10.00" fill="#000000">sys/types.h</text>
</g>
<!-- Node1&#45;&gt;Node6 -->
<g id="edge6" class="edge">
<title>Node1&#45;&gt;Node6</title>
<path fill="none" stroke="#191970" d="M173.052,-57.0825C202.0076,-47.9821 251.4905,-32.4304 285.9744,-21.5925"/>
<polygon fill="#191970" stroke="#191970" points="287.2233,-24.8689 295.7138,-18.5316 285.1244,-18.191 287.2233,-24.8689"/>
</g>
<!-- Node7&#45;&gt;Node1 -->
<g id="edge8" class="edge">
<title>Node7&#45;&gt;Node1</title>
<path fill="none" stroke="#191970" d="M94.3492,-110.4179C104.1306,-102.2667 118.7065,-90.1201 130.4104,-80.3669"/>
<polygon fill="#191970" stroke="#191970" points="132.8738,-82.8701 138.3153,-73.7795 128.3924,-77.4926 132.8738,-82.8701"/>
</g>
<!-- Node7&#45;&gt;Node2 -->
<g id="edge9" class="edge">
<title>Node7&#45;&gt;Node2</title>
<path fill="none" stroke="#191970" d="M78.0496,-110.4982C67.1721,-92.369 42.4495,-51.1647 28.1702,-27.3659"/>
<polygon fill="#191970" stroke="#191970" points="31.0726,-25.4003 22.9264,-18.6261 25.0701,-29.0018 31.0726,-25.4003"/>
</g>
</g>
</svg>
