<?xml version="1.0" encoding="UTF-8" standalone="no"?>
<!DOCTYPE svg PUBLIC "-//W3C//DTD SVG 1.1//EN"
 "http://www.w3.org/Graphics/SVG/1.1/DTD/svg11.dtd">
<!-- Generated by graphviz version 2.40.1 (20161225.0304)
 -->
<!-- Title: src/node_win32_perfctr_provider.cc Pages: 1 -->
<svg width="430pt" height="102pt"
 viewBox="0.00 0.00 430.07 102.00" xmlns="http://www.w3.org/2000/svg" xmlns:xlink="http://www.w3.org/1999/xlink">
<g id="graph0" class="graph" transform="scale(1 1) rotate(0) translate(4 98)">
<title>src/node_win32_perfctr_provider.cc</title>
<polygon fill="#ffffff" stroke="transparent" points="-4,4 -4,-98 426.0659,-98 426.0659,4 -4,4"/>
<!-- Node0 -->
<g id="node1" class="node">
<title>Node0</title>
<polygon fill="#bfbfbf" stroke="#000000" points="148.2783,-65.5 148.2783,-93.5 268.2236,-93.5 268.2236,-65.5 148.2783,-65.5"/>
<text text-anchor="start" x="156.2783" y="-81.5" font-family="Helvetica,sans-Serif" font-size="10.00" fill="#000000">src/node_win32_perfctr</text>
<text text-anchor="middle" x="208.251" y="-71.5" font-family="Helvetica,sans-Serif" font-size="10.00" fill="#000000">_provider.cc</text>
</g>
<!-- Node1 -->
<g id="node2" class="node">
<title>Node1</title>
<g id="a_node2"><a xlink:href="../../d6/d92/node__counters_8h.html" target="_top" xlink:title="node_counters.h">
<polygon fill="#ffffff" stroke="#000000" points="0,-5.5 0,-23.5 90.502,-23.5 90.502,-5.5 0,-5.5"/>
<text text-anchor="middle" x="45.251" y="-11.5" font-family="Helvetica,sans-Serif" font-size="10.00" fill="#000000">node_counters.h</text>
</a>
</g>
</g>
<!-- Node0&#45;&gt;Node1 -->
<g id="edge1" class="edge">
<title>Node0&#45;&gt;Node1</title>
<path fill="none" stroke="#191970" d="M172.8824,-65.396C144.5294,-54.0896 105.0699,-38.3542 77.5589,-27.3835"/>
<polygon fill="#191970" stroke="#191970" points="78.5917,-24.0274 68.0065,-23.5743 75.9988,-30.5295 78.5917,-24.0274"/>
</g>
<!-- Node2 -->
<g id="node3" class="node">
<title>Node2</title>
<g id="a_node3"><a xlink:href="../../d2/d05/node__win32__perfctr__provider_8h.html" target="_top" xlink:title="node_win32_perfctr\l_provider.h">
<polygon fill="#ffffff" stroke="#000000" points="108.3325,-.5 108.3325,-28.5 212.1694,-28.5 212.1694,-.5 108.3325,-.5"/>
<text text-anchor="start" x="116.3325" y="-16.5" font-family="Helvetica,sans-Serif" font-size="10.00" fill="#000000">node_win32_perfctr</text>
<text text-anchor="middle" x="160.251" y="-6.5" font-family="Helvetica,sans-Serif" font-size="10.00" fill="#000000">_provider.h</text>
</a>
</g>
</g>
<!-- Node0&#45;&gt;Node2 -->
<g id="edge2" class="edge">
<title>Node0&#45;&gt;Node2</title>
<path fill="none" stroke="#191970" d="M197.8357,-65.396C191.6715,-57.0486 183.7246,-46.2871 176.727,-36.8113"/>
<polygon fill="#191970" stroke="#191970" points="179.4019,-34.5417 170.6459,-28.5765 173.7709,-38.7 179.4019,-34.5417"/>
</g>
<!-- Node3 -->
<g id="node4" class="node">
<title>Node3</title>
<polygon fill="#ffffff" stroke="#bfbfbf" points="230.4629,-5.5 230.4629,-23.5 282.0391,-23.5 282.0391,-5.5 230.4629,-5.5"/>
<text text-anchor="middle" x="256.251" y="-11.5" font-family="Helvetica,sans-Serif" font-size="10.00" fill="#000000">perflib.h</text>
</g>
<!-- Node0&#45;&gt;Node3 -->
<g id="edge3" class="edge">
<title>Node0&#45;&gt;Node3</title>
<path fill="none" stroke="#191970" d="M218.6663,-65.396C225.9902,-55.4781 235.8309,-42.1522 243.6056,-31.6239"/>
<polygon fill="#191970" stroke="#191970" points="246.425,-33.6978 249.55,-23.5743 240.794,-29.5395 246.425,-33.6978"/>
</g>
<!-- Node4 -->
<g id="node5" class="node">
<title>Node4</title>
<polygon fill="#ffffff" stroke="#bfbfbf" points="300.436,-5.5 300.436,-23.5 422.0659,-23.5 422.0659,-5.5 300.436,-5.5"/>
<text text-anchor="middle" x="361.251" y="-11.5" font-family="Helvetica,sans-Serif" font-size="10.00" fill="#000000">node_perfctr_provider.h</text>
</g>
<!-- Node0&#45;&gt;Node4 -->
<g id="edge4" class="edge">
<title>Node0&#45;&gt;Node4</title>
<path fill="none" stroke="#191970" d="M241.4497,-65.396C267.9465,-54.1392 304.7772,-38.4921 330.5847,-27.5281"/>
<polygon fill="#191970" stroke="#191970" points="332.0562,-30.7058 339.8915,-23.5743 329.319,-24.2631 332.0562,-30.7058"/>
</g>
</g>
</svg>
