<?xml version="1.0" encoding="UTF-8" standalone="no"?>
<!DOCTYPE svg PUBLIC "-//W3C//DTD SVG 1.1//EN"
 "http://www.w3.org/Graphics/SVG/1.1/DTD/svg11.dtd">
<!-- Generated by graphviz version 2.40.1 (20161225.0304)
 -->
<!-- Title: src/fs_event_wrap.cc Pages: 1 -->
<svg width="770pt" height="137pt"
 viewBox="0.00 0.00 769.58 137.00" xmlns="http://www.w3.org/2000/svg" xmlns:xlink="http://www.w3.org/1999/xlink">
<g id="graph0" class="graph" transform="scale(1 1) rotate(0) translate(4 133)">
<title>src/fs_event_wrap.cc</title>
<polygon fill="#ffffff" stroke="transparent" points="-4,4 -4,-133 765.5762,-133 765.5762,4 -4,4"/>
<!-- Node0 -->
<g id="node1" class="node">
<title>Node0</title>
<polygon fill="#bfbfbf" stroke="#000000" points="323.771,-110.5 323.771,-128.5 433.6968,-128.5 433.6968,-110.5 323.771,-110.5"/>
<text text-anchor="middle" x="378.7339" y="-116.5" font-family="Helvetica,sans-Serif" font-size="10.00" fill="#000000">src/fs_event_wrap.cc</text>
</g>
<!-- Node1 -->
<g id="node2" class="node">
<title>Node1</title>
<g id="a_node2"><a xlink:href="../../d4/d56/async-wrap_8h.html" target="_top" xlink:title="async&#45;wrap.h">
<polygon fill="#ffffff" stroke="#000000" points="0,-55.5 0,-73.5 75.4678,-73.5 75.4678,-55.5 0,-55.5"/>
<text text-anchor="middle" x="37.7339" y="-61.5" font-family="Helvetica,sans-Serif" font-size="10.00" fill="#000000">async&#45;wrap.h</text>
</a>
</g>
</g>
<!-- Node0&#45;&gt;Node1 -->
<g id="edge1" class="edge">
<title>Node0&#45;&gt;Node1</title>
<path fill="none" stroke="#191970" d="M323.6104,-111.74C266.5767,-103.5376 174.6804,-89.839 85.6668,-74.1017"/>
<polygon fill="#191970" stroke="#191970" points="86.1287,-70.629 75.6702,-72.3234 84.9027,-77.5208 86.1287,-70.629"/>
</g>
<!-- Node2 -->
<g id="node3" class="node">
<title>Node2</title>
<g id="a_node3"><a xlink:href="../../d5/d30/async-wrap-inl_8h.html" target="_top" xlink:title="async&#45;wrap&#45;inl.h">
<polygon fill="#ffffff" stroke="#000000" points="93.3325,-55.5 93.3325,-73.5 182.1353,-73.5 182.1353,-55.5 93.3325,-55.5"/>
<text text-anchor="middle" x="137.7339" y="-61.5" font-family="Helvetica,sans-Serif" font-size="10.00" fill="#000000">async&#45;wrap&#45;inl.h</text>
</a>
</g>
</g>
<!-- Node0&#45;&gt;Node2 -->
<g id="edge2" class="edge">
<title>Node0&#45;&gt;Node2</title>
<path fill="none" stroke="#191970" d="M339.2075,-110.4795C297.618,-100.9881 232.0766,-86.0305 187.1116,-75.7688"/>
<polygon fill="#191970" stroke="#191970" points="187.81,-72.3382 177.2819,-73.5255 186.2524,-79.1628 187.81,-72.3382"/>
</g>
<!-- Node3 -->
<g id="node4" class="node">
<title>Node3</title>
<g id="a_node4"><a xlink:href="../../d5/d81/env_8h.html" target="_top" xlink:title="env.h">
<polygon fill="#ffffff" stroke="#000000" points="199.8711,-55.5 199.8711,-73.5 239.5967,-73.5 239.5967,-55.5 199.8711,-55.5"/>
<text text-anchor="middle" x="219.7339" y="-61.5" font-family="Helvetica,sans-Serif" font-size="10.00" fill="#000000">env.h</text>
</a>
</g>
</g>
<!-- Node0&#45;&gt;Node3 -->
<g id="edge3" class="edge">
<title>Node0&#45;&gt;Node3</title>
<path fill="none" stroke="#191970" d="M352.4783,-110.4179C324.2316,-100.647 279.3882,-85.1351 249.7603,-74.8865"/>
<polygon fill="#191970" stroke="#191970" points="250.5619,-71.4604 239.9672,-71.4989 248.2736,-78.0758 250.5619,-71.4604"/>
</g>
<!-- Node4 -->
<g id="node5" class="node">
<title>Node4</title>
<g id="a_node5"><a xlink:href="../../d9/d50/env-inl_8h.html" target="_top" xlink:title="env&#45;inl.h">
<polygon fill="#ffffff" stroke="#000000" points="257.835,-55.5 257.835,-73.5 311.6328,-73.5 311.6328,-55.5 257.835,-55.5"/>
<text text-anchor="middle" x="284.7339" y="-61.5" font-family="Helvetica,sans-Serif" font-size="10.00" fill="#000000">env&#45;inl.h</text>
</a>
</g>
</g>
<!-- Node0&#45;&gt;Node4 -->
<g id="edge4" class="edge">
<title>Node0&#45;&gt;Node4</title>
<path fill="none" stroke="#191970" d="M363.2117,-110.4179C348.5164,-101.8195 326.2227,-88.7754 309.1473,-78.7844"/>
<polygon fill="#191970" stroke="#191970" points="310.6778,-75.6249 300.2791,-73.5956 307.1427,-81.6667 310.6778,-75.6249"/>
</g>
<!-- Node5 -->
<g id="node6" class="node">
<title>Node5</title>
<g id="a_node6"><a xlink:href="../../d8/d3c/util_8h.html" target="_top" xlink:title="util.h">
<polygon fill="#ffffff" stroke="#000000" points="329.1724,-55.5 329.1724,-73.5 366.2954,-73.5 366.2954,-55.5 329.1724,-55.5"/>
<text text-anchor="middle" x="347.7339" y="-61.5" font-family="Helvetica,sans-Serif" font-size="10.00" fill="#000000">util.h</text>
</a>
</g>
</g>
<!-- Node0&#45;&gt;Node5 -->
<g id="edge5" class="edge">
<title>Node0&#45;&gt;Node5</title>
<path fill="none" stroke="#191970" d="M373.6149,-110.4179C369.3774,-102.8998 363.2242,-91.9829 357.9807,-82.6799"/>
<polygon fill="#191970" stroke="#191970" points="360.9233,-80.7724 352.9641,-73.7795 354.8253,-84.2096 360.9233,-80.7724"/>
</g>
<!-- Node6 -->
<g id="node7" class="node">
<title>Node6</title>
<g id="a_node7"><a xlink:href="../../d5/d8c/util-inl_8h.html" target="_top" xlink:title="util&#45;inl.h">
<polygon fill="#ffffff" stroke="#000000" points="384.5049,-55.5 384.5049,-73.5 434.9629,-73.5 434.9629,-55.5 384.5049,-55.5"/>
<text text-anchor="middle" x="409.7339" y="-61.5" font-family="Helvetica,sans-Serif" font-size="10.00" fill="#000000">util&#45;inl.h</text>
</a>
</g>
</g>
<!-- Node0&#45;&gt;Node6 -->
<g id="edge6" class="edge">
<title>Node0&#45;&gt;Node6</title>
<path fill="none" stroke="#191970" d="M383.8529,-110.4179C388.0904,-102.8998 394.2435,-91.9829 399.4871,-82.6799"/>
<polygon fill="#191970" stroke="#191970" points="402.6425,-84.2096 404.5036,-73.7795 396.5444,-80.7724 402.6425,-84.2096"/>
</g>
<!-- Node7 -->
<g id="node8" class="node">
<title>Node7</title>
<g id="a_node8"><a xlink:href="../../d1/d77/node_8h.html" target="_top" xlink:title="node.h">
<polygon fill="#ffffff" stroke="#000000" points="453.4409,-55.5 453.4409,-73.5 500.0269,-73.5 500.0269,-55.5 453.4409,-55.5"/>
<text text-anchor="middle" x="476.7339" y="-61.5" font-family="Helvetica,sans-Serif" font-size="10.00" fill="#000000">node.h</text>
</a>
</g>
</g>
<!-- Node0&#45;&gt;Node7 -->
<g id="edge7" class="edge">
<title>Node0&#45;&gt;Node7</title>
<path fill="none" stroke="#191970" d="M394.9166,-110.4179C410.3791,-101.7399 433.9107,-88.5334 451.7747,-78.5077"/>
<polygon fill="#191970" stroke="#191970" points="453.5196,-81.542 460.5271,-73.5956 450.0936,-75.4377 453.5196,-81.542"/>
</g>
<!-- Node13 -->
<g id="node14" class="node">
<title>Node13</title>
<g id="a_node14"><a xlink:href="../../da/db4/handle__wrap_8h.html" target="_top" xlink:title="handle_wrap.h">
<polygon fill="#ffffff" stroke="#000000" points="517.9312,-55.5 517.9312,-73.5 599.5366,-73.5 599.5366,-55.5 517.9312,-55.5"/>
<text text-anchor="middle" x="558.7339" y="-61.5" font-family="Helvetica,sans-Serif" font-size="10.00" fill="#000000">handle_wrap.h</text>
</a>
</g>
</g>
<!-- Node0&#45;&gt;Node13 -->
<g id="edge13" class="edge">
<title>Node0&#45;&gt;Node13</title>
<path fill="none" stroke="#191970" d="M408.4572,-110.4179C438.7722,-101.155 485.9731,-86.7325 519.3761,-76.526"/>
<polygon fill="#191970" stroke="#191970" points="520.7248,-79.7737 529.2656,-73.5042 518.6793,-73.0792 520.7248,-79.7737"/>
</g>
<!-- Node14 -->
<g id="node15" class="node">
<title>Node14</title>
<g id="a_node15"><a xlink:href="../../d8/dbe/string__bytes_8h.html" target="_top" xlink:title="string_bytes.h">
<polygon fill="#ffffff" stroke="#000000" points="617.606,-55.5 617.606,-73.5 695.8618,-73.5 695.8618,-55.5 617.606,-55.5"/>
<text text-anchor="middle" x="656.7339" y="-61.5" font-family="Helvetica,sans-Serif" font-size="10.00" fill="#000000">string_bytes.h</text>
</a>
</g>
</g>
<!-- Node0&#45;&gt;Node14 -->
<g id="edge14" class="edge">
<title>Node0&#45;&gt;Node14</title>
<path fill="none" stroke="#191970" d="M424.3286,-110.4795C474.7282,-100.5083 555.6205,-84.5044 607.4519,-74.25"/>
<polygon fill="#191970" stroke="#191970" points="608.2825,-77.6536 617.4131,-72.2793 606.9239,-70.7867 608.2825,-77.6536"/>
</g>
<!-- Node15 -->
<g id="node16" class="node">
<title>Node15</title>
<polygon fill="#ffffff" stroke="#bfbfbf" points="713.8916,-55.5 713.8916,-73.5 761.5762,-73.5 761.5762,-55.5 713.8916,-55.5"/>
<text text-anchor="middle" x="737.7339" y="-61.5" font-family="Helvetica,sans-Serif" font-size="10.00" fill="#000000">stdlib.h</text>
</g>
<!-- Node0&#45;&gt;Node15 -->
<g id="edge15" class="edge">
<title>Node0&#45;&gt;Node15</title>
<path fill="none" stroke="#191970" d="M433.9445,-114.2051C497.0156,-107.6199 603.4142,-94.8798 703.6877,-73.9666"/>
<polygon fill="#191970" stroke="#191970" points="704.6247,-77.3459 713.6827,-71.8502 703.1746,-70.4977 704.6247,-77.3459"/>
</g>
<!-- Node8 -->
<g id="node9" class="node">
<title>Node8</title>
<polygon fill="#ffffff" stroke="#bfbfbf" points="295.2832,-.5 295.2832,-18.5 330.1846,-18.5 330.1846,-.5 295.2832,-.5"/>
<text text-anchor="middle" x="312.7339" y="-6.5" font-family="Helvetica,sans-Serif" font-size="10.00" fill="#000000">v8.h</text>
</g>
<!-- Node7&#45;&gt;Node8 -->
<g id="edge8" class="edge">
<title>Node7&#45;&gt;Node8</title>
<path fill="none" stroke="#191970" d="M453.4208,-56.8963C427.8839,-48.5371 385.4942,-34.5739 339.9014,-19.0161"/>
<polygon fill="#191970" stroke="#191970" points="341.0317,-15.7036 330.4371,-15.7792 338.7664,-22.327 341.0317,-15.7036"/>
</g>
<!-- Node9 -->
<g id="node10" class="node">
<title>Node9</title>
<g id="a_node10"><a xlink:href="../../da/d9c/node__version_8h.html" target="_top" xlink:title="node_version.h">
<polygon fill="#ffffff" stroke="#000000" points="348.542,-.5 348.542,-18.5 432.9258,-18.5 432.9258,-.5 348.542,-.5"/>
<text text-anchor="middle" x="390.7339" y="-6.5" font-family="Helvetica,sans-Serif" font-size="10.00" fill="#000000">node_version.h</text>
</a>
</g>
</g>
<!-- Node7&#45;&gt;Node9 -->
<g id="edge9" class="edge">
<title>Node7&#45;&gt;Node9</title>
<path fill="none" stroke="#191970" d="M462.5327,-55.4179C449.2126,-46.8992 429.0689,-34.0166 413.5047,-24.0627"/>
<polygon fill="#191970" stroke="#191970" points="415.2664,-21.0348 404.9561,-18.5956 411.4949,-26.932 415.2664,-21.0348"/>
</g>
<!-- Node10 -->
<g id="node11" class="node">
<title>Node10</title>
<polygon fill="#ffffff" stroke="#bfbfbf" points="450.9482,-.5 450.9482,-18.5 502.5195,-18.5 502.5195,-.5 450.9482,-.5"/>
<text text-anchor="middle" x="476.7339" y="-6.5" font-family="Helvetica,sans-Serif" font-size="10.00" fill="#000000">assert.h</text>
</g>
<!-- Node7&#45;&gt;Node10 -->
<g id="edge10" class="edge">
<title>Node7&#45;&gt;Node10</title>
<path fill="none" stroke="#191970" d="M476.7339,-55.4179C476.7339,-48.2164 476.7339,-37.8962 476.7339,-28.8632"/>
<polygon fill="#191970" stroke="#191970" points="480.234,-28.7794 476.7339,-18.7795 473.234,-28.7795 480.234,-28.7794"/>
</g>
<!-- Node11 -->
<g id="node12" class="node">
<title>Node11</title>
<polygon fill="#ffffff" stroke="#bfbfbf" points="520.6133,-.5 520.6133,-18.5 568.8545,-18.5 568.8545,-.5 520.6133,-.5"/>
<text text-anchor="middle" x="544.7339" y="-6.5" font-family="Helvetica,sans-Serif" font-size="10.00" fill="#000000">stdint.h</text>
</g>
<!-- Node7&#45;&gt;Node11 -->
<g id="edge11" class="edge">
<title>Node7&#45;&gt;Node11</title>
<path fill="none" stroke="#191970" d="M487.9627,-55.4179C498.1383,-47.1876 513.3502,-34.8839 525.467,-25.0836"/>
<polygon fill="#191970" stroke="#191970" points="527.687,-27.7895 533.2611,-18.7795 523.2849,-22.3469 527.687,-27.7895"/>
</g>
<!-- Node12 -->
<g id="node13" class="node">
<title>Node12</title>
<polygon fill="#ffffff" stroke="#bfbfbf" points="586.7241,-.5 586.7241,-18.5 652.7437,-18.5 652.7437,-.5 586.7241,-.5"/>
<text text-anchor="middle" x="619.7339" y="-6.5" font-family="Helvetica,sans-Serif" font-size="10.00" fill="#000000">sys/types.h</text>
</g>
<!-- Node7&#45;&gt;Node12 -->
<g id="edge12" class="edge">
<title>Node7&#45;&gt;Node12</title>
<path fill="none" stroke="#191970" d="M500.0276,-55.5409C523.4666,-46.5259 559.8429,-32.535 586.3467,-22.3412"/>
<polygon fill="#191970" stroke="#191970" points="587.8966,-25.4951 595.9736,-18.6386 585.3837,-18.9617 587.8966,-25.4951"/>
</g>
</g>
</svg>
