<?xml version="1.0" encoding="UTF-8" standalone="no"?>
<!DOCTYPE svg PUBLIC "-//W3C//DTD SVG 1.1//EN"
 "http://www.w3.org/Graphics/SVG/1.1/DTD/svg11.dtd">
<!-- Generated by graphviz version 2.40.1 (20161225.0304)
 -->
<!-- Title: src/node_i18n.h Pages: 1 -->
<svg width="319pt" height="82pt"
 viewBox="0.00 0.00 318.59 82.00" xmlns="http://www.w3.org/2000/svg" xmlns:xlink="http://www.w3.org/1999/xlink">
<g id="graph0" class="graph" transform="scale(1 1) rotate(0) translate(4 78)">
<title>src/node_i18n.h</title>
<polygon fill="#ffffff" stroke="transparent" points="-4,4 -4,-78 314.5933,-78 314.5933,4 -4,4"/>
<!-- Node1 -->
<g id="node1" class="node">
<title>Node1</title>
<polygon fill="#bfbfbf" stroke="#000000" points="119.1084,-55.5 119.1084,-73.5 206.2705,-73.5 206.2705,-55.5 119.1084,-55.5"/>
<text text-anchor="middle" x="162.6895" y="-61.5" font-family="Helvetica,sans-Serif" font-size="10.00" fill="#000000">src/node_i18n.h</text>
</g>
<!-- Node2 -->
<g id="node2" class="node">
<title>Node2</title>
<g id="a_node2"><a xlink:href="../../d1/d72/node__config_8cc.html" target="_top" xlink:title="src/node_config.cc">
<polygon fill="#ffffff" stroke="#000000" points="0,-.5 0,-18.5 99.3789,-18.5 99.3789,-.5 0,-.5"/>
<text text-anchor="middle" x="49.6895" y="-6.5" font-family="Helvetica,sans-Serif" font-size="10.00" fill="#000000">src/node_config.cc</text>
</a>
</g>
</g>
<!-- Node1&#45;&gt;Node2 -->
<g id="edge1" class="edge">
<title>Node1&#45;&gt;Node2</title>
<path fill="none" stroke="#191970" d="M134.7884,-50.9198C114.099,-40.8498 86.4612,-27.3977 68.3768,-18.5956"/>
<polygon fill="#191970" stroke="#191970" points="133.5065,-54.1884 144.0298,-55.4179 136.57,-47.8944 133.5065,-54.1884"/>
</g>
<!-- Node3 -->
<g id="node3" class="node">
<title>Node3</title>
<g id="a_node3"><a xlink:href="../../db/daf/node__i18n_8cc.html" target="_top" xlink:title="src/node_i18n.cc">
<polygon fill="#ffffff" stroke="#000000" points="116.8892,-.5 116.8892,-18.5 208.4897,-18.5 208.4897,-.5 116.8892,-.5"/>
<text text-anchor="middle" x="162.6895" y="-6.5" font-family="Helvetica,sans-Serif" font-size="10.00" fill="#000000">src/node_i18n.cc</text>
</a>
</g>
</g>
<!-- Node1&#45;&gt;Node3 -->
<g id="edge2" class="edge">
<title>Node1&#45;&gt;Node3</title>
<path fill="none" stroke="#191970" d="M162.6895,-45.383C162.6895,-36.3738 162.6895,-26.0373 162.6895,-18.7795"/>
<polygon fill="#191970" stroke="#191970" points="159.1896,-45.4178 162.6895,-55.4179 166.1896,-45.4179 159.1896,-45.4178"/>
</g>
<!-- Node4 -->
<g id="node4" class="node">
<title>Node4</title>
<g id="a_node4"><a xlink:href="../../df/dcb/node__url_8cc.html" target="_top" xlink:title="src/node_url.cc">
<polygon fill="#ffffff" stroke="#000000" points="226.7856,-.5 226.7856,-18.5 310.5933,-18.5 310.5933,-.5 226.7856,-.5"/>
<text text-anchor="middle" x="268.6895" y="-6.5" font-family="Helvetica,sans-Serif" font-size="10.00" fill="#000000">src/node_url.cc</text>
</a>
</g>
</g>
<!-- Node1&#45;&gt;Node4 -->
<g id="edge3" class="edge">
<title>Node1&#45;&gt;Node4</title>
<path fill="none" stroke="#191970" d="M189.126,-50.7829C208.5043,-40.7282 234.2724,-27.3579 251.1597,-18.5956"/>
<polygon fill="#191970" stroke="#191970" points="187.4575,-47.7055 180.1932,-55.4179 190.6815,-53.9189 187.4575,-47.7055"/>
</g>
</g>
</svg>
