<?xml version="1.0" encoding="UTF-8" standalone="no"?>
<!DOCTYPE svg PUBLIC "-//W3C//DTD SVG 1.1//EN"
 "http://www.w3.org/Graphics/SVG/1.1/DTD/svg11.dtd">
<!-- Generated by graphviz version 2.40.1 (20161225.0304)
 -->
<!-- Title: src/node_url.h Pages: 1 -->
<svg width="214pt" height="82pt"
 viewBox="0.00 0.00 214.36 82.00" xmlns="http://www.w3.org/2000/svg" xmlns:xlink="http://www.w3.org/1999/xlink">
<g id="graph0" class="graph" transform="scale(1 1) rotate(0) translate(4 78)">
<title>src/node_url.h</title>
<polygon fill="#ffffff" stroke="transparent" points="-4,4 -4,-78 210.3643,-78 210.3643,4 -4,4"/>
<!-- Node1 -->
<g id="node1" class="node">
<title>Node1</title>
<polygon fill="#bfbfbf" stroke="#000000" points="68.7759,-55.5 68.7759,-73.5 148.145,-73.5 148.145,-55.5 68.7759,-55.5"/>
<text text-anchor="middle" x="108.4604" y="-61.5" font-family="Helvetica,sans-Serif" font-size="10.00" fill="#000000">src/node_url.h</text>
</g>
<!-- Node2 -->
<g id="node2" class="node">
<title>Node2</title>
<g id="a_node2"><a xlink:href="../../d3/dbf/module__wrap_8cc.html" target="_top" xlink:title="src/module_wrap.cc">
<polygon fill="#ffffff" stroke="#000000" points="0,-.5 0,-18.5 104.9209,-18.5 104.9209,-.5 0,-.5"/>
<text text-anchor="middle" x="52.4604" y="-6.5" font-family="Helvetica,sans-Serif" font-size="10.00" fill="#000000">src/module_wrap.cc</text>
</a>
</g>
</g>
<!-- Node1&#45;&gt;Node2 -->
<g id="edge1" class="edge">
<title>Node1&#45;&gt;Node2</title>
<path fill="none" stroke="#191970" d="M91.9651,-48.2992C82.1738,-38.6828 70.1105,-26.8349 61.9086,-18.7795"/>
<polygon fill="#191970" stroke="#191970" points="89.6262,-50.9078 99.2132,-55.4179 94.5312,-45.9137 89.6262,-50.9078"/>
</g>
<!-- Node3 -->
<g id="node3" class="node">
<title>Node3</title>
<g id="a_node3"><a xlink:href="../../df/dcb/node__url_8cc.html" target="_top" xlink:title="src/node_url.cc">
<polygon fill="#ffffff" stroke="#000000" points="122.5566,-.5 122.5566,-18.5 206.3643,-18.5 206.3643,-.5 122.5566,-.5"/>
<text text-anchor="middle" x="164.4604" y="-6.5" font-family="Helvetica,sans-Serif" font-size="10.00" fill="#000000">src/node_url.cc</text>
</a>
</g>
</g>
<!-- Node1&#45;&gt;Node3 -->
<g id="edge2" class="edge">
<title>Node1&#45;&gt;Node3</title>
<path fill="none" stroke="#191970" d="M124.9558,-48.2992C134.7471,-38.6828 146.8104,-26.8349 155.0123,-18.7795"/>
<polygon fill="#191970" stroke="#191970" points="122.3897,-45.9137 117.7077,-55.4179 127.2947,-50.9078 122.3897,-45.9137"/>
</g>
</g>
</svg>
