<?xml version="1.0" encoding="UTF-8" standalone="no"?>
<!DOCTYPE svg PUBLIC "-//W3C//DTD SVG 1.1//EN"
 "http://www.w3.org/Graphics/SVG/1.1/DTD/svg11.dtd">
<!-- Generated by graphviz version 2.40.1 (20161225.0304)
 -->
<!-- Title: src/inspector_io.h Pages: 1 -->
<svg width="240pt" height="82pt"
 viewBox="0.00 0.00 240.43 82.00" xmlns="http://www.w3.org/2000/svg" xmlns:xlink="http://www.w3.org/1999/xlink">
<g id="graph0" class="graph" transform="scale(1 1) rotate(0) translate(4 78)">
<title>src/inspector_io.h</title>
<polygon fill="#ffffff" stroke="transparent" points="-4,4 -4,-78 236.4282,-78 236.4282,4 -4,4"/>
<!-- Node17 -->
<g id="node1" class="node">
<title>Node17</title>
<polygon fill="#bfbfbf" stroke="#000000" points="72.8398,-55.5 72.8398,-73.5 167.209,-73.5 167.209,-55.5 72.8398,-55.5"/>
<text text-anchor="middle" x="120.0244" y="-61.5" font-family="Helvetica,sans-Serif" font-size="10.00" fill="#000000">src/inspector_io.h</text>
</g>
<!-- Node18 -->
<g id="node2" class="node">
<title>Node18</title>
<g id="a_node2"><a xlink:href="../../d5/d2d/inspector__agent_8cc.html" target="_top" xlink:title="src/inspector_agent.cc">
<polygon fill="#ffffff" stroke="#000000" points="0,-.5 0,-18.5 116.0488,-18.5 116.0488,-.5 0,-.5"/>
<text text-anchor="middle" x="58.0244" y="-6.5" font-family="Helvetica,sans-Serif" font-size="10.00" fill="#000000">src/inspector_agent.cc</text>
</a>
</g>
</g>
<!-- Node17&#45;&gt;Node18 -->
<g id="edge1" class="edge">
<title>Node17&#45;&gt;Node18</title>
<path fill="none" stroke="#191970" d="M102.0829,-48.5841C91.1862,-38.9177 77.6555,-26.9147 68.4849,-18.7795"/>
<polygon fill="#191970" stroke="#191970" points="99.9829,-51.4 109.7864,-55.4179 104.6283,-46.1634 99.9829,-51.4"/>
</g>
<!-- Node19 -->
<g id="node3" class="node">
<title>Node19</title>
<g id="a_node3"><a xlink:href="../../d1/d89/inspector__io_8cc.html" target="_top" xlink:title="src/inspector_io.cc">
<polygon fill="#ffffff" stroke="#000000" points="133.6206,-.5 133.6206,-18.5 232.4282,-18.5 232.4282,-.5 133.6206,-.5"/>
<text text-anchor="middle" x="183.0244" y="-6.5" font-family="Helvetica,sans-Serif" font-size="10.00" fill="#000000">src/inspector_io.cc</text>
</a>
</g>
</g>
<!-- Node17&#45;&gt;Node19 -->
<g id="edge2" class="edge">
<title>Node17&#45;&gt;Node19</title>
<path fill="none" stroke="#191970" d="M138.2553,-48.5841C149.3277,-38.9177 163.0767,-26.9147 172.3952,-18.7795"/>
<polygon fill="#191970" stroke="#191970" points="135.659,-46.2046 130.4276,-55.4179 140.2626,-51.4779 135.659,-46.2046"/>
</g>
</g>
</svg>
