<?xml version="1.0" encoding="UTF-8" standalone="no"?>
<!DOCTYPE svg PUBLIC "-//W3C//DTD SVG 1.1//EN"
 "http://www.w3.org/Graphics/SVG/1.1/DTD/svg11.dtd">
<!-- Generated by graphviz version 2.40.1 (20161225.0304)
 -->
<!-- Title: src/node_zlib.cc Pages: 1 -->
<!--zoomable 192 -->
<svg id="main" version="1.1" xmlns="http://www.w3.org/2000/svg" xmlns:xlink="http://www.w3.org/1999/xlink" xml:space="preserve" onload="init(evt)">
<style type="text/css"><![CDATA[
.edge:hover path { stroke: red; }
.edge:hover polygon { stroke: red; fill: red; }
]]></style>
<script type="text/javascript"><![CDATA[
var edges = document.getElementsByTagName('g');
if (edges && edges.length) {
  for (var i=0;i<edges.length;i++) {
    if (edges[i].id.substr(0,4)=='edge') {
      edges[i].setAttribute('class','edge');
    }
  }
}
]]></script>
        <defs>
                <circle id="rim" cx="0" cy="0" r="7"/>
                <circle id="rim2" cx="0" cy="0" r="3.5"/>
                <g id="zoomPlus">
                        <use xlink:href="#rim" fill="#404040">
                                <set attributeName="fill" to="#808080" begin="zoomplus.mouseover" end="zoomplus.mouseout"/>
                        </use>
                        <path d="M-4,0h8M0,-4v8" fill="none" stroke="white" stroke-width="1.5" pointer-events="none"/>
                </g>
                <g id="zoomMin">
                        <use xlink:href="#rim" fill="#404040">
                                <set attributeName="fill" to="#808080" begin="zoomminus.mouseover" end="zoomminus.mouseout"/>
                        </use>
                        <path d="M-4,0h8" fill="none" stroke="white" stroke-width="1.5" pointer-events="none"/>
                </g>
                <g id="dirArrow">
                        <path fill="none" stroke="white" stroke-width="1.5" d="M0,-3.0v7 M-2.5,-0.5L0,-3.0L2.5,-0.5"/>
                </g>
               <g id="resetDef">
                       <use xlink:href="#rim2" fill="#404040">
                               <set attributeName="fill" to="#808080" begin="reset.mouseover" end="reset.mouseout"/>
                       </use>
               </g>
        </defs>

<script type="text/javascript">
var viewWidth = 948;
var viewHeight = 192;
var sectionId = 'dynsection-0';
</script>
<script xlink:href="../../svgpan.js"/>
<svg id="graph" class="graph">
<g id="viewport">
<title>src/node_zlib.cc</title>
<polygon fill="#ffffff" stroke="transparent" points="-4,4 -4,-188 943.8472,-188 943.8472,4 -4,4"/>
<!-- Node0 -->
<g id="node1" class="node">
<title>Node0</title>
<polygon fill="#bfbfbf" stroke="#000000" points="456.6011,-165.5 456.6011,-183.5 544.3003,-183.5 544.3003,-165.5 456.6011,-165.5"/>
<text text-anchor="middle" x="500.4507" y="-171.5" font-family="Helvetica,sans-Serif" font-size="10.00" fill="#000000">src/node_zlib.cc</text>
</g>
<!-- Node1 -->
<g id="node2" class="node">
<title>Node1</title>
<g id="a_node2"><a xlink:href="../../d1/d77/node_8h.html" target="_top" xlink:title="node.h">
<polygon fill="#ffffff" stroke="#000000" points="146.1577,-55.5 146.1577,-73.5 192.7437,-73.5 192.7437,-55.5 146.1577,-55.5"/>
<text text-anchor="middle" x="169.4507" y="-61.5" font-family="Helvetica,sans-Serif" font-size="10.00" fill="#000000">node.h</text>
</a>
</g>
</g>
<!-- Node0&#45;&gt;Node1 -->
<g id="edge1" class="edge">
<title>Node0&#45;&gt;Node1</title>
<path fill="none" stroke="#191970" d="M456.5654,-172.3236C384.7841,-168.015 246.2597,-156.338 206.4507,-129 190.6941,-118.1795 180.7869,-98.2996 175.2336,-83.4591"/>
<polygon fill="#191970" stroke="#191970" points="178.4653,-82.0906 171.938,-73.7453 171.8364,-84.3396 178.4653,-82.0906"/>
</g>
<!-- Node2 -->
<g id="node3" class="node">
<title>Node2</title>
<polygon fill="#ffffff" stroke="#bfbfbf" points="0,-.5 0,-18.5 34.9014,-18.5 34.9014,-.5 0,-.5"/>
<text text-anchor="middle" x="17.4507" y="-6.5" font-family="Helvetica,sans-Serif" font-size="10.00" fill="#000000">v8.h</text>
</g>
<!-- Node0&#45;&gt;Node2 -->
<g id="edge16" class="edge">
<title>Node0&#45;&gt;Node2</title>
<path fill="none" stroke="#191970" d="M456.2561,-172.3406C352.5905,-166.9229 100.2052,-151.5543 69.4507,-129 36.7235,-104.9989 24.3293,-55.9628 19.8418,-28.7584"/>
<polygon fill="#191970" stroke="#191970" points="23.2639,-27.9676 18.3664,-18.5726 16.3362,-28.9711 23.2639,-27.9676"/>
</g>
<!-- Node6 -->
<g id="node7" class="node">
<title>Node6</title>
<polygon fill="#ffffff" stroke="#bfbfbf" points="291.4409,-.5 291.4409,-18.5 357.4604,-18.5 357.4604,-.5 291.4409,-.5"/>
<text text-anchor="middle" x="324.4507" y="-6.5" font-family="Helvetica,sans-Serif" font-size="10.00" fill="#000000">sys/types.h</text>
</g>
<!-- Node0&#45;&gt;Node6 -->
<g id="edge21" class="edge">
<title>Node0&#45;&gt;Node6</title>
<path fill="none" stroke="#191970" d="M456.5895,-173.4134C389.6015,-170.7246 266.6824,-161.3897 239.4507,-129 209.3708,-93.2226 266.1527,-47.3001 300.6791,-24.185"/>
<polygon fill="#191970" stroke="#191970" points="302.8523,-26.9466 309.324,-18.5581 299.0337,-21.0799 302.8523,-26.9466"/>
</g>
<!-- Node7 -->
<g id="node8" class="node">
<title>Node7</title>
<g id="a_node8"><a xlink:href="../../d8/d1c/node__buffer_8h.html" target="_top" xlink:title="node_buffer.h">
<polygon fill="#ffffff" stroke="#000000" points="77.9526,-110.5 77.9526,-128.5 154.9487,-128.5 154.9487,-110.5 77.9526,-110.5"/>
<text text-anchor="middle" x="116.4507" y="-116.5" font-family="Helvetica,sans-Serif" font-size="10.00" fill="#000000">node_buffer.h</text>
</a>
</g>
</g>
<!-- Node0&#45;&gt;Node7 -->
<g id="edge7" class="edge">
<title>Node0&#45;&gt;Node7</title>
<path fill="none" stroke="#191970" d="M456.588,-169.1202C392.9675,-161.1738 271.4278,-145.4546 168.4507,-129 167.3632,-128.8262 166.2634,-128.6479 165.1549,-128.4658"/>
<polygon fill="#191970" stroke="#191970" points="165.4821,-124.9713 155.0371,-126.7467 164.3095,-131.8724 165.4821,-124.9713"/>
</g>
<!-- Node8 -->
<g id="node9" class="node">
<title>Node8</title>
<g id="a_node9"><a xlink:href="../../d4/d56/async-wrap_8h.html" target="_top" xlink:title="async&#45;wrap.h">
<polygon fill="#ffffff" stroke="#000000" points="248.7168,-110.5 248.7168,-128.5 324.1846,-128.5 324.1846,-110.5 248.7168,-110.5"/>
<text text-anchor="middle" x="286.4507" y="-116.5" font-family="Helvetica,sans-Serif" font-size="10.00" fill="#000000">async&#45;wrap.h</text>
</a>
</g>
</g>
<!-- Node0&#45;&gt;Node8 -->
<g id="edge10" class="edge">
<title>Node0&#45;&gt;Node8</title>
<path fill="none" stroke="#191970" d="M465.1129,-165.4179C428.4505,-155.9953 371.0141,-141.2336 331.2035,-131.0019"/>
<polygon fill="#191970" stroke="#191970" points="332.0417,-127.6036 321.4852,-128.5042 330.2992,-134.3833 332.0417,-127.6036"/>
</g>
<!-- Node9 -->
<g id="node10" class="node">
<title>Node9</title>
<g id="a_node10"><a xlink:href="../../d5/d30/async-wrap-inl_8h.html" target="_top" xlink:title="async&#45;wrap&#45;inl.h">
<polygon fill="#ffffff" stroke="#000000" points="342.0493,-110.5 342.0493,-128.5 430.8521,-128.5 430.8521,-110.5 342.0493,-110.5"/>
<text text-anchor="middle" x="386.4507" y="-116.5" font-family="Helvetica,sans-Serif" font-size="10.00" fill="#000000">async&#45;wrap&#45;inl.h</text>
</a>
</g>
</g>
<!-- Node0&#45;&gt;Node9 -->
<g id="edge11" class="edge">
<title>Node0&#45;&gt;Node9</title>
<path fill="none" stroke="#191970" d="M481.6259,-165.4179C463.3088,-156.5807 435.2578,-143.0473 414.3477,-132.9591"/>
<polygon fill="#191970" stroke="#191970" points="415.8309,-129.7887 405.3034,-128.5956 412.7892,-136.0933 415.8309,-129.7887"/>
</g>
<!-- Node10 -->
<g id="node11" class="node">
<title>Node10</title>
<g id="a_node11"><a xlink:href="../../d5/d81/env_8h.html" target="_top" xlink:title="env.h">
<polygon fill="#ffffff" stroke="#000000" points="448.5879,-110.5 448.5879,-128.5 488.3135,-128.5 488.3135,-110.5 448.5879,-110.5"/>
<text text-anchor="middle" x="468.4507" y="-116.5" font-family="Helvetica,sans-Serif" font-size="10.00" fill="#000000">env.h</text>
</a>
</g>
</g>
<!-- Node0&#45;&gt;Node10 -->
<g id="edge12" class="edge">
<title>Node0&#45;&gt;Node10</title>
<path fill="none" stroke="#191970" d="M495.1665,-165.4179C490.7924,-157.8998 484.4407,-146.9829 479.0281,-137.6799"/>
<polygon fill="#191970" stroke="#191970" points="481.9038,-135.6628 473.8496,-128.7795 475.8534,-139.1831 481.9038,-135.6628"/>
</g>
<!-- Node11 -->
<g id="node12" class="node">
<title>Node11</title>
<g id="a_node12"><a xlink:href="../../d9/d50/env-inl_8h.html" target="_top" xlink:title="env&#45;inl.h">
<polygon fill="#ffffff" stroke="#000000" points="506.5518,-110.5 506.5518,-128.5 560.3496,-128.5 560.3496,-110.5 506.5518,-110.5"/>
<text text-anchor="middle" x="533.4507" y="-116.5" font-family="Helvetica,sans-Serif" font-size="10.00" fill="#000000">env&#45;inl.h</text>
</a>
</g>
</g>
<!-- Node0&#45;&gt;Node11 -->
<g id="edge13" class="edge">
<title>Node0&#45;&gt;Node11</title>
<path fill="none" stroke="#191970" d="M505.9,-165.4179C510.4583,-157.8207 517.0991,-146.7527 522.7187,-137.3866"/>
<polygon fill="#191970" stroke="#191970" points="525.7392,-139.1552 527.883,-128.7795 519.7368,-135.5536 525.7392,-139.1552"/>
</g>
<!-- Node12 -->
<g id="node13" class="node">
<title>Node12</title>
<g id="a_node13"><a xlink:href="../../d8/d3c/util_8h.html" target="_top" xlink:title="util.h">
<polygon fill="#ffffff" stroke="#000000" points="577.8892,-110.5 577.8892,-128.5 615.0122,-128.5 615.0122,-110.5 577.8892,-110.5"/>
<text text-anchor="middle" x="596.4507" y="-116.5" font-family="Helvetica,sans-Serif" font-size="10.00" fill="#000000">util.h</text>
</a>
</g>
</g>
<!-- Node0&#45;&gt;Node12 -->
<g id="edge14" class="edge">
<title>Node0&#45;&gt;Node12</title>
<path fill="none" stroke="#191970" d="M516.3031,-165.4179C531.3111,-156.8195 554.0791,-143.7754 571.5179,-133.7844"/>
<polygon fill="#191970" stroke="#191970" points="573.6377,-136.6037 580.5747,-128.5956 570.1579,-130.5299 573.6377,-136.6037"/>
</g>
<!-- Node13 -->
<g id="node14" class="node">
<title>Node13</title>
<g id="a_node14"><a xlink:href="../../d5/d8c/util-inl_8h.html" target="_top" xlink:title="util&#45;inl.h">
<polygon fill="#ffffff" stroke="#000000" points="633.2217,-110.5 633.2217,-128.5 683.6797,-128.5 683.6797,-110.5 633.2217,-110.5"/>
<text text-anchor="middle" x="658.4507" y="-116.5" font-family="Helvetica,sans-Serif" font-size="10.00" fill="#000000">util&#45;inl.h</text>
</a>
</g>
</g>
<!-- Node0&#45;&gt;Node13 -->
<g id="edge15" class="edge">
<title>Node0&#45;&gt;Node13</title>
<path fill="none" stroke="#191970" d="M526.5412,-165.4179C552.9637,-156.2202 594.0004,-141.9352 623.2824,-131.7421"/>
<polygon fill="#191970" stroke="#191970" points="624.8128,-134.9154 633.1063,-128.3224 622.5115,-128.3045 624.8128,-134.9154"/>
</g>
<!-- Node14 -->
<g id="node15" class="node">
<title>Node14</title>
<polygon fill="#ffffff" stroke="#bfbfbf" points="701.7783,-110.5 701.7783,-128.5 741.123,-128.5 741.123,-110.5 701.7783,-110.5"/>
<text text-anchor="middle" x="721.4507" y="-116.5" font-family="Helvetica,sans-Serif" font-size="10.00" fill="#000000">zlib.h</text>
</g>
<!-- Node0&#45;&gt;Node14 -->
<g id="edge17" class="edge">
<title>Node0&#45;&gt;Node14</title>
<path fill="none" stroke="#191970" d="M543.0394,-165.4829C579.9848,-157.4204 635.0731,-144.8255 691.7083,-129.0349"/>
<polygon fill="#191970" stroke="#191970" points="692.8735,-132.343 701.5498,-126.2626 690.9754,-125.6052 692.8735,-132.343"/>
</g>
<!-- Node15 -->
<g id="node16" class="node">
<title>Node15</title>
<polygon fill="#ffffff" stroke="#bfbfbf" points="759.6084,-110.5 759.6084,-128.5 807.293,-128.5 807.293,-110.5 759.6084,-110.5"/>
<text text-anchor="middle" x="783.4507" y="-116.5" font-family="Helvetica,sans-Serif" font-size="10.00" fill="#000000">errno.h</text>
</g>
<!-- Node0&#45;&gt;Node15 -->
<g id="edge18" class="edge">
<title>Node0&#45;&gt;Node15</title>
<path fill="none" stroke="#191970" d="M544.5315,-167.8492C592.6361,-160.2873 672.0819,-146.9121 749.4591,-129.0497"/>
<polygon fill="#191970" stroke="#191970" points="750.432,-132.4168 759.3734,-126.7333 748.8393,-125.6004 750.432,-132.4168"/>
</g>
<!-- Node16 -->
<g id="node17" class="node">
<title>Node16</title>
<polygon fill="#ffffff" stroke="#bfbfbf" points="825.6084,-110.5 825.6084,-128.5 873.293,-128.5 873.293,-110.5 825.6084,-110.5"/>
<text text-anchor="middle" x="849.4507" y="-116.5" font-family="Helvetica,sans-Serif" font-size="10.00" fill="#000000">stdlib.h</text>
</g>
<!-- Node0&#45;&gt;Node16 -->
<g id="edge19" class="edge">
<title>Node0&#45;&gt;Node16</title>
<path fill="none" stroke="#191970" d="M544.4936,-170.0912C603.9498,-163.7157 713.2925,-150.4985 815.5273,-128.9494"/>
<polygon fill="#191970" stroke="#191970" points="816.3504,-132.3526 825.3969,-126.8379 814.886,-125.5075 816.3504,-132.3526"/>
</g>
<!-- Node17 -->
<g id="node18" class="node">
<title>Node17</title>
<polygon fill="#ffffff" stroke="#bfbfbf" points="891.0542,-110.5 891.0542,-128.5 939.8472,-128.5 939.8472,-110.5 891.0542,-110.5"/>
<text text-anchor="middle" x="915.4507" y="-116.5" font-family="Helvetica,sans-Serif" font-size="10.00" fill="#000000">string.h</text>
</g>
<!-- Node0&#45;&gt;Node17 -->
<g id="edge20" class="edge">
<title>Node0&#45;&gt;Node17</title>
<path fill="none" stroke="#191970" d="M544.3549,-171.5902C613.9667,-166.4723 753.9973,-154.1259 881.1418,-128.9911"/>
<polygon fill="#191970" stroke="#191970" points="881.9364,-132.4015 891.0512,-127.0005 880.5578,-125.5386 881.9364,-132.4015"/>
</g>
<!-- Node1&#45;&gt;Node2 -->
<g id="edge2" class="edge">
<title>Node1&#45;&gt;Node2</title>
<path fill="none" stroke="#191970" d="M146.0338,-56.0268C118.6204,-46.1075 73.3043,-29.7102 44.4383,-19.2653"/>
<polygon fill="#191970" stroke="#191970" points="45.5647,-15.9508 34.9705,-15.8394 43.1829,-22.5332 45.5647,-15.9508"/>
</g>
<!-- Node3 -->
<g id="node4" class="node">
<title>Node3</title>
<g id="a_node4"><a xlink:href="../../da/d9c/node__version_8h.html" target="_top" xlink:title="node_version.h">
<polygon fill="#ffffff" stroke="#000000" points="53.2588,-.5 53.2588,-18.5 137.6426,-18.5 137.6426,-.5 53.2588,-.5"/>
<text text-anchor="middle" x="95.4507" y="-6.5" font-family="Helvetica,sans-Serif" font-size="10.00" fill="#000000">node_version.h</text>
</a>
</g>
</g>
<!-- Node1&#45;&gt;Node3 -->
<g id="edge3" class="edge">
<title>Node1&#45;&gt;Node3</title>
<path fill="none" stroke="#191970" d="M157.2311,-55.4179C145.9838,-47.0584 129.0825,-34.4966 115.7992,-24.6239"/>
<polygon fill="#191970" stroke="#191970" points="117.8023,-21.7518 107.6884,-18.5956 113.6266,-27.37 117.8023,-21.7518"/>
</g>
<!-- Node4 -->
<g id="node5" class="node">
<title>Node4</title>
<polygon fill="#ffffff" stroke="#bfbfbf" points="155.665,-.5 155.665,-18.5 207.2363,-18.5 207.2363,-.5 155.665,-.5"/>
<text text-anchor="middle" x="181.4507" y="-6.5" font-family="Helvetica,sans-Serif" font-size="10.00" fill="#000000">assert.h</text>
</g>
<!-- Node1&#45;&gt;Node4 -->
<g id="edge4" class="edge">
<title>Node1&#45;&gt;Node4</title>
<path fill="none" stroke="#191970" d="M171.4322,-55.4179C173.0207,-48.1372 175.3047,-37.669 177.2909,-28.5659"/>
<polygon fill="#191970" stroke="#191970" points="180.7139,-29.2957 179.4261,-18.7795 173.8748,-27.8035 180.7139,-29.2957"/>
</g>
<!-- Node5 -->
<g id="node6" class="node">
<title>Node5</title>
<polygon fill="#ffffff" stroke="#bfbfbf" points="225.3301,-.5 225.3301,-18.5 273.5713,-18.5 273.5713,-.5 225.3301,-.5"/>
<text text-anchor="middle" x="249.4507" y="-6.5" font-family="Helvetica,sans-Serif" font-size="10.00" fill="#000000">stdint.h</text>
</g>
<!-- Node1&#45;&gt;Node5 -->
<g id="edge5" class="edge">
<title>Node1&#45;&gt;Node5</title>
<path fill="none" stroke="#191970" d="M182.6611,-55.4179C194.9361,-46.9788 213.4405,-34.257 227.8615,-24.3426"/>
<polygon fill="#191970" stroke="#191970" points="229.9631,-27.1451 236.2207,-18.5956 225.9974,-21.3768 229.9631,-27.1451"/>
</g>
<!-- Node1&#45;&gt;Node6 -->
<g id="edge6" class="edge">
<title>Node1&#45;&gt;Node6</title>
<path fill="none" stroke="#191970" d="M192.9918,-56.1467C218.6334,-47.0481 259.9196,-32.3981 289.3806,-21.9442"/>
<polygon fill="#191970" stroke="#191970" points="290.6248,-25.2166 298.8787,-18.5739 288.2839,-18.6196 290.6248,-25.2166"/>
</g>
<!-- Node7&#45;&gt;Node1 -->
<g id="edge8" class="edge">
<title>Node7&#45;&gt;Node1</title>
<path fill="none" stroke="#191970" d="M125.2026,-110.4179C132.8285,-102.5041 144.0836,-90.8243 153.3338,-81.2251"/>
<polygon fill="#191970" stroke="#191970" points="156.09,-83.4089 160.5087,-73.7795 151.0494,-78.5516 156.09,-83.4089"/>
</g>
<!-- Node7&#45;&gt;Node2 -->
<g id="edge9" class="edge">
<title>Node7&#45;&gt;Node2</title>
<path fill="none" stroke="#191970" d="M108.3491,-110.4982C91.7427,-92.0467 53.6239,-49.6924 32.4027,-26.1134"/>
<polygon fill="#191970" stroke="#191970" points="34.9554,-23.7177 25.6642,-18.6261 29.7524,-28.4005 34.9554,-23.7177"/>
</g>
</g>
</svg>
        <g id="navigator" transform="translate(0 0)" fill="#404254">
                <rect fill="#f2f5e9" fill-opacity="0.5" stroke="#606060" stroke-width=".5" x="0" y="0" width="60" height="60"/>
                <use id="zoomplus" xlink:href="#zoomPlus" x="17" y="9" onmousedown="handleZoom(evt,'in')"/>
                <use id="zoomminus" xlink:href="#zoomMin" x="42" y="9" onmousedown="handleZoom(evt,'out')"/>
                <use id="reset" xlink:href="#resetDef" x="30" y="36" onmousedown="handleReset()"/>
                <g id="arrowUp" xlink:href="#dirArrow" transform="translate(30 24)" onmousedown="handlePan(0,-1)">
                  <use xlink:href="#rim" fill="#404040">
                        <set attributeName="fill" to="#808080" begin="arrowUp.mouseover" end="arrowUp.mouseout"/>
                  </use>
                  <path fill="none" stroke="white" stroke-width="1.5" d="M0,-3.0v7 M-2.5,-0.5L0,-3.0L2.5,-0.5"/>
                </g>
                <g id="arrowRight" xlink:href="#dirArrow" transform="rotate(90) translate(36 -43)" onmousedown="handlePan(1,0)">
                  <use xlink:href="#rim" fill="#404040">
                        <set attributeName="fill" to="#808080" begin="arrowRight.mouseover" end="arrowRight.mouseout"/>
                  </use>
                  <path fill="none" stroke="white" stroke-width="1.5" d="M0,-3.0v7 M-2.5,-0.5L0,-3.0L2.5,-0.5"/>
                </g>
                <g id="arrowDown" xlink:href="#dirArrow" transform="rotate(180) translate(-30 -48)" onmousedown="handlePan(0,1)">
                  <use xlink:href="#rim" fill="#404040">
                        <set attributeName="fill" to="#808080" begin="arrowDown.mouseover" end="arrowDown.mouseout"/>
                  </use>
                  <path fill="none" stroke="white" stroke-width="1.5" d="M0,-3.0v7 M-2.5,-0.5L0,-3.0L2.5,-0.5"/>
                </g>
                <g id="arrowLeft" xlink:href="#dirArrow" transform="rotate(270) translate(-36 17)" onmousedown="handlePan(-1,0)">
                  <use xlink:href="#rim" fill="#404040">
                        <set attributeName="fill" to="#808080" begin="arrowLeft.mouseover" end="arrowLeft.mouseout"/>
                  </use>
                  <path fill="none" stroke="white" stroke-width="1.5" d="M0,-3.0v7 M-2.5,-0.5L0,-3.0L2.5,-0.5"/>
                </g>
        </g>
        <svg viewBox="0 0 15 15" width="100%" height="30px" preserveAspectRatio="xMaxYMin meet">
         <g id="arrow_out" transform="scale(0.3 0.3)">
          <a xlink:href="node__zlib_8cc__incl_org.svg" target="_base">
           <rect id="button" ry="5" rx="5" y="6" x="6" height="38" width="38"
                fill="#f2f5e9" fill-opacity="0.5" stroke="#606060" stroke-width="1.0"/>
           <path id="arrow"
             d="M 11.500037,31.436501 C 11.940474,20.09759 22.043105,11.32322 32.158766,21.979434 L 37.068811,17.246167 C 37.068811,17.246167 37.088388,32 37.088388,32 L 22.160133,31.978069 C 22.160133,31.978069 26.997745,27.140456 26.997745,27.140456 C 18.528582,18.264221 13.291696,25.230495 11.500037,31.436501 z"
             style="fill:#404040;"/>
          </a>
         </g>
        </svg>
</svg>
