<?xml version="1.0" encoding="UTF-8" standalone="no"?>
<!DOCTYPE svg PUBLIC "-//W3C//DTD SVG 1.1//EN"
 "http://www.w3.org/Graphics/SVG/1.1/DTD/svg11.dtd">
<!-- Generated by graphviz version 2.40.1 (20161225.0304)
 -->
<!-- Title: src/node_counters.h Pages: 1 -->
<svg width="477pt" height="92pt"
 viewBox="0.00 0.00 476.59 92.00" xmlns="http://www.w3.org/2000/svg" xmlns:xlink="http://www.w3.org/1999/xlink">
<g id="graph0" class="graph" transform="scale(1 1) rotate(0) translate(4 88)">
<title>src/node_counters.h</title>
<polygon fill="#ffffff" stroke="transparent" points="-4,4 -4,-88 472.5859,-88 472.5859,4 -4,4"/>
<!-- Node1 -->
<g id="node1" class="node">
<title>Node1</title>
<polygon fill="#bfbfbf" stroke="#000000" points="199.2192,-65.5 199.2192,-83.5 305.8296,-83.5 305.8296,-65.5 199.2192,-65.5"/>
<text text-anchor="middle" x="252.5244" y="-71.5" font-family="Helvetica,sans-Serif" font-size="10.00" fill="#000000">src/node_counters.h</text>
</g>
<!-- Node2 -->
<g id="node2" class="node">
<title>Node2</title>
<g id="a_node2"><a xlink:href="../../de/d23/node__counters_8cc.html" target="_top" xlink:title="src/node_counters.cc">
<polygon fill="#ffffff" stroke="#000000" points="0,-5.5 0,-23.5 111.0488,-23.5 111.0488,-5.5 0,-5.5"/>
<text text-anchor="middle" x="55.5244" y="-11.5" font-family="Helvetica,sans-Serif" font-size="10.00" fill="#000000">src/node_counters.cc</text>
</a>
</g>
</g>
<!-- Node1&#45;&gt;Node2 -->
<g id="edge1" class="edge">
<title>Node1&#45;&gt;Node2</title>
<path fill="none" stroke="#191970" d="M212.9438,-62.445C175.1676,-50.9395 119.1118,-33.8667 85.0806,-23.5019"/>
<polygon fill="#191970" stroke="#191970" points="212.0184,-65.8218 222.6044,-65.3873 214.058,-59.1255 212.0184,-65.8218"/>
</g>
<!-- Node3 -->
<g id="node3" class="node">
<title>Node3</title>
<g id="a_node3"><a xlink:href="../../d5/ddc/node__win32__perfctr__provider_8cc.html" target="_top" xlink:title="src/node_win32_perfctr\l_provider.cc">
<polygon fill="#ffffff" stroke="#000000" points="128.5518,-.5 128.5518,-28.5 248.4971,-28.5 248.4971,-.5 128.5518,-.5"/>
<text text-anchor="start" x="136.5518" y="-16.5" font-family="Helvetica,sans-Serif" font-size="10.00" fill="#000000">src/node_win32_perfctr</text>
<text text-anchor="middle" x="188.5244" y="-6.5" font-family="Helvetica,sans-Serif" font-size="10.00" fill="#000000">_provider.cc</text>
</a>
</g>
</g>
<!-- Node1&#45;&gt;Node3 -->
<g id="edge2" class="edge">
<title>Node1&#45;&gt;Node3</title>
<path fill="none" stroke="#191970" d="M235.2362,-58.2923C225.4358,-49.1044 213.282,-37.7103 203.8286,-28.8477"/>
<polygon fill="#191970" stroke="#191970" points="233.115,-61.1012 242.8042,-65.3873 237.9026,-55.9945 233.115,-61.1012"/>
</g>
<!-- Node4 -->
<g id="node4" class="node">
<title>Node4</title>
<g id="a_node4"><a xlink:href="../../dc/d29/stream__wrap_8cc.html" target="_top" xlink:title="src/stream_wrap.cc">
<polygon fill="#ffffff" stroke="#000000" points="266.1821,-5.5 266.1821,-23.5 368.8667,-23.5 368.8667,-5.5 266.1821,-5.5"/>
<text text-anchor="middle" x="317.5244" y="-11.5" font-family="Helvetica,sans-Serif" font-size="10.00" fill="#000000">src/stream_wrap.cc</text>
</a>
</g>
</g>
<!-- Node1&#45;&gt;Node4 -->
<g id="edge3" class="edge">
<title>Node1&#45;&gt;Node4</title>
<path fill="none" stroke="#191970" d="M270.0505,-58.3221C282.0746,-47.2229 297.5983,-32.8933 307.5594,-23.6985"/>
<polygon fill="#191970" stroke="#191970" points="267.3706,-56.0326 262.3965,-65.3873 272.1186,-61.1763 267.3706,-56.0326"/>
</g>
<!-- Node5 -->
<g id="node5" class="node">
<title>Node5</title>
<g id="a_node5"><a xlink:href="../../da/de5/tls__wrap_8cc.html" target="_top" xlink:title="src/tls_wrap.cc">
<polygon fill="#ffffff" stroke="#000000" points="386.4629,-5.5 386.4629,-23.5 468.5859,-23.5 468.5859,-5.5 386.4629,-5.5"/>
<text text-anchor="middle" x="427.5244" y="-11.5" font-family="Helvetica,sans-Serif" font-size="10.00" fill="#000000">src/tls_wrap.cc</text>
</a>
</g>
</g>
<!-- Node1&#45;&gt;Node5 -->
<g id="edge4" class="edge">
<title>Node1&#45;&gt;Node5</title>
<path fill="none" stroke="#191970" d="M288.9779,-62.0017C322.5106,-50.5047 371.4241,-33.7344 401.2689,-23.5019"/>
<polygon fill="#191970" stroke="#191970" points="287.4275,-58.8332 279.1031,-65.3873 289.6978,-65.4548 287.4275,-58.8332"/>
</g>
</g>
</svg>
