<?xml version="1.0" encoding="UTF-8" standalone="no"?>
<!DOCTYPE svg PUBLIC "-//W3C//DTD SVG 1.1//EN"
 "http://www.w3.org/Graphics/SVG/1.1/DTD/svg11.dtd">
<!-- Generated by graphviz version 2.40.1 (20161225.0304)
 -->
<!-- Title: src/node_watchdog.h Pages: 1 -->
<svg width="359pt" height="82pt"
 viewBox="0.00 0.00 358.85 82.00" xmlns="http://www.w3.org/2000/svg" xmlns:xlink="http://www.w3.org/1999/xlink">
<g id="graph0" class="graph" transform="scale(1 1) rotate(0) translate(4 78)">
<title>src/node_watchdog.h</title>
<polygon fill="#ffffff" stroke="transparent" points="-4,4 -4,-78 354.8501,-78 354.8501,4 -4,4"/>
<!-- Node1 -->
<g id="node1" class="node">
<title>Node1</title>
<polygon fill="#bfbfbf" stroke="#000000" points="119.5674,-55.5 119.5674,-73.5 230.6309,-73.5 230.6309,-55.5 119.5674,-55.5"/>
<text text-anchor="middle" x="175.0991" y="-61.5" font-family="Helvetica,sans-Serif" font-size="10.00" fill="#000000">src/node_watchdog.h</text>
</g>
<!-- Node2 -->
<g id="node2" class="node">
<title>Node2</title>
<g id="a_node2"><a xlink:href="../../d2/d17/node__contextify_8cc.html" target="_top" xlink:title="src/node_contextify.cc">
<polygon fill="#ffffff" stroke="#000000" points="0,-.5 0,-18.5 114.1982,-18.5 114.1982,-.5 0,-.5"/>
<text text-anchor="middle" x="57.0991" y="-6.5" font-family="Helvetica,sans-Serif" font-size="10.00" fill="#000000">src/node_contextify.cc</text>
</a>
</g>
</g>
<!-- Node1&#45;&gt;Node2 -->
<g id="edge1" class="edge">
<title>Node1&#45;&gt;Node2</title>
<path fill="none" stroke="#191970" d="M146.5483,-51.1924C124.8819,-41.0937 95.6688,-27.4774 76.6134,-18.5956"/>
<polygon fill="#191970" stroke="#191970" points="145.0714,-54.3655 155.6138,-55.4179 148.0287,-48.0208 145.0714,-54.3655"/>
</g>
<!-- Node3 -->
<g id="node3" class="node">
<title>Node3</title>
<g id="a_node3"><a xlink:href="../../da/dc5/node__util_8cc.html" target="_top" xlink:title="src/node_util.cc">
<polygon fill="#ffffff" stroke="#000000" points="132.3604,-.5 132.3604,-18.5 217.8379,-18.5 217.8379,-.5 132.3604,-.5"/>
<text text-anchor="middle" x="175.0991" y="-6.5" font-family="Helvetica,sans-Serif" font-size="10.00" fill="#000000">src/node_util.cc</text>
</a>
</g>
</g>
<!-- Node1&#45;&gt;Node3 -->
<g id="edge2" class="edge">
<title>Node1&#45;&gt;Node3</title>
<path fill="none" stroke="#191970" d="M175.0991,-45.383C175.0991,-36.3738 175.0991,-26.0373 175.0991,-18.7795"/>
<polygon fill="#191970" stroke="#191970" points="171.5992,-45.4178 175.0991,-55.4179 178.5992,-45.4179 171.5992,-45.4178"/>
</g>
<!-- Node4 -->
<g id="node4" class="node">
<title>Node4</title>
<g id="a_node4"><a xlink:href="../../df/d31/node__watchdog_8cc.html" target="_top" xlink:title="src/node_watchdog.cc">
<polygon fill="#ffffff" stroke="#000000" points="235.3481,-.5 235.3481,-18.5 350.8501,-18.5 350.8501,-.5 235.3481,-.5"/>
<text text-anchor="middle" x="293.0991" y="-6.5" font-family="Helvetica,sans-Serif" font-size="10.00" fill="#000000">src/node_watchdog.cc</text>
</a>
</g>
</g>
<!-- Node1&#45;&gt;Node4 -->
<g id="edge3" class="edge">
<title>Node1&#45;&gt;Node4</title>
<path fill="none" stroke="#191970" d="M203.65,-51.1924C225.3164,-41.0937 254.5294,-27.4774 273.5849,-18.5956"/>
<polygon fill="#191970" stroke="#191970" points="202.1696,-48.0208 194.5844,-55.4179 205.1269,-54.3655 202.1696,-48.0208"/>
</g>
</g>
</svg>
