<?xml version="1.0" encoding="UTF-8" standalone="no"?>
<!DOCTYPE svg PUBLIC "-//W3C//DTD SVG 1.1//EN"
 "http://www.w3.org/Graphics/SVG/1.1/DTD/svg11.dtd">
<!-- Generated by graphviz version 2.40.1 (20161225.0304)
 -->
<!-- Title: src/base&#45;object&#45;inl.h Pages: 1 -->
<svg width="344pt" height="82pt"
 viewBox="0.00 0.00 344.00 82.00" xmlns="http://www.w3.org/2000/svg" xmlns:xlink="http://www.w3.org/1999/xlink">
<g id="graph0" class="graph" transform="scale(1 1) rotate(0) translate(4 78)">
<title>src/base&#45;object&#45;inl.h</title>
<polygon fill="#ffffff" stroke="transparent" points="-4,4 -4,-78 340.0029,-78 340.0029,4 -4,4"/>
<!-- Node1 -->
<g id="node1" class="node">
<title>Node1</title>
<polygon fill="#bfbfbf" stroke="#000000" points="130.3579,-55.5 130.3579,-73.5 235.8403,-73.5 235.8403,-55.5 130.3579,-55.5"/>
<text text-anchor="middle" x="183.0991" y="-61.5" font-family="Helvetica,sans-Serif" font-size="10.00" fill="#000000">src/base&#45;object&#45;inl.h</text>
</g>
<!-- Node2 -->
<g id="node2" class="node">
<title>Node2</title>
<g id="a_node2"><a xlink:href="../../d2/d17/node__contextify_8cc.html" target="_top" xlink:title="src/node_contextify.cc">
<polygon fill="#ffffff" stroke="#000000" points="0,-.5 0,-18.5 114.1982,-18.5 114.1982,-.5 0,-.5"/>
<text text-anchor="middle" x="57.0991" y="-6.5" font-family="Helvetica,sans-Serif" font-size="10.00" fill="#000000">src/node_contextify.cc</text>
</a>
</g>
</g>
<!-- Node1&#45;&gt;Node2 -->
<g id="edge1" class="edge">
<title>Node1&#45;&gt;Node2</title>
<path fill="none" stroke="#191970" d="M152.9234,-51.328C129.7573,-41.2159 98.375,-27.5172 77.9364,-18.5956"/>
<polygon fill="#191970" stroke="#191970" points="151.7277,-54.625 162.2928,-55.4179 154.5281,-48.2095 151.7277,-54.625"/>
</g>
<!-- Node3 -->
<g id="node3" class="node">
<title>Node3</title>
<g id="a_node3"><a xlink:href="../../dc/d3a/node__serdes_8cc.html" target="_top" xlink:title="src/node_serdes.cc">
<polygon fill="#ffffff" stroke="#000000" points="131.7446,-.5 131.7446,-18.5 234.4536,-18.5 234.4536,-.5 131.7446,-.5"/>
<text text-anchor="middle" x="183.0991" y="-6.5" font-family="Helvetica,sans-Serif" font-size="10.00" fill="#000000">src/node_serdes.cc</text>
</a>
</g>
</g>
<!-- Node1&#45;&gt;Node3 -->
<g id="edge2" class="edge">
<title>Node1&#45;&gt;Node3</title>
<path fill="none" stroke="#191970" d="M183.0991,-45.383C183.0991,-36.3738 183.0991,-26.0373 183.0991,-18.7795"/>
<polygon fill="#191970" stroke="#191970" points="179.5992,-45.4178 183.0991,-55.4179 186.5992,-45.4179 179.5992,-45.4178"/>
</g>
<!-- Node4 -->
<g id="node4" class="node">
<title>Node4</title>
<g id="a_node4"><a xlink:href="../../df/dcb/node__url_8cc.html" target="_top" xlink:title="src/node_url.cc">
<polygon fill="#ffffff" stroke="#000000" points="252.1953,-.5 252.1953,-18.5 336.0029,-18.5 336.0029,-.5 252.1953,-.5"/>
<text text-anchor="middle" x="294.0991" y="-6.5" font-family="Helvetica,sans-Serif" font-size="10.00" fill="#000000">src/node_url.cc</text>
</a>
</g>
</g>
<!-- Node1&#45;&gt;Node4 -->
<g id="edge3" class="edge">
<title>Node1&#45;&gt;Node4</title>
<path fill="none" stroke="#191970" d="M210.5064,-50.9198C230.8295,-40.8498 257.9782,-27.3977 275.7425,-18.5956"/>
<polygon fill="#191970" stroke="#191970" points="208.8349,-47.8419 201.4285,-55.4179 211.9428,-54.1141 208.8349,-47.8419"/>
</g>
</g>
</svg>
