<?xml version="1.0" encoding="UTF-8" standalone="no"?>
<!DOCTYPE svg PUBLIC "-//W3C//DTD SVG 1.1//EN"
 "http://www.w3.org/Graphics/SVG/1.1/DTD/svg11.dtd">
<!-- Generated by graphviz version 2.40.1 (20161225.0304)
 -->
<!-- Title: src/udp_wrap.cc Pages: 1 -->
<!--zoomable 192 -->
<svg id="main" version="1.1" xmlns="http://www.w3.org/2000/svg" xmlns:xlink="http://www.w3.org/1999/xlink" xml:space="preserve" onload="init(evt)">
<style type="text/css"><![CDATA[
.edge:hover path { stroke: red; }
.edge:hover polygon { stroke: red; fill: red; }
]]></style>
<script type="text/javascript"><![CDATA[
var edges = document.getElementsByTagName('g');
if (edges && edges.length) {
  for (var i=0;i<edges.length;i++) {
    if (edges[i].id.substr(0,4)=='edge') {
      edges[i].setAttribute('class','edge');
    }
  }
}
]]></script>
        <defs>
                <circle id="rim" cx="0" cy="0" r="7"/>
                <circle id="rim2" cx="0" cy="0" r="3.5"/>
                <g id="zoomPlus">
                        <use xlink:href="#rim" fill="#404040">
                                <set attributeName="fill" to="#808080" begin="zoomplus.mouseover" end="zoomplus.mouseout"/>
                        </use>
                        <path d="M-4,0h8M0,-4v8" fill="none" stroke="white" stroke-width="1.5" pointer-events="none"/>
                </g>
                <g id="zoomMin">
                        <use xlink:href="#rim" fill="#404040">
                                <set attributeName="fill" to="#808080" begin="zoomminus.mouseover" end="zoomminus.mouseout"/>
                        </use>
                        <path d="M-4,0h8" fill="none" stroke="white" stroke-width="1.5" pointer-events="none"/>
                </g>
                <g id="dirArrow">
                        <path fill="none" stroke="white" stroke-width="1.5" d="M0,-3.0v7 M-2.5,-0.5L0,-3.0L2.5,-0.5"/>
                </g>
               <g id="resetDef">
                       <use xlink:href="#rim2" fill="#404040">
                               <set attributeName="fill" to="#808080" begin="reset.mouseover" end="reset.mouseout"/>
                       </use>
               </g>
        </defs>

<script type="text/javascript">
var viewWidth = 766;
var viewHeight = 192;
var sectionId = 'dynsection-0';
</script>
<script xlink:href="../../svgpan.js"/>
<svg id="graph" class="graph">
<g id="viewport">
<title>src/udp_wrap.cc</title>
<polygon fill="#ffffff" stroke="transparent" points="-4,4 -4,-188 761.9727,-188 761.9727,4 -4,4"/>
<!-- Node0 -->
<g id="node1" class="node">
<title>Node0</title>
<polygon fill="#bfbfbf" stroke="#000000" points="351.7266,-165.5 351.7266,-183.5 440.5342,-183.5 440.5342,-165.5 351.7266,-165.5"/>
<text text-anchor="middle" x="396.1304" y="-171.5" font-family="Helvetica,sans-Serif" font-size="10.00" fill="#000000">src/udp_wrap.cc</text>
</g>
<!-- Node1 -->
<g id="node2" class="node">
<title>Node1</title>
<g id="a_node2"><a xlink:href="../../d4/d02/udp__wrap_8h.html" target="_top" xlink:title="udp_wrap.h">
<polygon fill="#ffffff" stroke="#000000" points="0,-110.5 0,-128.5 68.2607,-128.5 68.2607,-110.5 0,-110.5"/>
<text text-anchor="middle" x="34.1304" y="-116.5" font-family="Helvetica,sans-Serif" font-size="10.00" fill="#000000">udp_wrap.h</text>
</a>
</g>
</g>
<!-- Node0&#45;&gt;Node1 -->
<g id="edge1" class="edge">
<title>Node0&#45;&gt;Node1</title>
<path fill="none" stroke="#191970" d="M351.5781,-169.2275C291.6881,-161.9016 181.7044,-147.6132 78.3319,-129.1092"/>
<polygon fill="#191970" stroke="#191970" points="78.8137,-125.6397 68.3507,-127.3054 77.5688,-132.5281 78.8137,-125.6397"/>
</g>
<!-- Node2 -->
<g id="node3" class="node">
<title>Node2</title>
<g id="a_node3"><a xlink:href="../../d5/d81/env_8h.html" target="_top" xlink:title="env.h">
<polygon fill="#ffffff" stroke="#000000" points="86.2676,-110.5 86.2676,-128.5 125.9932,-128.5 125.9932,-110.5 86.2676,-110.5"/>
<text text-anchor="middle" x="106.1304" y="-116.5" font-family="Helvetica,sans-Serif" font-size="10.00" fill="#000000">env.h</text>
</a>
</g>
</g>
<!-- Node0&#45;&gt;Node2 -->
<g id="edge2" class="edge">
<title>Node0&#45;&gt;Node2</title>
<path fill="none" stroke="#191970" d="M351.3884,-168.7001C301.1212,-161.7424 216.9989,-148.7759 136.1451,-128.9691"/>
<polygon fill="#191970" stroke="#191970" points="136.8529,-125.5385 126.3036,-126.5196 135.1622,-132.3313 136.8529,-125.5385"/>
</g>
<!-- Node3 -->
<g id="node4" class="node">
<title>Node3</title>
<g id="a_node4"><a xlink:href="../../d9/d50/env-inl_8h.html" target="_top" xlink:title="env&#45;inl.h">
<polygon fill="#ffffff" stroke="#000000" points="144.2314,-110.5 144.2314,-128.5 198.0293,-128.5 198.0293,-110.5 144.2314,-110.5"/>
<text text-anchor="middle" x="171.1304" y="-116.5" font-family="Helvetica,sans-Serif" font-size="10.00" fill="#000000">env&#45;inl.h</text>
</a>
</g>
</g>
<!-- Node0&#45;&gt;Node3 -->
<g id="edge3" class="edge">
<title>Node0&#45;&gt;Node3</title>
<path fill="none" stroke="#191970" d="M357.3387,-165.4218C321.1816,-156.9021 265.506,-143.6363 208.1995,-129.2323"/>
<polygon fill="#191970" stroke="#191970" points="208.7931,-125.7725 198.2408,-126.7217 207.0818,-132.5601 208.7931,-125.7725"/>
</g>
<!-- Node4 -->
<g id="node5" class="node">
<title>Node4</title>
<g id="a_node5"><a xlink:href="../../d8/d1c/node__buffer_8h.html" target="_top" xlink:title="node_buffer.h">
<polygon fill="#ffffff" stroke="#000000" points="215.6323,-110.5 215.6323,-128.5 292.6284,-128.5 292.6284,-110.5 215.6323,-110.5"/>
<text text-anchor="middle" x="254.1304" y="-116.5" font-family="Helvetica,sans-Serif" font-size="10.00" fill="#000000">node_buffer.h</text>
</a>
</g>
</g>
<!-- Node0&#45;&gt;Node4 -->
<g id="edge4" class="edge">
<title>Node0&#45;&gt;Node4</title>
<path fill="none" stroke="#191970" d="M372.682,-165.4179C349.3521,-156.3817 313.3451,-142.4353 287.1332,-132.2828"/>
<polygon fill="#191970" stroke="#191970" points="288.2027,-128.9437 277.6136,-128.5956 285.6744,-135.4712 288.2027,-128.9437"/>
</g>
<!-- Node11 -->
<g id="node12" class="node">
<title>Node11</title>
<g id="a_node12"><a xlink:href="../../da/db4/handle__wrap_8h.html" target="_top" xlink:title="handle_wrap.h">
<polygon fill="#ffffff" stroke="#000000" points="310.3276,-110.5 310.3276,-128.5 391.9331,-128.5 391.9331,-110.5 310.3276,-110.5"/>
<text text-anchor="middle" x="351.1304" y="-116.5" font-family="Helvetica,sans-Serif" font-size="10.00" fill="#000000">handle_wrap.h</text>
</a>
</g>
</g>
<!-- Node0&#45;&gt;Node11 -->
<g id="edge12" class="edge">
<title>Node0&#45;&gt;Node11</title>
<path fill="none" stroke="#191970" d="M388.6995,-165.4179C382.3542,-157.6624 373.0495,-146.29 365.2878,-136.8035"/>
<polygon fill="#191970" stroke="#191970" points="367.7639,-134.3027 358.7227,-128.7795 362.3462,-138.7354 367.7639,-134.3027"/>
</g>
<!-- Node12 -->
<g id="node13" class="node">
<title>Node12</title>
<g id="a_node13"><a xlink:href="../../d6/dae/req-wrap_8h.html" target="_top" xlink:title="req&#45;wrap.h">
<polygon fill="#ffffff" stroke="#000000" points="410.2314,-110.5 410.2314,-128.5 474.0293,-128.5 474.0293,-110.5 410.2314,-110.5"/>
<text text-anchor="middle" x="442.1304" y="-116.5" font-family="Helvetica,sans-Serif" font-size="10.00" fill="#000000">req&#45;wrap.h</text>
</a>
</g>
</g>
<!-- Node0&#45;&gt;Node12 -->
<g id="edge13" class="edge">
<title>Node0&#45;&gt;Node12</title>
<path fill="none" stroke="#191970" d="M403.7263,-165.4179C410.2789,-157.5833 419.9186,-146.0575 427.9007,-136.5137"/>
<polygon fill="#191970" stroke="#191970" points="430.6386,-138.6957 434.3694,-128.7795 425.269,-134.2048 430.6386,-138.6957"/>
</g>
<!-- Node13 -->
<g id="node14" class="node">
<title>Node13</title>
<g id="a_node14"><a xlink:href="../../dd/d0b/req-wrap-inl_8h.html" target="_top" xlink:title="req&#45;wrap&#45;inl.h">
<polygon fill="#ffffff" stroke="#000000" points="491.564,-110.5 491.564,-128.5 568.6968,-128.5 568.6968,-110.5 491.564,-110.5"/>
<text text-anchor="middle" x="530.1304" y="-116.5" font-family="Helvetica,sans-Serif" font-size="10.00" fill="#000000">req&#45;wrap&#45;inl.h</text>
</a>
</g>
</g>
<!-- Node0&#45;&gt;Node13 -->
<g id="edge14" class="edge">
<title>Node0&#45;&gt;Node13</title>
<path fill="none" stroke="#191970" d="M418.2577,-165.4179C440.1763,-156.4215 473.9526,-142.5581 498.6595,-132.4172"/>
<polygon fill="#191970" stroke="#191970" points="500.0481,-135.6306 507.9701,-128.5956 497.3901,-129.1549 500.0481,-135.6306"/>
</g>
<!-- Node14 -->
<g id="node15" class="node">
<title>Node14</title>
<g id="a_node15"><a xlink:href="../../d8/d3c/util_8h.html" target="_top" xlink:title="util.h">
<polygon fill="#ffffff" stroke="#000000" points="586.5688,-110.5 586.5688,-128.5 623.6919,-128.5 623.6919,-110.5 586.5688,-110.5"/>
<text text-anchor="middle" x="605.1304" y="-116.5" font-family="Helvetica,sans-Serif" font-size="10.00" fill="#000000">util.h</text>
</a>
</g>
</g>
<!-- Node0&#45;&gt;Node14 -->
<g id="edge15" class="edge">
<title>Node0&#45;&gt;Node14</title>
<path fill="none" stroke="#191970" d="M436.9061,-165.4549C471.8147,-157.4558 523.5819,-144.9909 576.4422,-129.3309"/>
<polygon fill="#191970" stroke="#191970" points="577.7471,-132.5937 586.3213,-126.37 575.7374,-125.8884 577.7471,-132.5937"/>
</g>
<!-- Node15 -->
<g id="node16" class="node">
<title>Node15</title>
<g id="a_node16"><a xlink:href="../../d5/d8c/util-inl_8h.html" target="_top" xlink:title="util&#45;inl.h">
<polygon fill="#ffffff" stroke="#000000" points="641.9014,-110.5 641.9014,-128.5 692.3594,-128.5 692.3594,-110.5 641.9014,-110.5"/>
<text text-anchor="middle" x="667.1304" y="-116.5" font-family="Helvetica,sans-Serif" font-size="10.00" fill="#000000">util&#45;inl.h</text>
</a>
</g>
</g>
<!-- Node0&#45;&gt;Node15 -->
<g id="edge16" class="edge">
<title>Node0&#45;&gt;Node15</title>
<path fill="none" stroke="#191970" d="M440.9185,-167.0408C486.5994,-159.1796 559.7144,-145.9013 631.4581,-129.2573"/>
<polygon fill="#191970" stroke="#191970" points="632.6323,-132.577 641.5693,-126.8866 631.0344,-125.7618 632.6323,-132.577"/>
</g>
<!-- Node16 -->
<g id="node17" class="node">
<title>Node16</title>
<polygon fill="#ffffff" stroke="#bfbfbf" points="710.2881,-110.5 710.2881,-128.5 757.9727,-128.5 757.9727,-110.5 710.2881,-110.5"/>
<text text-anchor="middle" x="734.1304" y="-116.5" font-family="Helvetica,sans-Serif" font-size="10.00" fill="#000000">stdlib.h</text>
</g>
<!-- Node0&#45;&gt;Node16 -->
<g id="edge17" class="edge">
<title>Node0&#45;&gt;Node16</title>
<path fill="none" stroke="#191970" d="M440.6595,-169.7276C498.3767,-163.1309 602.2603,-149.8625 700.0246,-128.9999"/>
<polygon fill="#191970" stroke="#191970" points="701.041,-132.361 710.0735,-126.8235 699.5592,-125.5196 701.041,-132.361"/>
</g>
<!-- Node5 -->
<g id="node6" class="node">
<title>Node5</title>
<g id="a_node6"><a xlink:href="../../d1/d77/node_8h.html" target="_top" xlink:title="node.h">
<polygon fill="#ffffff" stroke="#000000" points="262.8374,-55.5 262.8374,-73.5 309.4233,-73.5 309.4233,-55.5 262.8374,-55.5"/>
<text text-anchor="middle" x="286.1304" y="-61.5" font-family="Helvetica,sans-Serif" font-size="10.00" fill="#000000">node.h</text>
</a>
</g>
</g>
<!-- Node4&#45;&gt;Node5 -->
<g id="edge5" class="edge">
<title>Node4&#45;&gt;Node5</title>
<path fill="none" stroke="#191970" d="M259.4145,-110.4179C263.7887,-102.8998 270.1403,-91.9829 275.553,-82.6799"/>
<polygon fill="#191970" stroke="#191970" points="278.7277,-84.1831 280.7314,-73.7795 272.6772,-80.6628 278.7277,-84.1831"/>
</g>
<!-- Node6 -->
<g id="node7" class="node">
<title>Node6</title>
<polygon fill="#ffffff" stroke="#bfbfbf" points="147.6797,-.5 147.6797,-18.5 182.5811,-18.5 182.5811,-.5 147.6797,-.5"/>
<text text-anchor="middle" x="165.1304" y="-6.5" font-family="Helvetica,sans-Serif" font-size="10.00" fill="#000000">v8.h</text>
</g>
<!-- Node4&#45;&gt;Node6 -->
<g id="edge11" class="edge">
<title>Node4&#45;&gt;Node6</title>
<path fill="none" stroke="#191970" d="M246.8471,-110.4982C231.9834,-92.1273 197.9486,-50.0619 178.8229,-26.4233"/>
<polygon fill="#191970" stroke="#191970" points="181.5252,-24.1988 172.5143,-18.6261 176.0833,-28.6018 181.5252,-24.1988"/>
</g>
<!-- Node5&#45;&gt;Node6 -->
<g id="edge6" class="edge">
<title>Node5&#45;&gt;Node6</title>
<path fill="none" stroke="#191970" d="M266.1497,-55.4179C245.9187,-46.222 214.5001,-31.9408 192.0761,-21.7481"/>
<polygon fill="#191970" stroke="#191970" points="193.3294,-18.4732 182.7774,-17.5214 190.4328,-24.8458 193.3294,-18.4732"/>
</g>
<!-- Node7 -->
<g id="node8" class="node">
<title>Node7</title>
<g id="a_node8"><a xlink:href="../../da/d9c/node__version_8h.html" target="_top" xlink:title="node_version.h">
<polygon fill="#ffffff" stroke="#000000" points="200.9385,-.5 200.9385,-18.5 285.3223,-18.5 285.3223,-.5 200.9385,-.5"/>
<text text-anchor="middle" x="243.1304" y="-6.5" font-family="Helvetica,sans-Serif" font-size="10.00" fill="#000000">node_version.h</text>
</a>
</g>
</g>
<!-- Node5&#45;&gt;Node7 -->
<g id="edge7" class="edge">
<title>Node5&#45;&gt;Node7</title>
<path fill="none" stroke="#191970" d="M279.0298,-55.4179C272.9664,-47.6624 264.0753,-36.29 256.6586,-26.8035"/>
<polygon fill="#191970" stroke="#191970" points="259.3018,-24.5018 250.3852,-18.7795 253.7871,-28.8133 259.3018,-24.5018"/>
</g>
<!-- Node8 -->
<g id="node9" class="node">
<title>Node8</title>
<polygon fill="#ffffff" stroke="#bfbfbf" points="303.3447,-.5 303.3447,-18.5 354.916,-18.5 354.916,-.5 303.3447,-.5"/>
<text text-anchor="middle" x="329.1304" y="-6.5" font-family="Helvetica,sans-Serif" font-size="10.00" fill="#000000">assert.h</text>
</g>
<!-- Node5&#45;&gt;Node8 -->
<g id="edge8" class="edge">
<title>Node5&#45;&gt;Node8</title>
<path fill="none" stroke="#191970" d="M293.2309,-55.4179C299.2943,-47.6624 308.1855,-36.29 315.6022,-26.8035"/>
<polygon fill="#191970" stroke="#191970" points="318.4736,-28.8133 321.8755,-18.7795 312.9589,-24.5018 318.4736,-28.8133"/>
</g>
<!-- Node9 -->
<g id="node10" class="node">
<title>Node9</title>
<polygon fill="#ffffff" stroke="#bfbfbf" points="373.0098,-.5 373.0098,-18.5 421.251,-18.5 421.251,-.5 373.0098,-.5"/>
<text text-anchor="middle" x="397.1304" y="-6.5" font-family="Helvetica,sans-Serif" font-size="10.00" fill="#000000">stdint.h</text>
</g>
<!-- Node5&#45;&gt;Node9 -->
<g id="edge9" class="edge">
<title>Node5&#45;&gt;Node9</title>
<path fill="none" stroke="#191970" d="M304.4598,-55.4179C322.2145,-46.6205 349.3618,-33.1691 369.692,-23.0956"/>
<polygon fill="#191970" stroke="#191970" points="371.3673,-26.1716 378.7737,-18.5956 368.2594,-19.8994 371.3673,-26.1716"/>
</g>
<!-- Node10 -->
<g id="node11" class="node">
<title>Node10</title>
<polygon fill="#ffffff" stroke="#bfbfbf" points="439.1206,-.5 439.1206,-18.5 505.1401,-18.5 505.1401,-.5 439.1206,-.5"/>
<text text-anchor="middle" x="472.1304" y="-6.5" font-family="Helvetica,sans-Serif" font-size="10.00" fill="#000000">sys/types.h</text>
</g>
<!-- Node5&#45;&gt;Node10 -->
<g id="edge10" class="edge">
<title>Node5&#45;&gt;Node10</title>
<path fill="none" stroke="#191970" d="M309.6874,-57.5342C340.3355,-48.4716 394.3606,-32.4964 431.6406,-21.4728"/>
<polygon fill="#191970" stroke="#191970" points="433.0811,-24.6967 441.6781,-18.5047 431.0961,-17.984 433.0811,-24.6967"/>
</g>
</g>
</svg>
        <g id="navigator" transform="translate(0 0)" fill="#404254">
                <rect fill="#f2f5e9" fill-opacity="0.5" stroke="#606060" stroke-width=".5" x="0" y="0" width="60" height="60"/>
                <use id="zoomplus" xlink:href="#zoomPlus" x="17" y="9" onmousedown="handleZoom(evt,'in')"/>
                <use id="zoomminus" xlink:href="#zoomMin" x="42" y="9" onmousedown="handleZoom(evt,'out')"/>
                <use id="reset" xlink:href="#resetDef" x="30" y="36" onmousedown="handleReset()"/>
                <g id="arrowUp" xlink:href="#dirArrow" transform="translate(30 24)" onmousedown="handlePan(0,-1)">
                  <use xlink:href="#rim" fill="#404040">
                        <set attributeName="fill" to="#808080" begin="arrowUp.mouseover" end="arrowUp.mouseout"/>
                  </use>
                  <path fill="none" stroke="white" stroke-width="1.5" d="M0,-3.0v7 M-2.5,-0.5L0,-3.0L2.5,-0.5"/>
                </g>
                <g id="arrowRight" xlink:href="#dirArrow" transform="rotate(90) translate(36 -43)" onmousedown="handlePan(1,0)">
                  <use xlink:href="#rim" fill="#404040">
                        <set attributeName="fill" to="#808080" begin="arrowRight.mouseover" end="arrowRight.mouseout"/>
                  </use>
                  <path fill="none" stroke="white" stroke-width="1.5" d="M0,-3.0v7 M-2.5,-0.5L0,-3.0L2.5,-0.5"/>
                </g>
                <g id="arrowDown" xlink:href="#dirArrow" transform="rotate(180) translate(-30 -48)" onmousedown="handlePan(0,1)">
                  <use xlink:href="#rim" fill="#404040">
                        <set attributeName="fill" to="#808080" begin="arrowDown.mouseover" end="arrowDown.mouseout"/>
                  </use>
                  <path fill="none" stroke="white" stroke-width="1.5" d="M0,-3.0v7 M-2.5,-0.5L0,-3.0L2.5,-0.5"/>
                </g>
                <g id="arrowLeft" xlink:href="#dirArrow" transform="rotate(270) translate(-36 17)" onmousedown="handlePan(-1,0)">
                  <use xlink:href="#rim" fill="#404040">
                        <set attributeName="fill" to="#808080" begin="arrowLeft.mouseover" end="arrowLeft.mouseout"/>
                  </use>
                  <path fill="none" stroke="white" stroke-width="1.5" d="M0,-3.0v7 M-2.5,-0.5L0,-3.0L2.5,-0.5"/>
                </g>
        </g>
        <svg viewBox="0 0 15 15" width="100%" height="30px" preserveAspectRatio="xMaxYMin meet">
         <g id="arrow_out" transform="scale(0.3 0.3)">
          <a xlink:href="udp__wrap_8cc__incl_org.svg" target="_base">
           <rect id="button" ry="5" rx="5" y="6" x="6" height="38" width="38"
                fill="#f2f5e9" fill-opacity="0.5" stroke="#606060" stroke-width="1.0"/>
           <path id="arrow"
             d="M 11.500037,31.436501 C 11.940474,20.09759 22.043105,11.32322 32.158766,21.979434 L 37.068811,17.246167 C 37.068811,17.246167 37.088388,32 37.088388,32 L 22.160133,31.978069 C 22.160133,31.978069 26.997745,27.140456 26.997745,27.140456 C 18.528582,18.264221 13.291696,25.230495 11.500037,31.436501 z"
             style="fill:#404040;"/>
          </a>
         </g>
        </svg>
</svg>
