<?xml version="1.0" encoding="UTF-8" standalone="no"?>
<!DOCTYPE svg PUBLIC "-//W3C//DTD SVG 1.1//EN"
 "http://www.w3.org/Graphics/SVG/1.1/DTD/svg11.dtd">
<!-- Generated by graphviz version 2.40.1 (20161225.0304)
 -->
<!-- Title: src/env.h Pages: 1 -->
<svg width="4566pt" height="82pt"
 viewBox="0.00 0.00 4566.36 82.00" xmlns="http://www.w3.org/2000/svg" xmlns:xlink="http://www.w3.org/1999/xlink">
<g id="graph0" class="graph" transform="scale(1 1) rotate(0) translate(4 78)">
<title>src/env.h</title>
<polygon fill="#ffffff" stroke="transparent" points="-4,4 -4,-78 4562.3628,-78 4562.3628,4 -4,4"/>
<!-- Node1 -->
<g id="node1" class="node">
<title>Node1</title>
<polygon fill="#bfbfbf" stroke="#000000" points="2322.0903,-55.5 2322.0903,-73.5 2377.9243,-73.5 2377.9243,-55.5 2322.0903,-55.5"/>
<text text-anchor="middle" x="2350.0073" y="-61.5" font-family="Helvetica,sans-Serif" font-size="10.00" fill="#000000">src/env.h</text>
</g>
<!-- Node2 -->
<g id="node2" class="node">
<title>Node2</title>
<g id="a_node2"><a xlink:href="../../de/dd2/async-wrap_8cc.html" target="_top" xlink:title="src/async&#45;wrap.cc">
<polygon fill="#ffffff" stroke="#000000" points="0,-.5 0,-18.5 96.0146,-18.5 96.0146,-.5 0,-.5"/>
<text text-anchor="middle" x="48.0073" y="-6.5" font-family="Helvetica,sans-Serif" font-size="10.00" fill="#000000">src/async&#45;wrap.cc</text>
</a>
</g>
</g>
<!-- Node1&#45;&gt;Node2 -->
<g id="edge1" class="edge">
<title>Node1&#45;&gt;Node2</title>
<path fill="none" stroke="#191970" d="M2311.7179,-64.0591C2034,-60.8173 333.0391,-40.2008 105.0073,-19 102.1104,-18.7307 99.1384,-18.4004 96.1455,-18.0266"/>
<polygon fill="#191970" stroke="#191970" points="2312.0396,-67.563 2322.0797,-64.1797 2312.1211,-60.5635 2312.0396,-67.563"/>
</g>
<!-- Node3 -->
<g id="node3" class="node">
<title>Node3</title>
<g id="a_node3"><a xlink:href="../../dc/ded/cares__wrap_8cc.html" target="_top" xlink:title="src/cares_wrap.cc">
<polygon fill="#ffffff" stroke="#000000" points="113.7192,-.5 113.7192,-18.5 210.2954,-18.5 210.2954,-.5 113.7192,-.5"/>
<text text-anchor="middle" x="162.0073" y="-6.5" font-family="Helvetica,sans-Serif" font-size="10.00" fill="#000000">src/cares_wrap.cc</text>
</a>
</g>
</g>
<!-- Node1&#45;&gt;Node3 -->
<g id="edge2" class="edge">
<title>Node1&#45;&gt;Node3</title>
<path fill="none" stroke="#191970" d="M2311.9786,-64.4364C2061.761,-63.9056 648.2935,-59.1467 219.0073,-19 216.2105,-18.7384 213.3436,-18.4204 210.4553,-18.0615"/>
<polygon fill="#191970" stroke="#191970" points="2312.0272,-67.9364 2322.0343,-64.4568 2312.0415,-60.9365 2312.0272,-67.9364"/>
</g>
<!-- Node4 -->
<g id="node4" class="node">
<title>Node4</title>
<g id="a_node4"><a xlink:href="../../d3/d36/connect__wrap_8cc.html" target="_top" xlink:title="src/connect_wrap.cc">
<polygon fill="#ffffff" stroke="#000000" points="228.4336,-.5 228.4336,-18.5 335.5811,-18.5 335.5811,-.5 228.4336,-.5"/>
<text text-anchor="middle" x="282.0073" y="-6.5" font-family="Helvetica,sans-Serif" font-size="10.00" fill="#000000">src/connect_wrap.cc</text>
</a>
</g>
</g>
<!-- Node1&#45;&gt;Node4 -->
<g id="edge3" class="edge">
<title>Node1&#45;&gt;Node4</title>
<path fill="none" stroke="#191970" d="M2311.9855,-64.2972C2070.5163,-62.91 747.9117,-53.8076 345.0073,-19 342.0319,-18.7429 338.9833,-18.4344 335.9101,-18.0882"/>
<polygon fill="#191970" stroke="#191970" points="2312.0116,-67.7973 2322.0313,-64.354 2312.0513,-60.7974 2312.0116,-67.7973"/>
</g>
<!-- Node5 -->
<g id="node5" class="node">
<title>Node5</title>
<g id="a_node5"><a xlink:href="../../d7/d47/connection__wrap_8cc.html" target="_top" xlink:title="src/connection_wrap.cc">
<polygon fill="#ffffff" stroke="#000000" points="353.7612,-.5 353.7612,-18.5 474.2534,-18.5 474.2534,-.5 353.7612,-.5"/>
<text text-anchor="middle" x="414.0073" y="-6.5" font-family="Helvetica,sans-Serif" font-size="10.00" fill="#000000">src/connection_wrap.cc</text>
</a>
</g>
</g>
<!-- Node1&#45;&gt;Node5 -->
<g id="edge4" class="edge">
<title>Node1&#45;&gt;Node5</title>
<path fill="none" stroke="#191970" d="M2311.743,-64.1549C2079.5349,-61.9718 856.8056,-49.1911 483.0073,-19 480.2352,-18.7761 477.4041,-18.5157 474.5472,-18.2273"/>
<polygon fill="#191970" stroke="#191970" points="2312.0122,-67.6575 2322.0444,-64.2509 2312.0775,-60.6578 2312.0122,-67.6575"/>
</g>
<!-- Node6 -->
<g id="node6" class="node">
<title>Node6</title>
<g id="a_node6"><a xlink:href="../../d3/d7d/env_8cc.html" target="_top" xlink:title="src/env.cc">
<polygon fill="#ffffff" stroke="#000000" points="491.8711,-.5 491.8711,-18.5 552.1436,-18.5 552.1436,-.5 491.8711,-.5"/>
<text text-anchor="middle" x="522.0073" y="-6.5" font-family="Helvetica,sans-Serif" font-size="10.00" fill="#000000">src/env.cc</text>
</a>
</g>
</g>
<!-- Node1&#45;&gt;Node6 -->
<g id="edge5" class="edge">
<title>Node1&#45;&gt;Node6</title>
<path fill="none" stroke="#191970" d="M2311.8232,-64.0186C2068.5821,-60.8872 739.9592,-42.793 561.0073,-19 558.2441,-18.6326 555.3923,-18.1481 552.5469,-17.592"/>
<polygon fill="#191970" stroke="#191970" points="2311.9004,-67.5198 2321.9444,-64.1483 2311.9901,-60.5204 2311.9004,-67.5198"/>
</g>
<!-- Node7 -->
<g id="node7" class="node">
<title>Node7</title>
<g id="a_node7"><a xlink:href="../../d6/d2f/fs__event__wrap_8cc.html" target="_top" xlink:title="src/fs_event_wrap.cc">
<polygon fill="#ffffff" stroke="#000000" points="570.0444,-.5 570.0444,-18.5 679.9702,-18.5 679.9702,-.5 570.0444,-.5"/>
<text text-anchor="middle" x="625.0073" y="-6.5" font-family="Helvetica,sans-Serif" font-size="10.00" fill="#000000">src/fs_event_wrap.cc</text>
</a>
</g>
</g>
<!-- Node1&#45;&gt;Node7 -->
<g id="edge6" class="edge">
<title>Node1&#45;&gt;Node7</title>
<path fill="none" stroke="#191970" d="M2311.5993,-64.0749C2094.5046,-61.5773 1019.1252,-47.9173 689.0073,-19 686.0979,-18.7451 683.1193,-18.4441 680.1156,-18.1088"/>
<polygon fill="#191970" stroke="#191970" points="2311.8133,-67.5775 2321.8526,-64.1919 2311.8932,-60.578 2311.8133,-67.5775"/>
</g>
<!-- Node8 -->
<g id="node8" class="node">
<title>Node8</title>
<g id="a_node8"><a xlink:href="../../df/dcb/handle__wrap_8cc.html" target="_top" xlink:title="src/handle_wrap.cc">
<polygon fill="#ffffff" stroke="#000000" points="697.9312,-.5 697.9312,-18.5 800.0835,-18.5 800.0835,-.5 697.9312,-.5"/>
<text text-anchor="middle" x="749.0073" y="-6.5" font-family="Helvetica,sans-Serif" font-size="10.00" fill="#000000">src/handle_wrap.cc</text>
</a>
</g>
</g>
<!-- Node1&#45;&gt;Node8 -->
<g id="edge7" class="edge">
<title>Node1&#45;&gt;Node8</title>
<path fill="none" stroke="#191970" d="M2311.7644,-64.0331C2104.4849,-61.4017 1113.8326,-47.5149 809.0073,-19 806.1722,-18.7348 803.2676,-18.4198 800.3399,-18.0686"/>
<polygon fill="#191970" stroke="#191970" points="2311.8148,-67.5339 2321.8581,-64.1601 2311.903,-60.5344 2311.8148,-67.5339"/>
</g>
<!-- Node9 -->
<g id="node9" class="node">
<title>Node9</title>
<g id="a_node9"><a xlink:href="../../d5/d2d/inspector__agent_8cc.html" target="_top" xlink:title="src/inspector_agent.cc">
<polygon fill="#ffffff" stroke="#000000" points="817.9829,-.5 817.9829,-18.5 934.0317,-18.5 934.0317,-.5 817.9829,-.5"/>
<text text-anchor="middle" x="876.0073" y="-6.5" font-family="Helvetica,sans-Serif" font-size="10.00" fill="#000000">src/inspector_agent.cc</text>
</a>
</g>
</g>
<!-- Node1&#45;&gt;Node9 -->
<g id="edge8" class="edge">
<title>Node1&#45;&gt;Node9</title>
<path fill="none" stroke="#191970" d="M2311.7189,-63.8249C2115.3659,-60.2772 1219.8965,-43.0358 943.0073,-19 940.0813,-18.746 937.0877,-18.451 934.0678,-18.1255"/>
<polygon fill="#191970" stroke="#191970" points="2311.7773,-67.3264 2321.8386,-64.0068 2311.9032,-60.3276 2311.7773,-67.3264"/>
</g>
<!-- Node10 -->
<g id="node10" class="node">
<title>Node10</title>
<g id="a_node10"><a xlink:href="../../d1/d89/inspector__io_8cc.html" target="_top" xlink:title="src/inspector_io.cc">
<polygon fill="#ffffff" stroke="#000000" points="951.6035,-.5 951.6035,-18.5 1050.4111,-18.5 1050.4111,-.5 951.6035,-.5"/>
<text text-anchor="middle" x="1001.0073" y="-6.5" font-family="Helvetica,sans-Serif" font-size="10.00" fill="#000000">src/inspector_io.cc</text>
</a>
</g>
</g>
<!-- Node1&#45;&gt;Node10 -->
<g id="edge9" class="edge">
<title>Node1&#45;&gt;Node10</title>
<path fill="none" stroke="#191970" d="M2311.973,-63.7979C2126.1256,-60.2697 1312.2962,-43.6641 1060.0073,-19 1056.9096,-18.6972 1053.7277,-18.3348 1050.5238,-17.9311"/>
<polygon fill="#191970" stroke="#191970" points="2312.0135,-67.2992 2322.0777,-63.9886 2312.1456,-60.3005 2312.0135,-67.2992"/>
</g>
<!-- Node11 -->
<g id="node11" class="node">
<title>Node11</title>
<g id="a_node11"><a xlink:href="../../d4/da3/js__stream_8cc.html" target="_top" xlink:title="src/js_stream.cc">
<polygon fill="#ffffff" stroke="#000000" points="1068.8916,-.5 1068.8916,-18.5 1157.123,-18.5 1157.123,-.5 1068.8916,-.5"/>
<text text-anchor="middle" x="1113.0073" y="-6.5" font-family="Helvetica,sans-Serif" font-size="10.00" fill="#000000">src/js_stream.cc</text>
</a>
</g>
</g>
<!-- Node1&#45;&gt;Node11 -->
<g id="edge10" class="edge">
<title>Node1&#45;&gt;Node11</title>
<path fill="none" stroke="#191970" d="M2311.7716,-63.7286C2135.1045,-60.0569 1396.7061,-43.5078 1167.0073,-19 1163.7891,-18.6566 1160.4733,-18.2369 1157.1424,-17.7671"/>
<polygon fill="#191970" stroke="#191970" points="2311.8161,-67.2301 2321.8863,-63.9374 2311.9607,-60.2316 2311.8161,-67.2301"/>
</g>
<!-- Node12 -->
<g id="node12" class="node">
<title>Node12</title>
<g id="a_node12"><a xlink:href="../../d3/dbf/module__wrap_8cc.html" target="_top" xlink:title="src/module_wrap.cc">
<polygon fill="#ffffff" stroke="#000000" points="1175.5469,-.5 1175.5469,-18.5 1280.4678,-18.5 1280.4678,-.5 1175.5469,-.5"/>
<text text-anchor="middle" x="1228.0073" y="-6.5" font-family="Helvetica,sans-Serif" font-size="10.00" fill="#000000">src/module_wrap.cc</text>
</a>
</g>
</g>
<!-- Node1&#45;&gt;Node12 -->
<g id="edge11" class="edge">
<title>Node1&#45;&gt;Node12</title>
<path fill="none" stroke="#191970" d="M2311.5412,-63.4273C2146.0022,-58.7219 1493.4494,-39.2395 1289.0073,-19 1286.2342,-18.7255 1283.3952,-18.4087 1280.5322,-18.0611"/>
<polygon fill="#191970" stroke="#191970" points="2311.6357,-66.9313 2321.7307,-63.7157 2311.8338,-59.9341 2311.6357,-66.9313"/>
</g>
<!-- Node13 -->
<g id="node13" class="node">
<title>Node13</title>
<g id="a_node13"><a xlink:href="../../dc/dfd/node_8cc.html" target="_top" xlink:title="src/node.cc">
<polygon fill="#ffffff" stroke="#000000" points="1298.4409,-.5 1298.4409,-18.5 1365.5737,-18.5 1365.5737,-.5 1298.4409,-.5"/>
<text text-anchor="middle" x="1332.0073" y="-6.5" font-family="Helvetica,sans-Serif" font-size="10.00" fill="#000000">src/node.cc</text>
</a>
</g>
</g>
<!-- Node1&#45;&gt;Node13 -->
<g id="edge12" class="edge">
<title>Node1&#45;&gt;Node13</title>
<path fill="none" stroke="#191970" d="M2311.5647,-63.6119C2154.3791,-59.841 1560.1003,-44.1846 1374.0073,-19 1371.3403,-18.6391 1368.5929,-18.1918 1365.8403,-17.6896"/>
<polygon fill="#191970" stroke="#191970" points="2311.6167,-67.1141 2321.6972,-63.853 2311.7833,-60.116 2311.6167,-67.1141"/>
</g>
<!-- Node14 -->
<g id="node14" class="node">
<title>Node14</title>
<g id="a_node14"><a xlink:href="../../d2/deb/node__buffer_8cc.html" target="_top" xlink:title="src/node_buffer.cc">
<polygon fill="#ffffff" stroke="#000000" points="1383.2358,-.5 1383.2358,-18.5 1480.7788,-18.5 1480.7788,-.5 1383.2358,-.5"/>
<text text-anchor="middle" x="1432.0073" y="-6.5" font-family="Helvetica,sans-Serif" font-size="10.00" fill="#000000">src/node_buffer.cc</text>
</a>
</g>
</g>
<!-- Node1&#45;&gt;Node14 -->
<g id="edge13" class="edge">
<title>Node1&#45;&gt;Node14</title>
<path fill="none" stroke="#191970" d="M2311.8237,-64.0105C2190.9027,-62.1336 1805.6931,-53.6473 1489.0073,-19 1486.4144,-18.7163 1483.7602,-18.3923 1481.0839,-18.039"/>
<polygon fill="#191970" stroke="#191970" points="2311.9898,-67.5133 2322.0409,-64.1629 2312.0943,-60.514 2311.9898,-67.5133"/>
</g>
<!-- Node15 -->
<g id="node15" class="node">
<title>Node15</title>
<g id="a_node15"><a xlink:href="../../d1/d72/node__config_8cc.html" target="_top" xlink:title="src/node_config.cc">
<polygon fill="#ffffff" stroke="#000000" points="1498.3179,-.5 1498.3179,-18.5 1597.6968,-18.5 1597.6968,-.5 1498.3179,-.5"/>
<text text-anchor="middle" x="1548.0073" y="-6.5" font-family="Helvetica,sans-Serif" font-size="10.00" fill="#000000">src/node_config.cc</text>
</a>
</g>
</g>
<!-- Node1&#45;&gt;Node15 -->
<g id="edge14" class="edge">
<title>Node1&#45;&gt;Node15</title>
<path fill="none" stroke="#191970" d="M2311.6058,-63.5237C2201.4652,-60.4283 1875.1454,-49.1926 1606.0073,-19 1603.3709,-18.7042 1600.6718,-18.3706 1597.9498,-18.0097"/>
<polygon fill="#191970" stroke="#191970" points="2311.7871,-67.0299 2321.8795,-63.8062 2311.9796,-60.0325 2311.7871,-67.0299"/>
</g>
<!-- Node16 -->
<g id="node16" class="node">
<title>Node16</title>
<g id="a_node16"><a xlink:href="../../d1/d7e/node__constants_8cc.html" target="_top" xlink:title="src/node_constants.cc">
<polygon fill="#ffffff" stroke="#000000" points="1615.2588,-.5 1615.2588,-18.5 1730.7559,-18.5 1730.7559,-.5 1615.2588,-.5"/>
<text text-anchor="middle" x="1673.0073" y="-6.5" font-family="Helvetica,sans-Serif" font-size="10.00" fill="#000000">src/node_constants.cc</text>
</a>
</g>
</g>
<!-- Node1&#45;&gt;Node16 -->
<g id="edge15" class="edge">
<title>Node1&#45;&gt;Node16</title>
<path fill="none" stroke="#191970" d="M2311.8682,-62.5376C2215.7292,-57.3994 1955.7538,-42.3157 1740.0073,-19 1737.0873,-18.6844 1734.0985,-18.3399 1731.0825,-17.9751"/>
<polygon fill="#191970" stroke="#191970" points="2311.8073,-66.0392 2321.9785,-63.0735 2312.1778,-59.049 2311.8073,-66.0392"/>
</g>
<!-- Node17 -->
<g id="node17" class="node">
<title>Node17</title>
<g id="a_node17"><a xlink:href="../../d2/d17/node__contextify_8cc.html" target="_top" xlink:title="src/node_contextify.cc">
<polygon fill="#ffffff" stroke="#000000" points="1748.9082,-.5 1748.9082,-18.5 1863.1064,-18.5 1863.1064,-.5 1748.9082,-.5"/>
<text text-anchor="middle" x="1806.0073" y="-6.5" font-family="Helvetica,sans-Serif" font-size="10.00" fill="#000000">src/node_contextify.cc</text>
</a>
</g>
</g>
<!-- Node1&#45;&gt;Node17 -->
<g id="edge16" class="edge">
<title>Node1&#45;&gt;Node17</title>
<path fill="none" stroke="#191970" d="M2311.7092,-61.4833C2230.5239,-54.9502 2035.1918,-38.4995 1872.0073,-19 1869.1337,-18.6566 1866.1918,-18.2897 1863.2226,-17.9071"/>
<polygon fill="#191970" stroke="#191970" points="2311.6933,-64.9931 2321.9408,-62.3027 2312.2521,-58.0155 2311.6933,-64.9931"/>
</g>
<!-- Node18 -->
<g id="node18" class="node">
<title>Node18</title>
<g id="a_node18"><a xlink:href="../../de/d23/node__counters_8cc.html" target="_top" xlink:title="src/node_counters.cc">
<polygon fill="#ffffff" stroke="#000000" points="1881.4829,-.5 1881.4829,-18.5 1992.5317,-18.5 1992.5317,-.5 1881.4829,-.5"/>
<text text-anchor="middle" x="1937.0073" y="-6.5" font-family="Helvetica,sans-Serif" font-size="10.00" fill="#000000">src/node_counters.cc</text>
</a>
</g>
</g>
<!-- Node1&#45;&gt;Node18 -->
<g id="edge17" class="edge">
<title>Node1&#45;&gt;Node18</title>
<path fill="none" stroke="#191970" d="M2311.877,-59.7534C2247.6761,-51.7111 2113.9406,-34.7422 2001.0073,-19 1998.3373,-18.6278 1995.6053,-18.2419 1992.8466,-17.8481"/>
<polygon fill="#191970" stroke="#191970" points="2311.58,-63.2434 2321.9371,-61.0118 2312.4489,-56.2976 2311.58,-63.2434"/>
</g>
<!-- Node19 -->
<g id="node19" class="node">
<title>Node19</title>
<g id="a_node19"><a xlink:href="../../d5/d61/node__crypto_8cc.html" target="_top" xlink:title="src/node_crypto.cc">
<polygon fill="#ffffff" stroke="#000000" points="2010.0444,-.5 2010.0444,-18.5 2109.9702,-18.5 2109.9702,-.5 2010.0444,-.5"/>
<text text-anchor="middle" x="2060.0073" y="-6.5" font-family="Helvetica,sans-Serif" font-size="10.00" fill="#000000">src/node_crypto.cc</text>
</a>
</g>
</g>
<!-- Node1&#45;&gt;Node19 -->
<g id="edge18" class="edge">
<title>Node1&#45;&gt;Node19</title>
<path fill="none" stroke="#191970" d="M2312.0257,-57.2966C2259.5352,-47.3415 2164.8371,-29.3815 2107.6621,-18.538"/>
<polygon fill="#191970" stroke="#191970" points="2311.4603,-60.7517 2321.9374,-59.1764 2312.7647,-53.8743 2311.4603,-60.7517"/>
</g>
<!-- Node20 -->
<g id="node20" class="node">
<title>Node20</title>
<g id="a_node20"><a xlink:href="../../d6/dad/node__dtrace_8cc.html" target="_top" xlink:title="src/node_dtrace.cc">
<polygon fill="#ffffff" stroke="#000000" points="2127.7637,-.5 2127.7637,-18.5 2228.251,-18.5 2228.251,-.5 2127.7637,-.5"/>
<text text-anchor="middle" x="2178.0073" y="-6.5" font-family="Helvetica,sans-Serif" font-size="10.00" fill="#000000">src/node_dtrace.cc</text>
</a>
</g>
</g>
<!-- Node1&#45;&gt;Node20 -->
<g id="edge19" class="edge">
<title>Node1&#45;&gt;Node20</title>
<path fill="none" stroke="#191970" d="M2312.1146,-52.3831C2280.1723,-42.169 2235.1765,-27.7808 2206.299,-18.5467"/>
<polygon fill="#191970" stroke="#191970" points="2311.3988,-55.8288 2321.9897,-55.5409 2313.5309,-49.1614 2311.3988,-55.8288"/>
</g>
<!-- Node21 -->
<g id="node21" class="node">
<title>Node21</title>
<g id="a_node21"><a xlink:href="../../dd/daa/node__file_8cc.html" target="_top" xlink:title="src/node_file.cc">
<polygon fill="#ffffff" stroke="#000000" points="2246.2686,-.5 2246.2686,-18.5 2331.7461,-18.5 2331.7461,-.5 2246.2686,-.5"/>
<text text-anchor="middle" x="2289.0073" y="-6.5" font-family="Helvetica,sans-Serif" font-size="10.00" fill="#000000">src/node_file.cc</text>
</a>
</g>
</g>
<!-- Node1&#45;&gt;Node21 -->
<g id="edge20" class="edge">
<title>Node1&#45;&gt;Node21</title>
<path fill="none" stroke="#191970" d="M2332.3552,-48.5841C2321.6343,-38.9177 2308.3218,-26.9147 2299.2991,-18.7795"/>
<polygon fill="#191970" stroke="#191970" points="2330.1638,-51.3209 2339.9344,-55.4179 2334.8512,-46.122 2330.1638,-51.3209"/>
</g>
<!-- Node22 -->
<g id="node22" class="node">
<title>Node22</title>
<g id="a_node22"><a xlink:href="../../d1/d90/node__http__parser_8cc.html" target="_top" xlink:title="src/node_http_parser.cc">
<polygon fill="#ffffff" stroke="#000000" points="2349.6406,-.5 2349.6406,-18.5 2472.374,-18.5 2472.374,-.5 2349.6406,-.5"/>
<text text-anchor="middle" x="2411.0073" y="-6.5" font-family="Helvetica,sans-Serif" font-size="10.00" fill="#000000">src/node_http_parser.cc</text>
</a>
</g>
</g>
<!-- Node1&#45;&gt;Node22 -->
<g id="edge21" class="edge">
<title>Node1&#45;&gt;Node22</title>
<path fill="none" stroke="#191970" d="M2367.6594,-48.5841C2378.3804,-38.9177 2391.6929,-26.9147 2400.7156,-18.7795"/>
<polygon fill="#191970" stroke="#191970" points="2365.1634,-46.122 2360.0802,-55.4179 2369.8509,-51.3209 2365.1634,-46.122"/>
</g>
<!-- Node23 -->
<g id="node23" class="node">
<title>Node23</title>
<g id="a_node23"><a xlink:href="../../dc/de7/node__lttng_8cc.html" target="_top" xlink:title="src/node_lttng.cc">
<polygon fill="#ffffff" stroke="#000000" points="2490.2095,-.5 2490.2095,-18.5 2581.8052,-18.5 2581.8052,-.5 2490.2095,-.5"/>
<text text-anchor="middle" x="2536.0073" y="-6.5" font-family="Helvetica,sans-Serif" font-size="10.00" fill="#000000">src/node_lttng.cc</text>
</a>
</g>
</g>
<!-- Node1&#45;&gt;Node23 -->
<g id="edge22" class="edge">
<title>Node1&#45;&gt;Node23</title>
<path fill="none" stroke="#191970" d="M2388.0179,-53.2603C2422.6589,-43.017 2473.1835,-28.0769 2505.3209,-18.5739"/>
<polygon fill="#191970" stroke="#191970" points="2386.8538,-49.9547 2378.2567,-56.1467 2388.8388,-56.6673 2386.8538,-49.9547"/>
</g>
<!-- Node24 -->
<g id="node24" class="node">
<title>Node24</title>
<g id="a_node24"><a xlink:href="../../d2/da2/node__os_8cc.html" target="_top" xlink:title="src/node_os.cc">
<polygon fill="#ffffff" stroke="#000000" points="2599.3794,-.5 2599.3794,-18.5 2682.6353,-18.5 2682.6353,-.5 2599.3794,-.5"/>
<text text-anchor="middle" x="2641.0073" y="-6.5" font-family="Helvetica,sans-Serif" font-size="10.00" fill="#000000">src/node_os.cc</text>
</a>
</g>
</g>
<!-- Node1&#45;&gt;Node24 -->
<g id="edge23" class="edge">
<title>Node1&#45;&gt;Node24</title>
<path fill="none" stroke="#191970" d="M2388.0591,-57.3301C2435.559,-48.3766 2519.2918,-32.5828 2591.0073,-19 2593.6986,-18.4903 2596.4713,-17.9647 2599.2661,-17.4346"/>
<polygon fill="#191970" stroke="#191970" points="2387.3861,-53.8952 2378.2074,-59.1869 2388.6827,-60.7741 2387.3861,-53.8952"/>
</g>
<!-- Node25 -->
<g id="node25" class="node">
<title>Node25</title>
<g id="a_node25"><a xlink:href="../../da/d00/node__perf_8cc.html" target="_top" xlink:title="src/node_perf.cc">
<polygon fill="#ffffff" stroke="#000000" points="2701.0444,-.5 2701.0444,-18.5 2790.9702,-18.5 2790.9702,-.5 2701.0444,-.5"/>
<text text-anchor="middle" x="2746.0073" y="-6.5" font-family="Helvetica,sans-Serif" font-size="10.00" fill="#000000">src/node_perf.cc</text>
</a>
</g>
</g>
<!-- Node1&#45;&gt;Node25 -->
<g id="edge24" class="edge">
<title>Node1&#45;&gt;Node25</title>
<path fill="none" stroke="#191970" d="M2388.2895,-59.9378C2451.5995,-52.2739 2582.0474,-35.9794 2692.0073,-19 2694.9236,-18.5497 2697.9255,-18.0691 2700.9494,-17.5722"/>
<polygon fill="#191970" stroke="#191970" points="2387.5018,-56.5073 2377.9929,-61.1797 2388.3401,-63.457 2387.5018,-56.5073"/>
</g>
<!-- Node26 -->
<g id="node26" class="node">
<title>Node26</title>
<g id="a_node26"><a xlink:href="../../dc/d3a/node__serdes_8cc.html" target="_top" xlink:title="src/node_serdes.cc">
<polygon fill="#ffffff" stroke="#000000" points="2808.6528,-.5 2808.6528,-18.5 2911.3618,-18.5 2911.3618,-.5 2808.6528,-.5"/>
<text text-anchor="middle" x="2860.0073" y="-6.5" font-family="Helvetica,sans-Serif" font-size="10.00" fill="#000000">src/node_serdes.cc</text>
</a>
</g>
</g>
<!-- Node1&#45;&gt;Node26 -->
<g id="edge25" class="edge">
<title>Node1&#45;&gt;Node26</title>
<path fill="none" stroke="#191970" d="M2388.2411,-61.3651C2465.9603,-54.8315 2647.913,-38.7141 2800.0073,-19 2802.8312,-18.634 2805.7269,-18.2395 2808.6478,-17.8266"/>
<polygon fill="#191970" stroke="#191970" points="2387.654,-57.9019 2377.9803,-62.2228 2388.2371,-64.8775 2387.654,-57.9019"/>
</g>
<!-- Node27 -->
<g id="node27" class="node">
<title>Node27</title>
<g id="a_node27"><a xlink:href="../../dc/de6/node__stat__watcher_8cc.html" target="_top" xlink:title="src/node_stat_watcher.cc">
<polygon fill="#ffffff" stroke="#000000" points="2929.5864,-.5 2929.5864,-18.5 3058.4282,-18.5 3058.4282,-.5 2929.5864,-.5"/>
<text text-anchor="middle" x="2994.0073" y="-6.5" font-family="Helvetica,sans-Serif" font-size="10.00" fill="#000000">src/node_stat_watcher.cc</text>
</a>
</g>
</g>
<!-- Node1&#45;&gt;Node27 -->
<g id="edge26" class="edge">
<title>Node1&#45;&gt;Node27</title>
<path fill="none" stroke="#191970" d="M2388.1108,-62.0932C2479.8233,-56.1618 2720.0754,-39.8011 2920.0073,-19 2923.0993,-18.6783 2926.2619,-18.3334 2929.4547,-17.9726"/>
<polygon fill="#191970" stroke="#191970" points="2387.682,-58.6134 2377.9274,-62.7483 2388.1315,-65.599 2387.682,-58.6134"/>
</g>
<!-- Node28 -->
<g id="node28" class="node">
<title>Node28</title>
<g id="a_node28"><a xlink:href="../../df/dcb/node__url_8cc.html" target="_top" xlink:title="src/node_url.cc">
<polygon fill="#ffffff" stroke="#000000" points="3076.1035,-.5 3076.1035,-18.5 3159.9111,-18.5 3159.9111,-.5 3076.1035,-.5"/>
<text text-anchor="middle" x="3118.0073" y="-6.5" font-family="Helvetica,sans-Serif" font-size="10.00" fill="#000000">src/node_url.cc</text>
</a>
</g>
</g>
<!-- Node1&#45;&gt;Node28 -->
<g id="edge27" class="edge">
<title>Node1&#45;&gt;Node28</title>
<path fill="none" stroke="#191970" d="M2388.1613,-63.6999C2495.4623,-61.1011 2808.8673,-51.1138 3067.0073,-19 3069.9567,-18.6331 3072.9932,-18.2029 3076.0453,-17.7319"/>
<polygon fill="#191970" stroke="#191970" points="2388.0522,-60.2014 2378.1373,-63.9355 2388.2168,-67.1995 2388.0522,-60.2014"/>
</g>
<!-- Node29 -->
<g id="node29" class="node">
<title>Node29</title>
<g id="a_node29"><a xlink:href="../../da/dc5/node__util_8cc.html" target="_top" xlink:title="src/node_util.cc">
<polygon fill="#ffffff" stroke="#000000" points="3178.2686,-.5 3178.2686,-18.5 3263.7461,-18.5 3263.7461,-.5 3178.2686,-.5"/>
<text text-anchor="middle" x="3221.0073" y="-6.5" font-family="Helvetica,sans-Serif" font-size="10.00" fill="#000000">src/node_util.cc</text>
</a>
</g>
</g>
<!-- Node1&#45;&gt;Node29 -->
<g id="edge28" class="edge">
<title>Node1&#45;&gt;Node29</title>
<path fill="none" stroke="#191970" d="M2388.2951,-64.0738C2505.5179,-62.4046 2869.713,-54.5116 3169.0073,-19 3172.0147,-18.6432 3175.1108,-18.2205 3178.2228,-17.7548"/>
<polygon fill="#191970" stroke="#191970" points="2387.9998,-60.5773 2378.0481,-64.2125 2388.0947,-67.5767 2387.9998,-60.5773"/>
</g>
<!-- Node30 -->
<g id="node30" class="node">
<title>Node30</title>
<g id="a_node30"><a xlink:href="../../d6/d35/node__v8_8cc.html" target="_top" xlink:title="src/node_v8.cc">
<polygon fill="#ffffff" stroke="#000000" points="3281.3794,-.5 3281.3794,-18.5 3364.6353,-18.5 3364.6353,-.5 3281.3794,-.5"/>
<text text-anchor="middle" x="3323.0073" y="-6.5" font-family="Helvetica,sans-Serif" font-size="10.00" fill="#000000">src/node_v8.cc</text>
</a>
</g>
</g>
<!-- Node1&#45;&gt;Node30 -->
<g id="edge29" class="edge">
<title>Node1&#45;&gt;Node30</title>
<path fill="none" stroke="#191970" d="M2388.284,-63.3216C2539.7408,-58.549 3097.3981,-39.9092 3273.0073,-19 3275.7272,-18.6761 3278.5216,-18.2914 3281.3325,-17.8653"/>
<polygon fill="#191970" stroke="#191970" points="2387.9774,-59.8294 2378.092,-63.6411 2388.1967,-66.826 2387.9774,-59.8294"/>
</g>
<!-- Node31 -->
<g id="node31" class="node">
<title>Node31</title>
<g id="a_node31"><a xlink:href="../../d9/d0d/node__zlib_8cc.html" target="_top" xlink:title="src/node_zlib.cc">
<polygon fill="#ffffff" stroke="#000000" points="3382.1577,-.5 3382.1577,-18.5 3469.8569,-18.5 3469.8569,-.5 3382.1577,-.5"/>
<text text-anchor="middle" x="3426.0073" y="-6.5" font-family="Helvetica,sans-Serif" font-size="10.00" fill="#000000">src/node_zlib.cc</text>
</a>
</g>
</g>
<!-- Node1&#45;&gt;Node31 -->
<g id="edge30" class="edge">
<title>Node1&#45;&gt;Node31</title>
<path fill="none" stroke="#191970" d="M2388.6904,-63.488C2550.9864,-59.1331 3177.6002,-41.1998 3374.0073,-19 3376.6519,-18.7011 3379.3646,-18.348 3382.096,-17.9568"/>
<polygon fill="#191970" stroke="#191970" points="2388.1525,-60.001 2378.2494,-63.7666 2388.3392,-66.9985 2388.1525,-60.001"/>
</g>
<!-- Node32 -->
<g id="node32" class="node">
<title>Node32</title>
<g id="a_node32"><a xlink:href="../../d7/d2c/pipe__wrap_8cc.html" target="_top" xlink:title="src/pipe_wrap.cc">
<polygon fill="#ffffff" stroke="#000000" points="3487.4927,-.5 3487.4927,-18.5 3578.522,-18.5 3578.522,-.5 3487.4927,-.5"/>
<text text-anchor="middle" x="3533.0073" y="-6.5" font-family="Helvetica,sans-Serif" font-size="10.00" fill="#000000">src/pipe_wrap.cc</text>
</a>
</g>
</g>
<!-- Node1&#45;&gt;Node32 -->
<g id="edge31" class="edge">
<title>Node1&#45;&gt;Node32</title>
<path fill="none" stroke="#191970" d="M2388.1442,-63.65C2559.6375,-59.7225 3260.5054,-42.5161 3479.0073,-19 3481.752,-18.7046 3484.5678,-18.3542 3487.4033,-17.9651"/>
<polygon fill="#191970" stroke="#191970" points="2387.9957,-60.1524 2378.0779,-63.8792 2388.1551,-67.1506 2387.9957,-60.1524"/>
</g>
<!-- Node33 -->
<g id="node33" class="node">
<title>Node33</title>
<g id="a_node33"><a xlink:href="../../d8/d14/process__wrap_8cc.html" target="_top" xlink:title="src/process_wrap.cc">
<polygon fill="#ffffff" stroke="#000000" points="3596.4385,-.5 3596.4385,-18.5 3703.5762,-18.5 3703.5762,-.5 3596.4385,-.5"/>
<text text-anchor="middle" x="3650.0073" y="-6.5" font-family="Helvetica,sans-Serif" font-size="10.00" fill="#000000">src/process_wrap.cc</text>
</a>
</g>
</g>
<!-- Node1&#45;&gt;Node33 -->
<g id="edge32" class="edge">
<title>Node1&#45;&gt;Node33</title>
<path fill="none" stroke="#191970" d="M2388.2391,-63.69C2569.8474,-59.7513 3346.5806,-41.8561 3588.0073,-19 3590.7176,-18.7434 3593.4898,-18.4463 3596.286,-18.1191"/>
<polygon fill="#191970" stroke="#191970" points="2388.0255,-60.1937 2378.1034,-63.9087 2388.1766,-67.1921 2388.0255,-60.1937"/>
</g>
<!-- Node34 -->
<g id="node34" class="node">
<title>Node34</title>
<g id="a_node34"><a xlink:href="../../d2/d9f/signal__wrap_8cc.html" target="_top" xlink:title="src/signal_wrap.cc">
<polygon fill="#ffffff" stroke="#000000" points="3721.8818,-.5 3721.8818,-18.5 3820.1328,-18.5 3820.1328,-.5 3721.8818,-.5"/>
<text text-anchor="middle" x="3771.0073" y="-6.5" font-family="Helvetica,sans-Serif" font-size="10.00" fill="#000000">src/signal_wrap.cc</text>
</a>
</g>
</g>
<!-- Node1&#45;&gt;Node34 -->
<g id="edge33" class="edge">
<title>Node1&#45;&gt;Node34</title>
<path fill="none" stroke="#191970" d="M2388.3251,-63.8897C2581.0396,-60.7183 3445.6142,-45.2511 3713.0073,-19 3715.8507,-18.7209 3718.7659,-18.3891 3721.7032,-18.0197"/>
<polygon fill="#191970" stroke="#191970" points="2388.0654,-60.3934 2378.124,-64.0564 2388.1799,-67.3925 2388.0654,-60.3934"/>
</g>
<!-- Node35 -->
<g id="node35" class="node">
<title>Node35</title>
<g id="a_node35"><a xlink:href="../../d6/d00/stream__base_8cc.html" target="_top" xlink:title="src/stream_base.cc">
<polygon fill="#ffffff" stroke="#000000" points="3837.6602,-.5 3837.6602,-18.5 3940.3545,-18.5 3940.3545,-.5 3837.6602,-.5"/>
<text text-anchor="middle" x="3889.0073" y="-6.5" font-family="Helvetica,sans-Serif" font-size="10.00" fill="#000000">src/stream_base.cc</text>
</a>
</g>
</g>
<!-- Node1&#45;&gt;Node35 -->
<g id="edge34" class="edge">
<title>Node1&#45;&gt;Node35</title>
<path fill="none" stroke="#191970" d="M2388.3055,-63.9778C2590.6759,-61.1188 3537.2258,-46.4768 3829.0073,-19 3831.7373,-18.7429 3834.5317,-18.4401 3837.3492,-18.1034"/>
<polygon fill="#191970" stroke="#191970" points="2388.1154,-60.4801 2378.1654,-64.12 2388.2135,-67.4794 2388.1154,-60.4801"/>
</g>
<!-- Node36 -->
<g id="node36" class="node">
<title>Node36</title>
<g id="a_node36"><a xlink:href="../../dc/d29/stream__wrap_8cc.html" target="_top" xlink:title="src/stream_wrap.cc">
<polygon fill="#ffffff" stroke="#000000" points="3958.665,-.5 3958.665,-18.5 4061.3496,-18.5 4061.3496,-.5 3958.665,-.5"/>
<text text-anchor="middle" x="4010.0073" y="-6.5" font-family="Helvetica,sans-Serif" font-size="10.00" fill="#000000">src/stream_wrap.cc</text>
</a>
</g>
</g>
<!-- Node1&#45;&gt;Node36 -->
<g id="edge35" class="edge">
<title>Node1&#45;&gt;Node36</title>
<path fill="none" stroke="#191970" d="M2388.3134,-64.0664C2600.3419,-61.5665 3631.9865,-48.0797 3949.0073,-19 3952.1025,-18.7161 3955.2793,-18.3746 3958.4794,-17.9922"/>
<polygon fill="#191970" stroke="#191970" points="2387.9635,-60.5701 2378.0051,-64.1868 2388.0454,-67.5696 2387.9635,-60.5701"/>
</g>
<!-- Node37 -->
<g id="node37" class="node">
<title>Node37</title>
<g id="a_node37"><a xlink:href="../../d3/dfb/tcp__wrap_8cc.html" target="_top" xlink:title="src/tcp_wrap.cc">
<polygon fill="#ffffff" stroke="#000000" points="4079.2759,-.5 4079.2759,-18.5 4164.7388,-18.5 4164.7388,-.5 4079.2759,-.5"/>
<text text-anchor="middle" x="4122.0073" y="-6.5" font-family="Helvetica,sans-Serif" font-size="10.00" fill="#000000">src/tcp_wrap.cc</text>
</a>
</g>
</g>
<!-- Node1&#45;&gt;Node37 -->
<g id="edge36" class="edge">
<title>Node1&#45;&gt;Node37</title>
<path fill="none" stroke="#191970" d="M2388.39,-64.2904C2610.0084,-62.9582 3727.9844,-54.5517 4070.0073,-19 4073.0196,-18.6869 4076.1193,-18.2966 4079.2339,-17.8544"/>
<polygon fill="#191970" stroke="#191970" points="2388.2093,-60.7913 2378.2301,-64.3502 2388.2506,-67.7912 2388.2093,-60.7913"/>
</g>
<!-- Node38 -->
<g id="node38" class="node">
<title>Node38</title>
<g id="a_node38"><a xlink:href="../../d7/dc1/timer__wrap_8cc.html" target="_top" xlink:title="src/timer_wrap.cc">
<polygon fill="#ffffff" stroke="#000000" points="4182.835,-.5 4182.835,-18.5 4277.1797,-18.5 4277.1797,-.5 4182.835,-.5"/>
<text text-anchor="middle" x="4230.0073" y="-6.5" font-family="Helvetica,sans-Serif" font-size="10.00" fill="#000000">src/timer_wrap.cc</text>
</a>
</g>
</g>
<!-- Node1&#45;&gt;Node38 -->
<g id="edge37" class="edge">
<title>Node1&#45;&gt;Node38</title>
<path fill="none" stroke="#191970" d="M2388.1322,-64.2929C2616.8902,-62.9377 3809.7161,-54.2605 4174.0073,-19 4176.8537,-18.7245 4179.7739,-18.3895 4182.7146,-18.012"/>
<polygon fill="#191970" stroke="#191970" points="2387.9543,-60.7938 2377.9748,-64.352 2387.995,-67.7936 2387.9543,-60.7938"/>
</g>
<!-- Node39 -->
<g id="node39" class="node">
<title>Node39</title>
<g id="a_node39"><a xlink:href="../../de/d6d/tty__wrap_8cc.html" target="_top" xlink:title="src/tty_wrap.cc">
<polygon fill="#ffffff" stroke="#000000" points="4295.6675,-.5 4295.6675,-18.5 4378.3472,-18.5 4378.3472,-.5 4295.6675,-.5"/>
<text text-anchor="middle" x="4337.0073" y="-6.5" font-family="Helvetica,sans-Serif" font-size="10.00" fill="#000000">src/tty_wrap.cc</text>
</a>
</g>
</g>
<!-- Node1&#45;&gt;Node39 -->
<g id="edge38" class="edge">
<title>Node1&#45;&gt;Node39</title>
<path fill="none" stroke="#191970" d="M2388.2103,-64.4399C2625.3246,-63.9402 3898.4251,-59.3882 4286.0073,-19 4289.1426,-18.6733 4292.3739,-18.2583 4295.6163,-17.7854"/>
<polygon fill="#191970" stroke="#191970" points="2388.0115,-60.9401 2378.0185,-64.4601 2388.0255,-67.9401 2388.0115,-60.9401"/>
</g>
<!-- Node40 -->
<g id="node40" class="node">
<title>Node40</title>
<g id="a_node40"><a xlink:href="../../d1/d05/udp__wrap_8cc.html" target="_top" xlink:title="src/udp_wrap.cc">
<polygon fill="#ffffff" stroke="#000000" points="4396.6035,-.5 4396.6035,-18.5 4485.4111,-18.5 4485.4111,-.5 4396.6035,-.5"/>
<text text-anchor="middle" x="4441.0073" y="-6.5" font-family="Helvetica,sans-Serif" font-size="10.00" fill="#000000">src/udp_wrap.cc</text>
</a>
</g>
</g>
<!-- Node1&#45;&gt;Node40 -->
<g id="edge39" class="edge">
<title>Node1&#45;&gt;Node40</title>
<path fill="none" stroke="#191970" d="M2388.2584,-64.4392C2632.6186,-63.9315 3977.9153,-59.3184 4387.0073,-19 4390.1334,-18.6919 4393.3509,-18.3054 4396.5842,-17.8658"/>
<polygon fill="#191970" stroke="#191970" points="2388.09,-60.9395 2378.0969,-64.4593 2388.1038,-67.9394 2388.09,-60.9395"/>
</g>
<!-- Node41 -->
<g id="node41" class="node">
<title>Node41</title>
<g id="a_node41"><a xlink:href="../../d5/d6e/uv_8cc.html" target="_top" xlink:title="src/uv.cc">
<polygon fill="#ffffff" stroke="#000000" points="4503.6519,-.5 4503.6519,-18.5 4558.3628,-18.5 4558.3628,-.5 4503.6519,-.5"/>
<text text-anchor="middle" x="4531.0073" y="-6.5" font-family="Helvetica,sans-Serif" font-size="10.00" fill="#000000">src/uv.cc</text>
</a>
</g>
</g>
<!-- Node1&#45;&gt;Node41 -->
<g id="edge40" class="edge">
<title>Node1&#45;&gt;Node41</title>
<path fill="none" stroke="#191970" d="M2388.2857,-64.2183C2658.7952,-62.158 4277.7736,-48.6507 4494.0073,-19 4497.0297,-18.5856 4500.1606,-18.0133 4503.2634,-17.3534"/>
<polygon fill="#191970" stroke="#191970" points="2388.1457,-60.7192 2378.1725,-64.2948 2388.1987,-67.719 2388.1457,-60.7192"/>
</g>
</g>
</svg>
