<?xml version="1.0" encoding="UTF-8" standalone="no"?>
<!DOCTYPE svg PUBLIC "-//W3C//DTD SVG 1.1//EN"
 "http://www.w3.org/Graphics/SVG/1.1/DTD/svg11.dtd">
<!-- Generated by graphviz version 2.40.1 (20161225.0304)
 -->
<!-- Title: src/inspector_socket.cc Pages: 1 -->
<svg width="488pt" height="137pt"
 viewBox="0.00 0.00 488.19 137.00" xmlns="http://www.w3.org/2000/svg" xmlns:xlink="http://www.w3.org/1999/xlink">
<g id="graph0" class="graph" transform="scale(1 1) rotate(0) translate(4 133)">
<title>src/inspector_socket.cc</title>
<polygon fill="#ffffff" stroke="transparent" points="-4,4 -4,-133 484.187,-133 484.187,4 -4,4"/>
<!-- Node0 -->
<g id="node1" class="node">
<title>Node0</title>
<polygon fill="#bfbfbf" stroke="#000000" points="169.8276,-110.5 169.8276,-128.5 289.7534,-128.5 289.7534,-110.5 169.8276,-110.5"/>
<text text-anchor="middle" x="229.7905" y="-116.5" font-family="Helvetica,sans-Serif" font-size="10.00" fill="#000000">src/inspector_socket.cc</text>
</g>
<!-- Node1 -->
<g id="node2" class="node">
<title>Node1</title>
<g id="a_node2"><a xlink:href="../../d4/dee/inspector__socket_8h.html" target="_top" xlink:title="inspector_socket.h">
<polygon fill="#ffffff" stroke="#000000" points="180.1011,-55.5 180.1011,-73.5 279.48,-73.5 279.48,-55.5 180.1011,-55.5"/>
<text text-anchor="middle" x="229.7905" y="-61.5" font-family="Helvetica,sans-Serif" font-size="10.00" fill="#000000">inspector_socket.h</text>
</a>
</g>
</g>
<!-- Node0&#45;&gt;Node1 -->
<g id="edge1" class="edge">
<title>Node0&#45;&gt;Node1</title>
<path fill="none" stroke="#191970" d="M229.7905,-110.4179C229.7905,-103.2164 229.7905,-92.8962 229.7905,-83.8632"/>
<polygon fill="#191970" stroke="#191970" points="233.2906,-83.7794 229.7905,-73.7795 226.2906,-83.7795 233.2906,-83.7794"/>
</g>
<!-- Node3 -->
<g id="node4" class="node">
<title>Node3</title>
<g id="a_node4"><a xlink:href="../../d8/d3c/util_8h.html" target="_top" xlink:title="util.h">
<polygon fill="#ffffff" stroke="#000000" points="69.229,-.5 69.229,-18.5 106.3521,-18.5 106.3521,-.5 69.229,-.5"/>
<text text-anchor="middle" x="87.7905" y="-6.5" font-family="Helvetica,sans-Serif" font-size="10.00" fill="#000000">util.h</text>
</a>
</g>
</g>
<!-- Node0&#45;&gt;Node3 -->
<g id="edge8" class="edge">
<title>Node0&#45;&gt;Node3</title>
<path fill="none" stroke="#191970" d="M213.2432,-110.4219C198.0418,-101.7994 175.1541,-88.0919 156.7905,-74 137.4335,-59.1457 117.2678,-39.7687 103.773,-26.1448"/>
<polygon fill="#191970" stroke="#191970" points="106.1488,-23.5683 96.6548,-18.8657 101.1441,-28.4625 106.1488,-23.5683"/>
</g>
<!-- Node4 -->
<g id="node5" class="node">
<title>Node4</title>
<g id="a_node5"><a xlink:href="../../d5/d8c/util-inl_8h.html" target="_top" xlink:title="util&#45;inl.h">
<polygon fill="#ffffff" stroke="#000000" points="124.5615,-.5 124.5615,-18.5 175.0195,-18.5 175.0195,-.5 124.5615,-.5"/>
<text text-anchor="middle" x="149.7905" y="-6.5" font-family="Helvetica,sans-Serif" font-size="10.00" fill="#000000">util&#45;inl.h</text>
</a>
</g>
</g>
<!-- Node0&#45;&gt;Node4 -->
<g id="edge9" class="edge">
<title>Node0&#45;&gt;Node4</title>
<path fill="none" stroke="#191970" d="M213.0401,-110.3915C199.8205,-102.407 181.8252,-89.6439 170.7905,-74 161.245,-60.4671 155.8498,-42.3391 152.9255,-28.7479"/>
<polygon fill="#191970" stroke="#191970" points="156.3044,-27.7779 151.0135,-18.5988 149.4255,-29.0739 156.3044,-27.7779"/>
</g>
<!-- Node7 -->
<g id="node8" class="node">
<title>Node7</title>
<polygon fill="#ffffff" stroke="#bfbfbf" points="395.1748,-.5 395.1748,-18.5 438.4063,-18.5 438.4063,-.5 395.1748,-.5"/>
<text text-anchor="middle" x="416.7905" y="-6.5" font-family="Helvetica,sans-Serif" font-size="10.00" fill="#000000">vector</text>
</g>
<!-- Node0&#45;&gt;Node7 -->
<g id="edge15" class="edge">
<title>Node0&#45;&gt;Node7</title>
<path fill="none" stroke="#191970" d="M242.3484,-110.4497C260.5496,-97.4953 295.5103,-73.2205 326.7905,-55 346.7038,-43.4006 369.9323,-31.7007 387.8027,-23.0701"/>
<polygon fill="#191970" stroke="#191970" points="389.6135,-26.0837 397.1243,-18.6112 386.5929,-19.769 389.6135,-26.0837"/>
</g>
<!-- Node8 -->
<g id="node9" class="node">
<title>Node8</title>
<g id="a_node9"><a xlink:href="../../d2/d6f/base64_8h.html" target="_top" xlink:title="base64.h">
<polygon fill="#ffffff" stroke="#000000" points="28.2168,-55.5 28.2168,-73.5 85.3643,-73.5 85.3643,-55.5 28.2168,-55.5"/>
<text text-anchor="middle" x="56.7905" y="-61.5" font-family="Helvetica,sans-Serif" font-size="10.00" fill="#000000">base64.h</text>
</a>
</g>
</g>
<!-- Node0&#45;&gt;Node8 -->
<g id="edge10" class="edge">
<title>Node0&#45;&gt;Node8</title>
<path fill="none" stroke="#191970" d="M201.2231,-110.4179C172.2127,-101.1949 127.1125,-86.8567 95.0336,-76.6582"/>
<polygon fill="#191970" stroke="#191970" points="95.7033,-73.1985 85.1129,-73.5042 93.5824,-79.8695 95.7033,-73.1985"/>
</g>
<!-- Node10 -->
<g id="node11" class="node">
<title>Node10</title>
<polygon fill="#ffffff" stroke="#bfbfbf" points="335.936,-55.5 335.936,-73.5 413.645,-73.5 413.645,-55.5 335.936,-55.5"/>
<text text-anchor="middle" x="374.7905" y="-61.5" font-family="Helvetica,sans-Serif" font-size="10.00" fill="#000000">openssl/sha.h</text>
</g>
<!-- Node0&#45;&gt;Node10 -->
<g id="edge13" class="edge">
<title>Node0&#45;&gt;Node10</title>
<path fill="none" stroke="#191970" d="M253.7343,-110.4179C277.662,-101.3419 314.649,-87.3123 341.4437,-77.1488"/>
<polygon fill="#191970" stroke="#191970" points="342.7025,-80.4147 350.8112,-73.5956 340.2199,-73.8697 342.7025,-80.4147"/>
</g>
<!-- Node11 -->
<g id="node12" class="node">
<title>Node11</title>
<polygon fill="#ffffff" stroke="#bfbfbf" points="431.394,-55.5 431.394,-73.5 480.187,-73.5 480.187,-55.5 431.394,-55.5"/>
<text text-anchor="middle" x="455.7905" y="-61.5" font-family="Helvetica,sans-Serif" font-size="10.00" fill="#000000">string.h</text>
</g>
<!-- Node0&#45;&gt;Node11 -->
<g id="edge14" class="edge">
<title>Node0&#45;&gt;Node11</title>
<path fill="none" stroke="#191970" d="M270.5976,-110.4872C307.6175,-102.1755 363.9234,-89.1982 421.3454,-74.2942"/>
<polygon fill="#191970" stroke="#191970" points="422.5282,-77.6027 431.3188,-71.6887 420.7589,-70.83 422.5282,-77.6027"/>
</g>
<!-- Node2 -->
<g id="node3" class="node">
<title>Node2</title>
<polygon fill="#ffffff" stroke="#bfbfbf" points="192.6011,-.5 192.6011,-18.5 266.98,-18.5 266.98,-.5 192.6011,-.5"/>
<text text-anchor="middle" x="229.7905" y="-6.5" font-family="Helvetica,sans-Serif" font-size="10.00" fill="#000000">http_parser.h</text>
</g>
<!-- Node1&#45;&gt;Node2 -->
<g id="edge2" class="edge">
<title>Node1&#45;&gt;Node2</title>
<path fill="none" stroke="#191970" d="M229.7905,-55.4179C229.7905,-48.2164 229.7905,-37.8962 229.7905,-28.8632"/>
<polygon fill="#191970" stroke="#191970" points="233.2906,-28.7794 229.7905,-18.7795 226.2906,-28.7795 233.2906,-28.7794"/>
</g>
<!-- Node1&#45;&gt;Node3 -->
<g id="edge3" class="edge">
<title>Node1&#45;&gt;Node3</title>
<path fill="none" stroke="#191970" d="M206.3421,-55.4179C181.6153,-45.8406 142.6476,-30.7474 116.1948,-20.5016"/>
<polygon fill="#191970" stroke="#191970" points="117.3141,-17.1819 106.725,-16.8338 114.7858,-23.7094 117.3141,-17.1819"/>
</g>
<!-- Node1&#45;&gt;Node4 -->
<g id="edge4" class="edge">
<title>Node1&#45;&gt;Node4</title>
<path fill="none" stroke="#191970" d="M216.5802,-55.4179C204.3051,-46.9788 185.8007,-34.257 171.3797,-24.3426"/>
<polygon fill="#191970" stroke="#191970" points="173.2438,-21.3768 163.0205,-18.5956 169.2781,-27.1451 173.2438,-21.3768"/>
</g>
<!-- Node5 -->
<g id="node6" class="node">
<title>Node5</title>
<polygon fill="#ffffff" stroke="#bfbfbf" points="284.7085,-.5 284.7085,-18.5 318.8726,-18.5 318.8726,-.5 284.7085,-.5"/>
<text text-anchor="middle" x="301.7905" y="-6.5" font-family="Helvetica,sans-Serif" font-size="10.00" fill="#000000">uv.h</text>
</g>
<!-- Node1&#45;&gt;Node5 -->
<g id="edge5" class="edge">
<title>Node1&#45;&gt;Node5</title>
<path fill="none" stroke="#191970" d="M241.6799,-55.4179C252.4541,-47.1876 268.5607,-34.8839 281.3902,-25.0836"/>
<polygon fill="#191970" stroke="#191970" points="283.8208,-27.6313 289.6429,-18.7795 279.5715,-22.0685 283.8208,-27.6313"/>
</g>
<!-- Node6 -->
<g id="node7" class="node">
<title>Node6</title>
<polygon fill="#ffffff" stroke="#bfbfbf" points="336.564,-.5 336.564,-18.5 377.0171,-18.5 377.0171,-.5 336.564,-.5"/>
<text text-anchor="middle" x="356.7905" y="-6.5" font-family="Helvetica,sans-Serif" font-size="10.00" fill="#000000">string</text>
</g>
<!-- Node1&#45;&gt;Node6 -->
<g id="edge6" class="edge">
<title>Node1&#45;&gt;Node6</title>
<path fill="none" stroke="#191970" d="M250.762,-55.4179C271.475,-46.4477 303.3609,-32.6388 326.7587,-22.5059"/>
<polygon fill="#191970" stroke="#191970" points="328.4238,-25.599 336.2093,-18.4131 325.6419,-19.1755 328.4238,-25.599"/>
</g>
<!-- Node1&#45;&gt;Node7 -->
<g id="edge7" class="edge">
<title>Node1&#45;&gt;Node7</title>
<path fill="none" stroke="#191970" d="M261.2012,-55.4741C290.7607,-46.9503 336.5076,-33.6824 385.3218,-19.1119"/>
<polygon fill="#191970" stroke="#191970" points="386.5436,-22.3997 395.1217,-16.1814 384.5381,-15.6931 386.5436,-22.3997"/>
</g>
<!-- Node8&#45;&gt;Node3 -->
<g id="edge11" class="edge">
<title>Node8&#45;&gt;Node3</title>
<path fill="none" stroke="#191970" d="M61.9095,-55.4179C66.147,-47.8998 72.3002,-36.9829 77.5437,-27.6799"/>
<polygon fill="#191970" stroke="#191970" points="80.6991,-29.2096 82.5603,-18.7795 74.6011,-25.7724 80.6991,-29.2096"/>
</g>
<!-- Node9 -->
<g id="node10" class="node">
<title>Node9</title>
<polygon fill="#ffffff" stroke="#bfbfbf" points="0,-.5 0,-18.5 51.5811,-18.5 51.5811,-.5 0,-.5"/>
<text text-anchor="middle" x="25.7905" y="-6.5" font-family="Helvetica,sans-Serif" font-size="10.00" fill="#000000">stddef.h</text>
</g>
<!-- Node8&#45;&gt;Node9 -->
<g id="edge12" class="edge">
<title>Node8&#45;&gt;Node9</title>
<path fill="none" stroke="#191970" d="M51.6715,-55.4179C47.4341,-47.8998 41.2809,-36.9829 36.0374,-27.6799"/>
<polygon fill="#191970" stroke="#191970" points="38.98,-25.7724 31.0208,-18.7795 32.8819,-29.2096 38.98,-25.7724"/>
</g>
</g>
</svg>
