<?xml version="1.0" encoding="UTF-8" standalone="no"?>
<!DOCTYPE svg PUBLIC "-//W3C//DTD SVG 1.1//EN"
 "http://www.w3.org/Graphics/SVG/1.1/DTD/svg11.dtd">
<!-- Generated by graphviz version 2.40.1 (20161225.0304)
 -->
<!-- Title: src/node_debug_options.h Pages: 1 -->
<svg width="517pt" height="267pt"
 viewBox="0.00 0.00 516.96 267.00" xmlns="http://www.w3.org/2000/svg" xmlns:xlink="http://www.w3.org/1999/xlink">
<g id="graph0" class="graph" transform="scale(1 1) rotate(0) translate(4 263)">
<title>src/node_debug_options.h</title>
<polygon fill="#ffffff" stroke="transparent" points="-4,4 -4,-263 512.96,-263 512.96,4 -4,4"/>
<!-- Node2 -->
<g id="node1" class="node">
<title>Node2</title>
<polygon fill="#bfbfbf" stroke="#000000" points="134.8696,-240.5 134.8696,-258.5 268.7407,-258.5 268.7407,-240.5 134.8696,-240.5"/>
<text text-anchor="middle" x="201.8052" y="-246.5" font-family="Helvetica,sans-Serif" font-size="10.00" fill="#000000">src/node_debug_options.h</text>
</g>
<!-- Node3 -->
<g id="node2" class="node">
<title>Node3</title>
<g id="a_node2"><a xlink:href="../../db/de0/inspector__agent_8h.html" target="_top" xlink:title="src/inspector_agent.h">
<polygon fill="#ffffff" stroke="#000000" points="0,-185.5 0,-203.5 111.6104,-203.5 111.6104,-185.5 0,-185.5"/>
<text text-anchor="middle" x="55.8052" y="-191.5" font-family="Helvetica,sans-Serif" font-size="10.00" fill="#000000">src/inspector_agent.h</text>
</a>
</g>
</g>
<!-- Node2&#45;&gt;Node3 -->
<g id="edge1" class="edge">
<title>Node2&#45;&gt;Node3</title>
<path fill="none" stroke="#191970" d="M168.2684,-236.8663C141.2991,-226.7066 104.0556,-212.6765 79.9499,-203.5956"/>
<polygon fill="#191970" stroke="#191970" points="167.1044,-240.1678 177.6962,-240.4179 169.5721,-233.6172 167.1044,-240.1678"/>
</g>
<!-- Node6 -->
<g id="node5" class="node">
<title>Node6</title>
<g id="a_node5"><a xlink:href="../../d1/dc8/inspector__io_8h.html" target="_top" xlink:title="src/inspector_io.h">
<polygon fill="#ffffff" stroke="#000000" points="83.6206,-60.5 83.6206,-78.5 177.9897,-78.5 177.9897,-60.5 83.6206,-60.5"/>
<text text-anchor="middle" x="130.8052" y="-66.5" font-family="Helvetica,sans-Serif" font-size="10.00" fill="#000000">src/inspector_io.h</text>
</a>
</g>
</g>
<!-- Node2&#45;&gt;Node6 -->
<g id="edge9" class="edge">
<title>Node2&#45;&gt;Node6</title>
<path fill="none" stroke="#191970" d="M182.3473,-233.4185C173.8854,-225.4203 164.5997,-215.0977 158.8052,-204 136.2847,-160.8688 131.8759,-101.0691 131.0141,-78.5551"/>
<polygon fill="#191970" stroke="#191970" points="180.2804,-236.2656 190.0671,-240.3241 184.9474,-231.0484 180.2804,-236.2656"/>
</g>
<!-- Node9 -->
<g id="node8" class="node">
<title>Node9</title>
<g id="a_node8"><a xlink:href="../../dc/dfd/node_8cc.html" target="_top" xlink:title="src/node.cc">
<polygon fill="#ffffff" stroke="#000000" points="168.2388,-185.5 168.2388,-203.5 235.3716,-203.5 235.3716,-185.5 168.2388,-185.5"/>
<text text-anchor="middle" x="201.8052" y="-191.5" font-family="Helvetica,sans-Serif" font-size="10.00" fill="#000000">src/node.cc</text>
</a>
</g>
</g>
<!-- Node2&#45;&gt;Node9 -->
<g id="edge10" class="edge">
<title>Node2&#45;&gt;Node9</title>
<path fill="none" stroke="#191970" d="M201.8052,-230.383C201.8052,-221.3738 201.8052,-211.0373 201.8052,-203.7795"/>
<polygon fill="#191970" stroke="#191970" points="198.3053,-230.4178 201.8052,-240.4179 205.3053,-230.4179 198.3053,-230.4178"/>
</g>
<!-- Node10 -->
<g id="node9" class="node">
<title>Node10</title>
<g id="a_node9"><a xlink:href="../../d1/d72/node__config_8cc.html" target="_top" xlink:title="src/node_config.cc">
<polygon fill="#ffffff" stroke="#000000" points="253.1157,-185.5 253.1157,-203.5 352.4946,-203.5 352.4946,-185.5 253.1157,-185.5"/>
<text text-anchor="middle" x="302.8052" y="-191.5" font-family="Helvetica,sans-Serif" font-size="10.00" fill="#000000">src/node_config.cc</text>
</a>
</g>
</g>
<!-- Node2&#45;&gt;Node10 -->
<g id="edge11" class="edge">
<title>Node2&#45;&gt;Node10</title>
<path fill="none" stroke="#191970" d="M227.4998,-235.5079C245.9046,-225.4854 270.1578,-212.2783 286.1023,-203.5956"/>
<polygon fill="#191970" stroke="#191970" points="225.5917,-232.5616 218.4833,-240.4179 228.9394,-238.7092 225.5917,-232.5616"/>
</g>
<!-- Node11 -->
<g id="node10" class="node">
<title>Node11</title>
<g id="a_node10"><a xlink:href="../../d5/d9c/node__debug__options_8cc.html" target="_top" xlink:title="src/node_debug_options.cc">
<polygon fill="#ffffff" stroke="#000000" points="370.6504,-185.5 370.6504,-203.5 508.96,-203.5 508.96,-185.5 370.6504,-185.5"/>
<text text-anchor="middle" x="439.8052" y="-191.5" font-family="Helvetica,sans-Serif" font-size="10.00" fill="#000000">src/node_debug_options.cc</text>
</a>
</g>
</g>
<!-- Node2&#45;&gt;Node11 -->
<g id="edge12" class="edge">
<title>Node2&#45;&gt;Node11</title>
<path fill="none" stroke="#191970" d="M250.8253,-238.1718C295.2152,-227.9136 359.7558,-212.9988 400.7495,-203.5255"/>
<polygon fill="#191970" stroke="#191970" points="249.7947,-234.8177 240.8395,-240.4795 251.3708,-241.6379 249.7947,-234.8177"/>
</g>
<!-- Node4 -->
<g id="node3" class="node">
<title>Node4</title>
<g id="a_node3"><a xlink:href="../../d5/d2d/inspector__agent_8cc.html" target="_top" xlink:title="src/inspector_agent.cc">
<polygon fill="#ffffff" stroke="#000000" points="34.7808,-.5 34.7808,-18.5 150.8296,-18.5 150.8296,-.5 34.7808,-.5"/>
<text text-anchor="middle" x="92.8052" y="-6.5" font-family="Helvetica,sans-Serif" font-size="10.00" fill="#000000">src/inspector_agent.cc</text>
</a>
</g>
</g>
<!-- Node3&#45;&gt;Node4 -->
<g id="edge2" class="edge">
<title>Node3&#45;&gt;Node4</title>
<path fill="none" stroke="#191970" d="M56.9656,-175.0903C58.9258,-147.8758 63.8101,-97.0004 74.8052,-55 78.2043,-42.0155 84.2642,-27.7269 88.4057,-18.6899"/>
<polygon fill="#191970" stroke="#191970" points="53.464,-175.0007 56.2953,-185.2102 60.4487,-175.4635 53.464,-175.0007"/>
</g>
<!-- Node5 -->
<g id="node4" class="node">
<title>Node5</title>
<g id="a_node4"><a xlink:href="../../d7/de7/inspector__socket__server_8h.html" target="_top" xlink:title="src/inspector_socket\l_server.h">
<polygon fill="#ffffff" stroke="#000000" points="182.2314,-120.5 182.2314,-148.5 289.3789,-148.5 289.3789,-120.5 182.2314,-120.5"/>
<text text-anchor="start" x="190.2314" y="-136.5" font-family="Helvetica,sans-Serif" font-size="10.00" fill="#000000">src/inspector_socket</text>
<text text-anchor="middle" x="235.8052" y="-126.5" font-family="Helvetica,sans-Serif" font-size="10.00" fill="#000000">_server.h</text>
</a>
</g>
</g>
<!-- Node3&#45;&gt;Node5 -->
<g id="edge3" class="edge">
<title>Node3&#45;&gt;Node5</title>
<path fill="none" stroke="#191970" d="M93.0028,-182.1008C122.3451,-172.32 163.2722,-158.6777 193.7931,-148.504"/>
<polygon fill="#191970" stroke="#191970" points="91.5233,-178.9046 83.1433,-185.3873 93.737,-185.5453 91.5233,-178.9046"/>
</g>
<!-- Node5&#45;&gt;Node6 -->
<g id="edge4" class="edge">
<title>Node5&#45;&gt;Node6</title>
<path fill="none" stroke="#191970" d="M204.4229,-115.0729C184.8832,-102.9769 160.6603,-87.9818 145.4637,-78.5743"/>
<polygon fill="#191970" stroke="#191970" points="202.6768,-118.1083 213.0217,-120.396 206.3613,-112.1564 202.6768,-118.1083"/>
</g>
<!-- Node7 -->
<g id="node6" class="node">
<title>Node7</title>
<g id="a_node6"><a xlink:href="../../d1/d89/inspector__io_8cc.html" target="_top" xlink:title="src/inspector_io.cc">
<polygon fill="#ffffff" stroke="#000000" points="225.4014,-.5 225.4014,-18.5 324.209,-18.5 324.209,-.5 225.4014,-.5"/>
<text text-anchor="middle" x="274.8052" y="-6.5" font-family="Helvetica,sans-Serif" font-size="10.00" fill="#000000">src/inspector_io.cc</text>
</a>
</g>
</g>
<!-- Node5&#45;&gt;Node7 -->
<g id="edge7" class="edge">
<title>Node5&#45;&gt;Node7</title>
<path fill="none" stroke="#191970" d="M280.6046,-115.3729C293.3208,-107.5983 305.6455,-97.2577 312.8052,-84 325.4308,-60.6209 300.5877,-32.597 285.3927,-18.5156"/>
<polygon fill="#191970" stroke="#191970" points="278.7816,-112.3828 271.7972,-120.3496 282.2253,-118.4772 278.7816,-112.3828"/>
</g>
<!-- Node8 -->
<g id="node7" class="node">
<title>Node8</title>
<g id="a_node7"><a xlink:href="../../da/d74/inspector__socket__server_8cc.html" target="_top" xlink:title="src/inspector_socket\l_server.cc">
<polygon fill="#ffffff" stroke="#000000" points="196.2314,-55.5 196.2314,-83.5 303.3789,-83.5 303.3789,-55.5 196.2314,-55.5"/>
<text text-anchor="start" x="204.2314" y="-71.5" font-family="Helvetica,sans-Serif" font-size="10.00" fill="#000000">src/inspector_socket</text>
<text text-anchor="middle" x="249.8052" y="-61.5" font-family="Helvetica,sans-Serif" font-size="10.00" fill="#000000">_server.cc</text>
</a>
</g>
</g>
<!-- Node5&#45;&gt;Node8 -->
<g id="edge8" class="edge">
<title>Node5&#45;&gt;Node8</title>
<path fill="none" stroke="#191970" d="M240.9953,-110.4029C242.9408,-101.3703 245.0866,-91.4078 246.7733,-83.5765"/>
<polygon fill="#191970" stroke="#191970" points="237.5271,-109.8832 238.843,-120.396 244.3701,-111.3571 237.5271,-109.8832"/>
</g>
<!-- Node6&#45;&gt;Node4 -->
<g id="edge5" class="edge">
<title>Node6&#45;&gt;Node4</title>
<path fill="none" stroke="#191970" d="M119.5317,-51.6998C112.6646,-40.8569 104.1743,-27.4513 98.6309,-18.6985"/>
<polygon fill="#191970" stroke="#191970" points="116.7264,-53.8118 125.0338,-60.3873 122.6401,-50.0664 116.7264,-53.8118"/>
</g>
<!-- Node6&#45;&gt;Node7 -->
<g id="edge6" class="edge">
<title>Node6&#45;&gt;Node7</title>
<path fill="none" stroke="#191970" d="M162.2395,-56.4023C189.777,-44.9284 229.066,-28.558 253.2007,-18.5019"/>
<polygon fill="#191970" stroke="#191970" points="160.5603,-53.3103 152.6757,-60.3873 163.2526,-59.7719 160.5603,-53.3103"/>
</g>
</g>
</svg>
