<?xml version="1.0" encoding="UTF-8" standalone="no"?>
<!DOCTYPE svg PUBLIC "-//W3C//DTD SVG 1.1//EN"
 "http://www.w3.org/Graphics/SVG/1.1/DTD/svg11.dtd">
<!-- Generated by graphviz version 2.40.1 (20161225.0304)
 -->
<!-- Title: src/inspector_socket_server.cc Pages: 1 -->
<svg width="1045pt" height="267pt"
 viewBox="0.00 0.00 1044.81 267.00" xmlns="http://www.w3.org/2000/svg" xmlns:xlink="http://www.w3.org/1999/xlink">
<g id="graph0" class="graph" transform="scale(1 1) rotate(0) translate(4 263)">
<title>src/inspector_socket_server.cc</title>
<polygon fill="#ffffff" stroke="transparent" points="-4,4 -4,-263 1040.8085,-263 1040.8085,4 -4,4"/>
<!-- Node0 -->
<g id="node1" class="node">
<title>Node0</title>
<polygon fill="#bfbfbf" stroke="#000000" points="640.3163,-230.5 640.3163,-258.5 747.4637,-258.5 747.4637,-230.5 640.3163,-230.5"/>
<text text-anchor="start" x="648.3163" y="-246.5" font-family="Helvetica,sans-Serif" font-size="10.00" fill="#000000">src/inspector_socket</text>
<text text-anchor="middle" x="693.89" y="-236.5" font-family="Helvetica,sans-Serif" font-size="10.00" fill="#000000">_server.cc</text>
</g>
<!-- Node1 -->
<g id="node2" class="node">
<title>Node1</title>
<g id="a_node2"><a xlink:href="../../d7/de7/inspector__socket__server_8h.html" target="_top" xlink:title="inspector_socket_server.h">
<polygon fill="#ffffff" stroke="#000000" points="219.8016,-170.5 219.8016,-188.5 351.9784,-188.5 351.9784,-170.5 219.8016,-170.5"/>
<text text-anchor="middle" x="285.89" y="-176.5" font-family="Helvetica,sans-Serif" font-size="10.00" fill="#000000">inspector_socket_server.h</text>
</a>
</g>
</g>
<!-- Node0&#45;&gt;Node1 -->
<g id="edge1" class="edge">
<title>Node0&#45;&gt;Node1</title>
<path fill="none" stroke="#191970" d="M640.1297,-236.67C575.1016,-227.0957 462.3472,-210.1639 365.89,-194 359.0622,-192.8558 351.9141,-191.6178 344.8191,-190.3639"/>
<polygon fill="#191970" stroke="#191970" points="344.9648,-186.8348 334.5056,-188.5246 343.7357,-193.726 344.9648,-186.8348"/>
</g>
<!-- Node12 -->
<g id="node13" class="node">
<title>Node12</title>
<polygon fill="#ffffff" stroke="#bfbfbf" points="328.808,-55.5 328.808,-73.5 362.972,-73.5 362.972,-55.5 328.808,-55.5"/>
<text text-anchor="middle" x="345.89" y="-61.5" font-family="Helvetica,sans-Serif" font-size="10.00" fill="#000000">uv.h</text>
</g>
<!-- Node0&#45;&gt;Node12 -->
<g id="edge25" class="edge">
<title>Node0&#45;&gt;Node12</title>
<path fill="none" stroke="#191970" d="M640.0751,-232.729C577.1248,-217.003 471.978,-184.4782 396.89,-129 379.9116,-116.4556 365.531,-96.8821 356.4122,-82.5856"/>
<polygon fill="#191970" stroke="#191970" points="359.1729,-80.3909 350.9725,-73.6824 353.1995,-84.0405 359.1729,-80.3909"/>
</g>
<!-- Node14 -->
<g id="node15" class="node">
<title>Node14</title>
<polygon fill="#ffffff" stroke="#bfbfbf" points="519.1635,-110.5 519.1635,-128.5 554.6166,-128.5 554.6166,-110.5 519.1635,-110.5"/>
<text text-anchor="middle" x="536.89" y="-116.5" font-family="Helvetica,sans-Serif" font-size="10.00" fill="#000000">map</text>
</g>
<!-- Node0&#45;&gt;Node14 -->
<g id="edge28" class="edge">
<title>Node0&#45;&gt;Node14</title>
<path fill="none" stroke="#191970" d="M661.1128,-230.3304C642.4371,-221.3989 619.1871,-208.7739 600.89,-194 580.2627,-177.3446 561.083,-153.4388 549.2017,-137.2337"/>
<polygon fill="#191970" stroke="#191970" points="551.7585,-134.7922 543.0937,-128.6954 546.0653,-138.865 551.7585,-134.7922"/>
</g>
<!-- Node15 -->
<g id="node16" class="node">
<title>Node15</title>
<g id="a_node16"><a xlink:href="../../d1/d77/node_8h.html" target="_top" xlink:title="node.h">
<polygon fill="#ffffff" stroke="#000000" points="609.597,-170.5 609.597,-188.5 656.183,-188.5 656.183,-170.5 609.597,-170.5"/>
<text text-anchor="middle" x="632.89" y="-176.5" font-family="Helvetica,sans-Serif" font-size="10.00" fill="#000000">node.h</text>
</a>
</g>
</g>
<!-- Node0&#45;&gt;Node15 -->
<g id="edge19" class="edge">
<title>Node0&#45;&gt;Node15</title>
<path fill="none" stroke="#191970" d="M680.6539,-230.396C671.1602,-220.2797 658.339,-206.6178 648.3705,-195.9956"/>
<polygon fill="#191970" stroke="#191970" points="650.8012,-193.4711 641.4059,-188.5743 645.6969,-198.2613 650.8012,-193.4711"/>
</g>
<!-- Node20 -->
<g id="node21" class="node">
<title>Node20</title>
<polygon fill="#ffffff" stroke="#bfbfbf" points="674.2177,-170.5 674.2177,-188.5 713.5624,-188.5 713.5624,-170.5 674.2177,-170.5"/>
<text text-anchor="middle" x="693.89" y="-176.5" font-family="Helvetica,sans-Serif" font-size="10.00" fill="#000000">zlib.h</text>
</g>
<!-- Node0&#45;&gt;Node20 -->
<g id="edge26" class="edge">
<title>Node0&#45;&gt;Node20</title>
<path fill="none" stroke="#191970" d="M693.89,-230.396C693.89,-221.1723 693.89,-209.0011 693.89,-198.8738"/>
<polygon fill="#191970" stroke="#191970" points="697.3901,-198.5743 693.89,-188.5743 690.3901,-198.5743 697.3901,-198.5743"/>
</g>
<!-- Node21 -->
<g id="node22" class="node">
<title>Node21</title>
<polygon fill="#ffffff" stroke="#bfbfbf" points="731.326,-170.5 731.326,-188.5 788.454,-188.5 788.454,-170.5 731.326,-170.5"/>
<text text-anchor="middle" x="759.89" y="-176.5" font-family="Helvetica,sans-Serif" font-size="10.00" fill="#000000">algorithm</text>
</g>
<!-- Node0&#45;&gt;Node21 -->
<g id="edge27" class="edge">
<title>Node0&#45;&gt;Node21</title>
<path fill="none" stroke="#191970" d="M708.211,-230.396C718.5836,-220.1805 732.6274,-206.3496 743.457,-195.6841"/>
<polygon fill="#191970" stroke="#191970" points="746.0072,-198.0849 750.6761,-188.5743 741.0953,-193.0975 746.0072,-198.0849"/>
</g>
<!-- Node22 -->
<g id="node23" class="node">
<title>Node22</title>
<polygon fill="#ffffff" stroke="#bfbfbf" points="806.2201,-170.5 806.2201,-188.5 835.5599,-188.5 835.5599,-170.5 806.2201,-170.5"/>
<text text-anchor="middle" x="820.89" y="-176.5" font-family="Helvetica,sans-Serif" font-size="10.00" fill="#000000">set</text>
</g>
<!-- Node0&#45;&gt;Node22 -->
<g id="edge29" class="edge">
<title>Node0&#45;&gt;Node22</title>
<path fill="none" stroke="#191970" d="M725.2934,-230.3554C746.1698,-220.6845 774.0301,-207.2609 797.89,-194 797.9828,-193.9484 798.0758,-193.8966 798.1689,-193.8446"/>
<polygon fill="#191970" stroke="#191970" points="800.1156,-196.7593 806.9286,-188.6455 796.5428,-190.7397 800.1156,-196.7593"/>
</g>
<!-- Node23 -->
<g id="node24" class="node">
<title>Node23</title>
<polygon fill="#ffffff" stroke="#bfbfbf" points="853.1093,-170.5 853.1093,-188.5 904.6708,-188.5 904.6708,-170.5 853.1093,-170.5"/>
<text text-anchor="middle" x="878.89" y="-176.5" font-family="Helvetica,sans-Serif" font-size="10.00" fill="#000000">sstream</text>
</g>
<!-- Node0&#45;&gt;Node23 -->
<g id="edge30" class="edge">
<title>Node0&#45;&gt;Node23</title>
<path fill="none" stroke="#191970" d="M739.1543,-230.4117C769.3254,-220.7646 809.7451,-207.3463 844.89,-194 846.2773,-193.4732 847.6914,-192.9232 849.1162,-192.3586"/>
<polygon fill="#191970" stroke="#191970" points="850.5777,-195.5422 858.5018,-188.5095 847.9216,-189.0656 850.5777,-195.5422"/>
</g>
<!-- Node24 -->
<g id="node25" class="node">
<title>Node24</title>
<polygon fill="#ffffff" stroke="#bfbfbf" points="922.9716,-165.5 922.9716,-193.5 1036.8085,-193.5 1036.8085,-165.5 922.9716,-165.5"/>
<text text-anchor="start" x="930.9716" y="-181.5" font-family="Helvetica,sans-Serif" font-size="10.00" fill="#000000">v8_inspector_protocol</text>
<text text-anchor="middle" x="979.89" y="-171.5" font-family="Helvetica,sans-Serif" font-size="10.00" fill="#000000">_json.h</text>
</g>
<!-- Node0&#45;&gt;Node24 -->
<g id="edge31" class="edge">
<title>Node0&#45;&gt;Node24</title>
<path fill="none" stroke="#191970" d="M747.6844,-232.274C794.559,-221.6207 862.7255,-206.1283 913.0845,-194.6831"/>
<polygon fill="#191970" stroke="#191970" points="913.9316,-198.0799 922.9072,-192.4506 912.3802,-191.254 913.9316,-198.0799"/>
</g>
<!-- Node2 -->
<g id="node3" class="node">
<title>Node2</title>
<g id="a_node3"><a xlink:href="../../db/de0/inspector__agent_8h.html" target="_top" xlink:title="inspector_agent.h">
<polygon fill="#ffffff" stroke="#000000" points="406.139,-110.5 406.139,-128.5 501.641,-128.5 501.641,-110.5 406.139,-110.5"/>
<text text-anchor="middle" x="453.89" y="-116.5" font-family="Helvetica,sans-Serif" font-size="10.00" fill="#000000">inspector_agent.h</text>
</a>
</g>
</g>
<!-- Node1&#45;&gt;Node2 -->
<g id="edge2" class="edge">
<title>Node1&#45;&gt;Node2</title>
<path fill="none" stroke="#191970" d="M311.4056,-170.3873C340.1881,-160.1078 387.1574,-143.3331 419.242,-131.8743"/>
<polygon fill="#191970" stroke="#191970" points="420.4445,-135.1614 428.6848,-128.5019 418.0901,-128.5692 420.4445,-135.1614"/>
</g>
<!-- Node6 -->
<g id="node7" class="node">
<title>Node6</title>
<polygon fill="#ffffff" stroke="#bfbfbf" points="218.6635,-.5 218.6635,-18.5 259.1166,-18.5 259.1166,-.5 218.6635,-.5"/>
<text text-anchor="middle" x="238.89" y="-6.5" font-family="Helvetica,sans-Serif" font-size="10.00" fill="#000000">string</text>
</g>
<!-- Node1&#45;&gt;Node6 -->
<g id="edge17" class="edge">
<title>Node1&#45;&gt;Node6</title>
<path fill="none" stroke="#191970" d="M246.0842,-170.483C175.3143,-153.5574 32.3402,-115.0195 3.89,-74 -.9226,-67.0612 -1.4837,-61.514 3.89,-55 29.479,-23.9813 150.6781,-13.8582 208.3076,-10.7647"/>
<polygon fill="#191970" stroke="#191970" points="208.8022,-14.2445 218.6153,-10.2505 208.4533,-7.2532 208.8022,-14.2445"/>
</g>
<!-- Node8 -->
<g id="node9" class="node">
<title>Node8</title>
<g id="a_node9"><a xlink:href="../../d4/dee/inspector__socket_8h.html" target="_top" xlink:title="inspector_socket.h">
<polygon fill="#ffffff" stroke="#000000" points="161.2006,-110.5 161.2006,-128.5 260.5795,-128.5 260.5795,-110.5 161.2006,-110.5"/>
<text text-anchor="middle" x="210.89" y="-116.5" font-family="Helvetica,sans-Serif" font-size="10.00" fill="#000000">inspector_socket.h</text>
</a>
</g>
</g>
<!-- Node1&#45;&gt;Node8 -->
<g id="edge8" class="edge">
<title>Node1&#45;&gt;Node8</title>
<path fill="none" stroke="#191970" d="M274.4991,-170.3873C262.8254,-161.0483 244.4502,-146.3481 230.4448,-135.1438"/>
<polygon fill="#191970" stroke="#191970" points="232.3833,-132.2124 222.3881,-128.6985 228.0104,-137.6785 232.3833,-132.2124"/>
</g>
<!-- Node1&#45;&gt;Node12 -->
<g id="edge15" class="edge">
<title>Node1&#45;&gt;Node12</title>
<path fill="none" stroke="#191970" d="M290.5981,-170.4761C300.4075,-151.6749 323.2041,-107.9813 336.2565,-82.9642"/>
<polygon fill="#191970" stroke="#191970" points="339.5145,-84.2862 341.0371,-73.8014 333.3084,-81.0482 339.5145,-84.2862"/>
</g>
<!-- Node13 -->
<g id="node14" class="node">
<title>Node13</title>
<polygon fill="#ffffff" stroke="#bfbfbf" points="267.2743,-55.5 267.2743,-73.5 310.5057,-73.5 310.5057,-55.5 267.2743,-55.5"/>
<text text-anchor="middle" x="288.89" y="-61.5" font-family="Helvetica,sans-Serif" font-size="10.00" fill="#000000">vector</text>
</g>
<!-- Node1&#45;&gt;Node13 -->
<g id="edge18" class="edge">
<title>Node1&#45;&gt;Node13</title>
<path fill="none" stroke="#191970" d="M286.1254,-170.4761C286.6093,-151.9256 287.7254,-109.142 288.382,-83.9748"/>
<polygon fill="#191970" stroke="#191970" points="291.8853,-83.8893 288.6474,-73.8014 284.8877,-83.7067 291.8853,-83.8893"/>
</g>
<!-- Node1&#45;&gt;Node14 -->
<g id="edge16" class="edge">
<title>Node1&#45;&gt;Node14</title>
<path fill="none" stroke="#191970" d="M334.6335,-170.4561C378.2822,-161.934 444.1448,-148.0335 509.0963,-129.2761"/>
<polygon fill="#191970" stroke="#191970" points="510.4759,-132.5191 519.0887,-126.349 508.508,-125.8013 510.4759,-132.5191"/>
</g>
<!-- Node3 -->
<g id="node4" class="node">
<title>Node3</title>
<polygon fill="#ffffff" stroke="#bfbfbf" points="380.8334,-55.5 380.8334,-73.5 432.9467,-73.5 432.9467,-55.5 380.8334,-55.5"/>
<text text-anchor="middle" x="406.89" y="-61.5" font-family="Helvetica,sans-Serif" font-size="10.00" fill="#000000">memory</text>
</g>
<!-- Node2&#45;&gt;Node3 -->
<g id="edge3" class="edge">
<title>Node2&#45;&gt;Node3</title>
<path fill="none" stroke="#191970" d="M446.1289,-110.4179C439.4339,-102.5833 429.5846,-91.0575 421.429,-81.5137"/>
<polygon fill="#191970" stroke="#191970" points="423.9771,-79.108 414.8197,-73.7795 418.6555,-83.6556 423.9771,-79.108"/>
</g>
<!-- Node4 -->
<g id="node5" class="node">
<title>Node4</title>
<polygon fill="#ffffff" stroke="#bfbfbf" points="451.0995,-55.5 451.0995,-73.5 502.6805,-73.5 502.6805,-55.5 451.0995,-55.5"/>
<text text-anchor="middle" x="476.89" y="-61.5" font-family="Helvetica,sans-Serif" font-size="10.00" fill="#000000">stddef.h</text>
</g>
<!-- Node2&#45;&gt;Node4 -->
<g id="edge4" class="edge">
<title>Node2&#45;&gt;Node4</title>
<path fill="none" stroke="#191970" d="M457.688,-110.4179C460.7657,-103.0581 465.2056,-92.441 469.0409,-83.2695"/>
<polygon fill="#191970" stroke="#191970" points="472.3804,-84.3556 473.0095,-73.7795 465.9224,-81.6549 472.3804,-84.3556"/>
</g>
<!-- Node5 -->
<g id="node6" class="node">
<title>Node5</title>
<g id="a_node6"><a xlink:href="../../dc/d2b/node__debug__options_8h.html" target="_top" xlink:title="node_debug_options.h">
<polygon fill="#ffffff" stroke="#000000" points="521.0087,-55.5 521.0087,-73.5 638.7714,-73.5 638.7714,-55.5 521.0087,-55.5"/>
<text text-anchor="middle" x="579.89" y="-61.5" font-family="Helvetica,sans-Serif" font-size="10.00" fill="#000000">node_debug_options.h</text>
</a>
</g>
</g>
<!-- Node2&#45;&gt;Node5 -->
<g id="edge5" class="edge">
<title>Node2&#45;&gt;Node5</title>
<path fill="none" stroke="#191970" d="M474.6964,-110.4179C495.1239,-101.5011 526.5048,-87.803 549.6792,-77.6873"/>
<polygon fill="#191970" stroke="#191970" points="551.2881,-80.804 559.0528,-73.5956 548.4876,-74.3885 551.2881,-80.804"/>
</g>
<!-- Node7 -->
<g id="node8" class="node">
<title>Node7</title>
<polygon fill="#ffffff" stroke="#bfbfbf" points="721.4393,-55.5 721.4393,-73.5 756.3407,-73.5 756.3407,-55.5 721.4393,-55.5"/>
<text text-anchor="middle" x="738.89" y="-61.5" font-family="Helvetica,sans-Serif" font-size="10.00" fill="#000000">v8.h</text>
</g>
<!-- Node2&#45;&gt;Node7 -->
<g id="edge7" class="edge">
<title>Node2&#45;&gt;Node7</title>
<path fill="none" stroke="#191970" d="M500.6328,-110.4795C560.5329,-98.9198 662.4473,-79.2521 711.2477,-69.8345"/>
<polygon fill="#191970" stroke="#191970" points="712.2119,-73.2131 721.3675,-67.8815 710.8854,-66.3399 712.2119,-73.2131"/>
</g>
<!-- Node5&#45;&gt;Node6 -->
<g id="edge6" class="edge">
<title>Node5&#45;&gt;Node6</title>
<path fill="none" stroke="#191970" d="M523.9626,-55.4795C451.2115,-43.7454 326.6622,-23.6568 269.3649,-14.4153"/>
<polygon fill="#191970" stroke="#191970" points="269.9062,-10.9575 259.4765,-12.8204 268.7915,-17.8681 269.9062,-10.9575"/>
</g>
<!-- Node8&#45;&gt;Node6 -->
<g id="edge13" class="edge">
<title>Node8&#45;&gt;Node6</title>
<path fill="none" stroke="#191970" d="M213.1814,-110.4982C217.7345,-92.6108 228.0058,-52.2594 234.0977,-28.3271"/>
<polygon fill="#191970" stroke="#191970" points="237.492,-29.1805 236.567,-18.6261 230.7083,-27.4537 237.492,-29.1805"/>
</g>
<!-- Node9 -->
<g id="node10" class="node">
<title>Node9</title>
<polygon fill="#ffffff" stroke="#bfbfbf" points="136.7006,-55.5 136.7006,-73.5 211.0795,-73.5 211.0795,-55.5 136.7006,-55.5"/>
<text text-anchor="middle" x="173.89" y="-61.5" font-family="Helvetica,sans-Serif" font-size="10.00" fill="#000000">http_parser.h</text>
</g>
<!-- Node8&#45;&gt;Node9 -->
<g id="edge9" class="edge">
<title>Node8&#45;&gt;Node9</title>
<path fill="none" stroke="#191970" d="M204.7802,-110.4179C199.6161,-102.7415 192.0683,-91.5217 185.7263,-82.0945"/>
<polygon fill="#191970" stroke="#191970" points="188.6184,-80.1231 180.1326,-73.7795 182.8103,-84.0303 188.6184,-80.1231"/>
</g>
<!-- Node10 -->
<g id="node11" class="node">
<title>Node10</title>
<g id="a_node11"><a xlink:href="../../d8/d3c/util_8h.html" target="_top" xlink:title="util.h">
<polygon fill="#ffffff" stroke="#000000" points="13.3285,-55.5 13.3285,-73.5 50.4515,-73.5 50.4515,-55.5 13.3285,-55.5"/>
<text text-anchor="middle" x="31.89" y="-61.5" font-family="Helvetica,sans-Serif" font-size="10.00" fill="#000000">util.h</text>
</a>
</g>
</g>
<!-- Node8&#45;&gt;Node10 -->
<g id="edge10" class="edge">
<title>Node8&#45;&gt;Node10</title>
<path fill="none" stroke="#191970" d="M179.8497,-110.4863C151.227,-102.0999 107.3392,-89.0535 60.2996,-74.0533"/>
<polygon fill="#191970" stroke="#191970" points="61.1276,-70.6434 50.5365,-70.9262 58.9923,-77.3098 61.1276,-70.6434"/>
</g>
<!-- Node11 -->
<g id="node12" class="node">
<title>Node11</title>
<g id="a_node12"><a xlink:href="../../d5/d8c/util-inl_8h.html" target="_top" xlink:title="util&#45;inl.h">
<polygon fill="#ffffff" stroke="#000000" points="68.661,-55.5 68.661,-73.5 119.119,-73.5 119.119,-55.5 68.661,-55.5"/>
<text text-anchor="middle" x="93.89" y="-61.5" font-family="Helvetica,sans-Serif" font-size="10.00" fill="#000000">util&#45;inl.h</text>
</a>
</g>
</g>
<!-- Node8&#45;&gt;Node11 -->
<g id="edge11" class="edge">
<title>Node8&#45;&gt;Node11</title>
<path fill="none" stroke="#191970" d="M191.5698,-110.4179C172.7708,-101.5807 143.9815,-88.0473 122.5211,-77.9591"/>
<polygon fill="#191970" stroke="#191970" points="123.7778,-74.6824 113.2389,-73.5956 120.7998,-81.0174 123.7778,-74.6824"/>
</g>
<!-- Node8&#45;&gt;Node12 -->
<g id="edge12" class="edge">
<title>Node8&#45;&gt;Node12</title>
<path fill="none" stroke="#191970" d="M233.1825,-110.4179C256.8513,-100.775 294.2449,-85.5406 319.4007,-75.2919"/>
<polygon fill="#191970" stroke="#191970" points="320.7704,-78.5133 328.7108,-71.4989 318.1293,-72.0306 320.7704,-78.5133"/>
</g>
<!-- Node8&#45;&gt;Node13 -->
<g id="edge14" class="edge">
<title>Node8&#45;&gt;Node13</title>
<path fill="none" stroke="#191970" d="M223.7701,-110.4179C235.6254,-102.0584 253.4403,-89.4966 267.4416,-79.6239"/>
<polygon fill="#191970" stroke="#191970" points="269.8351,-82.2188 275.9908,-73.5956 265.8012,-76.498 269.8351,-82.2188"/>
</g>
<!-- Node15&#45;&gt;Node7 -->
<g id="edge20" class="edge">
<title>Node15&#45;&gt;Node7</title>
<path fill="none" stroke="#191970" d="M651.6683,-170.4945C655.9681,-168.5719 660.5511,-166.6313 664.89,-165 716.6116,-145.5549 750.9572,-173.3697 783.89,-129 796.1558,-112.4746 778.3784,-93.0493 761.6832,-79.8676"/>
<polygon fill="#191970" stroke="#191970" points="763.3342,-76.7347 753.2162,-73.592 759.166,-82.3584 763.3342,-76.7347"/>
</g>
<!-- Node16 -->
<g id="node17" class="node">
<title>Node16</title>
<g id="a_node17"><a xlink:href="../../da/d9c/node__version_8h.html" target="_top" xlink:title="node_version.h">
<polygon fill="#ffffff" stroke="#000000" points="830.6981,-110.5 830.6981,-128.5 915.0819,-128.5 915.0819,-110.5 830.6981,-110.5"/>
<text text-anchor="middle" x="872.89" y="-116.5" font-family="Helvetica,sans-Serif" font-size="10.00" fill="#000000">node_version.h</text>
</a>
</g>
</g>
<!-- Node15&#45;&gt;Node16 -->
<g id="edge21" class="edge">
<title>Node15&#45;&gt;Node16</title>
<path fill="none" stroke="#191970" d="M651.2392,-170.3912C655.6402,-168.4298 660.3747,-166.4984 664.89,-165 693.2585,-155.5863 768.7905,-139.9088 820.5774,-129.638"/>
<polygon fill="#191970" stroke="#191970" points="821.4647,-133.0304 830.5972,-127.6594 820.1086,-126.163 821.4647,-133.0304"/>
</g>
<!-- Node17 -->
<g id="node18" class="node">
<title>Node17</title>
<polygon fill="#ffffff" stroke="#bfbfbf" points="573.1044,-110.5 573.1044,-128.5 624.6757,-128.5 624.6757,-110.5 573.1044,-110.5"/>
<text text-anchor="middle" x="598.89" y="-116.5" font-family="Helvetica,sans-Serif" font-size="10.00" fill="#000000">assert.h</text>
</g>
<!-- Node15&#45;&gt;Node17 -->
<g id="edge22" class="edge">
<title>Node15&#45;&gt;Node17</title>
<path fill="none" stroke="#191970" d="M627.7261,-170.3873C622.7835,-161.665 615.1909,-148.2663 609.0371,-137.4067"/>
<polygon fill="#191970" stroke="#191970" points="612.0777,-135.6731 604.1025,-128.6985 605.9876,-139.1243 612.0777,-135.6731"/>
</g>
<!-- Node18 -->
<g id="node19" class="node">
<title>Node18</title>
<polygon fill="#ffffff" stroke="#bfbfbf" points="642.7694,-110.5 642.7694,-128.5 691.0106,-128.5 691.0106,-110.5 642.7694,-110.5"/>
<text text-anchor="middle" x="666.89" y="-116.5" font-family="Helvetica,sans-Serif" font-size="10.00" fill="#000000">stdint.h</text>
</g>
<!-- Node15&#45;&gt;Node18 -->
<g id="edge23" class="edge">
<title>Node15&#45;&gt;Node18</title>
<path fill="none" stroke="#191970" d="M638.0539,-170.3873C642.9965,-161.665 650.5891,-148.2663 656.7429,-137.4067"/>
<polygon fill="#191970" stroke="#191970" points="659.7925,-139.1243 661.6775,-128.6985 653.7023,-135.6731 659.7925,-139.1243"/>
</g>
<!-- Node19 -->
<g id="node20" class="node">
<title>Node19</title>
<polygon fill="#ffffff" stroke="#bfbfbf" points="708.8802,-110.5 708.8802,-128.5 774.8998,-128.5 774.8998,-110.5 708.8802,-110.5"/>
<text text-anchor="middle" x="741.89" y="-116.5" font-family="Helvetica,sans-Serif" font-size="10.00" fill="#000000">sys/types.h</text>
</g>
<!-- Node15&#45;&gt;Node19 -->
<g id="edge24" class="edge">
<title>Node15&#45;&gt;Node19</title>
<path fill="none" stroke="#191970" d="M649.4448,-170.3873C667.3142,-160.5509 695.9881,-144.7671 716.6661,-133.3847"/>
<polygon fill="#191970" stroke="#191970" points="718.4639,-136.3904 725.5366,-128.5019 715.0883,-130.258 718.4639,-136.3904"/>
</g>
</g>
</svg>
