<?xml version="1.0" encoding="UTF-8" standalone="no"?>
<!DOCTYPE svg PUBLIC "-//W3C//DTD SVG 1.1//EN"
 "http://www.w3.org/Graphics/SVG/1.1/DTD/svg11.dtd">
<!-- Generated by graphviz version 2.40.1 (20161225.0304)
 -->
<!-- Title: src/signal_wrap.cc Pages: 1 -->
<svg width="596pt" height="82pt"
 viewBox="0.00 0.00 596.18 82.00" xmlns="http://www.w3.org/2000/svg" xmlns:xlink="http://www.w3.org/1999/xlink">
<g id="graph0" class="graph" transform="scale(1 1) rotate(0) translate(4 78)">
<title>src/signal_wrap.cc</title>
<polygon fill="#ffffff" stroke="transparent" points="-4,4 -4,-78 592.1846,-78 592.1846,4 -4,4"/>
<!-- Node0 -->
<g id="node1" class="node">
<title>Node0</title>
<polygon fill="#bfbfbf" stroke="#000000" points="278.6084,-55.5 278.6084,-73.5 376.8594,-73.5 376.8594,-55.5 278.6084,-55.5"/>
<text text-anchor="middle" x="327.7339" y="-61.5" font-family="Helvetica,sans-Serif" font-size="10.00" fill="#000000">src/signal_wrap.cc</text>
</g>
<!-- Node1 -->
<g id="node2" class="node">
<title>Node1</title>
<g id="a_node2"><a xlink:href="../../d4/d56/async-wrap_8h.html" target="_top" xlink:title="async&#45;wrap.h">
<polygon fill="#ffffff" stroke="#000000" points="0,-.5 0,-18.5 75.4678,-18.5 75.4678,-.5 0,-.5"/>
<text text-anchor="middle" x="37.7339" y="-6.5" font-family="Helvetica,sans-Serif" font-size="10.00" fill="#000000">async&#45;wrap.h</text>
</a>
</g>
</g>
<!-- Node0&#45;&gt;Node1 -->
<g id="edge1" class="edge">
<title>Node0&#45;&gt;Node1</title>
<path fill="none" stroke="#191970" d="M278.3613,-55.4698C231.4428,-46.8402 158.6272,-33.3229 85.9421,-19.2147"/>
<polygon fill="#191970" stroke="#191970" points="86.1738,-15.6942 75.6894,-17.2204 84.8372,-22.5654 86.1738,-15.6942"/>
</g>
<!-- Node2 -->
<g id="node3" class="node">
<title>Node2</title>
<g id="a_node3"><a xlink:href="../../d5/d30/async-wrap-inl_8h.html" target="_top" xlink:title="async&#45;wrap&#45;inl.h">
<polygon fill="#ffffff" stroke="#000000" points="93.3325,-.5 93.3325,-18.5 182.1353,-18.5 182.1353,-.5 93.3325,-.5"/>
<text text-anchor="middle" x="137.7339" y="-6.5" font-family="Helvetica,sans-Serif" font-size="10.00" fill="#000000">async&#45;wrap&#45;inl.h</text>
</a>
</g>
</g>
<!-- Node0&#45;&gt;Node2 -->
<g id="edge2" class="edge">
<title>Node0&#45;&gt;Node2</title>
<path fill="none" stroke="#191970" d="M296.3593,-55.4179C264.2222,-46.115 214.1071,-31.608 178.8231,-21.3943"/>
<polygon fill="#191970" stroke="#191970" points="179.4182,-17.9229 168.8393,-18.5042 177.4718,-24.6468 179.4182,-17.9229"/>
</g>
<!-- Node3 -->
<g id="node4" class="node">
<title>Node3</title>
<g id="a_node4"><a xlink:href="../../d5/d81/env_8h.html" target="_top" xlink:title="env.h">
<polygon fill="#ffffff" stroke="#000000" points="199.8711,-.5 199.8711,-18.5 239.5967,-18.5 239.5967,-.5 199.8711,-.5"/>
<text text-anchor="middle" x="219.7339" y="-6.5" font-family="Helvetica,sans-Serif" font-size="10.00" fill="#000000">env.h</text>
</a>
</g>
</g>
<!-- Node0&#45;&gt;Node3 -->
<g id="edge3" class="edge">
<title>Node0&#45;&gt;Node3</title>
<path fill="none" stroke="#191970" d="M309.8999,-55.4179C292.7032,-46.6603 266.4502,-33.2907 246.6996,-23.2326"/>
<polygon fill="#191970" stroke="#191970" points="248.0937,-20.0148 237.5944,-18.5956 244.9171,-26.2526 248.0937,-20.0148"/>
</g>
<!-- Node4 -->
<g id="node5" class="node">
<title>Node4</title>
<g id="a_node5"><a xlink:href="../../d9/d50/env-inl_8h.html" target="_top" xlink:title="env&#45;inl.h">
<polygon fill="#ffffff" stroke="#000000" points="257.835,-.5 257.835,-18.5 311.6328,-18.5 311.6328,-.5 257.835,-.5"/>
<text text-anchor="middle" x="284.7339" y="-6.5" font-family="Helvetica,sans-Serif" font-size="10.00" fill="#000000">env&#45;inl.h</text>
</a>
</g>
</g>
<!-- Node0&#45;&gt;Node4 -->
<g id="edge4" class="edge">
<title>Node0&#45;&gt;Node4</title>
<path fill="none" stroke="#191970" d="M320.6333,-55.4179C314.5699,-47.6624 305.6788,-36.29 298.2621,-26.8035"/>
<polygon fill="#191970" stroke="#191970" points="300.9053,-24.5018 291.9887,-18.7795 295.3907,-28.8133 300.9053,-24.5018"/>
</g>
<!-- Node5 -->
<g id="node6" class="node">
<title>Node5</title>
<g id="a_node6"><a xlink:href="../../da/db4/handle__wrap_8h.html" target="_top" xlink:title="handle_wrap.h">
<polygon fill="#ffffff" stroke="#000000" points="329.9312,-.5 329.9312,-18.5 411.5366,-18.5 411.5366,-.5 329.9312,-.5"/>
<text text-anchor="middle" x="370.7339" y="-6.5" font-family="Helvetica,sans-Serif" font-size="10.00" fill="#000000">handle_wrap.h</text>
</a>
</g>
</g>
<!-- Node0&#45;&gt;Node5 -->
<g id="edge5" class="edge">
<title>Node0&#45;&gt;Node5</title>
<path fill="none" stroke="#191970" d="M334.8345,-55.4179C340.8978,-47.6624 349.789,-36.29 357.2057,-26.8035"/>
<polygon fill="#191970" stroke="#191970" points="360.0771,-28.8133 363.479,-18.7795 354.5624,-24.5018 360.0771,-28.8133"/>
</g>
<!-- Node6 -->
<g id="node7" class="node">
<title>Node6</title>
<g id="a_node7"><a xlink:href="../../d8/d3c/util_8h.html" target="_top" xlink:title="util.h">
<polygon fill="#ffffff" stroke="#000000" points="429.1724,-.5 429.1724,-18.5 466.2954,-18.5 466.2954,-.5 429.1724,-.5"/>
<text text-anchor="middle" x="447.7339" y="-6.5" font-family="Helvetica,sans-Serif" font-size="10.00" fill="#000000">util.h</text>
</a>
</g>
</g>
<!-- Node0&#45;&gt;Node6 -->
<g id="edge6" class="edge">
<title>Node0&#45;&gt;Node6</title>
<path fill="none" stroke="#191970" d="M347.5494,-55.4179C367.2653,-46.3814 397.6949,-32.4345 419.846,-22.282"/>
<polygon fill="#191970" stroke="#191970" points="421.4421,-25.4006 429.0744,-18.0522 418.5255,-19.0371 421.4421,-25.4006"/>
</g>
<!-- Node7 -->
<g id="node8" class="node">
<title>Node7</title>
<g id="a_node8"><a xlink:href="../../d5/d8c/util-inl_8h.html" target="_top" xlink:title="util&#45;inl.h">
<polygon fill="#ffffff" stroke="#000000" points="484.5049,-.5 484.5049,-18.5 534.9629,-18.5 534.9629,-.5 484.5049,-.5"/>
<text text-anchor="middle" x="509.7339" y="-6.5" font-family="Helvetica,sans-Serif" font-size="10.00" fill="#000000">util&#45;inl.h</text>
</a>
</g>
</g>
<!-- Node0&#45;&gt;Node7 -->
<g id="edge7" class="edge">
<title>Node0&#45;&gt;Node7</title>
<path fill="none" stroke="#191970" d="M357.7875,-55.4179C389.8117,-45.7402 440.4728,-30.4305 474.3889,-20.1812"/>
<polygon fill="#191970" stroke="#191970" points="475.7778,-23.4178 484.3378,-17.1746 473.7529,-16.7171 475.7778,-23.4178"/>
</g>
<!-- Node8 -->
<g id="node9" class="node">
<title>Node8</title>
<polygon fill="#ffffff" stroke="#bfbfbf" points="553.2832,-.5 553.2832,-18.5 588.1846,-18.5 588.1846,-.5 553.2832,-.5"/>
<text text-anchor="middle" x="570.7339" y="-6.5" font-family="Helvetica,sans-Serif" font-size="10.00" fill="#000000">v8.h</text>
</g>
<!-- Node0&#45;&gt;Node8 -->
<g id="edge8" class="edge">
<title>Node0&#45;&gt;Node8</title>
<path fill="none" stroke="#191970" d="M377.0747,-56.0069C418.9931,-48.3645 480.8657,-36.0806 543.4753,-18.7739"/>
<polygon fill="#191970" stroke="#191970" points="544.4373,-22.1392 553.1207,-16.0688 542.547,-15.3992 544.4373,-22.1392"/>
</g>
</g>
</svg>
