<?xml version="1.0" encoding="UTF-8" standalone="no"?>
<!DOCTYPE svg PUBLIC "-//W3C//DTD SVG 1.1//EN"
 "http://www.w3.org/Graphics/SVG/1.1/DTD/svg11.dtd">
<!-- Generated by graphviz version 2.40.1 (20161225.0304)
 -->
<!-- Title: src/node_constants.h Pages: 1 -->
<svg width="327pt" height="82pt"
 viewBox="0.00 0.00 326.53 82.00" xmlns="http://www.w3.org/2000/svg" xmlns:xlink="http://www.w3.org/1999/xlink">
<g id="graph0" class="graph" transform="scale(1 1) rotate(0) translate(4 78)">
<title>src/node_constants.h</title>
<polygon fill="#ffffff" stroke="transparent" points="-4,4 -4,-78 322.5293,-78 322.5293,4 -4,4"/>
<!-- Node1 -->
<g id="node1" class="node">
<title>Node1</title>
<polygon fill="#bfbfbf" stroke="#000000" points="87.0371,-55.5 87.0371,-73.5 198.0957,-73.5 198.0957,-55.5 87.0371,-55.5"/>
<text text-anchor="middle" x="142.5664" y="-61.5" font-family="Helvetica,sans-Serif" font-size="10.00" fill="#000000">src/node_constants.h</text>
</g>
<!-- Node2 -->
<g id="node2" class="node">
<title>Node2</title>
<g id="a_node2"><a xlink:href="../../dc/dfd/node_8cc.html" target="_top" xlink:title="src/node.cc">
<polygon fill="#ffffff" stroke="#000000" points="0,-.5 0,-18.5 67.1328,-18.5 67.1328,-.5 0,-.5"/>
<text text-anchor="middle" x="33.5664" y="-6.5" font-family="Helvetica,sans-Serif" font-size="10.00" fill="#000000">src/node.cc</text>
</a>
</g>
</g>
<!-- Node1&#45;&gt;Node2 -->
<g id="edge1" class="edge">
<title>Node1&#45;&gt;Node2</title>
<path fill="none" stroke="#191970" d="M115.3817,-50.7829C95.4549,-40.7282 68.9576,-27.3579 51.5923,-18.5956"/>
<polygon fill="#191970" stroke="#191970" points="114.0627,-54.0377 124.5673,-55.4179 117.2162,-47.7882 114.0627,-54.0377"/>
</g>
<!-- Node3 -->
<g id="node3" class="node">
<title>Node3</title>
<g id="a_node3"><a xlink:href="../../d1/d7e/node__constants_8cc.html" target="_top" xlink:title="src/node_constants.cc">
<polygon fill="#ffffff" stroke="#000000" points="84.8179,-.5 84.8179,-18.5 200.3149,-18.5 200.3149,-.5 84.8179,-.5"/>
<text text-anchor="middle" x="142.5664" y="-6.5" font-family="Helvetica,sans-Serif" font-size="10.00" fill="#000000">src/node_constants.cc</text>
</a>
</g>
</g>
<!-- Node1&#45;&gt;Node3 -->
<g id="edge2" class="edge">
<title>Node1&#45;&gt;Node3</title>
<path fill="none" stroke="#191970" d="M142.5664,-45.383C142.5664,-36.3738 142.5664,-26.0373 142.5664,-18.7795"/>
<polygon fill="#191970" stroke="#191970" points="139.0665,-45.4178 142.5664,-55.4179 146.0665,-45.4179 139.0665,-45.4178"/>
</g>
<!-- Node4 -->
<g id="node4" class="node">
<title>Node4</title>
<g id="a_node4"><a xlink:href="../../d5/d61/node__crypto_8cc.html" target="_top" xlink:title="src/node_crypto.cc">
<polygon fill="#ffffff" stroke="#000000" points="218.6035,-.5 218.6035,-18.5 318.5293,-18.5 318.5293,-.5 218.6035,-.5"/>
<text text-anchor="middle" x="268.5664" y="-6.5" font-family="Helvetica,sans-Serif" font-size="10.00" fill="#000000">src/node_crypto.cc</text>
</a>
</g>
</g>
<!-- Node1&#45;&gt;Node4 -->
<g id="edge3" class="edge">
<title>Node1&#45;&gt;Node4</title>
<path fill="none" stroke="#191970" d="M172.7422,-51.328C195.9082,-41.2159 227.2906,-27.5172 247.7292,-18.5956"/>
<polygon fill="#191970" stroke="#191970" points="171.1374,-48.2095 163.3727,-55.4179 173.9379,-54.625 171.1374,-48.2095"/>
</g>
</g>
</svg>
