<?xml version="1.0" encoding="UTF-8" standalone="no"?>
<!DOCTYPE svg PUBLIC "-//W3C//DTD SVG 1.1//EN"
 "http://www.w3.org/Graphics/SVG/1.1/DTD/svg11.dtd">
<!-- Generated by graphviz version 2.40.1 (20161225.0304)
 -->
<!-- Title: src/node_crypto.h Pages: 1 -->
<svg width="324pt" height="82pt"
 viewBox="0.00 0.00 324.47 82.00" xmlns="http://www.w3.org/2000/svg" xmlns:xlink="http://www.w3.org/1999/xlink">
<g id="graph0" class="graph" transform="scale(1 1) rotate(0) translate(4 78)">
<title>src/node_crypto.h</title>
<polygon fill="#ffffff" stroke="transparent" points="-4,4 -4,-78 320.4653,-78 320.4653,4 -4,4"/>
<!-- Node1 -->
<g id="node1" class="node">
<title>Node1</title>
<polygon fill="#bfbfbf" stroke="#000000" points="118.6602,-55.5 118.6602,-73.5 214.1475,-73.5 214.1475,-55.5 118.6602,-55.5"/>
<text text-anchor="middle" x="166.4038" y="-61.5" font-family="Helvetica,sans-Serif" font-size="10.00" fill="#000000">src/node_crypto.h</text>
</g>
<!-- Node2 -->
<g id="node2" class="node">
<title>Node2</title>
<g id="a_node2"><a xlink:href="../../d1/d89/inspector__io_8cc.html" target="_top" xlink:title="src/inspector_io.cc">
<polygon fill="#ffffff" stroke="#000000" points="0,-.5 0,-18.5 98.8076,-18.5 98.8076,-.5 0,-.5"/>
<text text-anchor="middle" x="49.4038" y="-6.5" font-family="Helvetica,sans-Serif" font-size="10.00" fill="#000000">src/inspector_io.cc</text>
</a>
</g>
</g>
<!-- Node1&#45;&gt;Node2 -->
<g id="edge1" class="edge">
<title>Node1&#45;&gt;Node2</title>
<path fill="none" stroke="#191970" d="M137.8055,-51.0563C116.3525,-40.9716 87.5619,-27.4376 68.7527,-18.5956"/>
<polygon fill="#191970" stroke="#191970" points="136.5447,-54.331 147.0836,-55.4179 139.5227,-47.9961 136.5447,-54.331"/>
</g>
<!-- Node3 -->
<g id="node3" class="node">
<title>Node3</title>
<g id="a_node3"><a xlink:href="../../d5/d61/node__crypto_8cc.html" target="_top" xlink:title="src/node_crypto.cc">
<polygon fill="#ffffff" stroke="#000000" points="116.4409,-.5 116.4409,-18.5 216.3667,-18.5 216.3667,-.5 116.4409,-.5"/>
<text text-anchor="middle" x="166.4038" y="-6.5" font-family="Helvetica,sans-Serif" font-size="10.00" fill="#000000">src/node_crypto.cc</text>
</a>
</g>
</g>
<!-- Node1&#45;&gt;Node3 -->
<g id="edge2" class="edge">
<title>Node1&#45;&gt;Node3</title>
<path fill="none" stroke="#191970" d="M166.4038,-45.383C166.4038,-36.3738 166.4038,-26.0373 166.4038,-18.7795"/>
<polygon fill="#191970" stroke="#191970" points="162.9039,-45.4178 166.4038,-55.4179 169.9039,-45.4179 162.9039,-45.4178"/>
</g>
<!-- Node4 -->
<g id="node4" class="node">
<title>Node4</title>
<g id="a_node4"><a xlink:href="../../da/de5/tls__wrap_8cc.html" target="_top" xlink:title="src/tls_wrap.cc">
<polygon fill="#ffffff" stroke="#000000" points="234.3423,-.5 234.3423,-18.5 316.4653,-18.5 316.4653,-.5 234.3423,-.5"/>
<text text-anchor="middle" x="275.4038" y="-6.5" font-family="Helvetica,sans-Serif" font-size="10.00" fill="#000000">src/tls_wrap.cc</text>
</a>
</g>
</g>
<!-- Node1&#45;&gt;Node4 -->
<g id="edge3" class="edge">
<title>Node1&#45;&gt;Node4</title>
<path fill="none" stroke="#191970" d="M193.5885,-50.7829C213.5153,-40.7282 240.0127,-27.3579 257.3779,-18.5956"/>
<polygon fill="#191970" stroke="#191970" points="191.7541,-47.7882 184.4029,-55.4179 194.9075,-54.0377 191.7541,-47.7882"/>
</g>
</g>
</svg>
