<?xml version="1.0" encoding="UTF-8" standalone="no"?>
<!DOCTYPE svg PUBLIC "-//W3C//DTD SVG 1.1//EN"
 "http://www.w3.org/Graphics/SVG/1.1/DTD/svg11.dtd">
<!-- Generated by graphviz version 2.40.1 (20161225.0304)
 -->
<!-- Title: src/node_http_parser.cc Pages: 1 -->
<!--zoomable 192 -->
<svg id="main" version="1.1" xmlns="http://www.w3.org/2000/svg" xmlns:xlink="http://www.w3.org/1999/xlink" xml:space="preserve" onload="init(evt)">
<style type="text/css"><![CDATA[
.edge:hover path { stroke: red; }
.edge:hover polygon { stroke: red; fill: red; }
]]></style>
<script type="text/javascript"><![CDATA[
var edges = document.getElementsByTagName('g');
if (edges && edges.length) {
  for (var i=0;i<edges.length;i++) {
    if (edges[i].id.substr(0,4)=='edge') {
      edges[i].setAttribute('class','edge');
    }
  }
}
]]></script>
        <defs>
                <circle id="rim" cx="0" cy="0" r="7"/>
                <circle id="rim2" cx="0" cy="0" r="3.5"/>
                <g id="zoomPlus">
                        <use xlink:href="#rim" fill="#404040">
                                <set attributeName="fill" to="#808080" begin="zoomplus.mouseover" end="zoomplus.mouseout"/>
                        </use>
                        <path d="M-4,0h8M0,-4v8" fill="none" stroke="white" stroke-width="1.5" pointer-events="none"/>
                </g>
                <g id="zoomMin">
                        <use xlink:href="#rim" fill="#404040">
                                <set attributeName="fill" to="#808080" begin="zoomminus.mouseover" end="zoomminus.mouseout"/>
                        </use>
                        <path d="M-4,0h8" fill="none" stroke="white" stroke-width="1.5" pointer-events="none"/>
                </g>
                <g id="dirArrow">
                        <path fill="none" stroke="white" stroke-width="1.5" d="M0,-3.0v7 M-2.5,-0.5L0,-3.0L2.5,-0.5"/>
                </g>
               <g id="resetDef">
                       <use xlink:href="#rim2" fill="#404040">
                               <set attributeName="fill" to="#808080" begin="reset.mouseover" end="reset.mouseout"/>
                       </use>
               </g>
        </defs>

<script type="text/javascript">
var viewWidth = 1059;
var viewHeight = 192;
var sectionId = 'dynsection-0';
</script>
<script xlink:href="../../svgpan.js"/>
<svg id="graph" class="graph">
<g id="viewport">
<title>src/node_http_parser.cc</title>
<polygon fill="#ffffff" stroke="transparent" points="-4,4 -4,-188 1054.8472,-188 1054.8472,4 -4,4"/>
<!-- Node0 -->
<g id="node1" class="node">
<title>Node0</title>
<polygon fill="#bfbfbf" stroke="#000000" points="442.084,-165.5 442.084,-183.5 564.8174,-183.5 564.8174,-165.5 442.084,-165.5"/>
<text text-anchor="middle" x="503.4507" y="-171.5" font-family="Helvetica,sans-Serif" font-size="10.00" fill="#000000">src/node_http_parser.cc</text>
</g>
<!-- Node1 -->
<g id="node2" class="node">
<title>Node1</title>
<g id="a_node2"><a xlink:href="../../d1/d77/node_8h.html" target="_top" xlink:title="node.h">
<polygon fill="#ffffff" stroke="#000000" points="126.1577,-55.5 126.1577,-73.5 172.7437,-73.5 172.7437,-55.5 126.1577,-55.5"/>
<text text-anchor="middle" x="149.4507" y="-61.5" font-family="Helvetica,sans-Serif" font-size="10.00" fill="#000000">node.h</text>
</a>
</g>
</g>
<!-- Node0&#45;&gt;Node1 -->
<g id="edge1" class="edge">
<title>Node0&#45;&gt;Node1</title>
<path fill="none" stroke="#191970" d="M441.8612,-169.7478C350.8098,-162.186 188.7926,-146.4725 168.4507,-129 155.4664,-117.8473 151.1228,-98.3111 149.7814,-83.6533"/>
<polygon fill="#191970" stroke="#191970" points="153.2738,-83.415 149.2474,-73.615 146.2837,-83.7869 153.2738,-83.415"/>
</g>
<!-- Node2 -->
<g id="node3" class="node">
<title>Node2</title>
<polygon fill="#ffffff" stroke="#bfbfbf" points="0,-.5 0,-18.5 34.9014,-18.5 34.9014,-.5 0,-.5"/>
<text text-anchor="middle" x="17.4507" y="-6.5" font-family="Helvetica,sans-Serif" font-size="10.00" fill="#000000">v8.h</text>
</g>
<!-- Node0&#45;&gt;Node2 -->
<g id="edge19" class="edge">
<title>Node0&#45;&gt;Node2</title>
<path fill="none" stroke="#191970" d="M441.9286,-172.6333C321.8487,-168.4018 65.4055,-156.2525 36.4507,-129 9.1453,-103.2999 10.6807,-55.341 14.1129,-28.6587"/>
<polygon fill="#191970" stroke="#191970" points="17.5914,-29.0631 15.6213,-18.653 10.6696,-28.0195 17.5914,-29.0631"/>
</g>
<!-- Node7 -->
<g id="node8" class="node">
<title>Node7</title>
<g id="a_node8"><a xlink:href="../../d8/d1c/node__buffer_8h.html" target="_top" xlink:title="node_buffer.h">
<polygon fill="#ffffff" stroke="#000000" points="44.9526,-110.5 44.9526,-128.5 121.9487,-128.5 121.9487,-110.5 44.9526,-110.5"/>
<text text-anchor="middle" x="83.4507" y="-116.5" font-family="Helvetica,sans-Serif" font-size="10.00" fill="#000000">node_buffer.h</text>
</a>
</g>
</g>
<!-- Node0&#45;&gt;Node7 -->
<g id="edge7" class="edge">
<title>Node0&#45;&gt;Node7</title>
<path fill="none" stroke="#191970" d="M441.7698,-167.9737C368.55,-159.9723 242.8339,-145.4336 135.4507,-129 134.3621,-128.8334 133.2613,-128.6616 132.1518,-128.4853"/>
<polygon fill="#191970" stroke="#191970" points="132.4666,-124.9897 122.0282,-126.8036 131.3194,-131.8951 132.4666,-124.9897"/>
</g>
<!-- Node8 -->
<g id="node9" class="node">
<title>Node8</title>
<g id="a_node9"><a xlink:href="../../d4/d56/async-wrap_8h.html" target="_top" xlink:title="async&#45;wrap.h">
<polygon fill="#ffffff" stroke="#000000" points="177.7168,-110.5 177.7168,-128.5 253.1846,-128.5 253.1846,-110.5 177.7168,-110.5"/>
<text text-anchor="middle" x="215.4507" y="-116.5" font-family="Helvetica,sans-Serif" font-size="10.00" fill="#000000">async&#45;wrap.h</text>
</a>
</g>
</g>
<!-- Node0&#45;&gt;Node8 -->
<g id="edge10" class="edge">
<title>Node0&#45;&gt;Node8</title>
<path fill="none" stroke="#191970" d="M454.4883,-165.4466C407.9589,-156.8002 335.7447,-143.2703 263.586,-129.2035"/>
<polygon fill="#191970" stroke="#191970" points="263.8927,-125.6974 253.4072,-127.2156 262.5508,-132.5676 263.8927,-125.6974"/>
</g>
<!-- Node9 -->
<g id="node10" class="node">
<title>Node9</title>
<g id="a_node10"><a xlink:href="../../d5/d30/async-wrap-inl_8h.html" target="_top" xlink:title="async&#45;wrap&#45;inl.h">
<polygon fill="#ffffff" stroke="#000000" points="271.0493,-110.5 271.0493,-128.5 359.8521,-128.5 359.8521,-110.5 271.0493,-110.5"/>
<text text-anchor="middle" x="315.4507" y="-116.5" font-family="Helvetica,sans-Serif" font-size="10.00" fill="#000000">async&#45;wrap&#45;inl.h</text>
</a>
</g>
</g>
<!-- Node0&#45;&gt;Node9 -->
<g id="edge11" class="edge">
<title>Node0&#45;&gt;Node9</title>
<path fill="none" stroke="#191970" d="M472.4063,-165.4179C440.6076,-156.115 391.02,-141.608 356.1074,-131.3943"/>
<polygon fill="#191970" stroke="#191970" points="356.8092,-127.9529 346.2287,-128.5042 354.8437,-134.6713 356.8092,-127.9529"/>
</g>
<!-- Node10 -->
<g id="node11" class="node">
<title>Node10</title>
<g id="a_node11"><a xlink:href="../../d5/d81/env_8h.html" target="_top" xlink:title="env.h">
<polygon fill="#ffffff" stroke="#000000" points="377.5879,-110.5 377.5879,-128.5 417.3135,-128.5 417.3135,-110.5 377.5879,-110.5"/>
<text text-anchor="middle" x="397.4507" y="-116.5" font-family="Helvetica,sans-Serif" font-size="10.00" fill="#000000">env.h</text>
</a>
</g>
</g>
<!-- Node0&#45;&gt;Node10 -->
<g id="edge12" class="edge">
<title>Node0&#45;&gt;Node10</title>
<path fill="none" stroke="#191970" d="M485.9469,-165.4179C469.0687,-156.6603 443.3019,-143.2907 423.9171,-133.2326"/>
<polygon fill="#191970" stroke="#191970" points="425.4687,-130.0946 414.9804,-128.5956 422.2447,-136.308 425.4687,-130.0946"/>
</g>
<!-- Node11 -->
<g id="node12" class="node">
<title>Node11</title>
<g id="a_node12"><a xlink:href="../../d9/d50/env-inl_8h.html" target="_top" xlink:title="env&#45;inl.h">
<polygon fill="#ffffff" stroke="#000000" points="435.5518,-110.5 435.5518,-128.5 489.3496,-128.5 489.3496,-110.5 435.5518,-110.5"/>
<text text-anchor="middle" x="462.4507" y="-116.5" font-family="Helvetica,sans-Serif" font-size="10.00" fill="#000000">env&#45;inl.h</text>
</a>
</g>
</g>
<!-- Node0&#45;&gt;Node11 -->
<g id="edge13" class="edge">
<title>Node0&#45;&gt;Node11</title>
<path fill="none" stroke="#191970" d="M496.6804,-165.4179C490.899,-157.6624 482.4214,-146.29 475.3497,-136.8035"/>
<polygon fill="#191970" stroke="#191970" points="478.1509,-134.7051 469.3681,-128.7795 472.5387,-138.8888 478.1509,-134.7051"/>
</g>
<!-- Node12 -->
<g id="node13" class="node">
<title>Node12</title>
<polygon fill="#ffffff" stroke="#bfbfbf" points="507.2612,-110.5 507.2612,-128.5 581.6401,-128.5 581.6401,-110.5 507.2612,-110.5"/>
<text text-anchor="middle" x="544.4507" y="-116.5" font-family="Helvetica,sans-Serif" font-size="10.00" fill="#000000">http_parser.h</text>
</g>
<!-- Node0&#45;&gt;Node12 -->
<g id="edge14" class="edge">
<title>Node0&#45;&gt;Node12</title>
<path fill="none" stroke="#191970" d="M510.221,-165.4179C516.0024,-157.6624 524.48,-146.29 531.5517,-136.8035"/>
<polygon fill="#191970" stroke="#191970" points="534.3627,-138.8888 537.5333,-128.7795 528.7505,-134.7051 534.3627,-138.8888"/>
</g>
<!-- Node13 -->
<g id="node14" class="node">
<title>Node13</title>
<g id="a_node14"><a xlink:href="../../db/d26/stream__base_8h.html" target="_top" xlink:title="stream_base.h">
<polygon fill="#ffffff" stroke="#000000" points="599.377,-110.5 599.377,-128.5 681.5244,-128.5 681.5244,-110.5 599.377,-110.5"/>
<text text-anchor="middle" x="640.4507" y="-116.5" font-family="Helvetica,sans-Serif" font-size="10.00" fill="#000000">stream_base.h</text>
</a>
</g>
</g>
<!-- Node0&#45;&gt;Node13 -->
<g id="edge15" class="edge">
<title>Node0&#45;&gt;Node13</title>
<path fill="none" stroke="#191970" d="M526.0734,-165.4179C548.4827,-156.4215 583.0152,-142.5581 608.2752,-132.4172"/>
<polygon fill="#191970" stroke="#191970" points="609.8182,-135.5693 617.7943,-128.5956 607.2102,-129.0732 609.8182,-135.5693"/>
</g>
<!-- Node14 -->
<g id="node15" class="node">
<title>Node14</title>
<g id="a_node15"><a xlink:href="../../d7/d82/stream__base-inl_8h.html" target="_top" xlink:title="stream_base&#45;inl.h">
<polygon fill="#ffffff" stroke="#000000" points="699.7095,-110.5 699.7095,-128.5 795.1919,-128.5 795.1919,-110.5 699.7095,-110.5"/>
<text text-anchor="middle" x="747.4507" y="-116.5" font-family="Helvetica,sans-Serif" font-size="10.00" fill="#000000">stream_base&#45;inl.h</text>
</a>
</g>
</g>
<!-- Node0&#45;&gt;Node14 -->
<g id="edge16" class="edge">
<title>Node0&#45;&gt;Node14</title>
<path fill="none" stroke="#191970" d="M543.4691,-165.4795C585.5763,-155.9881 651.9336,-141.0305 697.4583,-130.7688"/>
<polygon fill="#191970" stroke="#191970" points="698.4248,-134.1388 707.4104,-128.5255 696.8855,-127.3101 698.4248,-134.1388"/>
</g>
<!-- Node15 -->
<g id="node16" class="node">
<title>Node15</title>
<g id="a_node16"><a xlink:href="../../d8/d3c/util_8h.html" target="_top" xlink:title="util.h">
<polygon fill="#ffffff" stroke="#000000" points="812.8892,-110.5 812.8892,-128.5 850.0122,-128.5 850.0122,-110.5 812.8892,-110.5"/>
<text text-anchor="middle" x="831.4507" y="-116.5" font-family="Helvetica,sans-Serif" font-size="10.00" fill="#000000">util.h</text>
</a>
</g>
</g>
<!-- Node0&#45;&gt;Node15 -->
<g id="edge17" class="edge">
<title>Node0&#45;&gt;Node15</title>
<path fill="none" stroke="#191970" d="M564.9368,-168.6344C624.0276,-162.2271 715.8521,-150.2529 802.9342,-129.0293"/>
<polygon fill="#191970" stroke="#191970" points="803.8437,-132.4098 812.7056,-126.6033 802.1569,-125.6161 803.8437,-132.4098"/>
</g>
<!-- Node16 -->
<g id="node17" class="node">
<title>Node16</title>
<g id="a_node17"><a xlink:href="../../d5/d8c/util-inl_8h.html" target="_top" xlink:title="util&#45;inl.h">
<polygon fill="#ffffff" stroke="#000000" points="868.2217,-110.5 868.2217,-128.5 918.6797,-128.5 918.6797,-110.5 868.2217,-110.5"/>
<text text-anchor="middle" x="893.4507" y="-116.5" font-family="Helvetica,sans-Serif" font-size="10.00" fill="#000000">util&#45;inl.h</text>
</a>
</g>
</g>
<!-- Node0&#45;&gt;Node16 -->
<g id="edge18" class="edge">
<title>Node0&#45;&gt;Node16</title>
<path fill="none" stroke="#191970" d="M564.9973,-169.3728C634.1621,-162.9989 749.8893,-150.4995 857.8417,-129.0916"/>
<polygon fill="#191970" stroke="#191970" points="858.8155,-132.4658 867.9277,-127.0605 857.4335,-125.6036 858.8155,-132.4658"/>
</g>
<!-- Node17 -->
<g id="node18" class="node">
<title>Node17</title>
<polygon fill="#ffffff" stroke="#bfbfbf" points="936.6084,-110.5 936.6084,-128.5 984.293,-128.5 984.293,-110.5 936.6084,-110.5"/>
<text text-anchor="middle" x="960.4507" y="-116.5" font-family="Helvetica,sans-Serif" font-size="10.00" fill="#000000">stdlib.h</text>
</g>
<!-- Node0&#45;&gt;Node17 -->
<g id="edge20" class="edge">
<title>Node0&#45;&gt;Node17</title>
<path fill="none" stroke="#191970" d="M565.0374,-171.2476C645.9695,-166.2305 792.5703,-154.5846 926.3962,-128.8954"/>
<polygon fill="#191970" stroke="#191970" points="927.2732,-132.2904 936.4179,-126.9403 925.9328,-125.4199 927.2732,-132.2904"/>
</g>
<!-- Node18 -->
<g id="node19" class="node">
<title>Node18</title>
<polygon fill="#ffffff" stroke="#bfbfbf" points="1002.0542,-110.5 1002.0542,-128.5 1050.8472,-128.5 1050.8472,-110.5 1002.0542,-110.5"/>
<text text-anchor="middle" x="1026.4507" y="-116.5" font-family="Helvetica,sans-Serif" font-size="10.00" fill="#000000">string.h</text>
</g>
<!-- Node0&#45;&gt;Node18 -->
<g id="edge21" class="edge">
<title>Node0&#45;&gt;Node18</title>
<path fill="none" stroke="#191970" d="M565.0772,-172.4856C656.5441,-168.6806 833.6203,-158.1864 991.7952,-129.0204"/>
<polygon fill="#191970" stroke="#191970" points="992.5202,-132.4456 1001.7046,-127.1638 991.231,-125.5653 992.5202,-132.4456"/>
</g>
<!-- Node1&#45;&gt;Node2 -->
<g id="edge2" class="edge">
<title>Node1&#45;&gt;Node2</title>
<path fill="none" stroke="#191970" d="M127.6536,-55.4179C104.8706,-45.9249 69.0818,-31.013 44.5073,-20.7736"/>
<polygon fill="#191970" stroke="#191970" points="45.6287,-17.4492 35.0518,-16.8338 42.9364,-23.9108 45.6287,-17.4492"/>
</g>
<!-- Node3 -->
<g id="node4" class="node">
<title>Node3</title>
<g id="a_node4"><a xlink:href="../../da/d9c/node__version_8h.html" target="_top" xlink:title="node_version.h">
<polygon fill="#ffffff" stroke="#000000" points="53.2588,-.5 53.2588,-18.5 137.6426,-18.5 137.6426,-.5 53.2588,-.5"/>
<text text-anchor="middle" x="95.4507" y="-6.5" font-family="Helvetica,sans-Serif" font-size="10.00" fill="#000000">node_version.h</text>
</a>
</g>
</g>
<!-- Node1&#45;&gt;Node3 -->
<g id="edge3" class="edge">
<title>Node1&#45;&gt;Node3</title>
<path fill="none" stroke="#191970" d="M140.5337,-55.4179C132.6861,-47.425 121.0667,-35.5903 111.5896,-25.9377"/>
<polygon fill="#191970" stroke="#191970" points="114.0648,-23.463 104.5614,-18.7795 109.0699,-28.3672 114.0648,-23.463"/>
</g>
<!-- Node4 -->
<g id="node5" class="node">
<title>Node4</title>
<polygon fill="#ffffff" stroke="#bfbfbf" points="155.665,-.5 155.665,-18.5 207.2363,-18.5 207.2363,-.5 155.665,-.5"/>
<text text-anchor="middle" x="181.4507" y="-6.5" font-family="Helvetica,sans-Serif" font-size="10.00" fill="#000000">assert.h</text>
</g>
<!-- Node1&#45;&gt;Node4 -->
<g id="edge4" class="edge">
<title>Node1&#45;&gt;Node4</title>
<path fill="none" stroke="#191970" d="M154.7348,-55.4179C159.109,-47.8998 165.4606,-36.9829 170.8733,-27.6799"/>
<polygon fill="#191970" stroke="#191970" points="174.048,-29.1831 176.0517,-18.7795 167.9975,-25.6628 174.048,-29.1831"/>
</g>
<!-- Node5 -->
<g id="node6" class="node">
<title>Node5</title>
<polygon fill="#ffffff" stroke="#bfbfbf" points="225.3301,-.5 225.3301,-18.5 273.5713,-18.5 273.5713,-.5 225.3301,-.5"/>
<text text-anchor="middle" x="249.4507" y="-6.5" font-family="Helvetica,sans-Serif" font-size="10.00" fill="#000000">stdint.h</text>
</g>
<!-- Node1&#45;&gt;Node5 -->
<g id="edge5" class="edge">
<title>Node1&#45;&gt;Node5</title>
<path fill="none" stroke="#191970" d="M165.9636,-55.4179C181.7417,-46.7399 205.7535,-33.5334 223.9822,-23.5077"/>
<polygon fill="#191970" stroke="#191970" points="225.8377,-26.4816 232.9132,-18.5956 222.4643,-20.3481 225.8377,-26.4816"/>
</g>
<!-- Node6 -->
<g id="node7" class="node">
<title>Node6</title>
<polygon fill="#ffffff" stroke="#bfbfbf" points="291.4409,-.5 291.4409,-18.5 357.4604,-18.5 357.4604,-.5 291.4409,-.5"/>
<text text-anchor="middle" x="324.4507" y="-6.5" font-family="Helvetica,sans-Serif" font-size="10.00" fill="#000000">sys/types.h</text>
</g>
<!-- Node1&#45;&gt;Node6 -->
<g id="edge6" class="edge">
<title>Node1&#45;&gt;Node6</title>
<path fill="none" stroke="#191970" d="M173.052,-57.0825C202.0076,-47.9821 251.4905,-32.4304 285.9744,-21.5925"/>
<polygon fill="#191970" stroke="#191970" points="287.2233,-24.8689 295.7138,-18.5316 285.1244,-18.191 287.2233,-24.8689"/>
</g>
<!-- Node7&#45;&gt;Node1 -->
<g id="edge8" class="edge">
<title>Node7&#45;&gt;Node1</title>
<path fill="none" stroke="#191970" d="M94.3492,-110.4179C104.1306,-102.2667 118.7065,-90.1201 130.4104,-80.3669"/>
<polygon fill="#191970" stroke="#191970" points="132.8738,-82.8701 138.3153,-73.7795 128.3924,-77.4926 132.8738,-82.8701"/>
</g>
<!-- Node7&#45;&gt;Node2 -->
<g id="edge9" class="edge">
<title>Node7&#45;&gt;Node2</title>
<path fill="none" stroke="#191970" d="M78.0496,-110.4982C67.1721,-92.369 42.4495,-51.1647 28.1702,-27.3659"/>
<polygon fill="#191970" stroke="#191970" points="31.0726,-25.4003 22.9264,-18.6261 25.0701,-29.0018 31.0726,-25.4003"/>
</g>
</g>
</svg>
        <g id="navigator" transform="translate(0 0)" fill="#404254">
                <rect fill="#f2f5e9" fill-opacity="0.5" stroke="#606060" stroke-width=".5" x="0" y="0" width="60" height="60"/>
                <use id="zoomplus" xlink:href="#zoomPlus" x="17" y="9" onmousedown="handleZoom(evt,'in')"/>
                <use id="zoomminus" xlink:href="#zoomMin" x="42" y="9" onmousedown="handleZoom(evt,'out')"/>
                <use id="reset" xlink:href="#resetDef" x="30" y="36" onmousedown="handleReset()"/>
                <g id="arrowUp" xlink:href="#dirArrow" transform="translate(30 24)" onmousedown="handlePan(0,-1)">
                  <use xlink:href="#rim" fill="#404040">
                        <set attributeName="fill" to="#808080" begin="arrowUp.mouseover" end="arrowUp.mouseout"/>
                  </use>
                  <path fill="none" stroke="white" stroke-width="1.5" d="M0,-3.0v7 M-2.5,-0.5L0,-3.0L2.5,-0.5"/>
                </g>
                <g id="arrowRight" xlink:href="#dirArrow" transform="rotate(90) translate(36 -43)" onmousedown="handlePan(1,0)">
                  <use xlink:href="#rim" fill="#404040">
                        <set attributeName="fill" to="#808080" begin="arrowRight.mouseover" end="arrowRight.mouseout"/>
                  </use>
                  <path fill="none" stroke="white" stroke-width="1.5" d="M0,-3.0v7 M-2.5,-0.5L0,-3.0L2.5,-0.5"/>
                </g>
                <g id="arrowDown" xlink:href="#dirArrow" transform="rotate(180) translate(-30 -48)" onmousedown="handlePan(0,1)">
                  <use xlink:href="#rim" fill="#404040">
                        <set attributeName="fill" to="#808080" begin="arrowDown.mouseover" end="arrowDown.mouseout"/>
                  </use>
                  <path fill="none" stroke="white" stroke-width="1.5" d="M0,-3.0v7 M-2.5,-0.5L0,-3.0L2.5,-0.5"/>
                </g>
                <g id="arrowLeft" xlink:href="#dirArrow" transform="rotate(270) translate(-36 17)" onmousedown="handlePan(-1,0)">
                  <use xlink:href="#rim" fill="#404040">
                        <set attributeName="fill" to="#808080" begin="arrowLeft.mouseover" end="arrowLeft.mouseout"/>
                  </use>
                  <path fill="none" stroke="white" stroke-width="1.5" d="M0,-3.0v7 M-2.5,-0.5L0,-3.0L2.5,-0.5"/>
                </g>
        </g>
        <svg viewBox="0 0 15 15" width="100%" height="30px" preserveAspectRatio="xMaxYMin meet">
         <g id="arrow_out" transform="scale(0.3 0.3)">
          <a xlink:href="node__http__parser_8cc__incl_org.svg" target="_base">
           <rect id="button" ry="5" rx="5" y="6" x="6" height="38" width="38"
                fill="#f2f5e9" fill-opacity="0.5" stroke="#606060" stroke-width="1.0"/>
           <path id="arrow"
             d="M 11.500037,31.436501 C 11.940474,20.09759 22.043105,11.32322 32.158766,21.979434 L 37.068811,17.246167 C 37.068811,17.246167 37.088388,32 37.088388,32 L 22.160133,31.978069 C 22.160133,31.978069 26.997745,27.140456 26.997745,27.140456 C 18.528582,18.264221 13.291696,25.230495 11.500037,31.436501 z"
             style="fill:#404040;"/>
          </a>
         </g>
        </svg>
</svg>
