<?xml version="1.0" encoding="UTF-8" standalone="no"?>
<!DOCTYPE svg PUBLIC "-//W3C//DTD SVG 1.1//EN"
 "http://www.w3.org/Graphics/SVG/1.1/DTD/svg11.dtd">
<!-- Generated by graphviz version 2.40.1 (20161225.0304)
 -->
<!-- Title: src/inspector_socket_server.h Pages: 1 -->
<svg width="327pt" height="157pt"
 viewBox="0.00 0.00 326.60 157.00" xmlns="http://www.w3.org/2000/svg" xmlns:xlink="http://www.w3.org/1999/xlink">
<g id="graph0" class="graph" transform="scale(1 1) rotate(0) translate(4 153)">
<title>src/inspector_socket_server.h</title>
<polygon fill="#ffffff" stroke="transparent" points="-4,4 -4,-153 322.5981,-153 322.5981,4 -4,4"/>
<!-- Node14 -->
<g id="node1" class="node">
<title>Node14</title>
<polygon fill="#bfbfbf" stroke="#000000" points="129.4507,-120.5 129.4507,-148.5 236.5981,-148.5 236.5981,-120.5 129.4507,-120.5"/>
<text text-anchor="start" x="137.4507" y="-136.5" font-family="Helvetica,sans-Serif" font-size="10.00" fill="#000000">src/inspector_socket</text>
<text text-anchor="middle" x="183.0244" y="-126.5" font-family="Helvetica,sans-Serif" font-size="10.00" fill="#000000">_server.h</text>
</g>
<!-- Node15 -->
<g id="node2" class="node">
<title>Node15</title>
<g id="a_node2"><a xlink:href="../../d1/dc8/inspector__io_8h.html" target="_top" xlink:title="src/inspector_io.h">
<polygon fill="#ffffff" stroke="#000000" points="60.8398,-60.5 60.8398,-78.5 155.209,-78.5 155.209,-60.5 60.8398,-60.5"/>
<text text-anchor="middle" x="108.0244" y="-66.5" font-family="Helvetica,sans-Serif" font-size="10.00" fill="#000000">src/inspector_io.h</text>
</a>
</g>
</g>
<!-- Node14&#45;&gt;Node15 -->
<g id="edge1" class="edge">
<title>Node14&#45;&gt;Node15</title>
<path fill="none" stroke="#191970" d="M159.0871,-113.7543C145.413,-101.9034 128.9583,-87.6427 118.4948,-78.5743"/>
<polygon fill="#191970" stroke="#191970" points="156.9013,-116.4915 166.7505,-120.396 161.4859,-111.2017 156.9013,-116.4915"/>
</g>
<!-- Node17 -->
<g id="node4" class="node">
<title>Node17</title>
<g id="a_node4"><a xlink:href="../../d1/d89/inspector__io_8cc.html" target="_top" xlink:title="src/inspector_io.cc">
<polygon fill="#ffffff" stroke="#000000" points="133.6206,-.5 133.6206,-18.5 232.4282,-18.5 232.4282,-.5 133.6206,-.5"/>
<text text-anchor="middle" x="183.0244" y="-6.5" font-family="Helvetica,sans-Serif" font-size="10.00" fill="#000000">src/inspector_io.cc</text>
</a>
</g>
</g>
<!-- Node14&#45;&gt;Node17 -->
<g id="edge4" class="edge">
<title>Node14&#45;&gt;Node17</title>
<path fill="none" stroke="#191970" d="M183.0244,-109.9957C183.0244,-82.0593 183.0244,-37.8007 183.0244,-18.736"/>
<polygon fill="#191970" stroke="#191970" points="179.5245,-110.1609 183.0244,-120.1609 186.5245,-110.1609 179.5245,-110.1609"/>
</g>
<!-- Node18 -->
<g id="node5" class="node">
<title>Node18</title>
<g id="a_node5"><a xlink:href="../../da/d74/inspector__socket__server_8cc.html" target="_top" xlink:title="src/inspector_socket\l_server.cc">
<polygon fill="#ffffff" stroke="#000000" points="211.4507,-55.5 211.4507,-83.5 318.5981,-83.5 318.5981,-55.5 211.4507,-55.5"/>
<text text-anchor="start" x="219.4507" y="-71.5" font-family="Helvetica,sans-Serif" font-size="10.00" fill="#000000">src/inspector_socket</text>
<text text-anchor="middle" x="265.0244" y="-61.5" font-family="Helvetica,sans-Serif" font-size="10.00" fill="#000000">_server.cc</text>
</a>
</g>
</g>
<!-- Node14&#45;&gt;Node18 -->
<g id="edge5" class="edge">
<title>Node14&#45;&gt;Node18</title>
<path fill="none" stroke="#191970" d="M208.6745,-114.1677C221.2133,-104.2283 235.9908,-92.5144 247.2664,-83.5765"/>
<polygon fill="#191970" stroke="#191970" points="206.4796,-111.4412 200.8172,-120.396 210.828,-116.9268 206.4796,-111.4412"/>
</g>
<!-- Node16 -->
<g id="node3" class="node">
<title>Node16</title>
<g id="a_node3"><a xlink:href="../../d5/d2d/inspector__agent_8cc.html" target="_top" xlink:title="src/inspector_agent.cc">
<polygon fill="#ffffff" stroke="#000000" points="0,-.5 0,-18.5 116.0488,-18.5 116.0488,-.5 0,-.5"/>
<text text-anchor="middle" x="58.0244" y="-6.5" font-family="Helvetica,sans-Serif" font-size="10.00" fill="#000000">src/inspector_agent.cc</text>
</a>
</g>
</g>
<!-- Node15&#45;&gt;Node16 -->
<g id="edge2" class="edge">
<title>Node15&#45;&gt;Node16</title>
<path fill="none" stroke="#191970" d="M94.0063,-52.6783C84.8358,-41.6737 73.2048,-27.7165 65.6898,-18.6985"/>
<polygon fill="#191970" stroke="#191970" points="91.3398,-54.9457 100.4305,-60.3873 96.7174,-50.4644 91.3398,-54.9457"/>
</g>
<!-- Node15&#45;&gt;Node17 -->
<g id="edge3" class="edge">
<title>Node15&#45;&gt;Node17</title>
<path fill="none" stroke="#191970" d="M127.4509,-53.9588C141.4295,-42.7759 159.8117,-28.0702 171.5263,-18.6985"/>
<polygon fill="#191970" stroke="#191970" points="125.0376,-51.4073 119.4153,-60.3873 129.4105,-56.8734 125.0376,-51.4073"/>
</g>
</g>
</svg>
