<?xml version="1.0" encoding="UTF-8" standalone="no"?>
<!DOCTYPE svg PUBLIC "-//W3C//DTD SVG 1.1//EN"
 "http://www.w3.org/Graphics/SVG/1.1/DTD/svg11.dtd">
<!-- Generated by graphviz version 2.40.1 (20161225.0304)
 -->
<!-- Title: src/node_contextify.cc Pages: 1 -->
<svg width="971pt" height="137pt"
 viewBox="0.00 0.00 971.47 137.00" xmlns="http://www.w3.org/2000/svg" xmlns:xlink="http://www.w3.org/1999/xlink">
<g id="graph0" class="graph" transform="scale(1 1) rotate(0) translate(4 133)">
<title>src/node_contextify.cc</title>
<polygon fill="#ffffff" stroke="transparent" points="-4,4 -4,-133 967.4702,-133 967.4702,4 -4,4"/>
<!-- Node0 -->
<g id="node1" class="node">
<title>Node0</title>
<polygon fill="#bfbfbf" stroke="#000000" points="565.3516,-110.5 565.3516,-128.5 679.5498,-128.5 679.5498,-110.5 565.3516,-110.5"/>
<text text-anchor="middle" x="622.4507" y="-116.5" font-family="Helvetica,sans-Serif" font-size="10.00" fill="#000000">src/node_contextify.cc</text>
</g>
<!-- Node1 -->
<g id="node2" class="node">
<title>Node1</title>
<g id="a_node2"><a xlink:href="../../d1/d77/node_8h.html" target="_top" xlink:title="node.h">
<polygon fill="#ffffff" stroke="#000000" points="158.1577,-55.5 158.1577,-73.5 204.7437,-73.5 204.7437,-55.5 158.1577,-55.5"/>
<text text-anchor="middle" x="181.4507" y="-61.5" font-family="Helvetica,sans-Serif" font-size="10.00" fill="#000000">node.h</text>
</a>
</g>
</g>
<!-- Node0&#45;&gt;Node1 -->
<g id="edge1" class="edge">
<title>Node0&#45;&gt;Node1</title>
<path fill="none" stroke="#191970" d="M565.052,-116.3418C487.4879,-111.3627 344.8705,-99.6971 214.8809,-73.9768"/>
<polygon fill="#191970" stroke="#191970" points="215.2425,-70.4794 204.7485,-71.9378 213.8615,-77.3419 215.2425,-70.4794"/>
</g>
<!-- Node7 -->
<g id="node8" class="node">
<title>Node7</title>
<g id="a_node8"><a xlink:href="../../d4/dbf/node__internals_8h.html" target="_top" xlink:title="node_internals.h">
<polygon fill="#ffffff" stroke="#000000" points="222.478,-55.5 222.478,-73.5 312.4233,-73.5 312.4233,-55.5 222.478,-55.5"/>
<text text-anchor="middle" x="267.4507" y="-61.5" font-family="Helvetica,sans-Serif" font-size="10.00" fill="#000000">node_internals.h</text>
</a>
</g>
</g>
<!-- Node0&#45;&gt;Node7 -->
<g id="edge7" class="edge">
<title>Node0&#45;&gt;Node7</title>
<path fill="none" stroke="#191970" d="M565.2425,-111.2714C506.7743,-102.7669 413.0818,-88.8786 322.4151,-74.1279"/>
<polygon fill="#191970" stroke="#191970" points="322.9514,-70.6692 312.5181,-72.5123 321.8236,-77.5777 322.9514,-70.6692"/>
</g>
<!-- Node8 -->
<g id="node9" class="node">
<title>Node8</title>
<g id="a_node9"><a xlink:href="../../db/dff/node__watchdog_8h.html" target="_top" xlink:title="node_watchdog.h">
<polygon fill="#ffffff" stroke="#000000" points="329.9731,-55.5 329.9731,-73.5 424.9282,-73.5 424.9282,-55.5 329.9731,-55.5"/>
<text text-anchor="middle" x="377.4507" y="-61.5" font-family="Helvetica,sans-Serif" font-size="10.00" fill="#000000">node_watchdog.h</text>
</a>
</g>
</g>
<!-- Node0&#45;&gt;Node8 -->
<g id="edge8" class="edge">
<title>Node0&#45;&gt;Node8</title>
<path fill="none" stroke="#191970" d="M582.2683,-110.4795C539.9884,-100.9881 473.3592,-86.0305 427.648,-75.7688"/>
<polygon fill="#191970" stroke="#191970" points="428.1789,-72.3009 417.655,-73.5255 426.6456,-79.1309 428.1789,-72.3009"/>
</g>
<!-- Node9 -->
<g id="node10" class="node">
<title>Node9</title>
<g id="a_node10"><a xlink:href="../../de/da6/base-object_8h.html" target="_top" xlink:title="base&#45;object.h">
<polygon fill="#ffffff" stroke="#000000" points="442.4312,-55.5 442.4312,-73.5 518.4702,-73.5 518.4702,-55.5 442.4312,-55.5"/>
<text text-anchor="middle" x="480.4507" y="-61.5" font-family="Helvetica,sans-Serif" font-size="10.00" fill="#000000">base&#45;object.h</text>
</a>
</g>
</g>
<!-- Node0&#45;&gt;Node9 -->
<g id="edge9" class="edge">
<title>Node0&#45;&gt;Node9</title>
<path fill="none" stroke="#191970" d="M599.0023,-110.4179C575.6724,-101.3817 539.6654,-87.4353 513.4535,-77.2828"/>
<polygon fill="#191970" stroke="#191970" points="514.5231,-73.9437 503.9339,-73.5956 511.9948,-80.4712 514.5231,-73.9437"/>
</g>
<!-- Node10 -->
<g id="node11" class="node">
<title>Node10</title>
<g id="a_node11"><a xlink:href="../../d2/dc1/base-object-inl_8h.html" target="_top" xlink:title="base&#45;object&#45;inl.h">
<polygon fill="#ffffff" stroke="#000000" points="536.7637,-55.5 536.7637,-73.5 626.1377,-73.5 626.1377,-55.5 536.7637,-55.5"/>
<text text-anchor="middle" x="581.4507" y="-61.5" font-family="Helvetica,sans-Serif" font-size="10.00" fill="#000000">base&#45;object&#45;inl.h</text>
</a>
</g>
</g>
<!-- Node0&#45;&gt;Node10 -->
<g id="edge10" class="edge">
<title>Node0&#45;&gt;Node10</title>
<path fill="none" stroke="#191970" d="M615.6804,-110.4179C609.899,-102.6624 601.4214,-91.29 594.3497,-81.8035"/>
<polygon fill="#191970" stroke="#191970" points="597.1509,-79.7051 588.3681,-73.7795 591.5387,-83.8888 597.1509,-79.7051"/>
</g>
<!-- Node11 -->
<g id="node12" class="node">
<title>Node11</title>
<g id="a_node12"><a xlink:href="../../d5/d81/env_8h.html" target="_top" xlink:title="env.h">
<polygon fill="#ffffff" stroke="#000000" points="644.5879,-55.5 644.5879,-73.5 684.3135,-73.5 684.3135,-55.5 644.5879,-55.5"/>
<text text-anchor="middle" x="664.4507" y="-61.5" font-family="Helvetica,sans-Serif" font-size="10.00" fill="#000000">env.h</text>
</a>
</g>
</g>
<!-- Node0&#45;&gt;Node11 -->
<g id="edge11" class="edge">
<title>Node0&#45;&gt;Node11</title>
<path fill="none" stroke="#191970" d="M629.3861,-110.4179C635.3085,-102.6624 643.9929,-91.29 651.2371,-81.8035"/>
<polygon fill="#191970" stroke="#191970" points="654.0771,-83.8514 657.3646,-73.7795 648.5137,-79.6029 654.0771,-83.8514"/>
</g>
<!-- Node12 -->
<g id="node13" class="node">
<title>Node12</title>
<g id="a_node13"><a xlink:href="../../d9/d50/env-inl_8h.html" target="_top" xlink:title="env&#45;inl.h">
<polygon fill="#ffffff" stroke="#000000" points="702.5518,-55.5 702.5518,-73.5 756.3496,-73.5 756.3496,-55.5 702.5518,-55.5"/>
<text text-anchor="middle" x="729.4507" y="-61.5" font-family="Helvetica,sans-Serif" font-size="10.00" fill="#000000">env&#45;inl.h</text>
</a>
</g>
</g>
<!-- Node0&#45;&gt;Node12 -->
<g id="edge12" class="edge">
<title>Node0&#45;&gt;Node12</title>
<path fill="none" stroke="#191970" d="M640.1196,-110.4179C657.157,-101.6603 683.1669,-88.2907 702.7346,-78.2326"/>
<polygon fill="#191970" stroke="#191970" points="704.4618,-81.2801 711.7556,-73.5956 701.2616,-75.0544 704.4618,-81.2801"/>
</g>
<!-- Node13 -->
<g id="node14" class="node">
<title>Node13</title>
<g id="a_node14"><a xlink:href="../../d8/d3c/util_8h.html" target="_top" xlink:title="util.h">
<polygon fill="#ffffff" stroke="#000000" points="773.8892,-55.5 773.8892,-73.5 811.0122,-73.5 811.0122,-55.5 773.8892,-55.5"/>
<text text-anchor="middle" x="792.4507" y="-61.5" font-family="Helvetica,sans-Serif" font-size="10.00" fill="#000000">util.h</text>
</a>
</g>
</g>
<!-- Node0&#45;&gt;Node13 -->
<g id="edge13" class="edge">
<title>Node0&#45;&gt;Node13</title>
<path fill="none" stroke="#191970" d="M651.8396,-110.4344C678.8278,-102.0468 720.1531,-89.0471 764.1594,-74.3717"/>
<polygon fill="#191970" stroke="#191970" points="765.5137,-77.6093 773.885,-71.1154 763.2911,-70.9715 765.5137,-77.6093"/>
</g>
<!-- Node14 -->
<g id="node15" class="node">
<title>Node14</title>
<g id="a_node15"><a xlink:href="../../d5/d8c/util-inl_8h.html" target="_top" xlink:title="util&#45;inl.h">
<polygon fill="#ffffff" stroke="#000000" points="829.2217,-55.5 829.2217,-73.5 879.6797,-73.5 879.6797,-55.5 829.2217,-55.5"/>
<text text-anchor="middle" x="854.4507" y="-61.5" font-family="Helvetica,sans-Serif" font-size="10.00" fill="#000000">util&#45;inl.h</text>
</a>
</g>
</g>
<!-- Node0&#45;&gt;Node14 -->
<g id="edge14" class="edge">
<title>Node0&#45;&gt;Node14</title>
<path fill="none" stroke="#191970" d="M664.3047,-110.4758C702.3551,-102.139 760.275,-89.1196 819.0453,-74.2811"/>
<polygon fill="#191970" stroke="#191970" points="820.0348,-77.641 828.8651,-71.7865 818.3112,-70.8565 820.0348,-77.641"/>
</g>
<!-- Node15 -->
<g id="node16" class="node">
<title>Node15</title>
<polygon fill="#ffffff" stroke="#bfbfbf" points="897.4312,-55.5 897.4312,-73.5 963.4702,-73.5 963.4702,-55.5 897.4312,-55.5"/>
<text text-anchor="middle" x="930.4507" y="-61.5" font-family="Helvetica,sans-Serif" font-size="10.00" fill="#000000">v8&#45;debug.h</text>
</g>
<!-- Node0&#45;&gt;Node15 -->
<g id="edge15" class="edge">
<title>Node0&#45;&gt;Node15</title>
<path fill="none" stroke="#191970" d="M679.6893,-110.6092C731.4534,-102.3647 809.9938,-89.3506 887.1271,-74.1881"/>
<polygon fill="#191970" stroke="#191970" points="887.8841,-77.6063 897.0141,-72.231 886.5248,-70.7395 887.8841,-77.6063"/>
</g>
<!-- Node2 -->
<g id="node3" class="node">
<title>Node2</title>
<polygon fill="#ffffff" stroke="#bfbfbf" points="0,-.5 0,-18.5 34.9014,-18.5 34.9014,-.5 0,-.5"/>
<text text-anchor="middle" x="17.4507" y="-6.5" font-family="Helvetica,sans-Serif" font-size="10.00" fill="#000000">v8.h</text>
</g>
<!-- Node1&#45;&gt;Node2 -->
<g id="edge2" class="edge">
<title>Node1&#45;&gt;Node2</title>
<path fill="none" stroke="#191970" d="M158.1376,-56.8963C132.6007,-48.5371 90.211,-34.5739 44.6182,-19.0161"/>
<polygon fill="#191970" stroke="#191970" points="45.7485,-15.7036 35.1539,-15.7792 43.4832,-22.327 45.7485,-15.7036"/>
</g>
<!-- Node3 -->
<g id="node4" class="node">
<title>Node3</title>
<g id="a_node4"><a xlink:href="../../da/d9c/node__version_8h.html" target="_top" xlink:title="node_version.h">
<polygon fill="#ffffff" stroke="#000000" points="53.2588,-.5 53.2588,-18.5 137.6426,-18.5 137.6426,-.5 53.2588,-.5"/>
<text text-anchor="middle" x="95.4507" y="-6.5" font-family="Helvetica,sans-Serif" font-size="10.00" fill="#000000">node_version.h</text>
</a>
</g>
</g>
<!-- Node1&#45;&gt;Node3 -->
<g id="edge3" class="edge">
<title>Node1&#45;&gt;Node3</title>
<path fill="none" stroke="#191970" d="M167.2495,-55.4179C153.9294,-46.8992 133.7857,-34.0166 118.2215,-24.0627"/>
<polygon fill="#191970" stroke="#191970" points="119.9832,-21.0348 109.6729,-18.5956 116.2117,-26.932 119.9832,-21.0348"/>
</g>
<!-- Node4 -->
<g id="node5" class="node">
<title>Node4</title>
<polygon fill="#ffffff" stroke="#bfbfbf" points="155.665,-.5 155.665,-18.5 207.2363,-18.5 207.2363,-.5 155.665,-.5"/>
<text text-anchor="middle" x="181.4507" y="-6.5" font-family="Helvetica,sans-Serif" font-size="10.00" fill="#000000">assert.h</text>
</g>
<!-- Node1&#45;&gt;Node4 -->
<g id="edge4" class="edge">
<title>Node1&#45;&gt;Node4</title>
<path fill="none" stroke="#191970" d="M181.4507,-55.4179C181.4507,-48.2164 181.4507,-37.8962 181.4507,-28.8632"/>
<polygon fill="#191970" stroke="#191970" points="184.9508,-28.7794 181.4507,-18.7795 177.9508,-28.7795 184.9508,-28.7794"/>
</g>
<!-- Node5 -->
<g id="node6" class="node">
<title>Node5</title>
<polygon fill="#ffffff" stroke="#bfbfbf" points="225.3301,-.5 225.3301,-18.5 273.5713,-18.5 273.5713,-.5 225.3301,-.5"/>
<text text-anchor="middle" x="249.4507" y="-6.5" font-family="Helvetica,sans-Serif" font-size="10.00" fill="#000000">stdint.h</text>
</g>
<!-- Node1&#45;&gt;Node5 -->
<g id="edge5" class="edge">
<title>Node1&#45;&gt;Node5</title>
<path fill="none" stroke="#191970" d="M192.6795,-55.4179C202.8551,-47.1876 218.067,-34.8839 230.1837,-25.0836"/>
<polygon fill="#191970" stroke="#191970" points="232.4038,-27.7895 237.9779,-18.7795 228.0017,-22.3469 232.4038,-27.7895"/>
</g>
<!-- Node6 -->
<g id="node7" class="node">
<title>Node6</title>
<polygon fill="#ffffff" stroke="#bfbfbf" points="291.4409,-.5 291.4409,-18.5 357.4604,-18.5 357.4604,-.5 291.4409,-.5"/>
<text text-anchor="middle" x="324.4507" y="-6.5" font-family="Helvetica,sans-Serif" font-size="10.00" fill="#000000">sys/types.h</text>
</g>
<!-- Node1&#45;&gt;Node6 -->
<g id="edge6" class="edge">
<title>Node1&#45;&gt;Node6</title>
<path fill="none" stroke="#191970" d="M204.7444,-55.5409C228.1834,-46.5259 264.5597,-32.535 291.0635,-22.3412"/>
<polygon fill="#191970" stroke="#191970" points="292.6134,-25.4951 300.6904,-18.6386 290.1005,-18.9617 292.6134,-25.4951"/>
</g>
</g>
</svg>
