<?xml version="1.0" encoding="UTF-8" standalone="no"?>
<!DOCTYPE svg PUBLIC "-//W3C//DTD SVG 1.1//EN"
 "http://www.w3.org/Graphics/SVG/1.1/DTD/svg11.dtd">
<!-- Generated by graphviz version 2.40.1 (20161225.0304)
 -->
<!-- Title: src/base64.h Pages: 1 -->
<svg width="114pt" height="82pt"
 viewBox="0.00 0.00 114.35 82.00" xmlns="http://www.w3.org/2000/svg" xmlns:xlink="http://www.w3.org/1999/xlink">
<g id="graph0" class="graph" transform="scale(1 1) rotate(0) translate(4 78)">
<title>src/base64.h</title>
<polygon fill="#ffffff" stroke="transparent" points="-4,4 -4,-78 110.3521,-78 110.3521,4 -4,4"/>
<!-- Node0 -->
<g id="node1" class="node">
<title>Node0</title>
<polygon fill="#bfbfbf" stroke="#000000" points="12.9336,-55.5 12.9336,-73.5 86.1895,-73.5 86.1895,-55.5 12.9336,-55.5"/>
<text text-anchor="middle" x="49.5615" y="-61.5" font-family="Helvetica,sans-Serif" font-size="10.00" fill="#000000">src/base64.h</text>
</g>
<!-- Node1 -->
<g id="node2" class="node">
<title>Node1</title>
<g id="a_node2"><a xlink:href="../../d8/d3c/util_8h.html" target="_top" xlink:title="util.h">
<polygon fill="#ffffff" stroke="#000000" points="0,-.5 0,-18.5 37.123,-18.5 37.123,-.5 0,-.5"/>
<text text-anchor="middle" x="18.5615" y="-6.5" font-family="Helvetica,sans-Serif" font-size="10.00" fill="#000000">util.h</text>
</a>
</g>
</g>
<!-- Node0&#45;&gt;Node1 -->
<g id="edge1" class="edge">
<title>Node0&#45;&gt;Node1</title>
<path fill="none" stroke="#191970" d="M44.4425,-55.4179C40.2051,-47.8998 34.0519,-36.9829 28.8083,-27.6799"/>
<polygon fill="#191970" stroke="#191970" points="31.751,-25.7724 23.7918,-18.7795 25.6529,-29.2096 31.751,-25.7724"/>
</g>
<!-- Node2 -->
<g id="node3" class="node">
<title>Node2</title>
<polygon fill="#ffffff" stroke="#bfbfbf" points="54.771,-.5 54.771,-18.5 106.3521,-18.5 106.3521,-.5 54.771,-.5"/>
<text text-anchor="middle" x="80.5615" y="-6.5" font-family="Helvetica,sans-Serif" font-size="10.00" fill="#000000">stddef.h</text>
</g>
<!-- Node0&#45;&gt;Node2 -->
<g id="edge2" class="edge">
<title>Node0&#45;&gt;Node2</title>
<path fill="none" stroke="#191970" d="M54.6805,-55.4179C58.918,-47.8998 65.0712,-36.9829 70.3147,-27.6799"/>
<polygon fill="#191970" stroke="#191970" points="73.4701,-29.2096 75.3313,-18.7795 67.3721,-25.7724 73.4701,-29.2096"/>
</g>
</g>
</svg>
