<?xml version="1.0" encoding="UTF-8" standalone="no"?>
<!DOCTYPE svg PUBLIC "-//W3C//DTD SVG 1.1//EN"
 "http://www.w3.org/Graphics/SVG/1.1/DTD/svg11.dtd">
<!-- Generated by graphviz version 2.40.1 (20161225.0304)
 -->
<!-- Title: src/node_api_types.h Pages: 1 -->
<svg width="119pt" height="137pt"
 viewBox="0.00 0.00 119.06 137.00" xmlns="http://www.w3.org/2000/svg" xmlns:xlink="http://www.w3.org/1999/xlink">
<g id="graph0" class="graph" transform="scale(1 1) rotate(0) translate(4 133)">
<title>src/node_api_types.h</title>
<polygon fill="#ffffff" stroke="transparent" points="-4,4 -4,-133 115.0635,-133 115.0635,4 -4,4"/>
<!-- Node3 -->
<g id="node1" class="node">
<title>Node3</title>
<polygon fill="#bfbfbf" stroke="#000000" points="0,-110.5 0,-128.5 111.0635,-128.5 111.0635,-110.5 0,-110.5"/>
<text text-anchor="middle" x="55.5317" y="-116.5" font-family="Helvetica,sans-Serif" font-size="10.00" fill="#000000">src/node_api_types.h</text>
</g>
<!-- Node4 -->
<g id="node2" class="node">
<title>Node4</title>
<g id="a_node2"><a xlink:href="../../d1/db7/node__api_8h.html" target="_top" xlink:title="src/node_api.h">
<polygon fill="#ffffff" stroke="#000000" points="14.7314,-55.5 14.7314,-73.5 96.332,-73.5 96.332,-55.5 14.7314,-55.5"/>
<text text-anchor="middle" x="55.5317" y="-61.5" font-family="Helvetica,sans-Serif" font-size="10.00" fill="#000000">src/node_api.h</text>
</a>
</g>
</g>
<!-- Node3&#45;&gt;Node4 -->
<g id="edge1" class="edge">
<title>Node3&#45;&gt;Node4</title>
<path fill="none" stroke="#191970" d="M55.5317,-100.383C55.5317,-91.3738 55.5317,-81.0373 55.5317,-73.7795"/>
<polygon fill="#191970" stroke="#191970" points="52.0318,-100.4178 55.5317,-110.4179 59.0318,-100.4179 52.0318,-100.4178"/>
</g>
<!-- Node5 -->
<g id="node3" class="node">
<title>Node5</title>
<g id="a_node3"><a xlink:href="../../d8/d91/node__api_8cc.html" target="_top" xlink:title="src/node_api.cc">
<polygon fill="#ffffff" stroke="#000000" points="12.5122,-.5 12.5122,-18.5 98.5513,-18.5 98.5513,-.5 12.5122,-.5"/>
<text text-anchor="middle" x="55.5317" y="-6.5" font-family="Helvetica,sans-Serif" font-size="10.00" fill="#000000">src/node_api.cc</text>
</a>
</g>
</g>
<!-- Node4&#45;&gt;Node5 -->
<g id="edge2" class="edge">
<title>Node4&#45;&gt;Node5</title>
<path fill="none" stroke="#191970" d="M55.5317,-45.383C55.5317,-36.3738 55.5317,-26.0373 55.5317,-18.7795"/>
<polygon fill="#191970" stroke="#191970" points="52.0318,-45.4178 55.5317,-55.4179 59.0318,-45.4179 52.0318,-45.4178"/>
</g>
</g>
</svg>
