<?xml version="1.0" encoding="UTF-8" standalone="no"?>
<!DOCTYPE svg PUBLIC "-//W3C//DTD SVG 1.1//EN"
 "http://www.w3.org/Graphics/SVG/1.1/DTD/svg11.dtd">
<!-- Generated by graphviz version 2.40.1 (20161225.0304)
 -->
<!-- Title: src/handle_wrap.cc Pages: 1 -->
<!--zoomable 137 -->
<svg id="main" version="1.1" xmlns="http://www.w3.org/2000/svg" xmlns:xlink="http://www.w3.org/1999/xlink" xml:space="preserve" onload="init(evt)">
<style type="text/css"><![CDATA[
.edge:hover path { stroke: red; }
.edge:hover polygon { stroke: red; fill: red; }
]]></style>
<script type="text/javascript"><![CDATA[
var edges = document.getElementsByTagName('g');
if (edges && edges.length) {
  for (var i=0;i<edges.length;i++) {
    if (edges[i].id.substr(0,4)=='edge') {
      edges[i].setAttribute('class','edge');
    }
  }
}
]]></script>
        <defs>
                <circle id="rim" cx="0" cy="0" r="7"/>
                <circle id="rim2" cx="0" cy="0" r="3.5"/>
                <g id="zoomPlus">
                        <use xlink:href="#rim" fill="#404040">
                                <set attributeName="fill" to="#808080" begin="zoomplus.mouseover" end="zoomplus.mouseout"/>
                        </use>
                        <path d="M-4,0h8M0,-4v8" fill="none" stroke="white" stroke-width="1.5" pointer-events="none"/>
                </g>
                <g id="zoomMin">
                        <use xlink:href="#rim" fill="#404040">
                                <set attributeName="fill" to="#808080" begin="zoomminus.mouseover" end="zoomminus.mouseout"/>
                        </use>
                        <path d="M-4,0h8" fill="none" stroke="white" stroke-width="1.5" pointer-events="none"/>
                </g>
                <g id="dirArrow">
                        <path fill="none" stroke="white" stroke-width="1.5" d="M0,-3.0v7 M-2.5,-0.5L0,-3.0L2.5,-0.5"/>
                </g>
               <g id="resetDef">
                       <use xlink:href="#rim2" fill="#404040">
                               <set attributeName="fill" to="#808080" begin="reset.mouseover" end="reset.mouseout"/>
                       </use>
               </g>
        </defs>

<script type="text/javascript">
var viewWidth = 761;
var viewHeight = 137;
var sectionId = 'dynsection-0';
</script>
<script xlink:href="../../svgpan.js"/>
<svg id="graph" class="graph">
<g id="viewport">
<title>src/handle_wrap.cc</title>
<polygon fill="#ffffff" stroke="transparent" points="-4,4 -4,-133 756.8125,-133 756.8125,4 -4,4"/>
<!-- Node0 -->
<g id="node1" class="node">
<title>Node0</title>
<polygon fill="#bfbfbf" stroke="#000000" points="300.7266,-110.5 300.7266,-128.5 402.8789,-128.5 402.8789,-110.5 300.7266,-110.5"/>
<text text-anchor="middle" x="351.8027" y="-116.5" font-family="Helvetica,sans-Serif" font-size="10.00" fill="#000000">src/handle_wrap.cc</text>
</g>
<!-- Node1 -->
<g id="node2" class="node">
<title>Node1</title>
<g id="a_node2"><a xlink:href="../../da/db4/handle__wrap_8h.html" target="_top" xlink:title="handle_wrap.h">
<polygon fill="#ffffff" stroke="#000000" points="0,-55.5 0,-73.5 81.6055,-73.5 81.6055,-55.5 0,-55.5"/>
<text text-anchor="middle" x="40.8027" y="-61.5" font-family="Helvetica,sans-Serif" font-size="10.00" fill="#000000">handle_wrap.h</text>
</a>
</g>
</g>
<!-- Node0&#45;&gt;Node1 -->
<g id="edge1" class="edge">
<title>Node0&#45;&gt;Node1</title>
<path fill="none" stroke="#191970" d="M300.2585,-110.7516C249.7422,-102.1242 170.2811,-88.4118 91.7871,-74.1586"/>
<polygon fill="#191970" stroke="#191970" points="92.1884,-70.6742 81.7233,-72.3272 90.935,-77.5611 92.1884,-70.6742"/>
</g>
<!-- Node2 -->
<g id="node3" class="node">
<title>Node2</title>
<g id="a_node3"><a xlink:href="../../d4/d56/async-wrap_8h.html" target="_top" xlink:title="async&#45;wrap.h">
<polygon fill="#ffffff" stroke="#000000" points="100.0688,-55.5 100.0688,-73.5 175.5366,-73.5 175.5366,-55.5 100.0688,-55.5"/>
<text text-anchor="middle" x="137.8027" y="-61.5" font-family="Helvetica,sans-Serif" font-size="10.00" fill="#000000">async&#45;wrap.h</text>
</a>
</g>
</g>
<!-- Node0&#45;&gt;Node2 -->
<g id="edge2" class="edge">
<title>Node0&#45;&gt;Node2</title>
<path fill="none" stroke="#191970" d="M316.465,-110.4179C279.8025,-100.9953 222.3662,-86.2336 182.5555,-76.0019"/>
<polygon fill="#191970" stroke="#191970" points="183.3938,-72.6036 172.8373,-73.5042 181.6513,-79.3833 183.3938,-72.6036"/>
</g>
<!-- Node3 -->
<g id="node4" class="node">
<title>Node3</title>
<g id="a_node4"><a xlink:href="../../d5/d30/async-wrap-inl_8h.html" target="_top" xlink:title="async&#45;wrap&#45;inl.h">
<polygon fill="#ffffff" stroke="#000000" points="193.4014,-55.5 193.4014,-73.5 282.2041,-73.5 282.2041,-55.5 193.4014,-55.5"/>
<text text-anchor="middle" x="237.8027" y="-61.5" font-family="Helvetica,sans-Serif" font-size="10.00" fill="#000000">async&#45;wrap&#45;inl.h</text>
</a>
</g>
</g>
<!-- Node0&#45;&gt;Node3 -->
<g id="edge3" class="edge">
<title>Node0&#45;&gt;Node3</title>
<path fill="none" stroke="#191970" d="M332.978,-110.4179C314.6609,-101.5807 286.6098,-88.0473 265.6997,-77.9591"/>
<polygon fill="#191970" stroke="#191970" points="267.1829,-74.7887 256.6555,-73.5956 264.1412,-81.0933 267.1829,-74.7887"/>
</g>
<!-- Node4 -->
<g id="node5" class="node">
<title>Node4</title>
<g id="a_node5"><a xlink:href="../../d5/d81/env_8h.html" target="_top" xlink:title="env.h">
<polygon fill="#ffffff" stroke="#000000" points="299.9399,-55.5 299.9399,-73.5 339.6655,-73.5 339.6655,-55.5 299.9399,-55.5"/>
<text text-anchor="middle" x="319.8027" y="-61.5" font-family="Helvetica,sans-Serif" font-size="10.00" fill="#000000">env.h</text>
</a>
</g>
</g>
<!-- Node0&#45;&gt;Node4 -->
<g id="edge4" class="edge">
<title>Node0&#45;&gt;Node4</title>
<path fill="none" stroke="#191970" d="M346.5186,-110.4179C342.1444,-102.8998 335.7928,-91.9829 330.3801,-82.6799"/>
<polygon fill="#191970" stroke="#191970" points="333.2559,-80.6628 325.2017,-73.7795 327.2055,-84.1831 333.2559,-80.6628"/>
</g>
<!-- Node5 -->
<g id="node6" class="node">
<title>Node5</title>
<g id="a_node6"><a xlink:href="../../d9/d50/env-inl_8h.html" target="_top" xlink:title="env&#45;inl.h">
<polygon fill="#ffffff" stroke="#000000" points="357.9038,-55.5 357.9038,-73.5 411.7017,-73.5 411.7017,-55.5 357.9038,-55.5"/>
<text text-anchor="middle" x="384.8027" y="-61.5" font-family="Helvetica,sans-Serif" font-size="10.00" fill="#000000">env&#45;inl.h</text>
</a>
</g>
</g>
<!-- Node0&#45;&gt;Node5 -->
<g id="edge5" class="edge">
<title>Node0&#45;&gt;Node5</title>
<path fill="none" stroke="#191970" d="M357.252,-110.4179C361.8103,-102.8207 368.4511,-91.7527 374.0708,-82.3866"/>
<polygon fill="#191970" stroke="#191970" points="377.0913,-84.1552 379.2351,-73.7795 371.0888,-80.5536 377.0913,-84.1552"/>
</g>
<!-- Node6 -->
<g id="node7" class="node">
<title>Node6</title>
<g id="a_node7"><a xlink:href="../../d8/d3c/util_8h.html" target="_top" xlink:title="util.h">
<polygon fill="#ffffff" stroke="#000000" points="429.2412,-55.5 429.2412,-73.5 466.3643,-73.5 466.3643,-55.5 429.2412,-55.5"/>
<text text-anchor="middle" x="447.8027" y="-61.5" font-family="Helvetica,sans-Serif" font-size="10.00" fill="#000000">util.h</text>
</a>
</g>
</g>
<!-- Node0&#45;&gt;Node6 -->
<g id="edge6" class="edge">
<title>Node0&#45;&gt;Node6</title>
<path fill="none" stroke="#191970" d="M367.6552,-110.4179C382.6632,-101.8195 405.4312,-88.7754 422.8699,-78.7844"/>
<polygon fill="#191970" stroke="#191970" points="424.9898,-81.6037 431.9267,-73.5956 421.51,-75.5299 424.9898,-81.6037"/>
</g>
<!-- Node7 -->
<g id="node8" class="node">
<title>Node7</title>
<g id="a_node8"><a xlink:href="../../d5/d8c/util-inl_8h.html" target="_top" xlink:title="util&#45;inl.h">
<polygon fill="#ffffff" stroke="#000000" points="484.5737,-55.5 484.5737,-73.5 535.0317,-73.5 535.0317,-55.5 484.5737,-55.5"/>
<text text-anchor="middle" x="509.8027" y="-61.5" font-family="Helvetica,sans-Serif" font-size="10.00" fill="#000000">util&#45;inl.h</text>
</a>
</g>
</g>
<!-- Node0&#45;&gt;Node7 -->
<g id="edge7" class="edge">
<title>Node0&#45;&gt;Node7</title>
<path fill="none" stroke="#191970" d="M377.8932,-110.4179C404.3157,-101.2202 445.3525,-86.9352 474.6345,-76.7421"/>
<polygon fill="#191970" stroke="#191970" points="476.1649,-79.9154 484.4584,-73.3224 473.8636,-73.3045 476.1649,-79.9154"/>
</g>
<!-- Node8 -->
<g id="node9" class="node">
<title>Node8</title>
<g id="a_node9"><a xlink:href="../../d1/d77/node_8h.html" target="_top" xlink:title="node.h">
<polygon fill="#ffffff" stroke="#000000" points="553.5098,-55.5 553.5098,-73.5 600.0957,-73.5 600.0957,-55.5 553.5098,-55.5"/>
<text text-anchor="middle" x="576.8027" y="-61.5" font-family="Helvetica,sans-Serif" font-size="10.00" fill="#000000">node.h</text>
</a>
</g>
</g>
<!-- Node0&#45;&gt;Node8 -->
<g id="edge8" class="edge">
<title>Node0&#45;&gt;Node8</title>
<path fill="none" stroke="#191970" d="M392.3955,-110.4707C429.2978,-102.1304 485.466,-89.1085 543.6685,-73.9379"/>
<polygon fill="#191970" stroke="#191970" points="544.6198,-77.3069 553.4049,-71.3847 542.8441,-70.5358 544.6198,-77.3069"/>
</g>
<!-- Node9 -->
<g id="node10" class="node">
<title>Node9</title>
<polygon fill="#ffffff" stroke="#bfbfbf" points="395.3521,-.5 395.3521,-18.5 430.2534,-18.5 430.2534,-.5 395.3521,-.5"/>
<text text-anchor="middle" x="412.8027" y="-6.5" font-family="Helvetica,sans-Serif" font-size="10.00" fill="#000000">v8.h</text>
</g>
<!-- Node8&#45;&gt;Node9 -->
<g id="edge9" class="edge">
<title>Node8&#45;&gt;Node9</title>
<path fill="none" stroke="#191970" d="M553.4897,-56.8963C527.9527,-48.5371 485.563,-34.5739 439.9702,-19.0161"/>
<polygon fill="#191970" stroke="#191970" points="441.1005,-15.7036 430.5059,-15.7792 438.8352,-22.327 441.1005,-15.7036"/>
</g>
<!-- Node10 -->
<g id="node11" class="node">
<title>Node10</title>
<g id="a_node11"><a xlink:href="../../da/d9c/node__version_8h.html" target="_top" xlink:title="node_version.h">
<polygon fill="#ffffff" stroke="#000000" points="448.6108,-.5 448.6108,-18.5 532.9946,-18.5 532.9946,-.5 448.6108,-.5"/>
<text text-anchor="middle" x="490.8027" y="-6.5" font-family="Helvetica,sans-Serif" font-size="10.00" fill="#000000">node_version.h</text>
</a>
</g>
</g>
<!-- Node8&#45;&gt;Node10 -->
<g id="edge10" class="edge">
<title>Node8&#45;&gt;Node10</title>
<path fill="none" stroke="#191970" d="M562.6016,-55.4179C549.2814,-46.8992 529.1377,-34.0166 513.5735,-24.0627"/>
<polygon fill="#191970" stroke="#191970" points="515.3352,-21.0348 505.025,-18.5956 511.5638,-26.932 515.3352,-21.0348"/>
</g>
<!-- Node11 -->
<g id="node12" class="node">
<title>Node11</title>
<polygon fill="#ffffff" stroke="#bfbfbf" points="551.0171,-.5 551.0171,-18.5 602.5884,-18.5 602.5884,-.5 551.0171,-.5"/>
<text text-anchor="middle" x="576.8027" y="-6.5" font-family="Helvetica,sans-Serif" font-size="10.00" fill="#000000">assert.h</text>
</g>
<!-- Node8&#45;&gt;Node11 -->
<g id="edge11" class="edge">
<title>Node8&#45;&gt;Node11</title>
<path fill="none" stroke="#191970" d="M576.8027,-55.4179C576.8027,-48.2164 576.8027,-37.8962 576.8027,-28.8632"/>
<polygon fill="#191970" stroke="#191970" points="580.3028,-28.7794 576.8027,-18.7795 573.3028,-28.7795 580.3028,-28.7794"/>
</g>
<!-- Node12 -->
<g id="node13" class="node">
<title>Node12</title>
<polygon fill="#ffffff" stroke="#bfbfbf" points="620.6821,-.5 620.6821,-18.5 668.9233,-18.5 668.9233,-.5 620.6821,-.5"/>
<text text-anchor="middle" x="644.8027" y="-6.5" font-family="Helvetica,sans-Serif" font-size="10.00" fill="#000000">stdint.h</text>
</g>
<!-- Node8&#45;&gt;Node12 -->
<g id="edge12" class="edge">
<title>Node8&#45;&gt;Node12</title>
<path fill="none" stroke="#191970" d="M588.0316,-55.4179C598.2072,-47.1876 613.419,-34.8839 625.5358,-25.0836"/>
<polygon fill="#191970" stroke="#191970" points="627.7559,-27.7895 633.33,-18.7795 623.3538,-22.3469 627.7559,-27.7895"/>
</g>
<!-- Node13 -->
<g id="node14" class="node">
<title>Node13</title>
<polygon fill="#ffffff" stroke="#bfbfbf" points="686.793,-.5 686.793,-18.5 752.8125,-18.5 752.8125,-.5 686.793,-.5"/>
<text text-anchor="middle" x="719.8027" y="-6.5" font-family="Helvetica,sans-Serif" font-size="10.00" fill="#000000">sys/types.h</text>
</g>
<!-- Node8&#45;&gt;Node13 -->
<g id="edge13" class="edge">
<title>Node8&#45;&gt;Node13</title>
<path fill="none" stroke="#191970" d="M600.0964,-55.5409C623.5355,-46.5259 659.9117,-32.535 686.4156,-22.3412"/>
<polygon fill="#191970" stroke="#191970" points="687.9655,-25.4951 696.0425,-18.6386 685.4526,-18.9617 687.9655,-25.4951"/>
</g>
</g>
</svg>
        <g id="navigator" transform="translate(0 0)" fill="#404254">
                <rect fill="#f2f5e9" fill-opacity="0.5" stroke="#606060" stroke-width=".5" x="0" y="0" width="60" height="60"/>
                <use id="zoomplus" xlink:href="#zoomPlus" x="17" y="9" onmousedown="handleZoom(evt,'in')"/>
                <use id="zoomminus" xlink:href="#zoomMin" x="42" y="9" onmousedown="handleZoom(evt,'out')"/>
                <use id="reset" xlink:href="#resetDef" x="30" y="36" onmousedown="handleReset()"/>
                <g id="arrowUp" xlink:href="#dirArrow" transform="translate(30 24)" onmousedown="handlePan(0,-1)">
                  <use xlink:href="#rim" fill="#404040">
                        <set attributeName="fill" to="#808080" begin="arrowUp.mouseover" end="arrowUp.mouseout"/>
                  </use>
                  <path fill="none" stroke="white" stroke-width="1.5" d="M0,-3.0v7 M-2.5,-0.5L0,-3.0L2.5,-0.5"/>
                </g>
                <g id="arrowRight" xlink:href="#dirArrow" transform="rotate(90) translate(36 -43)" onmousedown="handlePan(1,0)">
                  <use xlink:href="#rim" fill="#404040">
                        <set attributeName="fill" to="#808080" begin="arrowRight.mouseover" end="arrowRight.mouseout"/>
                  </use>
                  <path fill="none" stroke="white" stroke-width="1.5" d="M0,-3.0v7 M-2.5,-0.5L0,-3.0L2.5,-0.5"/>
                </g>
                <g id="arrowDown" xlink:href="#dirArrow" transform="rotate(180) translate(-30 -48)" onmousedown="handlePan(0,1)">
                  <use xlink:href="#rim" fill="#404040">
                        <set attributeName="fill" to="#808080" begin="arrowDown.mouseover" end="arrowDown.mouseout"/>
                  </use>
                  <path fill="none" stroke="white" stroke-width="1.5" d="M0,-3.0v7 M-2.5,-0.5L0,-3.0L2.5,-0.5"/>
                </g>
                <g id="arrowLeft" xlink:href="#dirArrow" transform="rotate(270) translate(-36 17)" onmousedown="handlePan(-1,0)">
                  <use xlink:href="#rim" fill="#404040">
                        <set attributeName="fill" to="#808080" begin="arrowLeft.mouseover" end="arrowLeft.mouseout"/>
                  </use>
                  <path fill="none" stroke="white" stroke-width="1.5" d="M0,-3.0v7 M-2.5,-0.5L0,-3.0L2.5,-0.5"/>
                </g>
        </g>
        <svg viewBox="0 0 15 15" width="100%" height="30px" preserveAspectRatio="xMaxYMin meet">
         <g id="arrow_out" transform="scale(0.3 0.3)">
          <a xlink:href="handle__wrap_8cc__incl_org.svg" target="_base">
           <rect id="button" ry="5" rx="5" y="6" x="6" height="38" width="38"
                fill="#f2f5e9" fill-opacity="0.5" stroke="#606060" stroke-width="1.0"/>
           <path id="arrow"
             d="M 11.500037,31.436501 C 11.940474,20.09759 22.043105,11.32322 32.158766,21.979434 L 37.068811,17.246167 C 37.068811,17.246167 37.088388,32 37.088388,32 L 22.160133,31.978069 C 22.160133,31.978069 26.997745,27.140456 26.997745,27.140456 C 18.528582,18.264221 13.291696,25.230495 11.500037,31.436501 z"
             style="fill:#404040;"/>
          </a>
         </g>
        </svg>
</svg>
