<?xml version="1.0" encoding="UTF-8" standalone="no"?>
<!DOCTYPE svg PUBLIC "-//W3C//DTD SVG 1.1//EN"
 "http://www.w3.org/Graphics/SVG/1.1/DTD/svg11.dtd">
<!-- Generated by graphviz version 2.40.1 (20161225.0304)
 -->
<!-- Title: src/process_wrap.cc Pages: 1 -->
<svg width="568pt" height="82pt"
 viewBox="0.00 0.00 567.71 82.00" xmlns="http://www.w3.org/2000/svg" xmlns:xlink="http://www.w3.org/1999/xlink">
<g id="graph0" class="graph" transform="scale(1 1) rotate(0) translate(4 78)">
<title>src/process_wrap.cc</title>
<polygon fill="#ffffff" stroke="transparent" points="-4,4 -4,-78 563.7051,-78 563.7051,4 -4,4"/>
<!-- Node0 -->
<g id="node1" class="node">
<title>Node0</title>
<polygon fill="#bfbfbf" stroke="#000000" points="249.2939,-55.5 249.2939,-73.5 356.4316,-73.5 356.4316,-55.5 249.2939,-55.5"/>
<text text-anchor="middle" x="302.8628" y="-61.5" font-family="Helvetica,sans-Serif" font-size="10.00" fill="#000000">src/process_wrap.cc</text>
</g>
<!-- Node1 -->
<g id="node2" class="node">
<title>Node1</title>
<g id="a_node2"><a xlink:href="../../d5/d81/env_8h.html" target="_top" xlink:title="env.h">
<polygon fill="#ffffff" stroke="#000000" points="0,-.5 0,-18.5 39.7256,-18.5 39.7256,-.5 0,-.5"/>
<text text-anchor="middle" x="19.8628" y="-6.5" font-family="Helvetica,sans-Serif" font-size="10.00" fill="#000000">env.h</text>
</a>
</g>
</g>
<!-- Node0&#45;&gt;Node1 -->
<g id="edge1" class="edge">
<title>Node0&#45;&gt;Node1</title>
<path fill="none" stroke="#191970" d="M248.8834,-57.0618C199.3685,-49.7378 123.894,-37.3162 49.9826,-19.0089"/>
<polygon fill="#191970" stroke="#191970" points="50.5908,-15.5529 40.0391,-16.5074 48.883,-22.3414 50.5908,-15.5529"/>
</g>
<!-- Node2 -->
<g id="node3" class="node">
<title>Node2</title>
<g id="a_node3"><a xlink:href="../../d9/d50/env-inl_8h.html" target="_top" xlink:title="env&#45;inl.h">
<polygon fill="#ffffff" stroke="#000000" points="57.9639,-.5 57.9639,-18.5 111.7617,-18.5 111.7617,-.5 57.9639,-.5"/>
<text text-anchor="middle" x="84.8628" y="-6.5" font-family="Helvetica,sans-Serif" font-size="10.00" fill="#000000">env&#45;inl.h</text>
</a>
</g>
</g>
<!-- Node0&#45;&gt;Node2 -->
<g id="edge2" class="edge">
<title>Node0&#45;&gt;Node2</title>
<path fill="none" stroke="#191970" d="M266.2245,-55.4891C231.4566,-46.9052 177.486,-33.4952 121.6801,-19.1877"/>
<polygon fill="#191970" stroke="#191970" points="122.5361,-15.794 111.9797,-16.6963 120.7947,-22.5739 122.5361,-15.794"/>
</g>
<!-- Node3 -->
<g id="node4" class="node">
<title>Node3</title>
<g id="a_node4"><a xlink:href="../../da/db4/handle__wrap_8h.html" target="_top" xlink:title="handle_wrap.h">
<polygon fill="#ffffff" stroke="#000000" points="130.0601,-.5 130.0601,-18.5 211.6655,-18.5 211.6655,-.5 130.0601,-.5"/>
<text text-anchor="middle" x="170.8628" y="-6.5" font-family="Helvetica,sans-Serif" font-size="10.00" fill="#000000">handle_wrap.h</text>
</a>
</g>
</g>
<!-- Node0&#45;&gt;Node3 -->
<g id="edge3" class="edge">
<title>Node0&#45;&gt;Node3</title>
<path fill="none" stroke="#191970" d="M281.0657,-55.4179C259.5698,-46.4613 226.4964,-32.6806 202.1876,-22.552"/>
<polygon fill="#191970" stroke="#191970" points="203.2692,-19.2111 192.6923,-18.5956 200.5769,-25.6726 203.2692,-19.2111"/>
</g>
<!-- Node4 -->
<g id="node5" class="node">
<title>Node4</title>
<g id="a_node5"><a xlink:href="../../dc/dc4/node__wrap_8h.html" target="_top" xlink:title="node_wrap.h">
<polygon fill="#ffffff" stroke="#000000" points="229.9517,-.5 229.9517,-18.5 303.7739,-18.5 303.7739,-.5 229.9517,-.5"/>
<text text-anchor="middle" x="266.8628" y="-6.5" font-family="Helvetica,sans-Serif" font-size="10.00" fill="#000000">node_wrap.h</text>
</a>
</g>
</g>
<!-- Node0&#45;&gt;Node4 -->
<g id="edge4" class="edge">
<title>Node0&#45;&gt;Node4</title>
<path fill="none" stroke="#191970" d="M296.9181,-55.4179C291.9454,-47.8207 284.7009,-36.7527 278.5704,-27.3866"/>
<polygon fill="#191970" stroke="#191970" points="281.3417,-25.2297 272.9366,-18.7795 275.4848,-29.0633 281.3417,-25.2297"/>
</g>
<!-- Node5 -->
<g id="node6" class="node">
<title>Node5</title>
<g id="a_node6"><a xlink:href="../../d8/d3c/util_8h.html" target="_top" xlink:title="util.h">
<polygon fill="#ffffff" stroke="#000000" points="321.3013,-.5 321.3013,-18.5 358.4243,-18.5 358.4243,-.5 321.3013,-.5"/>
<text text-anchor="middle" x="339.8628" y="-6.5" font-family="Helvetica,sans-Serif" font-size="10.00" fill="#000000">util.h</text>
</a>
</g>
</g>
<!-- Node0&#45;&gt;Node5 -->
<g id="edge5" class="edge">
<title>Node0&#45;&gt;Node5</title>
<path fill="none" stroke="#191970" d="M308.9726,-55.4179C314.1367,-47.7415 321.6846,-36.5217 328.0265,-27.0945"/>
<polygon fill="#191970" stroke="#191970" points="330.9425,-29.0303 333.6202,-18.7795 325.1344,-25.1231 330.9425,-29.0303"/>
</g>
<!-- Node6 -->
<g id="node7" class="node">
<title>Node6</title>
<g id="a_node7"><a xlink:href="../../d5/d8c/util-inl_8h.html" target="_top" xlink:title="util&#45;inl.h">
<polygon fill="#ffffff" stroke="#000000" points="376.6338,-.5 376.6338,-18.5 427.0918,-18.5 427.0918,-.5 376.6338,-.5"/>
<text text-anchor="middle" x="401.8628" y="-6.5" font-family="Helvetica,sans-Serif" font-size="10.00" fill="#000000">util&#45;inl.h</text>
</a>
</g>
</g>
<!-- Node0&#45;&gt;Node6 -->
<g id="edge6" class="edge">
<title>Node0&#45;&gt;Node6</title>
<path fill="none" stroke="#191970" d="M319.2106,-55.4179C334.8309,-46.7399 358.6026,-33.5334 376.649,-23.5077"/>
<polygon fill="#191970" stroke="#191970" points="378.4489,-26.5117 385.4907,-18.5956 375.0493,-20.3925 378.4489,-26.5117"/>
</g>
<!-- Node7 -->
<g id="node8" class="node">
<title>Node7</title>
<polygon fill="#ffffff" stroke="#bfbfbf" points="445.4663,-.5 445.4663,-18.5 494.2593,-18.5 494.2593,-.5 445.4663,-.5"/>
<text text-anchor="middle" x="469.8628" y="-6.5" font-family="Helvetica,sans-Serif" font-size="10.00" fill="#000000">string.h</text>
</g>
<!-- Node0&#45;&gt;Node7 -->
<g id="edge7" class="edge">
<title>Node0&#45;&gt;Node7</title>
<path fill="none" stroke="#191970" d="M330.4394,-55.4179C359.2797,-45.9196 404.5927,-30.9961 435.6848,-20.7562"/>
<polygon fill="#191970" stroke="#191970" points="436.8377,-24.0615 445.241,-17.609 434.648,-17.4128 436.8377,-24.0615"/>
</g>
<!-- Node8 -->
<g id="node9" class="node">
<title>Node8</title>
<polygon fill="#ffffff" stroke="#bfbfbf" points="512.0205,-.5 512.0205,-18.5 559.7051,-18.5 559.7051,-.5 512.0205,-.5"/>
<text text-anchor="middle" x="535.8628" y="-6.5" font-family="Helvetica,sans-Serif" font-size="10.00" fill="#000000">stdlib.h</text>
</g>
<!-- Node0&#45;&gt;Node8 -->
<g id="edge8" class="edge">
<title>Node0&#45;&gt;Node8</title>
<path fill="none" stroke="#191970" d="M345.9477,-55.4362C384.4249,-47.1767 442.5356,-34.299 501.8425,-19.1596"/>
<polygon fill="#191970" stroke="#191970" points="502.9421,-22.4908 511.7554,-16.6105 501.1987,-15.7114 502.9421,-22.4908"/>
</g>
</g>
</svg>
