<?xml version="1.0" encoding="UTF-8" standalone="no"?>
<!DOCTYPE svg PUBLIC "-//W3C//DTD SVG 1.1//EN"
 "http://www.w3.org/Graphics/SVG/1.1/DTD/svg11.dtd">
<!-- Generated by graphviz version 2.40.1 (20161225.0304)
 -->
<!-- Title: src/node_api.h Pages: 1 -->
<svg width="190pt" height="137pt"
 viewBox="0.00 0.00 190.28 137.00" xmlns="http://www.w3.org/2000/svg" xmlns:xlink="http://www.w3.org/1999/xlink">
<g id="graph0" class="graph" transform="scale(1 1) rotate(0) translate(4 133)">
<title>src/node_api.h</title>
<polygon fill="#ffffff" stroke="transparent" points="-4,4 -4,-133 186.2778,-133 186.2778,4 -4,4"/>
<!-- Node0 -->
<g id="node1" class="node">
<title>Node0</title>
<polygon fill="#bfbfbf" stroke="#000000" points="0,-110.5 0,-128.5 81.6006,-128.5 81.6006,-110.5 0,-110.5"/>
<text text-anchor="middle" x="40.8003" y="-116.5" font-family="Helvetica,sans-Serif" font-size="10.00" fill="#000000">src/node_api.h</text>
</g>
<!-- Node1 -->
<g id="node2" class="node">
<title>Node1</title>
<polygon fill="#ffffff" stroke="#bfbfbf" points=".0098,-.5 .0098,-18.5 51.5908,-18.5 51.5908,-.5 .0098,-.5"/>
<text text-anchor="middle" x="25.8003" y="-6.5" font-family="Helvetica,sans-Serif" font-size="10.00" fill="#000000">stddef.h</text>
</g>
<!-- Node0&#45;&gt;Node1 -->
<g id="edge1" class="edge">
<title>Node0&#45;&gt;Node1</title>
<path fill="none" stroke="#191970" d="M30.0076,-110.2937C21.0537,-101.8891 8.9812,-88.5828 3.8003,-74 -1.8092,-58.2107 5.5211,-40.1508 13.1909,-27.165"/>
<polygon fill="#191970" stroke="#191970" points="16.1662,-29.0094 18.6554,-18.7112 10.2874,-25.2094 16.1662,-29.0094"/>
</g>
<!-- Node2 -->
<g id="node3" class="node">
<title>Node2</title>
<polygon fill="#ffffff" stroke="#bfbfbf" points="12.5073,-55.5 12.5073,-73.5 69.0933,-73.5 69.0933,-55.5 12.5073,-55.5"/>
<text text-anchor="middle" x="40.8003" y="-61.5" font-family="Helvetica,sans-Serif" font-size="10.00" fill="#000000">stdbool.h</text>
</g>
<!-- Node0&#45;&gt;Node2 -->
<g id="edge2" class="edge">
<title>Node0&#45;&gt;Node2</title>
<path fill="none" stroke="#191970" d="M40.8003,-110.4179C40.8003,-103.2164 40.8003,-92.8962 40.8003,-83.8632"/>
<polygon fill="#191970" stroke="#191970" points="44.3004,-83.7794 40.8003,-73.7795 37.3004,-83.7795 44.3004,-83.7794"/>
</g>
<!-- Node3 -->
<g id="node4" class="node">
<title>Node3</title>
<g id="a_node4"><a xlink:href="../../d6/d96/node__api__types_8h.html" target="_top" xlink:title="node_api_types.h">
<polygon fill="#ffffff" stroke="#000000" points="87.3228,-55.5 87.3228,-73.5 182.2778,-73.5 182.2778,-55.5 87.3228,-55.5"/>
<text text-anchor="middle" x="134.8003" y="-61.5" font-family="Helvetica,sans-Serif" font-size="10.00" fill="#000000">node_api_types.h</text>
</a>
</g>
</g>
<!-- Node0&#45;&gt;Node3 -->
<g id="edge3" class="edge">
<title>Node0&#45;&gt;Node3</title>
<path fill="none" stroke="#191970" d="M56.3225,-110.4179C71.0178,-101.8195 93.3115,-88.7754 110.3869,-78.7844"/>
<polygon fill="#191970" stroke="#191970" points="112.3915,-81.6667 119.255,-73.5956 108.8564,-75.6249 112.3915,-81.6667"/>
</g>
<!-- Node3&#45;&gt;Node1 -->
<g id="edge4" class="edge">
<title>Node3&#45;&gt;Node1</title>
<path fill="none" stroke="#191970" d="M116.8012,-55.4179C99.4453,-46.6603 72.9492,-33.2907 53.0157,-23.2326"/>
<polygon fill="#191970" stroke="#191970" points="54.3307,-19.9758 43.8262,-18.5956 51.1773,-26.2253 54.3307,-19.9758"/>
</g>
<!-- Node4 -->
<g id="node5" class="node">
<title>Node4</title>
<polygon fill="#ffffff" stroke="#bfbfbf" points="110.6797,-.5 110.6797,-18.5 158.9209,-18.5 158.9209,-.5 110.6797,-.5"/>
<text text-anchor="middle" x="134.8003" y="-6.5" font-family="Helvetica,sans-Serif" font-size="10.00" fill="#000000">stdint.h</text>
</g>
<!-- Node3&#45;&gt;Node4 -->
<g id="edge5" class="edge">
<title>Node3&#45;&gt;Node4</title>
<path fill="none" stroke="#191970" d="M134.8003,-55.4179C134.8003,-48.2164 134.8003,-37.8962 134.8003,-28.8632"/>
<polygon fill="#191970" stroke="#191970" points="138.3004,-28.7794 134.8003,-18.7795 131.3004,-28.7795 138.3004,-28.7794"/>
</g>
</g>
</svg>
