<?xml version="1.0" encoding="UTF-8" standalone="no"?>
<!DOCTYPE svg PUBLIC "-//W3C//DTD SVG 1.1//EN"
 "http://www.w3.org/Graphics/SVG/1.1/DTD/svg11.dtd">
<!-- Generated by graphviz version 2.40.1 (20161225.0304)
 -->
<!-- Title: src/node_win32_etw_provider.cc Pages: 1 -->
<svg width="524pt" height="102pt"
 viewBox="0.00 0.00 524.34 102.00" xmlns="http://www.w3.org/2000/svg" xmlns:xlink="http://www.w3.org/1999/xlink">
<g id="graph0" class="graph" transform="scale(1 1) rotate(0) translate(4 98)">
<title>src/node_win32_etw_provider.cc</title>
<polygon fill="#ffffff" stroke="transparent" points="-4,4 -4,-98 520.3442,-98 520.3442,4 -4,4"/>
<!-- Node0 -->
<g id="node1" class="node">
<title>Node0</title>
<polygon fill="#bfbfbf" stroke="#000000" points="185.3867,-65.5 185.3867,-93.5 292.5537,-93.5 292.5537,-65.5 185.3867,-65.5"/>
<text text-anchor="start" x="193.3867" y="-81.5" font-family="Helvetica,sans-Serif" font-size="10.00" fill="#000000">src/node_win32_etw</text>
<text text-anchor="middle" x="238.9702" y="-71.5" font-family="Helvetica,sans-Serif" font-size="10.00" fill="#000000">_provider.cc</text>
</g>
<!-- Node1 -->
<g id="node2" class="node">
<title>Node1</title>
<g id="a_node2"><a xlink:href="../../d1/d34/node__dtrace_8h.html" target="_top" xlink:title="node_dtrace.h">
<polygon fill="#ffffff" stroke="#000000" points="0,-5.5 0,-23.5 79.9404,-23.5 79.9404,-5.5 0,-5.5"/>
<text text-anchor="middle" x="39.9702" y="-11.5" font-family="Helvetica,sans-Serif" font-size="10.00" fill="#000000">node_dtrace.h</text>
</a>
</g>
</g>
<!-- Node0&#45;&gt;Node1 -->
<g id="edge1" class="edge">
<title>Node0&#45;&gt;Node1</title>
<path fill="none" stroke="#191970" d="M195.7902,-65.396C160.5679,-53.8912 111.3061,-37.8007 77.6595,-26.8106"/>
<polygon fill="#191970" stroke="#191970" points="78.3441,-23.3523 67.7516,-23.5743 76.1706,-30.0063 78.3441,-23.3523"/>
</g>
<!-- Node2 -->
<g id="node3" class="node">
<title>Node2</title>
<g id="a_node3"><a xlink:href="../../d0/da6/node__win32__etw__provider_8h.html" target="_top" xlink:title="node_win32_etw_provider.h">
<polygon fill="#ffffff" stroke="#000000" points="97.6997,-5.5 97.6997,-23.5 238.2407,-23.5 238.2407,-5.5 97.6997,-5.5"/>
<text text-anchor="middle" x="167.9702" y="-11.5" font-family="Helvetica,sans-Serif" font-size="10.00" fill="#000000">node_win32_etw_provider.h</text>
</a>
</g>
</g>
<!-- Node0&#45;&gt;Node2 -->
<g id="edge2" class="edge">
<title>Node0&#45;&gt;Node2</title>
<path fill="none" stroke="#191970" d="M223.5643,-65.396C212.2976,-55.0814 197.0045,-41.0807 185.3098,-30.3743"/>
<polygon fill="#191970" stroke="#191970" points="187.6214,-27.7453 177.8821,-23.5743 182.8946,-32.9084 187.6214,-27.7453"/>
</g>
<!-- Node3 -->
<g id="node4" class="node">
<title>Node3</title>
<polygon fill="#ffffff" stroke="#bfbfbf" points="256.5444,-5.5 256.5444,-23.5 365.396,-23.5 365.396,-5.5 256.5444,-5.5"/>
<text text-anchor="middle" x="310.9702" y="-11.5" font-family="Helvetica,sans-Serif" font-size="10.00" fill="#000000">node_etw_provider.h</text>
</g>
<!-- Node0&#45;&gt;Node3 -->
<g id="edge3" class="edge">
<title>Node0&#45;&gt;Node3</title>
<path fill="none" stroke="#191970" d="M254.5931,-65.396C266.0186,-55.0814 281.527,-41.0807 293.3864,-30.3743"/>
<polygon fill="#191970" stroke="#191970" points="295.8413,-32.8733 300.9187,-23.5743 291.1506,-27.6774 295.8413,-32.8733"/>
</g>
<!-- Node4 -->
<g id="node5" class="node">
<title>Node4</title>
<g id="a_node5"><a xlink:href="../../d8/d30/node__win32__etw__provider-inl_8h.html" target="_top" xlink:title="node_win32_etw_provider\l&#45;inl.h">
<polygon fill="#ffffff" stroke="#000000" points="383.5962,-.5 383.5962,-28.5 516.3442,-28.5 516.3442,-.5 383.5962,-.5"/>
<text text-anchor="start" x="391.5962" y="-16.5" font-family="Helvetica,sans-Serif" font-size="10.00" fill="#000000">node_win32_etw_provider</text>
<text text-anchor="middle" x="449.9702" y="-6.5" font-family="Helvetica,sans-Serif" font-size="10.00" fill="#000000">&#45;inl.h</text>
</a>
</g>
</g>
<!-- Node0&#45;&gt;Node4 -->
<g id="edge4" class="edge">
<title>Node0&#45;&gt;Node4</title>
<path fill="none" stroke="#191970" d="M284.4943,-65.476C316.6915,-55.5574 360.0487,-42.201 394.305,-31.6481"/>
<polygon fill="#191970" stroke="#191970" points="395.6376,-34.8999 404.164,-28.6109 393.5768,-28.2101 395.6376,-34.8999"/>
</g>
</g>
</svg>
