<?xml version="1.0" encoding="UTF-8" standalone="no"?>
<!DOCTYPE svg PUBLIC "-//W3C//DTD SVG 1.1//EN"
 "http://www.w3.org/Graphics/SVG/1.1/DTD/svg11.dtd">
<!-- Generated by graphviz version 2.40.1 (20161225.0304)
 -->
<!-- Title: src/node_win32_etw_provider.cc Pages: 1 -->
<!--zoomable 102 -->
<svg id="main" version="1.1" xmlns="http://www.w3.org/2000/svg" xmlns:xlink="http://www.w3.org/1999/xlink" xml:space="preserve" onload="init(evt)">
<style type="text/css"><![CDATA[
.edge:hover path { stroke: red; }
.edge:hover polygon { stroke: red; fill: red; }
]]></style>
<script type="text/javascript"><![CDATA[
var edges = document.getElementsByTagName('g');
if (edges && edges.length) {
  for (var i=0;i<edges.length;i++) {
    if (edges[i].id.substr(0,4)=='edge') {
      edges[i].setAttribute('class','edge');
    }
  }
}
]]></script>
        <defs>
                <circle id="rim" cx="0" cy="0" r="7"/>
                <circle id="rim2" cx="0" cy="0" r="3.5"/>
                <g id="zoomPlus">
                        <use xlink:href="#rim" fill="#404040">
                                <set attributeName="fill" to="#808080" begin="zoomplus.mouseover" end="zoomplus.mouseout"/>
                        </use>
                        <path d="M-4,0h8M0,-4v8" fill="none" stroke="white" stroke-width="1.5" pointer-events="none"/>
                </g>
                <g id="zoomMin">
                        <use xlink:href="#rim" fill="#404040">
                                <set attributeName="fill" to="#808080" begin="zoomminus.mouseover" end="zoomminus.mouseout"/>
                        </use>
                        <path d="M-4,0h8" fill="none" stroke="white" stroke-width="1.5" pointer-events="none"/>
                </g>
                <g id="dirArrow">
                        <path fill="none" stroke="white" stroke-width="1.5" d="M0,-3.0v7 M-2.5,-0.5L0,-3.0L2.5,-0.5"/>
                </g>
               <g id="resetDef">
                       <use xlink:href="#rim2" fill="#404040">
                               <set attributeName="fill" to="#808080" begin="reset.mouseover" end="reset.mouseout"/>
                       </use>
               </g>
        </defs>

<script type="text/javascript">
var viewWidth = 524;
var viewHeight = 102;
var sectionId = 'dynsection-0';
</script>
<script xlink:href="../../svgpan.js"/>
<svg id="graph" class="graph">
<g id="viewport">
<title>src/node_win32_etw_provider.cc</title>
<polygon fill="#ffffff" stroke="transparent" points="-4,4 -4,-98 520.3442,-98 520.3442,4 -4,4"/>
<!-- Node0 -->
<g id="node1" class="node">
<title>Node0</title>
<polygon fill="#bfbfbf" stroke="#000000" points="185.3867,-65.5 185.3867,-93.5 292.5537,-93.5 292.5537,-65.5 185.3867,-65.5"/>
<text text-anchor="start" x="193.3867" y="-81.5" font-family="Helvetica,sans-Serif" font-size="10.00" fill="#000000">src/node_win32_etw</text>
<text text-anchor="middle" x="238.9702" y="-71.5" font-family="Helvetica,sans-Serif" font-size="10.00" fill="#000000">_provider.cc</text>
</g>
<!-- Node1 -->
<g id="node2" class="node">
<title>Node1</title>
<g id="a_node2"><a xlink:href="../../d1/d34/node__dtrace_8h.html" target="_top" xlink:title="node_dtrace.h">
<polygon fill="#ffffff" stroke="#000000" points="0,-5.5 0,-23.5 79.9404,-23.5 79.9404,-5.5 0,-5.5"/>
<text text-anchor="middle" x="39.9702" y="-11.5" font-family="Helvetica,sans-Serif" font-size="10.00" fill="#000000">node_dtrace.h</text>
</a>
</g>
</g>
<!-- Node0&#45;&gt;Node1 -->
<g id="edge1" class="edge">
<title>Node0&#45;&gt;Node1</title>
<path fill="none" stroke="#191970" d="M195.7902,-65.396C160.5679,-53.8912 111.3061,-37.8007 77.6595,-26.8106"/>
<polygon fill="#191970" stroke="#191970" points="78.3441,-23.3523 67.7516,-23.5743 76.1706,-30.0063 78.3441,-23.3523"/>
</g>
<!-- Node2 -->
<g id="node3" class="node">
<title>Node2</title>
<g id="a_node3"><a xlink:href="../../d0/da6/node__win32__etw__provider_8h.html" target="_top" xlink:title="node_win32_etw_provider.h">
<polygon fill="#ffffff" stroke="#000000" points="97.6997,-5.5 97.6997,-23.5 238.2407,-23.5 238.2407,-5.5 97.6997,-5.5"/>
<text text-anchor="middle" x="167.9702" y="-11.5" font-family="Helvetica,sans-Serif" font-size="10.00" fill="#000000">node_win32_etw_provider.h</text>
</a>
</g>
</g>
<!-- Node0&#45;&gt;Node2 -->
<g id="edge2" class="edge">
<title>Node0&#45;&gt;Node2</title>
<path fill="none" stroke="#191970" d="M223.5643,-65.396C212.2976,-55.0814 197.0045,-41.0807 185.3098,-30.3743"/>
<polygon fill="#191970" stroke="#191970" points="187.6214,-27.7453 177.8821,-23.5743 182.8946,-32.9084 187.6214,-27.7453"/>
</g>
<!-- Node3 -->
<g id="node4" class="node">
<title>Node3</title>
<polygon fill="#ffffff" stroke="#bfbfbf" points="256.5444,-5.5 256.5444,-23.5 365.396,-23.5 365.396,-5.5 256.5444,-5.5"/>
<text text-anchor="middle" x="310.9702" y="-11.5" font-family="Helvetica,sans-Serif" font-size="10.00" fill="#000000">node_etw_provider.h</text>
</g>
<!-- Node0&#45;&gt;Node3 -->
<g id="edge3" class="edge">
<title>Node0&#45;&gt;Node3</title>
<path fill="none" stroke="#191970" d="M254.5931,-65.396C266.0186,-55.0814 281.527,-41.0807 293.3864,-30.3743"/>
<polygon fill="#191970" stroke="#191970" points="295.8413,-32.8733 300.9187,-23.5743 291.1506,-27.6774 295.8413,-32.8733"/>
</g>
<!-- Node4 -->
<g id="node5" class="node">
<title>Node4</title>
<g id="a_node5"><a xlink:href="../../d8/d30/node__win32__etw__provider-inl_8h.html" target="_top" xlink:title="node_win32_etw_provider\l&#45;inl.h">
<polygon fill="#ffffff" stroke="#000000" points="383.5962,-.5 383.5962,-28.5 516.3442,-28.5 516.3442,-.5 383.5962,-.5"/>
<text text-anchor="start" x="391.5962" y="-16.5" font-family="Helvetica,sans-Serif" font-size="10.00" fill="#000000">node_win32_etw_provider</text>
<text text-anchor="middle" x="449.9702" y="-6.5" font-family="Helvetica,sans-Serif" font-size="10.00" fill="#000000">&#45;inl.h</text>
</a>
</g>
</g>
<!-- Node0&#45;&gt;Node4 -->
<g id="edge4" class="edge">
<title>Node0&#45;&gt;Node4</title>
<path fill="none" stroke="#191970" d="M284.4943,-65.476C316.6915,-55.5574 360.0487,-42.201 394.305,-31.6481"/>
<polygon fill="#191970" stroke="#191970" points="395.6376,-34.8999 404.164,-28.6109 393.5768,-28.2101 395.6376,-34.8999"/>
</g>
</g>
</svg>
        <g id="navigator" transform="translate(0 0)" fill="#404254">
                <rect fill="#f2f5e9" fill-opacity="0.5" stroke="#606060" stroke-width=".5" x="0" y="0" width="60" height="60"/>
                <use id="zoomplus" xlink:href="#zoomPlus" x="17" y="9" onmousedown="handleZoom(evt,'in')"/>
                <use id="zoomminus" xlink:href="#zoomMin" x="42" y="9" onmousedown="handleZoom(evt,'out')"/>
                <use id="reset" xlink:href="#resetDef" x="30" y="36" onmousedown="handleReset()"/>
                <g id="arrowUp" xlink:href="#dirArrow" transform="translate(30 24)" onmousedown="handlePan(0,-1)">
                  <use xlink:href="#rim" fill="#404040">
                        <set attributeName="fill" to="#808080" begin="arrowUp.mouseover" end="arrowUp.mouseout"/>
                  </use>
                  <path fill="none" stroke="white" stroke-width="1.5" d="M0,-3.0v7 M-2.5,-0.5L0,-3.0L2.5,-0.5"/>
                </g>
                <g id="arrowRight" xlink:href="#dirArrow" transform="rotate(90) translate(36 -43)" onmousedown="handlePan(1,0)">
                  <use xlink:href="#rim" fill="#404040">
                        <set attributeName="fill" to="#808080" begin="arrowRight.mouseover" end="arrowRight.mouseout"/>
                  </use>
                  <path fill="none" stroke="white" stroke-width="1.5" d="M0,-3.0v7 M-2.5,-0.5L0,-3.0L2.5,-0.5"/>
                </g>
                <g id="arrowDown" xlink:href="#dirArrow" transform="rotate(180) translate(-30 -48)" onmousedown="handlePan(0,1)">
                  <use xlink:href="#rim" fill="#404040">
                        <set attributeName="fill" to="#808080" begin="arrowDown.mouseover" end="arrowDown.mouseout"/>
                  </use>
                  <path fill="none" stroke="white" stroke-width="1.5" d="M0,-3.0v7 M-2.5,-0.5L0,-3.0L2.5,-0.5"/>
                </g>
                <g id="arrowLeft" xlink:href="#dirArrow" transform="rotate(270) translate(-36 17)" onmousedown="handlePan(-1,0)">
                  <use xlink:href="#rim" fill="#404040">
                        <set attributeName="fill" to="#808080" begin="arrowLeft.mouseover" end="arrowLeft.mouseout"/>
                  </use>
                  <path fill="none" stroke="white" stroke-width="1.5" d="M0,-3.0v7 M-2.5,-0.5L0,-3.0L2.5,-0.5"/>
                </g>
        </g>
        <svg viewBox="0 0 15 15" width="100%" height="30px" preserveAspectRatio="xMaxYMin meet">
         <g id="arrow_out" transform="scale(0.3 0.3)">
          <a xlink:href="node__win32__etw__provider_8cc__incl_org.svg" target="_base">
           <rect id="button" ry="5" rx="5" y="6" x="6" height="38" width="38"
                fill="#f2f5e9" fill-opacity="0.5" stroke="#606060" stroke-width="1.0"/>
           <path id="arrow"
             d="M 11.500037,31.436501 C 11.940474,20.09759 22.043105,11.32322 32.158766,21.979434 L 37.068811,17.246167 C 37.068811,17.246167 37.088388,32 37.088388,32 L 22.160133,31.978069 C 22.160133,31.978069 26.997745,27.140456 26.997745,27.140456 C 18.528582,18.264221 13.291696,25.230495 11.500037,31.436501 z"
             style="fill:#404040;"/>
          </a>
         </g>
        </svg>
</svg>
