<?xml version="1.0" encoding="UTF-8" standalone="no"?>
<!DOCTYPE svg PUBLIC "-//W3C//DTD SVG 1.1//EN"
 "http://www.w3.org/Graphics/SVG/1.1/DTD/svg11.dtd">
<!-- Generated by graphviz version 2.40.1 (20161225.0304)
 -->
<!-- Title: src/node.h Pages: 1 -->
<!--zoomable 147 -->
<svg id="main" version="1.1" xmlns="http://www.w3.org/2000/svg" xmlns:xlink="http://www.w3.org/1999/xlink" xml:space="preserve" onload="init(evt)">
<style type="text/css"><![CDATA[
.edge:hover path { stroke: red; }
.edge:hover polygon { stroke: red; fill: red; }
]]></style>
<script type="text/javascript"><![CDATA[
var edges = document.getElementsByTagName('g');
if (edges && edges.length) {
  for (var i=0;i<edges.length;i++) {
    if (edges[i].id.substr(0,4)=='edge') {
      edges[i].setAttribute('class','edge');
    }
  }
}
]]></script>
        <defs>
                <circle id="rim" cx="0" cy="0" r="7"/>
                <circle id="rim2" cx="0" cy="0" r="3.5"/>
                <g id="zoomPlus">
                        <use xlink:href="#rim" fill="#404040">
                                <set attributeName="fill" to="#808080" begin="zoomplus.mouseover" end="zoomplus.mouseout"/>
                        </use>
                        <path d="M-4,0h8M0,-4v8" fill="none" stroke="white" stroke-width="1.5" pointer-events="none"/>
                </g>
                <g id="zoomMin">
                        <use xlink:href="#rim" fill="#404040">
                                <set attributeName="fill" to="#808080" begin="zoomminus.mouseover" end="zoomminus.mouseout"/>
                        </use>
                        <path d="M-4,0h8" fill="none" stroke="white" stroke-width="1.5" pointer-events="none"/>
                </g>
                <g id="dirArrow">
                        <path fill="none" stroke="white" stroke-width="1.5" d="M0,-3.0v7 M-2.5,-0.5L0,-3.0L2.5,-0.5"/>
                </g>
               <g id="resetDef">
                       <use xlink:href="#rim2" fill="#404040">
                               <set attributeName="fill" to="#808080" begin="reset.mouseover" end="reset.mouseout"/>
                       </use>
               </g>
        </defs>

<script type="text/javascript">
var viewWidth = 2631;
var viewHeight = 147;
var sectionId = 'dynsection-1';
</script>
<script xlink:href="../../svgpan.js"/>
<svg id="graph" class="graph">
<g id="viewport">
<title>src/node.h</title>
<polygon fill="#ffffff" stroke="transparent" points="-4,4 -4,-143 2626.9292,-143 2626.9292,4 -4,4"/>
<!-- Node6 -->
<g id="node1" class="node">
<title>Node6</title>
<polygon fill="#bfbfbf" stroke="#000000" points="1255.2266,-120.5 1255.2266,-138.5 1317.9209,-138.5 1317.9209,-120.5 1255.2266,-120.5"/>
<text text-anchor="middle" x="1286.5737" y="-126.5" font-family="Helvetica,sans-Serif" font-size="10.00" fill="#000000">src/node.h</text>
</g>
<!-- Node7 -->
<g id="node2" class="node">
<title>Node7</title>
<g id="a_node2"><a xlink:href="../../dd/dd0/backtrace__posix_8cc.html" target="_top" xlink:title="src/backtrace_posix.cc">
<polygon fill="#ffffff" stroke="#000000" points="0,-60.5 0,-78.5 117.1475,-78.5 117.1475,-60.5 0,-60.5"/>
<text text-anchor="middle" x="58.5737" y="-66.5" font-family="Helvetica,sans-Serif" font-size="10.00" fill="#000000">src/backtrace_posix.cc</text>
</a>
</g>
</g>
<!-- Node6&#45;&gt;Node7 -->
<g id="edge1" class="edge">
<title>Node6&#45;&gt;Node7</title>
<path fill="none" stroke="#191970" d="M1244.9697,-128.8218C1064.6363,-125.7354 349.6082,-111.9453 126.5737,-84 116.393,-82.7244 105.4763,-80.6973 95.4347,-78.5584"/>
<polygon fill="#191970" stroke="#191970" points="1245.044,-132.3235 1255.1019,-128.9935 1245.1627,-125.3245 1245.044,-132.3235"/>
</g>
<!-- Node8 -->
<g id="node3" class="node">
<title>Node8</title>
<g id="a_node3"><a xlink:href="../../d6/d08/backtrace__win32_8cc.html" target="_top" xlink:title="src/backtrace_win32.cc">
<polygon fill="#ffffff" stroke="#000000" points="135.6084,-60.5 135.6084,-78.5 255.5391,-78.5 255.5391,-60.5 135.6084,-60.5"/>
<text text-anchor="middle" x="195.5737" y="-66.5" font-family="Helvetica,sans-Serif" font-size="10.00" fill="#000000">src/backtrace_win32.cc</text>
</a>
</g>
</g>
<!-- Node6&#45;&gt;Node8 -->
<g id="edge2" class="edge">
<title>Node6&#45;&gt;Node8</title>
<path fill="none" stroke="#191970" d="M1244.6259,-128.5436C1077.5294,-124.5928 458.9738,-108.5876 264.5737,-84 254.2513,-82.6944 243.1767,-80.6573 232.9874,-78.5183"/>
<polygon fill="#191970" stroke="#191970" points="1244.8907,-132.0507 1254.9701,-128.7864 1245.055,-125.0526 1244.8907,-132.0507"/>
</g>
<!-- Node9 -->
<g id="node4" class="node">
<title>Node9</title>
<g id="a_node4"><a xlink:href="../../dc/ded/cares__wrap_8cc.html" target="_top" xlink:title="src/cares_wrap.cc">
<polygon fill="#ffffff" stroke="#000000" points="273.2856,-60.5 273.2856,-78.5 369.8618,-78.5 369.8618,-60.5 273.2856,-60.5"/>
<text text-anchor="middle" x="321.5737" y="-66.5" font-family="Helvetica,sans-Serif" font-size="10.00" fill="#000000">src/cares_wrap.cc</text>
</a>
</g>
</g>
<!-- Node6&#45;&gt;Node9 -->
<g id="edge3" class="edge">
<title>Node6&#45;&gt;Node9</title>
<path fill="none" stroke="#191970" d="M1244.7649,-128.5103C1089.8969,-124.6722 549.0691,-109.6955 378.5737,-84 369.9913,-82.7065 360.8242,-80.6735 352.4068,-78.5345"/>
<polygon fill="#191970" stroke="#191970" points="1244.7366,-132.0105 1254.8196,-128.7572 1244.9086,-125.0126 1244.7366,-132.0105"/>
</g>
<!-- Node10 -->
<g id="node5" class="node">
<title>Node10</title>
<g id="a_node5"><a xlink:href="../../d6/d2f/fs__event__wrap_8cc.html" target="_top" xlink:title="src/fs_event_wrap.cc">
<polygon fill="#ffffff" stroke="#000000" points="387.6108,-60.5 387.6108,-78.5 497.5366,-78.5 497.5366,-60.5 387.6108,-60.5"/>
<text text-anchor="middle" x="442.5737" y="-66.5" font-family="Helvetica,sans-Serif" font-size="10.00" fill="#000000">src/fs_event_wrap.cc</text>
</a>
</g>
</g>
<!-- Node6&#45;&gt;Node10 -->
<g id="edge4" class="edge">
<title>Node6&#45;&gt;Node10</title>
<path fill="none" stroke="#191970" d="M1244.8335,-127.973C1104.6199,-122.7012 651.2175,-104.4623 506.5737,-84 497.0982,-82.6595 486.9504,-80.6376 477.5916,-78.5257"/>
<polygon fill="#191970" stroke="#191970" points="1245.0196,-131.4823 1255.1434,-128.3584 1245.2812,-124.4872 1245.0196,-131.4823"/>
</g>
<!-- Node11 -->
<g id="node6" class="node">
<title>Node11</title>
<g id="a_node6"><a xlink:href="../../df/dcb/handle__wrap_8cc.html" target="_top" xlink:title="src/handle_wrap.cc">
<polygon fill="#ffffff" stroke="#000000" points="515.4976,-60.5 515.4976,-78.5 617.6499,-78.5 617.6499,-60.5 515.4976,-60.5"/>
<text text-anchor="middle" x="566.5737" y="-66.5" font-family="Helvetica,sans-Serif" font-size="10.00" fill="#000000">src/handle_wrap.cc</text>
</a>
</g>
</g>
<!-- Node6&#45;&gt;Node11 -->
<g id="edge5" class="edge">
<title>Node6&#45;&gt;Node11</title>
<path fill="none" stroke="#191970" d="M1244.9685,-129.0557C1140.4061,-127.4151 858.4101,-119.7445 626.5737,-84 617.7829,-82.6446 608.3853,-80.6439 599.6984,-78.5588"/>
<polygon fill="#191970" stroke="#191970" points="1245.0543,-132.5573 1255.1045,-129.2043 1245.157,-125.558 1245.0543,-132.5573"/>
</g>
<!-- Node12 -->
<g id="node7" class="node">
<title>Node12</title>
<g id="a_node7"><a xlink:href="../../d5/d2d/inspector__agent_8cc.html" target="_top" xlink:title="src/inspector_agent.cc">
<polygon fill="#ffffff" stroke="#000000" points="635.5493,-60.5 635.5493,-78.5 751.5981,-78.5 751.5981,-60.5 635.5493,-60.5"/>
<text text-anchor="middle" x="693.5737" y="-66.5" font-family="Helvetica,sans-Serif" font-size="10.00" fill="#000000">src/inspector_agent.cc</text>
</a>
</g>
</g>
<!-- Node6&#45;&gt;Node12 -->
<g id="edge6" class="edge">
<title>Node6&#45;&gt;Node12</title>
<path fill="none" stroke="#191970" d="M1244.7304,-127.686C1155.3936,-123.4177 939.5535,-110.9969 760.5737,-84 751.0416,-82.5622 740.8339,-80.5826 731.3325,-78.548"/>
<polygon fill="#191970" stroke="#191970" points="1244.8342,-131.1947 1254.987,-128.1666 1245.1618,-124.2023 1244.8342,-131.1947"/>
</g>
<!-- Node13 -->
<g id="node8" class="node">
<title>Node13</title>
<g id="a_node8"><a xlink:href="../../d1/d89/inspector__io_8cc.html" target="_top" xlink:title="src/inspector_io.cc">
<polygon fill="#ffffff" stroke="#000000" points="769.1699,-60.5 769.1699,-78.5 867.9775,-78.5 867.9775,-60.5 769.1699,-60.5"/>
<text text-anchor="middle" x="818.5737" y="-66.5" font-family="Helvetica,sans-Serif" font-size="10.00" fill="#000000">src/inspector_io.cc</text>
</a>
</g>
</g>
<!-- Node6&#45;&gt;Node13 -->
<g id="edge7" class="edge">
<title>Node6&#45;&gt;Node13</title>
<path fill="none" stroke="#191970" d="M1244.6302,-126.7162C1170.1133,-121.3555 1009.9358,-107.9581 876.5737,-84 868.4011,-82.5318 859.6723,-80.5652 851.533,-78.5551"/>
<polygon fill="#191970" stroke="#191970" points="1244.7674,-130.2346 1254.9895,-127.4492 1245.2615,-123.2521 1244.7674,-130.2346"/>
</g>
<!-- Node14 -->
<g id="node9" class="node">
<title>Node14</title>
<g id="a_node9"><a xlink:href="../../da/d74/inspector__socket__server_8cc.html" target="_top" xlink:title="src/inspector_socket\l_server.cc">
<polygon fill="#ffffff" stroke="#000000" points="886,-55.5 886,-83.5 993.1475,-83.5 993.1475,-55.5 886,-55.5"/>
<text text-anchor="start" x="894" y="-71.5" font-family="Helvetica,sans-Serif" font-size="10.00" fill="#000000">src/inspector_socket</text>
<text text-anchor="middle" x="939.5737" y="-61.5" font-family="Helvetica,sans-Serif" font-size="10.00" fill="#000000">_server.cc</text>
</a>
</g>
</g>
<!-- Node6&#45;&gt;Node14 -->
<g id="edge8" class="edge">
<title>Node6&#45;&gt;Node14</title>
<path fill="none" stroke="#191970" d="M1245.12,-123.3812C1190.5332,-115.1772 1091.627,-99.8058 1007.5737,-84 1002.9471,-83.13 998.152,-82.1885 993.3471,-81.2176"/>
<polygon fill="#191970" stroke="#191970" points="1244.6981,-126.857 1255.1061,-124.8763 1245.7346,-119.9341 1244.6981,-126.857"/>
</g>
<!-- Node15 -->
<g id="node10" class="node">
<title>Node15</title>
<g id="a_node10"><a xlink:href="../../d8/d1c/node__buffer_8h.html" target="_top" xlink:title="src/node_buffer.h">
<polygon fill="#ffffff" stroke="#000000" points="1278.0215,-60.5 1278.0215,-78.5 1371.126,-78.5 1371.126,-60.5 1278.0215,-60.5"/>
<text text-anchor="middle" x="1324.5737" y="-66.5" font-family="Helvetica,sans-Serif" font-size="10.00" fill="#000000">src/node_buffer.h</text>
</a>
</g>
</g>
<!-- Node6&#45;&gt;Node15 -->
<g id="edge9" class="edge">
<title>Node6&#45;&gt;Node15</title>
<path fill="none" stroke="#191970" d="M1297.8472,-111.6998C1304.7143,-100.8569 1313.2046,-87.4513 1318.748,-78.6985"/>
<polygon fill="#191970" stroke="#191970" points="1294.7388,-110.0664 1292.3451,-120.3873 1300.6526,-113.8118 1294.7388,-110.0664"/>
</g>
<!-- Node17 -->
<g id="node12" class="node">
<title>Node17</title>
<g id="a_node12"><a xlink:href="../../dc/dfd/node_8cc.html" target="_top" xlink:title="src/node.cc">
<polygon fill="#ffffff" stroke="#000000" points="429.0073,-.5 429.0073,-18.5 496.1401,-18.5 496.1401,-.5 429.0073,-.5"/>
<text text-anchor="middle" x="462.5737" y="-6.5" font-family="Helvetica,sans-Serif" font-size="10.00" fill="#000000">src/node.cc</text>
</a>
</g>
</g>
<!-- Node6&#45;&gt;Node17 -->
<g id="edge29" class="edge">
<title>Node6&#45;&gt;Node17</title>
<path fill="none" stroke="#191970" d="M1244.8483,-124.6845C1183.3816,-117.1298 1071.8544,-101.5322 1035.5737,-84 1017.9936,-75.5046 1020.5837,-62.5417 1002.5737,-55 900.2293,-12.143 614.3275,-35.2853 504.5737,-19 501.9116,-18.605 499.1676,-18.1332 496.4174,-17.6141"/>
<polygon fill="#191970" stroke="#191970" points="1244.6407,-128.1849 1254.9892,-125.9137 1245.4831,-121.2357 1244.6407,-128.1849"/>
</g>
<!-- Node19 -->
<g id="node14" class="node">
<title>Node19</title>
<g id="a_node14"><a xlink:href="../../d2/deb/node__buffer_8cc.html" target="_top" xlink:title="src/node_buffer.cc">
<polygon fill="#ffffff" stroke="#000000" points="513.8022,-.5 513.8022,-18.5 611.3452,-18.5 611.3452,-.5 513.8022,-.5"/>
<text text-anchor="middle" x="562.5737" y="-6.5" font-family="Helvetica,sans-Serif" font-size="10.00" fill="#000000">src/node_buffer.cc</text>
</a>
</g>
</g>
<!-- Node6&#45;&gt;Node19 -->
<g id="edge30" class="edge">
<title>Node6&#45;&gt;Node19</title>
<path fill="none" stroke="#191970" d="M1244.7854,-126.0415C1200.5557,-121.1531 1129.5474,-109.7493 1073.5737,-84 1054.2729,-75.1211 1055.3873,-62.6667 1035.5737,-55 862.9118,11.8103 804.2792,-41.9792 620.5737,-19 617.6376,-18.6327 614.6223,-18.2267 611.5836,-17.7956"/>
<polygon fill="#191970" stroke="#191970" points="1244.5757,-129.5385 1254.885,-127.0955 1245.3024,-122.5763 1244.5757,-129.5385"/>
</g>
<!-- Node20 -->
<g id="node15" class="node">
<title>Node20</title>
<g id="a_node15"><a xlink:href="../../d5/d61/node__crypto_8cc.html" target="_top" xlink:title="src/node_crypto.cc">
<polygon fill="#ffffff" stroke="#000000" points="629.6108,-.5 629.6108,-18.5 729.5366,-18.5 729.5366,-.5 629.6108,-.5"/>
<text text-anchor="middle" x="679.5737" y="-6.5" font-family="Helvetica,sans-Serif" font-size="10.00" fill="#000000">src/node_crypto.cc</text>
</a>
</g>
</g>
<!-- Node6&#45;&gt;Node20 -->
<g id="edge33" class="edge">
<title>Node6&#45;&gt;Node20</title>
<path fill="none" stroke="#191970" d="M1244.6328,-123.4153C1208.1222,-117.012 1154.4734,-104.8881 1111.5737,-84 1092.4725,-74.6995 1093.3076,-62.8696 1073.5737,-55 934.4799,.4689 886.9904,-38.9094 738.5737,-19 735.6945,-18.6138 732.7393,-18.1984 729.7592,-17.7648"/>
<polygon fill="#191970" stroke="#191970" points="1244.4747,-126.9379 1254.9171,-125.1473 1245.6373,-120.0351 1244.4747,-126.9379"/>
</g>
<!-- Node21 -->
<g id="node16" class="node">
<title>Node21</title>
<g id="a_node16"><a xlink:href="../../dd/daa/node__file_8cc.html" target="_top" xlink:title="src/node_file.cc">
<polygon fill="#ffffff" stroke="#000000" points="747.835,-.5 747.835,-18.5 833.3125,-18.5 833.3125,-.5 747.835,-.5"/>
<text text-anchor="middle" x="790.5737" y="-6.5" font-family="Helvetica,sans-Serif" font-size="10.00" fill="#000000">src/node_file.cc</text>
</a>
</g>
</g>
<!-- Node6&#45;&gt;Node21 -->
<g id="edge34" class="edge">
<title>Node6&#45;&gt;Node21</title>
<path fill="none" stroke="#191970" d="M1245.3313,-119.6467C1217.3563,-112.0528 1180.0623,-100.1161 1149.5737,-84 1130.7912,-74.0716 1131.2037,-63.1254 1111.5737,-55 1000.1227,-8.8675 961.7141,-37.8443 842.5737,-19 839.5824,-18.5269 836.4983,-18.0179 833.3949,-17.4901"/>
<polygon fill="#191970" stroke="#191970" points="1244.6243,-123.0799 1255.1864,-122.2477 1246.4107,-116.3117 1244.6243,-123.0799"/>
</g>
<!-- Node22 -->
<g id="node17" class="node">
<title>Node22</title>
<g id="a_node17"><a xlink:href="../../d3/d48/node__http2_8cc.html" target="_top" xlink:title="src/node_http2.cc">
<polygon fill="#ffffff" stroke="#000000" points="851.106,-.5 851.106,-18.5 946.0415,-18.5 946.0415,-.5 851.106,-.5"/>
<text text-anchor="middle" x="898.5737" y="-6.5" font-family="Helvetica,sans-Serif" font-size="10.00" fill="#000000">src/node_http2.cc</text>
</a>
</g>
</g>
<!-- Node6&#45;&gt;Node22 -->
<g id="edge35" class="edge">
<title>Node6&#45;&gt;Node22</title>
<path fill="none" stroke="#191970" d="M1253.5639,-116.4978C1233.8607,-108.2119 1208.6534,-96.6741 1187.5737,-84 1169.3662,-73.0527 1169.0104,-63.5775 1149.5737,-55 1140.3182,-50.9155 1016.3659,-29.4755 946.19,-17.5405"/>
<polygon fill="#191970" stroke="#191970" points="1252.4539,-119.8261 1263.0327,-120.4088 1255.1263,-113.3563 1252.4539,-119.8261"/>
</g>
<!-- Node23 -->
<g id="node18" class="node">
<title>Node23</title>
<g id="a_node18"><a xlink:href="../../d1/d90/node__http__parser_8cc.html" target="_top" xlink:title="src/node_http_parser.cc">
<polygon fill="#ffffff" stroke="#000000" points="964.207,-.5 964.207,-18.5 1086.9404,-18.5 1086.9404,-.5 964.207,-.5"/>
<text text-anchor="middle" x="1025.5737" y="-6.5" font-family="Helvetica,sans-Serif" font-size="10.00" fill="#000000">src/node_http_parser.cc</text>
</a>
</g>
</g>
<!-- Node6&#45;&gt;Node23 -->
<g id="edge36" class="edge">
<title>Node6&#45;&gt;Node23</title>
<path fill="none" stroke="#191970" d="M1266.0592,-114.2855C1254.2044,-105.4716 1239.0208,-94.1457 1225.5737,-84 1208.6142,-71.2042 1206.5837,-64.4858 1187.5737,-55 1152.1545,-37.3261 1108.8447,-25.6146 1075.9201,-18.5052"/>
<polygon fill="#191970" stroke="#191970" points="1264.2772,-117.3217 1274.392,-120.4748 1268.4511,-111.7022 1264.2772,-117.3217"/>
</g>
<!-- Node24 -->
<g id="node19" class="node">
<title>Node24</title>
<g id="a_node19"><a xlink:href="../../dc/d3a/node__serdes_8cc.html" target="_top" xlink:title="src/node_serdes.cc">
<polygon fill="#ffffff" stroke="#000000" points="1105.2192,-.5 1105.2192,-18.5 1207.9282,-18.5 1207.9282,-.5 1105.2192,-.5"/>
<text text-anchor="middle" x="1156.5737" y="-6.5" font-family="Helvetica,sans-Serif" font-size="10.00" fill="#000000">src/node_serdes.cc</text>
</a>
</g>
</g>
<!-- Node6&#45;&gt;Node24 -->
<g id="edge41" class="edge">
<title>Node6&#45;&gt;Node24</title>
<path fill="none" stroke="#191970" d="M1274.3018,-111.5964C1262.8381,-95.6417 1244.6679,-72.22 1225.5737,-55 1209.2702,-40.2967 1187.8082,-26.9162 1173.1772,-18.5292"/>
<polygon fill="#191970" stroke="#191970" points="1271.6153,-113.8604 1280.2327,-120.024 1277.3398,-109.8318 1271.6153,-113.8604"/>
</g>
<!-- Node25 -->
<g id="node20" class="node">
<title>Node25</title>
<g id="a_node20"><a xlink:href="../../d9/d0d/node__zlib_8cc.html" target="_top" xlink:title="src/node_zlib.cc">
<polygon fill="#ffffff" stroke="#000000" points="2042.7241,-.5 2042.7241,-18.5 2130.4233,-18.5 2130.4233,-.5 2042.7241,-.5"/>
<text text-anchor="middle" x="2086.5737" y="-6.5" font-family="Helvetica,sans-Serif" font-size="10.00" fill="#000000">src/node_zlib.cc</text>
</a>
</g>
</g>
<!-- Node6&#45;&gt;Node25 -->
<g id="edge45" class="edge">
<title>Node6&#45;&gt;Node25</title>
<path fill="none" stroke="#191970" d="M1316.7735,-116.2149C1335.4888,-107.6574 1359.8305,-95.934 1380.5737,-84 1400.5542,-72.5048 1401.7377,-62.3855 1423.5737,-55 1552.2067,-11.4928 1898.7291,-35.0071 2033.5737,-19 2036.5442,-18.6474 2039.6003,-18.2345 2042.674,-17.7819"/>
<polygon fill="#191970" stroke="#191970" points="1315.2185,-113.0767 1307.5484,-120.3856 1318.1023,-119.4551 1315.2185,-113.0767"/>
</g>
<!-- Node26 -->
<g id="node21" class="node">
<title>Node26</title>
<g id="a_node21"><a xlink:href="../../d7/d2c/pipe__wrap_8cc.html" target="_top" xlink:title="src/pipe_wrap.cc">
<polygon fill="#ffffff" stroke="#000000" points="2148.0591,-.5 2148.0591,-18.5 2239.0884,-18.5 2239.0884,-.5 2148.0591,-.5"/>
<text text-anchor="middle" x="2193.5737" y="-6.5" font-family="Helvetica,sans-Serif" font-size="10.00" fill="#000000">src/pipe_wrap.cc</text>
</a>
</g>
</g>
<!-- Node6&#45;&gt;Node26 -->
<g id="edge46" class="edge">
<title>Node6&#45;&gt;Node26</title>
<path fill="none" stroke="#191970" d="M1327.9446,-117.5065C1353.7288,-109.4023 1387.2676,-97.7011 1415.5737,-84 1437.3275,-73.4704 1438.5412,-62.3214 1461.5737,-55 1605.3629,-9.2932 1989.6672,-36.1024 2139.5737,-19 2142.3164,-18.6871 2145.1307,-18.3232 2147.9652,-17.9238"/>
<polygon fill="#191970" stroke="#191970" points="1326.6398,-114.2463 1318.1169,-120.54 1328.7044,-120.9349 1326.6398,-114.2463"/>
</g>
<!-- Node27 -->
<g id="node22" class="node">
<title>Node27</title>
<g id="a_node22"><a xlink:href="../../d6/d00/stream__base_8cc.html" target="_top" xlink:title="src/stream_base.cc">
<polygon fill="#ffffff" stroke="#000000" points="2257.2266,-.5 2257.2266,-18.5 2359.9209,-18.5 2359.9209,-.5 2257.2266,-.5"/>
<text text-anchor="middle" x="2308.5737" y="-6.5" font-family="Helvetica,sans-Serif" font-size="10.00" fill="#000000">src/stream_base.cc</text>
</a>
</g>
</g>
<!-- Node6&#45;&gt;Node27 -->
<g id="edge47" class="edge">
<title>Node6&#45;&gt;Node27</title>
<path fill="none" stroke="#191970" d="M1328.1908,-121.5484C1362.4563,-114.1931 1411.8451,-101.7108 1452.5737,-84 1475.0829,-74.2119 1476.1279,-62.2638 1499.5737,-55 1658.7463,-5.6864 2082.8122,-36.0551 2248.5737,-19 2251.3014,-18.7194 2254.0939,-18.3977 2256.91,-18.0463"/>
<polygon fill="#191970" stroke="#191970" points="1327.1397,-118.1924 1318.0686,-123.6665 1328.5735,-125.044 1327.1397,-118.1924"/>
</g>
<!-- Node29 -->
<g id="node24" class="node">
<title>Node29</title>
<g id="a_node24"><a xlink:href="../../df/db9/string__bytes_8cc.html" target="_top" xlink:title="src/string_bytes.cc">
<polygon fill="#ffffff" stroke="#000000" points="2378.1724,-.5 2378.1724,-18.5 2476.9751,-18.5 2476.9751,-.5 2378.1724,-.5"/>
<text text-anchor="middle" x="2427.5737" y="-6.5" font-family="Helvetica,sans-Serif" font-size="10.00" fill="#000000">src/string_bytes.cc</text>
</a>
</g>
</g>
<!-- Node6&#45;&gt;Node29 -->
<g id="edge48" class="edge">
<title>Node6&#45;&gt;Node29</title>
<path fill="none" stroke="#191970" d="M1328.0957,-124.7967C1370.1396,-118.9883 1436.3698,-106.9297 1489.5737,-84 1510.7427,-74.8767 1510.6796,-62.2116 1532.5737,-55 1709.1894,3.1746 2183.5778,-37.8121 2368.5737,-19 2371.6703,-18.6851 2374.8513,-18.3136 2378.0545,-17.903"/>
<polygon fill="#191970" stroke="#191970" points="1327.4037,-121.3577 1317.9504,-126.1416 1328.3236,-128.297 1327.4037,-121.3577"/>
</g>
<!-- Node35 -->
<g id="node30" class="node">
<title>Node35</title>
<g id="a_node30"><a xlink:href="../../d1/d72/node__config_8cc.html" target="_top" xlink:title="src/node_config.cc">
<polygon fill="#ffffff" stroke="#000000" points="1541.8843,-60.5 1541.8843,-78.5 1641.2632,-78.5 1641.2632,-60.5 1541.8843,-60.5"/>
<text text-anchor="middle" x="1591.5737" y="-66.5" font-family="Helvetica,sans-Serif" font-size="10.00" fill="#000000">src/node_config.cc</text>
</a>
</g>
</g>
<!-- Node6&#45;&gt;Node35 -->
<g id="edge31" class="edge">
<title>Node6&#45;&gt;Node35</title>
<path fill="none" stroke="#191970" d="M1328.2624,-122.1024C1376.3822,-113.454 1457.855,-98.4742 1527.5737,-84 1535.7168,-82.3094 1544.4198,-80.404 1552.7014,-78.5436"/>
<polygon fill="#191970" stroke="#191970" points="1327.4522,-118.6918 1318.2265,-123.9012 1328.6872,-125.582 1327.4522,-118.6918"/>
</g>
<!-- Node36 -->
<g id="node31" class="node">
<title>Node36</title>
<g id="a_node31"><a xlink:href="../../d2/d17/node__contextify_8cc.html" target="_top" xlink:title="src/node_contextify.cc">
<polygon fill="#ffffff" stroke="#000000" points="1659.4746,-60.5 1659.4746,-78.5 1773.6729,-78.5 1773.6729,-60.5 1659.4746,-60.5"/>
<text text-anchor="middle" x="1716.5737" y="-66.5" font-family="Helvetica,sans-Serif" font-size="10.00" fill="#000000">src/node_contextify.cc</text>
</a>
</g>
</g>
<!-- Node6&#45;&gt;Node36 -->
<g id="edge32" class="edge">
<title>Node6&#45;&gt;Node36</title>
<path fill="none" stroke="#191970" d="M1328.6603,-125.5086C1396.6376,-118.7774 1534.6953,-103.9281 1650.5737,-84 1659.592,-82.4491 1669.2418,-80.4972 1678.3012,-78.5326"/>
<polygon fill="#191970" stroke="#191970" points="1327.9766,-122.0588 1318.3662,-126.5188 1328.6603,-129.0254 1327.9766,-122.0588"/>
</g>
<!-- Node37 -->
<g id="node32" class="node">
<title>Node37</title>
<g id="a_node32"><a xlink:href="../../d2/d68/node__main_8cc.html" target="_top" xlink:title="src/node_main.cc">
<polygon fill="#ffffff" stroke="#000000" points="1791.3892,-60.5 1791.3892,-78.5 1885.7583,-78.5 1885.7583,-60.5 1791.3892,-60.5"/>
<text text-anchor="middle" x="1838.5737" y="-66.5" font-family="Helvetica,sans-Serif" font-size="10.00" fill="#000000">src/node_main.cc</text>
</a>
</g>
</g>
<!-- Node6&#45;&gt;Node37 -->
<g id="edge37" class="edge">
<title>Node6&#45;&gt;Node37</title>
<path fill="none" stroke="#191970" d="M1328.2442,-127.956C1413.9052,-124.2825 1615.7435,-113.0535 1782.5737,-84 1790.6868,-82.5871 1799.348,-80.5917 1807.3738,-78.5318"/>
<polygon fill="#191970" stroke="#191970" points="1327.9886,-124.4635 1318.143,-128.3769 1328.2801,-131.4574 1327.9886,-124.4635"/>
</g>
<!-- Node38 -->
<g id="node33" class="node">
<title>Node38</title>
<g id="a_node33"><a xlink:href="../../d2/da2/node__os_8cc.html" target="_top" xlink:title="src/node_os.cc">
<polygon fill="#ffffff" stroke="#000000" points="1903.9458,-60.5 1903.9458,-78.5 1987.2017,-78.5 1987.2017,-60.5 1903.9458,-60.5"/>
<text text-anchor="middle" x="1945.5737" y="-66.5" font-family="Helvetica,sans-Serif" font-size="10.00" fill="#000000">src/node_os.cc</text>
</a>
</g>
</g>
<!-- Node6&#45;&gt;Node38 -->
<g id="edge38" class="edge">
<title>Node6&#45;&gt;Node38</title>
<path fill="none" stroke="#191970" d="M1328.368,-127.4764C1447.1756,-121.5485 1785.3155,-103.4136 1894.5737,-84 1902.1867,-82.6473 1910.2947,-80.6211 1917.7531,-78.5091"/>
<polygon fill="#191970" stroke="#191970" points="1328.0368,-123.9884 1318.2225,-127.9794 1328.3836,-130.9798 1328.0368,-123.9884"/>
</g>
<!-- Node39 -->
<g id="node34" class="node">
<title>Node39</title>
<g id="a_node34"><a xlink:href="../../da/d00/node__perf_8cc.html" target="_top" xlink:title="src/node_perf.cc">
<polygon fill="#ffffff" stroke="#000000" points="2005.6108,-60.5 2005.6108,-78.5 2095.5366,-78.5 2095.5366,-60.5 2005.6108,-60.5"/>
<text text-anchor="middle" x="2050.5737" y="-66.5" font-family="Helvetica,sans-Serif" font-size="10.00" fill="#000000">src/node_perf.cc</text>
</a>
</g>
</g>
<!-- Node6&#45;&gt;Node39 -->
<g id="edge39" class="edge">
<title>Node6&#45;&gt;Node39</title>
<path fill="none" stroke="#191970" d="M1328.0817,-127.923C1459.6674,-122.7532 1866.4898,-105.4154 1996.5737,-84 2004.6194,-82.6755 2013.1991,-80.659 2021.096,-78.5473"/>
<polygon fill="#191970" stroke="#191970" points="1327.8636,-124.4287 1318.0077,-128.3161 1328.1366,-131.4234 1327.8636,-124.4287"/>
</g>
<!-- Node40 -->
<g id="node35" class="node">
<title>Node40</title>
<g id="a_node35"><a xlink:href="../../d1/d21/node__perf__common_8h.html" target="_top" xlink:title="src/node_perf_common.h">
<polygon fill="#ffffff" stroke="#000000" points="2113.877,-60.5 2113.877,-78.5 2243.2705,-78.5 2243.2705,-60.5 2113.877,-60.5"/>
<text text-anchor="middle" x="2178.5737" y="-66.5" font-family="Helvetica,sans-Serif" font-size="10.00" fill="#000000">src/node_perf_common.h</text>
</a>
</g>
</g>
<!-- Node6&#45;&gt;Node40 -->
<g id="edge40" class="edge">
<title>Node6&#45;&gt;Node40</title>
<path fill="none" stroke="#191970" d="M1328.592,-129.2039C1449.5804,-127.9128 1809.0022,-120.9991 2104.5737,-84 2115.3556,-82.6504 2126.9248,-80.6517 2137.6374,-78.5667"/>
<polygon fill="#191970" stroke="#191970" points="1328.2619,-125.7069 1318.2972,-129.3061 1328.3315,-132.7065 1328.2619,-125.7069"/>
</g>
<!-- Node41 -->
<g id="node36" class="node">
<title>Node41</title>
<g id="a_node36"><a xlink:href="../../df/dcb/node__url_8cc.html" target="_top" xlink:title="src/node_url.cc">
<polygon fill="#ffffff" stroke="#000000" points="2261.6699,-60.5 2261.6699,-78.5 2345.4775,-78.5 2345.4775,-60.5 2261.6699,-60.5"/>
<text text-anchor="middle" x="2303.5737" y="-66.5" font-family="Helvetica,sans-Serif" font-size="10.00" fill="#000000">src/node_url.cc</text>
</a>
</g>
</g>
<!-- Node6&#45;&gt;Node41 -->
<g id="edge42" class="edge">
<title>Node6&#45;&gt;Node41</title>
<path fill="none" stroke="#191970" d="M1328.4059,-128.8087C1489.6069,-125.9468 2070.577,-113.7508 2252.5737,-84 2260.3864,-82.7229 2268.7055,-80.6674 2276.309,-78.5007"/>
<polygon fill="#191970" stroke="#191970" points="1328.3408,-125.3092 1318.4036,-128.9838 1328.4634,-132.3082 1328.3408,-125.3092"/>
</g>
<!-- Node42 -->
<g id="node37" class="node">
<title>Node42</title>
<g id="a_node37"><a xlink:href="../../da/dc5/node__util_8cc.html" target="_top" xlink:title="src/node_util.cc">
<polygon fill="#ffffff" stroke="#000000" points="2363.835,-60.5 2363.835,-78.5 2449.3125,-78.5 2449.3125,-60.5 2363.835,-60.5"/>
<text text-anchor="middle" x="2406.5737" y="-66.5" font-family="Helvetica,sans-Serif" font-size="10.00" fill="#000000">src/node_util.cc</text>
</a>
</g>
</g>
<!-- Node6&#45;&gt;Node42 -->
<g id="edge43" class="edge">
<title>Node6&#45;&gt;Node42</title>
<path fill="none" stroke="#191970" d="M1328.2196,-129.0008C1499.6742,-126.7491 2151.4738,-116.205 2354.5737,-84 2362.5344,-82.7377 2371.0148,-80.6871 2378.7675,-78.5204"/>
<polygon fill="#191970" stroke="#191970" points="1328.0445,-125.5027 1318.0905,-129.1315 1328.1349,-132.5021 1328.0445,-125.5027"/>
</g>
<!-- Node43 -->
<g id="node38" class="node">
<title>Node43</title>
<g id="a_node38"><a xlink:href="../../d6/d35/node__v8_8cc.html" target="_top" xlink:title="src/node_v8.cc">
<polygon fill="#ffffff" stroke="#000000" points="2466.9458,-60.5 2466.9458,-78.5 2550.2017,-78.5 2550.2017,-60.5 2466.9458,-60.5"/>
<text text-anchor="middle" x="2508.5737" y="-66.5" font-family="Helvetica,sans-Serif" font-size="10.00" fill="#000000">src/node_v8.cc</text>
</a>
</g>
</g>
<!-- Node6&#45;&gt;Node43 -->
<g id="edge44" class="edge">
<title>Node6&#45;&gt;Node43</title>
<path fill="none" stroke="#191970" d="M1328.3656,-129.2391C1510.311,-127.894 2234.2704,-120.32 2458.5737,-84 2466.2466,-82.7576 2474.407,-80.7135 2481.8614,-78.5466"/>
<polygon fill="#191970" stroke="#191970" points="1328.1205,-125.7407 1318.1459,-129.3122 1328.1707,-132.7405 1328.1205,-125.7407"/>
</g>
<!-- Node44 -->
<g id="node39" class="node">
<title>Node44</title>
<g id="a_node39"><a xlink:href="../../d5/d6e/uv_8cc.html" target="_top" xlink:title="src/uv.cc">
<polygon fill="#ffffff" stroke="#000000" points="2568.2183,-60.5 2568.2183,-78.5 2622.9292,-78.5 2622.9292,-60.5 2568.2183,-60.5"/>
<text text-anchor="middle" x="2595.5737" y="-66.5" font-family="Helvetica,sans-Serif" font-size="10.00" fill="#000000">src/uv.cc</text>
</a>
</g>
</g>
<!-- Node6&#45;&gt;Node44 -->
<g id="edge49" class="edge">
<title>Node6&#45;&gt;Node44</title>
<path fill="none" stroke="#191970" d="M1328.01,-128.8711C1533.3621,-125.64 2436.9825,-110.0414 2559.5737,-84 2565.2419,-82.7959 2571.1645,-80.7645 2576.5309,-78.5974"/>
<polygon fill="#191970" stroke="#191970" points="1327.8838,-125.3726 1317.9397,-129.0284 1327.9932,-132.3717 1327.8838,-125.3726"/>
</g>
<!-- Node16 -->
<g id="node11" class="node">
<title>Node16</title>
<g id="a_node11"><a xlink:href="../../d4/da3/js__stream_8cc.html" target="_top" xlink:title="src/js_stream.cc">
<polygon fill="#ffffff" stroke="#000000" points="1936.458,-.5 1936.458,-18.5 2024.6895,-18.5 2024.6895,-.5 1936.458,-.5"/>
<text text-anchor="middle" x="1980.5737" y="-6.5" font-family="Helvetica,sans-Serif" font-size="10.00" fill="#000000">src/js_stream.cc</text>
</a>
</g>
</g>
<!-- Node15&#45;&gt;Node16 -->
<g id="edge10" class="edge">
<title>Node15&#45;&gt;Node16</title>
<path fill="none" stroke="#191970" d="M1368.4248,-58.1528C1374.1648,-56.9397 1379.9902,-55.843 1385.5737,-55 1624.288,-18.9589 1687.9439,-48.3425 1927.5737,-19 1930.4501,-18.6478 1933.4071,-18.2416 1936.3829,-17.7996"/>
<polygon fill="#191970" stroke="#191970" points="1367.248,-54.8296 1358.2557,-60.4322 1368.7791,-61.6602 1367.248,-54.8296"/>
</g>
<!-- Node15&#45;&gt;Node17 -->
<g id="edge11" class="edge">
<title>Node15&#45;&gt;Node17</title>
<path fill="none" stroke="#191970" d="M1267.5705,-66.5227C1094.043,-57.3846 579.5092,-29.7112 504.5737,-19 501.9095,-18.6192 499.164,-18.1576 496.4128,-17.6455"/>
<polygon fill="#191970" stroke="#191970" points="1267.6016,-70.029 1277.7716,-67.0592 1267.9693,-63.0387 1267.6016,-70.029"/>
</g>
<!-- Node18 -->
<g id="node13" class="node">
<title>Node18</title>
<g id="a_node13"><a xlink:href="../../d8/d91/node__api_8cc.html" target="_top" xlink:title="src/node_api.cc">
<polygon fill="#ffffff" stroke="#000000" points="1225.5542,-.5 1225.5542,-18.5 1311.5933,-18.5 1311.5933,-.5 1225.5542,-.5"/>
<text text-anchor="middle" x="1268.5737" y="-6.5" font-family="Helvetica,sans-Serif" font-size="10.00" fill="#000000">src/node_api.cc</text>
</a>
</g>
</g>
<!-- Node15&#45;&gt;Node18 -->
<g id="edge12" class="edge">
<title>Node15&#45;&gt;Node18</title>
<path fill="none" stroke="#191970" d="M1309.1747,-53.0011C1298.8584,-41.9478 1285.6583,-27.8049 1277.159,-18.6985"/>
<polygon fill="#191970" stroke="#191970" points="1306.6866,-55.4648 1316.0685,-60.3873 1311.804,-50.6886 1306.6866,-55.4648"/>
</g>
<!-- Node15&#45;&gt;Node19 -->
<g id="edge13" class="edge">
<title>Node15&#45;&gt;Node19</title>
<path fill="none" stroke="#191970" d="M1267.5008,-66.0776C1123.0416,-57.3069 745.5346,-33.6851 620.5737,-19 617.6349,-18.6546 614.6176,-18.2656 611.5773,-17.8472"/>
<polygon fill="#191970" stroke="#191970" points="1267.7073,-69.5964 1277.9007,-66.7078 1268.1307,-62.6092 1267.7073,-69.5964"/>
</g>
<!-- Node15&#45;&gt;Node20 -->
<g id="edge14" class="edge">
<title>Node15&#45;&gt;Node20</title>
<path fill="none" stroke="#191970" d="M1267.6839,-65.9957C1162.812,-59.2252 932.0329,-42.8781 738.5737,-19 735.6906,-18.6441 732.7324,-18.2525 729.7499,-17.8371"/>
<polygon fill="#191970" stroke="#191970" points="1267.5322,-69.4931 1277.7356,-66.6401 1267.9801,-62.5074 1267.5322,-69.4931"/>
</g>
<!-- Node15&#45;&gt;Node21 -->
<g id="edge15" class="edge">
<title>Node15&#45;&gt;Node21</title>
<path fill="none" stroke="#191970" d="M1267.8756,-64.9715C1177.6021,-57.444 995.7453,-40.983 842.5737,-19 839.576,-18.5698 836.487,-18.0926 833.3801,-17.5877"/>
<polygon fill="#191970" stroke="#191970" points="1267.6431,-68.4641 1277.898,-65.8018 1268.2211,-61.488 1267.6431,-68.4641"/>
</g>
<!-- Node15&#45;&gt;Node22 -->
<g id="edge16" class="edge">
<title>Node15&#45;&gt;Node22</title>
<path fill="none" stroke="#191970" d="M1267.6271,-62.2298C1195.0772,-52.8473 1065.8595,-35.7335 955.5737,-19 952.4989,-18.5335 949.3329,-18.0406 946.143,-17.5347"/>
<polygon fill="#191970" stroke="#191970" points="1267.5452,-65.7482 1277.911,-63.557 1268.4413,-58.8057 1267.5452,-65.7482"/>
</g>
<!-- Node15&#45;&gt;Node23 -->
<g id="edge17" class="edge">
<title>Node15&#45;&gt;Node23</title>
<path fill="none" stroke="#191970" d="M1269.5278,-58.454C1212.2795,-46.966 1123.7334,-29.1976 1070.538,-18.5229"/>
<polygon fill="#191970" stroke="#191970" points="1268.9935,-61.9165 1279.4867,-60.4524 1270.3708,-55.0533 1268.9935,-61.9165"/>
</g>
<!-- Node15&#45;&gt;Node24 -->
<g id="edge18" class="edge">
<title>Node15&#45;&gt;Node24</title>
<path fill="none" stroke="#191970" d="M1289.5784,-57.0017C1257.387,-45.5047 1210.43,-28.7344 1181.779,-18.5019"/>
<polygon fill="#191970" stroke="#191970" points="1288.4635,-60.32 1299.0581,-60.3873 1290.8179,-53.7278 1288.4635,-60.32"/>
</g>
<!-- Node15&#45;&gt;Node25 -->
<g id="edge19" class="edge">
<title>Node15&#45;&gt;Node25</title>
<path fill="none" stroke="#191970" d="M1367.7733,-58.2305C1373.722,-56.9725 1379.777,-55.8431 1385.5737,-55 1671.0143,-13.483 1747.0825,-52.5078 2033.5737,-19 2036.5448,-18.6525 2039.6013,-18.2434 2042.6754,-17.7936"/>
<polygon fill="#191970" stroke="#191970" points="1366.9173,-54.8355 1357.927,-60.4413 1368.4508,-61.6654 1366.9173,-54.8355"/>
</g>
<!-- Node15&#45;&gt;Node26 -->
<g id="edge20" class="edge">
<title>Node15&#45;&gt;Node26</title>
<path fill="none" stroke="#191970" d="M1381.5798,-60.2044C1395.301,-58.2292 1409.9353,-56.3386 1423.5737,-55 1740.6743,-23.8775 1822.9526,-54.6717 2139.5737,-19 2142.3169,-18.6909 2145.1315,-18.33 2147.9662,-17.9329"/>
<polygon fill="#191970" stroke="#191970" points="1380.6777,-56.7996 1371.2967,-61.7237 1381.7009,-63.7244 1380.6777,-56.7996"/>
</g>
<!-- Node15&#45;&gt;Node27 -->
<g id="edge21" class="edge">
<title>Node15&#45;&gt;Node27</title>
<path fill="none" stroke="#191970" d="M1381.662,-62.6878C1406.2241,-59.9565 1435.2799,-56.9911 1461.5737,-55 1810.7177,-28.5616 1900.2277,-54.4335 2248.5737,-19 2251.3017,-18.7225 2254.0945,-18.4034 2256.9107,-18.054"/>
<polygon fill="#191970" stroke="#191970" points="1380.9769,-59.2427 1371.4317,-63.8405 1381.7607,-66.1987 1380.9769,-59.2427"/>
</g>
<!-- Node28 -->
<g id="node23" class="node">
<title>Node28</title>
<g id="a_node23"><a xlink:href="../../dc/d29/stream__wrap_8cc.html" target="_top" xlink:title="src/stream_wrap.cc">
<polygon fill="#ffffff" stroke="#000000" points="1329.2314,-.5 1329.2314,-18.5 1431.916,-18.5 1431.916,-.5 1329.2314,-.5"/>
<text text-anchor="middle" x="1380.5737" y="-6.5" font-family="Helvetica,sans-Serif" font-size="10.00" fill="#000000">src/stream_wrap.cc</text>
</a>
</g>
</g>
<!-- Node15&#45;&gt;Node28 -->
<g id="edge22" class="edge">
<title>Node15&#45;&gt;Node28</title>
<path fill="none" stroke="#191970" d="M1339.9727,-53.0011C1350.2891,-41.9478 1363.4891,-27.8049 1371.9885,-18.6985"/>
<polygon fill="#191970" stroke="#191970" points="1337.3434,-50.6886 1333.0789,-60.3873 1342.4608,-55.4648 1337.3434,-50.6886"/>
</g>
<!-- Node15&#45;&gt;Node29 -->
<g id="edge23" class="edge">
<title>Node15&#45;&gt;Node29</title>
<path fill="none" stroke="#191970" d="M1381.5975,-64.1769C1415.7864,-61.1347 1460.1417,-57.4493 1499.5737,-55 1885.3837,-31.0352 1983.9717,-57.7929 2368.5737,-19 2371.6705,-18.6876 2374.8517,-18.318 2378.0551,-17.9089"/>
<polygon fill="#191970" stroke="#191970" points="1380.9773,-60.7184 1371.3302,-65.0984 1381.603,-67.6904 1380.9773,-60.7184"/>
</g>
<!-- Node30 -->
<g id="node25" class="node">
<title>Node30</title>
<g id="a_node25"><a xlink:href="../../d3/dfb/tcp__wrap_8cc.html" target="_top" xlink:title="src/tcp_wrap.cc">
<polygon fill="#ffffff" stroke="#000000" points="1449.8423,-.5 1449.8423,-18.5 1535.3052,-18.5 1535.3052,-.5 1449.8423,-.5"/>
<text text-anchor="middle" x="1492.5737" y="-6.5" font-family="Helvetica,sans-Serif" font-size="10.00" fill="#000000">src/tcp_wrap.cc</text>
</a>
</g>
</g>
<!-- Node15&#45;&gt;Node30 -->
<g id="edge24" class="edge">
<title>Node15&#45;&gt;Node30</title>
<path fill="none" stroke="#191970" d="M1359.5691,-57.0017C1391.7605,-45.5047 1438.7174,-28.7344 1467.3685,-18.5019"/>
<polygon fill="#191970" stroke="#191970" points="1358.3295,-53.7278 1350.0893,-60.3873 1360.6839,-60.32 1358.3295,-53.7278"/>
</g>
<!-- Node31 -->
<g id="node26" class="node">
<title>Node31</title>
<g id="a_node26"><a xlink:href="../../da/de5/tls__wrap_8cc.html" target="_top" xlink:title="src/tls_wrap.cc">
<polygon fill="#ffffff" stroke="#000000" points="1553.5122,-.5 1553.5122,-18.5 1635.6353,-18.5 1635.6353,-.5 1553.5122,-.5"/>
<text text-anchor="middle" x="1594.5737" y="-6.5" font-family="Helvetica,sans-Serif" font-size="10.00" fill="#000000">src/tls_wrap.cc</text>
</a>
</g>
</g>
<!-- Node15&#45;&gt;Node31 -->
<g id="edge25" class="edge">
<title>Node15&#45;&gt;Node31</title>
<path fill="none" stroke="#191970" d="M1371.9658,-58.1415C1376.5618,-57.068 1381.1558,-56.0059 1385.5737,-55 1443.6875,-41.7685 1511.0838,-27.2434 1553.2803,-18.2476"/>
<polygon fill="#191970" stroke="#191970" points="1370.9022,-54.7961 1361.9689,-60.4923 1372.5046,-61.6102 1370.9022,-54.7961"/>
</g>
<!-- Node32 -->
<g id="node27" class="node">
<title>Node32</title>
<g id="a_node27"><a xlink:href="../../de/d6d/tty__wrap_8cc.html" target="_top" xlink:title="src/tty_wrap.cc">
<polygon fill="#ffffff" stroke="#000000" points="1653.2339,-.5 1653.2339,-18.5 1735.9136,-18.5 1735.9136,-.5 1653.2339,-.5"/>
<text text-anchor="middle" x="1694.5737" y="-6.5" font-family="Helvetica,sans-Serif" font-size="10.00" fill="#000000">src/tty_wrap.cc</text>
</a>
</g>
</g>
<!-- Node15&#45;&gt;Node32 -->
<g id="edge26" class="edge">
<title>Node15&#45;&gt;Node32</title>
<path fill="none" stroke="#191970" d="M1369.93,-58.2148C1375.1892,-57.0561 1380.4888,-55.9555 1385.5737,-55 1499.7925,-33.5373 1529.8953,-37.8525 1644.5737,-19 1647.3638,-18.5413 1650.2375,-18.0489 1653.1305,-17.5383"/>
<polygon fill="#191970" stroke="#191970" points="1368.9059,-54.8584 1359.9331,-60.4922 1370.4608,-61.6835 1368.9059,-54.8584"/>
</g>
<!-- Node33 -->
<g id="node28" class="node">
<title>Node33</title>
<g id="a_node28"><a xlink:href="../../d1/d05/udp__wrap_8cc.html" target="_top" xlink:title="src/udp_wrap.cc">
<polygon fill="#ffffff" stroke="#000000" points="1754.1699,-.5 1754.1699,-18.5 1842.9775,-18.5 1842.9775,-.5 1754.1699,-.5"/>
<text text-anchor="middle" x="1798.5737" y="-6.5" font-family="Helvetica,sans-Serif" font-size="10.00" fill="#000000">src/udp_wrap.cc</text>
</a>
</g>
</g>
<!-- Node15&#45;&gt;Node33 -->
<g id="edge27" class="edge">
<title>Node15&#45;&gt;Node33</title>
<path fill="none" stroke="#191970" d="M1368.8681,-58.2419C1374.4688,-57.0338 1380.1394,-55.9142 1385.5737,-55 1543.7077,-28.3988 1585.7214,-40.9071 1744.5737,-19 1747.6855,-18.5709 1750.8924,-18.0945 1754.1181,-17.5902"/>
<polygon fill="#191970" stroke="#191970" points="1367.9114,-54.8698 1358.9281,-60.4868 1369.4535,-61.6978 1367.9114,-54.8698"/>
</g>
<!-- Node34 -->
<g id="node29" class="node">
<title>Node34</title>
<g id="a_node29"><a xlink:href="../../d9/d6f/util_8cc.html" target="_top" xlink:title="src/util.cc">
<polygon fill="#ffffff" stroke="#000000" points="1860.7388,-.5 1860.7388,-18.5 1918.4087,-18.5 1918.4087,-.5 1860.7388,-.5"/>
<text text-anchor="middle" x="1889.5737" y="-6.5" font-family="Helvetica,sans-Serif" font-size="10.00" fill="#000000">src/util.cc</text>
</a>
</g>
</g>
<!-- Node15&#45;&gt;Node34 -->
<g id="edge28" class="edge">
<title>Node15&#45;&gt;Node34</title>
<path fill="none" stroke="#191970" d="M1368.4336,-58.2102C1374.1722,-56.9877 1379.9949,-55.8731 1385.5737,-55 1590.804,-22.8823 1646.5333,-52.308 1851.5737,-19 1854.5271,-18.5202 1857.5879,-17.9247 1860.6318,-17.2675"/>
<polygon fill="#191970" stroke="#191970" points="1367.2535,-54.8881 1358.2658,-60.4981 1368.7903,-61.7173 1367.2535,-54.8881"/>
</g>
</g>
</svg>
        <g id="navigator" transform="translate(0 0)" fill="#404254">
                <rect fill="#f2f5e9" fill-opacity="0.5" stroke="#606060" stroke-width=".5" x="0" y="0" width="60" height="60"/>
                <use id="zoomplus" xlink:href="#zoomPlus" x="17" y="9" onmousedown="handleZoom(evt,'in')"/>
                <use id="zoomminus" xlink:href="#zoomMin" x="42" y="9" onmousedown="handleZoom(evt,'out')"/>
                <use id="reset" xlink:href="#resetDef" x="30" y="36" onmousedown="handleReset()"/>
                <g id="arrowUp" xlink:href="#dirArrow" transform="translate(30 24)" onmousedown="handlePan(0,-1)">
                  <use xlink:href="#rim" fill="#404040">
                        <set attributeName="fill" to="#808080" begin="arrowUp.mouseover" end="arrowUp.mouseout"/>
                  </use>
                  <path fill="none" stroke="white" stroke-width="1.5" d="M0,-3.0v7 M-2.5,-0.5L0,-3.0L2.5,-0.5"/>
                </g>
                <g id="arrowRight" xlink:href="#dirArrow" transform="rotate(90) translate(36 -43)" onmousedown="handlePan(1,0)">
                  <use xlink:href="#rim" fill="#404040">
                        <set attributeName="fill" to="#808080" begin="arrowRight.mouseover" end="arrowRight.mouseout"/>
                  </use>
                  <path fill="none" stroke="white" stroke-width="1.5" d="M0,-3.0v7 M-2.5,-0.5L0,-3.0L2.5,-0.5"/>
                </g>
                <g id="arrowDown" xlink:href="#dirArrow" transform="rotate(180) translate(-30 -48)" onmousedown="handlePan(0,1)">
                  <use xlink:href="#rim" fill="#404040">
                        <set attributeName="fill" to="#808080" begin="arrowDown.mouseover" end="arrowDown.mouseout"/>
                  </use>
                  <path fill="none" stroke="white" stroke-width="1.5" d="M0,-3.0v7 M-2.5,-0.5L0,-3.0L2.5,-0.5"/>
                </g>
                <g id="arrowLeft" xlink:href="#dirArrow" transform="rotate(270) translate(-36 17)" onmousedown="handlePan(-1,0)">
                  <use xlink:href="#rim" fill="#404040">
                        <set attributeName="fill" to="#808080" begin="arrowLeft.mouseover" end="arrowLeft.mouseout"/>
                  </use>
                  <path fill="none" stroke="white" stroke-width="1.5" d="M0,-3.0v7 M-2.5,-0.5L0,-3.0L2.5,-0.5"/>
                </g>
        </g>
        <svg viewBox="0 0 15 15" width="100%" height="30px" preserveAspectRatio="xMaxYMin meet">
         <g id="arrow_out" transform="scale(0.3 0.3)">
          <a xlink:href="node_8h__dep__incl_org.svg" target="_base">
           <rect id="button" ry="5" rx="5" y="6" x="6" height="38" width="38"
                fill="#f2f5e9" fill-opacity="0.5" stroke="#606060" stroke-width="1.0"/>
           <path id="arrow"
             d="M 11.500037,31.436501 C 11.940474,20.09759 22.043105,11.32322 32.158766,21.979434 L 37.068811,17.246167 C 37.068811,17.246167 37.088388,32 37.088388,32 L 22.160133,31.978069 C 22.160133,31.978069 26.997745,27.140456 26.997745,27.140456 C 18.528582,18.264221 13.291696,25.230495 11.500037,31.436501 z"
             style="fill:#404040;"/>
          </a>
         </g>
        </svg>
</svg>
