<?xml version="1.0" encoding="UTF-8" standalone="no"?>
<!DOCTYPE svg PUBLIC "-//W3C//DTD SVG 1.1//EN"
 "http://www.w3.org/Graphics/SVG/1.1/DTD/svg11.dtd">
<!-- Generated by graphviz version 2.40.1 (20161225.0304)
 -->
<!-- Title: src/node_wrap.h Pages: 1 -->
<svg width="428pt" height="82pt"
 viewBox="0.00 0.00 427.85 82.00" xmlns="http://www.w3.org/2000/svg" xmlns:xlink="http://www.w3.org/1999/xlink">
<g id="graph0" class="graph" transform="scale(1 1) rotate(0) translate(4 78)">
<title>src/node_wrap.h</title>
<polygon fill="#ffffff" stroke="transparent" points="-4,4 -4,-78 423.8545,-78 423.8545,4 -4,4"/>
<!-- Node1 -->
<g id="node1" class="node">
<title>Node1</title>
<polygon fill="#bfbfbf" stroke="#000000" points="174.5493,-55.5 174.5493,-73.5 264.48,-73.5 264.48,-55.5 174.5493,-55.5"/>
<text text-anchor="middle" x="219.5146" y="-61.5" font-family="Helvetica,sans-Serif" font-size="10.00" fill="#000000">src/node_wrap.h</text>
</g>
<!-- Node2 -->
<g id="node2" class="node">
<title>Node2</title>
<g id="a_node2"><a xlink:href="../../d7/d2c/pipe__wrap_8cc.html" target="_top" xlink:title="src/pipe_wrap.cc">
<polygon fill="#ffffff" stroke="#000000" points="0,-.5 0,-18.5 91.0293,-18.5 91.0293,-.5 0,-.5"/>
<text text-anchor="middle" x="45.5146" y="-6.5" font-family="Helvetica,sans-Serif" font-size="10.00" fill="#000000">src/pipe_wrap.cc</text>
</a>
</g>
</g>
<!-- Node1&#45;&gt;Node2 -->
<g id="edge1" class="edge">
<title>Node1&#45;&gt;Node2</title>
<path fill="none" stroke="#191970" d="M181.1964,-52.3879C148.8322,-42.1578 103.2132,-27.7381 74.0007,-18.5042"/>
<polygon fill="#191970" stroke="#191970" points="180.1922,-55.7411 190.7821,-55.4179 182.302,-49.0666 180.1922,-55.7411"/>
</g>
<!-- Node3 -->
<g id="node3" class="node">
<title>Node3</title>
<g id="a_node3"><a xlink:href="../../d8/d14/process__wrap_8cc.html" target="_top" xlink:title="src/process_wrap.cc">
<polygon fill="#ffffff" stroke="#000000" points="108.9458,-.5 108.9458,-18.5 216.0835,-18.5 216.0835,-.5 108.9458,-.5"/>
<text text-anchor="middle" x="162.5146" y="-6.5" font-family="Helvetica,sans-Serif" font-size="10.00" fill="#000000">src/process_wrap.cc</text>
</a>
</g>
</g>
<!-- Node1&#45;&gt;Node3 -->
<g id="edge2" class="edge">
<title>Node1&#45;&gt;Node3</title>
<path fill="none" stroke="#191970" d="M202.7247,-48.2992C192.7586,-38.6828 180.4799,-26.8349 172.1315,-18.7795"/>
<polygon fill="#191970" stroke="#191970" points="200.4757,-50.9928 210.1023,-55.4179 205.3363,-45.9555 200.4757,-50.9928"/>
</g>
<!-- Node4 -->
<g id="node4" class="node">
<title>Node4</title>
<g id="a_node4"><a xlink:href="../../d3/dfb/tcp__wrap_8cc.html" target="_top" xlink:title="src/tcp_wrap.cc">
<polygon fill="#ffffff" stroke="#000000" points="233.7832,-.5 233.7832,-18.5 319.2461,-18.5 319.2461,-.5 233.7832,-.5"/>
<text text-anchor="middle" x="276.5146" y="-6.5" font-family="Helvetica,sans-Serif" font-size="10.00" fill="#000000">src/tcp_wrap.cc</text>
</a>
</g>
</g>
<!-- Node1&#45;&gt;Node4 -->
<g id="edge3" class="edge">
<title>Node1&#45;&gt;Node4</title>
<path fill="none" stroke="#191970" d="M236.3046,-48.2992C246.2707,-38.6828 258.5494,-26.8349 266.8978,-18.7795"/>
<polygon fill="#191970" stroke="#191970" points="233.693,-45.9555 228.927,-55.4179 238.5536,-50.9928 233.693,-45.9555"/>
</g>
<!-- Node5 -->
<g id="node5" class="node">
<title>Node5</title>
<g id="a_node5"><a xlink:href="../../de/d6d/tty__wrap_8cc.html" target="_top" xlink:title="src/tty_wrap.cc">
<polygon fill="#ffffff" stroke="#000000" points="337.1748,-.5 337.1748,-18.5 419.8545,-18.5 419.8545,-.5 337.1748,-.5"/>
<text text-anchor="middle" x="378.5146" y="-6.5" font-family="Helvetica,sans-Serif" font-size="10.00" fill="#000000">src/tty_wrap.cc</text>
</a>
</g>
</g>
<!-- Node1&#45;&gt;Node5 -->
<g id="edge4" class="edge">
<title>Node1&#45;&gt;Node5</title>
<path fill="none" stroke="#191970" d="M255.2971,-52.1224C284.8214,-41.9096 326.0202,-27.6584 352.4843,-18.5042"/>
<polygon fill="#191970" stroke="#191970" points="254.0766,-48.841 245.7703,-55.4179 256.365,-55.4564 254.0766,-48.841"/>
</g>
</g>
</svg>
