<?xml version="1.0" encoding="UTF-8" standalone="no"?>
<!DOCTYPE svg PUBLIC "-//W3C//DTD SVG 1.1//EN"
 "http://www.w3.org/Graphics/SVG/1.1/DTD/svg11.dtd">
<!-- Generated by graphviz version 2.40.1 (20161225.0304)
 -->
<!-- Title: src/node_crypto_bio.h Pages: 1 -->
<svg width="344pt" height="82pt"
 viewBox="0.00 0.00 344.02 82.00" xmlns="http://www.w3.org/2000/svg" xmlns:xlink="http://www.w3.org/1999/xlink">
<g id="graph0" class="graph" transform="scale(1 1) rotate(0) translate(4 78)">
<title>src/node_crypto_bio.h</title>
<polygon fill="#ffffff" stroke="transparent" points="-4,4 -4,-78 340.0244,-78 340.0244,4 -4,4"/>
<!-- Node1 -->
<g id="node1" class="node">
<title>Node1</title>
<polygon fill="#bfbfbf" stroke="#000000" points="119.7661,-55.5 119.7661,-73.5 234.1597,-73.5 234.1597,-55.5 119.7661,-55.5"/>
<text text-anchor="middle" x="176.9629" y="-61.5" font-family="Helvetica,sans-Serif" font-size="10.00" fill="#000000">src/node_crypto_bio.h</text>
</g>
<!-- Node2 -->
<g id="node2" class="node">
<title>Node2</title>
<g id="a_node2"><a xlink:href="../../d5/d61/node__crypto_8cc.html" target="_top" xlink:title="src/node_crypto.cc">
<polygon fill="#ffffff" stroke="#000000" points="0,-.5 0,-18.5 99.9258,-18.5 99.9258,-.5 0,-.5"/>
<text text-anchor="middle" x="49.9629" y="-6.5" font-family="Helvetica,sans-Serif" font-size="10.00" fill="#000000">src/node_crypto.cc</text>
</a>
</g>
</g>
<!-- Node1&#45;&gt;Node2 -->
<g id="edge1" class="edge">
<title>Node1&#45;&gt;Node2</title>
<path fill="none" stroke="#191970" d="M146.5476,-51.328C123.1977,-41.2159 91.5663,-27.5172 70.9655,-18.5956"/>
<polygon fill="#191970" stroke="#191970" points="145.424,-54.6555 155.9914,-55.4179 148.2059,-48.232 145.424,-54.6555"/>
</g>
<!-- Node3 -->
<g id="node3" class="node">
<title>Node3</title>
<g id="a_node3"><a xlink:href="../../df/dea/node__crypto__bio_8cc.html" target="_top" xlink:title="src/node_crypto_bio.cc">
<polygon fill="#ffffff" stroke="#000000" points="117.5469,-.5 117.5469,-18.5 236.3789,-18.5 236.3789,-.5 117.5469,-.5"/>
<text text-anchor="middle" x="176.9629" y="-6.5" font-family="Helvetica,sans-Serif" font-size="10.00" fill="#000000">src/node_crypto_bio.cc</text>
</a>
</g>
</g>
<!-- Node1&#45;&gt;Node3 -->
<g id="edge2" class="edge">
<title>Node1&#45;&gt;Node3</title>
<path fill="none" stroke="#191970" d="M176.9629,-45.383C176.9629,-36.3738 176.9629,-26.0373 176.9629,-18.7795"/>
<polygon fill="#191970" stroke="#191970" points="173.463,-45.4178 176.9629,-55.4179 180.463,-45.4179 173.463,-45.4178"/>
</g>
<!-- Node4 -->
<g id="node4" class="node">
<title>Node4</title>
<g id="a_node4"><a xlink:href="../../da/de5/tls__wrap_8cc.html" target="_top" xlink:title="src/tls_wrap.cc">
<polygon fill="#ffffff" stroke="#000000" points="253.9014,-.5 253.9014,-18.5 336.0244,-18.5 336.0244,-.5 253.9014,-.5"/>
<text text-anchor="middle" x="294.9629" y="-6.5" font-family="Helvetica,sans-Serif" font-size="10.00" fill="#000000">src/tls_wrap.cc</text>
</a>
</g>
</g>
<!-- Node1&#45;&gt;Node4 -->
<g id="edge3" class="edge">
<title>Node1&#45;&gt;Node4</title>
<path fill="none" stroke="#191970" d="M205.5137,-51.1924C227.1801,-41.0937 256.3932,-27.4774 275.4486,-18.5956"/>
<polygon fill="#191970" stroke="#191970" points="204.0333,-48.0208 196.4482,-55.4179 206.9906,-54.3655 204.0333,-48.0208"/>
</g>
</g>
</svg>
