<?xml version="1.0" encoding="UTF-8" standalone="no"?>
<!DOCTYPE svg PUBLIC "-//W3C//DTD SVG 1.1//EN"
 "http://www.w3.org/Graphics/SVG/1.1/DTD/svg11.dtd">
<!-- Generated by graphviz version 2.40.1 (20161225.0304)
 -->
<!-- Title: src/node_stat_watcher.h Pages: 1 -->
<svg width="240pt" height="82pt"
 viewBox="0.00 0.00 240.16 82.00" xmlns="http://www.w3.org/2000/svg" xmlns:xlink="http://www.w3.org/1999/xlink">
<g id="graph0" class="graph" transform="scale(1 1) rotate(0) translate(4 78)">
<title>src/node_stat_watcher.h</title>
<polygon fill="#ffffff" stroke="transparent" points="-4,4 -4,-78 236.1597,-78 236.1597,4 -4,4"/>
<!-- Node1 -->
<g id="node1" class="node">
<title>Node1</title>
<polygon fill="#bfbfbf" stroke="#000000" points="42.5371,-55.5 42.5371,-73.5 166.9404,-73.5 166.9404,-55.5 42.5371,-55.5"/>
<text text-anchor="middle" x="104.7388" y="-61.5" font-family="Helvetica,sans-Serif" font-size="10.00" fill="#000000">src/node_stat_watcher.h</text>
</g>
<!-- Node2 -->
<g id="node2" class="node">
<title>Node2</title>
<g id="a_node2"><a xlink:href="../../dd/daa/node__file_8cc.html" target="_top" xlink:title="src/node_file.cc">
<polygon fill="#ffffff" stroke="#000000" points="0,-.5 0,-18.5 85.4775,-18.5 85.4775,-.5 0,-.5"/>
<text text-anchor="middle" x="42.7388" y="-6.5" font-family="Helvetica,sans-Serif" font-size="10.00" fill="#000000">src/node_file.cc</text>
</a>
</g>
</g>
<!-- Node1&#45;&gt;Node2 -->
<g id="edge1" class="edge">
<title>Node1&#45;&gt;Node2</title>
<path fill="none" stroke="#191970" d="M86.7973,-48.5841C75.9006,-38.9177 62.3699,-26.9147 53.1992,-18.7795"/>
<polygon fill="#191970" stroke="#191970" points="84.6973,-51.4 94.5007,-55.4179 89.3426,-46.1634 84.6973,-51.4"/>
</g>
<!-- Node3 -->
<g id="node3" class="node">
<title>Node3</title>
<g id="a_node3"><a xlink:href="../../dc/de6/node__stat__watcher_8cc.html" target="_top" xlink:title="src/node_stat_watcher.cc">
<polygon fill="#ffffff" stroke="#000000" points="103.3179,-.5 103.3179,-18.5 232.1597,-18.5 232.1597,-.5 103.3179,-.5"/>
<text text-anchor="middle" x="167.7388" y="-6.5" font-family="Helvetica,sans-Serif" font-size="10.00" fill="#000000">src/node_stat_watcher.cc</text>
</a>
</g>
</g>
<!-- Node1&#45;&gt;Node3 -->
<g id="edge2" class="edge">
<title>Node1&#45;&gt;Node3</title>
<path fill="none" stroke="#191970" d="M122.9697,-48.5841C134.0421,-38.9177 147.7911,-26.9147 157.1096,-18.7795"/>
<polygon fill="#191970" stroke="#191970" points="120.3733,-46.2046 115.1419,-55.4179 124.9769,-51.4779 120.3733,-46.2046"/>
</g>
</g>
</svg>
