<?xml version="1.0" encoding="UTF-8" standalone="no"?>
<!DOCTYPE svg PUBLIC "-//W3C//DTD SVG 1.1//EN"
 "http://www.w3.org/Graphics/SVG/1.1/DTD/svg11.dtd">
<!-- Generated by graphviz version 2.40.1 (20161225.0304)
 -->
<!-- Title: src/node_dtrace.cc Pages: 1 -->
<svg width="339pt" height="82pt"
 viewBox="0.00 0.00 339.37 82.00" xmlns="http://www.w3.org/2000/svg" xmlns:xlink="http://www.w3.org/1999/xlink">
<g id="graph0" class="graph" transform="scale(1 1) rotate(0) translate(4 78)">
<title>src/node_dtrace.cc</title>
<polygon fill="#ffffff" stroke="transparent" points="-4,4 -4,-78 335.3667,-78 335.3667,4 -4,4"/>
<!-- Node0 -->
<g id="node1" class="node">
<title>Node0</title>
<polygon fill="#bfbfbf" stroke="#000000" points="132.7266,-55.5 132.7266,-73.5 233.2139,-73.5 233.2139,-55.5 132.7266,-55.5"/>
<text text-anchor="middle" x="182.9702" y="-61.5" font-family="Helvetica,sans-Serif" font-size="10.00" fill="#000000">src/node_dtrace.cc</text>
</g>
<!-- Node1 -->
<g id="node2" class="node">
<title>Node1</title>
<g id="a_node2"><a xlink:href="../../d1/d34/node__dtrace_8h.html" target="_top" xlink:title="node_dtrace.h">
<polygon fill="#ffffff" stroke="#000000" points="0,-.5 0,-18.5 79.9404,-18.5 79.9404,-.5 0,-.5"/>
<text text-anchor="middle" x="39.9702" y="-6.5" font-family="Helvetica,sans-Serif" font-size="10.00" fill="#000000">node_dtrace.h</text>
</a>
</g>
</g>
<!-- Node0&#45;&gt;Node1 -->
<g id="edge1" class="edge">
<title>Node0&#45;&gt;Node1</title>
<path fill="none" stroke="#191970" d="M159.3567,-55.4179C135.8625,-46.3817 99.6019,-32.4353 73.2054,-22.2828"/>
<polygon fill="#191970" stroke="#191970" points="74.2087,-18.9188 63.6188,-18.5956 71.6959,-25.4522 74.2087,-18.9188"/>
</g>
<!-- Node2 -->
<g id="node3" class="node">
<title>Node2</title>
<g id="a_node3"><a xlink:href="../../d5/d81/env_8h.html" target="_top" xlink:title="env.h">
<polygon fill="#ffffff" stroke="#000000" points="98.1074,-.5 98.1074,-18.5 137.833,-18.5 137.833,-.5 98.1074,-.5"/>
<text text-anchor="middle" x="117.9702" y="-6.5" font-family="Helvetica,sans-Serif" font-size="10.00" fill="#000000">env.h</text>
</a>
</g>
</g>
<!-- Node0&#45;&gt;Node2 -->
<g id="edge2" class="edge">
<title>Node0&#45;&gt;Node2</title>
<path fill="none" stroke="#191970" d="M172.2368,-55.4179C162.6036,-47.2667 148.2486,-35.1201 136.7221,-25.3669"/>
<polygon fill="#191970" stroke="#191970" points="138.8315,-22.5671 128.9368,-18.7795 134.3099,-27.9108 138.8315,-22.5671"/>
</g>
<!-- Node3 -->
<g id="node4" class="node">
<title>Node3</title>
<g id="a_node4"><a xlink:href="../../d9/d50/env-inl_8h.html" target="_top" xlink:title="env&#45;inl.h">
<polygon fill="#ffffff" stroke="#000000" points="156.0713,-.5 156.0713,-18.5 209.8691,-18.5 209.8691,-.5 156.0713,-.5"/>
<text text-anchor="middle" x="182.9702" y="-6.5" font-family="Helvetica,sans-Serif" font-size="10.00" fill="#000000">env&#45;inl.h</text>
</a>
</g>
</g>
<!-- Node0&#45;&gt;Node3 -->
<g id="edge3" class="edge">
<title>Node0&#45;&gt;Node3</title>
<path fill="none" stroke="#191970" d="M182.9702,-55.4179C182.9702,-48.2164 182.9702,-37.8962 182.9702,-28.8632"/>
<polygon fill="#191970" stroke="#191970" points="186.4703,-28.7794 182.9702,-18.7795 179.4703,-28.7795 186.4703,-28.7794"/>
</g>
<!-- Node4 -->
<g id="node5" class="node">
<title>Node4</title>
<g id="a_node5"><a xlink:href="../../d8/d3c/util_8h.html" target="_top" xlink:title="util.h">
<polygon fill="#ffffff" stroke="#000000" points="227.4087,-.5 227.4087,-18.5 264.5317,-18.5 264.5317,-.5 227.4087,-.5"/>
<text text-anchor="middle" x="245.9702" y="-6.5" font-family="Helvetica,sans-Serif" font-size="10.00" fill="#000000">util.h</text>
</a>
</g>
</g>
<!-- Node0&#45;&gt;Node4 -->
<g id="edge4" class="edge">
<title>Node0&#45;&gt;Node4</title>
<path fill="none" stroke="#191970" d="M193.3734,-55.4179C202.7102,-47.2667 216.6235,-35.1201 227.7954,-25.3669"/>
<polygon fill="#191970" stroke="#191970" points="230.1096,-27.9927 235.341,-18.7795 225.506,-22.7194 230.1096,-27.9927"/>
</g>
<!-- Node5 -->
<g id="node6" class="node">
<title>Node5</title>
<polygon fill="#ffffff" stroke="#bfbfbf" points="282.5737,-.5 282.5737,-18.5 331.3667,-18.5 331.3667,-.5 282.5737,-.5"/>
<text text-anchor="middle" x="306.9702" y="-6.5" font-family="Helvetica,sans-Serif" font-size="10.00" fill="#000000">string.h</text>
</g>
<!-- Node0&#45;&gt;Node5 -->
<g id="edge5" class="edge">
<title>Node0&#45;&gt;Node5</title>
<path fill="none" stroke="#191970" d="M203.4463,-55.4179C223.5496,-46.5011 254.4324,-32.803 277.2389,-22.6873"/>
<polygon fill="#191970" stroke="#191970" points="278.7417,-25.8496 286.4637,-18.5956 275.9034,-19.4508 278.7417,-25.8496"/>
</g>
</g>
</svg>
