<?xml version="1.0" encoding="UTF-8" standalone="no"?>
<!DOCTYPE svg PUBLIC "-//W3C//DTD SVG 1.1//EN"
 "http://www.w3.org/Graphics/SVG/1.1/DTD/svg11.dtd">
<!-- Generated by graphviz version 2.40.1 (20161225.0304)
 -->
<!-- Title: src/node_stat_watcher.cc Pages: 1 -->
<svg width="702pt" height="82pt"
 viewBox="0.00 0.00 701.99 82.00" xmlns="http://www.w3.org/2000/svg" xmlns:xlink="http://www.w3.org/1999/xlink">
<g id="graph0" class="graph" transform="scale(1 1) rotate(0) translate(4 78)">
<title>src/node_stat_watcher.cc</title>
<polygon fill="#ffffff" stroke="transparent" points="-4,4 -4,-78 697.9897,-78 697.9897,4 -4,4"/>
<!-- Node0 -->
<g id="node1" class="node">
<title>Node0</title>
<polygon fill="#bfbfbf" stroke="#000000" points="346.7266,-55.5 346.7266,-73.5 475.5684,-73.5 475.5684,-55.5 346.7266,-55.5"/>
<text text-anchor="middle" x="411.1475" y="-61.5" font-family="Helvetica,sans-Serif" font-size="10.00" fill="#000000">src/node_stat_watcher.cc</text>
</g>
<!-- Node1 -->
<g id="node2" class="node">
<title>Node1</title>
<g id="a_node2"><a xlink:href="../../da/db0/node__stat__watcher_8h.html" target="_top" xlink:title="node_stat_watcher.h">
<polygon fill="#ffffff" stroke="#000000" points="0,-.5 0,-18.5 108.2949,-18.5 108.2949,-.5 0,-.5"/>
<text text-anchor="middle" x="54.1475" y="-6.5" font-family="Helvetica,sans-Serif" font-size="10.00" fill="#000000">node_stat_watcher.h</text>
</a>
</g>
</g>
<!-- Node0&#45;&gt;Node1 -->
<g id="edge1" class="edge">
<title>Node0&#45;&gt;Node1</title>
<path fill="none" stroke="#191970" d="M352.5959,-55.4795C288.1533,-45.5513 184.8898,-29.6424 118.2973,-19.383"/>
<polygon fill="#191970" stroke="#191970" points="118.7583,-15.9128 108.3419,-17.8493 117.6924,-22.8312 118.7583,-15.9128"/>
</g>
<!-- Node2 -->
<g id="node3" class="node">
<title>Node2</title>
<g id="a_node3"><a xlink:href="../../d4/d56/async-wrap_8h.html" target="_top" xlink:title="async&#45;wrap.h">
<polygon fill="#ffffff" stroke="#000000" points="126.4136,-.5 126.4136,-18.5 201.8813,-18.5 201.8813,-.5 126.4136,-.5"/>
<text text-anchor="middle" x="164.1475" y="-6.5" font-family="Helvetica,sans-Serif" font-size="10.00" fill="#000000">async&#45;wrap.h</text>
</a>
</g>
</g>
<!-- Node0&#45;&gt;Node2 -->
<g id="edge2" class="edge">
<title>Node0&#45;&gt;Node2</title>
<path fill="none" stroke="#191970" d="M370.637,-55.4795C327.1575,-45.7978 258.1355,-30.4285 212.0085,-20.1573"/>
<polygon fill="#191970" stroke="#191970" points="212.7654,-16.7402 202.2437,-17.983 211.2439,-23.5729 212.7654,-16.7402"/>
</g>
<!-- Node3 -->
<g id="node4" class="node">
<title>Node3</title>
<g id="a_node4"><a xlink:href="../../d5/d30/async-wrap-inl_8h.html" target="_top" xlink:title="async&#45;wrap&#45;inl.h">
<polygon fill="#ffffff" stroke="#000000" points="219.7461,-.5 219.7461,-18.5 308.5488,-18.5 308.5488,-.5 219.7461,-.5"/>
<text text-anchor="middle" x="264.1475" y="-6.5" font-family="Helvetica,sans-Serif" font-size="10.00" fill="#000000">async&#45;wrap&#45;inl.h</text>
</a>
</g>
</g>
<!-- Node0&#45;&gt;Node3 -->
<g id="edge3" class="edge">
<title>Node0&#45;&gt;Node3</title>
<path fill="none" stroke="#191970" d="M386.8734,-55.4179C362.6157,-46.3419 325.1185,-32.3123 297.9543,-22.1488"/>
<polygon fill="#191970" stroke="#191970" points="299.05,-18.8219 288.4576,-18.5956 296.597,-25.378 299.05,-18.8219"/>
</g>
<!-- Node4 -->
<g id="node5" class="node">
<title>Node4</title>
<g id="a_node5"><a xlink:href="../../d5/d81/env_8h.html" target="_top" xlink:title="env.h">
<polygon fill="#ffffff" stroke="#000000" points="326.2847,-.5 326.2847,-18.5 366.0103,-18.5 366.0103,-.5 326.2847,-.5"/>
<text text-anchor="middle" x="346.1475" y="-6.5" font-family="Helvetica,sans-Serif" font-size="10.00" fill="#000000">env.h</text>
</a>
</g>
</g>
<!-- Node0&#45;&gt;Node4 -->
<g id="edge4" class="edge">
<title>Node0&#45;&gt;Node4</title>
<path fill="none" stroke="#191970" d="M400.414,-55.4179C390.7808,-47.2667 376.4258,-35.1201 364.8993,-25.3669"/>
<polygon fill="#191970" stroke="#191970" points="367.0088,-22.5671 357.1141,-18.7795 362.4872,-27.9108 367.0088,-22.5671"/>
</g>
<!-- Node5 -->
<g id="node6" class="node">
<title>Node5</title>
<g id="a_node6"><a xlink:href="../../d9/d50/env-inl_8h.html" target="_top" xlink:title="env&#45;inl.h">
<polygon fill="#ffffff" stroke="#000000" points="384.2485,-.5 384.2485,-18.5 438.0464,-18.5 438.0464,-.5 384.2485,-.5"/>
<text text-anchor="middle" x="411.1475" y="-6.5" font-family="Helvetica,sans-Serif" font-size="10.00" fill="#000000">env&#45;inl.h</text>
</a>
</g>
</g>
<!-- Node0&#45;&gt;Node5 -->
<g id="edge5" class="edge">
<title>Node0&#45;&gt;Node5</title>
<path fill="none" stroke="#191970" d="M411.1475,-55.4179C411.1475,-48.2164 411.1475,-37.8962 411.1475,-28.8632"/>
<polygon fill="#191970" stroke="#191970" points="414.6476,-28.7794 411.1475,-18.7795 407.6476,-28.7795 414.6476,-28.7794"/>
</g>
<!-- Node6 -->
<g id="node7" class="node">
<title>Node6</title>
<g id="a_node7"><a xlink:href="../../d8/d3c/util_8h.html" target="_top" xlink:title="util.h">
<polygon fill="#ffffff" stroke="#000000" points="455.5859,-.5 455.5859,-18.5 492.709,-18.5 492.709,-.5 455.5859,-.5"/>
<text text-anchor="middle" x="474.1475" y="-6.5" font-family="Helvetica,sans-Serif" font-size="10.00" fill="#000000">util.h</text>
</a>
</g>
</g>
<!-- Node0&#45;&gt;Node6 -->
<g id="edge6" class="edge">
<title>Node0&#45;&gt;Node6</title>
<path fill="none" stroke="#191970" d="M421.5506,-55.4179C430.8874,-47.2667 444.8008,-35.1201 455.9726,-25.3669"/>
<polygon fill="#191970" stroke="#191970" points="458.2869,-27.9927 463.5183,-18.7795 453.6833,-22.7194 458.2869,-27.9927"/>
</g>
<!-- Node7 -->
<g id="node8" class="node">
<title>Node7</title>
<g id="a_node8"><a xlink:href="../../d5/d8c/util-inl_8h.html" target="_top" xlink:title="util&#45;inl.h">
<polygon fill="#ffffff" stroke="#000000" points="510.9185,-.5 510.9185,-18.5 561.3765,-18.5 561.3765,-.5 510.9185,-.5"/>
<text text-anchor="middle" x="536.1475" y="-6.5" font-family="Helvetica,sans-Serif" font-size="10.00" fill="#000000">util&#45;inl.h</text>
</a>
</g>
</g>
<!-- Node0&#45;&gt;Node7 -->
<g id="edge7" class="edge">
<title>Node0&#45;&gt;Node7</title>
<path fill="none" stroke="#191970" d="M431.7887,-55.4179C452.0541,-46.5011 483.186,-32.803 506.1764,-22.6873"/>
<polygon fill="#191970" stroke="#191970" points="507.732,-25.8267 515.4756,-18.5956 504.9128,-19.4195 507.732,-25.8267"/>
</g>
<!-- Node8 -->
<g id="node9" class="node">
<title>Node8</title>
<polygon fill="#ffffff" stroke="#bfbfbf" points="579.751,-.5 579.751,-18.5 628.5439,-18.5 628.5439,-.5 579.751,-.5"/>
<text text-anchor="middle" x="604.1475" y="-6.5" font-family="Helvetica,sans-Serif" font-size="10.00" fill="#000000">string.h</text>
</g>
<!-- Node0&#45;&gt;Node8 -->
<g id="edge8" class="edge">
<title>Node0&#45;&gt;Node8</title>
<path fill="none" stroke="#191970" d="M443.0175,-55.4179C477.9032,-45.4763 533.6446,-29.5915 569.5678,-19.3543"/>
<polygon fill="#191970" stroke="#191970" points="570.9297,-22.6056 579.5876,-16.4989 569.0112,-15.8736 570.9297,-22.6056"/>
</g>
<!-- Node9 -->
<g id="node10" class="node">
<title>Node9</title>
<polygon fill="#ffffff" stroke="#bfbfbf" points="646.3052,-.5 646.3052,-18.5 693.9897,-18.5 693.9897,-.5 646.3052,-.5"/>
<text text-anchor="middle" x="670.1475" y="-6.5" font-family="Helvetica,sans-Serif" font-size="10.00" fill="#000000">stdlib.h</text>
</g>
<!-- Node0&#45;&gt;Node9 -->
<g id="edge9" class="edge">
<title>Node0&#45;&gt;Node9</title>
<path fill="none" stroke="#191970" d="M462.123,-55.467C505.8557,-47.4403 570.7468,-34.8748 636.0072,-19.1305"/>
<polygon fill="#191970" stroke="#191970" points="637.1709,-22.4494 646.0576,-16.6808 635.5132,-15.6485 637.1709,-22.4494"/>
</g>
</g>
</svg>
