<?xml version="1.0" encoding="UTF-8" standalone="no"?>
<!DOCTYPE svg PUBLIC "-//W3C//DTD SVG 1.1//EN"
 "http://www.w3.org/Graphics/SVG/1.1/DTD/svg11.dtd">
<!-- Generated by graphviz version 2.40.1 (20161225.0304)
 -->
<!-- Title: src/connect_wrap.cc Pages: 1 -->
<svg width="525pt" height="82pt"
 viewBox="0.00 0.00 524.53 82.00" xmlns="http://www.w3.org/2000/svg" xmlns:xlink="http://www.w3.org/1999/xlink">
<g id="graph0" class="graph" transform="scale(1 1) rotate(0) translate(4 78)">
<title>src/connect_wrap.cc</title>
<polygon fill="#ffffff" stroke="transparent" points="-4,4 -4,-78 520.5293,-78 520.5293,4 -4,4"/>
<!-- Node0 -->
<g id="node1" class="node">
<title>Node0</title>
<polygon fill="#bfbfbf" stroke="#000000" points="212.7266,-55.5 212.7266,-73.5 319.874,-73.5 319.874,-55.5 212.7266,-55.5"/>
<text text-anchor="middle" x="266.3003" y="-61.5" font-family="Helvetica,sans-Serif" font-size="10.00" fill="#000000">src/connect_wrap.cc</text>
</g>
<!-- Node1 -->
<g id="node2" class="node">
<title>Node1</title>
<g id="a_node2"><a xlink:href="../../d5/d01/connect__wrap_8h.html" target="_top" xlink:title="connect_wrap.h">
<polygon fill="#ffffff" stroke="#000000" points="0,-.5 0,-18.5 86.6006,-18.5 86.6006,-.5 0,-.5"/>
<text text-anchor="middle" x="43.3003" y="-6.5" font-family="Helvetica,sans-Serif" font-size="10.00" fill="#000000">connect_wrap.h</text>
</a>
</g>
</g>
<!-- Node0&#45;&gt;Node1 -->
<g id="edge1" class="edge">
<title>Node0&#45;&gt;Node1</title>
<path fill="none" stroke="#191970" d="M229.4764,-55.4179C191.1911,-45.9753 131.1664,-31.171 89.6718,-20.9369"/>
<polygon fill="#191970" stroke="#191970" points="90.3555,-17.5007 79.8083,-18.5042 88.6792,-24.2971 90.3555,-17.5007"/>
</g>
<!-- Node2 -->
<g id="node3" class="node">
<title>Node2</title>
<g id="a_node3"><a xlink:href="../../d5/d81/env_8h.html" target="_top" xlink:title="env.h">
<polygon fill="#ffffff" stroke="#000000" points="104.4375,-.5 104.4375,-18.5 144.1631,-18.5 144.1631,-.5 104.4375,-.5"/>
<text text-anchor="middle" x="124.3003" y="-6.5" font-family="Helvetica,sans-Serif" font-size="10.00" fill="#000000">env.h</text>
</a>
</g>
</g>
<!-- Node0&#45;&gt;Node2 -->
<g id="edge2" class="edge">
<title>Node0&#45;&gt;Node2</title>
<path fill="none" stroke="#191970" d="M242.8519,-55.4179C218.5441,-46.0029 180.4742,-31.2575 154.0602,-21.0267"/>
<polygon fill="#191970" stroke="#191970" points="155.1497,-17.6954 144.5606,-17.3473 152.6214,-24.2229 155.1497,-17.6954"/>
</g>
<!-- Node3 -->
<g id="node4" class="node">
<title>Node3</title>
<g id="a_node4"><a xlink:href="../../d9/d50/env-inl_8h.html" target="_top" xlink:title="env&#45;inl.h">
<polygon fill="#ffffff" stroke="#000000" points="162.4014,-.5 162.4014,-18.5 216.1992,-18.5 216.1992,-.5 162.4014,-.5"/>
<text text-anchor="middle" x="189.3003" y="-6.5" font-family="Helvetica,sans-Serif" font-size="10.00" fill="#000000">env&#45;inl.h</text>
</a>
</g>
</g>
<!-- Node0&#45;&gt;Node3 -->
<g id="edge3" class="edge">
<title>Node0&#45;&gt;Node3</title>
<path fill="none" stroke="#191970" d="M253.5853,-55.4179C241.882,-47.0584 224.2956,-34.4966 210.4738,-24.6239"/>
<polygon fill="#191970" stroke="#191970" points="212.2059,-21.56 202.0342,-18.5956 208.1372,-27.2561 212.2059,-21.56"/>
</g>
<!-- Node4 -->
<g id="node5" class="node">
<title>Node4</title>
<g id="a_node5"><a xlink:href="../../d6/dae/req-wrap_8h.html" target="_top" xlink:title="req&#45;wrap.h">
<polygon fill="#ffffff" stroke="#000000" points="234.4014,-.5 234.4014,-18.5 298.1992,-18.5 298.1992,-.5 234.4014,-.5"/>
<text text-anchor="middle" x="266.3003" y="-6.5" font-family="Helvetica,sans-Serif" font-size="10.00" fill="#000000">req&#45;wrap.h</text>
</a>
</g>
</g>
<!-- Node0&#45;&gt;Node4 -->
<g id="edge4" class="edge">
<title>Node0&#45;&gt;Node4</title>
<path fill="none" stroke="#191970" d="M266.3003,-55.4179C266.3003,-48.2164 266.3003,-37.8962 266.3003,-28.8632"/>
<polygon fill="#191970" stroke="#191970" points="269.8004,-28.7794 266.3003,-18.7795 262.8004,-28.7795 269.8004,-28.7794"/>
</g>
<!-- Node5 -->
<g id="node6" class="node">
<title>Node5</title>
<g id="a_node6"><a xlink:href="../../dd/d0b/req-wrap-inl_8h.html" target="_top" xlink:title="req&#45;wrap&#45;inl.h">
<polygon fill="#ffffff" stroke="#000000" points="315.7339,-.5 315.7339,-18.5 392.8667,-18.5 392.8667,-.5 315.7339,-.5"/>
<text text-anchor="middle" x="354.3003" y="-6.5" font-family="Helvetica,sans-Serif" font-size="10.00" fill="#000000">req&#45;wrap&#45;inl.h</text>
</a>
</g>
</g>
<!-- Node0&#45;&gt;Node5 -->
<g id="edge5" class="edge">
<title>Node0&#45;&gt;Node5</title>
<path fill="none" stroke="#191970" d="M280.8317,-55.4179C294.4617,-46.8992 315.0738,-34.0166 330.9999,-24.0627"/>
<polygon fill="#191970" stroke="#191970" points="333.1223,-26.8637 339.7473,-18.5956 329.4123,-20.9277 333.1223,-26.8637"/>
</g>
<!-- Node6 -->
<g id="node7" class="node">
<title>Node6</title>
<g id="a_node7"><a xlink:href="../../d8/d3c/util_8h.html" target="_top" xlink:title="util.h">
<polygon fill="#ffffff" stroke="#000000" points="410.7388,-.5 410.7388,-18.5 447.8618,-18.5 447.8618,-.5 410.7388,-.5"/>
<text text-anchor="middle" x="429.3003" y="-6.5" font-family="Helvetica,sans-Serif" font-size="10.00" fill="#000000">util.h</text>
</a>
</g>
</g>
<!-- Node0&#45;&gt;Node6 -->
<g id="edge6" class="edge">
<title>Node0&#45;&gt;Node6</title>
<path fill="none" stroke="#191970" d="M293.6939,-55.4733C319.256,-47.02 358.6943,-33.9013 401.0636,-19.3933"/>
<polygon fill="#191970" stroke="#191970" points="402.3996,-22.6352 410.7223,-16.0791 400.1277,-16.0142 402.3996,-22.6352"/>
</g>
<!-- Node7 -->
<g id="node8" class="node">
<title>Node7</title>
<g id="a_node8"><a xlink:href="../../d5/d8c/util-inl_8h.html" target="_top" xlink:title="util&#45;inl.h">
<polygon fill="#ffffff" stroke="#000000" points="466.0713,-.5 466.0713,-18.5 516.5293,-18.5 516.5293,-.5 466.0713,-.5"/>
<text text-anchor="middle" x="491.3003" y="-6.5" font-family="Helvetica,sans-Serif" font-size="10.00" fill="#000000">util&#45;inl.h</text>
</a>
</g>
</g>
<!-- Node0&#45;&gt;Node7 -->
<g id="edge7" class="edge">
<title>Node0&#45;&gt;Node7</title>
<path fill="none" stroke="#191970" d="M306.2856,-55.4478C342.889,-47.0558 398.791,-33.9761 455.8062,-19.3229"/>
<polygon fill="#191970" stroke="#191970" points="456.9024,-22.6546 465.7091,-16.7645 455.1515,-15.8772 456.9024,-22.6546"/>
</g>
</g>
</svg>
