<?xml version="1.0" encoding="UTF-8" standalone="no"?>
<!DOCTYPE svg PUBLIC "-//W3C//DTD SVG 1.1//EN"
 "http://www.w3.org/Graphics/SVG/1.1/DTD/svg11.dtd">
<!-- Generated by graphviz version 2.40.1 (20161225.0304)
 -->
<!-- Title: src/node_win32_etw_provider&#45;inl.h Pages: 1 -->
<svg width="115pt" height="102pt"
 viewBox="0.00 0.00 115.17 102.00" xmlns="http://www.w3.org/2000/svg" xmlns:xlink="http://www.w3.org/1999/xlink">
<g id="graph0" class="graph" transform="scale(1 1) rotate(0) translate(4 98)">
<title>src/node_win32_etw_provider&#45;inl.h</title>
<polygon fill="#ffffff" stroke="transparent" points="-4,4 -4,-98 111.167,-98 111.167,4 -4,4"/>
<!-- Node1 -->
<g id="node1" class="node">
<title>Node1</title>
<polygon fill="#bfbfbf" stroke="#000000" points="0,-65.5 0,-93.5 107.167,-93.5 107.167,-65.5 0,-65.5"/>
<text text-anchor="start" x="8" y="-81.5" font-family="Helvetica,sans-Serif" font-size="10.00" fill="#000000">src/node_win32_etw</text>
<text text-anchor="middle" x="53.5835" y="-71.5" font-family="Helvetica,sans-Serif" font-size="10.00" fill="#000000">_provider&#45;inl.h</text>
</g>
<!-- Node2 -->
<g id="node2" class="node">
<title>Node2</title>
<g id="a_node2"><a xlink:href="../../da/d25/node__win32__etw__provider_8cc.html" target="_top" xlink:title="src/node_win32_etw\l_provider.cc">
<polygon fill="#ffffff" stroke="#000000" points="0,-.5 0,-28.5 107.167,-28.5 107.167,-.5 0,-.5"/>
<text text-anchor="start" x="8" y="-16.5" font-family="Helvetica,sans-Serif" font-size="10.00" fill="#000000">src/node_win32_etw</text>
<text text-anchor="middle" x="53.5835" y="-6.5" font-family="Helvetica,sans-Serif" font-size="10.00" fill="#000000">_provider.cc</text>
</a>
</g>
</g>
<!-- Node1&#45;&gt;Node2 -->
<g id="edge1" class="edge">
<title>Node1&#45;&gt;Node2</title>
<path fill="none" stroke="#191970" d="M53.5835,-55.1081C53.5835,-46.1539 53.5835,-36.3227 53.5835,-28.5765"/>
<polygon fill="#191970" stroke="#191970" points="50.0836,-55.3959 53.5835,-65.396 57.0836,-55.396 50.0836,-55.3959"/>
</g>
</g>
</svg>
