<?xml version="1.0" encoding="UTF-8" standalone="no"?>
<!DOCTYPE svg PUBLIC "-//W3C//DTD SVG 1.1//EN"
 "http://www.w3.org/Graphics/SVG/1.1/DTD/svg11.dtd">
<!-- Generated by graphviz version 2.40.1 (20161225.0304)
 -->
<!-- Title: url_host Pages: 1 -->
<svg width="89pt" height="167pt"
 viewBox="0.00 0.00 89.04 167.00" xmlns="http://www.w3.org/2000/svg" xmlns:xlink="http://www.w3.org/1999/xlink">
<g id="graph0" class="graph" transform="scale(1 1) rotate(0) translate(4 163)">
<title>url_host</title>
<polygon fill="#ffffff" stroke="transparent" points="-4,4 -4,-163 85.0439,-163 85.0439,4 -4,4"/>
<!-- Node1 -->
<g id="node1" class="node">
<title>Node1</title>
<polygon fill="#bfbfbf" stroke="#000000" points="14.7339,-.5 14.7339,-18.5 66.3101,-18.5 66.3101,-.5 14.7339,-.5"/>
<text text-anchor="middle" x="40.522" y="-6.5" font-family="Helvetica,sans-Serif" font-size="10.00" fill="#000000">url_host</text>
</g>
<!-- Node2 -->
<g id="node2" class="node">
<title>Node2</title>
<g id="a_node2"><a xlink:href="../../d9/d50/unionnode_1_1url_1_1url__host__value.html" target="_top" xlink:title="url_host_value">
<polygon fill="#ffffff" stroke="#000000" points="0,-65.5 0,-83.5 81.0439,-83.5 81.0439,-65.5 0,-65.5"/>
<text text-anchor="middle" x="40.522" y="-71.5" font-family="Helvetica,sans-Serif" font-size="10.00" fill="#000000">url_host_value</text>
</a>
</g>
</g>
<!-- Node2&#45;&gt;Node1 -->
<g id="edge1" class="edge">
<title>Node2&#45;&gt;Node1</title>
<path fill="none" stroke="#9a32cd" stroke-dasharray="5,2" d="M40.522,-55.1265C40.522,-43.1522 40.522,-28.3205 40.522,-18.8821"/>
<polygon fill="#9a32cd" stroke="#9a32cd" points="37.0221,-55.462 40.522,-65.462 44.0221,-55.4621 37.0221,-55.462"/>
<text text-anchor="middle" x="53.8643" y="-39" font-family="Helvetica,sans-Serif" font-size="10.00" fill="#000000"> value</text>
</g>
<!-- Node3 -->
<g id="node3" class="node">
<title>Node3</title>
<polygon fill="#ffffff" stroke="#bfbfbf" points="20.2954,-140.5 20.2954,-158.5 60.7485,-158.5 60.7485,-140.5 20.2954,-140.5"/>
<text text-anchor="middle" x="40.522" y="-146.5" font-family="Helvetica,sans-Serif" font-size="10.00" fill="#000000">string</text>
</g>
<!-- Node3&#45;&gt;Node2 -->
<g id="edge2" class="edge">
<title>Node3&#45;&gt;Node2</title>
<path fill="none" stroke="#9a32cd" stroke-dasharray="5,2" d="M40.522,-130.1079C40.522,-115.2042 40.522,-95.2791 40.522,-83.7717"/>
<polygon fill="#9a32cd" stroke="#9a32cd" points="37.0221,-130.3035 40.522,-140.3035 44.0221,-130.3036 37.0221,-130.3035"/>
<text text-anchor="middle" x="58.5957" y="-114" font-family="Helvetica,sans-Serif" font-size="10.00" fill="#000000"> opaque</text>
<text text-anchor="middle" x="58.5957" y="-104" font-family="Helvetica,sans-Serif" font-size="10.00" fill="#000000">domain</text>
</g>
</g>
</svg>
