<?xml version="1.0" encoding="UTF-8" standalone="no"?>
<!DOCTYPE svg PUBLIC "-//W3C//DTD SVG 1.1//EN"
 "http://www.w3.org/Graphics/SVG/1.1/DTD/svg11.dtd">
<!-- Generated by graphviz version 2.40.1 (20161225.0304)
 -->
<!-- Title: src/node_buffer.h Pages: 1 -->
<svg width="365pt" height="137pt"
 viewBox="0.00 0.00 365.46 137.00" xmlns="http://www.w3.org/2000/svg" xmlns:xlink="http://www.w3.org/1999/xlink">
<g id="graph0" class="graph" transform="scale(1 1) rotate(0) translate(4 133)">
<title>src/node_buffer.h</title>
<polygon fill="#ffffff" stroke="transparent" points="-4,4 -4,-133 361.4604,-133 361.4604,4 -4,4"/>
<!-- Node0 -->
<g id="node1" class="node">
<title>Node0</title>
<polygon fill="#bfbfbf" stroke="#000000" points="52.8984,-110.5 52.8984,-128.5 146.0029,-128.5 146.0029,-110.5 52.8984,-110.5"/>
<text text-anchor="middle" x="99.4507" y="-116.5" font-family="Helvetica,sans-Serif" font-size="10.00" fill="#000000">src/node_buffer.h</text>
</g>
<!-- Node1 -->
<g id="node2" class="node">
<title>Node1</title>
<g id="a_node2"><a xlink:href="../../d1/d77/node_8h.html" target="_top" xlink:title="node.h">
<polygon fill="#ffffff" stroke="#000000" points="115.1577,-55.5 115.1577,-73.5 161.7437,-73.5 161.7437,-55.5 115.1577,-55.5"/>
<text text-anchor="middle" x="138.4507" y="-61.5" font-family="Helvetica,sans-Serif" font-size="10.00" fill="#000000">node.h</text>
</a>
</g>
</g>
<!-- Node0&#45;&gt;Node1 -->
<g id="edge1" class="edge">
<title>Node0&#45;&gt;Node1</title>
<path fill="none" stroke="#191970" d="M105.8907,-110.4179C111.334,-102.7415 119.2898,-91.5217 125.9746,-82.0945"/>
<polygon fill="#191970" stroke="#191970" points="128.9414,-83.9613 131.8707,-73.7795 123.2313,-79.9123 128.9414,-83.9613"/>
</g>
<!-- Node2 -->
<g id="node3" class="node">
<title>Node2</title>
<polygon fill="#ffffff" stroke="#bfbfbf" points="0,-.5 0,-18.5 34.9014,-18.5 34.9014,-.5 0,-.5"/>
<text text-anchor="middle" x="17.4507" y="-6.5" font-family="Helvetica,sans-Serif" font-size="10.00" fill="#000000">v8.h</text>
</g>
<!-- Node0&#45;&gt;Node2 -->
<g id="edge7" class="edge">
<title>Node0&#45;&gt;Node2</title>
<path fill="none" stroke="#191970" d="M92.7403,-110.4982C79.1056,-92.2079 47.9624,-50.4304 30.2989,-26.7354"/>
<polygon fill="#191970" stroke="#191970" points="33.0366,-24.5518 24.2538,-18.6261 27.4244,-28.7355 33.0366,-24.5518"/>
</g>
<!-- Node1&#45;&gt;Node2 -->
<g id="edge2" class="edge">
<title>Node1&#45;&gt;Node2</title>
<path fill="none" stroke="#191970" d="M118.47,-55.4179C98.239,-46.222 66.8204,-31.9408 44.3964,-21.7481"/>
<polygon fill="#191970" stroke="#191970" points="45.6497,-18.4732 35.0977,-17.5214 42.7531,-24.8458 45.6497,-18.4732"/>
</g>
<!-- Node3 -->
<g id="node4" class="node">
<title>Node3</title>
<g id="a_node4"><a xlink:href="../../da/d9c/node__version_8h.html" target="_top" xlink:title="node_version.h">
<polygon fill="#ffffff" stroke="#000000" points="53.2588,-.5 53.2588,-18.5 137.6426,-18.5 137.6426,-.5 53.2588,-.5"/>
<text text-anchor="middle" x="95.4507" y="-6.5" font-family="Helvetica,sans-Serif" font-size="10.00" fill="#000000">node_version.h</text>
</a>
</g>
</g>
<!-- Node1&#45;&gt;Node3 -->
<g id="edge3" class="edge">
<title>Node1&#45;&gt;Node3</title>
<path fill="none" stroke="#191970" d="M131.3501,-55.4179C125.2867,-47.6624 116.3956,-36.29 108.9789,-26.8035"/>
<polygon fill="#191970" stroke="#191970" points="111.6221,-24.5018 102.7055,-18.7795 106.1075,-28.8133 111.6221,-24.5018"/>
</g>
<!-- Node4 -->
<g id="node5" class="node">
<title>Node4</title>
<polygon fill="#ffffff" stroke="#bfbfbf" points="155.665,-.5 155.665,-18.5 207.2363,-18.5 207.2363,-.5 155.665,-.5"/>
<text text-anchor="middle" x="181.4507" y="-6.5" font-family="Helvetica,sans-Serif" font-size="10.00" fill="#000000">assert.h</text>
</g>
<!-- Node1&#45;&gt;Node4 -->
<g id="edge4" class="edge">
<title>Node1&#45;&gt;Node4</title>
<path fill="none" stroke="#191970" d="M145.5513,-55.4179C151.6146,-47.6624 160.5058,-36.29 167.9225,-26.8035"/>
<polygon fill="#191970" stroke="#191970" points="170.7939,-28.8133 174.1958,-18.7795 165.2792,-24.5018 170.7939,-28.8133"/>
</g>
<!-- Node5 -->
<g id="node6" class="node">
<title>Node5</title>
<polygon fill="#ffffff" stroke="#bfbfbf" points="225.3301,-.5 225.3301,-18.5 273.5713,-18.5 273.5713,-.5 225.3301,-.5"/>
<text text-anchor="middle" x="249.4507" y="-6.5" font-family="Helvetica,sans-Serif" font-size="10.00" fill="#000000">stdint.h</text>
</g>
<!-- Node1&#45;&gt;Node5 -->
<g id="edge5" class="edge">
<title>Node1&#45;&gt;Node5</title>
<path fill="none" stroke="#191970" d="M156.7801,-55.4179C174.5348,-46.6205 201.6821,-33.1691 222.0123,-23.0956"/>
<polygon fill="#191970" stroke="#191970" points="223.6876,-26.1716 231.0941,-18.5956 220.5797,-19.8994 223.6876,-26.1716"/>
</g>
<!-- Node6 -->
<g id="node7" class="node">
<title>Node6</title>
<polygon fill="#ffffff" stroke="#bfbfbf" points="291.4409,-.5 291.4409,-18.5 357.4604,-18.5 357.4604,-.5 291.4409,-.5"/>
<text text-anchor="middle" x="324.4507" y="-6.5" font-family="Helvetica,sans-Serif" font-size="10.00" fill="#000000">sys/types.h</text>
</g>
<!-- Node1&#45;&gt;Node6 -->
<g id="edge6" class="edge">
<title>Node1&#45;&gt;Node6</title>
<path fill="none" stroke="#191970" d="M162.0077,-57.5342C192.6559,-48.4716 246.6809,-32.4964 283.961,-21.4728"/>
<polygon fill="#191970" stroke="#191970" points="285.4014,-24.6967 293.9985,-18.5047 283.4164,-17.984 285.4014,-24.6967"/>
</g>
</g>
</svg>
