<?xml version="1.0" encoding="UTF-8" standalone="no"?>
<!DOCTYPE svg PUBLIC "-//W3C//DTD SVG 1.1//EN"
 "http://www.w3.org/Graphics/SVG/1.1/DTD/svg11.dtd">
<!-- Generated by graphviz version 2.40.1 (20161225.0304)
 -->
<!-- Title: src/node_crypto_clienthello.cc Pages: 1 -->
<svg width="276pt" height="92pt"
 viewBox="0.00 0.00 276.24 92.00" xmlns="http://www.w3.org/2000/svg" xmlns:xlink="http://www.w3.org/1999/xlink">
<g id="graph0" class="graph" transform="scale(1 1) rotate(0) translate(4 88)">
<title>src/node_crypto_clienthello.cc</title>
<polygon fill="#ffffff" stroke="transparent" points="-4,4 -4,-88 272.2432,-88 272.2432,4 -4,4"/>
<!-- Node0 -->
<g id="node1" class="node">
<title>Node0</title>
<polygon fill="#bfbfbf" stroke="#000000" points="60.7266,-65.5 60.7266,-83.5 210.6865,-83.5 210.6865,-65.5 60.7266,-65.5"/>
<text text-anchor="middle" x="135.7065" y="-71.5" font-family="Helvetica,sans-Serif" font-size="10.00" fill="#000000">src/node_crypto_clienthello.cc</text>
</g>
<!-- Node1 -->
<g id="node2" class="node">
<title>Node1</title>
<g id="a_node2"><a xlink:href="../../d8/d53/node__crypto__clienthello_8h.html" target="_top" xlink:title="node_crypto_clienthello.h">
<polygon fill="#ffffff" stroke="#000000" points="0,-5.5 0,-23.5 129.4131,-23.5 129.4131,-5.5 0,-5.5"/>
<text text-anchor="middle" x="64.7065" y="-11.5" font-family="Helvetica,sans-Serif" font-size="10.00" fill="#000000">node_crypto_clienthello.h</text>
</a>
</g>
</g>
<!-- Node0&#45;&gt;Node1 -->
<g id="edge1" class="edge">
<title>Node0&#45;&gt;Node1</title>
<path fill="none" stroke="#191970" d="M124.9232,-65.3873C113.9763,-56.1364 96.8045,-41.625 83.5947,-30.4618"/>
<polygon fill="#191970" stroke="#191970" points="85.4885,-27.4798 75.5914,-23.6985 80.9702,-32.8264 85.4885,-27.4798"/>
</g>
<!-- Node2 -->
<g id="node3" class="node">
<title>Node2</title>
<g id="a_node3"><a xlink:href="../../d7/d99/node__crypto__clienthello-inl_8h.html" target="_top" xlink:title="node_crypto_clienthello\l&#45;inl.h">
<polygon fill="#ffffff" stroke="#000000" points="147.1699,-.5 147.1699,-28.5 268.2432,-28.5 268.2432,-.5 147.1699,-.5"/>
<text text-anchor="start" x="155.1699" y="-16.5" font-family="Helvetica,sans-Serif" font-size="10.00" fill="#000000">node_crypto_clienthello</text>
<text text-anchor="middle" x="207.7065" y="-6.5" font-family="Helvetica,sans-Serif" font-size="10.00" fill="#000000">&#45;inl.h</text>
</a>
</g>
</g>
<!-- Node0&#45;&gt;Node2 -->
<g id="edge2" class="edge">
<title>Node0&#45;&gt;Node2</title>
<path fill="none" stroke="#191970" d="M146.6418,-65.3873C156.2584,-57.3734 170.6123,-45.4119 182.9876,-35.0991"/>
<polygon fill="#191970" stroke="#191970" points="185.323,-37.7089 190.7646,-28.6183 180.8417,-32.3314 185.323,-37.7089"/>
</g>
</g>
</svg>
