<?xml version="1.0" encoding="UTF-8" standalone="no"?>
<!DOCTYPE svg PUBLIC "-//W3C//DTD SVG 1.1//EN"
 "http://www.w3.org/Graphics/SVG/1.1/DTD/svg11.dtd">
<!-- Generated by graphviz version 2.40.1 (20161225.0304)
 -->
<!-- Title: src/node_platform.h Pages: 1 -->
<svg width="441pt" height="137pt"
 viewBox="0.00 0.00 440.53 137.00" xmlns="http://www.w3.org/2000/svg" xmlns:xlink="http://www.w3.org/1999/xlink">
<g id="graph0" class="graph" transform="scale(1 1) rotate(0) translate(4 133)">
<title>src/node_platform.h</title>
<polygon fill="#ffffff" stroke="transparent" points="-4,4 -4,-133 436.5342,-133 436.5342,4 -4,4"/>
<!-- Node7 -->
<g id="node1" class="node">
<title>Node7</title>
<polygon fill="#bfbfbf" stroke="#000000" points="119.377,-110.5 119.377,-128.5 223.7559,-128.5 223.7559,-110.5 119.377,-110.5"/>
<text text-anchor="middle" x="171.5664" y="-116.5" font-family="Helvetica,sans-Serif" font-size="10.00" fill="#000000">src/node_platform.h</text>
</g>
<!-- Node8 -->
<g id="node2" class="node">
<title>Node8</title>
<g id="a_node2"><a xlink:href="../../dc/dfd/node_8cc.html" target="_top" xlink:title="src/node.cc">
<polygon fill="#ffffff" stroke="#000000" points="0,-.5 0,-18.5 67.1328,-18.5 67.1328,-.5 0,-.5"/>
<text text-anchor="middle" x="33.5664" y="-6.5" font-family="Helvetica,sans-Serif" font-size="10.00" fill="#000000">src/node.cc</text>
</a>
</g>
</g>
<!-- Node7&#45;&gt;Node8 -->
<g id="edge1" class="edge">
<title>Node7&#45;&gt;Node8</title>
<path fill="none" stroke="#191970" d="M109.6652,-107.5282C89.0811,-100.769 67.5999,-90.2663 52.5664,-74 38.1461,-58.3972 34.6264,-32.3792 33.7966,-18.6414"/>
<polygon fill="#191970" stroke="#191970" points="108.7628,-110.9119 119.3482,-110.4659 110.7951,-104.2134 108.7628,-110.9119"/>
</g>
<!-- Node9 -->
<g id="node3" class="node">
<title>Node9</title>
<g id="a_node3"><a xlink:href="../../de/d9e/agent_8h.html" target="_top" xlink:title="src/tracing/agent.h">
<polygon fill="#ffffff" stroke="#000000" points="61.4336,-55.5 61.4336,-73.5 159.6992,-73.5 159.6992,-55.5 61.4336,-55.5"/>
<text text-anchor="middle" x="110.5664" y="-61.5" font-family="Helvetica,sans-Serif" font-size="10.00" fill="#000000">src/tracing/agent.h</text>
</a>
</g>
</g>
<!-- Node7&#45;&gt;Node9 -->
<g id="edge2" class="edge">
<title>Node7&#45;&gt;Node9</title>
<path fill="none" stroke="#191970" d="M153.9143,-103.5841C143.1934,-93.9177 129.8809,-81.9147 120.8582,-73.7795"/>
<polygon fill="#191970" stroke="#191970" points="151.7228,-106.3209 161.4935,-110.4179 156.4103,-101.122 151.7228,-106.3209"/>
</g>
<!-- Node11 -->
<g id="node5" class="node">
<title>Node11</title>
<g id="a_node5"><a xlink:href="../../d7/d44/node__platform_8cc.html" target="_top" xlink:title="src/node_platform.cc">
<polygon fill="#ffffff" stroke="#000000" points="178.1577,-55.5 178.1577,-73.5 286.9751,-73.5 286.9751,-55.5 178.1577,-55.5"/>
<text text-anchor="middle" x="232.5664" y="-61.5" font-family="Helvetica,sans-Serif" font-size="10.00" fill="#000000">src/node_platform.cc</text>
</a>
</g>
</g>
<!-- Node7&#45;&gt;Node11 -->
<g id="edge5" class="edge">
<title>Node7&#45;&gt;Node11</title>
<path fill="none" stroke="#191970" d="M189.2185,-103.5841C199.9395,-93.9177 213.2519,-81.9147 222.2746,-73.7795"/>
<polygon fill="#191970" stroke="#191970" points="186.7225,-101.122 181.6393,-110.4179 191.41,-106.3209 186.7225,-101.122"/>
</g>
<!-- Node12 -->
<g id="node6" class="node">
<title>Node12</title>
<g id="a_node6"><a xlink:href="../../db/d4b/trace__event_8h.html" target="_top" xlink:title="src/tracing/trace_event.h">
<polygon fill="#ffffff" stroke="#000000" points="304.8179,-55.5 304.8179,-73.5 430.3149,-73.5 430.3149,-55.5 304.8179,-55.5"/>
<text text-anchor="middle" x="367.5664" y="-61.5" font-family="Helvetica,sans-Serif" font-size="10.00" fill="#000000">src/tracing/trace_event.h</text>
</a>
</g>
</g>
<!-- Node7&#45;&gt;Node12 -->
<g id="edge6" class="edge">
<title>Node7&#45;&gt;Node12</title>
<path fill="none" stroke="#191970" d="M213.79,-107.6515C250.2984,-97.4068 302.289,-82.8177 335.4787,-73.5042"/>
<polygon fill="#191970" stroke="#191970" points="212.6143,-104.3462 203.9318,-110.4179 214.5056,-111.0859 212.6143,-104.3462"/>
</g>
<!-- Node9&#45;&gt;Node8 -->
<g id="edge3" class="edge">
<title>Node9&#45;&gt;Node8</title>
<path fill="none" stroke="#191970" d="M89.4152,-49.392C75.5975,-39.5222 58.0099,-26.9596 46.3003,-18.5956"/>
<polygon fill="#191970" stroke="#191970" points="87.6797,-52.4535 97.8514,-55.4179 91.7484,-46.7574 87.6797,-52.4535"/>
</g>
<!-- Node10 -->
<g id="node4" class="node">
<title>Node10</title>
<g id="a_node4"><a xlink:href="../../d2/d0e/agent_8cc.html" target="_top" xlink:title="src/tracing/agent.cc">
<polygon fill="#ffffff" stroke="#000000" points="85.2144,-.5 85.2144,-18.5 187.9185,-18.5 187.9185,-.5 85.2144,-.5"/>
<text text-anchor="middle" x="136.5664" y="-6.5" font-family="Helvetica,sans-Serif" font-size="10.00" fill="#000000">src/tracing/agent.cc</text>
</a>
</g>
</g>
<!-- Node9&#45;&gt;Node10 -->
<g id="edge4" class="edge">
<title>Node9&#45;&gt;Node10</title>
<path fill="none" stroke="#191970" d="M119.1844,-46.2696C123.5387,-37.0587 128.6356,-26.2766 132.1798,-18.7795"/>
<polygon fill="#191970" stroke="#191970" points="115.9694,-44.8813 114.8598,-55.4179 122.2979,-47.873 115.9694,-44.8813"/>
</g>
<!-- Node13 -->
<g id="node7" class="node">
<title>Node13</title>
<g id="a_node7"><a xlink:href="../../db/d07/trace__event_8cc.html" target="_top" xlink:title="src/tracing/trace_event.cc">
<polygon fill="#ffffff" stroke="#000000" points="302.5986,-.5 302.5986,-18.5 432.5342,-18.5 432.5342,-.5 302.5986,-.5"/>
<text text-anchor="middle" x="367.5664" y="-6.5" font-family="Helvetica,sans-Serif" font-size="10.00" fill="#000000">src/tracing/trace_event.cc</text>
</a>
</g>
</g>
<!-- Node12&#45;&gt;Node13 -->
<g id="edge7" class="edge">
<title>Node12&#45;&gt;Node13</title>
<path fill="none" stroke="#191970" d="M367.5664,-45.383C367.5664,-36.3738 367.5664,-26.0373 367.5664,-18.7795"/>
<polygon fill="#191970" stroke="#191970" points="364.0665,-45.4178 367.5664,-55.4179 371.0665,-45.4179 364.0665,-45.4178"/>
</g>
</g>
</svg>
