<?xml version="1.0" encoding="UTF-8" standalone="no"?>
<!DOCTYPE svg PUBLIC "-//W3C//DTD SVG 1.1//EN"
 "http://www.w3.org/Graphics/SVG/1.1/DTD/svg11.dtd">
<!-- Generated by graphviz version 2.40.1 (20161225.0304)
 -->
<!-- Title: InspectorSocket Pages: 1 -->
<svg width="374pt" height="112pt"
 viewBox="0.00 0.00 374.33 112.00" xmlns="http://www.w3.org/2000/svg" xmlns:xlink="http://www.w3.org/1999/xlink">
<g id="graph0" class="graph" transform="scale(1 1) rotate(0) translate(4 108)">
<title>InspectorSocket</title>
<polygon fill="#ffffff" stroke="transparent" points="-4,4 -4,-108 370.3333,-108 370.3333,4 -4,4"/>
<!-- Node1 -->
<g id="node1" class="node">
<title>Node1</title>
<polygon fill="#bfbfbf" stroke="#000000" points="58.659,-85.5 58.659,-103.5 146.3631,-103.5 146.3631,-85.5 58.659,-85.5"/>
<text text-anchor="middle" x="102.511" y="-91.5" font-family="Helvetica,sans-Serif" font-size="10.00" fill="#000000">InspectorSocket</text>
</g>
<!-- Node2 -->
<g id="node2" class="node">
<title>Node2</title>
<g id="a_node2"><a xlink:href="../../de/d14/structnode_1_1inspector_1_1ws__state__s.html" target="_top" xlink:title="ws_state_s">
<polygon fill="#ffffff" stroke="#000000" points="4.4988,-.5 4.4988,-18.5 70.5232,-18.5 70.5232,-.5 4.4988,-.5"/>
<text text-anchor="middle" x="37.511" y="-6.5" font-family="Helvetica,sans-Serif" font-size="10.00" fill="#000000">ws_state_s</text>
</a>
</g>
</g>
<!-- Node1&#45;&gt;Node2 -->
<g id="edge2" class="edge">
<title>Node1&#45;&gt;Node2</title>
<path fill="none" stroke="#9a32cd" stroke-dasharray="5,2" d="M48.6583,-85.2103C29.399,-80.7036 11.0147,-74.6012 5.2649,-67 -2.7788,-56.3662 -.3216,-49.1065 5.2649,-37 8.7176,-29.5177 15.3213,-23.3187 21.658,-18.7123"/>
<polygon fill="#9a32cd" stroke="#9a32cd" points="47.9202,-88.6316 58.4381,-87.3575 49.4213,-81.7944 47.9202,-88.6316"/>
<text text-anchor="middle" x="26.634" y="-49" font-family="Helvetica,sans-Serif" font-size="10.00" fill="#000000"> close_cb</text>
</g>
<!-- Node3 -->
<g id="node3" class="node">
<title>Node3</title>
<g id="a_node3"><a xlink:href="../../db/dab/structnode_1_1inspector_1_1http__parsing__state__s.html" target="_top" xlink:title="http_parsing_state_s">
<polygon fill="#ffffff" stroke="#000000" points="142.0901,-.5 142.0901,-18.5 250.9319,-18.5 250.9319,-.5 142.0901,-.5"/>
<text text-anchor="middle" x="196.511" y="-6.5" font-family="Helvetica,sans-Serif" font-size="10.00" fill="#000000">http_parsing_state_s</text>
</a>
</g>
</g>
<!-- Node1&#45;&gt;Node3 -->
<g id="edge4" class="edge">
<title>Node1&#45;&gt;Node3</title>
<path fill="none" stroke="#9a32cd" stroke-dasharray="5,2" d="M110.4385,-75.47C116.7697,-61.0031 125.5535,-42.6551 131.6048,-37 140.4567,-28.7275 152.1691,-22.7407 163.2057,-18.5087"/>
<polygon fill="#9a32cd" stroke="#9a32cd" points="107.0429,-74.5099 106.336,-85.0811 113.4809,-77.258 107.0429,-74.5099"/>
<text text-anchor="middle" x="151.9641" y="-49" font-family="Helvetica,sans-Serif" font-size="10.00" fill="#000000"> callback</text>
</g>
<!-- Node2&#45;&gt;Node1 -->
<g id="edge1" class="edge">
<title>Node2&#45;&gt;Node1</title>
<path fill="none" stroke="#9a32cd" stroke-dasharray="5,2" d="M45.9767,-27.9959C51.8667,-39.809 60.4132,-55.0873 70.2698,-67 75.9915,-73.9153 83.5821,-80.4851 89.9608,-85.468"/>
<polygon fill="#9a32cd" stroke="#9a32cd" points="48.9919,-26.1882 41.5184,-18.6783 42.6775,-29.2096 48.9919,-26.1882"/>
<text text-anchor="middle" x="91.6316" y="-49" font-family="Helvetica,sans-Serif" font-size="10.00" fill="#000000"> ws_state</text>
</g>
<!-- Node3&#45;&gt;Node1 -->
<g id="edge3" class="edge">
<title>Node3&#45;&gt;Node1</title>
<path fill="none" stroke="#9a32cd" stroke-dasharray="5,2" d="M193.4263,-28.3306C190.4951,-40.7545 184.919,-56.598 174.511,-67 166.0877,-75.4184 154.819,-81.3072 143.7014,-85.4077"/>
<polygon fill="#9a32cd" stroke="#9a32cd" points="196.8605,-29.0059 195.3763,-18.5155 189.9947,-27.6418 196.8605,-29.0059"/>
<text text-anchor="middle" x="234.0403" y="-49" font-family="Helvetica,sans-Serif" font-size="10.00" fill="#000000"> http_parsing_state</text>
</g>
<!-- Node4 -->
<g id="node4" class="node">
<title>Node4</title>
<polygon fill="#ffffff" stroke="#bfbfbf" points="284.2844,-85.5 284.2844,-103.5 324.7376,-103.5 324.7376,-85.5 284.2844,-85.5"/>
<text text-anchor="middle" x="304.511" y="-91.5" font-family="Helvetica,sans-Serif" font-size="10.00" fill="#000000">string</text>
</g>
<!-- Node4&#45;&gt;Node3 -->
<g id="edge5" class="edge">
<title>Node4&#45;&gt;Node3</title>
<path fill="none" stroke="#9a32cd" stroke-dasharray="5,2" d="M300.8793,-75.4799C297.5638,-62.9721 291.4493,-47.1063 280.511,-37 271.2691,-28.461 259.3293,-22.5708 247.3683,-18.5086"/>
<polygon fill="#9a32cd" stroke="#9a32cd" points="297.4988,-76.3994 303.1233,-85.378 304.3256,-74.8516 297.4988,-76.3994"/>
<text text-anchor="middle" x="332.4221" y="-59" font-family="Helvetica,sans-Serif" font-size="10.00" fill="#000000"> path</text>
<text text-anchor="middle" x="332.4221" y="-49" font-family="Helvetica,sans-Serif" font-size="10.00" fill="#000000">ws_key</text>
<text text-anchor="middle" x="332.4221" y="-39" font-family="Helvetica,sans-Serif" font-size="10.00" fill="#000000">current_header</text>
</g>
</g>
</svg>
