<?xml version="1.0" encoding="UTF-8" standalone="no"?>
<!DOCTYPE svg PUBLIC "-//W3C//DTD SVG 1.1//EN"
 "http://www.w3.org/Graphics/SVG/1.1/DTD/svg11.dtd">
<!-- Generated by graphviz version 2.40.1 (20161225.0304)
 -->
<!-- Title: ws_state_s Pages: 1 -->
<svg width="250pt" height="177pt"
 viewBox="0.00 0.00 249.67 177.00" xmlns="http://www.w3.org/2000/svg" xmlns:xlink="http://www.w3.org/1999/xlink">
<g id="graph0" class="graph" transform="scale(1 1) rotate(0) translate(4 173)">
<title>ws_state_s</title>
<polygon fill="#ffffff" stroke="transparent" points="-4,4 -4,-173 245.6743,-173 245.6743,4 -4,4"/>
<!-- Node1 -->
<g id="node1" class="node">
<title>Node1</title>
<polygon fill="#bfbfbf" stroke="#000000" points="10.8398,-150.5 10.8398,-168.5 76.8643,-168.5 76.8643,-150.5 10.8398,-150.5"/>
<text text-anchor="middle" x="43.8521" y="-156.5" font-family="Helvetica,sans-Serif" font-size="10.00" fill="#000000">ws_state_s</text>
</g>
<!-- Node2 -->
<g id="node2" class="node">
<title>Node2</title>
<g id="a_node2"><a xlink:href="../../d3/d31/classnode_1_1inspector_1_1_inspector_socket.html" target="_top" xlink:title="InspectorSocket">
<polygon fill="#ffffff" stroke="#000000" points="0,-85.5 0,-103.5 87.7041,-103.5 87.7041,-85.5 0,-85.5"/>
<text text-anchor="middle" x="43.8521" y="-91.5" font-family="Helvetica,sans-Serif" font-size="10.00" fill="#000000">InspectorSocket</text>
</a>
</g>
</g>
<!-- Node1&#45;&gt;Node2 -->
<g id="edge2" class="edge">
<title>Node1&#45;&gt;Node2</title>
<path fill="none" stroke="#9a32cd" stroke-dasharray="5,2" d="M18.0226,-144.0384C14.2168,-140.5758 10.8341,-136.555 8.6108,-132 3.1245,-120.7597 14.1785,-110.5983 25.3227,-103.6974"/>
<polygon fill="#9a32cd" stroke="#9a32cd" points="16.1406,-147.0074 26.1929,-150.3544 20.4219,-141.4693 16.1406,-147.0074"/>
<text text-anchor="middle" x="29.9727" y="-124" font-family="Helvetica,sans-Serif" font-size="10.00" fill="#000000"> ws_state</text>
</g>
<!-- Node2&#45;&gt;Node1 -->
<g id="edge1" class="edge">
<title>Node2&#45;&gt;Node1</title>
<path fill="none" stroke="#9a32cd" stroke-dasharray="5,2" d="M53.0338,-113.309C54.9319,-119.2323 56.0389,-125.8374 54.8521,-132 53.6268,-138.3621 50.9429,-145.1234 48.5331,-150.3496"/>
<polygon fill="#9a32cd" stroke="#9a32cd" points="56.1029,-111.5658 49.0874,-103.6265 49.6206,-114.2079 56.1029,-111.5658"/>
<text text-anchor="middle" x="76.9751" y="-124" font-family="Helvetica,sans-Serif" font-size="10.00" fill="#000000"> close_cb</text>
</g>
<!-- Node3 -->
<g id="node3" class="node">
<title>Node3</title>
<g id="a_node3"><a xlink:href="../../db/dab/structnode_1_1inspector_1_1http__parsing__state__s.html" target="_top" xlink:title="http_parsing_state_s">
<polygon fill="#ffffff" stroke="#000000" points="20.4312,-.5 20.4312,-18.5 129.2729,-18.5 129.2729,-.5 20.4312,-.5"/>
<text text-anchor="middle" x="74.8521" y="-6.5" font-family="Helvetica,sans-Serif" font-size="10.00" fill="#000000">http_parsing_state_s</text>
</a>
</g>
</g>
<!-- Node2&#45;&gt;Node3 -->
<g id="edge4" class="edge">
<title>Node2&#45;&gt;Node3</title>
<path fill="none" stroke="#9a32cd" stroke-dasharray="5,2" d="M20.8055,-79.0555C17.2102,-75.5427 14.008,-71.4999 11.9458,-67 6.391,-54.8789 4.6462,-48.1577 11.9458,-37 17.4924,-28.5219 26.2908,-22.642 35.5701,-18.5697"/>
<polygon fill="#9a32cd" stroke="#9a32cd" points="18.5843,-81.7606 28.4979,-85.4985 23.0791,-76.3943 18.5843,-81.7606"/>
<text text-anchor="middle" x="32.3052" y="-49" font-family="Helvetica,sans-Serif" font-size="10.00" fill="#000000"> callback</text>
</g>
<!-- Node3&#45;&gt;Node2 -->
<g id="edge3" class="edge">
<title>Node3&#45;&gt;Node2</title>
<path fill="none" stroke="#9a32cd" stroke-dasharray="5,2" d="M67.9788,-28.346C61.5138,-46.0727 52.1107,-71.8553 47.1696,-85.4035"/>
<polygon fill="#9a32cd" stroke="#9a32cd" points="71.4201,-29.125 71.5584,-18.5311 64.8438,-26.7266 71.4201,-29.125"/>
<text text-anchor="middle" x="107.3813" y="-49" font-family="Helvetica,sans-Serif" font-size="10.00" fill="#000000"> http_parsing_state</text>
</g>
<!-- Node4 -->
<g id="node4" class="node">
<title>Node4</title>
<polygon fill="#ffffff" stroke="#bfbfbf" points="162.6255,-85.5 162.6255,-103.5 203.0786,-103.5 203.0786,-85.5 162.6255,-85.5"/>
<text text-anchor="middle" x="182.8521" y="-91.5" font-family="Helvetica,sans-Serif" font-size="10.00" fill="#000000">string</text>
</g>
<!-- Node4&#45;&gt;Node3 -->
<g id="edge5" class="edge">
<title>Node4&#45;&gt;Node3</title>
<path fill="none" stroke="#9a32cd" stroke-dasharray="5,2" d="M177.4137,-75.5026C172.943,-63.0048 165.4309,-47.1417 153.8521,-37 144.2385,-28.5796 131.8993,-22.6988 119.8443,-18.6065"/>
<polygon fill="#9a32cd" stroke="#9a32cd" points="174.1983,-76.9376 180.5854,-85.3908 180.8638,-74.7996 174.1983,-76.9376"/>
<text text-anchor="middle" x="207.7632" y="-59" font-family="Helvetica,sans-Serif" font-size="10.00" fill="#000000"> path</text>
<text text-anchor="middle" x="207.7632" y="-49" font-family="Helvetica,sans-Serif" font-size="10.00" fill="#000000">ws_key</text>
<text text-anchor="middle" x="207.7632" y="-39" font-family="Helvetica,sans-Serif" font-size="10.00" fill="#000000">current_header</text>
</g>
</g>
</svg>
