<?xml version="1.0" encoding="UTF-8" standalone="no"?>
<!DOCTYPE svg PUBLIC "-//W3C//DTD SVG 1.1//EN"
 "http://www.w3.org/Graphics/SVG/1.1/DTD/svg11.dtd">
<!-- Generated by graphviz version 2.40.1 (20161225.0304)
 -->
<!-- Title: src/tracing/node_trace_writer.h Pages: 1 -->
<svg width="393pt" height="147pt"
 viewBox="0.00 0.00 393.36 147.00" xmlns="http://www.w3.org/2000/svg" xmlns:xlink="http://www.w3.org/1999/xlink">
<g id="graph0" class="graph" transform="scale(1 1) rotate(0) translate(4 143)">
<title>src/tracing/node_trace_writer.h</title>
<polygon fill="#ffffff" stroke="transparent" points="-4,4 -4,-143 389.3569,-143 389.3569,4 -4,4"/>
<!-- Node0 -->
<g id="node1" class="node">
<title>Node0</title>
<polygon fill="#bfbfbf" stroke="#000000" points="114.3105,-110.5 114.3105,-138.5 229.251,-138.5 229.251,-110.5 114.3105,-110.5"/>
<text text-anchor="start" x="122.3105" y="-126.5" font-family="Helvetica,sans-Serif" font-size="10.00" fill="#000000">src/tracing/node_trace</text>
<text text-anchor="middle" x="171.7808" y="-116.5" font-family="Helvetica,sans-Serif" font-size="10.00" fill="#000000">_writer.h</text>
</g>
<!-- Node1 -->
<g id="node2" class="node">
<title>Node1</title>
<polygon fill="#ffffff" stroke="#bfbfbf" points="0,-55.5 0,-73.5 51.5615,-73.5 51.5615,-55.5 0,-55.5"/>
<text text-anchor="middle" x="25.7808" y="-61.5" font-family="Helvetica,sans-Serif" font-size="10.00" fill="#000000">sstream</text>
</g>
<!-- Node0&#45;&gt;Node1 -->
<g id="edge1" class="edge">
<title>Node0&#45;&gt;Node1</title>
<path fill="none" stroke="#191970" d="M137.5502,-110.4327C113.3609,-100.4918 81.1706,-87.263 57.5499,-77.5558"/>
<polygon fill="#191970" stroke="#191970" points="58.5795,-74.195 47.9997,-73.6311 55.9187,-80.6695 58.5795,-74.195"/>
</g>
<!-- Node2 -->
<g id="node3" class="node">
<title>Node2</title>
<polygon fill="#ffffff" stroke="#bfbfbf" points="69.877,-55.5 69.877,-73.5 113.6846,-73.5 113.6846,-55.5 69.877,-55.5"/>
<text text-anchor="middle" x="91.7808" y="-61.5" font-family="Helvetica,sans-Serif" font-size="10.00" fill="#000000">queue</text>
</g>
<!-- Node0&#45;&gt;Node2 -->
<g id="edge2" class="edge">
<title>Node0&#45;&gt;Node2</title>
<path fill="none" stroke="#191970" d="M152.8219,-110.2808C140.5082,-101.0456 124.4755,-89.021 111.9314,-79.613"/>
<polygon fill="#191970" stroke="#191970" points="113.993,-76.7842 103.893,-73.5842 109.793,-82.3842 113.993,-76.7842"/>
</g>
<!-- Node3 -->
<g id="node4" class="node">
<title>Node3</title>
<g id="a_node4"><a xlink:href="../../d8/dc3/node__mutex_8h.html" target="_top" xlink:title="node_mutex.h">
<polygon fill="#ffffff" stroke="#000000" points="132.0913,-55.5 132.0913,-73.5 211.4702,-73.5 211.4702,-55.5 132.0913,-55.5"/>
<text text-anchor="middle" x="171.7808" y="-61.5" font-family="Helvetica,sans-Serif" font-size="10.00" fill="#000000">node_mutex.h</text>
</a>
</g>
</g>
<!-- Node0&#45;&gt;Node3 -->
<g id="edge3" class="edge">
<title>Node0&#45;&gt;Node3</title>
<path fill="none" stroke="#191970" d="M171.7808,-110.2808C171.7808,-102.3776 171.7808,-92.4316 171.7808,-83.8308"/>
<polygon fill="#191970" stroke="#191970" points="175.2809,-83.5842 171.7808,-73.5842 168.2809,-83.5842 175.2809,-83.5842"/>
</g>
<!-- Node5 -->
<g id="node6" class="node">
<title>Node5</title>
<polygon fill="#ffffff" stroke="#bfbfbf" points="215.6987,-.5 215.6987,-18.5 249.8628,-18.5 249.8628,-.5 215.6987,-.5"/>
<text text-anchor="middle" x="232.7808" y="-6.5" font-family="Helvetica,sans-Serif" font-size="10.00" fill="#000000">uv.h</text>
</g>
<!-- Node0&#45;&gt;Node5 -->
<g id="edge7" class="edge">
<title>Node0&#45;&gt;Node5</title>
<path fill="none" stroke="#191970" d="M190.4063,-110.0942C200.9658,-100.9095 213.4876,-88.1073 220.7808,-74 227.982,-60.0704 230.9083,-42.469 232.0751,-29.1736"/>
<polygon fill="#191970" stroke="#191970" points="235.5925,-28.9941 232.7106,-18.7988 228.6056,-28.5661 235.5925,-28.9941"/>
</g>
<!-- Node6 -->
<g id="node7" class="node">
<title>Node6</title>
<polygon fill="#ffffff" stroke="#bfbfbf" points="268.2046,-55.5 268.2046,-73.5 385.3569,-73.5 385.3569,-55.5 268.2046,-55.5"/>
<text text-anchor="middle" x="326.7808" y="-61.5" font-family="Helvetica,sans-Serif" font-size="10.00" fill="#000000">libplatform/v8&#45;tracing.h</text>
</g>
<!-- Node0&#45;&gt;Node6 -->
<g id="edge6" class="edge">
<title>Node0&#45;&gt;Node6</title>
<path fill="none" stroke="#191970" d="M208.1214,-110.4327C234.0312,-100.4031 268.5874,-87.0265 293.7228,-77.2966"/>
<polygon fill="#191970" stroke="#191970" points="295.13,-80.5051 303.1922,-73.6311 292.603,-73.9771 295.13,-80.5051"/>
</g>
<!-- Node4 -->
<g id="node5" class="node">
<title>Node4</title>
<g id="a_node5"><a xlink:href="../../d8/d3c/util_8h.html" target="_top" xlink:title="util.h">
<polygon fill="#ffffff" stroke="#000000" points="153.2192,-.5 153.2192,-18.5 190.3423,-18.5 190.3423,-.5 153.2192,-.5"/>
<text text-anchor="middle" x="171.7808" y="-6.5" font-family="Helvetica,sans-Serif" font-size="10.00" fill="#000000">util.h</text>
</a>
</g>
</g>
<!-- Node3&#45;&gt;Node4 -->
<g id="edge4" class="edge">
<title>Node3&#45;&gt;Node4</title>
<path fill="none" stroke="#191970" d="M171.7808,-55.4179C171.7808,-48.2164 171.7808,-37.8962 171.7808,-28.8632"/>
<polygon fill="#191970" stroke="#191970" points="175.2809,-28.7794 171.7808,-18.7795 168.2809,-28.7795 175.2809,-28.7794"/>
</g>
<!-- Node3&#45;&gt;Node5 -->
<g id="edge5" class="edge">
<title>Node3&#45;&gt;Node5</title>
<path fill="none" stroke="#191970" d="M181.8537,-55.4179C190.8063,-47.3458 204.1045,-35.3556 214.8671,-25.6517"/>
<polygon fill="#191970" stroke="#191970" points="217.4058,-28.0753 222.489,-18.7795 212.7184,-22.8764 217.4058,-28.0753"/>
</g>
</g>
</svg>
