<?xml version="1.0" encoding="UTF-8" standalone="no"?>
<!DOCTYPE svg PUBLIC "-//W3C//DTD SVG 1.1//EN"
 "http://www.w3.org/Graphics/SVG/1.1/DTD/svg11.dtd">
<!-- Generated by graphviz version 2.40.1 (20161225.0304)
 -->
<!-- Title: src/tcp_wrap.h Pages: 1 -->
<svg width="353pt" height="82pt"
 viewBox="0.00 0.00 352.98 82.00" xmlns="http://www.w3.org/2000/svg" xmlns:xlink="http://www.w3.org/1999/xlink">
<g id="graph0" class="graph" transform="scale(1 1) rotate(0) translate(4 78)">
<title>src/tcp_wrap.h</title>
<polygon fill="#ffffff" stroke="transparent" points="-4,4 -4,-78 348.9775,-78 348.9775,4 -4,4"/>
<!-- Node1 -->
<g id="node1" class="node">
<title>Node1</title>
<polygon fill="#bfbfbf" stroke="#000000" points="149.7339,-55.5 149.7339,-73.5 230.7583,-73.5 230.7583,-55.5 149.7339,-55.5"/>
<text text-anchor="middle" x="190.2461" y="-61.5" font-family="Helvetica,sans-Serif" font-size="10.00" fill="#000000">src/tcp_wrap.h</text>
</g>
<!-- Node2 -->
<g id="node2" class="node">
<title>Node2</title>
<g id="a_node2"><a xlink:href="../../d7/d47/connection__wrap_8cc.html" target="_top" xlink:title="src/connection_wrap.cc">
<polygon fill="#ffffff" stroke="#000000" points="0,-.5 0,-18.5 120.4922,-18.5 120.4922,-.5 0,-.5"/>
<text text-anchor="middle" x="60.2461" y="-6.5" font-family="Helvetica,sans-Serif" font-size="10.00" fill="#000000">src/connection_wrap.cc</text>
</a>
</g>
</g>
<!-- Node1&#45;&gt;Node2 -->
<g id="edge1" class="edge">
<title>Node1&#45;&gt;Node2</title>
<path fill="none" stroke="#191970" d="M159.432,-51.4633C135.5002,-41.3383 102.9264,-27.5571 81.7448,-18.5956"/>
<polygon fill="#191970" stroke="#191970" points="158.2058,-54.7448 168.7792,-55.4179 160.9333,-48.298 158.2058,-54.7448"/>
</g>
<!-- Node3 -->
<g id="node3" class="node">
<title>Node3</title>
<g id="a_node3"><a xlink:href="../../dc/d29/stream__wrap_8cc.html" target="_top" xlink:title="src/stream_wrap.cc">
<polygon fill="#ffffff" stroke="#000000" points="138.9038,-.5 138.9038,-18.5 241.5884,-18.5 241.5884,-.5 138.9038,-.5"/>
<text text-anchor="middle" x="190.2461" y="-6.5" font-family="Helvetica,sans-Serif" font-size="10.00" fill="#000000">src/stream_wrap.cc</text>
</a>
</g>
</g>
<!-- Node1&#45;&gt;Node3 -->
<g id="edge2" class="edge">
<title>Node1&#45;&gt;Node3</title>
<path fill="none" stroke="#191970" d="M190.2461,-45.383C190.2461,-36.3738 190.2461,-26.0373 190.2461,-18.7795"/>
<polygon fill="#191970" stroke="#191970" points="186.7462,-45.4178 190.2461,-55.4179 193.7462,-45.4179 186.7462,-45.4178"/>
</g>
<!-- Node4 -->
<g id="node4" class="node">
<title>Node4</title>
<g id="a_node4"><a xlink:href="../../d3/dfb/tcp__wrap_8cc.html" target="_top" xlink:title="src/tcp_wrap.cc">
<polygon fill="#ffffff" stroke="#000000" points="259.5146,-.5 259.5146,-18.5 344.9775,-18.5 344.9775,-.5 259.5146,-.5"/>
<text text-anchor="middle" x="302.2461" y="-6.5" font-family="Helvetica,sans-Serif" font-size="10.00" fill="#000000">src/tcp_wrap.cc</text>
</a>
</g>
</g>
<!-- Node1&#45;&gt;Node4 -->
<g id="edge3" class="edge">
<title>Node1&#45;&gt;Node4</title>
<path fill="none" stroke="#191970" d="M217.9002,-50.9198C238.4065,-40.8498 265.7998,-27.3977 283.7241,-18.5956"/>
<polygon fill="#191970" stroke="#191970" points="216.1739,-47.8683 208.7406,-55.4179 219.2595,-54.1515 216.1739,-47.8683"/>
</g>
</g>
</svg>
