<?xml version="1.0" encoding="UTF-8" standalone="no"?>
<!DOCTYPE svg PUBLIC "-//W3C//DTD SVG 1.1//EN"
 "http://www.w3.org/Graphics/SVG/1.1/DTD/svg11.dtd">
<!-- Generated by graphviz version 2.40.1 (20161225.0304)
 -->
<!-- Title: src/pipe_wrap.cc Pages: 1 -->
<svg width="1072pt" height="192pt"
 viewBox="0.00 0.00 1071.80 192.00" xmlns="http://www.w3.org/2000/svg" xmlns:xlink="http://www.w3.org/1999/xlink">
<g id="graph0" class="graph" transform="scale(1 1) rotate(0) translate(4 188)">
<title>src/pipe_wrap.cc</title>
<polygon fill="#ffffff" stroke="transparent" points="-4,4 -4,-188 1067.8027,-188 1067.8027,4 -4,4"/>
<!-- Node0 -->
<g id="node1" class="node">
<title>Node0</title>
<polygon fill="#bfbfbf" stroke="#000000" points="522.7266,-165.5 522.7266,-183.5 613.7559,-183.5 613.7559,-165.5 522.7266,-165.5"/>
<text text-anchor="middle" x="568.2412" y="-171.5" font-family="Helvetica,sans-Serif" font-size="10.00" fill="#000000">src/pipe_wrap.cc</text>
</g>
<!-- Node1 -->
<g id="node2" class="node">
<title>Node1</title>
<g id="a_node2"><a xlink:href="../../d8/d39/pipe__wrap_8h.html" target="_top" xlink:title="pipe_wrap.h">
<polygon fill="#ffffff" stroke="#000000" points="0,-110.5 0,-128.5 70.4824,-128.5 70.4824,-110.5 0,-110.5"/>
<text text-anchor="middle" x="35.2412" y="-116.5" font-family="Helvetica,sans-Serif" font-size="10.00" fill="#000000">pipe_wrap.h</text>
</a>
</g>
</g>
<!-- Node0&#45;&gt;Node1 -->
<g id="edge1" class="edge">
<title>Node0&#45;&gt;Node1</title>
<path fill="none" stroke="#191970" d="M522.5114,-172.0794C437.4042,-167.1769 248.8058,-154.4454 80.7336,-129.0724"/>
<polygon fill="#191970" stroke="#191970" points="81.129,-125.5923 70.7149,-127.541 80.0712,-132.5119 81.129,-125.5923"/>
</g>
<!-- Node2 -->
<g id="node3" class="node">
<title>Node2</title>
<g id="a_node3"><a xlink:href="../../d4/d56/async-wrap_8h.html" target="_top" xlink:title="async&#45;wrap.h">
<polygon fill="#ffffff" stroke="#000000" points="88.5073,-110.5 88.5073,-128.5 163.9751,-128.5 163.9751,-110.5 88.5073,-110.5"/>
<text text-anchor="middle" x="126.2412" y="-116.5" font-family="Helvetica,sans-Serif" font-size="10.00" fill="#000000">async&#45;wrap.h</text>
</a>
</g>
</g>
<!-- Node0&#45;&gt;Node2 -->
<g id="edge2" class="edge">
<title>Node0&#45;&gt;Node2</title>
<path fill="none" stroke="#191970" d="M522.4529,-170.4967C450.4774,-163.9257 306.2952,-149.6411 174.0599,-129.0113"/>
<polygon fill="#191970" stroke="#191970" points="174.5791,-125.55 164.1561,-127.4506 173.4894,-132.4647 174.5791,-125.55"/>
</g>
<!-- Node3 -->
<g id="node4" class="node">
<title>Node3</title>
<g id="a_node4"><a xlink:href="../../dc/d27/connection__wrap_8h.html" target="_top" xlink:title="connection_wrap.h">
<polygon fill="#ffffff" stroke="#000000" points="182.2686,-110.5 182.2686,-128.5 282.2139,-128.5 282.2139,-110.5 182.2686,-110.5"/>
<text text-anchor="middle" x="232.2412" y="-116.5" font-family="Helvetica,sans-Serif" font-size="10.00" fill="#000000">connection_wrap.h</text>
</a>
</g>
</g>
<!-- Node0&#45;&gt;Node3 -->
<g id="edge3" class="edge">
<title>Node0&#45;&gt;Node3</title>
<path fill="none" stroke="#191970" d="M522.5771,-167.0252C463.0505,-157.2813 358.7693,-140.2114 292.723,-129.4003"/>
<polygon fill="#191970" stroke="#191970" points="292.8981,-125.8824 282.464,-127.721 291.7672,-132.7905 292.8981,-125.8824"/>
</g>
<!-- Node4 -->
<g id="node5" class="node">
<title>Node4</title>
<g id="a_node5"><a xlink:href="../../d5/d81/env_8h.html" target="_top" xlink:title="env.h">
<polygon fill="#ffffff" stroke="#000000" points="300.3784,-110.5 300.3784,-128.5 340.104,-128.5 340.104,-110.5 300.3784,-110.5"/>
<text text-anchor="middle" x="320.2412" y="-116.5" font-family="Helvetica,sans-Serif" font-size="10.00" fill="#000000">env.h</text>
</a>
</g>
</g>
<!-- Node0&#45;&gt;Node4 -->
<g id="edge4" class="edge">
<title>Node0&#45;&gt;Node4</title>
<path fill="none" stroke="#191970" d="M522.5951,-166.5546C480.2259,-158.8367 415.2538,-146.1328 350.1466,-129.0086"/>
<polygon fill="#191970" stroke="#191970" points="350.6859,-125.5303 340.1218,-126.3366 348.8829,-132.2941 350.6859,-125.5303"/>
</g>
<!-- Node5 -->
<g id="node6" class="node">
<title>Node5</title>
<g id="a_node6"><a xlink:href="../../d9/d50/env-inl_8h.html" target="_top" xlink:title="env&#45;inl.h">
<polygon fill="#ffffff" stroke="#000000" points="358.3423,-110.5 358.3423,-128.5 412.1401,-128.5 412.1401,-110.5 358.3423,-110.5"/>
<text text-anchor="middle" x="385.2412" y="-116.5" font-family="Helvetica,sans-Serif" font-size="10.00" fill="#000000">env&#45;inl.h</text>
</a>
</g>
</g>
<!-- Node0&#45;&gt;Node5 -->
<g id="edge5" class="edge">
<title>Node0&#45;&gt;Node5</title>
<path fill="none" stroke="#191970" d="M538.0225,-165.4179C506.1455,-155.8374 455.9035,-140.7373 421.8123,-130.4913"/>
<polygon fill="#191970" stroke="#191970" points="422.8062,-127.1354 412.222,-127.609 420.7914,-133.8392 422.8062,-127.1354"/>
</g>
<!-- Node6 -->
<g id="node7" class="node">
<title>Node6</title>
<g id="a_node7"><a xlink:href="../../da/db4/handle__wrap_8h.html" target="_top" xlink:title="handle_wrap.h">
<polygon fill="#ffffff" stroke="#000000" points="430.4385,-110.5 430.4385,-128.5 512.0439,-128.5 512.0439,-110.5 430.4385,-110.5"/>
<text text-anchor="middle" x="471.2412" y="-116.5" font-family="Helvetica,sans-Serif" font-size="10.00" fill="#000000">handle_wrap.h</text>
</a>
</g>
</g>
<!-- Node0&#45;&gt;Node6 -->
<g id="edge6" class="edge">
<title>Node0&#45;&gt;Node6</title>
<path fill="none" stroke="#191970" d="M552.2236,-165.4179C537.0593,-156.8195 514.0542,-143.7754 496.4337,-133.7844"/>
<polygon fill="#191970" stroke="#191970" points="497.7079,-130.4834 487.2826,-128.5956 494.2552,-136.5727 497.7079,-130.4834"/>
</g>
<!-- Node7 -->
<g id="node8" class="node">
<title>Node7</title>
<g id="a_node8"><a xlink:href="../../d1/d77/node_8h.html" target="_top" xlink:title="node.h">
<polygon fill="#ffffff" stroke="#000000" points="610.9482,-55.5 610.9482,-73.5 657.5342,-73.5 657.5342,-55.5 610.9482,-55.5"/>
<text text-anchor="middle" x="634.2412" y="-61.5" font-family="Helvetica,sans-Serif" font-size="10.00" fill="#000000">node.h</text>
</a>
</g>
</g>
<!-- Node0&#45;&gt;Node7 -->
<g id="edge7" class="edge">
<title>Node0&#45;&gt;Node7</title>
<path fill="none" stroke="#191970" d="M580.7854,-165.3865C591.4121,-157.0414 606.3061,-143.7702 615.2412,-129 623.6437,-115.1101 628.5241,-97.2779 631.2294,-83.885"/>
<polygon fill="#191970" stroke="#191970" points="634.7065,-84.3228 633.0199,-73.8631 627.8156,-83.0917 634.7065,-84.3228"/>
</g>
<!-- Node13 -->
<g id="node14" class="node">
<title>Node13</title>
<g id="a_node14"><a xlink:href="../../d8/d1c/node__buffer_8h.html" target="_top" xlink:title="node_buffer.h">
<polygon fill="#ffffff" stroke="#000000" points="529.7432,-110.5 529.7432,-128.5 606.7393,-128.5 606.7393,-110.5 529.7432,-110.5"/>
<text text-anchor="middle" x="568.2412" y="-116.5" font-family="Helvetica,sans-Serif" font-size="10.00" fill="#000000">node_buffer.h</text>
</a>
</g>
</g>
<!-- Node0&#45;&gt;Node13 -->
<g id="edge13" class="edge">
<title>Node0&#45;&gt;Node13</title>
<path fill="none" stroke="#191970" d="M568.2412,-165.4179C568.2412,-158.2164 568.2412,-147.8962 568.2412,-138.8632"/>
<polygon fill="#191970" stroke="#191970" points="571.7413,-138.7794 568.2412,-128.7795 564.7413,-138.7795 571.7413,-138.7794"/>
</g>
<!-- Node14 -->
<g id="node15" class="node">
<title>Node14</title>
<g id="a_node15"><a xlink:href="../../dc/dc4/node__wrap_8h.html" target="_top" xlink:title="node_wrap.h">
<polygon fill="#ffffff" stroke="#000000" points="662.3301,-110.5 662.3301,-128.5 736.1523,-128.5 736.1523,-110.5 662.3301,-110.5"/>
<text text-anchor="middle" x="699.2412" y="-116.5" font-family="Helvetica,sans-Serif" font-size="10.00" fill="#000000">node_wrap.h</text>
</a>
</g>
</g>
<!-- Node0&#45;&gt;Node14 -->
<g id="edge16" class="edge">
<title>Node0&#45;&gt;Node14</title>
<path fill="none" stroke="#191970" d="M589.8732,-165.4179C611.2062,-156.4613 644.0291,-142.6806 668.1537,-132.552"/>
<polygon fill="#191970" stroke="#191970" points="669.7117,-135.6939 677.5771,-128.5956 667.0018,-129.2397 669.7117,-135.6939"/>
</g>
<!-- Node15 -->
<g id="node16" class="node">
<title>Node15</title>
<g id="a_node16"><a xlink:href="../../d5/d01/connect__wrap_8h.html" target="_top" xlink:title="connect_wrap.h">
<polygon fill="#ffffff" stroke="#000000" points="753.9409,-110.5 753.9409,-128.5 840.5415,-128.5 840.5415,-110.5 753.9409,-110.5"/>
<text text-anchor="middle" x="797.2412" y="-116.5" font-family="Helvetica,sans-Serif" font-size="10.00" fill="#000000">connect_wrap.h</text>
</a>
</g>
</g>
<!-- Node0&#45;&gt;Node15 -->
<g id="edge17" class="edge">
<title>Node0&#45;&gt;Node15</title>
<path fill="none" stroke="#191970" d="M605.7995,-165.4795C645.1521,-156.0279 707.0732,-141.1561 749.7825,-130.8984"/>
<polygon fill="#191970" stroke="#191970" points="750.7563,-134.2641 759.6624,-128.5255 749.1216,-127.4577 750.7563,-134.2641"/>
</g>
<!-- Node16 -->
<g id="node17" class="node">
<title>Node16</title>
<g id="a_node17"><a xlink:href="../../da/d2f/stream__wrap_8h.html" target="_top" xlink:title="stream_wrap.h">
<polygon fill="#ffffff" stroke="#000000" points="858.1724,-110.5 858.1724,-128.5 940.3101,-128.5 940.3101,-110.5 858.1724,-110.5"/>
<text text-anchor="middle" x="899.2412" y="-116.5" font-family="Helvetica,sans-Serif" font-size="10.00" fill="#000000">stream_wrap.h</text>
</a>
</g>
</g>
<!-- Node0&#45;&gt;Node16 -->
<g id="edge18" class="edge">
<title>Node0&#45;&gt;Node16</title>
<path fill="none" stroke="#191970" d="M614.0569,-167.4738C667.7211,-159.1567 759.5586,-144.6529 848.1137,-129.163"/>
<polygon fill="#191970" stroke="#191970" points="848.8128,-132.5938 858.0568,-127.417 847.6021,-125.6993 848.8128,-132.5938"/>
</g>
<!-- Node17 -->
<g id="node18" class="node">
<title>Node17</title>
<g id="a_node18"><a xlink:href="../../d5/d8c/util-inl_8h.html" target="_top" xlink:title="util&#45;inl.h">
<polygon fill="#ffffff" stroke="#000000" points="958.0122,-110.5 958.0122,-128.5 1008.4702,-128.5 1008.4702,-110.5 958.0122,-110.5"/>
<text text-anchor="middle" x="983.2412" y="-116.5" font-family="Helvetica,sans-Serif" font-size="10.00" fill="#000000">util&#45;inl.h</text>
</a>
</g>
</g>
<!-- Node0&#45;&gt;Node17 -->
<g id="edge19" class="edge">
<title>Node0&#45;&gt;Node17</title>
<path fill="none" stroke="#191970" d="M614.049,-171.3148C684.0634,-165.9483 821.9774,-153.417 947.5496,-129.0863"/>
<polygon fill="#191970" stroke="#191970" points="948.5872,-132.4493 957.7228,-127.0835 947.2351,-125.5811 948.5872,-132.4493"/>
</g>
<!-- Node18 -->
<g id="node19" class="node">
<title>Node18</title>
<g id="a_node19"><a xlink:href="../../d8/d3c/util_8h.html" target="_top" xlink:title="util.h">
<polygon fill="#ffffff" stroke="#000000" points="1026.6797,-110.5 1026.6797,-128.5 1063.8027,-128.5 1063.8027,-110.5 1026.6797,-110.5"/>
<text text-anchor="middle" x="1045.2412" y="-116.5" font-family="Helvetica,sans-Serif" font-size="10.00" fill="#000000">util.h</text>
</a>
</g>
</g>
<!-- Node0&#45;&gt;Node18 -->
<g id="edge20" class="edge">
<title>Node0&#45;&gt;Node18</title>
<path fill="none" stroke="#191970" d="M614.0233,-173.2687C694.0785,-170.38 864.6225,-160.9551 1016.4545,-128.6872"/>
<polygon fill="#191970" stroke="#191970" points="1017.394,-132.065 1026.4272,-126.5286 1015.913,-125.2234 1017.394,-132.065"/>
</g>
<!-- Node8 -->
<g id="node9" class="node">
<title>Node8</title>
<polygon fill="#ffffff" stroke="#bfbfbf" points="495.7905,-.5 495.7905,-18.5 530.6919,-18.5 530.6919,-.5 495.7905,-.5"/>
<text text-anchor="middle" x="513.2412" y="-6.5" font-family="Helvetica,sans-Serif" font-size="10.00" fill="#000000">v8.h</text>
</g>
<!-- Node7&#45;&gt;Node8 -->
<g id="edge8" class="edge">
<title>Node7&#45;&gt;Node8</title>
<path fill="none" stroke="#191970" d="M614.2605,-55.4179C594.0295,-46.222 562.6109,-31.9408 540.187,-21.7481"/>
<polygon fill="#191970" stroke="#191970" points="541.4403,-18.4732 530.8883,-17.5214 538.5436,-24.8458 541.4403,-18.4732"/>
</g>
<!-- Node9 -->
<g id="node10" class="node">
<title>Node9</title>
<g id="a_node10"><a xlink:href="../../da/d9c/node__version_8h.html" target="_top" xlink:title="node_version.h">
<polygon fill="#ffffff" stroke="#000000" points="549.0493,-.5 549.0493,-18.5 633.4331,-18.5 633.4331,-.5 549.0493,-.5"/>
<text text-anchor="middle" x="591.2412" y="-6.5" font-family="Helvetica,sans-Serif" font-size="10.00" fill="#000000">node_version.h</text>
</a>
</g>
</g>
<!-- Node7&#45;&gt;Node9 -->
<g id="edge9" class="edge">
<title>Node7&#45;&gt;Node9</title>
<path fill="none" stroke="#191970" d="M627.1406,-55.4179C621.0773,-47.6624 612.1861,-36.29 604.7694,-26.8035"/>
<polygon fill="#191970" stroke="#191970" points="607.4126,-24.5018 598.4961,-18.7795 601.898,-28.8133 607.4126,-24.5018"/>
</g>
<!-- Node10 -->
<g id="node11" class="node">
<title>Node10</title>
<polygon fill="#ffffff" stroke="#bfbfbf" points="651.4556,-.5 651.4556,-18.5 703.0269,-18.5 703.0269,-.5 651.4556,-.5"/>
<text text-anchor="middle" x="677.2412" y="-6.5" font-family="Helvetica,sans-Serif" font-size="10.00" fill="#000000">assert.h</text>
</g>
<!-- Node7&#45;&gt;Node10 -->
<g id="edge10" class="edge">
<title>Node7&#45;&gt;Node10</title>
<path fill="none" stroke="#191970" d="M641.3418,-55.4179C647.4052,-47.6624 656.2963,-36.29 663.713,-26.8035"/>
<polygon fill="#191970" stroke="#191970" points="666.5844,-28.8133 669.9864,-18.7795 661.0698,-24.5018 666.5844,-28.8133"/>
</g>
<!-- Node11 -->
<g id="node12" class="node">
<title>Node11</title>
<polygon fill="#ffffff" stroke="#bfbfbf" points="721.1206,-.5 721.1206,-18.5 769.3618,-18.5 769.3618,-.5 721.1206,-.5"/>
<text text-anchor="middle" x="745.2412" y="-6.5" font-family="Helvetica,sans-Serif" font-size="10.00" fill="#000000">stdint.h</text>
</g>
<!-- Node7&#45;&gt;Node11 -->
<g id="edge11" class="edge">
<title>Node7&#45;&gt;Node11</title>
<path fill="none" stroke="#191970" d="M652.5706,-55.4179C670.3253,-46.6205 697.4727,-33.1691 717.8028,-23.0956"/>
<polygon fill="#191970" stroke="#191970" points="719.4782,-26.1716 726.8846,-18.5956 716.3703,-19.8994 719.4782,-26.1716"/>
</g>
<!-- Node12 -->
<g id="node13" class="node">
<title>Node12</title>
<polygon fill="#ffffff" stroke="#bfbfbf" points="787.2314,-.5 787.2314,-18.5 853.251,-18.5 853.251,-.5 787.2314,-.5"/>
<text text-anchor="middle" x="820.2412" y="-6.5" font-family="Helvetica,sans-Serif" font-size="10.00" fill="#000000">sys/types.h</text>
</g>
<!-- Node7&#45;&gt;Node12 -->
<g id="edge12" class="edge">
<title>Node7&#45;&gt;Node12</title>
<path fill="none" stroke="#191970" d="M657.7982,-57.5342C688.4464,-48.4716 742.4715,-32.4964 779.7515,-21.4728"/>
<polygon fill="#191970" stroke="#191970" points="781.1919,-24.6967 789.789,-18.5047 779.207,-17.984 781.1919,-24.6967"/>
</g>
<!-- Node13&#45;&gt;Node7 -->
<g id="edge14" class="edge">
<title>Node13&#45;&gt;Node7</title>
<path fill="none" stroke="#191970" d="M579.1398,-110.4179C588.9212,-102.2667 603.4971,-90.1201 615.2009,-80.3669"/>
<polygon fill="#191970" stroke="#191970" points="617.6643,-82.8701 623.1059,-73.7795 613.183,-77.4926 617.6643,-82.8701"/>
</g>
<!-- Node13&#45;&gt;Node8 -->
<g id="edge15" class="edge">
<title>Node13&#45;&gt;Node8</title>
<path fill="none" stroke="#191970" d="M563.7403,-110.4982C554.716,-92.4496 534.2565,-51.5306 522.3333,-27.6843"/>
<polygon fill="#191970" stroke="#191970" points="525.407,-26.0052 517.8043,-18.6261 519.146,-29.1357 525.407,-26.0052"/>
</g>
</g>
</svg>
