<?xml version="1.0" encoding="UTF-8" standalone="no"?>
<!DOCTYPE svg PUBLIC "-//W3C//DTD SVG 1.1//EN"
 "http://www.w3.org/Graphics/SVG/1.1/DTD/svg11.dtd">
<!-- Generated by graphviz version 2.40.1 (20161225.0304)
 -->
<!-- Title: src/js_stream.h Pages: 1 -->
<svg width="216pt" height="82pt"
 viewBox="0.00 0.00 216.46 82.00" xmlns="http://www.w3.org/2000/svg" xmlns:xlink="http://www.w3.org/1999/xlink">
<g id="graph0" class="graph" transform="scale(1 1) rotate(0) translate(4 78)">
<title>src/js_stream.h</title>
<polygon fill="#ffffff" stroke="transparent" points="-4,4 -4,-78 212.4629,-78 212.4629,4 -4,4"/>
<!-- Node1 -->
<g id="node1" class="node">
<title>Node1</title>
<polygon fill="#bfbfbf" stroke="#000000" points="58.2192,-55.5 58.2192,-73.5 142.0122,-73.5 142.0122,-55.5 58.2192,-55.5"/>
<text text-anchor="middle" x="100.1157" y="-61.5" font-family="Helvetica,sans-Serif" font-size="10.00" fill="#000000">src/js_stream.h</text>
</g>
<!-- Node2 -->
<g id="node2" class="node">
<title>Node2</title>
<g id="a_node2"><a xlink:href="../../d4/da3/js__stream_8cc.html" target="_top" xlink:title="src/js_stream.cc">
<polygon fill="#ffffff" stroke="#000000" points="0,-.5 0,-18.5 88.2314,-18.5 88.2314,-.5 0,-.5"/>
<text text-anchor="middle" x="44.1157" y="-6.5" font-family="Helvetica,sans-Serif" font-size="10.00" fill="#000000">src/js_stream.cc</text>
</a>
</g>
</g>
<!-- Node1&#45;&gt;Node2 -->
<g id="edge1" class="edge">
<title>Node1&#45;&gt;Node2</title>
<path fill="none" stroke="#191970" d="M83.6203,-48.2992C73.8291,-38.6828 61.7658,-26.8349 53.5639,-18.7795"/>
<polygon fill="#191970" stroke="#191970" points="81.2815,-50.9078 90.8685,-55.4179 86.1864,-45.9137 81.2815,-50.9078"/>
</g>
<!-- Node3 -->
<g id="node3" class="node">
<title>Node3</title>
<g id="a_node3"><a xlink:href="../../d6/d00/stream__base_8cc.html" target="_top" xlink:title="src/stream_base.cc">
<polygon fill="#ffffff" stroke="#000000" points="105.7686,-.5 105.7686,-18.5 208.4629,-18.5 208.4629,-.5 105.7686,-.5"/>
<text text-anchor="middle" x="157.1157" y="-6.5" font-family="Helvetica,sans-Serif" font-size="10.00" fill="#000000">src/stream_base.cc</text>
</a>
</g>
</g>
<!-- Node1&#45;&gt;Node3 -->
<g id="edge2" class="edge">
<title>Node1&#45;&gt;Node3</title>
<path fill="none" stroke="#191970" d="M116.9057,-48.2992C126.8718,-38.6828 139.1504,-26.8349 147.4988,-18.7795"/>
<polygon fill="#191970" stroke="#191970" points="114.294,-45.9555 109.5281,-55.4179 119.1546,-50.9928 114.294,-45.9555"/>
</g>
</g>
</svg>
