<?xml version="1.0" encoding="UTF-8" standalone="no"?>
<!DOCTYPE svg PUBLIC "-//W3C//DTD SVG 1.1//EN"
 "http://www.w3.org/Graphics/SVG/1.1/DTD/svg11.dtd">
<!-- Generated by graphviz version 2.40.1 (20161225.0304)
 -->
<!-- Title: src/module_wrap.cc Pages: 1 -->
<svg width="571pt" height="82pt"
 viewBox="0.00 0.00 570.79 82.00" xmlns="http://www.w3.org/2000/svg" xmlns:xlink="http://www.w3.org/1999/xlink">
<g id="graph0" class="graph" transform="scale(1 1) rotate(0) translate(4 78)">
<title>src/module_wrap.cc</title>
<polygon fill="#ffffff" stroke="transparent" points="-4,4 -4,-78 566.793,-78 566.793,4 -4,4"/>
<!-- Node0 -->
<g id="node1" class="node">
<title>Node0</title>
<polygon fill="#bfbfbf" stroke="#000000" points="246.1035,-55.5 246.1035,-73.5 351.0244,-73.5 351.0244,-55.5 246.1035,-55.5"/>
<text text-anchor="middle" x="298.564" y="-61.5" font-family="Helvetica,sans-Serif" font-size="10.00" fill="#000000">src/module_wrap.cc</text>
</g>
<!-- Node1 -->
<g id="node2" class="node">
<title>Node1</title>
<polygon fill="#ffffff" stroke="#bfbfbf" points="0,-.5 0,-18.5 57.1279,-18.5 57.1279,-.5 0,-.5"/>
<text text-anchor="middle" x="28.564" y="-6.5" font-family="Helvetica,sans-Serif" font-size="10.00" fill="#000000">algorithm</text>
</g>
<!-- Node0&#45;&gt;Node1 -->
<g id="edge1" class="edge">
<title>Node0&#45;&gt;Node1</title>
<path fill="none" stroke="#191970" d="M247.9347,-55.4958C202.8348,-47.2761 134.8248,-34.3953 67.1818,-19.2771"/>
<polygon fill="#191970" stroke="#191970" points="67.7318,-15.8133 57.2071,-17.0306 66.1937,-22.6423 67.7318,-15.8133"/>
</g>
<!-- Node2 -->
<g id="node3" class="node">
<title>Node2</title>
<polygon fill="#ffffff" stroke="#bfbfbf" points="75.0073,-.5 75.0073,-18.5 122.1206,-18.5 122.1206,-.5 75.0073,-.5"/>
<text text-anchor="middle" x="98.564" y="-6.5" font-family="Helvetica,sans-Serif" font-size="10.00" fill="#000000">limits.h</text>
</g>
<!-- Node0&#45;&gt;Node2 -->
<g id="edge2" class="edge">
<title>Node0&#45;&gt;Node2</title>
<path fill="none" stroke="#191970" d="M264.939,-55.4901C233.1637,-46.9424 183.9149,-33.6081 132.0555,-19.1099"/>
<polygon fill="#191970" stroke="#191970" points="132.9189,-15.7171 122.3454,-16.3901 131.0308,-22.4577 132.9189,-15.7171"/>
</g>
<!-- Node3 -->
<g id="node4" class="node">
<title>Node3</title>
<polygon fill="#ffffff" stroke="#bfbfbf" points="140.4458,-.5 140.4458,-18.5 198.6821,-18.5 198.6821,-.5 140.4458,-.5"/>
<text text-anchor="middle" x="169.564" y="-6.5" font-family="Helvetica,sans-Serif" font-size="10.00" fill="#000000">sys/stat.h</text>
</g>
<!-- Node0&#45;&gt;Node3 -->
<g id="edge3" class="edge">
<title>Node0&#45;&gt;Node3</title>
<path fill="none" stroke="#191970" d="M277.2622,-55.4179C256.2549,-46.4613 223.9331,-32.6806 200.1768,-22.552"/>
<polygon fill="#191970" stroke="#191970" points="201.4689,-19.2981 190.8973,-18.5956 198.7234,-25.7372 201.4689,-19.2981"/>
</g>
<!-- Node4 -->
<g id="node5" class="node">
<title>Node4</title>
<g id="a_node5"><a xlink:href="../../d4/da3/module__wrap_8h.html" target="_top" xlink:title="module_wrap.h">
<polygon fill="#ffffff" stroke="#000000" points="216.377,-.5 216.377,-18.5 300.751,-18.5 300.751,-.5 216.377,-.5"/>
<text text-anchor="middle" x="258.564" y="-6.5" font-family="Helvetica,sans-Serif" font-size="10.00" fill="#000000">module_wrap.h</text>
</a>
</g>
</g>
<!-- Node0&#45;&gt;Node4 -->
<g id="edge4" class="edge">
<title>Node0&#45;&gt;Node4</title>
<path fill="none" stroke="#191970" d="M291.9588,-55.4179C286.376,-47.7415 278.2161,-36.5217 271.36,-27.0945"/>
<polygon fill="#191970" stroke="#191970" points="274.025,-24.8082 265.3127,-18.7795 268.3638,-28.9255 274.025,-24.8082"/>
</g>
<!-- Node5 -->
<g id="node6" class="node">
<title>Node5</title>
<g id="a_node6"><a xlink:href="../../d5/d81/env_8h.html" target="_top" xlink:title="env.h">
<polygon fill="#ffffff" stroke="#000000" points="318.7012,-.5 318.7012,-18.5 358.4268,-18.5 358.4268,-.5 318.7012,-.5"/>
<text text-anchor="middle" x="338.564" y="-6.5" font-family="Helvetica,sans-Serif" font-size="10.00" fill="#000000">env.h</text>
</a>
</g>
</g>
<!-- Node0&#45;&gt;Node5 -->
<g id="edge5" class="edge">
<title>Node0&#45;&gt;Node5</title>
<path fill="none" stroke="#191970" d="M305.1692,-55.4179C310.7519,-47.7415 318.9118,-36.5217 325.768,-27.0945"/>
<polygon fill="#191970" stroke="#191970" points="328.7641,-28.9255 331.8153,-18.7795 323.1029,-24.8082 328.7641,-28.9255"/>
</g>
<!-- Node6 -->
<g id="node7" class="node">
<title>Node6</title>
<g id="a_node7"><a xlink:href="../../d0/d24/node__url_8h.html" target="_top" xlink:title="node_url.h">
<polygon fill="#ffffff" stroke="#000000" points="375.9336,-.5 375.9336,-18.5 439.1943,-18.5 439.1943,-.5 375.9336,-.5"/>
<text text-anchor="middle" x="407.564" y="-6.5" font-family="Helvetica,sans-Serif" font-size="10.00" fill="#000000">node_url.h</text>
</a>
</g>
</g>
<!-- Node0&#45;&gt;Node6 -->
<g id="edge6" class="edge">
<title>Node0&#45;&gt;Node6</title>
<path fill="none" stroke="#191970" d="M316.5631,-55.4179C333.919,-46.6603 360.415,-33.2907 380.3485,-23.2326"/>
<polygon fill="#191970" stroke="#191970" points="382.187,-26.2253 389.5381,-18.5956 379.0335,-19.9758 382.187,-26.2253"/>
</g>
<!-- Node7 -->
<g id="node8" class="node">
<title>Node7</title>
<g id="a_node8"><a xlink:href="../../d8/d3c/util_8h.html" target="_top" xlink:title="util.h">
<polygon fill="#ffffff" stroke="#000000" points="457.0024,-.5 457.0024,-18.5 494.1255,-18.5 494.1255,-.5 457.0024,-.5"/>
<text text-anchor="middle" x="475.564" y="-6.5" font-family="Helvetica,sans-Serif" font-size="10.00" fill="#000000">util.h</text>
</a>
</g>
</g>
<!-- Node0&#45;&gt;Node7 -->
<g id="edge7" class="edge">
<title>Node0&#45;&gt;Node7</title>
<path fill="none" stroke="#191970" d="M329.7149,-55.4836C358.12,-47.1669 401.4603,-34.2413 446.9761,-19.4364"/>
<polygon fill="#191970" stroke="#191970" points="448.3011,-22.6855 456.7171,-16.2496 446.1245,-16.0325 448.3011,-22.6855"/>
</g>
<!-- Node8 -->
<g id="node9" class="node">
<title>Node8</title>
<g id="a_node9"><a xlink:href="../../d5/d8c/util-inl_8h.html" target="_top" xlink:title="util&#45;inl.h">
<polygon fill="#ffffff" stroke="#000000" points="512.335,-.5 512.335,-18.5 562.793,-18.5 562.793,-.5 512.335,-.5"/>
<text text-anchor="middle" x="537.564" y="-6.5" font-family="Helvetica,sans-Serif" font-size="10.00" fill="#000000">util&#45;inl.h</text>
</a>
</g>
</g>
<!-- Node0&#45;&gt;Node8 -->
<g id="edge8" class="edge">
<title>Node0&#45;&gt;Node8</title>
<path fill="none" stroke="#191970" d="M342.7139,-55.4215C382.1449,-47.1521 441.7028,-34.2676 501.9234,-19.3219"/>
<polygon fill="#191970" stroke="#191970" points="503.1309,-22.6279 511.9836,-16.8071 501.4333,-15.8368 503.1309,-22.6279"/>
</g>
</g>
</svg>
