<?xml version="1.0" encoding="UTF-8" standalone="no"?>
<!DOCTYPE svg PUBLIC "-//W3C//DTD SVG 1.1//EN"
 "http://www.w3.org/Graphics/SVG/1.1/DTD/svg11.dtd">
<!-- Generated by graphviz version 2.40.1 (20161225.0304)
 -->
<!-- Title: src/udp_wrap.h Pages: 1 -->
<svg width="218pt" height="82pt"
 viewBox="0.00 0.00 217.75 82.00" xmlns="http://www.w3.org/2000/svg" xmlns:xlink="http://www.w3.org/1999/xlink">
<g id="graph0" class="graph" transform="scale(1 1) rotate(0) translate(4 78)">
<title>src/udp_wrap.h</title>
<polygon fill="#ffffff" stroke="transparent" points="-4,4 -4,-78 213.7461,-78 213.7461,4 -4,4"/>
<!-- Node1 -->
<g id="node1" class="node">
<title>Node1</title>
<polygon fill="#bfbfbf" stroke="#000000" points="66.1577,-55.5 66.1577,-73.5 150.5269,-73.5 150.5269,-55.5 66.1577,-55.5"/>
<text text-anchor="middle" x="108.3423" y="-61.5" font-family="Helvetica,sans-Serif" font-size="10.00" fill="#000000">src/udp_wrap.h</text>
</g>
<!-- Node2 -->
<g id="node2" class="node">
<title>Node2</title>
<g id="a_node2"><a xlink:href="../../dc/d29/stream__wrap_8cc.html" target="_top" xlink:title="src/stream_wrap.cc">
<polygon fill="#ffffff" stroke="#000000" points="0,-.5 0,-18.5 102.6846,-18.5 102.6846,-.5 0,-.5"/>
<text text-anchor="middle" x="51.3423" y="-6.5" font-family="Helvetica,sans-Serif" font-size="10.00" fill="#000000">src/stream_wrap.cc</text>
</a>
</g>
</g>
<!-- Node1&#45;&gt;Node2 -->
<g id="edge1" class="edge">
<title>Node1&#45;&gt;Node2</title>
<path fill="none" stroke="#191970" d="M91.5523,-48.2992C81.5862,-38.6828 69.3076,-26.8349 60.9592,-18.7795"/>
<polygon fill="#191970" stroke="#191970" points="89.3034,-50.9928 98.9299,-55.4179 94.164,-45.9555 89.3034,-50.9928"/>
</g>
<!-- Node3 -->
<g id="node3" class="node">
<title>Node3</title>
<g id="a_node3"><a xlink:href="../../d1/d05/udp__wrap_8cc.html" target="_top" xlink:title="src/udp_wrap.cc">
<polygon fill="#ffffff" stroke="#000000" points="120.9385,-.5 120.9385,-18.5 209.7461,-18.5 209.7461,-.5 120.9385,-.5"/>
<text text-anchor="middle" x="165.3423" y="-6.5" font-family="Helvetica,sans-Serif" font-size="10.00" fill="#000000">src/udp_wrap.cc</text>
</a>
</g>
</g>
<!-- Node1&#45;&gt;Node3 -->
<g id="edge2" class="edge">
<title>Node1&#45;&gt;Node3</title>
<path fill="none" stroke="#191970" d="M125.1322,-48.2992C135.0983,-38.6828 147.377,-26.8349 155.7254,-18.7795"/>
<polygon fill="#191970" stroke="#191970" points="122.5206,-45.9555 117.7547,-55.4179 127.3812,-50.9928 122.5206,-45.9555"/>
</g>
</g>
</svg>
