<?xml version="1.0" encoding="UTF-8" standalone="no"?>
<!DOCTYPE svg PUBLIC "-//W3C//DTD SVG 1.1//EN"
 "http://www.w3.org/Graphics/SVG/1.1/DTD/svg11.dtd">
<!-- Generated by graphviz version 2.40.1 (20161225.0304)
 -->
<!-- Title: src/req&#45;wrap&#45;inl.h Pages: 1 -->
<svg width="747pt" height="82pt"
 viewBox="0.00 0.00 746.69 82.00" xmlns="http://www.w3.org/2000/svg" xmlns:xlink="http://www.w3.org/1999/xlink">
<g id="graph0" class="graph" transform="scale(1 1) rotate(0) translate(4 78)">
<title>src/req&#45;wrap&#45;inl.h</title>
<polygon fill="#ffffff" stroke="transparent" points="-4,4 -4,-78 742.6919,-78 742.6919,4 -4,4"/>
<!-- Node1 -->
<g id="node1" class="node">
<title>Node1</title>
<polygon fill="#bfbfbf" stroke="#000000" points="320.6675,-55.5 320.6675,-73.5 413.9087,-73.5 413.9087,-55.5 320.6675,-55.5"/>
<text text-anchor="middle" x="367.2881" y="-61.5" font-family="Helvetica,sans-Serif" font-size="10.00" fill="#000000">src/req&#45;wrap&#45;inl.h</text>
</g>
<!-- Node2 -->
<g id="node2" class="node">
<title>Node2</title>
<g id="a_node2"><a xlink:href="../../dc/ded/cares__wrap_8cc.html" target="_top" xlink:title="src/cares_wrap.cc">
<polygon fill="#ffffff" stroke="#000000" points="0,-.5 0,-18.5 96.5762,-18.5 96.5762,-.5 0,-.5"/>
<text text-anchor="middle" x="48.2881" y="-6.5" font-family="Helvetica,sans-Serif" font-size="10.00" fill="#000000">src/cares_wrap.cc</text>
</a>
</g>
</g>
<!-- Node1&#45;&gt;Node2 -->
<g id="edge1" class="edge">
<title>Node1&#45;&gt;Node2</title>
<path fill="none" stroke="#191970" d="M310.362,-54.6852C249.5133,-44.194 154.0737,-27.7389 96.7089,-17.8484"/>
<polygon fill="#191970" stroke="#191970" points="310.1118,-58.1936 320.5611,-56.4436 311.3012,-51.2954 310.1118,-58.1936"/>
</g>
<!-- Node3 -->
<g id="node3" class="node">
<title>Node3</title>
<g id="a_node3"><a xlink:href="../../d3/d36/connect__wrap_8cc.html" target="_top" xlink:title="src/connect_wrap.cc">
<polygon fill="#ffffff" stroke="#000000" points="114.7144,-.5 114.7144,-18.5 221.8618,-18.5 221.8618,-.5 114.7144,-.5"/>
<text text-anchor="middle" x="168.2881" y="-6.5" font-family="Helvetica,sans-Serif" font-size="10.00" fill="#000000">src/connect_wrap.cc</text>
</a>
</g>
</g>
<!-- Node1&#45;&gt;Node3 -->
<g id="edge2" class="edge">
<title>Node1&#45;&gt;Node3</title>
<path fill="none" stroke="#191970" d="M324.4182,-52.6515C287.351,-42.4068 234.5647,-27.8177 200.867,-18.5042"/>
<polygon fill="#191970" stroke="#191970" points="323.8562,-56.1274 334.4273,-55.4179 325.721,-49.3803 323.8562,-56.1274"/>
</g>
<!-- Node4 -->
<g id="node4" class="node">
<title>Node4</title>
<g id="a_node4"><a xlink:href="../../dc/dfd/node_8cc.html" target="_top" xlink:title="src/node.cc">
<polygon fill="#ffffff" stroke="#000000" points="239.7217,-.5 239.7217,-18.5 306.8545,-18.5 306.8545,-.5 239.7217,-.5"/>
<text text-anchor="middle" x="273.2881" y="-6.5" font-family="Helvetica,sans-Serif" font-size="10.00" fill="#000000">src/node.cc</text>
</a>
</g>
</g>
<!-- Node1&#45;&gt;Node4 -->
<g id="edge3" class="edge">
<title>Node1&#45;&gt;Node4</title>
<path fill="none" stroke="#191970" d="M342.9015,-50.2313C325.8315,-40.2435 303.5366,-27.1986 288.8333,-18.5956"/>
<polygon fill="#191970" stroke="#191970" points="341.3672,-53.3886 351.7659,-55.4179 344.9023,-47.3468 341.3672,-53.3886"/>
</g>
<!-- Node5 -->
<g id="node5" class="node">
<title>Node5</title>
<g id="a_node5"><a xlink:href="../../dd/daa/node__file_8cc.html" target="_top" xlink:title="src/node_file.cc">
<polygon fill="#ffffff" stroke="#000000" points="324.5493,-.5 324.5493,-18.5 410.0269,-18.5 410.0269,-.5 324.5493,-.5"/>
<text text-anchor="middle" x="367.2881" y="-6.5" font-family="Helvetica,sans-Serif" font-size="10.00" fill="#000000">src/node_file.cc</text>
</a>
</g>
</g>
<!-- Node1&#45;&gt;Node5 -->
<g id="edge4" class="edge">
<title>Node1&#45;&gt;Node5</title>
<path fill="none" stroke="#191970" d="M367.2881,-45.383C367.2881,-36.3738 367.2881,-26.0373 367.2881,-18.7795"/>
<polygon fill="#191970" stroke="#191970" points="363.7882,-45.4178 367.2881,-55.4179 370.7882,-45.4179 363.7882,-45.4178"/>
</g>
<!-- Node6 -->
<g id="node6" class="node">
<title>Node6</title>
<g id="a_node6"><a xlink:href="../../dc/d29/stream__wrap_8cc.html" target="_top" xlink:title="src/stream_wrap.cc">
<polygon fill="#ffffff" stroke="#000000" points="427.9458,-.5 427.9458,-18.5 530.6304,-18.5 530.6304,-.5 427.9458,-.5"/>
<text text-anchor="middle" x="479.2881" y="-6.5" font-family="Helvetica,sans-Serif" font-size="10.00" fill="#000000">src/stream_wrap.cc</text>
</a>
</g>
</g>
<!-- Node1&#45;&gt;Node6 -->
<g id="edge5" class="edge">
<title>Node1&#45;&gt;Node6</title>
<path fill="none" stroke="#191970" d="M394.9422,-50.9198C415.4485,-40.8498 442.8418,-27.3977 460.7661,-18.5956"/>
<polygon fill="#191970" stroke="#191970" points="393.2159,-47.8683 385.7826,-55.4179 396.3015,-54.1515 393.2159,-47.8683"/>
</g>
<!-- Node7 -->
<g id="node7" class="node">
<title>Node7</title>
<g id="a_node7"><a xlink:href="../../de/d6d/tty__wrap_8cc.html" target="_top" xlink:title="src/tty_wrap.cc">
<polygon fill="#ffffff" stroke="#000000" points="548.9482,-.5 548.9482,-18.5 631.6279,-18.5 631.6279,-.5 548.9482,-.5"/>
<text text-anchor="middle" x="590.2881" y="-6.5" font-family="Helvetica,sans-Serif" font-size="10.00" fill="#000000">src/tty_wrap.cc</text>
</a>
</g>
</g>
<!-- Node1&#45;&gt;Node7 -->
<g id="edge6" class="edge">
<title>Node1&#45;&gt;Node7</title>
<path fill="none" stroke="#191970" d="M414.003,-52.9784C455.5994,-42.7192 515.6149,-27.9172 553.7801,-18.5042"/>
<polygon fill="#191970" stroke="#191970" points="412.9829,-49.625 404.112,-55.4179 414.6592,-56.4214 412.9829,-49.625"/>
</g>
<!-- Node8 -->
<g id="node8" class="node">
<title>Node8</title>
<g id="a_node8"><a xlink:href="../../d1/d05/udp__wrap_8cc.html" target="_top" xlink:title="src/udp_wrap.cc">
<polygon fill="#ffffff" stroke="#000000" points="649.8843,-.5 649.8843,-18.5 738.6919,-18.5 738.6919,-.5 649.8843,-.5"/>
<text text-anchor="middle" x="694.2881" y="-6.5" font-family="Helvetica,sans-Serif" font-size="10.00" fill="#000000">src/udp_wrap.cc</text>
</a>
</g>
</g>
<!-- Node1&#45;&gt;Node8 -->
<g id="edge7" class="edge">
<title>Node1&#45;&gt;Node8</title>
<path fill="none" stroke="#191970" d="M424.1113,-55.1823C479.3503,-46.0883 565.6085,-31.7921 640.2881,-19 643.3843,-18.4696 646.5795,-17.9182 649.7968,-17.3598"/>
<polygon fill="#191970" stroke="#191970" points="423.4668,-51.7412 414.1677,-56.8183 424.6033,-58.6484 423.4668,-51.7412"/>
</g>
</g>
</svg>
