<?xml version="1.0" encoding="UTF-8" standalone="no"?>
<!DOCTYPE svg PUBLIC "-//W3C//DTD SVG 1.1//EN"
 "http://www.w3.org/Graphics/SVG/1.1/DTD/svg11.dtd">
<!-- Generated by graphviz version 2.40.1 (20161225.0304)
 -->
<!-- Title: src/node_platform.cc Pages: 1 -->
<svg width="398pt" height="192pt"
 viewBox="0.00 0.00 398.41 192.00" xmlns="http://www.w3.org/2000/svg" xmlns:xlink="http://www.w3.org/1999/xlink">
<g id="graph0" class="graph" transform="scale(1 1) rotate(0) translate(4 188)">
<title>src/node_platform.cc</title>
<polygon fill="#ffffff" stroke="transparent" points="-4,4 -4,-188 394.4117,-188 394.4117,4 -4,4"/>
<!-- Node0 -->
<g id="node1" class="node">
<title>Node0</title>
<polygon fill="#bfbfbf" stroke="#000000" points="240.4951,-165.5 240.4951,-183.5 349.3125,-183.5 349.3125,-165.5 240.4951,-165.5"/>
<text text-anchor="middle" x="294.9038" y="-171.5" font-family="Helvetica,sans-Serif" font-size="10.00" fill="#000000">src/node_platform.cc</text>
</g>
<!-- Node1 -->
<g id="node2" class="node">
<title>Node1</title>
<g id="a_node2"><a xlink:href="../../d4/d4f/node__platform_8h.html" target="_top" xlink:title="node_platform.h">
<polygon fill="#ffffff" stroke="#000000" points="182.7686,-110.5 182.7686,-128.5 271.0391,-128.5 271.0391,-110.5 182.7686,-110.5"/>
<text text-anchor="middle" x="226.9038" y="-116.5" font-family="Helvetica,sans-Serif" font-size="10.00" fill="#000000">node_platform.h</text>
</a>
</g>
</g>
<!-- Node0&#45;&gt;Node1 -->
<g id="edge1" class="edge">
<title>Node0&#45;&gt;Node1</title>
<path fill="none" stroke="#191970" d="M283.675,-165.4179C273.4994,-157.1876 258.2875,-144.8839 246.1707,-135.0836"/>
<polygon fill="#191970" stroke="#191970" points="248.3528,-132.3469 238.3766,-128.7795 243.9507,-137.7895 248.3528,-132.3469"/>
</g>
<!-- Node6 -->
<g id="node7" class="node">
<title>Node6</title>
<g id="a_node7"><a xlink:href="../../d8/d3c/util_8h.html" target="_top" xlink:title="util.h">
<polygon fill="#ffffff" stroke="#000000" points="350.3423,-.5 350.3423,-18.5 387.4653,-18.5 387.4653,-.5 350.3423,-.5"/>
<text text-anchor="middle" x="368.9038" y="-6.5" font-family="Helvetica,sans-Serif" font-size="10.00" fill="#000000">util.h</text>
</a>
</g>
</g>
<!-- Node0&#45;&gt;Node6 -->
<g id="edge9" class="edge">
<title>Node0&#45;&gt;Node6</title>
<path fill="none" stroke="#191970" d="M308.3442,-165.3015C329.9906,-149.5684 371.7774,-115.1706 387.9038,-74 393.8751,-58.7555 387.6009,-40.8553 380.7065,-27.7848"/>
<polygon fill="#191970" stroke="#191970" points="383.563,-25.735 375.5059,-18.8551 377.5141,-29.2579 383.563,-25.735"/>
</g>
<!-- Node2 -->
<g id="node3" class="node">
<title>Node2</title>
<polygon fill="#ffffff" stroke="#bfbfbf" points="0,-55.5 0,-73.5 43.8076,-73.5 43.8076,-55.5 0,-55.5"/>
<text text-anchor="middle" x="21.9038" y="-61.5" font-family="Helvetica,sans-Serif" font-size="10.00" fill="#000000">queue</text>
</g>
<!-- Node1&#45;&gt;Node2 -->
<g id="edge2" class="edge">
<title>Node1&#45;&gt;Node2</title>
<path fill="none" stroke="#191970" d="M190.459,-110.4394C157.2386,-102.0763 106.5858,-89.0658 53.7693,-74.1638"/>
<polygon fill="#191970" stroke="#191970" points="54.4614,-70.7221 43.8858,-71.3599 52.5509,-77.4563 54.4614,-70.7221"/>
</g>
<!-- Node3 -->
<g id="node4" class="node">
<title>Node3</title>
<polygon fill="#ffffff" stroke="#bfbfbf" points="62.2881,-55.5 62.2881,-73.5 105.5195,-73.5 105.5195,-55.5 62.2881,-55.5"/>
<text text-anchor="middle" x="83.9038" y="-61.5" font-family="Helvetica,sans-Serif" font-size="10.00" fill="#000000">vector</text>
</g>
<!-- Node1&#45;&gt;Node3 -->
<g id="edge3" class="edge">
<title>Node1&#45;&gt;Node3</title>
<path fill="none" stroke="#191970" d="M203.2903,-110.4179C179.2334,-101.1652 141.7912,-86.7644 115.2595,-76.5599"/>
<polygon fill="#191970" stroke="#191970" points="116.2658,-73.197 105.6759,-72.8739 113.7529,-79.7304 116.2658,-73.197"/>
</g>
<!-- Node4 -->
<g id="node5" class="node">
<title>Node4</title>
<polygon fill="#ffffff" stroke="#bfbfbf" points="123.2168,-55.5 123.2168,-73.5 242.5908,-73.5 242.5908,-55.5 123.2168,-55.5"/>
<text text-anchor="middle" x="182.9038" y="-61.5" font-family="Helvetica,sans-Serif" font-size="10.00" fill="#000000">libplatform/libplatform.h</text>
</g>
<!-- Node1&#45;&gt;Node4 -->
<g id="edge4" class="edge">
<title>Node1&#45;&gt;Node4</title>
<path fill="none" stroke="#191970" d="M219.6381,-110.4179C213.4337,-102.6624 204.3358,-91.29 196.7466,-81.8035"/>
<polygon fill="#191970" stroke="#191970" points="199.3074,-79.4017 190.3274,-73.7795 193.8413,-83.7746 199.3074,-79.4017"/>
</g>
<!-- Node5 -->
<g id="node6" class="node">
<title>Node5</title>
<g id="a_node6"><a xlink:href="../../d8/dc3/node__mutex_8h.html" target="_top" xlink:title="node_mutex.h">
<polygon fill="#ffffff" stroke="#000000" points="299.2144,-55.5 299.2144,-73.5 378.5933,-73.5 378.5933,-55.5 299.2144,-55.5"/>
<text text-anchor="middle" x="338.9038" y="-61.5" font-family="Helvetica,sans-Serif" font-size="10.00" fill="#000000">node_mutex.h</text>
</a>
</g>
</g>
<!-- Node1&#45;&gt;Node5 -->
<g id="edge5" class="edge">
<title>Node1&#45;&gt;Node5</title>
<path fill="none" stroke="#191970" d="M245.3983,-110.4179C263.313,-101.6205 290.7049,-88.1691 311.2182,-78.0956"/>
<polygon fill="#191970" stroke="#191970" points="312.9485,-81.1452 320.3818,-73.5956 309.8629,-74.8619 312.9485,-81.1452"/>
</g>
<!-- Node7 -->
<g id="node8" class="node">
<title>Node7</title>
<polygon fill="#ffffff" stroke="#bfbfbf" points="290.8218,-.5 290.8218,-18.5 324.9858,-18.5 324.9858,-.5 290.8218,-.5"/>
<text text-anchor="middle" x="307.9038" y="-6.5" font-family="Helvetica,sans-Serif" font-size="10.00" fill="#000000">uv.h</text>
</g>
<!-- Node1&#45;&gt;Node7 -->
<g id="edge8" class="edge">
<title>Node1&#45;&gt;Node7</title>
<path fill="none" stroke="#191970" d="M233.5324,-110.4982C247.0007,-92.2079 277.7641,-50.4304 295.2123,-26.7354"/>
<polygon fill="#191970" stroke="#191970" points="298.0725,-28.7539 301.1836,-18.6261 292.4358,-24.6032 298.0725,-28.7539"/>
</g>
<!-- Node5&#45;&gt;Node6 -->
<g id="edge6" class="edge">
<title>Node5&#45;&gt;Node6</title>
<path fill="none" stroke="#191970" d="M343.8577,-55.4179C347.9585,-47.8998 353.9131,-36.9829 358.9875,-27.6799"/>
<polygon fill="#191970" stroke="#191970" points="362.1264,-29.2344 363.8423,-18.7795 355.9811,-25.8824 362.1264,-29.2344"/>
</g>
<!-- Node5&#45;&gt;Node7 -->
<g id="edge7" class="edge">
<title>Node5&#45;&gt;Node7</title>
<path fill="none" stroke="#191970" d="M333.7848,-55.4179C329.5473,-47.8998 323.3942,-36.9829 318.1506,-27.6799"/>
<polygon fill="#191970" stroke="#191970" points="321.0933,-25.7724 313.134,-18.7795 314.9952,-29.2096 321.0933,-25.7724"/>
</g>
</g>
</svg>
