<?xml version="1.0" encoding="UTF-8" standalone="no"?>
<!DOCTYPE svg PUBLIC "-//W3C//DTD SVG 1.1//EN"
 "http://www.w3.org/Graphics/SVG/1.1/DTD/svg11.dtd">
<!-- Generated by graphviz version 2.40.1 (20161225.0304)
 -->
<!-- Title: src/async&#45;wrap&#45;inl.h Pages: 1 -->
<svg width="1391pt" height="82pt"
 viewBox="0.00 0.00 1391.07 82.00" xmlns="http://www.w3.org/2000/svg" xmlns:xlink="http://www.w3.org/1999/xlink">
<g id="graph0" class="graph" transform="scale(1 1) rotate(0) translate(4 78)">
<title>src/async&#45;wrap&#45;inl.h</title>
<polygon fill="#ffffff" stroke="transparent" points="-4,4 -4,-78 1387.0688,-78 1387.0688,4 -4,4"/>
<!-- Node1 -->
<g id="node1" class="node">
<title>Node1</title>
<polygon fill="#bfbfbf" stroke="#000000" points="623.5518,-55.5 623.5518,-73.5 728.4629,-73.5 728.4629,-55.5 623.5518,-55.5"/>
<text text-anchor="middle" x="676.0073" y="-61.5" font-family="Helvetica,sans-Serif" font-size="10.00" fill="#000000">src/async&#45;wrap&#45;inl.h</text>
</g>
<!-- Node2 -->
<g id="node2" class="node">
<title>Node2</title>
<g id="a_node2"><a xlink:href="../../de/dd2/async-wrap_8cc.html" target="_top" xlink:title="src/async&#45;wrap.cc">
<polygon fill="#ffffff" stroke="#000000" points="0,-.5 0,-18.5 96.0146,-18.5 96.0146,-.5 0,-.5"/>
<text text-anchor="middle" x="48.0073" y="-6.5" font-family="Helvetica,sans-Serif" font-size="10.00" fill="#000000">src/async&#45;wrap.cc</text>
</a>
</g>
</g>
<!-- Node1&#45;&gt;Node2 -->
<g id="edge1" class="edge">
<title>Node1&#45;&gt;Node2</title>
<path fill="none" stroke="#191970" d="M613.3708,-61.2681C508.0973,-55.4427 289.1262,-41.6368 105.0073,-19 102.1197,-18.645 99.1548,-18.2485 96.1673,-17.8245"/>
<polygon fill="#191970" stroke="#191970" points="613.3273,-64.7709 623.5039,-61.8235 613.7105,-57.7814 613.3273,-64.7709"/>
</g>
<!-- Node3 -->
<g id="node3" class="node">
<title>Node3</title>
<g id="a_node3"><a xlink:href="../../dc/ded/cares__wrap_8cc.html" target="_top" xlink:title="src/cares_wrap.cc">
<polygon fill="#ffffff" stroke="#000000" points="113.7192,-.5 113.7192,-18.5 210.2954,-18.5 210.2954,-.5 113.7192,-.5"/>
<text text-anchor="middle" x="162.0073" y="-6.5" font-family="Helvetica,sans-Serif" font-size="10.00" fill="#000000">src/cares_wrap.cc</text>
</a>
</g>
</g>
<!-- Node1&#45;&gt;Node3 -->
<g id="edge2" class="edge">
<title>Node1&#45;&gt;Node3</title>
<path fill="none" stroke="#191970" d="M613.3399,-59.577C525.1446,-52.3495 359.4667,-37.6765 219.0073,-19 216.2228,-18.6297 213.3655,-18.2268 210.4846,-17.8028"/>
<polygon fill="#191970" stroke="#191970" points="613.1939,-63.0767 623.4451,-60.4003 613.7624,-56.0998 613.1939,-63.0767"/>
</g>
<!-- Node4 -->
<g id="node4" class="node">
<title>Node4</title>
<g id="a_node4"><a xlink:href="../../d6/d2f/fs__event__wrap_8cc.html" target="_top" xlink:title="src/fs_event_wrap.cc">
<polygon fill="#ffffff" stroke="#000000" points="228.0444,-.5 228.0444,-18.5 337.9702,-18.5 337.9702,-.5 228.0444,-.5"/>
<text text-anchor="middle" x="283.0073" y="-6.5" font-family="Helvetica,sans-Serif" font-size="10.00" fill="#000000">src/fs_event_wrap.cc</text>
</a>
</g>
</g>
<!-- Node1&#45;&gt;Node4 -->
<g id="edge3" class="edge">
<title>Node1&#45;&gt;Node4</title>
<path fill="none" stroke="#191970" d="M613.0067,-55.9764C546.7657,-46.9701 439.519,-32.2629 347.0073,-19 344.1163,-18.5855 341.1524,-18.1573 338.1602,-17.7223"/>
<polygon fill="#191970" stroke="#191970" points="612.8971,-59.4936 623.2773,-57.3718 613.8396,-52.5573 612.8971,-59.4936"/>
</g>
<!-- Node5 -->
<g id="node5" class="node">
<title>Node5</title>
<g id="a_node5"><a xlink:href="../../df/dcb/handle__wrap_8cc.html" target="_top" xlink:title="src/handle_wrap.cc">
<polygon fill="#ffffff" stroke="#000000" points="355.9312,-.5 355.9312,-18.5 458.0835,-18.5 458.0835,-.5 355.9312,-.5"/>
<text text-anchor="middle" x="407.0073" y="-6.5" font-family="Helvetica,sans-Serif" font-size="10.00" fill="#000000">src/handle_wrap.cc</text>
</a>
</g>
</g>
<!-- Node1&#45;&gt;Node5 -->
<g id="edge4" class="edge">
<title>Node1&#45;&gt;Node5</title>
<path fill="none" stroke="#191970" d="M621.8648,-53.43C571.6609,-43.1652 497.8735,-28.0786 451.1501,-18.5255"/>
<polygon fill="#191970" stroke="#191970" points="621.3902,-56.9053 631.8887,-55.4795 622.7925,-50.0472 621.3902,-56.9053"/>
</g>
<!-- Node6 -->
<g id="node6" class="node">
<title>Node6</title>
<g id="a_node6"><a xlink:href="../../dc/dfd/node_8cc.html" target="_top" xlink:title="src/node.cc">
<polygon fill="#ffffff" stroke="#000000" points="476.4409,-.5 476.4409,-18.5 543.5737,-18.5 543.5737,-.5 476.4409,-.5"/>
<text text-anchor="middle" x="510.0073" y="-6.5" font-family="Helvetica,sans-Serif" font-size="10.00" fill="#000000">src/node.cc</text>
</a>
</g>
</g>
<!-- Node1&#45;&gt;Node6 -->
<g id="edge5" class="edge">
<title>Node1&#45;&gt;Node6</title>
<path fill="none" stroke="#191970" d="M639.0509,-52.2554C608.1997,-42.0336 564.933,-27.6983 537.1837,-18.5042"/>
<polygon fill="#191970" stroke="#191970" points="638.0024,-55.5951 648.5958,-55.4179 640.2041,-48.9503 638.0024,-55.5951"/>
</g>
<!-- Node7 -->
<g id="node7" class="node">
<title>Node7</title>
<g id="a_node7"><a xlink:href="../../d5/d61/node__crypto_8cc.html" target="_top" xlink:title="src/node_crypto.cc">
<polygon fill="#ffffff" stroke="#000000" points="562.0444,-.5 562.0444,-18.5 661.9702,-18.5 661.9702,-.5 562.0444,-.5"/>
<text text-anchor="middle" x="612.0073" y="-6.5" font-family="Helvetica,sans-Serif" font-size="10.00" fill="#000000">src/node_crypto.cc</text>
</a>
</g>
</g>
<!-- Node1&#45;&gt;Node7 -->
<g id="edge6" class="edge">
<title>Node1&#45;&gt;Node7</title>
<path fill="none" stroke="#191970" d="M657.8171,-48.8678C646.5132,-39.1535 632.3645,-26.9944 622.8052,-18.7795"/>
<polygon fill="#191970" stroke="#191970" points="655.5736,-51.5546 665.439,-55.4179 660.136,-46.2457 655.5736,-51.5546"/>
</g>
<!-- Node8 -->
<g id="node8" class="node">
<title>Node8</title>
<g id="a_node8"><a xlink:href="../../d1/d90/node__http__parser_8cc.html" target="_top" xlink:title="src/node_http_parser.cc">
<polygon fill="#ffffff" stroke="#000000" points="679.6406,-.5 679.6406,-18.5 802.374,-18.5 802.374,-.5 679.6406,-.5"/>
<text text-anchor="middle" x="741.0073" y="-6.5" font-family="Helvetica,sans-Serif" font-size="10.00" fill="#000000">src/node_http_parser.cc</text>
</a>
</g>
</g>
<!-- Node1&#45;&gt;Node8 -->
<g id="edge7" class="edge">
<title>Node1&#45;&gt;Node8</title>
<path fill="none" stroke="#191970" d="M694.4818,-48.8678C705.9623,-39.1535 720.3321,-26.9944 730.0407,-18.7795"/>
<polygon fill="#191970" stroke="#191970" points="692.1138,-46.2866 686.7408,-55.4179 696.6354,-51.6303 692.1138,-46.2866"/>
</g>
<!-- Node9 -->
<g id="node9" class="node">
<title>Node9</title>
<g id="a_node9"><a xlink:href="../../dc/de6/node__stat__watcher_8cc.html" target="_top" xlink:title="src/node_stat_watcher.cc">
<polygon fill="#ffffff" stroke="#000000" points="820.5864,-.5 820.5864,-18.5 949.4282,-18.5 949.4282,-.5 820.5864,-.5"/>
<text text-anchor="middle" x="885.0073" y="-6.5" font-family="Helvetica,sans-Serif" font-size="10.00" fill="#000000">src/node_stat_watcher.cc</text>
</a>
</g>
</g>
<!-- Node1&#45;&gt;Node9 -->
<g id="edge8" class="edge">
<title>Node1&#45;&gt;Node9</title>
<path fill="none" stroke="#191970" d="M720.5333,-52.7826C759.4871,-42.5316 815.249,-27.8575 850.7913,-18.5042"/>
<polygon fill="#191970" stroke="#191970" points="719.2994,-49.4881 710.5194,-55.4179 721.0809,-56.2576 719.2994,-49.4881"/>
</g>
<!-- Node10 -->
<g id="node10" class="node">
<title>Node10</title>
<g id="a_node10"><a xlink:href="../../d9/d0d/node__zlib_8cc.html" target="_top" xlink:title="src/node_zlib.cc">
<polygon fill="#ffffff" stroke="#000000" points="967.1577,-.5 967.1577,-18.5 1054.8569,-18.5 1054.8569,-.5 967.1577,-.5"/>
<text text-anchor="middle" x="1011.0073" y="-6.5" font-family="Helvetica,sans-Serif" font-size="10.00" fill="#000000">src/node_zlib.cc</text>
</a>
</g>
</g>
<!-- Node1&#45;&gt;Node10 -->
<g id="edge9" class="edge">
<title>Node1&#45;&gt;Node10</title>
<path fill="none" stroke="#191970" d="M738.5149,-54.734C795.6938,-45.7245 882.6032,-31.8401 958.0073,-19 960.9562,-18.4978 963.9961,-17.9728 967.058,-17.4384"/>
<polygon fill="#191970" stroke="#191970" points="737.8803,-51.2907 728.546,-56.3028 738.9686,-58.2056 737.8803,-51.2907"/>
</g>
<!-- Node11 -->
<g id="node11" class="node">
<title>Node11</title>
<g id="a_node11"><a xlink:href="../../d2/d9f/signal__wrap_8cc.html" target="_top" xlink:title="src/signal_wrap.cc">
<polygon fill="#ffffff" stroke="#000000" points="1072.8818,-.5 1072.8818,-18.5 1171.1328,-18.5 1171.1328,-.5 1072.8818,-.5"/>
<text text-anchor="middle" x="1122.0073" y="-6.5" font-family="Helvetica,sans-Serif" font-size="10.00" fill="#000000">src/signal_wrap.cc</text>
</a>
</g>
</g>
<!-- Node1&#45;&gt;Node11 -->
<g id="edge10" class="edge">
<title>Node1&#45;&gt;Node11</title>
<path fill="none" stroke="#191970" d="M738.4937,-58.0595C815.2651,-49.9423 949.4327,-35.0927 1064.0073,-19 1066.8366,-18.6026 1069.7408,-18.1785 1072.6697,-17.7383"/>
<polygon fill="#191970" stroke="#191970" points="738.0854,-54.5831 728.5072,-59.1116 738.8189,-61.5445 738.0854,-54.5831"/>
</g>
<!-- Node12 -->
<g id="node12" class="node">
<title>Node12</title>
<g id="a_node12"><a xlink:href="../../d7/dc1/timer__wrap_8cc.html" target="_top" xlink:title="src/timer_wrap.cc">
<polygon fill="#ffffff" stroke="#000000" points="1188.835,-.5 1188.835,-18.5 1283.1797,-18.5 1283.1797,-.5 1188.835,-.5"/>
<text text-anchor="middle" x="1236.0073" y="-6.5" font-family="Helvetica,sans-Serif" font-size="10.00" fill="#000000">src/timer_wrap.cc</text>
</a>
</g>
</g>
<!-- Node1&#45;&gt;Node12 -->
<g id="edge11" class="edge">
<title>Node1&#45;&gt;Node12</title>
<path fill="none" stroke="#191970" d="M738.8305,-60.4102C834.3571,-53.8346 1021.7598,-39.5341 1180.0073,-19 1182.8433,-18.632 1185.7553,-18.2255 1188.6899,-17.7939"/>
<polygon fill="#191970" stroke="#191970" points="738.4983,-56.9247 728.7601,-61.0982 738.9754,-63.9084 738.4983,-56.9247"/>
</g>
<!-- Node13 -->
<g id="node13" class="node">
<title>Node13</title>
<g id="a_node13"><a xlink:href="../../da/de5/tls__wrap_8cc.html" target="_top" xlink:title="src/tls_wrap.cc">
<polygon fill="#ffffff" stroke="#000000" points="1300.9458,-.5 1300.9458,-18.5 1383.0688,-18.5 1383.0688,-.5 1300.9458,-.5"/>
<text text-anchor="middle" x="1342.0073" y="-6.5" font-family="Helvetica,sans-Serif" font-size="10.00" fill="#000000">src/tls_wrap.cc</text>
</a>
</g>
</g>
<!-- Node1&#45;&gt;Node13 -->
<g id="edge12" class="edge">
<title>Node1&#45;&gt;Node13</title>
<path fill="none" stroke="#191970" d="M738.6101,-62.2359C850.207,-57.675 1090.701,-45.471 1292.0073,-19 1294.8983,-18.6199 1297.8747,-18.1799 1300.8666,-17.7017"/>
<polygon fill="#191970" stroke="#191970" points="738.3916,-58.7418 728.5404,-62.6409 738.673,-65.7361 738.3916,-58.7418"/>
</g>
</g>
</svg>
