<?xml version="1.0" encoding="UTF-8" standalone="no"?>
<!DOCTYPE svg PUBLIC "-//W3C//DTD SVG 1.1//EN"
 "http://www.w3.org/Graphics/SVG/1.1/DTD/svg11.dtd">
<!-- Generated by graphviz version 2.40.1 (20161225.0304)
 -->
<!-- Title: src/handle_wrap.h Pages: 1 -->
<!--zoomable 82 -->
<svg id="main" version="1.1" xmlns="http://www.w3.org/2000/svg" xmlns:xlink="http://www.w3.org/1999/xlink" xml:space="preserve" onload="init(evt)">
<style type="text/css"><![CDATA[
.edge:hover path { stroke: red; }
.edge:hover polygon { stroke: red; fill: red; }
]]></style>
<script type="text/javascript"><![CDATA[
var edges = document.getElementsByTagName('g');
if (edges && edges.length) {
  for (var i=0;i<edges.length;i++) {
    if (edges[i].id.substr(0,4)=='edge') {
      edges[i].setAttribute('class','edge');
    }
  }
}
]]></script>
        <defs>
                <circle id="rim" cx="0" cy="0" r="7"/>
                <circle id="rim2" cx="0" cy="0" r="3.5"/>
                <g id="zoomPlus">
                        <use xlink:href="#rim" fill="#404040">
                                <set attributeName="fill" to="#808080" begin="zoomplus.mouseover" end="zoomplus.mouseout"/>
                        </use>
                        <path d="M-4,0h8M0,-4v8" fill="none" stroke="white" stroke-width="1.5" pointer-events="none"/>
                </g>
                <g id="zoomMin">
                        <use xlink:href="#rim" fill="#404040">
                                <set attributeName="fill" to="#808080" begin="zoomminus.mouseover" end="zoomminus.mouseout"/>
                        </use>
                        <path d="M-4,0h8" fill="none" stroke="white" stroke-width="1.5" pointer-events="none"/>
                </g>
                <g id="dirArrow">
                        <path fill="none" stroke="white" stroke-width="1.5" d="M0,-3.0v7 M-2.5,-0.5L0,-3.0L2.5,-0.5"/>
                </g>
               <g id="resetDef">
                       <use xlink:href="#rim2" fill="#404040">
                               <set attributeName="fill" to="#808080" begin="reset.mouseover" end="reset.mouseout"/>
                       </use>
               </g>
        </defs>

<script type="text/javascript">
var viewWidth = 1218;
var viewHeight = 82;
var sectionId = 'dynsection-0';
</script>
<script xlink:href="../../svgpan.js"/>
<svg id="graph" class="graph">
<g id="viewport">
<title>src/handle_wrap.h</title>
<polygon fill="#ffffff" stroke="transparent" points="-4,4 -4,-78 1214.3667,-78 1214.3667,4 -4,4"/>
<!-- Node1 -->
<g id="node1" class="node">
<title>Node1</title>
<polygon fill="#bfbfbf" stroke="#000000" points="568.106,-55.5 568.106,-73.5 665.8198,-73.5 665.8198,-55.5 568.106,-55.5"/>
<text text-anchor="middle" x="616.9629" y="-61.5" font-family="Helvetica,sans-Serif" font-size="10.00" fill="#000000">src/handle_wrap.h</text>
</g>
<!-- Node2 -->
<g id="node2" class="node">
<title>Node2</title>
<g id="a_node2"><a xlink:href="../../d6/d2f/fs__event__wrap_8cc.html" target="_top" xlink:title="src/fs_event_wrap.cc">
<polygon fill="#ffffff" stroke="#000000" points="0,-.5 0,-18.5 109.9258,-18.5 109.9258,-.5 0,-.5"/>
<text text-anchor="middle" x="54.9629" y="-6.5" font-family="Helvetica,sans-Serif" font-size="10.00" fill="#000000">src/fs_event_wrap.cc</text>
</a>
</g>
</g>
<!-- Node1&#45;&gt;Node2 -->
<g id="edge1" class="edge">
<title>Node1&#45;&gt;Node2</title>
<path fill="none" stroke="#191970" d="M557.9995,-60.1924C464.6669,-53.131 277.2442,-37.9629 118.9629,-19 116.0631,-18.6526 113.0921,-18.2778 110.0944,-17.8846"/>
<polygon fill="#191970" stroke="#191970" points="557.8582,-63.6916 568.0927,-60.9522 558.3837,-56.7113 557.8582,-63.6916"/>
</g>
<!-- Node3 -->
<g id="node3" class="node">
<title>Node3</title>
<g id="a_node3"><a xlink:href="../../df/dcb/handle__wrap_8cc.html" target="_top" xlink:title="src/handle_wrap.cc">
<polygon fill="#ffffff" stroke="#000000" points="127.8867,-.5 127.8867,-18.5 230.0391,-18.5 230.0391,-.5 127.8867,-.5"/>
<text text-anchor="middle" x="178.9629" y="-6.5" font-family="Helvetica,sans-Serif" font-size="10.00" fill="#000000">src/handle_wrap.cc</text>
</a>
</g>
</g>
<!-- Node1&#45;&gt;Node3 -->
<g id="edge2" class="edge">
<title>Node1&#45;&gt;Node3</title>
<path fill="none" stroke="#191970" d="M557.8363,-58.0725C483.3617,-49.8181 351.5091,-34.678 238.9629,-19 236.1426,-18.6071 233.2498,-18.1914 230.3311,-17.7621"/>
<polygon fill="#191970" stroke="#191970" points="557.6322,-61.5712 567.9562,-59.1909 558.4012,-54.6136 557.6322,-61.5712"/>
</g>
<!-- Node4 -->
<g id="node4" class="node">
<title>Node4</title>
<g id="a_node4"><a xlink:href="../../dc/dfd/node_8cc.html" target="_top" xlink:title="src/node.cc">
<polygon fill="#ffffff" stroke="#000000" points="248.3965,-.5 248.3965,-18.5 315.5293,-18.5 315.5293,-.5 248.3965,-.5"/>
<text text-anchor="middle" x="281.9629" y="-6.5" font-family="Helvetica,sans-Serif" font-size="10.00" fill="#000000">src/node.cc</text>
</a>
</g>
</g>
<!-- Node1&#45;&gt;Node4 -->
<g id="edge3" class="edge">
<title>Node1&#45;&gt;Node4</title>
<path fill="none" stroke="#191970" d="M558.12,-56.5687C498.8127,-48.2918 404.7496,-34.3906 323.9629,-19 321.3191,-18.4963 318.5884,-17.9465 315.8473,-17.3733"/>
<polygon fill="#191970" stroke="#191970" points="557.6684,-60.0395 568.0547,-57.9479 558.631,-53.106 557.6684,-60.0395"/>
</g>
<!-- Node5 -->
<g id="node5" class="node">
<title>Node5</title>
<g id="a_node5"><a xlink:href="../../d7/d2c/pipe__wrap_8cc.html" target="_top" xlink:title="src/pipe_wrap.cc">
<polygon fill="#ffffff" stroke="#000000" points="333.4482,-.5 333.4482,-18.5 424.4775,-18.5 424.4775,-.5 333.4482,-.5"/>
<text text-anchor="middle" x="378.9629" y="-6.5" font-family="Helvetica,sans-Serif" font-size="10.00" fill="#000000">src/pipe_wrap.cc</text>
</a>
</g>
</g>
<!-- Node1&#45;&gt;Node5 -->
<g id="edge4" class="edge">
<title>Node1&#45;&gt;Node5</title>
<path fill="none" stroke="#191970" d="M567.9428,-53.1718C523.5528,-42.9136 459.0123,-27.9988 418.0186,-18.5255"/>
<polygon fill="#191970" stroke="#191970" points="567.3972,-56.6379 577.9285,-55.4795 568.9734,-49.8177 567.3972,-56.6379"/>
</g>
<!-- Node6 -->
<g id="node6" class="node">
<title>Node6</title>
<g id="a_node6"><a xlink:href="../../d8/d14/process__wrap_8cc.html" target="_top" xlink:title="src/process_wrap.cc">
<polygon fill="#ffffff" stroke="#000000" points="442.394,-.5 442.394,-18.5 549.5317,-18.5 549.5317,-.5 442.394,-.5"/>
<text text-anchor="middle" x="495.9629" y="-6.5" font-family="Helvetica,sans-Serif" font-size="10.00" fill="#000000">src/process_wrap.cc</text>
</a>
</g>
</g>
<!-- Node1&#45;&gt;Node6 -->
<g id="edge5" class="edge">
<title>Node1&#45;&gt;Node6</title>
<path fill="none" stroke="#191970" d="M587.6862,-51.1924C565.4689,-41.0937 535.5132,-27.4774 515.9733,-18.5956"/>
<polygon fill="#191970" stroke="#191970" points="586.4302,-54.4661 596.9822,-55.4179 589.3269,-48.0935 586.4302,-54.4661"/>
</g>
<!-- Node7 -->
<g id="node7" class="node">
<title>Node7</title>
<g id="a_node7"><a xlink:href="../../d2/d9f/signal__wrap_8cc.html" target="_top" xlink:title="src/signal_wrap.cc">
<polygon fill="#ffffff" stroke="#000000" points="567.8374,-.5 567.8374,-18.5 666.0884,-18.5 666.0884,-.5 567.8374,-.5"/>
<text text-anchor="middle" x="616.9629" y="-6.5" font-family="Helvetica,sans-Serif" font-size="10.00" fill="#000000">src/signal_wrap.cc</text>
</a>
</g>
</g>
<!-- Node1&#45;&gt;Node7 -->
<g id="edge6" class="edge">
<title>Node1&#45;&gt;Node7</title>
<path fill="none" stroke="#191970" d="M616.9629,-45.383C616.9629,-36.3738 616.9629,-26.0373 616.9629,-18.7795"/>
<polygon fill="#191970" stroke="#191970" points="613.463,-45.4178 616.9629,-55.4179 620.463,-45.4179 613.463,-45.4178"/>
</g>
<!-- Node8 -->
<g id="node8" class="node">
<title>Node8</title>
<g id="a_node8"><a xlink:href="../../dc/d29/stream__wrap_8cc.html" target="_top" xlink:title="src/stream_wrap.cc">
<polygon fill="#ffffff" stroke="#000000" points="683.6206,-.5 683.6206,-18.5 786.3052,-18.5 786.3052,-.5 683.6206,-.5"/>
<text text-anchor="middle" x="734.9629" y="-6.5" font-family="Helvetica,sans-Serif" font-size="10.00" fill="#000000">src/stream_wrap.cc</text>
</a>
</g>
</g>
<!-- Node1&#45;&gt;Node8 -->
<g id="edge7" class="edge">
<title>Node1&#45;&gt;Node8</title>
<path fill="none" stroke="#191970" d="M645.5137,-51.1924C667.1801,-41.0937 696.3932,-27.4774 715.4486,-18.5956"/>
<polygon fill="#191970" stroke="#191970" points="644.0333,-48.0208 636.4482,-55.4179 646.9906,-54.3655 644.0333,-48.0208"/>
</g>
<!-- Node9 -->
<g id="node9" class="node">
<title>Node9</title>
<g id="a_node9"><a xlink:href="../../d3/dfb/tcp__wrap_8cc.html" target="_top" xlink:title="src/tcp_wrap.cc">
<polygon fill="#ffffff" stroke="#000000" points="804.2314,-.5 804.2314,-18.5 889.6943,-18.5 889.6943,-.5 804.2314,-.5"/>
<text text-anchor="middle" x="846.9629" y="-6.5" font-family="Helvetica,sans-Serif" font-size="10.00" fill="#000000">src/tcp_wrap.cc</text>
</a>
</g>
</g>
<!-- Node1&#45;&gt;Node9 -->
<g id="edge8" class="edge">
<title>Node1&#45;&gt;Node9</title>
<path fill="none" stroke="#191970" d="M664.6065,-53.107C707.4956,-42.8509 769.6877,-27.9789 809.22,-18.5255"/>
<polygon fill="#191970" stroke="#191970" points="663.5969,-49.7496 654.6852,-55.4795 665.225,-56.5577 663.5969,-49.7496"/>
</g>
<!-- Node10 -->
<g id="node10" class="node">
<title>Node10</title>
<g id="a_node10"><a xlink:href="../../d7/dc1/timer__wrap_8cc.html" target="_top" xlink:title="src/timer_wrap.cc">
<polygon fill="#ffffff" stroke="#000000" points="907.7905,-.5 907.7905,-18.5 1002.1353,-18.5 1002.1353,-.5 907.7905,-.5"/>
<text text-anchor="middle" x="954.9629" y="-6.5" font-family="Helvetica,sans-Serif" font-size="10.00" fill="#000000">src/timer_wrap.cc</text>
</a>
</g>
</g>
<!-- Node1&#45;&gt;Node10 -->
<g id="edge9" class="edge">
<title>Node1&#45;&gt;Node10</title>
<path fill="none" stroke="#191970" d="M675.8129,-55.1465C732.8768,-46.0433 821.8843,-31.7559 898.9629,-19 901.7842,-18.5331 904.685,-18.05 907.611,-17.5605"/>
<polygon fill="#191970" stroke="#191970" points="675.2135,-51.6977 665.8893,-56.7286 676.3156,-58.6104 675.2135,-51.6977"/>
</g>
<!-- Node11 -->
<g id="node11" class="node">
<title>Node11</title>
<g id="a_node11"><a xlink:href="../../de/d6d/tty__wrap_8cc.html" target="_top" xlink:title="src/tty_wrap.cc">
<polygon fill="#ffffff" stroke="#000000" points="1020.623,-.5 1020.623,-18.5 1103.3027,-18.5 1103.3027,-.5 1020.623,-.5"/>
<text text-anchor="middle" x="1061.9629" y="-6.5" font-family="Helvetica,sans-Serif" font-size="10.00" fill="#000000">src/tty_wrap.cc</text>
</a>
</g>
</g>
<!-- Node1&#45;&gt;Node11 -->
<g id="edge10" class="edge">
<title>Node1&#45;&gt;Node11</title>
<path fill="none" stroke="#191970" d="M675.9522,-58.9732C753.1426,-51.4472 892.5292,-36.8472 1010.9629,-19 1014.08,-18.5303 1017.298,-18.0114 1020.5311,-17.4656"/>
<polygon fill="#191970" stroke="#191970" points="675.5544,-55.4953 665.9388,-59.9438 676.2298,-62.4627 675.5544,-55.4953"/>
</g>
<!-- Node12 -->
<g id="node12" class="node">
<title>Node12</title>
<g id="a_node12"><a xlink:href="../../d1/d05/udp__wrap_8cc.html" target="_top" xlink:title="src/udp_wrap.cc">
<polygon fill="#ffffff" stroke="#000000" points="1121.5591,-.5 1121.5591,-18.5 1210.3667,-18.5 1210.3667,-.5 1121.5591,-.5"/>
<text text-anchor="middle" x="1165.9629" y="-6.5" font-family="Helvetica,sans-Serif" font-size="10.00" fill="#000000">src/udp_wrap.cc</text>
</a>
</g>
</g>
<!-- Node1&#45;&gt;Node12 -->
<g id="edge11" class="edge">
<title>Node1&#45;&gt;Node12</title>
<path fill="none" stroke="#191970" d="M676.0005,-60.6553C768.9801,-54.2443 955.1056,-39.9704 1111.9629,-19 1115.0765,-18.5837 1118.2846,-18.1169 1121.5112,-17.6196"/>
<polygon fill="#191970" stroke="#191970" points="675.6809,-57.1688 665.943,-61.343 676.1585,-64.1525 675.6809,-57.1688"/>
</g>
</g>
</svg>
        <g id="navigator" transform="translate(0 0)" fill="#404254">
                <rect fill="#f2f5e9" fill-opacity="0.5" stroke="#606060" stroke-width=".5" x="0" y="0" width="60" height="60"/>
                <use id="zoomplus" xlink:href="#zoomPlus" x="17" y="9" onmousedown="handleZoom(evt,'in')"/>
                <use id="zoomminus" xlink:href="#zoomMin" x="42" y="9" onmousedown="handleZoom(evt,'out')"/>
                <use id="reset" xlink:href="#resetDef" x="30" y="36" onmousedown="handleReset()"/>
                <g id="arrowUp" xlink:href="#dirArrow" transform="translate(30 24)" onmousedown="handlePan(0,-1)">
                  <use xlink:href="#rim" fill="#404040">
                        <set attributeName="fill" to="#808080" begin="arrowUp.mouseover" end="arrowUp.mouseout"/>
                  </use>
                  <path fill="none" stroke="white" stroke-width="1.5" d="M0,-3.0v7 M-2.5,-0.5L0,-3.0L2.5,-0.5"/>
                </g>
                <g id="arrowRight" xlink:href="#dirArrow" transform="rotate(90) translate(36 -43)" onmousedown="handlePan(1,0)">
                  <use xlink:href="#rim" fill="#404040">
                        <set attributeName="fill" to="#808080" begin="arrowRight.mouseover" end="arrowRight.mouseout"/>
                  </use>
                  <path fill="none" stroke="white" stroke-width="1.5" d="M0,-3.0v7 M-2.5,-0.5L0,-3.0L2.5,-0.5"/>
                </g>
                <g id="arrowDown" xlink:href="#dirArrow" transform="rotate(180) translate(-30 -48)" onmousedown="handlePan(0,1)">
                  <use xlink:href="#rim" fill="#404040">
                        <set attributeName="fill" to="#808080" begin="arrowDown.mouseover" end="arrowDown.mouseout"/>
                  </use>
                  <path fill="none" stroke="white" stroke-width="1.5" d="M0,-3.0v7 M-2.5,-0.5L0,-3.0L2.5,-0.5"/>
                </g>
                <g id="arrowLeft" xlink:href="#dirArrow" transform="rotate(270) translate(-36 17)" onmousedown="handlePan(-1,0)">
                  <use xlink:href="#rim" fill="#404040">
                        <set attributeName="fill" to="#808080" begin="arrowLeft.mouseover" end="arrowLeft.mouseout"/>
                  </use>
                  <path fill="none" stroke="white" stroke-width="1.5" d="M0,-3.0v7 M-2.5,-0.5L0,-3.0L2.5,-0.5"/>
                </g>
        </g>
        <svg viewBox="0 0 15 15" width="100%" height="30px" preserveAspectRatio="xMaxYMin meet">
         <g id="arrow_out" transform="scale(0.3 0.3)">
          <a xlink:href="handle__wrap_8h__dep__incl_org.svg" target="_base">
           <rect id="button" ry="5" rx="5" y="6" x="6" height="38" width="38"
                fill="#f2f5e9" fill-opacity="0.5" stroke="#606060" stroke-width="1.0"/>
           <path id="arrow"
             d="M 11.500037,31.436501 C 11.940474,20.09759 22.043105,11.32322 32.158766,21.979434 L 37.068811,17.246167 C 37.068811,17.246167 37.088388,32 37.088388,32 L 22.160133,31.978069 C 22.160133,31.978069 26.997745,27.140456 26.997745,27.140456 C 18.528582,18.264221 13.291696,25.230495 11.500037,31.436501 z"
             style="fill:#404040;"/>
          </a>
         </g>
        </svg>
</svg>
