<?xml version="1.0" encoding="UTF-8" standalone="no"?>
<!DOCTYPE svg PUBLIC "-//W3C//DTD SVG 1.1//EN"
 "http://www.w3.org/Graphics/SVG/1.1/DTD/svg11.dtd">
<!-- Generated by graphviz version 2.40.1 (20161225.0304)
 -->
<!-- Title: src/spawn_sync.cc Pages: 1 -->
<svg width="444pt" height="82pt"
 viewBox="0.00 0.00 443.53 82.00" xmlns="http://www.w3.org/2000/svg" xmlns:xlink="http://www.w3.org/1999/xlink">
<g id="graph0" class="graph" transform="scale(1 1) rotate(0) translate(4 78)">
<title>src/spawn_sync.cc</title>
<polygon fill="#ffffff" stroke="transparent" points="-4,4 -4,-78 439.5269,-78 439.5269,4 -4,4"/>
<!-- Node0 -->
<g id="node1" class="node">
<title>Node0</title>
<polygon fill="#bfbfbf" stroke="#000000" points="196.7266,-55.5 196.7266,-73.5 296.6426,-73.5 296.6426,-55.5 196.7266,-55.5"/>
<text text-anchor="middle" x="246.6846" y="-61.5" font-family="Helvetica,sans-Serif" font-size="10.00" fill="#000000">src/spawn_sync.cc</text>
</g>
<!-- Node1 -->
<g id="node2" class="node">
<title>Node1</title>
<g id="a_node2"><a xlink:href="../../d9/dfc/spawn__sync_8h.html" target="_top" xlink:title="spawn_sync.h">
<polygon fill="#ffffff" stroke="#000000" points="0,-.5 0,-18.5 79.3691,-18.5 79.3691,-.5 0,-.5"/>
<text text-anchor="middle" x="39.6846" y="-6.5" font-family="Helvetica,sans-Serif" font-size="10.00" fill="#000000">spawn_sync.h</text>
</a>
</g>
</g>
<!-- Node0&#45;&gt;Node1 -->
<g id="edge1" class="edge">
<title>Node0&#45;&gt;Node1</title>
<path fill="none" stroke="#191970" d="M212.5027,-55.4179C177.1898,-46.0352 121.9524,-31.3586 83.4639,-21.1322"/>
<polygon fill="#191970" stroke="#191970" points="84.1366,-17.6896 73.5731,-18.5042 82.339,-24.4548 84.1366,-17.6896"/>
</g>
<!-- Node2 -->
<g id="node3" class="node">
<title>Node2</title>
<g id="a_node3"><a xlink:href="../../d9/d50/env-inl_8h.html" target="_top" xlink:title="env&#45;inl.h">
<polygon fill="#ffffff" stroke="#000000" points="97.7856,-.5 97.7856,-18.5 151.5835,-18.5 151.5835,-.5 97.7856,-.5"/>
<text text-anchor="middle" x="124.6846" y="-6.5" font-family="Helvetica,sans-Serif" font-size="10.00" fill="#000000">env&#45;inl.h</text>
</a>
</g>
</g>
<!-- Node0&#45;&gt;Node2 -->
<g id="edge2" class="edge">
<title>Node0&#45;&gt;Node2</title>
<path fill="none" stroke="#191970" d="M226.5388,-55.4179C206.848,-46.5409 176.646,-32.9253 154.2373,-22.823"/>
<polygon fill="#191970" stroke="#191970" points="155.4152,-19.5148 144.8603,-18.5956 152.5383,-25.8963 155.4152,-19.5148"/>
</g>
<!-- Node3 -->
<g id="node4" class="node">
<title>Node3</title>
<g id="a_node4"><a xlink:href="../../d8/dbe/string__bytes_8h.html" target="_top" xlink:title="string_bytes.h">
<polygon fill="#ffffff" stroke="#000000" points="169.5566,-.5 169.5566,-18.5 247.8125,-18.5 247.8125,-.5 169.5566,-.5"/>
<text text-anchor="middle" x="208.6846" y="-6.5" font-family="Helvetica,sans-Serif" font-size="10.00" fill="#000000">string_bytes.h</text>
</a>
</g>
</g>
<!-- Node0&#45;&gt;Node3 -->
<g id="edge3" class="edge">
<title>Node0&#45;&gt;Node3</title>
<path fill="none" stroke="#191970" d="M240.4096,-55.4179C235.106,-47.7415 227.3541,-36.5217 220.8408,-27.0945"/>
<polygon fill="#191970" stroke="#191970" points="223.6598,-25.0173 215.0958,-18.7795 217.9006,-28.9963 223.6598,-25.0173"/>
</g>
<!-- Node4 -->
<g id="node5" class="node">
<title>Node4</title>
<g id="a_node5"><a xlink:href="../../d8/d3c/util_8h.html" target="_top" xlink:title="util.h">
<polygon fill="#ffffff" stroke="#000000" points="266.123,-.5 266.123,-18.5 303.2461,-18.5 303.2461,-.5 266.123,-.5"/>
<text text-anchor="middle" x="284.6846" y="-6.5" font-family="Helvetica,sans-Serif" font-size="10.00" fill="#000000">util.h</text>
</a>
</g>
</g>
<!-- Node0&#45;&gt;Node4 -->
<g id="edge4" class="edge">
<title>Node0&#45;&gt;Node4</title>
<path fill="none" stroke="#191970" d="M252.9595,-55.4179C258.2631,-47.7415 266.015,-36.5217 272.5284,-27.0945"/>
<polygon fill="#191970" stroke="#191970" points="275.4685,-28.9963 278.2733,-18.7795 269.7094,-25.0173 275.4685,-28.9963"/>
</g>
<!-- Node5 -->
<g id="node6" class="node">
<title>Node5</title>
<polygon fill="#ffffff" stroke="#bfbfbf" points="321.2881,-.5 321.2881,-18.5 370.0811,-18.5 370.0811,-.5 321.2881,-.5"/>
<text text-anchor="middle" x="345.6846" y="-6.5" font-family="Helvetica,sans-Serif" font-size="10.00" fill="#000000">string.h</text>
</g>
<!-- Node0&#45;&gt;Node5 -->
<g id="edge5" class="edge">
<title>Node0&#45;&gt;Node5</title>
<path fill="none" stroke="#191970" d="M263.0324,-55.4179C278.6527,-46.7399 302.4244,-33.5334 320.4707,-23.5077"/>
<polygon fill="#191970" stroke="#191970" points="322.2706,-26.5117 329.3124,-18.5956 318.8711,-20.3925 322.2706,-26.5117"/>
</g>
<!-- Node6 -->
<g id="node7" class="node">
<title>Node6</title>
<polygon fill="#ffffff" stroke="#bfbfbf" points="387.8423,-.5 387.8423,-18.5 435.5269,-18.5 435.5269,-.5 387.8423,-.5"/>
<text text-anchor="middle" x="411.6846" y="-6.5" font-family="Helvetica,sans-Serif" font-size="10.00" fill="#000000">stdlib.h</text>
</g>
<!-- Node0&#45;&gt;Node6 -->
<g id="edge6" class="edge">
<title>Node0&#45;&gt;Node6</title>
<path fill="none" stroke="#191970" d="M273.931,-55.4179C302.3847,-45.9333 347.067,-31.0392 377.7828,-20.8006"/>
<polygon fill="#191970" stroke="#191970" points="379.2404,-24.0041 387.6204,-17.5214 377.0268,-17.3633 379.2404,-24.0041"/>
</g>
</g>
</svg>
