<?xml version="1.0" encoding="UTF-8" standalone="no"?>
<!DOCTYPE svg PUBLIC "-//W3C//DTD SVG 1.1//EN"
 "http://www.w3.org/Graphics/SVG/1.1/DTD/svg11.dtd">
<!-- Generated by graphviz version 2.40.1 (20161225.0304)
 -->
<!-- Title: src/connection_wrap.cc Pages: 1 -->
<!--zoomable 82 -->
<svg id="main" version="1.1" xmlns="http://www.w3.org/2000/svg" xmlns:xlink="http://www.w3.org/1999/xlink" xml:space="preserve" onload="init(evt)">
<style type="text/css"><![CDATA[
.edge:hover path { stroke: red; }
.edge:hover polygon { stroke: red; fill: red; }
]]></style>
<script type="text/javascript"><![CDATA[
var edges = document.getElementsByTagName('g');
if (edges && edges.length) {
  for (var i=0;i<edges.length;i++) {
    if (edges[i].id.substr(0,4)=='edge') {
      edges[i].setAttribute('class','edge');
    }
  }
}
]]></script>
        <defs>
                <circle id="rim" cx="0" cy="0" r="7"/>
                <circle id="rim2" cx="0" cy="0" r="3.5"/>
                <g id="zoomPlus">
                        <use xlink:href="#rim" fill="#404040">
                                <set attributeName="fill" to="#808080" begin="zoomplus.mouseover" end="zoomplus.mouseout"/>
                        </use>
                        <path d="M-4,0h8M0,-4v8" fill="none" stroke="white" stroke-width="1.5" pointer-events="none"/>
                </g>
                <g id="zoomMin">
                        <use xlink:href="#rim" fill="#404040">
                                <set attributeName="fill" to="#808080" begin="zoomminus.mouseover" end="zoomminus.mouseout"/>
                        </use>
                        <path d="M-4,0h8" fill="none" stroke="white" stroke-width="1.5" pointer-events="none"/>
                </g>
                <g id="dirArrow">
                        <path fill="none" stroke="white" stroke-width="1.5" d="M0,-3.0v7 M-2.5,-0.5L0,-3.0L2.5,-0.5"/>
                </g>
               <g id="resetDef">
                       <use xlink:href="#rim2" fill="#404040">
                               <set attributeName="fill" to="#808080" begin="reset.mouseover" end="reset.mouseout"/>
                       </use>
               </g>
        </defs>

<script type="text/javascript">
var viewWidth = 737;
var viewHeight = 82;
var sectionId = 'dynsection-0';
</script>
<script xlink:href="../../svgpan.js"/>
<svg id="graph" class="graph">
<g id="viewport">
<title>src/connection_wrap.cc</title>
<polygon fill="#ffffff" stroke="transparent" points="-4,4 -4,-78 733.2017,-78 733.2017,4 -4,4"/>
<!-- Node0 -->
<g id="node1" class="node">
<title>Node0</title>
<polygon fill="#bfbfbf" stroke="#000000" points="326.7266,-55.5 326.7266,-73.5 447.2188,-73.5 447.2188,-55.5 326.7266,-55.5"/>
<text text-anchor="middle" x="386.9727" y="-61.5" font-family="Helvetica,sans-Serif" font-size="10.00" fill="#000000">src/connection_wrap.cc</text>
</g>
<!-- Node1 -->
<g id="node2" class="node">
<title>Node1</title>
<g id="a_node2"><a xlink:href="../../dc/d27/connection__wrap_8h.html" target="_top" xlink:title="connection_wrap.h">
<polygon fill="#ffffff" stroke="#000000" points="0,-.5 0,-18.5 99.9453,-18.5 99.9453,-.5 0,-.5"/>
<text text-anchor="middle" x="49.9727" y="-6.5" font-family="Helvetica,sans-Serif" font-size="10.00" fill="#000000">connection_wrap.h</text>
</a>
</g>
</g>
<!-- Node0&#45;&gt;Node1 -->
<g id="edge1" class="edge">
<title>Node0&#45;&gt;Node1</title>
<path fill="none" stroke="#191970" d="M331.7013,-55.4795C270.765,-45.5344 173.0573,-29.588 110.2068,-19.3305"/>
<polygon fill="#191970" stroke="#191970" points="110.4797,-15.8288 100.0465,-17.6723 109.3522,-22.7374 110.4797,-15.8288"/>
</g>
<!-- Node2 -->
<g id="node3" class="node">
<title>Node2</title>
<g id="a_node3"><a xlink:href="../../d5/d01/connect__wrap_8h.html" target="_top" xlink:title="connect_wrap.h">
<polygon fill="#ffffff" stroke="#000000" points="117.6724,-.5 117.6724,-18.5 204.2729,-18.5 204.2729,-.5 117.6724,-.5"/>
<text text-anchor="middle" x="160.9727" y="-6.5" font-family="Helvetica,sans-Serif" font-size="10.00" fill="#000000">connect_wrap.h</text>
</a>
</g>
</g>
<!-- Node0&#45;&gt;Node2 -->
<g id="edge2" class="edge">
<title>Node0&#45;&gt;Node2</title>
<path fill="none" stroke="#191970" d="M349.9064,-55.4795C311.0693,-46.0279 249.9595,-31.1561 207.8096,-20.8984"/>
<polygon fill="#191970" stroke="#191970" points="208.6032,-17.4894 198.0591,-18.5255 206.9479,-24.2909 208.6032,-17.4894"/>
</g>
<!-- Node3 -->
<g id="node4" class="node">
<title>Node3</title>
<g id="a_node4"><a xlink:href="../../d9/d50/env-inl_8h.html" target="_top" xlink:title="env&#45;inl.h">
<polygon fill="#ffffff" stroke="#000000" points="222.0737,-.5 222.0737,-18.5 275.8716,-18.5 275.8716,-.5 222.0737,-.5"/>
<text text-anchor="middle" x="248.9727" y="-6.5" font-family="Helvetica,sans-Serif" font-size="10.00" fill="#000000">env&#45;inl.h</text>
</a>
</g>
</g>
<!-- Node0&#45;&gt;Node3 -->
<g id="edge3" class="edge">
<title>Node0&#45;&gt;Node3</title>
<path fill="none" stroke="#191970" d="M364.1848,-55.4179C341.612,-46.4215 306.8274,-32.5581 281.383,-22.4172"/>
<polygon fill="#191970" stroke="#191970" points="282.3796,-19.0467 271.7944,-18.5956 279.788,-25.5493 282.3796,-19.0467"/>
</g>
<!-- Node4 -->
<g id="node5" class="node">
<title>Node4</title>
<g id="a_node5"><a xlink:href="../../d5/d81/env_8h.html" target="_top" xlink:title="env.h">
<polygon fill="#ffffff" stroke="#000000" points="294.1099,-.5 294.1099,-18.5 333.8354,-18.5 333.8354,-.5 294.1099,-.5"/>
<text text-anchor="middle" x="313.9727" y="-6.5" font-family="Helvetica,sans-Serif" font-size="10.00" fill="#000000">env.h</text>
</a>
</g>
</g>
<!-- Node0&#45;&gt;Node4 -->
<g id="edge4" class="edge">
<title>Node0&#45;&gt;Node4</title>
<path fill="none" stroke="#191970" d="M374.9182,-55.4179C363.8893,-47.1084 347.3495,-34.6469 334.282,-24.8015"/>
<polygon fill="#191970" stroke="#191970" points="336.382,-22.0016 326.289,-18.7795 332.1698,-27.5924 336.382,-22.0016"/>
</g>
<!-- Node5 -->
<g id="node6" class="node">
<title>Node5</title>
<g id="a_node6"><a xlink:href="../../d8/d39/pipe__wrap_8h.html" target="_top" xlink:title="pipe_wrap.h">
<polygon fill="#ffffff" stroke="#000000" points="351.7314,-.5 351.7314,-18.5 422.2139,-18.5 422.2139,-.5 351.7314,-.5"/>
<text text-anchor="middle" x="386.9727" y="-6.5" font-family="Helvetica,sans-Serif" font-size="10.00" fill="#000000">pipe_wrap.h</text>
</a>
</g>
</g>
<!-- Node0&#45;&gt;Node5 -->
<g id="edge5" class="edge">
<title>Node0&#45;&gt;Node5</title>
<path fill="none" stroke="#191970" d="M386.9727,-55.4179C386.9727,-48.2164 386.9727,-37.8962 386.9727,-28.8632"/>
<polygon fill="#191970" stroke="#191970" points="390.4728,-28.7794 386.9727,-18.7795 383.4728,-28.7795 390.4728,-28.7794"/>
</g>
<!-- Node6 -->
<g id="node7" class="node">
<title>Node6</title>
<g id="a_node7"><a xlink:href="../../da/d2f/stream__wrap_8h.html" target="_top" xlink:title="stream_wrap.h">
<polygon fill="#ffffff" stroke="#000000" points="439.9038,-.5 439.9038,-18.5 522.0415,-18.5 522.0415,-.5 439.9038,-.5"/>
<text text-anchor="middle" x="480.9727" y="-6.5" font-family="Helvetica,sans-Serif" font-size="10.00" fill="#000000">stream_wrap.h</text>
</a>
</g>
</g>
<!-- Node0&#45;&gt;Node6 -->
<g id="edge6" class="edge">
<title>Node0&#45;&gt;Node6</title>
<path fill="none" stroke="#191970" d="M402.4948,-55.4179C417.1902,-46.8195 439.4838,-33.7754 456.5593,-23.7844"/>
<polygon fill="#191970" stroke="#191970" points="458.5638,-26.6667 465.4274,-18.5956 455.0287,-20.6249 458.5638,-26.6667"/>
</g>
<!-- Node7 -->
<g id="node8" class="node">
<title>Node7</title>
<g id="a_node8"><a xlink:href="../../d3/d24/tcp__wrap_8h.html" target="_top" xlink:title="tcp_wrap.h">
<polygon fill="#ffffff" stroke="#000000" points="540.5146,-.5 540.5146,-18.5 605.4307,-18.5 605.4307,-.5 540.5146,-.5"/>
<text text-anchor="middle" x="572.9727" y="-6.5" font-family="Helvetica,sans-Serif" font-size="10.00" fill="#000000">tcp_wrap.h</text>
</a>
</g>
</g>
<!-- Node0&#45;&gt;Node7 -->
<g id="edge7" class="edge">
<title>Node0&#45;&gt;Node7</title>
<path fill="none" stroke="#191970" d="M417.6868,-55.4179C449.1472,-46.115 498.2073,-31.608 532.7485,-21.3943"/>
<polygon fill="#191970" stroke="#191970" points="533.925,-24.6962 542.5221,-18.5042 531.94,-17.9836 533.925,-24.6962"/>
</g>
<!-- Node8 -->
<g id="node9" class="node">
<title>Node8</title>
<g id="a_node9"><a xlink:href="../../d8/d3c/util_8h.html" target="_top" xlink:title="util.h">
<polygon fill="#ffffff" stroke="#000000" points="623.4111,-.5 623.4111,-18.5 660.5342,-18.5 660.5342,-.5 623.4111,-.5"/>
<text text-anchor="middle" x="641.9727" y="-6.5" font-family="Helvetica,sans-Serif" font-size="10.00" fill="#000000">util.h</text>
</a>
</g>
</g>
<!-- Node0&#45;&gt;Node8 -->
<g id="edge8" class="edge">
<title>Node0&#45;&gt;Node8</title>
<path fill="none" stroke="#191970" d="M442.4793,-55.442C486.4673,-47.7953 549.6026,-35.7832 613.5478,-18.8262"/>
<polygon fill="#191970" stroke="#191970" points="614.6523,-22.1536 623.3996,-16.1756 612.8336,-15.394 614.6523,-22.1536"/>
</g>
<!-- Node9 -->
<g id="node10" class="node">
<title>Node9</title>
<g id="a_node10"><a xlink:href="../../d5/d8c/util-inl_8h.html" target="_top" xlink:title="util&#45;inl.h">
<polygon fill="#ffffff" stroke="#000000" points="678.7437,-.5 678.7437,-18.5 729.2017,-18.5 729.2017,-.5 678.7437,-.5"/>
<text text-anchor="middle" x="703.9727" y="-6.5" font-family="Helvetica,sans-Serif" font-size="10.00" fill="#000000">util&#45;inl.h</text>
</a>
</g>
</g>
<!-- Node0&#45;&gt;Node9 -->
<g id="edge9" class="edge">
<title>Node0&#45;&gt;Node9</title>
<path fill="none" stroke="#191970" d="M447.2444,-56.8223C502.5448,-49.3229 586.8766,-36.7443 668.4931,-19.1421"/>
<polygon fill="#191970" stroke="#191970" points="669.4084,-22.5247 678.4307,-16.9706 667.914,-15.6861 669.4084,-22.5247"/>
</g>
</g>
</svg>
        <g id="navigator" transform="translate(0 0)" fill="#404254">
                <rect fill="#f2f5e9" fill-opacity="0.5" stroke="#606060" stroke-width=".5" x="0" y="0" width="60" height="60"/>
                <use id="zoomplus" xlink:href="#zoomPlus" x="17" y="9" onmousedown="handleZoom(evt,'in')"/>
                <use id="zoomminus" xlink:href="#zoomMin" x="42" y="9" onmousedown="handleZoom(evt,'out')"/>
                <use id="reset" xlink:href="#resetDef" x="30" y="36" onmousedown="handleReset()"/>
                <g id="arrowUp" xlink:href="#dirArrow" transform="translate(30 24)" onmousedown="handlePan(0,-1)">
                  <use xlink:href="#rim" fill="#404040">
                        <set attributeName="fill" to="#808080" begin="arrowUp.mouseover" end="arrowUp.mouseout"/>
                  </use>
                  <path fill="none" stroke="white" stroke-width="1.5" d="M0,-3.0v7 M-2.5,-0.5L0,-3.0L2.5,-0.5"/>
                </g>
                <g id="arrowRight" xlink:href="#dirArrow" transform="rotate(90) translate(36 -43)" onmousedown="handlePan(1,0)">
                  <use xlink:href="#rim" fill="#404040">
                        <set attributeName="fill" to="#808080" begin="arrowRight.mouseover" end="arrowRight.mouseout"/>
                  </use>
                  <path fill="none" stroke="white" stroke-width="1.5" d="M0,-3.0v7 M-2.5,-0.5L0,-3.0L2.5,-0.5"/>
                </g>
                <g id="arrowDown" xlink:href="#dirArrow" transform="rotate(180) translate(-30 -48)" onmousedown="handlePan(0,1)">
                  <use xlink:href="#rim" fill="#404040">
                        <set attributeName="fill" to="#808080" begin="arrowDown.mouseover" end="arrowDown.mouseout"/>
                  </use>
                  <path fill="none" stroke="white" stroke-width="1.5" d="M0,-3.0v7 M-2.5,-0.5L0,-3.0L2.5,-0.5"/>
                </g>
                <g id="arrowLeft" xlink:href="#dirArrow" transform="rotate(270) translate(-36 17)" onmousedown="handlePan(-1,0)">
                  <use xlink:href="#rim" fill="#404040">
                        <set attributeName="fill" to="#808080" begin="arrowLeft.mouseover" end="arrowLeft.mouseout"/>
                  </use>
                  <path fill="none" stroke="white" stroke-width="1.5" d="M0,-3.0v7 M-2.5,-0.5L0,-3.0L2.5,-0.5"/>
                </g>
        </g>
        <svg viewBox="0 0 15 15" width="100%" height="30px" preserveAspectRatio="xMaxYMin meet">
         <g id="arrow_out" transform="scale(0.3 0.3)">
          <a xlink:href="connection__wrap_8cc__incl_org.svg" target="_base">
           <rect id="button" ry="5" rx="5" y="6" x="6" height="38" width="38"
                fill="#f2f5e9" fill-opacity="0.5" stroke="#606060" stroke-width="1.0"/>
           <path id="arrow"
             d="M 11.500037,31.436501 C 11.940474,20.09759 22.043105,11.32322 32.158766,21.979434 L 37.068811,17.246167 C 37.068811,17.246167 37.088388,32 37.088388,32 L 22.160133,31.978069 C 22.160133,31.978069 26.997745,27.140456 26.997745,27.140456 C 18.528582,18.264221 13.291696,25.230495 11.500037,31.436501 z"
             style="fill:#404040;"/>
          </a>
         </g>
        </svg>
</svg>
