<?xml version="1.0" encoding="UTF-8" standalone="no"?>
<!DOCTYPE svg PUBLIC "-//W3C//DTD SVG 1.1//EN"
 "http://www.w3.org/Graphics/SVG/1.1/DTD/svg11.dtd">
<!-- Generated by graphviz version 2.40.1 (20161225.0304)
 -->
<!-- Title: src/inspector_io.h Pages: 1 -->
<!--zoomable 247 -->
<svg id="main" version="1.1" xmlns="http://www.w3.org/2000/svg" xmlns:xlink="http://www.w3.org/1999/xlink" xml:space="preserve" onload="init(evt)">
<style type="text/css"><![CDATA[
.edge:hover path { stroke: red; }
.edge:hover polygon { stroke: red; fill: red; }
]]></style>
<script type="text/javascript"><![CDATA[
var edges = document.getElementsByTagName('g');
if (edges && edges.length) {
  for (var i=0;i<edges.length;i++) {
    if (edges[i].id.substr(0,4)=='edge') {
      edges[i].setAttribute('class','edge');
    }
  }
}
]]></script>
        <defs>
                <circle id="rim" cx="0" cy="0" r="7"/>
                <circle id="rim2" cx="0" cy="0" r="3.5"/>
                <g id="zoomPlus">
                        <use xlink:href="#rim" fill="#404040">
                                <set attributeName="fill" to="#808080" begin="zoomplus.mouseover" end="zoomplus.mouseout"/>
                        </use>
                        <path d="M-4,0h8M0,-4v8" fill="none" stroke="white" stroke-width="1.5" pointer-events="none"/>
                </g>
                <g id="zoomMin">
                        <use xlink:href="#rim" fill="#404040">
                                <set attributeName="fill" to="#808080" begin="zoomminus.mouseover" end="zoomminus.mouseout"/>
                        </use>
                        <path d="M-4,0h8" fill="none" stroke="white" stroke-width="1.5" pointer-events="none"/>
                </g>
                <g id="dirArrow">
                        <path fill="none" stroke="white" stroke-width="1.5" d="M0,-3.0v7 M-2.5,-0.5L0,-3.0L2.5,-0.5"/>
                </g>
               <g id="resetDef">
                       <use xlink:href="#rim2" fill="#404040">
                               <set attributeName="fill" to="#808080" begin="reset.mouseover" end="reset.mouseout"/>
                       </use>
               </g>
        </defs>

<script type="text/javascript">
var viewWidth = 801;
var viewHeight = 247;
var sectionId = 'dynsection-0';
</script>
<script xlink:href="../../svgpan.js"/>
<svg id="graph" class="graph">
<g id="viewport">
<title>src/inspector_io.h</title>
<polygon fill="#ffffff" stroke="transparent" points="-4,4 -4,-243 796.9604,-243 796.9604,4 -4,4"/>
<!-- Node0 -->
<g id="node1" class="node">
<title>Node0</title>
<polygon fill="#bfbfbf" stroke="#000000" points="367.8721,-220.5 367.8721,-238.5 462.2412,-238.5 462.2412,-220.5 367.8721,-220.5"/>
<text text-anchor="middle" x="415.0566" y="-226.5" font-family="Helvetica,sans-Serif" font-size="10.00" fill="#000000">src/inspector_io.h</text>
</g>
<!-- Node1 -->
<g id="node2" class="node">
<title>Node1</title>
<g id="a_node2"><a xlink:href="../../d7/de7/inspector__socket__server_8h.html" target="_top" xlink:title="inspector_socket_server.h">
<polygon fill="#ffffff" stroke="#000000" points="348.9683,-165.5 348.9683,-183.5 481.145,-183.5 481.145,-165.5 348.9683,-165.5"/>
<text text-anchor="middle" x="415.0566" y="-171.5" font-family="Helvetica,sans-Serif" font-size="10.00" fill="#000000">inspector_socket_server.h</text>
</a>
</g>
</g>
<!-- Node0&#45;&gt;Node1 -->
<g id="edge1" class="edge">
<title>Node0&#45;&gt;Node1</title>
<path fill="none" stroke="#191970" d="M415.0566,-220.4179C415.0566,-213.2164 415.0566,-202.8962 415.0566,-193.8632"/>
<polygon fill="#191970" stroke="#191970" points="418.5567,-193.7794 415.0566,-183.7795 411.5567,-193.7795 418.5567,-193.7794"/>
</g>
<!-- Node3 -->
<g id="node4" class="node">
<title>Node3</title>
<polygon fill="#ffffff" stroke="#bfbfbf" points="0,-55.5 0,-73.5 52.1133,-73.5 52.1133,-55.5 0,-55.5"/>
<text text-anchor="middle" x="26.0566" y="-61.5" font-family="Helvetica,sans-Serif" font-size="10.00" fill="#000000">memory</text>
</g>
<!-- Node0&#45;&gt;Node3 -->
<g id="edge25" class="edge">
<title>Node0&#45;&gt;Node3</title>
<path fill="none" stroke="#191970" d="M367.4631,-226.5646C317.9044,-222.1256 238.8854,-211.1048 176.0566,-184 119.2598,-159.4974 65.901,-107.6234 40.9024,-81.0095"/>
<polygon fill="#191970" stroke="#191970" points="43.4363,-78.5945 34.0823,-73.6193 38.2921,-83.3419 43.4363,-78.5945"/>
</g>
<!-- Node4 -->
<g id="node5" class="node">
<title>Node4</title>
<polygon fill="#ffffff" stroke="#bfbfbf" points="70.2661,-55.5 70.2661,-73.5 121.8472,-73.5 121.8472,-55.5 70.2661,-55.5"/>
<text text-anchor="middle" x="96.0566" y="-61.5" font-family="Helvetica,sans-Serif" font-size="10.00" fill="#000000">stddef.h</text>
</g>
<!-- Node0&#45;&gt;Node4 -->
<g id="edge26" class="edge">
<title>Node0&#45;&gt;Node4</title>
<path fill="none" stroke="#191970" d="M373.0295,-220.4617C299.3707,-203.8296 151.3176,-166.6198 115.0566,-129 103.4224,-116.9298 98.862,-98.1041 97.1002,-83.9006"/>
<polygon fill="#191970" stroke="#191970" points="100.5674,-83.3733 96.2056,-73.718 93.5943,-83.986 100.5674,-83.3733"/>
</g>
<!-- Node5 -->
<g id="node6" class="node">
<title>Node5</title>
<g id="a_node6"><a xlink:href="../../dc/d2b/node__debug__options_8h.html" target="_top" xlink:title="node_debug_options.h">
<polygon fill="#ffffff" stroke="#000000" points="192.1753,-55.5 192.1753,-73.5 309.938,-73.5 309.938,-55.5 192.1753,-55.5"/>
<text text-anchor="middle" x="251.0566" y="-61.5" font-family="Helvetica,sans-Serif" font-size="10.00" fill="#000000">node_debug_options.h</text>
</a>
</g>
</g>
<!-- Node0&#45;&gt;Node5 -->
<g id="edge19" class="edge">
<title>Node0&#45;&gt;Node5</title>
<path fill="none" stroke="#191970" d="M395.8223,-220.4627C379.802,-212.3491 356.9576,-199.3696 340.0566,-184 305.9281,-152.9638 276.1604,-107.1803 261.2387,-82.2553"/>
<polygon fill="#191970" stroke="#191970" points="264.188,-80.3658 256.1057,-73.5154 258.152,-83.9108 264.188,-80.3658"/>
</g>
<!-- Node12 -->
<g id="node13" class="node">
<title>Node12</title>
<polygon fill="#ffffff" stroke="#bfbfbf" points="681.9746,-55.5 681.9746,-73.5 716.1387,-73.5 716.1387,-55.5 681.9746,-55.5"/>
<text text-anchor="middle" x="699.0566" y="-61.5" font-family="Helvetica,sans-Serif" font-size="10.00" fill="#000000">uv.h</text>
</g>
<!-- Node0&#45;&gt;Node12 -->
<g id="edge23" class="edge">
<title>Node0&#45;&gt;Node12</title>
<path fill="none" stroke="#191970" d="M459.5819,-220.4538C532.8402,-204.5631 673.546,-169.4567 702.0566,-129 711.2283,-115.9853 709.2995,-97.558 705.7643,-83.7301"/>
<polygon fill="#191970" stroke="#191970" points="709.0115,-82.3762 702.7662,-73.8177 702.3113,-84.4028 709.0115,-82.3762"/>
</g>
<!-- Node15 -->
<g id="node16" class="node">
<title>Node15</title>
<g id="a_node16"><a xlink:href="../../d8/dc3/node__mutex_8h.html" target="_top" xlink:title="node_mutex.h">
<polygon fill="#ffffff" stroke="#000000" points="613.3672,-110.5 613.3672,-128.5 692.7461,-128.5 692.7461,-110.5 613.3672,-110.5"/>
<text text-anchor="middle" x="653.0566" y="-116.5" font-family="Helvetica,sans-Serif" font-size="10.00" fill="#000000">node_mutex.h</text>
</a>
</g>
</g>
<!-- Node0&#45;&gt;Node15 -->
<g id="edge20" class="edge">
<title>Node0&#45;&gt;Node15</title>
<path fill="none" stroke="#191970" d="M434.5332,-220.4982C476.3732,-201.1604 575.018,-155.5683 624.1716,-132.8502"/>
<polygon fill="#191970" stroke="#191970" points="625.702,-135.9987 633.311,-128.6261 622.7652,-129.6445 625.702,-135.9987"/>
</g>
<!-- Node16 -->
<g id="node17" class="node">
<title>Node16</title>
<polygon fill="#ffffff" stroke="#bfbfbf" points="749.1528,-165.5 749.1528,-183.5 792.9604,-183.5 792.9604,-165.5 749.1528,-165.5"/>
<text text-anchor="middle" x="771.0566" y="-171.5" font-family="Helvetica,sans-Serif" font-size="10.00" fill="#000000">deque</text>
</g>
<!-- Node0&#45;&gt;Node16 -->
<g id="edge24" class="edge">
<title>Node0&#45;&gt;Node16</title>
<path fill="none" stroke="#191970" d="M462.2533,-224.5357C524.9386,-217.5447 638.9442,-203.4453 735.0566,-184 736.3396,-183.7404 737.6448,-183.4625 738.9608,-183.1707"/>
<polygon fill="#191970" stroke="#191970" points="740.1642,-186.4811 749.0674,-180.738 738.526,-179.6755 740.1642,-186.4811"/>
</g>
<!-- Node2 -->
<g id="node3" class="node">
<title>Node2</title>
<g id="a_node3"><a xlink:href="../../db/de0/inspector__agent_8h.html" target="_top" xlink:title="inspector_agent.h">
<polygon fill="#ffffff" stroke="#000000" points="124.3057,-110.5 124.3057,-128.5 219.8076,-128.5 219.8076,-110.5 124.3057,-110.5"/>
<text text-anchor="middle" x="172.0566" y="-116.5" font-family="Helvetica,sans-Serif" font-size="10.00" fill="#000000">inspector_agent.h</text>
</a>
</g>
</g>
<!-- Node1&#45;&gt;Node2 -->
<g id="edge2" class="edge">
<title>Node1&#45;&gt;Node2</title>
<path fill="none" stroke="#191970" d="M375.2022,-165.4795C333.2676,-155.9881 267.1822,-141.0305 221.8442,-130.7688"/>
<polygon fill="#191970" stroke="#191970" points="222.4588,-127.3194 211.9328,-128.5255 220.9134,-134.1467 222.4588,-127.3194"/>
</g>
<!-- Node6 -->
<g id="node7" class="node">
<title>Node6</title>
<polygon fill="#ffffff" stroke="#bfbfbf" points="317.8301,-.5 317.8301,-18.5 358.2832,-18.5 358.2832,-.5 317.8301,-.5"/>
<text text-anchor="middle" x="338.0566" y="-6.5" font-family="Helvetica,sans-Serif" font-size="10.00" fill="#000000">string</text>
</g>
<!-- Node1&#45;&gt;Node6 -->
<g id="edge17" class="edge">
<title>Node1&#45;&gt;Node6</title>
<path fill="none" stroke="#191970" d="M409.1204,-165.1751C403.3509,-156.0381 394.4082,-141.6775 387.0566,-129 373.0886,-104.9126 367.7176,-99.7226 357.0566,-74 350.911,-59.1718 345.8859,-41.665 342.5505,-28.6347"/>
<polygon fill="#191970" stroke="#191970" points="345.9436,-27.7753 340.1588,-18.8992 339.1457,-29.4454 345.9436,-27.7753"/>
</g>
<!-- Node8 -->
<g id="node9" class="node">
<title>Node8</title>
<g id="a_node9"><a xlink:href="../../d4/dee/inspector__socket_8h.html" target="_top" xlink:title="inspector_socket.h">
<polygon fill="#ffffff" stroke="#000000" points="404.3672,-110.5 404.3672,-128.5 503.7461,-128.5 503.7461,-110.5 404.3672,-110.5"/>
<text text-anchor="middle" x="454.0566" y="-116.5" font-family="Helvetica,sans-Serif" font-size="10.00" fill="#000000">inspector_socket.h</text>
</a>
</g>
</g>
<!-- Node1&#45;&gt;Node8 -->
<g id="edge8" class="edge">
<title>Node1&#45;&gt;Node8</title>
<path fill="none" stroke="#191970" d="M421.4967,-165.4179C426.9399,-157.7415 434.8958,-146.5217 441.5806,-137.0945"/>
<polygon fill="#191970" stroke="#191970" points="444.5474,-138.9613 447.4767,-128.7795 438.8373,-134.9123 444.5474,-138.9613"/>
</g>
<!-- Node1&#45;&gt;Node12 -->
<g id="edge15" class="edge">
<title>Node1&#45;&gt;Node12</title>
<path fill="none" stroke="#191970" d="M451.3431,-165.4382C482.3054,-157.265 527.7618,-144.2138 566.0566,-129 583.6049,-122.0284 587.0967,-118.3007 604.0566,-110 627.1356,-98.7045 653.4987,-86.1016 672.5885,-77.0291"/>
<polygon fill="#191970" stroke="#191970" points="674.319,-80.0821 681.8523,-72.6323 671.3175,-73.7582 674.319,-80.0821"/>
</g>
<!-- Node13 -->
<g id="node14" class="node">
<title>Node13</title>
<polygon fill="#ffffff" stroke="#bfbfbf" points="366.4409,-55.5 366.4409,-73.5 409.6724,-73.5 409.6724,-55.5 366.4409,-55.5"/>
<text text-anchor="middle" x="388.0566" y="-61.5" font-family="Helvetica,sans-Serif" font-size="10.00" fill="#000000">vector</text>
</g>
<!-- Node1&#45;&gt;Node13 -->
<g id="edge18" class="edge">
<title>Node1&#45;&gt;Node13</title>
<path fill="none" stroke="#191970" d="M410.0553,-165.3922C405.3698,-156.4161 398.5763,-142.1713 395.0566,-129 391.0983,-114.1871 389.3703,-96.8903 388.62,-83.9394"/>
<polygon fill="#191970" stroke="#191970" points="392.1124,-83.6871 388.1808,-73.8488 385.1191,-83.9915 392.1124,-83.6871"/>
</g>
<!-- Node14 -->
<g id="node15" class="node">
<title>Node14</title>
<polygon fill="#ffffff" stroke="#bfbfbf" points="521.3301,-110.5 521.3301,-128.5 556.7832,-128.5 556.7832,-110.5 521.3301,-110.5"/>
<text text-anchor="middle" x="539.0566" y="-116.5" font-family="Helvetica,sans-Serif" font-size="10.00" fill="#000000">map</text>
</g>
<!-- Node1&#45;&gt;Node14 -->
<g id="edge16" class="edge">
<title>Node1&#45;&gt;Node14</title>
<path fill="none" stroke="#191970" d="M435.5327,-165.4179C456.3583,-156.1807 488.7519,-141.8126 511.7514,-131.6112"/>
<polygon fill="#191970" stroke="#191970" points="513.25,-134.7754 520.9721,-127.5214 510.4118,-128.3766 513.25,-134.7754"/>
</g>
<!-- Node2&#45;&gt;Node3 -->
<g id="edge3" class="edge">
<title>Node2&#45;&gt;Node3</title>
<path fill="none" stroke="#191970" d="M147.9477,-110.4179C123.855,-101.3419 86.6129,-87.3123 59.6335,-77.1488"/>
<polygon fill="#191970" stroke="#191970" points="60.7933,-73.8457 50.2014,-73.5956 58.3255,-80.3963 60.7933,-73.8457"/>
</g>
<!-- Node2&#45;&gt;Node4 -->
<g id="edge4" class="edge">
<title>Node2&#45;&gt;Node4</title>
<path fill="none" stroke="#191970" d="M159.5068,-110.4179C147.9555,-102.0584 130.5974,-89.4966 116.9551,-79.6239"/>
<polygon fill="#191970" stroke="#191970" points="118.7783,-76.6229 108.6251,-73.5956 114.6744,-82.2938 118.7783,-76.6229"/>
</g>
<!-- Node2&#45;&gt;Node5 -->
<g id="edge5" class="edge">
<title>Node2&#45;&gt;Node5</title>
<path fill="none" stroke="#191970" d="M185.1019,-110.4179C197.2235,-101.9788 215.4966,-89.257 229.7373,-79.3426"/>
<polygon fill="#191970" stroke="#191970" points="231.7849,-82.1818 237.992,-73.5956 227.7853,-76.4369 231.7849,-82.1818"/>
</g>
<!-- Node7 -->
<g id="node8" class="node">
<title>Node7</title>
<polygon fill="#ffffff" stroke="#bfbfbf" points="139.606,-55.5 139.606,-73.5 174.5073,-73.5 174.5073,-55.5 139.606,-55.5"/>
<text text-anchor="middle" x="157.0566" y="-61.5" font-family="Helvetica,sans-Serif" font-size="10.00" fill="#000000">v8.h</text>
</g>
<!-- Node2&#45;&gt;Node7 -->
<g id="edge7" class="edge">
<title>Node2&#45;&gt;Node7</title>
<path fill="none" stroke="#191970" d="M169.5797,-110.4179C167.5941,-103.1372 164.7391,-92.669 162.2564,-83.5659"/>
<polygon fill="#191970" stroke="#191970" points="165.5953,-82.5062 159.5874,-73.7795 158.842,-84.348 165.5953,-82.5062"/>
</g>
<!-- Node5&#45;&gt;Node6 -->
<g id="edge6" class="edge">
<title>Node5&#45;&gt;Node6</title>
<path fill="none" stroke="#191970" d="M265.4229,-55.4179C278.898,-46.8992 299.2759,-34.0166 315.0211,-24.0627"/>
<polygon fill="#191970" stroke="#191970" points="317.0867,-26.8977 323.669,-18.5956 313.3462,-20.9808 317.0867,-26.8977"/>
</g>
<!-- Node8&#45;&gt;Node6 -->
<g id="edge13" class="edge">
<title>Node8&#45;&gt;Node6</title>
<path fill="none" stroke="#191970" d="M450.8901,-110.14C445.9175,-96.5861 435.1534,-71.334 419.0566,-55 404.5768,-40.3067 384.3474,-28.9381 367.7277,-21.2396"/>
<polygon fill="#191970" stroke="#191970" points="368.9918,-17.9718 358.4301,-17.1336 366.1639,-24.3752 368.9918,-17.9718"/>
</g>
<!-- Node9 -->
<g id="node10" class="node">
<title>Node9</title>
<polygon fill="#ffffff" stroke="#bfbfbf" points="465.8672,-55.5 465.8672,-73.5 540.2461,-73.5 540.2461,-55.5 465.8672,-55.5"/>
<text text-anchor="middle" x="503.0566" y="-61.5" font-family="Helvetica,sans-Serif" font-size="10.00" fill="#000000">http_parser.h</text>
</g>
<!-- Node8&#45;&gt;Node9 -->
<g id="edge9" class="edge">
<title>Node8&#45;&gt;Node9</title>
<path fill="none" stroke="#191970" d="M462.148,-110.4179C469.1279,-102.5833 479.3963,-91.0575 487.899,-81.5137"/>
<polygon fill="#191970" stroke="#191970" points="490.7507,-83.5743 494.7895,-73.7795 485.5241,-78.9178 490.7507,-83.5743"/>
</g>
<!-- Node10 -->
<g id="node11" class="node">
<title>Node10</title>
<g id="a_node11"><a xlink:href="../../d8/d3c/util_8h.html" target="_top" xlink:title="util.h">
<polygon fill="#ffffff" stroke="#000000" points="626.4951,-55.5 626.4951,-73.5 663.6182,-73.5 663.6182,-55.5 626.4951,-55.5"/>
<text text-anchor="middle" x="645.0566" y="-61.5" font-family="Helvetica,sans-Serif" font-size="10.00" fill="#000000">util.h</text>
</a>
</g>
</g>
<!-- Node8&#45;&gt;Node10 -->
<g id="edge10" class="edge">
<title>Node8&#45;&gt;Node10</title>
<path fill="none" stroke="#191970" d="M488.5603,-110.4582C519.659,-102.1782 566.8369,-89.296 616.7466,-73.9723"/>
<polygon fill="#191970" stroke="#191970" points="617.9068,-77.2771 626.427,-70.9797 615.8393,-70.5894 617.9068,-77.2771"/>
</g>
<!-- Node11 -->
<g id="node12" class="node">
<title>Node11</title>
<g id="a_node12"><a xlink:href="../../d5/d8c/util-inl_8h.html" target="_top" xlink:title="util&#45;inl.h">
<polygon fill="#ffffff" stroke="#000000" points="557.8276,-55.5 557.8276,-73.5 608.2856,-73.5 608.2856,-55.5 557.8276,-55.5"/>
<text text-anchor="middle" x="583.0566" y="-61.5" font-family="Helvetica,sans-Serif" font-size="10.00" fill="#000000">util&#45;inl.h</text>
</a>
</g>
</g>
<!-- Node8&#45;&gt;Node11 -->
<g id="edge11" class="edge">
<title>Node8&#45;&gt;Node11</title>
<path fill="none" stroke="#191970" d="M475.3584,-110.4179C496.3657,-101.4613 528.6875,-87.6806 552.4438,-77.552"/>
<polygon fill="#191970" stroke="#191970" points="553.8972,-80.7372 561.7233,-73.5956 551.1517,-74.2981 553.8972,-80.7372"/>
</g>
<!-- Node8&#45;&gt;Node12 -->
<g id="edge12" class="edge">
<title>Node8&#45;&gt;Node12</title>
<path fill="none" stroke="#191970" d="M504.135,-111.2371C546.6683,-103.7386 609.4208,-91.5455 672.1691,-73.945"/>
<polygon fill="#191970" stroke="#191970" points="673.1722,-77.2985 681.8299,-71.1916 671.2535,-70.5666 673.1722,-77.2985"/>
</g>
<!-- Node8&#45;&gt;Node13 -->
<g id="edge14" class="edge">
<title>Node8&#45;&gt;Node13</title>
<path fill="none" stroke="#191970" d="M443.1581,-110.4179C433.3767,-102.2667 418.8008,-90.1201 407.097,-80.3669"/>
<polygon fill="#191970" stroke="#191970" points="409.1149,-77.4926 399.192,-73.7795 404.6336,-82.8701 409.1149,-77.4926"/>
</g>
<!-- Node15&#45;&gt;Node10 -->
<g id="edge21" class="edge">
<title>Node15&#45;&gt;Node10</title>
<path fill="none" stroke="#191970" d="M651.7356,-110.4179C650.6881,-103.2164 649.187,-92.8962 647.8731,-83.8632"/>
<polygon fill="#191970" stroke="#191970" points="651.3094,-83.1715 646.4064,-73.7795 644.3823,-84.1791 651.3094,-83.1715"/>
</g>
<!-- Node15&#45;&gt;Node12 -->
<g id="edge22" class="edge">
<title>Node15&#45;&gt;Node12</title>
<path fill="none" stroke="#191970" d="M660.6526,-110.4179C667.2052,-102.5833 676.8449,-91.0575 684.827,-81.5137"/>
<polygon fill="#191970" stroke="#191970" points="687.5648,-83.6957 691.2956,-73.7795 682.1953,-79.2048 687.5648,-83.6957"/>
</g>
</g>
</svg>
        <g id="navigator" transform="translate(0 0)" fill="#404254">
                <rect fill="#f2f5e9" fill-opacity="0.5" stroke="#606060" stroke-width=".5" x="0" y="0" width="60" height="60"/>
                <use id="zoomplus" xlink:href="#zoomPlus" x="17" y="9" onmousedown="handleZoom(evt,'in')"/>
                <use id="zoomminus" xlink:href="#zoomMin" x="42" y="9" onmousedown="handleZoom(evt,'out')"/>
                <use id="reset" xlink:href="#resetDef" x="30" y="36" onmousedown="handleReset()"/>
                <g id="arrowUp" xlink:href="#dirArrow" transform="translate(30 24)" onmousedown="handlePan(0,-1)">
                  <use xlink:href="#rim" fill="#404040">
                        <set attributeName="fill" to="#808080" begin="arrowUp.mouseover" end="arrowUp.mouseout"/>
                  </use>
                  <path fill="none" stroke="white" stroke-width="1.5" d="M0,-3.0v7 M-2.5,-0.5L0,-3.0L2.5,-0.5"/>
                </g>
                <g id="arrowRight" xlink:href="#dirArrow" transform="rotate(90) translate(36 -43)" onmousedown="handlePan(1,0)">
                  <use xlink:href="#rim" fill="#404040">
                        <set attributeName="fill" to="#808080" begin="arrowRight.mouseover" end="arrowRight.mouseout"/>
                  </use>
                  <path fill="none" stroke="white" stroke-width="1.5" d="M0,-3.0v7 M-2.5,-0.5L0,-3.0L2.5,-0.5"/>
                </g>
                <g id="arrowDown" xlink:href="#dirArrow" transform="rotate(180) translate(-30 -48)" onmousedown="handlePan(0,1)">
                  <use xlink:href="#rim" fill="#404040">
                        <set attributeName="fill" to="#808080" begin="arrowDown.mouseover" end="arrowDown.mouseout"/>
                  </use>
                  <path fill="none" stroke="white" stroke-width="1.5" d="M0,-3.0v7 M-2.5,-0.5L0,-3.0L2.5,-0.5"/>
                </g>
                <g id="arrowLeft" xlink:href="#dirArrow" transform="rotate(270) translate(-36 17)" onmousedown="handlePan(-1,0)">
                  <use xlink:href="#rim" fill="#404040">
                        <set attributeName="fill" to="#808080" begin="arrowLeft.mouseover" end="arrowLeft.mouseout"/>
                  </use>
                  <path fill="none" stroke="white" stroke-width="1.5" d="M0,-3.0v7 M-2.5,-0.5L0,-3.0L2.5,-0.5"/>
                </g>
        </g>
        <svg viewBox="0 0 15 15" width="100%" height="30px" preserveAspectRatio="xMaxYMin meet">
         <g id="arrow_out" transform="scale(0.3 0.3)">
          <a xlink:href="inspector__io_8h__incl_org.svg" target="_base">
           <rect id="button" ry="5" rx="5" y="6" x="6" height="38" width="38"
                fill="#f2f5e9" fill-opacity="0.5" stroke="#606060" stroke-width="1.0"/>
           <path id="arrow"
             d="M 11.500037,31.436501 C 11.940474,20.09759 22.043105,11.32322 32.158766,21.979434 L 37.068811,17.246167 C 37.068811,17.246167 37.088388,32 37.088388,32 L 22.160133,31.978069 C 22.160133,31.978069 26.997745,27.140456 26.997745,27.140456 C 18.528582,18.264221 13.291696,25.230495 11.500037,31.436501 z"
             style="fill:#404040;"/>
          </a>
         </g>
        </svg>
</svg>
