<?xml version="1.0" encoding="UTF-8" standalone="no"?>
<!DOCTYPE svg PUBLIC "-//W3C//DTD SVG 1.1//EN"
 "http://www.w3.org/Graphics/SVG/1.1/DTD/svg11.dtd">
<!-- Generated by graphviz version 2.40.1 (20161225.0304)
 -->
<!-- Title: src/inspector_socket.h Pages: 1 -->
<svg width="383pt" height="212pt"
 viewBox="0.00 0.00 382.99 212.00" xmlns="http://www.w3.org/2000/svg" xmlns:xlink="http://www.w3.org/1999/xlink">
<g id="graph0" class="graph" transform="scale(1 1) rotate(0) translate(4 208)">
<title>src/inspector_socket.h</title>
<polygon fill="#ffffff" stroke="transparent" points="-4,4 -4,-208 378.9873,-208 378.9873,4 -4,4"/>
<!-- Node7 -->
<g id="node1" class="node">
<title>Node7</title>
<polygon fill="#bfbfbf" stroke="#000000" points="191.2808,-185.5 191.2808,-203.5 306.7681,-203.5 306.7681,-185.5 191.2808,-185.5"/>
<text text-anchor="middle" x="249.0244" y="-191.5" font-family="Helvetica,sans-Serif" font-size="10.00" fill="#000000">src/inspector_socket.h</text>
</g>
<!-- Node8 -->
<g id="node2" class="node">
<title>Node8</title>
<g id="a_node2"><a xlink:href="../../d7/de7/inspector__socket__server_8h.html" target="_top" xlink:title="src/inspector_socket\l_server.h">
<polygon fill="#ffffff" stroke="#000000" points="129.4507,-120.5 129.4507,-148.5 236.5981,-148.5 236.5981,-120.5 129.4507,-120.5"/>
<text text-anchor="start" x="137.4507" y="-136.5" font-family="Helvetica,sans-Serif" font-size="10.00" fill="#000000">src/inspector_socket</text>
<text text-anchor="middle" x="183.0244" y="-126.5" font-family="Helvetica,sans-Serif" font-size="10.00" fill="#000000">_server.h</text>
</a>
</g>
</g>
<!-- Node7&#45;&gt;Node8 -->
<g id="edge1" class="edge">
<title>Node7&#45;&gt;Node8</title>
<path fill="none" stroke="#191970" d="M231.4434,-178.5172C221.2073,-169.2117 208.418,-157.5851 198.5545,-148.6183"/>
<polygon fill="#191970" stroke="#191970" points="229.2466,-181.2503 239.0004,-185.3873 233.9554,-176.0707 229.2466,-181.2503"/>
</g>
<!-- Node13 -->
<g id="node7" class="node">
<title>Node13</title>
<g id="a_node7"><a xlink:href="../../de/da5/inspector__socket_8cc.html" target="_top" xlink:title="src/inspector_socket.cc">
<polygon fill="#ffffff" stroke="#000000" points="255.0615,-125.5 255.0615,-143.5 374.9873,-143.5 374.9873,-125.5 255.0615,-125.5"/>
<text text-anchor="middle" x="315.0244" y="-131.5" font-family="Helvetica,sans-Serif" font-size="10.00" fill="#000000">src/inspector_socket.cc</text>
</a>
</g>
</g>
<!-- Node7&#45;&gt;Node13 -->
<g id="edge7" class="edge">
<title>Node7&#45;&gt;Node13</title>
<path fill="none" stroke="#191970" d="M266.4689,-178.6414C278.7256,-167.4989 294.6945,-152.9817 304.9061,-143.6985"/>
<polygon fill="#191970" stroke="#191970" points="264.0935,-176.0707 259.0484,-185.3873 268.8022,-181.2503 264.0935,-176.0707"/>
</g>
<!-- Node9 -->
<g id="node3" class="node">
<title>Node9</title>
<g id="a_node3"><a xlink:href="../../d1/dc8/inspector__io_8h.html" target="_top" xlink:title="src/inspector_io.h">
<polygon fill="#ffffff" stroke="#000000" points="60.8398,-60.5 60.8398,-78.5 155.209,-78.5 155.209,-60.5 60.8398,-60.5"/>
<text text-anchor="middle" x="108.0244" y="-66.5" font-family="Helvetica,sans-Serif" font-size="10.00" fill="#000000">src/inspector_io.h</text>
</a>
</g>
</g>
<!-- Node8&#45;&gt;Node9 -->
<g id="edge2" class="edge">
<title>Node8&#45;&gt;Node9</title>
<path fill="none" stroke="#191970" d="M159.0871,-113.7543C145.413,-101.9034 128.9583,-87.6427 118.4948,-78.5743"/>
<polygon fill="#191970" stroke="#191970" points="156.9013,-116.4915 166.7505,-120.396 161.4859,-111.2017 156.9013,-116.4915"/>
</g>
<!-- Node11 -->
<g id="node5" class="node">
<title>Node11</title>
<g id="a_node5"><a xlink:href="../../d1/d89/inspector__io_8cc.html" target="_top" xlink:title="src/inspector_io.cc">
<polygon fill="#ffffff" stroke="#000000" points="133.6206,-.5 133.6206,-18.5 232.4282,-18.5 232.4282,-.5 133.6206,-.5"/>
<text text-anchor="middle" x="183.0244" y="-6.5" font-family="Helvetica,sans-Serif" font-size="10.00" fill="#000000">src/inspector_io.cc</text>
</a>
</g>
</g>
<!-- Node8&#45;&gt;Node11 -->
<g id="edge5" class="edge">
<title>Node8&#45;&gt;Node11</title>
<path fill="none" stroke="#191970" d="M183.0244,-109.9957C183.0244,-82.0593 183.0244,-37.8007 183.0244,-18.736"/>
<polygon fill="#191970" stroke="#191970" points="179.5245,-110.1609 183.0244,-120.1609 186.5245,-110.1609 179.5245,-110.1609"/>
</g>
<!-- Node12 -->
<g id="node6" class="node">
<title>Node12</title>
<g id="a_node6"><a xlink:href="../../da/d74/inspector__socket__server_8cc.html" target="_top" xlink:title="src/inspector_socket\l_server.cc">
<polygon fill="#ffffff" stroke="#000000" points="211.4507,-55.5 211.4507,-83.5 318.5981,-83.5 318.5981,-55.5 211.4507,-55.5"/>
<text text-anchor="start" x="219.4507" y="-71.5" font-family="Helvetica,sans-Serif" font-size="10.00" fill="#000000">src/inspector_socket</text>
<text text-anchor="middle" x="265.0244" y="-61.5" font-family="Helvetica,sans-Serif" font-size="10.00" fill="#000000">_server.cc</text>
</a>
</g>
</g>
<!-- Node8&#45;&gt;Node12 -->
<g id="edge6" class="edge">
<title>Node8&#45;&gt;Node12</title>
<path fill="none" stroke="#191970" d="M208.6745,-114.1677C221.2133,-104.2283 235.9908,-92.5144 247.2664,-83.5765"/>
<polygon fill="#191970" stroke="#191970" points="206.4796,-111.4412 200.8172,-120.396 210.828,-116.9268 206.4796,-111.4412"/>
</g>
<!-- Node10 -->
<g id="node4" class="node">
<title>Node10</title>
<g id="a_node4"><a xlink:href="../../d5/d2d/inspector__agent_8cc.html" target="_top" xlink:title="src/inspector_agent.cc">
<polygon fill="#ffffff" stroke="#000000" points="0,-.5 0,-18.5 116.0488,-18.5 116.0488,-.5 0,-.5"/>
<text text-anchor="middle" x="58.0244" y="-6.5" font-family="Helvetica,sans-Serif" font-size="10.00" fill="#000000">src/inspector_agent.cc</text>
</a>
</g>
</g>
<!-- Node9&#45;&gt;Node10 -->
<g id="edge3" class="edge">
<title>Node9&#45;&gt;Node10</title>
<path fill="none" stroke="#191970" d="M94.0063,-52.6783C84.8358,-41.6737 73.2048,-27.7165 65.6898,-18.6985"/>
<polygon fill="#191970" stroke="#191970" points="91.3398,-54.9457 100.4305,-60.3873 96.7174,-50.4644 91.3398,-54.9457"/>
</g>
<!-- Node9&#45;&gt;Node11 -->
<g id="edge4" class="edge">
<title>Node9&#45;&gt;Node11</title>
<path fill="none" stroke="#191970" d="M127.4509,-53.9588C141.4295,-42.7759 159.8117,-28.0702 171.5263,-18.6985"/>
<polygon fill="#191970" stroke="#191970" points="125.0376,-51.4073 119.4153,-60.3873 129.4105,-56.8734 125.0376,-51.4073"/>
</g>
</g>
</svg>
