<?xml version="1.0" encoding="UTF-8" standalone="no"?>
<!DOCTYPE svg PUBLIC "-//W3C//DTD SVG 1.1//EN"
 "http://www.w3.org/Graphics/SVG/1.1/DTD/svg11.dtd">
<!-- Generated by graphviz version 2.40.1 (20161225.0304)
 -->
<!-- Title: Graphical Class Hierarchy Pages: 1 -->
<svg width="227pt" height="101pt"
 viewBox="0.00 0.00 227.00 101.00" xmlns="http://www.w3.org/2000/svg" xmlns:xlink="http://www.w3.org/1999/xlink">
<g id="graph0" class="graph" transform="scale(1 1) rotate(0) translate(4 97)">
<title>Graphical Class Hierarchy</title>
<polygon fill="#ffffff" stroke="transparent" points="-4,4 -4,-97 223.001,-97 223.001,4 -4,4"/>
<!-- Node65 -->
<g id="node1" class="node">
<title>Node65</title>
<polygon fill="#ffffff" stroke="#bfbfbf" points="0,-37.5 0,-55.5 66.9473,-55.5 66.9473,-37.5 0,-37.5"/>
<text text-anchor="middle" x="33.4736" y="-43.5" font-family="Helvetica,sans-Serif" font-size="10.00" fill="#000000">AsyncWrap</text>
</g>
<!-- Node0 -->
<g id="node2" class="node">
<title>Node0</title>
<g id="a_node2"><a xlink:href="d3/dde/classnode_1_1crypto_1_1_p_b_k_d_f2_request.html" target="_top" xlink:title="PBKDF2Request">
<polygon fill="#ffffff" stroke="#000000" points="114.9004,-74.5 114.9004,-92.5 207.0479,-92.5 207.0479,-74.5 114.9004,-74.5"/>
<text text-anchor="middle" x="160.9741" y="-80.5" font-family="Helvetica,sans-Serif" font-size="10.00" fill="#000000">PBKDF2Request</text>
</a>
</g>
</g>
<!-- Node65&#45;&gt;Node0 -->
<g id="edge1" class="edge">
<title>Node65&#45;&gt;Node0</title>
<path fill="none" stroke="#191970" d="M74.2996,-58.3475C92.2397,-63.5536 112.974,-69.5706 129.6641,-74.414"/>
<polygon fill="#191970" stroke="#191970" points="75.243,-54.9769 64.6638,-55.5512 73.2921,-61.6996 75.243,-54.9769"/>
</g>
<!-- Node67 -->
<g id="node3" class="node">
<title>Node67</title>
<g id="a_node3"><a xlink:href="db/d1c/classnode_1_1crypto_1_1_random_bytes_request.html" target="_top" xlink:title="RandomBytesRequest">
<polygon fill="#ffffff" stroke="#000000" points="102.9473,-37.5 102.9473,-55.5 219.001,-55.5 219.001,-37.5 102.9473,-37.5"/>
<text text-anchor="middle" x="160.9741" y="-43.5" font-family="Helvetica,sans-Serif" font-size="10.00" fill="#000000">RandomBytesRequest</text>
</a>
</g>
</g>
<!-- Node65&#45;&gt;Node67 -->
<g id="edge2" class="edge">
<title>Node65&#45;&gt;Node67</title>
<path fill="none" stroke="#191970" d="M77.0586,-46.5C85.2683,-46.5 93.9754,-46.5 102.5529,-46.5"/>
<polygon fill="#191970" stroke="#191970" points="76.9729,-43.0001 66.9729,-46.5 76.9729,-50.0001 76.9729,-43.0001"/>
</g>
<!-- Node68 -->
<g id="node4" class="node">
<title>Node68</title>
<g id="a_node4"><a xlink:href="d2/da3/classnode_1_1_promise_wrap.html" target="_top" xlink:title="PromiseWrap">
<polygon fill="#ffffff" stroke="#000000" points="122.7788,-.5 122.7788,-18.5 199.1694,-18.5 199.1694,-.5 122.7788,-.5"/>
<text text-anchor="middle" x="160.9741" y="-6.5" font-family="Helvetica,sans-Serif" font-size="10.00" fill="#000000">PromiseWrap</text>
</a>
</g>
</g>
<!-- Node65&#45;&gt;Node68 -->
<g id="edge3" class="edge">
<title>Node65&#45;&gt;Node68</title>
<path fill="none" stroke="#191970" d="M74.2996,-34.6525C92.2397,-29.4464 112.974,-23.4294 129.6641,-18.586"/>
<polygon fill="#191970" stroke="#191970" points="73.2921,-31.3004 64.6638,-37.4488 75.243,-38.0231 73.2921,-31.3004"/>
</g>
</g>
</svg>
