<?xml version="1.0" encoding="UTF-8" standalone="no"?>
<!DOCTYPE svg PUBLIC "-//W3C//DTD SVG 1.1//EN"
 "http://www.w3.org/Graphics/SVG/1.1/DTD/svg11.dtd">
<!-- Generated by graphviz version 2.40.1 (20161225.0304)
 -->
<!-- Title: src/node_lttng.cc Pages: 1 -->
<svg width="174pt" height="82pt"
 viewBox="0.00 0.00 174.46 82.00" xmlns="http://www.w3.org/2000/svg" xmlns:xlink="http://www.w3.org/1999/xlink">
<g id="graph0" class="graph" transform="scale(1 1) rotate(0) translate(4 78)">
<title>src/node_lttng.cc</title>
<polygon fill="#ffffff" stroke="transparent" points="-4,4 -4,-78 170.4604,-78 170.4604,4 -4,4"/>
<!-- Node0 -->
<g id="node1" class="node">
<title>Node0</title>
<polygon fill="#bfbfbf" stroke="#000000" points="28.7637,-55.5 28.7637,-73.5 120.3594,-73.5 120.3594,-55.5 28.7637,-55.5"/>
<text text-anchor="middle" x="74.5615" y="-61.5" font-family="Helvetica,sans-Serif" font-size="10.00" fill="#000000">src/node_lttng.cc</text>
</g>
<!-- Node1 -->
<g id="node2" class="node">
<title>Node1</title>
<g id="a_node2"><a xlink:href="../../d8/d3c/util_8h.html" target="_top" xlink:title="util.h">
<polygon fill="#ffffff" stroke="#000000" points="0,-.5 0,-18.5 37.123,-18.5 37.123,-.5 0,-.5"/>
<text text-anchor="middle" x="18.5615" y="-6.5" font-family="Helvetica,sans-Serif" font-size="10.00" fill="#000000">util.h</text>
</a>
</g>
</g>
<!-- Node0&#45;&gt;Node1 -->
<g id="edge1" class="edge">
<title>Node0&#45;&gt;Node1</title>
<path fill="none" stroke="#191970" d="M65.3143,-55.4179C57.1761,-47.425 45.1262,-35.5903 35.2981,-25.9377"/>
<polygon fill="#191970" stroke="#191970" points="37.5967,-23.2895 28.0097,-18.7795 32.6917,-28.2836 37.5967,-23.2895"/>
</g>
<!-- Node2 -->
<g id="node3" class="node">
<title>Node2</title>
<g id="a_node3"><a xlink:href="../../d5/d81/env_8h.html" target="_top" xlink:title="env.h">
<polygon fill="#ffffff" stroke="#000000" points="54.6987,-.5 54.6987,-18.5 94.4243,-18.5 94.4243,-.5 54.6987,-.5"/>
<text text-anchor="middle" x="74.5615" y="-6.5" font-family="Helvetica,sans-Serif" font-size="10.00" fill="#000000">env.h</text>
</a>
</g>
</g>
<!-- Node0&#45;&gt;Node2 -->
<g id="edge2" class="edge">
<title>Node0&#45;&gt;Node2</title>
<path fill="none" stroke="#191970" d="M74.5615,-55.4179C74.5615,-48.2164 74.5615,-37.8962 74.5615,-28.8632"/>
<polygon fill="#191970" stroke="#191970" points="78.0616,-28.7794 74.5615,-18.7795 71.0616,-28.7795 78.0616,-28.7794"/>
</g>
<!-- Node3 -->
<g id="node4" class="node">
<title>Node3</title>
<g id="a_node4"><a xlink:href="../../d9/d50/env-inl_8h.html" target="_top" xlink:title="env&#45;inl.h">
<polygon fill="#ffffff" stroke="#000000" points="112.6626,-.5 112.6626,-18.5 166.4604,-18.5 166.4604,-.5 112.6626,-.5"/>
<text text-anchor="middle" x="139.5615" y="-6.5" font-family="Helvetica,sans-Serif" font-size="10.00" fill="#000000">env&#45;inl.h</text>
</a>
</g>
</g>
<!-- Node0&#45;&gt;Node3 -->
<g id="edge3" class="edge">
<title>Node0&#45;&gt;Node3</title>
<path fill="none" stroke="#191970" d="M85.295,-55.4179C94.9281,-47.2667 109.2832,-35.1201 120.8097,-25.3669"/>
<polygon fill="#191970" stroke="#191970" points="123.2218,-27.9108 128.5949,-18.7795 118.7002,-22.5671 123.2218,-27.9108"/>
</g>
</g>
</svg>
