<?xml version="1.0" encoding="UTF-8" standalone="no"?>
<!DOCTYPE svg PUBLIC "-//W3C//DTD SVG 1.1//EN"
 "http://www.w3.org/Graphics/SVG/1.1/DTD/svg11.dtd">
<!-- Generated by graphviz version 2.40.1 (20161225.0304)
 -->
<!-- Title: src/stream_base&#45;inl.h Pages: 1 -->
<svg width="578pt" height="82pt"
 viewBox="0.00 0.00 578.18 82.00" xmlns="http://www.w3.org/2000/svg" xmlns:xlink="http://www.w3.org/1999/xlink">
<g id="graph0" class="graph" transform="scale(1 1) rotate(0) translate(4 78)">
<title>src/stream_base&#45;inl.h</title>
<polygon fill="#ffffff" stroke="transparent" points="-4,4 -4,-78 574.1772,-78 574.1772,4 -4,4"/>
<!-- Node1 -->
<g id="node1" class="node">
<title>Node1</title>
<polygon fill="#bfbfbf" stroke="#000000" points="242.3203,-55.5 242.3203,-73.5 353.9111,-73.5 353.9111,-55.5 242.3203,-55.5"/>
<text text-anchor="middle" x="298.1157" y="-61.5" font-family="Helvetica,sans-Serif" font-size="10.00" fill="#000000">src/stream_base&#45;inl.h</text>
</g>
<!-- Node2 -->
<g id="node2" class="node">
<title>Node2</title>
<g id="a_node2"><a xlink:href="../../d4/da3/js__stream_8cc.html" target="_top" xlink:title="src/js_stream.cc">
<polygon fill="#ffffff" stroke="#000000" points="0,-.5 0,-18.5 88.2314,-18.5 88.2314,-.5 0,-.5"/>
<text text-anchor="middle" x="44.1157" y="-6.5" font-family="Helvetica,sans-Serif" font-size="10.00" fill="#000000">src/js_stream.cc</text>
</a>
</g>
</g>
<!-- Node1&#45;&gt;Node2 -->
<g id="edge1" class="edge">
<title>Node1&#45;&gt;Node2</title>
<path fill="none" stroke="#191970" d="M246.3974,-53.3011C199.0065,-43.0393 129.7308,-28.0387 85.797,-18.5255"/>
<polygon fill="#191970" stroke="#191970" points="245.943,-56.7838 256.4572,-55.4795 247.4244,-49.9423 245.943,-56.7838"/>
</g>
<!-- Node3 -->
<g id="node3" class="node">
<title>Node3</title>
<g id="a_node3"><a xlink:href="../../d1/d90/node__http__parser_8cc.html" target="_top" xlink:title="src/node_http_parser.cc">
<polygon fill="#ffffff" stroke="#000000" points="105.749,-.5 105.749,-18.5 228.4824,-18.5 228.4824,-.5 105.749,-.5"/>
<text text-anchor="middle" x="167.1157" y="-6.5" font-family="Helvetica,sans-Serif" font-size="10.00" fill="#000000">src/node_http_parser.cc</text>
</a>
</g>
</g>
<!-- Node1&#45;&gt;Node3 -->
<g id="edge2" class="edge">
<title>Node1&#45;&gt;Node3</title>
<path fill="none" stroke="#191970" d="M267.0646,-51.4633C242.9487,-41.3383 210.1244,-27.5571 188.7798,-18.5956"/>
<polygon fill="#191970" stroke="#191970" points="265.9085,-54.7738 276.4837,-55.4179 268.6183,-48.3196 265.9085,-54.7738"/>
</g>
<!-- Node4 -->
<g id="node4" class="node">
<title>Node4</title>
<g id="a_node4"><a xlink:href="../../d6/d00/stream__base_8cc.html" target="_top" xlink:title="src/stream_base.cc">
<polygon fill="#ffffff" stroke="#000000" points="246.7686,-.5 246.7686,-18.5 349.4629,-18.5 349.4629,-.5 246.7686,-.5"/>
<text text-anchor="middle" x="298.1157" y="-6.5" font-family="Helvetica,sans-Serif" font-size="10.00" fill="#000000">src/stream_base.cc</text>
</a>
</g>
</g>
<!-- Node1&#45;&gt;Node4 -->
<g id="edge3" class="edge">
<title>Node1&#45;&gt;Node4</title>
<path fill="none" stroke="#191970" d="M298.1157,-45.383C298.1157,-36.3738 298.1157,-26.0373 298.1157,-18.7795"/>
<polygon fill="#191970" stroke="#191970" points="294.6158,-45.4178 298.1157,-55.4179 301.6158,-45.4179 294.6158,-45.4178"/>
</g>
<!-- Node5 -->
<g id="node5" class="node">
<title>Node5</title>
<g id="a_node5"><a xlink:href="../../dc/d29/stream__wrap_8cc.html" target="_top" xlink:title="src/stream_wrap.cc">
<polygon fill="#ffffff" stroke="#000000" points="367.7734,-.5 367.7734,-18.5 470.458,-18.5 470.458,-.5 367.7734,-.5"/>
<text text-anchor="middle" x="419.1157" y="-6.5" font-family="Helvetica,sans-Serif" font-size="10.00" fill="#000000">src/stream_wrap.cc</text>
</a>
</g>
</g>
<!-- Node1&#45;&gt;Node5 -->
<g id="edge4" class="edge">
<title>Node1&#45;&gt;Node5</title>
<path fill="none" stroke="#191970" d="M327.3924,-51.1924C349.6097,-41.0937 379.5654,-27.4774 399.1053,-18.5956"/>
<polygon fill="#191970" stroke="#191970" points="325.7518,-48.0935 318.0964,-55.4179 328.6484,-54.4661 325.7518,-48.0935"/>
</g>
<!-- Node6 -->
<g id="node6" class="node">
<title>Node6</title>
<g id="a_node6"><a xlink:href="../../da/de5/tls__wrap_8cc.html" target="_top" xlink:title="src/tls_wrap.cc">
<polygon fill="#ffffff" stroke="#000000" points="488.0542,-.5 488.0542,-18.5 570.1772,-18.5 570.1772,-.5 488.0542,-.5"/>
<text text-anchor="middle" x="529.1157" y="-6.5" font-family="Helvetica,sans-Serif" font-size="10.00" fill="#000000">src/tls_wrap.cc</text>
</a>
</g>
</g>
<!-- Node1&#45;&gt;Node6 -->
<g id="edge5" class="edge">
<title>Node1&#45;&gt;Node6</title>
<path fill="none" stroke="#191970" d="M345.9665,-53.107C389.0421,-42.8509 451.5045,-27.9789 491.2087,-18.5255"/>
<polygon fill="#191970" stroke="#191970" points="344.9194,-49.7584 336.002,-55.4795 346.5408,-56.568 344.9194,-49.7584"/>
</g>
</g>
</svg>
