<?xml version="1.0" encoding="UTF-8" standalone="no"?>
<!DOCTYPE svg PUBLIC "-//W3C//DTD SVG 1.1//EN"
 "http://www.w3.org/Graphics/SVG/1.1/DTD/svg11.dtd">
<!-- Generated by graphviz version 2.40.1 (20161225.0304)
 -->
<!-- Title: src/node_url.cc Pages: 1 -->
<!--zoomable 137 -->
<svg id="main" version="1.1" xmlns="http://www.w3.org/2000/svg" xmlns:xlink="http://www.w3.org/1999/xlink" xml:space="preserve" onload="init(evt)">
<style type="text/css"><![CDATA[
.edge:hover path { stroke: red; }
.edge:hover polygon { stroke: red; fill: red; }
]]></style>
<script type="text/javascript"><![CDATA[
var edges = document.getElementsByTagName('g');
if (edges && edges.length) {
  for (var i=0;i<edges.length;i++) {
    if (edges[i].id.substr(0,4)=='edge') {
      edges[i].setAttribute('class','edge');
    }
  }
}
]]></script>
        <defs>
                <circle id="rim" cx="0" cy="0" r="7"/>
                <circle id="rim2" cx="0" cy="0" r="3.5"/>
                <g id="zoomPlus">
                        <use xlink:href="#rim" fill="#404040">
                                <set attributeName="fill" to="#808080" begin="zoomplus.mouseover" end="zoomplus.mouseout"/>
                        </use>
                        <path d="M-4,0h8M0,-4v8" fill="none" stroke="white" stroke-width="1.5" pointer-events="none"/>
                </g>
                <g id="zoomMin">
                        <use xlink:href="#rim" fill="#404040">
                                <set attributeName="fill" to="#808080" begin="zoomminus.mouseover" end="zoomminus.mouseout"/>
                        </use>
                        <path d="M-4,0h8" fill="none" stroke="white" stroke-width="1.5" pointer-events="none"/>
                </g>
                <g id="dirArrow">
                        <path fill="none" stroke="white" stroke-width="1.5" d="M0,-3.0v7 M-2.5,-0.5L0,-3.0L2.5,-0.5"/>
                </g>
               <g id="resetDef">
                       <use xlink:href="#rim2" fill="#404040">
                               <set attributeName="fill" to="#808080" begin="reset.mouseover" end="reset.mouseout"/>
                       </use>
               </g>
        </defs>

<script type="text/javascript">
var viewWidth = 1069;
var viewHeight = 137;
var sectionId = 'dynsection-0';
</script>
<script xlink:href="../../svgpan.js"/>
<svg id="graph" class="graph">
<g id="viewport">
<title>src/node_url.cc</title>
<polygon fill="#ffffff" stroke="transparent" points="-4,4 -4,-133 1065.2461,-133 1065.2461,4 -4,4"/>
<!-- Node0 -->
<g id="node1" class="node">
<title>Node0</title>
<polygon fill="#bfbfbf" stroke="#000000" points="459.7266,-110.5 459.7266,-128.5 543.5342,-128.5 543.5342,-110.5 459.7266,-110.5"/>
<text text-anchor="middle" x="501.6304" y="-116.5" font-family="Helvetica,sans-Serif" font-size="10.00" fill="#000000">src/node_url.cc</text>
</g>
<!-- Node1 -->
<g id="node2" class="node">
<title>Node1</title>
<g id="a_node2"><a xlink:href="../../d0/d24/node__url_8h.html" target="_top" xlink:title="node_url.h">
<polygon fill="#ffffff" stroke="#000000" points="0,-55.5 0,-73.5 63.2607,-73.5 63.2607,-55.5 0,-55.5"/>
<text text-anchor="middle" x="31.6304" y="-61.5" font-family="Helvetica,sans-Serif" font-size="10.00" fill="#000000">node_url.h</text>
</a>
</g>
</g>
<!-- Node0&#45;&gt;Node1 -->
<g id="edge1" class="edge">
<title>Node0&#45;&gt;Node1</title>
<path fill="none" stroke="#191970" d="M459.628,-116.3483C383.2823,-110.3188 216.7849,-95.7833 77.6304,-74 76.3615,-73.8014 75.0746,-73.5912 73.7767,-73.3717"/>
<polygon fill="#191970" stroke="#191970" points="74.1941,-69.8902 63.7288,-71.5419 72.9399,-76.777 74.1941,-69.8902"/>
</g>
<!-- Node2 -->
<g id="node3" class="node">
<title>Node2</title>
<g id="a_node3"><a xlink:href="../../d1/d77/node_8h.html" target="_top" xlink:title="node.h">
<polygon fill="#ffffff" stroke="#000000" points="119.3374,-55.5 119.3374,-73.5 165.9233,-73.5 165.9233,-55.5 119.3374,-55.5"/>
<text text-anchor="middle" x="142.6304" y="-61.5" font-family="Helvetica,sans-Serif" font-size="10.00" fill="#000000">node.h</text>
</a>
</g>
</g>
<!-- Node0&#45;&gt;Node2 -->
<g id="edge2" class="edge">
<title>Node0&#45;&gt;Node2</title>
<path fill="none" stroke="#191970" d="M459.724,-115.7051C399.0627,-109.768 283.1714,-96.7623 175.9579,-74.0206"/>
<polygon fill="#191970" stroke="#191970" points="176.457,-70.5479 165.944,-71.8622 174.982,-77.3907 176.457,-70.5479"/>
</g>
<!-- Node3 -->
<g id="node4" class="node">
<title>Node3</title>
<polygon fill="#ffffff" stroke="#bfbfbf" points="4.1797,-.5 4.1797,-18.5 39.0811,-18.5 39.0811,-.5 4.1797,-.5"/>
<text text-anchor="middle" x="21.6304" y="-6.5" font-family="Helvetica,sans-Serif" font-size="10.00" fill="#000000">v8.h</text>
</g>
<!-- Node0&#45;&gt;Node3 -->
<g id="edge13" class="edge">
<title>Node0&#45;&gt;Node3</title>
<path fill="none" stroke="#191970" d="M459.5596,-117.2957C372.0882,-112.2771 173.5129,-98.4973 110.6304,-74 82.5145,-63.0468 55.176,-41.0164 38.3815,-25.7719"/>
<polygon fill="#191970" stroke="#191970" points="40.7267,-23.1732 31.0267,-18.9117 35.952,-28.2921 40.7267,-23.1732"/>
</g>
<!-- Node8 -->
<g id="node9" class="node">
<title>Node8</title>
<g id="a_node9"><a xlink:href="../../d4/dbf/node__internals_8h.html" target="_top" xlink:title="node_internals.h">
<polygon fill="#ffffff" stroke="#000000" points="183.6577,-55.5 183.6577,-73.5 273.603,-73.5 273.603,-55.5 183.6577,-55.5"/>
<text text-anchor="middle" x="228.6304" y="-61.5" font-family="Helvetica,sans-Serif" font-size="10.00" fill="#000000">node_internals.h</text>
</a>
</g>
</g>
<!-- Node0&#45;&gt;Node8 -->
<g id="edge8" class="edge">
<title>Node0&#45;&gt;Node8</title>
<path fill="none" stroke="#191970" d="M459.5724,-111.0268C412.3183,-101.5067 335.4462,-86.0197 283.5015,-75.5546"/>
<polygon fill="#191970" stroke="#191970" points="283.9554,-72.0758 273.4611,-73.5318 282.5729,-78.938 283.9554,-72.0758"/>
</g>
<!-- Node9 -->
<g id="node10" class="node">
<title>Node9</title>
<g id="a_node10"><a xlink:href="../../d5/d81/env_8h.html" target="_top" xlink:title="env.h">
<polygon fill="#ffffff" stroke="#000000" points="291.7676,-55.5 291.7676,-73.5 331.4932,-73.5 331.4932,-55.5 291.7676,-55.5"/>
<text text-anchor="middle" x="311.6304" y="-61.5" font-family="Helvetica,sans-Serif" font-size="10.00" fill="#000000">env.h</text>
</a>
</g>
</g>
<!-- Node0&#45;&gt;Node9 -->
<g id="edge9" class="edge">
<title>Node0&#45;&gt;Node9</title>
<path fill="none" stroke="#191970" d="M468.2117,-110.4869C437.5438,-102.1203 390.6407,-89.0862 341.1598,-74.0756"/>
<polygon fill="#191970" stroke="#191970" points="342.1505,-70.7187 331.5644,-71.1495 340.1086,-77.4143 342.1505,-70.7187"/>
</g>
<!-- Node10 -->
<g id="node11" class="node">
<title>Node10</title>
<g id="a_node11"><a xlink:href="../../d9/d50/env-inl_8h.html" target="_top" xlink:title="env&#45;inl.h">
<polygon fill="#ffffff" stroke="#000000" points="349.7314,-55.5 349.7314,-73.5 403.5293,-73.5 403.5293,-55.5 349.7314,-55.5"/>
<text text-anchor="middle" x="376.6304" y="-61.5" font-family="Helvetica,sans-Serif" font-size="10.00" fill="#000000">env&#45;inl.h</text>
</a>
</g>
</g>
<!-- Node0&#45;&gt;Node10 -->
<g id="edge10" class="edge">
<title>Node0&#45;&gt;Node10</title>
<path fill="none" stroke="#191970" d="M480.9892,-110.4179C460.7237,-101.5011 429.5918,-87.803 406.6014,-77.6873"/>
<polygon fill="#191970" stroke="#191970" points="407.865,-74.4195 397.3022,-73.5956 405.0458,-80.8267 407.865,-74.4195"/>
</g>
<!-- Node11 -->
<g id="node12" class="node">
<title>Node11</title>
<g id="a_node12"><a xlink:href="../../d8/d3c/util_8h.html" target="_top" xlink:title="util.h">
<polygon fill="#ffffff" stroke="#000000" points="421.0688,-55.5 421.0688,-73.5 458.1919,-73.5 458.1919,-55.5 421.0688,-55.5"/>
<text text-anchor="middle" x="439.6304" y="-61.5" font-family="Helvetica,sans-Serif" font-size="10.00" fill="#000000">util.h</text>
</a>
</g>
</g>
<!-- Node0&#45;&gt;Node11 -->
<g id="edge11" class="edge">
<title>Node0&#45;&gt;Node11</title>
<path fill="none" stroke="#191970" d="M491.3923,-110.4179C482.293,-102.3458 468.7767,-90.3556 457.8377,-80.6517"/>
<polygon fill="#191970" stroke="#191970" points="459.8943,-77.7974 450.0908,-73.7795 455.249,-83.0339 459.8943,-77.7974"/>
</g>
<!-- Node12 -->
<g id="node13" class="node">
<title>Node12</title>
<g id="a_node13"><a xlink:href="../../d5/d8c/util-inl_8h.html" target="_top" xlink:title="util&#45;inl.h">
<polygon fill="#ffffff" stroke="#000000" points="476.4014,-55.5 476.4014,-73.5 526.8594,-73.5 526.8594,-55.5 476.4014,-55.5"/>
<text text-anchor="middle" x="501.6304" y="-61.5" font-family="Helvetica,sans-Serif" font-size="10.00" fill="#000000">util&#45;inl.h</text>
</a>
</g>
</g>
<!-- Node0&#45;&gt;Node12 -->
<g id="edge12" class="edge">
<title>Node0&#45;&gt;Node12</title>
<path fill="none" stroke="#191970" d="M501.6304,-110.4179C501.6304,-103.2164 501.6304,-92.8962 501.6304,-83.8632"/>
<polygon fill="#191970" stroke="#191970" points="505.1305,-83.7794 501.6304,-73.7795 498.1305,-83.7795 505.1305,-83.7794"/>
</g>
<!-- Node13 -->
<g id="node14" class="node">
<title>Node13</title>
<g id="a_node14"><a xlink:href="../../de/da6/base-object_8h.html" target="_top" xlink:title="base&#45;object.h">
<polygon fill="#ffffff" stroke="#000000" points="544.6108,-55.5 544.6108,-73.5 620.6499,-73.5 620.6499,-55.5 544.6108,-55.5"/>
<text text-anchor="middle" x="582.6304" y="-61.5" font-family="Helvetica,sans-Serif" font-size="10.00" fill="#000000">base&#45;object.h</text>
</a>
</g>
</g>
<!-- Node0&#45;&gt;Node13 -->
<g id="edge14" class="edge">
<title>Node0&#45;&gt;Node13</title>
<path fill="none" stroke="#191970" d="M515.0059,-110.4179C527.4344,-101.9788 546.1701,-89.257 560.7713,-79.3426"/>
<polygon fill="#191970" stroke="#191970" points="562.9281,-82.1088 569.235,-73.5956 558.9958,-76.3176 562.9281,-82.1088"/>
</g>
<!-- Node14 -->
<g id="node15" class="node">
<title>Node14</title>
<g id="a_node15"><a xlink:href="../../d2/dc1/base-object-inl_8h.html" target="_top" xlink:title="base&#45;object&#45;inl.h">
<polygon fill="#ffffff" stroke="#000000" points="638.9434,-55.5 638.9434,-73.5 728.3174,-73.5 728.3174,-55.5 638.9434,-55.5"/>
<text text-anchor="middle" x="683.6304" y="-61.5" font-family="Helvetica,sans-Serif" font-size="10.00" fill="#000000">base&#45;object&#45;inl.h</text>
</a>
</g>
</g>
<!-- Node0&#45;&gt;Node14 -->
<g id="edge15" class="edge">
<title>Node0&#45;&gt;Node14</title>
<path fill="none" stroke="#191970" d="M531.684,-110.4179C562.3357,-101.155 610.0611,-86.7325 643.8352,-76.526"/>
<polygon fill="#191970" stroke="#191970" points="645.2747,-79.7474 653.8346,-73.5042 643.2497,-73.0467 645.2747,-79.7474"/>
</g>
<!-- Node15 -->
<g id="node16" class="node">
<title>Node15</title>
<g id="a_node16"><a xlink:href="../../da/d1f/node__i18n_8h.html" target="_top" xlink:title="node_i18n.h">
<polygon fill="#ffffff" stroke="#000000" points="746.1035,-55.5 746.1035,-73.5 817.1572,-73.5 817.1572,-55.5 746.1035,-55.5"/>
<text text-anchor="middle" x="781.6304" y="-61.5" font-family="Helvetica,sans-Serif" font-size="10.00" fill="#000000">node_i18n.h</text>
</a>
</g>
</g>
<!-- Node0&#45;&gt;Node15 -->
<g id="edge16" class="edge">
<title>Node0&#45;&gt;Node15</title>
<path fill="none" stroke="#191970" d="M543.8915,-111.6447C589.1274,-103.1713 663.2559,-89.0996 736.277,-74.2463"/>
<polygon fill="#191970" stroke="#191970" points="737.0047,-77.6701 746.1031,-72.2414 735.6052,-70.8114 737.0047,-77.6701"/>
</g>
<!-- Node16 -->
<g id="node17" class="node">
<title>Node16</title>
<polygon fill="#ffffff" stroke="#bfbfbf" points="835.4038,-55.5 835.4038,-73.5 875.8569,-73.5 875.8569,-55.5 835.4038,-55.5"/>
<text text-anchor="middle" x="855.6304" y="-61.5" font-family="Helvetica,sans-Serif" font-size="10.00" fill="#000000">string</text>
</g>
<!-- Node0&#45;&gt;Node16 -->
<g id="edge17" class="edge">
<title>Node0&#45;&gt;Node16</title>
<path fill="none" stroke="#191970" d="M543.6203,-116.0227C604.0831,-110.493 719.2087,-98.0136 825.259,-73.9873"/>
<polygon fill="#191970" stroke="#191970" points="826.2051,-77.3611 835.1627,-71.7032 824.6319,-70.5402 826.2051,-77.3611"/>
</g>
<!-- Node17 -->
<g id="node18" class="node">
<title>Node17</title>
<polygon fill="#ffffff" stroke="#bfbfbf" points="894.0146,-55.5 894.0146,-73.5 937.2461,-73.5 937.2461,-55.5 894.0146,-55.5"/>
<text text-anchor="middle" x="915.6304" y="-61.5" font-family="Helvetica,sans-Serif" font-size="10.00" fill="#000000">vector</text>
</g>
<!-- Node0&#45;&gt;Node17 -->
<g id="edge18" class="edge">
<title>Node0&#45;&gt;Node17</title>
<path fill="none" stroke="#191970" d="M543.6848,-116.9765C612.8146,-112.293 754.823,-100.4226 883.6978,-73.8461"/>
<polygon fill="#191970" stroke="#191970" points="884.6737,-77.2176 893.742,-71.7389 883.2364,-70.3667 884.6737,-77.2176"/>
</g>
<!-- Node18 -->
<g id="node19" class="node">
<title>Node18</title>
<polygon fill="#ffffff" stroke="#bfbfbf" points="954.8989,-55.5 954.8989,-73.5 1000.3618,-73.5 1000.3618,-55.5 954.8989,-55.5"/>
<text text-anchor="middle" x="977.6304" y="-61.5" font-family="Helvetica,sans-Serif" font-size="10.00" fill="#000000">stdio.h</text>
</g>
<!-- Node0&#45;&gt;Node18 -->
<g id="edge19" class="edge">
<title>Node0&#45;&gt;Node18</title>
<path fill="none" stroke="#191970" d="M543.7593,-117.9348C621.5374,-114.4545 792.9143,-104.0298 944.7634,-74.0643"/>
<polygon fill="#191970" stroke="#191970" points="945.6206,-77.4621 954.736,-72.0621 944.2427,-70.5991 945.6206,-77.4621"/>
</g>
<!-- Node19 -->
<g id="node20" class="node">
<title>Node19</title>
<polygon fill="#ffffff" stroke="#bfbfbf" points="1018.0146,-55.5 1018.0146,-73.5 1061.2461,-73.5 1061.2461,-55.5 1018.0146,-55.5"/>
<text text-anchor="middle" x="1039.6304" y="-61.5" font-family="Helvetica,sans-Serif" font-size="10.00" fill="#000000">cmath</text>
</g>
<!-- Node0&#45;&gt;Node19 -->
<g id="edge20" class="edge">
<title>Node0&#45;&gt;Node19</title>
<path fill="none" stroke="#191970" d="M543.5537,-118.8156C629.4052,-116.7566 831.3567,-108.5398 1007.8381,-73.998"/>
<polygon fill="#191970" stroke="#191970" points="1008.6953,-77.3961 1017.8192,-72.0106 1007.3282,-70.5309 1008.6953,-77.3961"/>
</g>
<!-- Node2&#45;&gt;Node3 -->
<g id="edge3" class="edge">
<title>Node2&#45;&gt;Node3</title>
<path fill="none" stroke="#191970" d="M122.6497,-55.4179C102.4187,-46.222 71.0001,-31.9408 48.5761,-21.7481"/>
<polygon fill="#191970" stroke="#191970" points="49.8294,-18.4732 39.2774,-17.5214 46.9328,-24.8458 49.8294,-18.4732"/>
</g>
<!-- Node4 -->
<g id="node5" class="node">
<title>Node4</title>
<g id="a_node5"><a xlink:href="../../da/d9c/node__version_8h.html" target="_top" xlink:title="node_version.h">
<polygon fill="#ffffff" stroke="#000000" points="57.4385,-.5 57.4385,-18.5 141.8223,-18.5 141.8223,-.5 57.4385,-.5"/>
<text text-anchor="middle" x="99.6304" y="-6.5" font-family="Helvetica,sans-Serif" font-size="10.00" fill="#000000">node_version.h</text>
</a>
</g>
</g>
<!-- Node2&#45;&gt;Node4 -->
<g id="edge4" class="edge">
<title>Node2&#45;&gt;Node4</title>
<path fill="none" stroke="#191970" d="M135.5298,-55.4179C129.4664,-47.6624 120.5753,-36.29 113.1586,-26.8035"/>
<polygon fill="#191970" stroke="#191970" points="115.8018,-24.5018 106.8852,-18.7795 110.2871,-28.8133 115.8018,-24.5018"/>
</g>
<!-- Node5 -->
<g id="node6" class="node">
<title>Node5</title>
<polygon fill="#ffffff" stroke="#bfbfbf" points="159.8447,-.5 159.8447,-18.5 211.416,-18.5 211.416,-.5 159.8447,-.5"/>
<text text-anchor="middle" x="185.6304" y="-6.5" font-family="Helvetica,sans-Serif" font-size="10.00" fill="#000000">assert.h</text>
</g>
<!-- Node2&#45;&gt;Node5 -->
<g id="edge5" class="edge">
<title>Node2&#45;&gt;Node5</title>
<path fill="none" stroke="#191970" d="M149.7309,-55.4179C155.7943,-47.6624 164.6855,-36.29 172.1022,-26.8035"/>
<polygon fill="#191970" stroke="#191970" points="174.9736,-28.8133 178.3755,-18.7795 169.4589,-24.5018 174.9736,-28.8133"/>
</g>
<!-- Node6 -->
<g id="node7" class="node">
<title>Node6</title>
<polygon fill="#ffffff" stroke="#bfbfbf" points="229.5098,-.5 229.5098,-18.5 277.751,-18.5 277.751,-.5 229.5098,-.5"/>
<text text-anchor="middle" x="253.6304" y="-6.5" font-family="Helvetica,sans-Serif" font-size="10.00" fill="#000000">stdint.h</text>
</g>
<!-- Node2&#45;&gt;Node6 -->
<g id="edge6" class="edge">
<title>Node2&#45;&gt;Node6</title>
<path fill="none" stroke="#191970" d="M160.9598,-55.4179C178.7145,-46.6205 205.8618,-33.1691 226.192,-23.0956"/>
<polygon fill="#191970" stroke="#191970" points="227.8673,-26.1716 235.2737,-18.5956 224.7594,-19.8994 227.8673,-26.1716"/>
</g>
<!-- Node7 -->
<g id="node8" class="node">
<title>Node7</title>
<polygon fill="#ffffff" stroke="#bfbfbf" points="295.6206,-.5 295.6206,-18.5 361.6401,-18.5 361.6401,-.5 295.6206,-.5"/>
<text text-anchor="middle" x="328.6304" y="-6.5" font-family="Helvetica,sans-Serif" font-size="10.00" fill="#000000">sys/types.h</text>
</g>
<!-- Node2&#45;&gt;Node7 -->
<g id="edge7" class="edge">
<title>Node2&#45;&gt;Node7</title>
<path fill="none" stroke="#191970" d="M166.048,-57.544C168.9383,-56.6867 171.8521,-55.8228 174.6304,-55 213.2232,-43.5702 257.2667,-30.5608 288.3382,-21.3889"/>
<polygon fill="#191970" stroke="#191970" points="289.3471,-24.7404 297.9472,-18.5527 287.3654,-18.0268 289.3471,-24.7404"/>
</g>
</g>
</svg>
        <g id="navigator" transform="translate(0 0)" fill="#404254">
                <rect fill="#f2f5e9" fill-opacity="0.5" stroke="#606060" stroke-width=".5" x="0" y="0" width="60" height="60"/>
                <use id="zoomplus" xlink:href="#zoomPlus" x="17" y="9" onmousedown="handleZoom(evt,'in')"/>
                <use id="zoomminus" xlink:href="#zoomMin" x="42" y="9" onmousedown="handleZoom(evt,'out')"/>
                <use id="reset" xlink:href="#resetDef" x="30" y="36" onmousedown="handleReset()"/>
                <g id="arrowUp" xlink:href="#dirArrow" transform="translate(30 24)" onmousedown="handlePan(0,-1)">
                  <use xlink:href="#rim" fill="#404040">
                        <set attributeName="fill" to="#808080" begin="arrowUp.mouseover" end="arrowUp.mouseout"/>
                  </use>
                  <path fill="none" stroke="white" stroke-width="1.5" d="M0,-3.0v7 M-2.5,-0.5L0,-3.0L2.5,-0.5"/>
                </g>
                <g id="arrowRight" xlink:href="#dirArrow" transform="rotate(90) translate(36 -43)" onmousedown="handlePan(1,0)">
                  <use xlink:href="#rim" fill="#404040">
                        <set attributeName="fill" to="#808080" begin="arrowRight.mouseover" end="arrowRight.mouseout"/>
                  </use>
                  <path fill="none" stroke="white" stroke-width="1.5" d="M0,-3.0v7 M-2.5,-0.5L0,-3.0L2.5,-0.5"/>
                </g>
                <g id="arrowDown" xlink:href="#dirArrow" transform="rotate(180) translate(-30 -48)" onmousedown="handlePan(0,1)">
                  <use xlink:href="#rim" fill="#404040">
                        <set attributeName="fill" to="#808080" begin="arrowDown.mouseover" end="arrowDown.mouseout"/>
                  </use>
                  <path fill="none" stroke="white" stroke-width="1.5" d="M0,-3.0v7 M-2.5,-0.5L0,-3.0L2.5,-0.5"/>
                </g>
                <g id="arrowLeft" xlink:href="#dirArrow" transform="rotate(270) translate(-36 17)" onmousedown="handlePan(-1,0)">
                  <use xlink:href="#rim" fill="#404040">
                        <set attributeName="fill" to="#808080" begin="arrowLeft.mouseover" end="arrowLeft.mouseout"/>
                  </use>
                  <path fill="none" stroke="white" stroke-width="1.5" d="M0,-3.0v7 M-2.5,-0.5L0,-3.0L2.5,-0.5"/>
                </g>
        </g>
        <svg viewBox="0 0 15 15" width="100%" height="30px" preserveAspectRatio="xMaxYMin meet">
         <g id="arrow_out" transform="scale(0.3 0.3)">
          <a xlink:href="node__url_8cc__incl_org.svg" target="_base">
           <rect id="button" ry="5" rx="5" y="6" x="6" height="38" width="38"
                fill="#f2f5e9" fill-opacity="0.5" stroke="#606060" stroke-width="1.0"/>
           <path id="arrow"
             d="M 11.500037,31.436501 C 11.940474,20.09759 22.043105,11.32322 32.158766,21.979434 L 37.068811,17.246167 C 37.068811,17.246167 37.088388,32 37.088388,32 L 22.160133,31.978069 C 22.160133,31.978069 26.997745,27.140456 26.997745,27.140456 C 18.528582,18.264221 13.291696,25.230495 11.500037,31.436501 z"
             style="fill:#404040;"/>
          </a>
         </g>
        </svg>
</svg>
