<?xml version="1.0" encoding="UTF-8" standalone="no"?>
<!DOCTYPE svg PUBLIC "-//W3C//DTD SVG 1.1//EN"
 "http://www.w3.org/Graphics/SVG/1.1/DTD/svg11.dtd">
<!-- Generated by graphviz version 2.40.1 (20161225.0304)
 -->
<!-- Title: napi_module Pages: 1 -->
<svg width="153pt" height="157pt"
 viewBox="0.00 0.00 153.03 157.00" xmlns="http://www.w3.org/2000/svg" xmlns:xlink="http://www.w3.org/1999/xlink">
<g id="graph0" class="graph" transform="scale(1 1) rotate(0) translate(4 153)">
<title>napi_module</title>
<polygon fill="#ffffff" stroke="transparent" points="-4,4 -4,-153 149.0264,-153 149.0264,4 -4,4"/>
<!-- Node1 -->
<g id="node1" class="node">
<title>Node1</title>
<polygon fill="#bfbfbf" stroke="#000000" points="28.3545,-.5 28.3545,-18.5 101.6201,-18.5 101.6201,-.5 28.3545,-.5"/>
<text text-anchor="middle" x="64.9873" y="-6.5" font-family="Helvetica,sans-Serif" font-size="10.00" fill="#000000">napi_module</text>
</g>
<!-- Node2 -->
<g id="node2" class="node">
<title>Node2</title>
<g id="a_node2"><a xlink:href="../../da/d99/structnapi__env____.html" target="_top" xlink:title="napi_env__">
<polygon fill="#ffffff" stroke="#000000" points="31.1304,-65.5 31.1304,-83.5 98.8442,-83.5 98.8442,-65.5 31.1304,-65.5"/>
<text text-anchor="middle" x="64.9873" y="-71.5" font-family="Helvetica,sans-Serif" font-size="10.00" fill="#000000">napi_env__</text>
</a>
</g>
</g>
<!-- Node2&#45;&gt;Node1 -->
<g id="edge1" class="edge">
<title>Node2&#45;&gt;Node1</title>
<path fill="none" stroke="#9a32cd" stroke-dasharray="5,2" d="M64.9873,-55.1265C64.9873,-43.1522 64.9873,-28.3205 64.9873,-18.8821"/>
<polygon fill="#9a32cd" stroke="#9a32cd" points="61.4874,-55.462 64.9873,-65.462 68.4874,-55.4621 61.4874,-55.462"/>
<text text-anchor="middle" x="105.0068" y="-39" font-family="Helvetica,sans-Serif" font-size="10.00" fill="#000000"> nm_register_func</text>
</g>
<!-- Node3 -->
<g id="node3" class="node">
<title>Node3</title>
<g id="a_node3"><a xlink:href="../../d3/df8/structnapi__extended__error__info.html" target="_top" xlink:title="napi_extended_error_info">
<polygon fill="#ffffff" stroke="#000000" points="0,-130.5 0,-148.5 129.9746,-148.5 129.9746,-130.5 0,-130.5"/>
<text text-anchor="middle" x="64.9873" y="-136.5" font-family="Helvetica,sans-Serif" font-size="10.00" fill="#000000">napi_extended_error_info</text>
</a>
</g>
</g>
<!-- Node3&#45;&gt;Node2 -->
<g id="edge2" class="edge">
<title>Node3&#45;&gt;Node2</title>
<path fill="none" stroke="#9a32cd" stroke-dasharray="5,2" d="M64.9873,-120.1265C64.9873,-108.1522 64.9873,-93.3205 64.9873,-83.8821"/>
<polygon fill="#9a32cd" stroke="#9a32cd" points="61.4874,-120.462 64.9873,-130.462 68.4874,-120.4621 61.4874,-120.462"/>
<text text-anchor="middle" x="87.4946" y="-104" font-family="Helvetica,sans-Serif" font-size="10.00" fill="#000000"> last_error</text>
</g>
</g>
</svg>
