<?xml version="1.0" encoding="UTF-8" standalone="no"?>
<!DOCTYPE svg PUBLIC "-//W3C//DTD SVG 1.1//EN"
 "http://www.w3.org/Graphics/SVG/1.1/DTD/svg11.dtd">
<!-- Generated by graphviz version 2.40.1 (20161225.0304)
 -->
<!-- Title: src/node_internals.h Pages: 1 -->
<svg width="827pt" height="82pt"
 viewBox="0.00 0.00 827.40 82.00" xmlns="http://www.w3.org/2000/svg" xmlns:xlink="http://www.w3.org/1999/xlink">
<g id="graph0" class="graph" transform="scale(1 1) rotate(0) translate(4 78)">
<title>src/node_internals.h</title>
<polygon fill="#ffffff" stroke="transparent" points="-4,4 -4,-78 823.4014,-78 823.4014,4 -4,4"/>
<!-- Node1 -->
<g id="node1" class="node">
<title>Node1</title>
<polygon fill="#bfbfbf" stroke="#000000" points="362.5396,-55.5 362.5396,-73.5 468.5933,-73.5 468.5933,-55.5 362.5396,-55.5"/>
<text text-anchor="middle" x="415.5664" y="-61.5" font-family="Helvetica,sans-Serif" font-size="10.00" fill="#000000">src/node_internals.h</text>
</g>
<!-- Node2 -->
<g id="node2" class="node">
<title>Node2</title>
<g id="a_node2"><a xlink:href="../../dc/dfd/node_8cc.html" target="_top" xlink:title="src/node.cc">
<polygon fill="#ffffff" stroke="#000000" points="0,-.5 0,-18.5 67.1328,-18.5 67.1328,-.5 0,-.5"/>
<text text-anchor="middle" x="33.5664" y="-6.5" font-family="Helvetica,sans-Serif" font-size="10.00" fill="#000000">src/node.cc</text>
</a>
</g>
</g>
<!-- Node1&#45;&gt;Node2 -->
<g id="edge1" class="edge">
<title>Node1&#45;&gt;Node2</title>
<path fill="none" stroke="#191970" d="M352.344,-57.6232C284.0694,-49.8222 172.2251,-35.9556 76.5664,-19 73.5552,-18.4663 70.4352,-17.8674 67.3139,-17.2368"/>
<polygon fill="#191970" stroke="#191970" points="352.1752,-61.1264 362.5061,-58.7762 352.9644,-54.171 352.1752,-61.1264"/>
</g>
<!-- Node3 -->
<g id="node3" class="node">
<title>Node3</title>
<g id="a_node3"><a xlink:href="../../d8/d91/node__api_8cc.html" target="_top" xlink:title="src/node_api.cc">
<polygon fill="#ffffff" stroke="#000000" points="85.5469,-.5 85.5469,-18.5 171.5859,-18.5 171.5859,-.5 85.5469,-.5"/>
<text text-anchor="middle" x="128.5664" y="-6.5" font-family="Helvetica,sans-Serif" font-size="10.00" fill="#000000">src/node_api.cc</text>
</a>
</g>
</g>
<!-- Node1&#45;&gt;Node3 -->
<g id="edge2" class="edge">
<title>Node1&#45;&gt;Node3</title>
<path fill="none" stroke="#191970" d="M358.5654,-53.5765C303.6279,-43.0484 221.7078,-27.3494 171.9029,-17.8049"/>
<polygon fill="#191970" stroke="#191970" points="358.0155,-57.0347 368.4956,-55.4795 359.3331,-50.1598 358.0155,-57.0347"/>
</g>
<!-- Node4 -->
<g id="node4" class="node">
<title>Node4</title>
<g id="a_node4"><a xlink:href="../../d2/d17/node__contextify_8cc.html" target="_top" xlink:title="src/node_contextify.cc">
<polygon fill="#ffffff" stroke="#000000" points="189.4673,-.5 189.4673,-18.5 303.6655,-18.5 303.6655,-.5 189.4673,-.5"/>
<text text-anchor="middle" x="246.5664" y="-6.5" font-family="Helvetica,sans-Serif" font-size="10.00" fill="#000000">src/node_contextify.cc</text>
</a>
</g>
</g>
<!-- Node1&#45;&gt;Node4 -->
<g id="edge3" class="edge">
<title>Node1&#45;&gt;Node4</title>
<path fill="none" stroke="#191970" d="M377.9421,-52.2554C346.5334,-42.0336 302.4847,-27.6983 274.2339,-18.5042"/>
<polygon fill="#191970" stroke="#191970" points="377.0672,-55.6513 387.6595,-55.4179 379.2335,-48.9949 377.0672,-55.6513"/>
</g>
<!-- Node5 -->
<g id="node5" class="node">
<title>Node5</title>
<g id="a_node5"><a xlink:href="../../dd/daa/node__file_8cc.html" target="_top" xlink:title="src/node_file.cc">
<polygon fill="#ffffff" stroke="#000000" points="321.8276,-.5 321.8276,-18.5 407.3052,-18.5 407.3052,-.5 321.8276,-.5"/>
<text text-anchor="middle" x="364.5664" y="-6.5" font-family="Helvetica,sans-Serif" font-size="10.00" fill="#000000">src/node_file.cc</text>
</a>
</g>
</g>
<!-- Node1&#45;&gt;Node5 -->
<g id="edge4" class="edge">
<title>Node1&#45;&gt;Node5</title>
<path fill="none" stroke="#191970" d="M400.2784,-48.0129C391.4096,-38.4485 380.5666,-26.7552 373.171,-18.7795"/>
<polygon fill="#191970" stroke="#191970" points="397.7789,-50.465 407.1448,-55.4179 402.9118,-45.7054 397.7789,-50.465"/>
</g>
<!-- Node6 -->
<g id="node6" class="node">
<title>Node6</title>
<g id="a_node6"><a xlink:href="../../df/dcb/node__url_8cc.html" target="_top" xlink:title="src/node_url.cc">
<polygon fill="#ffffff" stroke="#000000" points="425.6626,-.5 425.6626,-18.5 509.4702,-18.5 509.4702,-.5 425.6626,-.5"/>
<text text-anchor="middle" x="467.5664" y="-6.5" font-family="Helvetica,sans-Serif" font-size="10.00" fill="#000000">src/node_url.cc</text>
</a>
</g>
</g>
<!-- Node1&#45;&gt;Node6 -->
<g id="edge5" class="edge">
<title>Node1&#45;&gt;Node6</title>
<path fill="none" stroke="#191970" d="M431.1542,-48.0129C440.1969,-38.4485 451.2524,-26.7552 458.7931,-18.7795"/>
<polygon fill="#191970" stroke="#191970" points="428.48,-45.7468 424.1531,-55.4179 433.5666,-50.5559 428.48,-45.7468"/>
</g>
<!-- Node7 -->
<g id="node7" class="node">
<title>Node7</title>
<g id="a_node7"><a xlink:href="../../df/d31/node__watchdog_8cc.html" target="_top" xlink:title="src/node_watchdog.cc">
<polygon fill="#ffffff" stroke="#000000" points="527.8154,-.5 527.8154,-18.5 643.3174,-18.5 643.3174,-.5 527.8154,-.5"/>
<text text-anchor="middle" x="585.5664" y="-6.5" font-family="Helvetica,sans-Serif" font-size="10.00" fill="#000000">src/node_watchdog.cc</text>
</a>
</g>
</g>
<!-- Node1&#45;&gt;Node7 -->
<g id="edge6" class="edge">
<title>Node1&#45;&gt;Node7</title>
<path fill="none" stroke="#191970" d="M453.4134,-52.2554C485.0079,-42.0336 529.3173,-27.6983 557.7352,-18.5042"/>
<polygon fill="#191970" stroke="#191970" points="452.0755,-49.0095 443.6384,-55.4179 454.2303,-55.6697 452.0755,-49.0095"/>
</g>
<!-- Node8 -->
<g id="node8" class="node">
<title>Node8</title>
<g id="a_node8"><a xlink:href="../../da/de5/tls__wrap_8cc.html" target="_top" xlink:title="src/tls_wrap.cc">
<polygon fill="#ffffff" stroke="#000000" points="661.5049,-.5 661.5049,-18.5 743.6279,-18.5 743.6279,-.5 661.5049,-.5"/>
<text text-anchor="middle" x="702.5664" y="-6.5" font-family="Helvetica,sans-Serif" font-size="10.00" fill="#000000">src/tls_wrap.cc</text>
</a>
</g>
</g>
<!-- Node1&#45;&gt;Node8 -->
<g id="edge7" class="edge">
<title>Node1&#45;&gt;Node8</title>
<path fill="none" stroke="#191970" d="M472.6871,-53.5535C528.3049,-42.8951 611.4943,-26.9528 661.0659,-17.4531"/>
<polygon fill="#191970" stroke="#191970" points="471.7998,-50.1598 462.6372,-55.4795 473.1173,-57.0347 471.7998,-50.1598"/>
</g>
<!-- Node9 -->
<g id="node9" class="node">
<title>Node9</title>
<g id="a_node9"><a xlink:href="../../d9/d6f/util_8cc.html" target="_top" xlink:title="src/util.cc">
<polygon fill="#ffffff" stroke="#000000" points="761.7314,-.5 761.7314,-18.5 819.4014,-18.5 819.4014,-.5 761.7314,-.5"/>
<text text-anchor="middle" x="790.5664" y="-6.5" font-family="Helvetica,sans-Serif" font-size="10.00" fill="#000000">src/util.cc</text>
</a>
</g>
</g>
<!-- Node1&#45;&gt;Node9 -->
<g id="edge8" class="edge">
<title>Node1&#45;&gt;Node9</title>
<path fill="none" stroke="#191970" d="M478.8055,-58.0782C546.783,-50.683 657.8482,-37.176 752.5664,-19 755.5049,-18.4361 758.5559,-17.7854 761.5938,-17.0944"/>
<polygon fill="#191970" stroke="#191970" points="478.2528,-54.6174 468.6853,-59.1686 479.0028,-61.5771 478.2528,-54.6174"/>
</g>
</g>
</svg>
