<?xml version="1.0" encoding="UTF-8" standalone="no"?>
<!DOCTYPE svg PUBLIC "-//W3C//DTD SVG 1.1//EN"
 "http://www.w3.org/Graphics/SVG/1.1/DTD/svg11.dtd">
<!-- Generated by graphviz version 2.40.1 (20161225.0304)
 -->
<!-- Title: src/inspector_socket.h Pages: 1 -->
<svg width="378pt" height="82pt"
 viewBox="0.00 0.00 377.81 82.00" xmlns="http://www.w3.org/2000/svg" xmlns:xlink="http://www.w3.org/1999/xlink">
<g id="graph0" class="graph" transform="scale(1 1) rotate(0) translate(4 78)">
<title>src/inspector_socket.h</title>
<polygon fill="#ffffff" stroke="transparent" points="-4,4 -4,-78 373.8052,-78 373.8052,4 -4,4"/>
<!-- Node0 -->
<g id="node1" class="node">
<title>Node0</title>
<polygon fill="#bfbfbf" stroke="#000000" points="145.4458,-55.5 145.4458,-73.5 260.9331,-73.5 260.9331,-55.5 145.4458,-55.5"/>
<text text-anchor="middle" x="203.1895" y="-61.5" font-family="Helvetica,sans-Serif" font-size="10.00" fill="#000000">src/inspector_socket.h</text>
</g>
<!-- Node1 -->
<g id="node2" class="node">
<title>Node1</title>
<polygon fill="#ffffff" stroke="#bfbfbf" points="0,-.5 0,-18.5 74.3789,-18.5 74.3789,-.5 0,-.5"/>
<text text-anchor="middle" x="37.1895" y="-6.5" font-family="Helvetica,sans-Serif" font-size="10.00" fill="#000000">http_parser.h</text>
</g>
<!-- Node0&#45;&gt;Node1 -->
<g id="edge1" class="edge">
<title>Node0&#45;&gt;Node1</title>
<path fill="none" stroke="#191970" d="M175.7779,-55.4179C147.9413,-46.1949 104.666,-31.8567 73.8852,-21.6582"/>
<polygon fill="#191970" stroke="#191970" points="74.9592,-18.327 64.3658,-18.5042 72.7575,-24.9718 74.9592,-18.327"/>
</g>
<!-- Node2 -->
<g id="node3" class="node">
<title>Node2</title>
<g id="a_node3"><a xlink:href="../../d8/d3c/util_8h.html" target="_top" xlink:title="util.h">
<polygon fill="#ffffff" stroke="#000000" points="92.6279,-.5 92.6279,-18.5 129.751,-18.5 129.751,-.5 92.6279,-.5"/>
<text text-anchor="middle" x="111.1895" y="-6.5" font-family="Helvetica,sans-Serif" font-size="10.00" fill="#000000">util.h</text>
</a>
</g>
</g>
<!-- Node0&#45;&gt;Node2 -->
<g id="edge2" class="edge">
<title>Node0&#45;&gt;Node2</title>
<path fill="none" stroke="#191970" d="M187.9975,-55.4179C173.6149,-46.8195 151.7955,-33.7754 135.0834,-23.7844"/>
<polygon fill="#191970" stroke="#191970" points="136.7831,-20.7228 126.404,-18.5956 133.1912,-26.731 136.7831,-20.7228"/>
</g>
<!-- Node3 -->
<g id="node4" class="node">
<title>Node3</title>
<g id="a_node4"><a xlink:href="../../d5/d8c/util-inl_8h.html" target="_top" xlink:title="util&#45;inl.h">
<polygon fill="#ffffff" stroke="#000000" points="147.9604,-.5 147.9604,-18.5 198.4185,-18.5 198.4185,-.5 147.9604,-.5"/>
<text text-anchor="middle" x="173.1895" y="-6.5" font-family="Helvetica,sans-Serif" font-size="10.00" fill="#000000">util&#45;inl.h</text>
</a>
</g>
</g>
<!-- Node0&#45;&gt;Node3 -->
<g id="edge3" class="edge">
<title>Node0&#45;&gt;Node3</title>
<path fill="none" stroke="#191970" d="M198.2356,-55.4179C194.1348,-47.8998 188.1801,-36.9829 183.1057,-27.6799"/>
<polygon fill="#191970" stroke="#191970" points="186.1122,-25.8824 178.251,-18.7795 179.9669,-29.2344 186.1122,-25.8824"/>
</g>
<!-- Node4 -->
<g id="node5" class="node">
<title>Node4</title>
<polygon fill="#ffffff" stroke="#bfbfbf" points="216.1074,-.5 216.1074,-18.5 250.2715,-18.5 250.2715,-.5 216.1074,-.5"/>
<text text-anchor="middle" x="233.1895" y="-6.5" font-family="Helvetica,sans-Serif" font-size="10.00" fill="#000000">uv.h</text>
</g>
<!-- Node0&#45;&gt;Node4 -->
<g id="edge4" class="edge">
<title>Node0&#45;&gt;Node4</title>
<path fill="none" stroke="#191970" d="M208.1433,-55.4179C212.2441,-47.8998 218.1988,-36.9829 223.2732,-27.6799"/>
<polygon fill="#191970" stroke="#191970" points="226.412,-29.2344 228.1279,-18.7795 220.2667,-25.8824 226.412,-29.2344"/>
</g>
<!-- Node5 -->
<g id="node6" class="node">
<title>Node5</title>
<polygon fill="#ffffff" stroke="#bfbfbf" points="267.9629,-.5 267.9629,-18.5 308.416,-18.5 308.416,-.5 267.9629,-.5"/>
<text text-anchor="middle" x="288.1895" y="-6.5" font-family="Helvetica,sans-Serif" font-size="10.00" fill="#000000">string</text>
</g>
<!-- Node0&#45;&gt;Node5 -->
<g id="edge5" class="edge">
<title>Node0&#45;&gt;Node5</title>
<path fill="none" stroke="#191970" d="M217.2255,-55.4179C230.3908,-46.8992 250.3002,-34.0166 265.6834,-24.0627"/>
<polygon fill="#191970" stroke="#191970" points="267.6383,-26.9667 274.1326,-18.5956 263.8355,-21.0897 267.6383,-26.9667"/>
</g>
<!-- Node6 -->
<g id="node7" class="node">
<title>Node6</title>
<polygon fill="#ffffff" stroke="#bfbfbf" points="326.5737,-.5 326.5737,-18.5 369.8052,-18.5 369.8052,-.5 326.5737,-.5"/>
<text text-anchor="middle" x="348.1895" y="-6.5" font-family="Helvetica,sans-Serif" font-size="10.00" fill="#000000">vector</text>
</g>
<!-- Node0&#45;&gt;Node6 -->
<g id="edge6" class="edge">
<title>Node0&#45;&gt;Node6</title>
<path fill="none" stroke="#191970" d="M227.1333,-55.4179C251.6341,-46.1245 289.8272,-31.6374 316.7501,-21.4253"/>
<polygon fill="#191970" stroke="#191970" points="318.0042,-24.693 326.1129,-17.8739 315.5216,-18.148 318.0042,-24.693"/>
</g>
</g>
</svg>
