<?xml version="1.0" encoding="UTF-8" standalone="no"?>
<!DOCTYPE svg PUBLIC "-//W3C//DTD SVG 1.1//EN"
 "http://www.w3.org/Graphics/SVG/1.1/DTD/svg11.dtd">
<!-- Generated by graphviz version 2.40.1 (20161225.0304)
 -->
<!-- Title: src/tracing/trace_event.cc Pages: 1 -->
<svg width="465pt" height="247pt"
 viewBox="0.00 0.00 465.15 247.00" xmlns="http://www.w3.org/2000/svg" xmlns:xlink="http://www.w3.org/1999/xlink">
<g id="graph0" class="graph" transform="scale(1 1) rotate(0) translate(4 243)">
<title>src/tracing/trace_event.cc</title>
<polygon fill="#ffffff" stroke="transparent" points="-4,4 -4,-243 461.1548,-243 461.1548,4 -4,4"/>
<!-- Node0 -->
<g id="node1" class="node">
<title>Node0</title>
<polygon fill="#bfbfbf" stroke="#000000" points="166.936,-220.5 166.936,-238.5 296.8716,-238.5 296.8716,-220.5 166.936,-220.5"/>
<text text-anchor="middle" x="231.9038" y="-226.5" font-family="Helvetica,sans-Serif" font-size="10.00" fill="#000000">src/tracing/trace_event.cc</text>
</g>
<!-- Node1 -->
<g id="node2" class="node">
<title>Node1</title>
<g id="a_node2"><a xlink:href="../../db/d4b/trace__event_8h.html" target="_top" xlink:title="tracing/trace_event.h">
<polygon fill="#ffffff" stroke="#000000" points="177.2095,-165.5 177.2095,-183.5 286.5981,-183.5 286.5981,-165.5 177.2095,-165.5"/>
<text text-anchor="middle" x="231.9038" y="-171.5" font-family="Helvetica,sans-Serif" font-size="10.00" fill="#000000">tracing/trace_event.h</text>
</a>
</g>
</g>
<!-- Node0&#45;&gt;Node1 -->
<g id="edge1" class="edge">
<title>Node0&#45;&gt;Node1</title>
<path fill="none" stroke="#191970" d="M231.9038,-220.4179C231.9038,-213.2164 231.9038,-202.8962 231.9038,-193.8632"/>
<polygon fill="#191970" stroke="#191970" points="235.4039,-193.7794 231.9038,-183.7795 228.4039,-193.7795 235.4039,-193.7794"/>
</g>
<!-- Node2 -->
<g id="node3" class="node">
<title>Node2</title>
<polygon fill="#ffffff" stroke="#bfbfbf" points="69.1133,-110.5 69.1133,-128.5 120.6943,-128.5 120.6943,-110.5 69.1133,-110.5"/>
<text text-anchor="middle" x="94.9038" y="-116.5" font-family="Helvetica,sans-Serif" font-size="10.00" fill="#000000">stddef.h</text>
</g>
<!-- Node1&#45;&gt;Node2 -->
<g id="edge2" class="edge">
<title>Node1&#45;&gt;Node2</title>
<path fill="none" stroke="#191970" d="M209.281,-165.4179C186.8718,-156.4215 152.3393,-142.5581 127.0793,-132.4172"/>
<polygon fill="#191970" stroke="#191970" points="128.1443,-129.0732 117.5602,-128.5956 125.5363,-135.5693 128.1443,-129.0732"/>
</g>
<!-- Node3 -->
<g id="node4" class="node">
<title>Node3</title>
<g id="a_node4"><a xlink:href="../../d4/d4f/node__platform_8h.html" target="_top" xlink:title="node_platform.h">
<polygon fill="#ffffff" stroke="#000000" points="138.7686,-110.5 138.7686,-128.5 227.0391,-128.5 227.0391,-110.5 138.7686,-110.5"/>
<text text-anchor="middle" x="182.9038" y="-116.5" font-family="Helvetica,sans-Serif" font-size="10.00" fill="#000000">node_platform.h</text>
</a>
</g>
</g>
<!-- Node1&#45;&gt;Node3 -->
<g id="edge3" class="edge">
<title>Node1&#45;&gt;Node3</title>
<path fill="none" stroke="#191970" d="M223.8125,-165.4179C216.8325,-157.5833 206.5642,-146.0575 198.0615,-136.5137"/>
<polygon fill="#191970" stroke="#191970" points="200.4364,-133.9178 191.171,-128.7795 195.2097,-138.5743 200.4364,-133.9178"/>
</g>
<!-- Node10 -->
<g id="node11" class="node">
<title>Node10</title>
<polygon fill="#ffffff" stroke="#bfbfbf" points="244.7266,-110.5 244.7266,-128.5 319.0811,-128.5 319.0811,-110.5 244.7266,-110.5"/>
<text text-anchor="middle" x="281.9038" y="-116.5" font-family="Helvetica,sans-Serif" font-size="10.00" fill="#000000">v8&#45;platform.h</text>
</g>
<!-- Node1&#45;&gt;Node10 -->
<g id="edge11" class="edge">
<title>Node1&#45;&gt;Node10</title>
<path fill="none" stroke="#191970" d="M240.1603,-165.4179C247.3546,-157.5041 257.9726,-145.8243 266.6992,-136.2251"/>
<polygon fill="#191970" stroke="#191970" points="269.331,-138.5332 273.4679,-128.7795 264.1514,-133.8245 269.331,-138.5332"/>
</g>
<!-- Node11 -->
<g id="node12" class="node">
<title>Node11</title>
<g id="a_node12"><a xlink:href="../../d7/d98/trace__event__common_8h.html" target="_top" xlink:title="trace_event_common.h">
<polygon fill="#ffffff" stroke="#000000" points="336.6528,-110.5 336.6528,-128.5 457.1548,-128.5 457.1548,-110.5 336.6528,-110.5"/>
<text text-anchor="middle" x="396.9038" y="-116.5" font-family="Helvetica,sans-Serif" font-size="10.00" fill="#000000">trace_event_common.h</text>
</a>
</g>
</g>
<!-- Node1&#45;&gt;Node11 -->
<g id="edge12" class="edge">
<title>Node1&#45;&gt;Node11</title>
<path fill="none" stroke="#191970" d="M259.1502,-165.4179C286.6993,-156.2348 329.4616,-141.9807 360.0311,-131.7909"/>
<polygon fill="#191970" stroke="#191970" points="361.5112,-134.9869 369.8912,-128.5042 359.2975,-128.3462 361.5112,-134.9869"/>
</g>
<!-- Node4 -->
<g id="node5" class="node">
<title>Node4</title>
<polygon fill="#ffffff" stroke="#bfbfbf" points="0,-55.5 0,-73.5 43.8076,-73.5 43.8076,-55.5 0,-55.5"/>
<text text-anchor="middle" x="21.9038" y="-61.5" font-family="Helvetica,sans-Serif" font-size="10.00" fill="#000000">queue</text>
</g>
<!-- Node3&#45;&gt;Node4 -->
<g id="edge4" class="edge">
<title>Node3&#45;&gt;Node4</title>
<path fill="none" stroke="#191970" d="M156.3179,-110.4179C128.0725,-100.7688 83.438,-85.521 53.437,-75.2722"/>
<polygon fill="#191970" stroke="#191970" points="54.463,-71.9242 43.8685,-72.0035 52.2001,-78.5483 54.463,-71.9242"/>
</g>
<!-- Node5 -->
<g id="node6" class="node">
<title>Node5</title>
<polygon fill="#ffffff" stroke="#bfbfbf" points="62.2881,-55.5 62.2881,-73.5 105.5195,-73.5 105.5195,-55.5 62.2881,-55.5"/>
<text text-anchor="middle" x="83.9038" y="-61.5" font-family="Helvetica,sans-Serif" font-size="10.00" fill="#000000">vector</text>
</g>
<!-- Node3&#45;&gt;Node5 -->
<g id="edge5" class="edge">
<title>Node3&#45;&gt;Node5</title>
<path fill="none" stroke="#191970" d="M166.556,-110.4179C150.9357,-101.7399 127.164,-88.5334 109.1176,-78.5077"/>
<polygon fill="#191970" stroke="#191970" points="110.7173,-75.3925 100.2759,-73.5956 107.3177,-81.5117 110.7173,-75.3925"/>
</g>
<!-- Node6 -->
<g id="node7" class="node">
<title>Node6</title>
<polygon fill="#ffffff" stroke="#bfbfbf" points="123.2168,-55.5 123.2168,-73.5 242.5908,-73.5 242.5908,-55.5 123.2168,-55.5"/>
<text text-anchor="middle" x="182.9038" y="-61.5" font-family="Helvetica,sans-Serif" font-size="10.00" fill="#000000">libplatform/libplatform.h</text>
</g>
<!-- Node3&#45;&gt;Node6 -->
<g id="edge6" class="edge">
<title>Node3&#45;&gt;Node6</title>
<path fill="none" stroke="#191970" d="M182.9038,-110.4179C182.9038,-103.2164 182.9038,-92.8962 182.9038,-83.8632"/>
<polygon fill="#191970" stroke="#191970" points="186.4039,-83.7794 182.9038,-73.7795 179.4039,-83.7795 186.4039,-83.7794"/>
</g>
<!-- Node7 -->
<g id="node8" class="node">
<title>Node7</title>
<g id="a_node8"><a xlink:href="../../d8/dc3/node__mutex_8h.html" target="_top" xlink:title="node_mutex.h">
<polygon fill="#ffffff" stroke="#000000" points="260.2144,-55.5 260.2144,-73.5 339.5933,-73.5 339.5933,-55.5 260.2144,-55.5"/>
<text text-anchor="middle" x="299.9038" y="-61.5" font-family="Helvetica,sans-Serif" font-size="10.00" fill="#000000">node_mutex.h</text>
</a>
</g>
</g>
<!-- Node3&#45;&gt;Node7 -->
<g id="edge7" class="edge">
<title>Node3&#45;&gt;Node7</title>
<path fill="none" stroke="#191970" d="M202.224,-110.4179C221.0231,-101.5807 249.8123,-88.0473 271.2727,-77.9591"/>
<polygon fill="#191970" stroke="#191970" points="272.994,-81.0174 280.5549,-73.5956 270.016,-74.6824 272.994,-81.0174"/>
</g>
<!-- Node9 -->
<g id="node10" class="node">
<title>Node9</title>
<polygon fill="#ffffff" stroke="#bfbfbf" points="343.8218,-.5 343.8218,-18.5 377.9858,-18.5 377.9858,-.5 343.8218,-.5"/>
<text text-anchor="middle" x="360.9038" y="-6.5" font-family="Helvetica,sans-Serif" font-size="10.00" fill="#000000">uv.h</text>
</g>
<!-- Node3&#45;&gt;Node9 -->
<g id="edge10" class="edge">
<title>Node3&#45;&gt;Node9</title>
<path fill="none" stroke="#191970" d="M224.8393,-110.4342C271.1622,-100.0456 340.3824,-83.2651 348.9038,-74 359.9768,-61.9606 362.4027,-43.1311 362.3986,-28.9184"/>
<polygon fill="#191970" stroke="#191970" points="365.8881,-28.5807 361.9931,-18.7278 358.8936,-28.8591 365.8881,-28.5807"/>
</g>
<!-- Node8 -->
<g id="node9" class="node">
<title>Node8</title>
<g id="a_node9"><a xlink:href="../../d8/d3c/util_8h.html" target="_top" xlink:title="util.h">
<polygon fill="#ffffff" stroke="#000000" points="281.3423,-.5 281.3423,-18.5 318.4653,-18.5 318.4653,-.5 281.3423,-.5"/>
<text text-anchor="middle" x="299.9038" y="-6.5" font-family="Helvetica,sans-Serif" font-size="10.00" fill="#000000">util.h</text>
</a>
</g>
</g>
<!-- Node7&#45;&gt;Node8 -->
<g id="edge8" class="edge">
<title>Node7&#45;&gt;Node8</title>
<path fill="none" stroke="#191970" d="M299.9038,-55.4179C299.9038,-48.2164 299.9038,-37.8962 299.9038,-28.8632"/>
<polygon fill="#191970" stroke="#191970" points="303.4039,-28.7794 299.9038,-18.7795 296.4039,-28.7795 303.4039,-28.7794"/>
</g>
<!-- Node7&#45;&gt;Node9 -->
<g id="edge9" class="edge">
<title>Node7&#45;&gt;Node9</title>
<path fill="none" stroke="#191970" d="M309.9767,-55.4179C318.9293,-47.3458 332.2276,-35.3556 342.9901,-25.6517"/>
<polygon fill="#191970" stroke="#191970" points="345.5289,-28.0753 350.612,-18.7795 340.8414,-22.8764 345.5289,-28.0753"/>
</g>
</g>
</svg>
