<?xml version="1.0" encoding="UTF-8" standalone="no"?>
<!DOCTYPE svg PUBLIC "-//W3C//DTD SVG 1.1//EN"
 "http://www.w3.org/Graphics/SVG/1.1/DTD/svg11.dtd">
<!-- Generated by graphviz version 2.40.1 (20161225.0304)
 -->
<!-- Title: src/js_stream.cc Pages: 1 -->
<!--zoomable 192 -->
<svg id="main" version="1.1" xmlns="http://www.w3.org/2000/svg" xmlns:xlink="http://www.w3.org/1999/xlink" xml:space="preserve" onload="init(evt)">
<style type="text/css"><![CDATA[
.edge:hover path { stroke: red; }
.edge:hover polygon { stroke: red; fill: red; }
]]></style>
<script type="text/javascript"><![CDATA[
var edges = document.getElementsByTagName('g');
if (edges && edges.length) {
  for (var i=0;i<edges.length;i++) {
    if (edges[i].id.substr(0,4)=='edge') {
      edges[i].setAttribute('class','edge');
    }
  }
}
]]></script>
        <defs>
                <circle id="rim" cx="0" cy="0" r="7"/>
                <circle id="rim2" cx="0" cy="0" r="3.5"/>
                <g id="zoomPlus">
                        <use xlink:href="#rim" fill="#404040">
                                <set attributeName="fill" to="#808080" begin="zoomplus.mouseover" end="zoomplus.mouseout"/>
                        </use>
                        <path d="M-4,0h8M0,-4v8" fill="none" stroke="white" stroke-width="1.5" pointer-events="none"/>
                </g>
                <g id="zoomMin">
                        <use xlink:href="#rim" fill="#404040">
                                <set attributeName="fill" to="#808080" begin="zoomminus.mouseover" end="zoomminus.mouseout"/>
                        </use>
                        <path d="M-4,0h8" fill="none" stroke="white" stroke-width="1.5" pointer-events="none"/>
                </g>
                <g id="dirArrow">
                        <path fill="none" stroke="white" stroke-width="1.5" d="M0,-3.0v7 M-2.5,-0.5L0,-3.0L2.5,-0.5"/>
                </g>
               <g id="resetDef">
                       <use xlink:href="#rim2" fill="#404040">
                               <set attributeName="fill" to="#808080" begin="reset.mouseover" end="reset.mouseout"/>
                       </use>
               </g>
        </defs>

<script type="text/javascript">
var viewWidth = 668;
var viewHeight = 192;
var sectionId = 'dynsection-0';
</script>
<script xlink:href="../../svgpan.js"/>
<svg id="graph" class="graph">
<g id="viewport">
<title>src/js_stream.cc</title>
<polygon fill="#ffffff" stroke="transparent" points="-4,4 -4,-188 663.8521,-188 663.8521,4 -4,4"/>
<!-- Node0 -->
<g id="node1" class="node">
<title>Node0</title>
<polygon fill="#bfbfbf" stroke="#000000" points="247.7266,-165.5 247.7266,-183.5 335.958,-183.5 335.958,-165.5 247.7266,-165.5"/>
<text text-anchor="middle" x="291.8423" y="-171.5" font-family="Helvetica,sans-Serif" font-size="10.00" fill="#000000">src/js_stream.cc</text>
</g>
<!-- Node1 -->
<g id="node2" class="node">
<title>Node1</title>
<g id="a_node2"><a xlink:href="../../db/d13/js__stream_8h.html" target="_top" xlink:title="js_stream.h">
<polygon fill="#ffffff" stroke="#000000" points="0,-110.5 0,-128.5 67.6846,-128.5 67.6846,-110.5 0,-110.5"/>
<text text-anchor="middle" x="33.8423" y="-116.5" font-family="Helvetica,sans-Serif" font-size="10.00" fill="#000000">js_stream.h</text>
</a>
</g>
</g>
<!-- Node0&#45;&gt;Node1 -->
<g id="edge1" class="edge">
<title>Node0&#45;&gt;Node1</title>
<path fill="none" stroke="#191970" d="M248.5786,-165.462C207.265,-156.805 142.9818,-143.2666 78.0979,-129.2586"/>
<polygon fill="#191970" stroke="#191970" points="78.6176,-125.7901 68.1038,-127.0982 77.1385,-132.6321 78.6176,-125.7901"/>
</g>
<!-- Node2 -->
<g id="node3" class="node">
<title>Node2</title>
<g id="a_node3"><a xlink:href="../../d4/d56/async-wrap_8h.html" target="_top" xlink:title="async&#45;wrap.h">
<polygon fill="#ffffff" stroke="#000000" points="86.1084,-110.5 86.1084,-128.5 161.5762,-128.5 161.5762,-110.5 86.1084,-110.5"/>
<text text-anchor="middle" x="123.8423" y="-116.5" font-family="Helvetica,sans-Serif" font-size="10.00" fill="#000000">async&#45;wrap.h</text>
</a>
</g>
</g>
<!-- Node0&#45;&gt;Node2 -->
<g id="edge2" class="edge">
<title>Node0&#45;&gt;Node2</title>
<path fill="none" stroke="#191970" d="M264.1005,-165.4179C235.9285,-156.1949 192.1318,-141.8567 160.9801,-131.6582"/>
<polygon fill="#191970" stroke="#191970" points="161.9387,-128.2893 151.3461,-128.5042 159.7607,-134.9419 161.9387,-128.2893"/>
</g>
<!-- Node3 -->
<g id="node4" class="node">
<title>Node3</title>
<g id="a_node4"><a xlink:href="../../d5/d81/env_8h.html" target="_top" xlink:title="env.h">
<polygon fill="#ffffff" stroke="#000000" points="179.9795,-110.5 179.9795,-128.5 219.7051,-128.5 219.7051,-110.5 179.9795,-110.5"/>
<text text-anchor="middle" x="199.8423" y="-116.5" font-family="Helvetica,sans-Serif" font-size="10.00" fill="#000000">env.h</text>
</a>
</g>
</g>
<!-- Node0&#45;&gt;Node3 -->
<g id="edge3" class="edge">
<title>Node0&#45;&gt;Node3</title>
<path fill="none" stroke="#191970" d="M276.6504,-165.4179C262.2677,-156.8195 240.4484,-143.7754 223.7362,-133.7844"/>
<polygon fill="#191970" stroke="#191970" points="225.4359,-130.7228 215.0568,-128.5956 221.844,-136.731 225.4359,-130.7228"/>
</g>
<!-- Node4 -->
<g id="node5" class="node">
<title>Node4</title>
<g id="a_node5"><a xlink:href="../../d9/d50/env-inl_8h.html" target="_top" xlink:title="env&#45;inl.h">
<polygon fill="#ffffff" stroke="#000000" points="237.9434,-110.5 237.9434,-128.5 291.7412,-128.5 291.7412,-110.5 237.9434,-110.5"/>
<text text-anchor="middle" x="264.8423" y="-116.5" font-family="Helvetica,sans-Serif" font-size="10.00" fill="#000000">env&#45;inl.h</text>
</a>
</g>
</g>
<!-- Node0&#45;&gt;Node4 -->
<g id="edge4" class="edge">
<title>Node0&#45;&gt;Node4</title>
<path fill="none" stroke="#191970" d="M287.3838,-165.4179C283.732,-157.9789 278.4465,-147.2123 273.9114,-137.9742"/>
<polygon fill="#191970" stroke="#191970" points="276.9463,-136.2138 269.3977,-128.7795 270.6626,-139.2985 276.9463,-136.2138"/>
</g>
<!-- Node5 -->
<g id="node6" class="node">
<title>Node5</title>
<g id="a_node6"><a xlink:href="../../d8/d1c/node__buffer_8h.html" target="_top" xlink:title="node_buffer.h">
<polygon fill="#ffffff" stroke="#000000" points="347.3442,-110.5 347.3442,-128.5 424.3403,-128.5 424.3403,-110.5 347.3442,-110.5"/>
<text text-anchor="middle" x="385.8423" y="-116.5" font-family="Helvetica,sans-Serif" font-size="10.00" fill="#000000">node_buffer.h</text>
</a>
</g>
</g>
<!-- Node0&#45;&gt;Node5 -->
<g id="edge5" class="edge">
<title>Node0&#45;&gt;Node5</title>
<path fill="none" stroke="#191970" d="M307.3645,-165.4179C322.0598,-156.8195 344.3535,-143.7754 361.4289,-133.7844"/>
<polygon fill="#191970" stroke="#191970" points="363.4335,-136.6667 370.297,-128.5956 359.8983,-130.6249 363.4335,-136.6667"/>
</g>
<!-- Node7 -->
<g id="node8" class="node">
<title>Node7</title>
<polygon fill="#ffffff" stroke="#bfbfbf" points="302.3916,-.5 302.3916,-18.5 337.293,-18.5 337.293,-.5 302.3916,-.5"/>
<text text-anchor="middle" x="319.8423" y="-6.5" font-family="Helvetica,sans-Serif" font-size="10.00" fill="#000000">v8.h</text>
</g>
<!-- Node0&#45;&gt;Node7 -->
<g id="edge15" class="edge">
<title>Node0&#45;&gt;Node7</title>
<path fill="none" stroke="#191970" d="M293.7357,-165.4544C295.6302,-156.2862 298.5804,-141.6837 300.8423,-129 307.1495,-93.6325 313.5089,-52.1896 317.0361,-28.5716"/>
<polygon fill="#191970" stroke="#191970" points="320.5228,-28.9191 318.5275,-18.5139 313.5985,-27.8923 320.5228,-28.9191"/>
</g>
<!-- Node12 -->
<g id="node13" class="node">
<title>Node12</title>
<g id="a_node13"><a xlink:href="../../db/d26/stream__base_8h.html" target="_top" xlink:title="stream_base.h">
<polygon fill="#ffffff" stroke="#000000" points="442.7686,-110.5 442.7686,-128.5 524.916,-128.5 524.916,-110.5 442.7686,-110.5"/>
<text text-anchor="middle" x="483.8423" y="-116.5" font-family="Helvetica,sans-Serif" font-size="10.00" fill="#000000">stream_base.h</text>
</a>
</g>
</g>
<!-- Node0&#45;&gt;Node12 -->
<g id="edge13" class="edge">
<title>Node0&#45;&gt;Node12</title>
<path fill="none" stroke="#191970" d="M323.5472,-165.4179C356.1619,-156.0751 407.1002,-141.4834 442.7788,-131.263"/>
<polygon fill="#191970" stroke="#191970" points="443.7599,-134.6228 452.4094,-128.5042 441.8322,-127.8934 443.7599,-134.6228"/>
</g>
<!-- Node13 -->
<g id="node14" class="node">
<title>Node13</title>
<g id="a_node14"><a xlink:href="../../d7/d82/stream__base-inl_8h.html" target="_top" xlink:title="stream_base&#45;inl.h">
<polygon fill="#ffffff" stroke="#000000" points="543.1011,-110.5 543.1011,-128.5 638.5835,-128.5 638.5835,-110.5 543.1011,-110.5"/>
<text text-anchor="middle" x="590.8423" y="-116.5" font-family="Helvetica,sans-Serif" font-size="10.00" fill="#000000">stream_base&#45;inl.h</text>
</a>
</g>
</g>
<!-- Node0&#45;&gt;Node13 -->
<g id="edge14" class="edge">
<title>Node0&#45;&gt;Node13</title>
<path fill="none" stroke="#191970" d="M335.9608,-166.3846C388.217,-156.7722 475.4236,-140.7309 533.0343,-130.1336"/>
<polygon fill="#191970" stroke="#191970" points="533.8755,-133.5376 543.0773,-128.2862 532.6091,-126.6531 533.8755,-133.5376"/>
</g>
<!-- Node6 -->
<g id="node7" class="node">
<title>Node6</title>
<g id="a_node7"><a xlink:href="../../d1/d77/node_8h.html" target="_top" xlink:title="node.h">
<polygon fill="#ffffff" stroke="#000000" points="429.5493,-55.5 429.5493,-73.5 476.1353,-73.5 476.1353,-55.5 429.5493,-55.5"/>
<text text-anchor="middle" x="452.8423" y="-61.5" font-family="Helvetica,sans-Serif" font-size="10.00" fill="#000000">node.h</text>
</a>
</g>
</g>
<!-- Node5&#45;&gt;Node6 -->
<g id="edge6" class="edge">
<title>Node5&#45;&gt;Node6</title>
<path fill="none" stroke="#191970" d="M396.906,-110.4179C406.8356,-102.2667 421.6323,-90.1201 433.5135,-80.3669"/>
<polygon fill="#191970" stroke="#191970" points="436.0297,-82.8297 441.5382,-73.7795 431.5882,-77.4192 436.0297,-82.8297"/>
</g>
<!-- Node5&#45;&gt;Node7 -->
<g id="edge12" class="edge">
<title>Node5&#45;&gt;Node7</title>
<path fill="none" stroke="#191970" d="M380.4412,-110.4982C369.5637,-92.369 344.8411,-51.1647 330.5618,-27.3659"/>
<polygon fill="#191970" stroke="#191970" points="333.4642,-25.4003 325.318,-18.6261 327.4617,-29.0018 333.4642,-25.4003"/>
</g>
<!-- Node6&#45;&gt;Node7 -->
<g id="edge7" class="edge">
<title>Node6&#45;&gt;Node7</title>
<path fill="none" stroke="#191970" d="M430.88,-55.4179C407.9244,-45.9249 371.8646,-31.013 347.1038,-20.7736"/>
<polygon fill="#191970" stroke="#191970" points="348.1553,-17.421 337.5767,-16.8338 345.4802,-23.8897 348.1553,-17.421"/>
</g>
<!-- Node8 -->
<g id="node9" class="node">
<title>Node8</title>
<g id="a_node9"><a xlink:href="../../da/d9c/node__version_8h.html" target="_top" xlink:title="node_version.h">
<polygon fill="#ffffff" stroke="#000000" points="355.6504,-.5 355.6504,-18.5 440.0342,-18.5 440.0342,-.5 355.6504,-.5"/>
<text text-anchor="middle" x="397.8423" y="-6.5" font-family="Helvetica,sans-Serif" font-size="10.00" fill="#000000">node_version.h</text>
</a>
</g>
</g>
<!-- Node6&#45;&gt;Node8 -->
<g id="edge8" class="edge">
<title>Node6&#45;&gt;Node8</title>
<path fill="none" stroke="#191970" d="M443.7602,-55.4179C435.7673,-47.425 423.9326,-35.5903 414.28,-25.9377"/>
<polygon fill="#191970" stroke="#191970" points="416.6677,-23.3757 407.1217,-18.7795 411.718,-28.3254 416.6677,-23.3757"/>
</g>
<!-- Node9 -->
<g id="node10" class="node">
<title>Node9</title>
<polygon fill="#ffffff" stroke="#bfbfbf" points="458.0566,-.5 458.0566,-18.5 509.6279,-18.5 509.6279,-.5 458.0566,-.5"/>
<text text-anchor="middle" x="483.8423" y="-6.5" font-family="Helvetica,sans-Serif" font-size="10.00" fill="#000000">assert.h</text>
</g>
<!-- Node6&#45;&gt;Node9 -->
<g id="edge9" class="edge">
<title>Node6&#45;&gt;Node9</title>
<path fill="none" stroke="#191970" d="M457.9613,-55.4179C462.1988,-47.8998 468.3519,-36.9829 473.5955,-27.6799"/>
<polygon fill="#191970" stroke="#191970" points="476.7509,-29.2096 478.612,-18.7795 470.6528,-25.7724 476.7509,-29.2096"/>
</g>
<!-- Node10 -->
<g id="node11" class="node">
<title>Node10</title>
<polygon fill="#ffffff" stroke="#bfbfbf" points="527.7217,-.5 527.7217,-18.5 575.9629,-18.5 575.9629,-.5 527.7217,-.5"/>
<text text-anchor="middle" x="551.8423" y="-6.5" font-family="Helvetica,sans-Serif" font-size="10.00" fill="#000000">stdint.h</text>
</g>
<!-- Node6&#45;&gt;Node10 -->
<g id="edge10" class="edge">
<title>Node6&#45;&gt;Node10</title>
<path fill="none" stroke="#191970" d="M469.1901,-55.4179C484.8104,-46.7399 508.5821,-33.5334 526.6285,-23.5077"/>
<polygon fill="#191970" stroke="#191970" points="528.4283,-26.5117 535.4702,-18.5956 525.0288,-20.3925 528.4283,-26.5117"/>
</g>
<!-- Node11 -->
<g id="node12" class="node">
<title>Node11</title>
<polygon fill="#ffffff" stroke="#bfbfbf" points="593.8325,-.5 593.8325,-18.5 659.8521,-18.5 659.8521,-.5 593.8325,-.5"/>
<text text-anchor="middle" x="626.8423" y="-6.5" font-family="Helvetica,sans-Serif" font-size="10.00" fill="#000000">sys/types.h</text>
</g>
<!-- Node6&#45;&gt;Node11 -->
<g id="edge11" class="edge">
<title>Node6&#45;&gt;Node11</title>
<path fill="none" stroke="#191970" d="M476.3087,-57.0825C505.0989,-47.9821 554.299,-32.4304 588.5859,-21.5925"/>
<polygon fill="#191970" stroke="#191970" points="589.7895,-24.8829 598.2696,-18.5316 587.6797,-18.2084 589.7895,-24.8829"/>
</g>
</g>
</svg>
        <g id="navigator" transform="translate(0 0)" fill="#404254">
                <rect fill="#f2f5e9" fill-opacity="0.5" stroke="#606060" stroke-width=".5" x="0" y="0" width="60" height="60"/>
                <use id="zoomplus" xlink:href="#zoomPlus" x="17" y="9" onmousedown="handleZoom(evt,'in')"/>
                <use id="zoomminus" xlink:href="#zoomMin" x="42" y="9" onmousedown="handleZoom(evt,'out')"/>
                <use id="reset" xlink:href="#resetDef" x="30" y="36" onmousedown="handleReset()"/>
                <g id="arrowUp" xlink:href="#dirArrow" transform="translate(30 24)" onmousedown="handlePan(0,-1)">
                  <use xlink:href="#rim" fill="#404040">
                        <set attributeName="fill" to="#808080" begin="arrowUp.mouseover" end="arrowUp.mouseout"/>
                  </use>
                  <path fill="none" stroke="white" stroke-width="1.5" d="M0,-3.0v7 M-2.5,-0.5L0,-3.0L2.5,-0.5"/>
                </g>
                <g id="arrowRight" xlink:href="#dirArrow" transform="rotate(90) translate(36 -43)" onmousedown="handlePan(1,0)">
                  <use xlink:href="#rim" fill="#404040">
                        <set attributeName="fill" to="#808080" begin="arrowRight.mouseover" end="arrowRight.mouseout"/>
                  </use>
                  <path fill="none" stroke="white" stroke-width="1.5" d="M0,-3.0v7 M-2.5,-0.5L0,-3.0L2.5,-0.5"/>
                </g>
                <g id="arrowDown" xlink:href="#dirArrow" transform="rotate(180) translate(-30 -48)" onmousedown="handlePan(0,1)">
                  <use xlink:href="#rim" fill="#404040">
                        <set attributeName="fill" to="#808080" begin="arrowDown.mouseover" end="arrowDown.mouseout"/>
                  </use>
                  <path fill="none" stroke="white" stroke-width="1.5" d="M0,-3.0v7 M-2.5,-0.5L0,-3.0L2.5,-0.5"/>
                </g>
                <g id="arrowLeft" xlink:href="#dirArrow" transform="rotate(270) translate(-36 17)" onmousedown="handlePan(-1,0)">
                  <use xlink:href="#rim" fill="#404040">
                        <set attributeName="fill" to="#808080" begin="arrowLeft.mouseover" end="arrowLeft.mouseout"/>
                  </use>
                  <path fill="none" stroke="white" stroke-width="1.5" d="M0,-3.0v7 M-2.5,-0.5L0,-3.0L2.5,-0.5"/>
                </g>
        </g>
        <svg viewBox="0 0 15 15" width="100%" height="30px" preserveAspectRatio="xMaxYMin meet">
         <g id="arrow_out" transform="scale(0.3 0.3)">
          <a xlink:href="js__stream_8cc__incl_org.svg" target="_base">
           <rect id="button" ry="5" rx="5" y="6" x="6" height="38" width="38"
                fill="#f2f5e9" fill-opacity="0.5" stroke="#606060" stroke-width="1.0"/>
           <path id="arrow"
             d="M 11.500037,31.436501 C 11.940474,20.09759 22.043105,11.32322 32.158766,21.979434 L 37.068811,17.246167 C 37.068811,17.246167 37.088388,32 37.088388,32 L 22.160133,31.978069 C 22.160133,31.978069 26.997745,27.140456 26.997745,27.140456 C 18.528582,18.264221 13.291696,25.230495 11.500037,31.436501 z"
             style="fill:#404040;"/>
          </a>
         </g>
        </svg>
</svg>
