<?xml version="1.0" encoding="UTF-8" standalone="no"?>
<!DOCTYPE svg PUBLIC "-//W3C//DTD SVG 1.1//EN"
 "http://www.w3.org/Graphics/SVG/1.1/DTD/svg11.dtd">
<!-- Generated by graphviz version 2.40.1 (20161225.0304)
 -->
<!-- Title: src/node_buffer.cc Pages: 1 -->
<svg width="838pt" height="192pt"
 viewBox="0.00 0.00 838.01 192.00" xmlns="http://www.w3.org/2000/svg" xmlns:xlink="http://www.w3.org/1999/xlink">
<g id="graph0" class="graph" transform="scale(1 1) rotate(0) translate(4 188)">
<title>src/node_buffer.cc</title>
<polygon fill="#ffffff" stroke="transparent" points="-4,4 -4,-188 834.0073,-188 834.0073,4 -4,4"/>
<!-- Node0 -->
<g id="node1" class="node">
<title>Node0</title>
<polygon fill="#bfbfbf" stroke="#000000" points="346.6792,-165.5 346.6792,-183.5 444.2222,-183.5 444.2222,-165.5 346.6792,-165.5"/>
<text text-anchor="middle" x="395.4507" y="-171.5" font-family="Helvetica,sans-Serif" font-size="10.00" fill="#000000">src/node_buffer.cc</text>
</g>
<!-- Node1 -->
<g id="node2" class="node">
<title>Node1</title>
<g id="a_node2"><a xlink:href="../../d1/d77/node_8h.html" target="_top" xlink:title="node.h">
<polygon fill="#ffffff" stroke="#000000" points="126.1577,-55.5 126.1577,-73.5 172.7437,-73.5 172.7437,-55.5 126.1577,-55.5"/>
<text text-anchor="middle" x="149.4507" y="-61.5" font-family="Helvetica,sans-Serif" font-size="10.00" fill="#000000">node.h</text>
</a>
</g>
</g>
<!-- Node0&#45;&gt;Node1 -->
<g id="edge1" class="edge">
<title>Node0&#45;&gt;Node1</title>
<path fill="none" stroke="#191970" d="M346.6618,-170.5805C287.9299,-164.8895 193.989,-152.369 168.4507,-129 156.0828,-117.6827 151.6119,-98.7652 150.07,-84.336"/>
<polygon fill="#191970" stroke="#191970" points="153.5349,-83.6976 149.3666,-73.9572 146.5509,-84.171 153.5349,-83.6976"/>
</g>
<!-- Node2 -->
<g id="node3" class="node">
<title>Node2</title>
<polygon fill="#ffffff" stroke="#bfbfbf" points="0,-.5 0,-18.5 34.9014,-18.5 34.9014,-.5 0,-.5"/>
<text text-anchor="middle" x="17.4507" y="-6.5" font-family="Helvetica,sans-Serif" font-size="10.00" fill="#000000">v8.h</text>
</g>
<!-- Node0&#45;&gt;Node2 -->
<g id="edge17" class="edge">
<title>Node0&#45;&gt;Node2</title>
<path fill="none" stroke="#191970" d="M346.3297,-171.5172C253.2169,-165.3997 58.3341,-150.2024 36.4507,-129 9.5201,-102.9074 10.9076,-55.1033 14.2159,-28.5508"/>
<polygon fill="#191970" stroke="#191970" points="17.6875,-28.9993 15.6744,-18.5975 10.7614,-27.9844 17.6875,-28.9993"/>
</g>
<!-- Node7 -->
<g id="node8" class="node">
<title>Node7</title>
<g id="a_node8"><a xlink:href="../../d8/d1c/node__buffer_8h.html" target="_top" xlink:title="node_buffer.h">
<polygon fill="#ffffff" stroke="#000000" points="44.9526,-110.5 44.9526,-128.5 121.9487,-128.5 121.9487,-110.5 44.9526,-110.5"/>
<text text-anchor="middle" x="83.4507" y="-116.5" font-family="Helvetica,sans-Serif" font-size="10.00" fill="#000000">node_buffer.h</text>
</a>
</g>
</g>
<!-- Node0&#45;&gt;Node7 -->
<g id="edge7" class="edge">
<title>Node0&#45;&gt;Node7</title>
<path fill="none" stroke="#191970" d="M346.5533,-166.0548C294.2801,-157.0005 208.9786,-142.15 135.4507,-129 134.3666,-128.8061 133.2699,-128.6095 132.1642,-128.411"/>
<polygon fill="#191970" stroke="#191970" points="132.5268,-124.9199 122.064,-126.5874 131.2831,-131.8085 132.5268,-124.9199"/>
</g>
<!-- Node8 -->
<g id="node9" class="node">
<title>Node8</title>
<g id="a_node9"><a xlink:href="../../d5/d81/env_8h.html" target="_top" xlink:title="env.h">
<polygon fill="#ffffff" stroke="#000000" points="177.5879,-110.5 177.5879,-128.5 217.3135,-128.5 217.3135,-110.5 177.5879,-110.5"/>
<text text-anchor="middle" x="197.4507" y="-116.5" font-family="Helvetica,sans-Serif" font-size="10.00" fill="#000000">env.h</text>
</a>
</g>
</g>
<!-- Node0&#45;&gt;Node8 -->
<g id="edge10" class="edge">
<title>Node0&#45;&gt;Node8</title>
<path fill="none" stroke="#191970" d="M359.6866,-165.4649C327.3827,-157.1722 278.3364,-144.2569 226.9863,-129.0482"/>
<polygon fill="#191970" stroke="#191970" points="227.958,-125.6857 217.3748,-126.1823 225.9578,-132.3939 227.958,-125.6857"/>
</g>
<!-- Node9 -->
<g id="node10" class="node">
<title>Node9</title>
<g id="a_node10"><a xlink:href="../../d9/d50/env-inl_8h.html" target="_top" xlink:title="env&#45;inl.h">
<polygon fill="#ffffff" stroke="#000000" points="235.5518,-110.5 235.5518,-128.5 289.3496,-128.5 289.3496,-110.5 235.5518,-110.5"/>
<text text-anchor="middle" x="262.4507" y="-116.5" font-family="Helvetica,sans-Serif" font-size="10.00" fill="#000000">env&#45;inl.h</text>
</a>
</g>
</g>
<!-- Node0&#45;&gt;Node9 -->
<g id="edge11" class="edge">
<title>Node0&#45;&gt;Node9</title>
<path fill="none" stroke="#191970" d="M373.4884,-165.4179C351.7335,-156.4215 318.2093,-142.5581 293.6867,-132.4172"/>
<polygon fill="#191970" stroke="#191970" points="295.0241,-129.1828 284.4456,-128.5956 292.349,-135.6515 295.0241,-129.1828"/>
</g>
<!-- Node10 -->
<g id="node11" class="node">
<title>Node10</title>
<g id="a_node11"><a xlink:href="../../d8/dbe/string__bytes_8h.html" target="_top" xlink:title="string_bytes.h">
<polygon fill="#ffffff" stroke="#000000" points="307.3228,-110.5 307.3228,-128.5 385.5786,-128.5 385.5786,-110.5 307.3228,-110.5"/>
<text text-anchor="middle" x="346.4507" y="-116.5" font-family="Helvetica,sans-Serif" font-size="10.00" fill="#000000">string_bytes.h</text>
</a>
</g>
</g>
<!-- Node0&#45;&gt;Node10 -->
<g id="edge12" class="edge">
<title>Node0&#45;&gt;Node10</title>
<path fill="none" stroke="#191970" d="M387.3593,-165.4179C380.3794,-157.5833 370.111,-146.0575 361.6083,-136.5137"/>
<polygon fill="#191970" stroke="#191970" points="363.9832,-133.9178 354.7178,-128.7795 358.7566,-138.5743 363.9832,-133.9178"/>
</g>
<!-- Node11 -->
<g id="node12" class="node">
<title>Node11</title>
<g id="a_node12"><a xlink:href="../../dd/df2/string__search_8h.html" target="_top" xlink:title="string_search.h">
<polygon fill="#ffffff" stroke="#000000" points="403.2661,-110.5 403.2661,-128.5 487.6353,-128.5 487.6353,-110.5 403.2661,-110.5"/>
<text text-anchor="middle" x="445.4507" y="-116.5" font-family="Helvetica,sans-Serif" font-size="10.00" fill="#000000">string_search.h</text>
</a>
</g>
</g>
<!-- Node0&#45;&gt;Node11 -->
<g id="edge13" class="edge">
<title>Node0&#45;&gt;Node11</title>
<path fill="none" stroke="#191970" d="M403.7072,-165.4179C410.9015,-157.5041 421.5195,-145.8243 430.2461,-136.2251"/>
<polygon fill="#191970" stroke="#191970" points="432.8779,-138.5332 437.0148,-128.7795 427.6983,-133.8245 432.8779,-138.5332"/>
</g>
<!-- Node12 -->
<g id="node13" class="node">
<title>Node12</title>
<g id="a_node13"><a xlink:href="../../d8/d3c/util_8h.html" target="_top" xlink:title="util.h">
<polygon fill="#ffffff" stroke="#000000" points="505.8892,-110.5 505.8892,-128.5 543.0122,-128.5 543.0122,-110.5 505.8892,-110.5"/>
<text text-anchor="middle" x="524.4507" y="-116.5" font-family="Helvetica,sans-Serif" font-size="10.00" fill="#000000">util.h</text>
</a>
</g>
</g>
<!-- Node0&#45;&gt;Node12 -->
<g id="edge14" class="edge">
<title>Node0&#45;&gt;Node12</title>
<path fill="none" stroke="#191970" d="M416.7524,-165.4179C438.5145,-156.1395 472.4187,-141.6842 496.3643,-131.4748"/>
<polygon fill="#191970" stroke="#191970" points="497.8108,-134.663 505.6369,-127.5214 495.0654,-128.2238 497.8108,-134.663"/>
</g>
<!-- Node13 -->
<g id="node14" class="node">
<title>Node13</title>
<g id="a_node14"><a xlink:href="../../d5/d8c/util-inl_8h.html" target="_top" xlink:title="util&#45;inl.h">
<polygon fill="#ffffff" stroke="#000000" points="561.2217,-110.5 561.2217,-128.5 611.6797,-128.5 611.6797,-110.5 561.2217,-110.5"/>
<text text-anchor="middle" x="586.4507" y="-116.5" font-family="Helvetica,sans-Serif" font-size="10.00" fill="#000000">util&#45;inl.h</text>
</a>
</g>
</g>
<!-- Node0&#45;&gt;Node13 -->
<g id="edge15" class="edge">
<title>Node0&#45;&gt;Node13</title>
<path fill="none" stroke="#191970" d="M426.9904,-165.4179C461.1289,-155.5874 515.4483,-139.9457 551.0304,-129.6996"/>
<polygon fill="#191970" stroke="#191970" points="552.3415,-132.9643 560.9825,-126.8338 550.4044,-126.2377 552.3415,-132.9643"/>
</g>
<!-- Node14 -->
<g id="node15" class="node">
<title>Node14</title>
<polygon fill="#ffffff" stroke="#bfbfbf" points="629.3252,-110.5 629.3252,-128.5 697.5762,-128.5 697.5762,-110.5 629.3252,-110.5"/>
<text text-anchor="middle" x="663.4507" y="-116.5" font-family="Helvetica,sans-Serif" font-size="10.00" fill="#000000">v8&#45;profiler.h</text>
</g>
<!-- Node0&#45;&gt;Node14 -->
<g id="edge16" class="edge">
<title>Node0&#45;&gt;Node14</title>
<path fill="none" stroke="#191970" d="M441.609,-165.4168C484.9928,-156.8233 552.0029,-143.4056 619.2712,-129.2235"/>
<polygon fill="#191970" stroke="#191970" points="620.1351,-132.6184 629.1951,-127.126 618.6875,-125.7697 620.1351,-132.6184"/>
</g>
<!-- Node15 -->
<g id="node16" class="node">
<title>Node15</title>
<polygon fill="#ffffff" stroke="#bfbfbf" points="716.0542,-110.5 716.0542,-128.5 764.8472,-128.5 764.8472,-110.5 716.0542,-110.5"/>
<text text-anchor="middle" x="740.4507" y="-116.5" font-family="Helvetica,sans-Serif" font-size="10.00" fill="#000000">string.h</text>
</g>
<!-- Node0&#45;&gt;Node15 -->
<g id="edge18" class="edge">
<title>Node0&#45;&gt;Node15</title>
<path fill="none" stroke="#191970" d="M444.2725,-169.3044C503.8225,-162.5363 607.6686,-149.3469 706.2045,-128.8014"/>
<polygon fill="#191970" stroke="#191970" points="706.9689,-132.2173 716.0287,-126.7244 705.521,-125.3686 706.9689,-132.2173"/>
</g>
<!-- Node16 -->
<g id="node17" class="node">
<title>Node16</title>
<polygon fill="#ffffff" stroke="#bfbfbf" points="782.894,-110.5 782.894,-128.5 830.0073,-128.5 830.0073,-110.5 782.894,-110.5"/>
<text text-anchor="middle" x="806.4507" y="-116.5" font-family="Helvetica,sans-Serif" font-size="10.00" fill="#000000">limits.h</text>
</g>
<!-- Node0&#45;&gt;Node16 -->
<g id="edge19" class="edge">
<title>Node0&#45;&gt;Node16</title>
<path fill="none" stroke="#191970" d="M444.482,-171.125C515.0407,-165.7147 649.3619,-153.3503 772.7698,-128.8288"/>
<polygon fill="#191970" stroke="#191970" points="773.6608,-132.2196 782.7704,-126.8097 772.2755,-125.3581 773.6608,-132.2196"/>
</g>
<!-- Node1&#45;&gt;Node2 -->
<g id="edge2" class="edge">
<title>Node1&#45;&gt;Node2</title>
<path fill="none" stroke="#191970" d="M127.6536,-55.4179C104.8706,-45.9249 69.0818,-31.013 44.5073,-20.7736"/>
<polygon fill="#191970" stroke="#191970" points="45.6287,-17.4492 35.0518,-16.8338 42.9364,-23.9108 45.6287,-17.4492"/>
</g>
<!-- Node3 -->
<g id="node4" class="node">
<title>Node3</title>
<g id="a_node4"><a xlink:href="../../da/d9c/node__version_8h.html" target="_top" xlink:title="node_version.h">
<polygon fill="#ffffff" stroke="#000000" points="53.2588,-.5 53.2588,-18.5 137.6426,-18.5 137.6426,-.5 53.2588,-.5"/>
<text text-anchor="middle" x="95.4507" y="-6.5" font-family="Helvetica,sans-Serif" font-size="10.00" fill="#000000">node_version.h</text>
</a>
</g>
</g>
<!-- Node1&#45;&gt;Node3 -->
<g id="edge3" class="edge">
<title>Node1&#45;&gt;Node3</title>
<path fill="none" stroke="#191970" d="M140.5337,-55.4179C132.6861,-47.425 121.0667,-35.5903 111.5896,-25.9377"/>
<polygon fill="#191970" stroke="#191970" points="114.0648,-23.463 104.5614,-18.7795 109.0699,-28.3672 114.0648,-23.463"/>
</g>
<!-- Node4 -->
<g id="node5" class="node">
<title>Node4</title>
<polygon fill="#ffffff" stroke="#bfbfbf" points="155.665,-.5 155.665,-18.5 207.2363,-18.5 207.2363,-.5 155.665,-.5"/>
<text text-anchor="middle" x="181.4507" y="-6.5" font-family="Helvetica,sans-Serif" font-size="10.00" fill="#000000">assert.h</text>
</g>
<!-- Node1&#45;&gt;Node4 -->
<g id="edge4" class="edge">
<title>Node1&#45;&gt;Node4</title>
<path fill="none" stroke="#191970" d="M154.7348,-55.4179C159.109,-47.8998 165.4606,-36.9829 170.8733,-27.6799"/>
<polygon fill="#191970" stroke="#191970" points="174.048,-29.1831 176.0517,-18.7795 167.9975,-25.6628 174.048,-29.1831"/>
</g>
<!-- Node5 -->
<g id="node6" class="node">
<title>Node5</title>
<polygon fill="#ffffff" stroke="#bfbfbf" points="225.3301,-.5 225.3301,-18.5 273.5713,-18.5 273.5713,-.5 225.3301,-.5"/>
<text text-anchor="middle" x="249.4507" y="-6.5" font-family="Helvetica,sans-Serif" font-size="10.00" fill="#000000">stdint.h</text>
</g>
<!-- Node1&#45;&gt;Node5 -->
<g id="edge5" class="edge">
<title>Node1&#45;&gt;Node5</title>
<path fill="none" stroke="#191970" d="M165.9636,-55.4179C181.7417,-46.7399 205.7535,-33.5334 223.9822,-23.5077"/>
<polygon fill="#191970" stroke="#191970" points="225.8377,-26.4816 232.9132,-18.5956 222.4643,-20.3481 225.8377,-26.4816"/>
</g>
<!-- Node6 -->
<g id="node7" class="node">
<title>Node6</title>
<polygon fill="#ffffff" stroke="#bfbfbf" points="291.4409,-.5 291.4409,-18.5 357.4604,-18.5 357.4604,-.5 291.4409,-.5"/>
<text text-anchor="middle" x="324.4507" y="-6.5" font-family="Helvetica,sans-Serif" font-size="10.00" fill="#000000">sys/types.h</text>
</g>
<!-- Node1&#45;&gt;Node6 -->
<g id="edge6" class="edge">
<title>Node1&#45;&gt;Node6</title>
<path fill="none" stroke="#191970" d="M173.052,-57.0825C202.0076,-47.9821 251.4905,-32.4304 285.9744,-21.5925"/>
<polygon fill="#191970" stroke="#191970" points="287.2233,-24.8689 295.7138,-18.5316 285.1244,-18.191 287.2233,-24.8689"/>
</g>
<!-- Node7&#45;&gt;Node1 -->
<g id="edge8" class="edge">
<title>Node7&#45;&gt;Node1</title>
<path fill="none" stroke="#191970" d="M94.3492,-110.4179C104.1306,-102.2667 118.7065,-90.1201 130.4104,-80.3669"/>
<polygon fill="#191970" stroke="#191970" points="132.8738,-82.8701 138.3153,-73.7795 128.3924,-77.4926 132.8738,-82.8701"/>
</g>
<!-- Node7&#45;&gt;Node2 -->
<g id="edge9" class="edge">
<title>Node7&#45;&gt;Node2</title>
<path fill="none" stroke="#191970" d="M78.0496,-110.4982C67.1721,-92.369 42.4495,-51.1647 28.1702,-27.3659"/>
<polygon fill="#191970" stroke="#191970" points="31.0726,-25.4003 22.9264,-18.6261 25.0701,-29.0018 31.0726,-25.4003"/>
</g>
</g>
</svg>
