<?xml version="1.0" encoding="UTF-8" standalone="no"?>
<!DOCTYPE svg PUBLIC "-//W3C//DTD SVG 1.1//EN"
 "http://www.w3.org/Graphics/SVG/1.1/DTD/svg11.dtd">
<!-- Generated by graphviz version 2.40.1 (20161225.0304)
 -->
<!-- Title: src/inspector_socket_server.h Pages: 1 -->
<svg width="726pt" height="202pt"
 viewBox="0.00 0.00 726.18 202.00" xmlns="http://www.w3.org/2000/svg" xmlns:xlink="http://www.w3.org/1999/xlink">
<g id="graph0" class="graph" transform="scale(1 1) rotate(0) translate(4 198)">
<title>src/inspector_socket_server.h</title>
<polygon fill="#ffffff" stroke="transparent" points="-4,4 -4,-198 722.1772,-198 722.1772,4 -4,4"/>
<!-- Node0 -->
<g id="node1" class="node">
<title>Node0</title>
<polygon fill="#bfbfbf" stroke="#000000" points="523.877,-165.5 523.877,-193.5 631.0244,-193.5 631.0244,-165.5 523.877,-165.5"/>
<text text-anchor="start" x="531.877" y="-181.5" font-family="Helvetica,sans-Serif" font-size="10.00" fill="#000000">src/inspector_socket</text>
<text text-anchor="middle" x="577.4507" y="-171.5" font-family="Helvetica,sans-Serif" font-size="10.00" fill="#000000">_server.h</text>
</g>
<!-- Node1 -->
<g id="node2" class="node">
<title>Node1</title>
<g id="a_node2"><a xlink:href="../../db/de0/inspector__agent_8h.html" target="_top" xlink:title="inspector_agent.h">
<polygon fill="#ffffff" stroke="#000000" points="101.6997,-110.5 101.6997,-128.5 197.2017,-128.5 197.2017,-110.5 101.6997,-110.5"/>
<text text-anchor="middle" x="149.4507" y="-116.5" font-family="Helvetica,sans-Serif" font-size="10.00" fill="#000000">inspector_agent.h</text>
</a>
</g>
</g>
<!-- Node0&#45;&gt;Node1 -->
<g id="edge1" class="edge">
<title>Node0&#45;&gt;Node1</title>
<path fill="none" stroke="#191970" d="M523.6776,-171.9617C442.8553,-160.6315 290.6877,-139.2996 207.4541,-127.6313"/>
<polygon fill="#191970" stroke="#191970" points="207.7984,-124.1454 197.4093,-126.2232 206.8265,-131.0777 207.7984,-124.1454"/>
</g>
<!-- Node5 -->
<g id="node6" class="node">
<title>Node5</title>
<polygon fill="#ffffff" stroke="#bfbfbf" points="319.2241,-.5 319.2241,-18.5 359.6772,-18.5 359.6772,-.5 319.2241,-.5"/>
<text text-anchor="middle" x="339.4507" y="-6.5" font-family="Helvetica,sans-Serif" font-size="10.00" fill="#000000">string</text>
</g>
<!-- Node0&#45;&gt;Node5 -->
<g id="edge16" class="edge">
<title>Node0&#45;&gt;Node5</title>
<path fill="none" stroke="#191970" d="M531.3266,-165.4196C485.796,-149.5228 416.6194,-119.7491 371.4507,-74 358.8534,-61.2408 350.3266,-42.5306 345.2637,-28.5437"/>
<polygon fill="#191970" stroke="#191970" points="348.5455,-27.321 342.0573,-18.9453 341.9062,-29.539 348.5455,-27.321"/>
</g>
<!-- Node7 -->
<g id="node8" class="node">
<title>Node7</title>
<g id="a_node8"><a xlink:href="../../d4/dee/inspector__socket_8h.html" target="_top" xlink:title="inspector_socket.h">
<polygon fill="#ffffff" stroke="#000000" points="488.7612,-110.5 488.7612,-128.5 588.1401,-128.5 588.1401,-110.5 488.7612,-110.5"/>
<text text-anchor="middle" x="538.4507" y="-116.5" font-family="Helvetica,sans-Serif" font-size="10.00" fill="#000000">inspector_socket.h</text>
</a>
</g>
</g>
<!-- Node0&#45;&gt;Node7 -->
<g id="edge7" class="edge">
<title>Node0&#45;&gt;Node7</title>
<path fill="none" stroke="#191970" d="M568.2082,-165.2808C562.7248,-156.8448 555.7285,-146.0813 549.8977,-137.1107"/>
<polygon fill="#191970" stroke="#191970" points="552.7399,-135.0612 544.3554,-128.5842 546.8708,-138.8761 552.7399,-135.0612"/>
</g>
<!-- Node11 -->
<g id="node12" class="node">
<title>Node11</title>
<polygon fill="#ffffff" stroke="#bfbfbf" points="621.3687,-55.5 621.3687,-73.5 655.5327,-73.5 655.5327,-55.5 621.3687,-55.5"/>
<text text-anchor="middle" x="638.4507" y="-61.5" font-family="Helvetica,sans-Serif" font-size="10.00" fill="#000000">uv.h</text>
</g>
<!-- Node0&#45;&gt;Node11 -->
<g id="edge14" class="edge">
<title>Node0&#45;&gt;Node11</title>
<path fill="none" stroke="#191970" d="M584.9305,-165.3987C595.9602,-144.6049 616.5926,-105.7079 628.7656,-82.7588"/>
<polygon fill="#191970" stroke="#191970" points="631.9615,-84.2029 633.5555,-73.7286 625.7776,-80.9227 631.9615,-84.2029"/>
</g>
<!-- Node12 -->
<g id="node13" class="node">
<title>Node12</title>
<polygon fill="#ffffff" stroke="#bfbfbf" points="673.835,-55.5 673.835,-73.5 717.0664,-73.5 717.0664,-55.5 673.835,-55.5"/>
<text text-anchor="middle" x="695.4507" y="-61.5" font-family="Helvetica,sans-Serif" font-size="10.00" fill="#000000">vector</text>
</g>
<!-- Node0&#45;&gt;Node12 -->
<g id="edge17" class="edge">
<title>Node0&#45;&gt;Node12</title>
<path fill="none" stroke="#191970" d="M591.9198,-165.3987C613.8301,-144.0455 655.329,-103.6017 678.5801,-80.9417"/>
<polygon fill="#191970" stroke="#191970" points="681.2626,-83.2147 685.9813,-73.7286 676.3769,-78.2016 681.2626,-83.2147"/>
</g>
<!-- Node13 -->
<g id="node14" class="node">
<title>Node13</title>
<polygon fill="#ffffff" stroke="#bfbfbf" points="682.7241,-110.5 682.7241,-128.5 718.1772,-128.5 718.1772,-110.5 682.7241,-110.5"/>
<text text-anchor="middle" x="700.4507" y="-116.5" font-family="Helvetica,sans-Serif" font-size="10.00" fill="#000000">map</text>
</g>
<!-- Node0&#45;&gt;Node13 -->
<g id="edge15" class="edge">
<title>Node0&#45;&gt;Node13</title>
<path fill="none" stroke="#191970" d="M606.2887,-165.4327C626.5476,-155.5503 653.4679,-142.4184 673.3345,-132.7274"/>
<polygon fill="#191970" stroke="#191970" points="675.0073,-135.8057 682.4605,-128.2757 671.9383,-129.5143 675.0073,-135.8057"/>
</g>
<!-- Node2 -->
<g id="node3" class="node">
<title>Node2</title>
<polygon fill="#ffffff" stroke="#bfbfbf" points="53.394,-55.5 53.394,-73.5 105.5073,-73.5 105.5073,-55.5 53.394,-55.5"/>
<text text-anchor="middle" x="79.4507" y="-61.5" font-family="Helvetica,sans-Serif" font-size="10.00" fill="#000000">memory</text>
</g>
<!-- Node1&#45;&gt;Node2 -->
<g id="edge2" class="edge">
<title>Node1&#45;&gt;Node2</title>
<path fill="none" stroke="#191970" d="M137.8916,-110.4179C127.4167,-102.1876 111.7575,-89.8839 99.2843,-80.0836"/>
<polygon fill="#191970" stroke="#191970" points="101.2865,-77.2056 91.2609,-73.7795 96.9617,-82.7098 101.2865,-77.2056"/>
</g>
<!-- Node3 -->
<g id="node4" class="node">
<title>Node3</title>
<polygon fill="#ffffff" stroke="#bfbfbf" points="123.6602,-55.5 123.6602,-73.5 175.2412,-73.5 175.2412,-55.5 123.6602,-55.5"/>
<text text-anchor="middle" x="149.4507" y="-61.5" font-family="Helvetica,sans-Serif" font-size="10.00" fill="#000000">stddef.h</text>
</g>
<!-- Node1&#45;&gt;Node3 -->
<g id="edge3" class="edge">
<title>Node1&#45;&gt;Node3</title>
<path fill="none" stroke="#191970" d="M149.4507,-110.4179C149.4507,-103.2164 149.4507,-92.8962 149.4507,-83.8632"/>
<polygon fill="#191970" stroke="#191970" points="152.9508,-83.7794 149.4507,-73.7795 145.9508,-83.7795 152.9508,-83.7794"/>
</g>
<!-- Node4 -->
<g id="node5" class="node">
<title>Node4</title>
<g id="a_node5"><a xlink:href="../../dc/d2b/node__debug__options_8h.html" target="_top" xlink:title="node_debug_options.h">
<polygon fill="#ffffff" stroke="#000000" points="193.5693,-55.5 193.5693,-73.5 311.332,-73.5 311.332,-55.5 193.5693,-55.5"/>
<text text-anchor="middle" x="252.4507" y="-61.5" font-family="Helvetica,sans-Serif" font-size="10.00" fill="#000000">node_debug_options.h</text>
</a>
</g>
</g>
<!-- Node1&#45;&gt;Node4 -->
<g id="edge4" class="edge">
<title>Node1&#45;&gt;Node4</title>
<path fill="none" stroke="#191970" d="M166.459,-110.4179C182.785,-101.7001 207.6697,-88.4122 226.4761,-78.3699"/>
<polygon fill="#191970" stroke="#191970" points="228.2445,-81.3934 235.4171,-73.5956 224.9473,-75.2186 228.2445,-81.3934"/>
</g>
<!-- Node6 -->
<g id="node7" class="node">
<title>Node6</title>
<polygon fill="#ffffff" stroke="#bfbfbf" points="0,-55.5 0,-73.5 34.9014,-73.5 34.9014,-55.5 0,-55.5"/>
<text text-anchor="middle" x="17.4507" y="-61.5" font-family="Helvetica,sans-Serif" font-size="10.00" fill="#000000">v8.h</text>
</g>
<!-- Node1&#45;&gt;Node6 -->
<g id="edge6" class="edge">
<title>Node1&#45;&gt;Node6</title>
<path fill="none" stroke="#191970" d="M127.6536,-110.4179C104.8706,-100.9249 69.0818,-86.013 44.5073,-75.7736"/>
<polygon fill="#191970" stroke="#191970" points="45.6287,-72.4492 35.0518,-71.8338 42.9364,-78.9108 45.6287,-72.4492"/>
</g>
<!-- Node4&#45;&gt;Node5 -->
<g id="edge5" class="edge">
<title>Node4&#45;&gt;Node5</title>
<path fill="none" stroke="#191970" d="M266.817,-55.4179C280.292,-46.8992 300.6699,-34.0166 316.4151,-24.0627"/>
<polygon fill="#191970" stroke="#191970" points="318.4807,-26.8977 325.0631,-18.5956 314.7402,-20.9808 318.4807,-26.8977"/>
</g>
<!-- Node7&#45;&gt;Node5 -->
<g id="edge12" class="edge">
<title>Node7&#45;&gt;Node5</title>
<path fill="none" stroke="#191970" d="M488.9261,-110.4993C460.2488,-103.6719 424.4104,-92.2611 396.4507,-74 377.771,-61.7999 361.4926,-41.8926 351.1679,-27.417"/>
<polygon fill="#191970" stroke="#191970" points="353.8185,-25.0934 345.2773,-18.8244 348.0449,-29.0514 353.8185,-25.0934"/>
</g>
<!-- Node8 -->
<g id="node9" class="node">
<title>Node8</title>
<polygon fill="#ffffff" stroke="#bfbfbf" points="405.2612,-55.5 405.2612,-73.5 479.6401,-73.5 479.6401,-55.5 405.2612,-55.5"/>
<text text-anchor="middle" x="442.4507" y="-61.5" font-family="Helvetica,sans-Serif" font-size="10.00" fill="#000000">http_parser.h</text>
</g>
<!-- Node7&#45;&gt;Node8 -->
<g id="edge8" class="edge">
<title>Node7&#45;&gt;Node8</title>
<path fill="none" stroke="#191970" d="M522.5982,-110.4179C507.5902,-101.8195 484.8223,-88.7754 467.3835,-78.7844"/>
<polygon fill="#191970" stroke="#191970" points="468.7435,-75.5299 458.3267,-73.5956 465.2636,-81.6037 468.7435,-75.5299"/>
</g>
<!-- Node9 -->
<g id="node10" class="node">
<title>Node9</title>
<g id="a_node10"><a xlink:href="../../d8/d3c/util_8h.html" target="_top" xlink:title="util.h">
<polygon fill="#ffffff" stroke="#000000" points="497.8892,-55.5 497.8892,-73.5 535.0122,-73.5 535.0122,-55.5 497.8892,-55.5"/>
<text text-anchor="middle" x="516.4507" y="-61.5" font-family="Helvetica,sans-Serif" font-size="10.00" fill="#000000">util.h</text>
</a>
</g>
</g>
<!-- Node7&#45;&gt;Node9 -->
<g id="edge9" class="edge">
<title>Node7&#45;&gt;Node9</title>
<path fill="none" stroke="#191970" d="M534.8178,-110.4179C531.8739,-103.0581 527.6271,-92.441 523.9585,-83.2695"/>
<polygon fill="#191970" stroke="#191970" points="527.1261,-81.7643 520.1625,-73.7795 520.6268,-84.3641 527.1261,-81.7643"/>
</g>
<!-- Node10 -->
<g id="node11" class="node">
<title>Node10</title>
<g id="a_node11"><a xlink:href="../../d5/d8c/util-inl_8h.html" target="_top" xlink:title="util&#45;inl.h">
<polygon fill="#ffffff" stroke="#000000" points="553.2217,-55.5 553.2217,-73.5 603.6797,-73.5 603.6797,-55.5 553.2217,-55.5"/>
<text text-anchor="middle" x="578.4507" y="-61.5" font-family="Helvetica,sans-Serif" font-size="10.00" fill="#000000">util&#45;inl.h</text>
</a>
</g>
</g>
<!-- Node7&#45;&gt;Node10 -->
<g id="edge10" class="edge">
<title>Node7&#45;&gt;Node10</title>
<path fill="none" stroke="#191970" d="M545.0559,-110.4179C550.6387,-102.7415 558.7985,-91.5217 565.6547,-82.0945"/>
<polygon fill="#191970" stroke="#191970" points="568.6508,-83.9255 571.702,-73.7795 562.9896,-79.8082 568.6508,-83.9255"/>
</g>
<!-- Node7&#45;&gt;Node11 -->
<g id="edge11" class="edge">
<title>Node7&#45;&gt;Node11</title>
<path fill="none" stroke="#191970" d="M554.9636,-110.4179C570.7417,-101.7399 594.7535,-88.5334 612.9822,-78.5077"/>
<polygon fill="#191970" stroke="#191970" points="614.8377,-81.4816 621.9132,-73.5956 611.4643,-75.3481 614.8377,-81.4816"/>
</g>
<!-- Node7&#45;&gt;Node12 -->
<g id="edge13" class="edge">
<title>Node7&#45;&gt;Node12</title>
<path fill="none" stroke="#191970" d="M564.376,-110.4179C591.6441,-100.8654 634.5759,-85.8255 663.8186,-75.5813"/>
<polygon fill="#191970" stroke="#191970" points="665.2626,-78.7841 673.5431,-72.1746 662.9482,-72.1777 665.2626,-78.7841"/>
</g>
</g>
</svg>
