<?xml version="1.0" encoding="UTF-8" standalone="no"?>
<!DOCTYPE svg PUBLIC "-//W3C//DTD SVG 1.1//EN"
 "http://www.w3.org/Graphics/SVG/1.1/DTD/svg11.dtd">
<!-- Generated by graphviz version 2.40.1 (20161225.0304)
 -->
<!-- Title: src/stream_base.cc Pages: 1 -->
<svg width="976pt" height="192pt"
 viewBox="0.00 0.00 975.63 192.00" xmlns="http://www.w3.org/2000/svg" xmlns:xlink="http://www.w3.org/1999/xlink">
<g id="graph0" class="graph" transform="scale(1 1) rotate(0) translate(4 188)">
<title>src/stream_base.cc</title>
<polygon fill="#ffffff" stroke="transparent" points="-4,4 -4,-188 971.6304,-188 971.6304,4 -4,4"/>
<!-- Node0 -->
<g id="node1" class="node">
<title>Node0</title>
<polygon fill="#bfbfbf" stroke="#000000" points="452.7266,-165.5 452.7266,-183.5 555.4209,-183.5 555.4209,-165.5 452.7266,-165.5"/>
<text text-anchor="middle" x="504.0737" y="-171.5" font-family="Helvetica,sans-Serif" font-size="10.00" fill="#000000">src/stream_base.cc</text>
</g>
<!-- Node1 -->
<g id="node2" class="node">
<title>Node1</title>
<g id="a_node2"><a xlink:href="../../db/d26/stream__base_8h.html" target="_top" xlink:title="stream_base.h">
<polygon fill="#ffffff" stroke="#000000" points="0,-110.5 0,-128.5 82.1475,-128.5 82.1475,-110.5 0,-110.5"/>
<text text-anchor="middle" x="41.0737" y="-116.5" font-family="Helvetica,sans-Serif" font-size="10.00" fill="#000000">stream_base.h</text>
</a>
</g>
</g>
<!-- Node0&#45;&gt;Node1 -->
<g id="edge1" class="edge">
<title>Node0&#45;&gt;Node1</title>
<path fill="none" stroke="#191970" d="M452.7208,-170.1409C376.3667,-163.374 228.1929,-149.1462 92.4011,-129.0994"/>
<polygon fill="#191970" stroke="#191970" points="92.6378,-125.5961 82.2311,-127.5834 91.6058,-132.5196 92.6378,-125.5961"/>
</g>
<!-- Node2 -->
<g id="node3" class="node">
<title>Node2</title>
<g id="a_node3"><a xlink:href="../../d7/d82/stream__base-inl_8h.html" target="_top" xlink:title="stream_base&#45;inl.h">
<polygon fill="#ffffff" stroke="#000000" points="100.3325,-110.5 100.3325,-128.5 195.8149,-128.5 195.8149,-110.5 100.3325,-110.5"/>
<text text-anchor="middle" x="148.0737" y="-116.5" font-family="Helvetica,sans-Serif" font-size="10.00" fill="#000000">stream_base&#45;inl.h</text>
</a>
</g>
</g>
<!-- Node0&#45;&gt;Node2 -->
<g id="edge2" class="edge">
<title>Node0&#45;&gt;Node2</title>
<path fill="none" stroke="#191970" d="M452.7188,-166.9105C395.2227,-158.363 298.9911,-143.9068 206.0986,-129.1459"/>
<polygon fill="#191970" stroke="#191970" points="206.3857,-125.6476 195.9597,-127.5314 205.2849,-132.5605 206.3857,-125.6476"/>
</g>
<!-- Node3 -->
<g id="node4" class="node">
<title>Node3</title>
<g id="a_node4"><a xlink:href="../../da/d2f/stream__wrap_8h.html" target="_top" xlink:title="stream_wrap.h">
<polygon fill="#ffffff" stroke="#000000" points="214.0049,-110.5 214.0049,-128.5 296.1426,-128.5 296.1426,-110.5 214.0049,-110.5"/>
<text text-anchor="middle" x="255.0737" y="-116.5" font-family="Helvetica,sans-Serif" font-size="10.00" fill="#000000">stream_wrap.h</text>
</a>
</g>
</g>
<!-- Node0&#45;&gt;Node3 -->
<g id="edge3" class="edge">
<title>Node0&#45;&gt;Node3</title>
<path fill="none" stroke="#191970" d="M463.2353,-165.4795C420.1749,-155.9681 352.2635,-140.9676 305.7981,-130.7042"/>
<polygon fill="#191970" stroke="#191970" points="306.4541,-127.2648 295.9345,-128.5255 304.9442,-134.1 306.4541,-127.2648"/>
</g>
<!-- Node4 -->
<g id="node5" class="node">
<title>Node4</title>
<g id="a_node5"><a xlink:href="../../d1/d77/node_8h.html" target="_top" xlink:title="node.h">
<polygon fill="#ffffff" stroke="#000000" points="432.7808,-55.5 432.7808,-73.5 479.3667,-73.5 479.3667,-55.5 432.7808,-55.5"/>
<text text-anchor="middle" x="456.0737" y="-61.5" font-family="Helvetica,sans-Serif" font-size="10.00" fill="#000000">node.h</text>
</a>
</g>
</g>
<!-- Node0&#45;&gt;Node4 -->
<g id="edge4" class="edge">
<title>Node0&#45;&gt;Node4</title>
<path fill="none" stroke="#191970" d="M497.0257,-165.1846C490.5701,-156.2875 481.125,-142.3013 475.0737,-129 468.3513,-114.2236 463.3258,-96.468 460.1373,-83.3301"/>
<polygon fill="#191970" stroke="#191970" points="463.5406,-82.5119 457.894,-73.5471 456.7176,-84.0764 463.5406,-82.5119"/>
</g>
<!-- Node5 -->
<g id="node6" class="node">
<title>Node5</title>
<polygon fill="#ffffff" stroke="#bfbfbf" points="306.623,-.5 306.623,-18.5 341.5244,-18.5 341.5244,-.5 306.623,-.5"/>
<text text-anchor="middle" x="324.0737" y="-6.5" font-family="Helvetica,sans-Serif" font-size="10.00" fill="#000000">v8.h</text>
</g>
<!-- Node0&#45;&gt;Node5 -->
<g id="edge19" class="edge">
<title>Node0&#45;&gt;Node5</title>
<path fill="none" stroke="#191970" d="M452.3894,-166.0888C411.038,-158.277 357.6412,-145.3923 343.0737,-129 318.3977,-101.2328 318.746,-54.8083 321.3214,-28.7502"/>
<polygon fill="#191970" stroke="#191970" points="324.8173,-28.9929 322.5371,-18.6463 317.8675,-28.1566 324.8173,-28.9929"/>
</g>
<!-- Node10 -->
<g id="node11" class="node">
<title>Node10</title>
<g id="a_node11"><a xlink:href="../../d8/d1c/node__buffer_8h.html" target="_top" xlink:title="node_buffer.h">
<polygon fill="#ffffff" stroke="#000000" points="351.5757,-110.5 351.5757,-128.5 428.5718,-128.5 428.5718,-110.5 351.5757,-110.5"/>
<text text-anchor="middle" x="390.0737" y="-116.5" font-family="Helvetica,sans-Serif" font-size="10.00" fill="#000000">node_buffer.h</text>
</a>
</g>
</g>
<!-- Node0&#45;&gt;Node10 -->
<g id="edge10" class="edge">
<title>Node0&#45;&gt;Node10</title>
<path fill="none" stroke="#191970" d="M485.2489,-165.4179C466.9319,-156.5807 438.8808,-143.0473 417.9707,-132.9591"/>
<polygon fill="#191970" stroke="#191970" points="419.4539,-129.7887 408.9265,-128.5956 416.4122,-136.0933 419.4539,-129.7887"/>
</g>
<!-- Node11 -->
<g id="node12" class="node">
<title>Node11</title>
<g id="a_node12"><a xlink:href="../../d5/d81/env_8h.html" target="_top" xlink:title="env.h">
<polygon fill="#ffffff" stroke="#000000" points="484.2109,-110.5 484.2109,-128.5 523.9365,-128.5 523.9365,-110.5 484.2109,-110.5"/>
<text text-anchor="middle" x="504.0737" y="-116.5" font-family="Helvetica,sans-Serif" font-size="10.00" fill="#000000">env.h</text>
</a>
</g>
</g>
<!-- Node0&#45;&gt;Node11 -->
<g id="edge13" class="edge">
<title>Node0&#45;&gt;Node11</title>
<path fill="none" stroke="#191970" d="M504.0737,-165.4179C504.0737,-158.2164 504.0737,-147.8962 504.0737,-138.8632"/>
<polygon fill="#191970" stroke="#191970" points="507.5738,-138.7794 504.0737,-128.7795 500.5738,-138.7795 507.5738,-138.7794"/>
</g>
<!-- Node12 -->
<g id="node13" class="node">
<title>Node12</title>
<g id="a_node13"><a xlink:href="../../d9/d50/env-inl_8h.html" target="_top" xlink:title="env&#45;inl.h">
<polygon fill="#ffffff" stroke="#000000" points="542.1748,-110.5 542.1748,-128.5 595.9727,-128.5 595.9727,-110.5 542.1748,-110.5"/>
<text text-anchor="middle" x="569.0737" y="-116.5" font-family="Helvetica,sans-Serif" font-size="10.00" fill="#000000">env&#45;inl.h</text>
</a>
</g>
</g>
<!-- Node0&#45;&gt;Node12 -->
<g id="edge14" class="edge">
<title>Node0&#45;&gt;Node12</title>
<path fill="none" stroke="#191970" d="M514.8072,-165.4179C524.4403,-157.2667 538.7954,-145.1201 550.3219,-135.3669"/>
<polygon fill="#191970" stroke="#191970" points="552.734,-137.9108 558.1071,-128.7795 548.2124,-132.5671 552.734,-137.9108"/>
</g>
<!-- Node13 -->
<g id="node14" class="node">
<title>Node13</title>
<g id="a_node14"><a xlink:href="../../db/d13/js__stream_8h.html" target="_top" xlink:title="js_stream.h">
<polygon fill="#ffffff" stroke="#000000" points="614.2314,-110.5 614.2314,-128.5 681.916,-128.5 681.916,-110.5 614.2314,-110.5"/>
<text text-anchor="middle" x="648.0737" y="-116.5" font-family="Helvetica,sans-Serif" font-size="10.00" fill="#000000">js_stream.h</text>
</a>
</g>
</g>
<!-- Node0&#45;&gt;Node13 -->
<g id="edge15" class="edge">
<title>Node0&#45;&gt;Node13</title>
<path fill="none" stroke="#191970" d="M527.8524,-165.4179C551.5108,-156.3817 588.025,-142.4353 614.6061,-132.2828"/>
<polygon fill="#191970" stroke="#191970" points="616.1668,-135.4334 624.2597,-128.5956 613.6691,-128.8941 616.1668,-135.4334"/>
</g>
<!-- Node14 -->
<g id="node15" class="node">
<title>Node14</title>
<g id="a_node15"><a xlink:href="../../d8/dbe/string__bytes_8h.html" target="_top" xlink:title="string_bytes.h">
<polygon fill="#ffffff" stroke="#000000" points="699.9458,-110.5 699.9458,-128.5 778.2017,-128.5 778.2017,-110.5 699.9458,-110.5"/>
<text text-anchor="middle" x="739.0737" y="-116.5" font-family="Helvetica,sans-Serif" font-size="10.00" fill="#000000">string_bytes.h</text>
</a>
</g>
</g>
<!-- Node0&#45;&gt;Node14 -->
<g id="edge16" class="edge">
<title>Node0&#45;&gt;Node14</title>
<path fill="none" stroke="#191970" d="M542.6161,-165.4795C583.085,-156.008 646.8114,-141.0933 690.6487,-130.8335"/>
<polygon fill="#191970" stroke="#191970" points="691.5711,-134.2123 700.5104,-128.5255 689.9759,-127.3965 691.5711,-134.2123"/>
</g>
<!-- Node15 -->
<g id="node16" class="node">
<title>Node15</title>
<g id="a_node16"><a xlink:href="../../d8/d3c/util_8h.html" target="_top" xlink:title="util.h">
<polygon fill="#ffffff" stroke="#000000" points="796.5122,-110.5 796.5122,-128.5 833.6353,-128.5 833.6353,-110.5 796.5122,-110.5"/>
<text text-anchor="middle" x="815.0737" y="-116.5" font-family="Helvetica,sans-Serif" font-size="10.00" fill="#000000">util.h</text>
</a>
</g>
</g>
<!-- Node0&#45;&gt;Node15 -->
<g id="edge17" class="edge">
<title>Node0&#45;&gt;Node15</title>
<path fill="none" stroke="#191970" d="M555.4607,-168.8677C610.4484,-162.2566 700.2853,-149.7776 786.2983,-128.8338"/>
<polygon fill="#191970" stroke="#191970" points="787.3592,-132.1769 796.2238,-126.3745 785.6755,-125.3824 787.3592,-132.1769"/>
</g>
<!-- Node16 -->
<g id="node17" class="node">
<title>Node16</title>
<g id="a_node17"><a xlink:href="../../d5/d8c/util-inl_8h.html" target="_top" xlink:title="util&#45;inl.h">
<polygon fill="#ffffff" stroke="#000000" points="851.8447,-110.5 851.8447,-128.5 902.3027,-128.5 902.3027,-110.5 851.8447,-110.5"/>
<text text-anchor="middle" x="877.0737" y="-116.5" font-family="Helvetica,sans-Serif" font-size="10.00" fill="#000000">util&#45;inl.h</text>
</a>
</g>
</g>
<!-- Node0&#45;&gt;Node16 -->
<g id="edge18" class="edge">
<title>Node0&#45;&gt;Node16</title>
<path fill="none" stroke="#191970" d="M555.5614,-169.8392C620.3001,-163.4817 734.9532,-150.5775 841.5856,-129.0813"/>
<polygon fill="#191970" stroke="#191970" points="842.4518,-132.4767 851.5471,-127.0429 841.0485,-125.6188 842.4518,-132.4767"/>
</g>
<!-- Node17 -->
<g id="node18" class="node">
<title>Node17</title>
<polygon fill="#ffffff" stroke="#bfbfbf" points="920.5171,-110.5 920.5171,-128.5 967.6304,-128.5 967.6304,-110.5 920.5171,-110.5"/>
<text text-anchor="middle" x="944.0737" y="-116.5" font-family="Helvetica,sans-Serif" font-size="10.00" fill="#000000">limits.h</text>
</g>
<!-- Node0&#45;&gt;Node17 -->
<g id="edge20" class="edge">
<title>Node0&#45;&gt;Node17</title>
<path fill="none" stroke="#191970" d="M555.579,-171.5408C631.3399,-166.5748 777.3178,-154.6735 910.4304,-128.8028"/>
<polygon fill="#191970" stroke="#191970" points="911.266,-132.2055 920.3983,-126.8342 909.9097,-125.3381 911.266,-132.2055"/>
</g>
<!-- Node4&#45;&gt;Node5 -->
<g id="edge5" class="edge">
<title>Node4&#45;&gt;Node5</title>
<path fill="none" stroke="#191970" d="M434.2766,-55.4179C411.4936,-45.9249 375.7049,-31.013 351.1303,-20.7736"/>
<polygon fill="#191970" stroke="#191970" points="352.2518,-17.4492 341.6748,-16.8338 349.5594,-23.9108 352.2518,-17.4492"/>
</g>
<!-- Node6 -->
<g id="node7" class="node">
<title>Node6</title>
<g id="a_node7"><a xlink:href="../../da/d9c/node__version_8h.html" target="_top" xlink:title="node_version.h">
<polygon fill="#ffffff" stroke="#000000" points="359.8818,-.5 359.8818,-18.5 444.2656,-18.5 444.2656,-.5 359.8818,-.5"/>
<text text-anchor="middle" x="402.0737" y="-6.5" font-family="Helvetica,sans-Serif" font-size="10.00" fill="#000000">node_version.h</text>
</a>
</g>
</g>
<!-- Node4&#45;&gt;Node6 -->
<g id="edge6" class="edge">
<title>Node4&#45;&gt;Node6</title>
<path fill="none" stroke="#191970" d="M447.1567,-55.4179C439.3092,-47.425 427.6897,-35.5903 418.2126,-25.9377"/>
<polygon fill="#191970" stroke="#191970" points="420.6879,-23.463 411.1845,-18.7795 415.6929,-28.3672 420.6879,-23.463"/>
</g>
<!-- Node7 -->
<g id="node8" class="node">
<title>Node7</title>
<polygon fill="#ffffff" stroke="#bfbfbf" points="462.2881,-.5 462.2881,-18.5 513.8594,-18.5 513.8594,-.5 462.2881,-.5"/>
<text text-anchor="middle" x="488.0737" y="-6.5" font-family="Helvetica,sans-Serif" font-size="10.00" fill="#000000">assert.h</text>
</g>
<!-- Node4&#45;&gt;Node7 -->
<g id="edge7" class="edge">
<title>Node4&#45;&gt;Node7</title>
<path fill="none" stroke="#191970" d="M461.3579,-55.4179C465.732,-47.8998 472.0837,-36.9829 477.4964,-27.6799"/>
<polygon fill="#191970" stroke="#191970" points="480.671,-29.1831 482.6748,-18.7795 474.6206,-25.6628 480.671,-29.1831"/>
</g>
<!-- Node8 -->
<g id="node9" class="node">
<title>Node8</title>
<polygon fill="#ffffff" stroke="#bfbfbf" points="531.9531,-.5 531.9531,-18.5 580.1943,-18.5 580.1943,-.5 531.9531,-.5"/>
<text text-anchor="middle" x="556.0737" y="-6.5" font-family="Helvetica,sans-Serif" font-size="10.00" fill="#000000">stdint.h</text>
</g>
<!-- Node4&#45;&gt;Node8 -->
<g id="edge8" class="edge">
<title>Node4&#45;&gt;Node8</title>
<path fill="none" stroke="#191970" d="M472.5867,-55.4179C488.3648,-46.7399 512.3766,-33.5334 530.6052,-23.5077"/>
<polygon fill="#191970" stroke="#191970" points="532.4608,-26.4816 539.5362,-18.5956 529.0873,-20.3481 532.4608,-26.4816"/>
</g>
<!-- Node9 -->
<g id="node10" class="node">
<title>Node9</title>
<polygon fill="#ffffff" stroke="#bfbfbf" points="598.064,-.5 598.064,-18.5 664.0835,-18.5 664.0835,-.5 598.064,-.5"/>
<text text-anchor="middle" x="631.0737" y="-6.5" font-family="Helvetica,sans-Serif" font-size="10.00" fill="#000000">sys/types.h</text>
</g>
<!-- Node4&#45;&gt;Node9 -->
<g id="edge9" class="edge">
<title>Node4&#45;&gt;Node9</title>
<path fill="none" stroke="#191970" d="M479.675,-57.0825C508.6306,-47.9821 558.1135,-32.4304 592.5975,-21.5925"/>
<polygon fill="#191970" stroke="#191970" points="593.8463,-24.8689 602.3368,-18.5316 591.7475,-18.191 593.8463,-24.8689"/>
</g>
<!-- Node10&#45;&gt;Node4 -->
<g id="edge11" class="edge">
<title>Node10&#45;&gt;Node4</title>
<path fill="none" stroke="#191970" d="M400.9723,-110.4179C410.7537,-102.2667 425.3296,-90.1201 437.0334,-80.3669"/>
<polygon fill="#191970" stroke="#191970" points="439.4968,-82.8701 444.9384,-73.7795 435.0155,-77.4926 439.4968,-82.8701"/>
</g>
<!-- Node10&#45;&gt;Node5 -->
<g id="edge12" class="edge">
<title>Node10&#45;&gt;Node5</title>
<path fill="none" stroke="#191970" d="M384.6727,-110.4982C373.7951,-92.369 349.0726,-51.1647 334.7933,-27.3659"/>
<polygon fill="#191970" stroke="#191970" points="337.6957,-25.4003 329.5494,-18.6261 331.6932,-29.0018 337.6957,-25.4003"/>
</g>
</g>
</svg>
