<?xml version="1.0" encoding="UTF-8" standalone="no"?>
<!DOCTYPE svg PUBLIC "-//W3C//DTD SVG 1.1//EN"
 "http://www.w3.org/Graphics/SVG/1.1/DTD/svg11.dtd">
<!-- Generated by graphviz version 2.40.1 (20161225.0304)
 -->
<!-- Title: src/cares_wrap.cc Pages: 1 -->
<svg width="1260pt" height="137pt"
 viewBox="0.00 0.00 1259.64 137.00" xmlns="http://www.w3.org/2000/svg" xmlns:xlink="http://www.w3.org/1999/xlink">
<g id="graph0" class="graph" transform="scale(1 1) rotate(0) translate(4 133)">
<title>src/cares_wrap.cc</title>
<polygon fill="#ffffff" stroke="transparent" points="-4,4 -4,-133 1255.6426,-133 1255.6426,4 -4,4"/>
<!-- Node0 -->
<g id="node1" class="node">
<title>Node0</title>
<polygon fill="#bfbfbf" stroke="#000000" points="602.6084,-110.5 602.6084,-128.5 699.1846,-128.5 699.1846,-110.5 602.6084,-110.5"/>
<text text-anchor="middle" x="650.8965" y="-116.5" font-family="Helvetica,sans-Serif" font-size="10.00" fill="#000000">src/cares_wrap.cc</text>
</g>
<!-- Node1 -->
<g id="node2" class="node">
<title>Node1</title>
<polygon fill="#ffffff" stroke="#bfbfbf" points="0,-55.5 0,-73.5 43.793,-73.5 43.793,-55.5 0,-55.5"/>
<text text-anchor="middle" x="21.8965" y="-61.5" font-family="Helvetica,sans-Serif" font-size="10.00" fill="#000000">ares.h</text>
</g>
<!-- Node0&#45;&gt;Node1 -->
<g id="edge1" class="edge">
<title>Node0&#45;&gt;Node1</title>
<path fill="none" stroke="#191970" d="M602.5385,-117.2045C483.1906,-111.3234 176.0824,-94.8237 54.2692,-73.7983"/>
<polygon fill="#191970" stroke="#191970" points="54.5646,-70.2947 44.0996,-71.9486 53.3118,-77.1817 54.5646,-70.2947"/>
</g>
<!-- Node2 -->
<g id="node3" class="node">
<title>Node2</title>
<g id="a_node3"><a xlink:href="../../d4/d56/async-wrap_8h.html" target="_top" xlink:title="async&#45;wrap.h">
<polygon fill="#ffffff" stroke="#000000" points="62.1626,-55.5 62.1626,-73.5 137.6304,-73.5 137.6304,-55.5 62.1626,-55.5"/>
<text text-anchor="middle" x="99.8965" y="-61.5" font-family="Helvetica,sans-Serif" font-size="10.00" fill="#000000">async&#45;wrap.h</text>
</a>
</g>
</g>
<!-- Node0&#45;&gt;Node2 -->
<g id="edge2" class="edge">
<title>Node0&#45;&gt;Node2</title>
<path fill="none" stroke="#191970" d="M602.389,-116.8912C514.0096,-111.7532 320.7084,-98.7426 147.8424,-73.9866"/>
<polygon fill="#191970" stroke="#191970" points="148.1977,-70.5016 137.7991,-72.5316 147.1939,-77.4293 148.1977,-70.5016"/>
</g>
<!-- Node3 -->
<g id="node4" class="node">
<title>Node3</title>
<g id="a_node4"><a xlink:href="../../d5/d30/async-wrap-inl_8h.html" target="_top" xlink:title="async&#45;wrap&#45;inl.h">
<polygon fill="#ffffff" stroke="#000000" points="155.4951,-55.5 155.4951,-73.5 244.2979,-73.5 244.2979,-55.5 155.4951,-55.5"/>
<text text-anchor="middle" x="199.8965" y="-61.5" font-family="Helvetica,sans-Serif" font-size="10.00" fill="#000000">async&#45;wrap&#45;inl.h</text>
</a>
</g>
</g>
<!-- Node0&#45;&gt;Node3 -->
<g id="edge3" class="edge">
<title>Node0&#45;&gt;Node3</title>
<path fill="none" stroke="#191970" d="M602.3674,-114.9555C529.1828,-107.8818 385.9861,-93.1851 254.6362,-74.1818"/>
<polygon fill="#191970" stroke="#191970" points="254.7965,-70.6683 244.396,-72.6879 253.786,-77.5949 254.7965,-70.6683"/>
</g>
<!-- Node4 -->
<g id="node5" class="node">
<title>Node4</title>
<g id="a_node5"><a xlink:href="../../d5/d81/env_8h.html" target="_top" xlink:title="env.h">
<polygon fill="#ffffff" stroke="#000000" points="262.0337,-55.5 262.0337,-73.5 301.7593,-73.5 301.7593,-55.5 262.0337,-55.5"/>
<text text-anchor="middle" x="281.8965" y="-61.5" font-family="Helvetica,sans-Serif" font-size="10.00" fill="#000000">env.h</text>
</a>
</g>
</g>
<!-- Node0&#45;&gt;Node4 -->
<g id="edge4" class="edge">
<title>Node0&#45;&gt;Node4</title>
<path fill="none" stroke="#191970" d="M602.5395,-115.8404C538.101,-110.3468 420.5109,-98.172 311.8565,-73.8588"/>
<polygon fill="#191970" stroke="#191970" points="312.5723,-70.4323 302.0447,-71.6241 311.0177,-77.2575 312.5723,-70.4323"/>
</g>
<!-- Node5 -->
<g id="node6" class="node">
<title>Node5</title>
<g id="a_node6"><a xlink:href="../../d9/d50/env-inl_8h.html" target="_top" xlink:title="env&#45;inl.h">
<polygon fill="#ffffff" stroke="#000000" points="319.9976,-55.5 319.9976,-73.5 373.7954,-73.5 373.7954,-55.5 319.9976,-55.5"/>
<text text-anchor="middle" x="346.8965" y="-61.5" font-family="Helvetica,sans-Serif" font-size="10.00" fill="#000000">env&#45;inl.h</text>
</a>
</g>
</g>
<!-- Node0&#45;&gt;Node5 -->
<g id="edge5" class="edge">
<title>Node0&#45;&gt;Node5</title>
<path fill="none" stroke="#191970" d="M602.2304,-112.5821C550.4425,-104.9207 465.9297,-91.5633 383.9437,-74.0738"/>
<polygon fill="#191970" stroke="#191970" points="384.4735,-70.6077 373.9604,-71.9206 382.9976,-77.4504 384.4735,-70.6077"/>
</g>
<!-- Node6 -->
<g id="node7" class="node">
<title>Node6</title>
<g id="a_node7"><a xlink:href="../../d1/d77/node_8h.html" target="_top" xlink:title="node.h">
<polygon fill="#ffffff" stroke="#000000" points="391.6035,-55.5 391.6035,-73.5 438.1895,-73.5 438.1895,-55.5 391.6035,-55.5"/>
<text text-anchor="middle" x="414.8965" y="-61.5" font-family="Helvetica,sans-Serif" font-size="10.00" fill="#000000">node.h</text>
</a>
</g>
</g>
<!-- Node0&#45;&gt;Node6 -->
<g id="edge6" class="edge">
<title>Node0&#45;&gt;Node6</title>
<path fill="none" stroke="#191970" d="M606.1127,-110.4416C566.8249,-102.2865 507.952,-89.5646 448.2401,-74.2256"/>
<polygon fill="#191970" stroke="#191970" points="448.8213,-70.7607 438.2631,-71.6399 447.0651,-77.5368 448.8213,-70.7607"/>
</g>
<!-- Node12 -->
<g id="node13" class="node">
<title>Node12</title>
<g id="a_node13"><a xlink:href="../../d6/dae/req-wrap_8h.html" target="_top" xlink:title="req&#45;wrap.h">
<polygon fill="#ffffff" stroke="#000000" points="455.9976,-55.5 455.9976,-73.5 519.7954,-73.5 519.7954,-55.5 455.9976,-55.5"/>
<text text-anchor="middle" x="487.8965" y="-61.5" font-family="Helvetica,sans-Serif" font-size="10.00" fill="#000000">req&#45;wrap.h</text>
</a>
</g>
</g>
<!-- Node0&#45;&gt;Node12 -->
<g id="edge12" class="edge">
<title>Node0&#45;&gt;Node12</title>
<path fill="none" stroke="#191970" d="M623.9803,-110.4179C596.7651,-101.2348 554.5212,-86.9807 524.3222,-76.7909"/>
<polygon fill="#191970" stroke="#191970" points="525.1759,-73.3851 514.5817,-73.5042 522.9378,-80.0177 525.1759,-73.3851"/>
</g>
<!-- Node13 -->
<g id="node14" class="node">
<title>Node13</title>
<g id="a_node14"><a xlink:href="../../dd/d0b/req-wrap-inl_8h.html" target="_top" xlink:title="req&#45;wrap&#45;inl.h">
<polygon fill="#ffffff" stroke="#000000" points="537.3301,-55.5 537.3301,-73.5 614.4629,-73.5 614.4629,-55.5 537.3301,-55.5"/>
<text text-anchor="middle" x="575.8965" y="-61.5" font-family="Helvetica,sans-Serif" font-size="10.00" fill="#000000">req&#45;wrap&#45;inl.h</text>
</a>
</g>
</g>
<!-- Node0&#45;&gt;Node13 -->
<g id="edge13" class="edge">
<title>Node0&#45;&gt;Node13</title>
<path fill="none" stroke="#191970" d="M638.5118,-110.4179C627.1125,-102.0584 609.9828,-89.4966 596.52,-79.6239"/>
<polygon fill="#191970" stroke="#191970" points="598.4335,-76.6869 588.2996,-73.5956 594.2939,-82.3317 598.4335,-76.6869"/>
</g>
<!-- Node14 -->
<g id="node15" class="node">
<title>Node14</title>
<g id="a_node15"><a xlink:href="../../d8/d3c/util_8h.html" target="_top" xlink:title="util.h">
<polygon fill="#ffffff" stroke="#000000" points="632.335,-55.5 632.335,-73.5 669.458,-73.5 669.458,-55.5 632.335,-55.5"/>
<text text-anchor="middle" x="650.8965" y="-61.5" font-family="Helvetica,sans-Serif" font-size="10.00" fill="#000000">util.h</text>
</a>
</g>
</g>
<!-- Node0&#45;&gt;Node14 -->
<g id="edge14" class="edge">
<title>Node0&#45;&gt;Node14</title>
<path fill="none" stroke="#191970" d="M650.8965,-110.4179C650.8965,-103.2164 650.8965,-92.8962 650.8965,-83.8632"/>
<polygon fill="#191970" stroke="#191970" points="654.3966,-83.7794 650.8965,-73.7795 647.3966,-83.7795 654.3966,-83.7794"/>
</g>
<!-- Node15 -->
<g id="node16" class="node">
<title>Node15</title>
<g id="a_node16"><a xlink:href="../../d5/d8c/util-inl_8h.html" target="_top" xlink:title="util&#45;inl.h">
<polygon fill="#ffffff" stroke="#000000" points="687.6675,-55.5 687.6675,-73.5 738.1255,-73.5 738.1255,-55.5 687.6675,-55.5"/>
<text text-anchor="middle" x="712.8965" y="-61.5" font-family="Helvetica,sans-Serif" font-size="10.00" fill="#000000">util&#45;inl.h</text>
</a>
</g>
</g>
<!-- Node0&#45;&gt;Node15 -->
<g id="edge15" class="edge">
<title>Node0&#45;&gt;Node15</title>
<path fill="none" stroke="#191970" d="M661.1345,-110.4179C670.2339,-102.3458 683.7502,-90.3556 694.6891,-80.6517"/>
<polygon fill="#191970" stroke="#191970" points="697.2779,-83.0339 702.436,-73.7795 692.6326,-77.7974 697.2779,-83.0339"/>
</g>
<!-- Node16 -->
<g id="node17" class="node">
<title>Node16</title>
<polygon fill="#ffffff" stroke="#bfbfbf" points="755.8145,-55.5 755.8145,-73.5 789.9785,-73.5 789.9785,-55.5 755.8145,-55.5"/>
<text text-anchor="middle" x="772.8965" y="-61.5" font-family="Helvetica,sans-Serif" font-size="10.00" fill="#000000">uv.h</text>
</g>
<!-- Node0&#45;&gt;Node16 -->
<g id="edge16" class="edge">
<title>Node0&#45;&gt;Node16</title>
<path fill="none" stroke="#191970" d="M671.0423,-110.4179C691.5584,-101.1688 723.4854,-86.7755 746.1192,-76.5717"/>
<polygon fill="#191970" stroke="#191970" points="747.8118,-79.6479 755.4898,-72.3473 744.9349,-73.2665 747.8118,-79.6479"/>
</g>
<!-- Node17 -->
<g id="node18" class="node">
<title>Node17</title>
<polygon fill="#ffffff" stroke="#bfbfbf" points="808.0542,-55.5 808.0542,-73.5 855.7388,-73.5 855.7388,-55.5 808.0542,-55.5"/>
<text text-anchor="middle" x="831.8965" y="-61.5" font-family="Helvetica,sans-Serif" font-size="10.00" fill="#000000">errno.h</text>
</g>
<!-- Node0&#45;&gt;Node17 -->
<g id="edge17" class="edge">
<title>Node0&#45;&gt;Node17</title>
<path fill="none" stroke="#191970" d="M680.785,-110.4179C713.0882,-100.602 764.4592,-84.992 798.1809,-74.7451"/>
<polygon fill="#191970" stroke="#191970" points="799.4886,-78.0058 808.039,-71.7495 797.4534,-71.3082 799.4886,-78.0058"/>
</g>
<!-- Node18 -->
<g id="node19" class="node">
<title>Node18</title>
<polygon fill="#ffffff" stroke="#bfbfbf" points="874.0542,-55.5 874.0542,-73.5 921.7388,-73.5 921.7388,-55.5 874.0542,-55.5"/>
<text text-anchor="middle" x="897.8965" y="-61.5" font-family="Helvetica,sans-Serif" font-size="10.00" fill="#000000">stdlib.h</text>
</g>
<!-- Node0&#45;&gt;Node18 -->
<g id="edge18" class="edge">
<title>Node0&#45;&gt;Node18</title>
<path fill="none" stroke="#191970" d="M698.2931,-110.4241C739.5953,-102.2904 801.3025,-89.5994 863.77,-74.1528"/>
<polygon fill="#191970" stroke="#191970" points="864.944,-77.4673 873.7992,-71.6504 863.2493,-70.6755 864.944,-77.4673"/>
</g>
<!-- Node19 -->
<g id="node20" class="node">
<title>Node19</title>
<polygon fill="#ffffff" stroke="#bfbfbf" points="939.5,-55.5 939.5,-73.5 988.293,-73.5 988.293,-55.5 939.5,-55.5"/>
<text text-anchor="middle" x="963.8965" y="-61.5" font-family="Helvetica,sans-Serif" font-size="10.00" fill="#000000">string.h</text>
</g>
<!-- Node0&#45;&gt;Node19 -->
<g id="edge19" class="edge">
<title>Node0&#45;&gt;Node19</title>
<path fill="none" stroke="#191970" d="M699.2904,-113.4209C753.2941,-106.241 843.4062,-93.0813 929.534,-74.1028"/>
<polygon fill="#191970" stroke="#191970" points="930.4756,-77.4788 939.4719,-71.8826 928.9494,-70.6472 930.4756,-77.4788"/>
</g>
<!-- Node20 -->
<g id="node21" class="node">
<title>Node20</title>
<polygon fill="#ffffff" stroke="#bfbfbf" points="1006.2808,-55.5 1006.2808,-73.5 1049.5122,-73.5 1049.5122,-55.5 1006.2808,-55.5"/>
<text text-anchor="middle" x="1027.8965" y="-61.5" font-family="Helvetica,sans-Serif" font-size="10.00" fill="#000000">vector</text>
</g>
<!-- Node0&#45;&gt;Node20 -->
<g id="edge20" class="edge">
<title>Node0&#45;&gt;Node20</title>
<path fill="none" stroke="#191970" d="M699.1865,-115.7083C764.4932,-110.0192 884.6545,-97.5702 995.9496,-73.88"/>
<polygon fill="#191970" stroke="#191970" points="996.9676,-77.2408 1006.0006,-71.7041 995.4865,-70.3992 996.9676,-77.2408"/>
</g>
<!-- Node21 -->
<g id="node22" class="node">
<title>Node21</title>
<polygon fill="#ffffff" stroke="#bfbfbf" points="1067.6504,-55.5 1067.6504,-73.5 1148.1426,-73.5 1148.1426,-55.5 1067.6504,-55.5"/>
<text text-anchor="middle" x="1107.8965" y="-61.5" font-family="Helvetica,sans-Serif" font-size="10.00" fill="#000000">unordered_set</text>
</g>
<!-- Node0&#45;&gt;Node21 -->
<g id="edge21" class="edge">
<title>Node0&#45;&gt;Node21</title>
<path fill="none" stroke="#191970" d="M699.4225,-115.3616C774.1652,-108.7081 922.1526,-94.4293 1057.4334,-74.122"/>
<polygon fill="#191970" stroke="#191970" points="1058.2021,-77.5455 1067.5644,-72.5861 1057.1528,-70.6246 1058.2021,-77.5455"/>
</g>
<!-- Node22 -->
<g id="node23" class="node">
<title>Node22</title>
<polygon fill="#ffffff" stroke="#bfbfbf" points="1166.1504,-55.5 1166.1504,-73.5 1251.6426,-73.5 1251.6426,-55.5 1166.1504,-55.5"/>
<text text-anchor="middle" x="1208.8965" y="-61.5" font-family="Helvetica,sans-Serif" font-size="10.00" fill="#000000">arpa/nameser.h</text>
</g>
<!-- Node0&#45;&gt;Node22 -->
<g id="edge22" class="edge">
<title>Node0&#45;&gt;Node22</title>
<path fill="none" stroke="#191970" d="M699.2005,-116.6258C787.6977,-111.0404 981.9497,-97.3014 1155.9854,-74.0055"/>
<polygon fill="#191970" stroke="#191970" points="1156.6564,-77.4467 1166.0971,-72.6379 1155.7182,-70.5098 1156.6564,-77.4467"/>
</g>
<!-- Node7 -->
<g id="node8" class="node">
<title>Node7</title>
<polygon fill="#ffffff" stroke="#bfbfbf" points="233.4458,-.5 233.4458,-18.5 268.3472,-18.5 268.3472,-.5 233.4458,-.5"/>
<text text-anchor="middle" x="250.8965" y="-6.5" font-family="Helvetica,sans-Serif" font-size="10.00" fill="#000000">v8.h</text>
</g>
<!-- Node6&#45;&gt;Node7 -->
<g id="edge7" class="edge">
<title>Node6&#45;&gt;Node7</title>
<path fill="none" stroke="#191970" d="M391.5834,-56.8963C366.0465,-48.5371 323.6568,-34.5739 278.064,-19.0161"/>
<polygon fill="#191970" stroke="#191970" points="279.1943,-15.7036 268.5997,-15.7792 276.929,-22.327 279.1943,-15.7036"/>
</g>
<!-- Node8 -->
<g id="node9" class="node">
<title>Node8</title>
<g id="a_node9"><a xlink:href="../../da/d9c/node__version_8h.html" target="_top" xlink:title="node_version.h">
<polygon fill="#ffffff" stroke="#000000" points="286.7046,-.5 286.7046,-18.5 371.0884,-18.5 371.0884,-.5 286.7046,-.5"/>
<text text-anchor="middle" x="328.8965" y="-6.5" font-family="Helvetica,sans-Serif" font-size="10.00" fill="#000000">node_version.h</text>
</a>
</g>
</g>
<!-- Node6&#45;&gt;Node8 -->
<g id="edge8" class="edge">
<title>Node6&#45;&gt;Node8</title>
<path fill="none" stroke="#191970" d="M400.6953,-55.4179C387.3752,-46.8992 367.2315,-34.0166 351.6673,-24.0627"/>
<polygon fill="#191970" stroke="#191970" points="353.429,-21.0348 343.1187,-18.5956 349.6575,-26.932 353.429,-21.0348"/>
</g>
<!-- Node9 -->
<g id="node10" class="node">
<title>Node9</title>
<polygon fill="#ffffff" stroke="#bfbfbf" points="389.1108,-.5 389.1108,-18.5 440.6821,-18.5 440.6821,-.5 389.1108,-.5"/>
<text text-anchor="middle" x="414.8965" y="-6.5" font-family="Helvetica,sans-Serif" font-size="10.00" fill="#000000">assert.h</text>
</g>
<!-- Node6&#45;&gt;Node9 -->
<g id="edge9" class="edge">
<title>Node6&#45;&gt;Node9</title>
<path fill="none" stroke="#191970" d="M414.8965,-55.4179C414.8965,-48.2164 414.8965,-37.8962 414.8965,-28.8632"/>
<polygon fill="#191970" stroke="#191970" points="418.3966,-28.7794 414.8965,-18.7795 411.3966,-28.7795 418.3966,-28.7794"/>
</g>
<!-- Node10 -->
<g id="node11" class="node">
<title>Node10</title>
<polygon fill="#ffffff" stroke="#bfbfbf" points="458.7759,-.5 458.7759,-18.5 507.0171,-18.5 507.0171,-.5 458.7759,-.5"/>
<text text-anchor="middle" x="482.8965" y="-6.5" font-family="Helvetica,sans-Serif" font-size="10.00" fill="#000000">stdint.h</text>
</g>
<!-- Node6&#45;&gt;Node10 -->
<g id="edge10" class="edge">
<title>Node6&#45;&gt;Node10</title>
<path fill="none" stroke="#191970" d="M426.1253,-55.4179C436.3009,-47.1876 451.5128,-34.8839 463.6295,-25.0836"/>
<polygon fill="#191970" stroke="#191970" points="465.8496,-27.7895 471.4237,-18.7795 461.4475,-22.3469 465.8496,-27.7895"/>
</g>
<!-- Node11 -->
<g id="node12" class="node">
<title>Node11</title>
<polygon fill="#ffffff" stroke="#bfbfbf" points="524.8867,-.5 524.8867,-18.5 590.9063,-18.5 590.9063,-.5 524.8867,-.5"/>
<text text-anchor="middle" x="557.8965" y="-6.5" font-family="Helvetica,sans-Serif" font-size="10.00" fill="#000000">sys/types.h</text>
</g>
<!-- Node6&#45;&gt;Node11 -->
<g id="edge11" class="edge">
<title>Node6&#45;&gt;Node11</title>
<path fill="none" stroke="#191970" d="M438.1902,-55.5409C461.6292,-46.5259 498.0055,-32.535 524.5093,-22.3412"/>
<polygon fill="#191970" stroke="#191970" points="526.0592,-25.4951 534.1362,-18.6386 523.5463,-18.9617 526.0592,-25.4951"/>
</g>
</g>
</svg>
