<?xml version="1.0" encoding="UTF-8" standalone="no"?>
<!DOCTYPE svg PUBLIC "-//W3C//DTD SVG 1.1//EN"
 "http://www.w3.org/Graphics/SVG/1.1/DTD/svg11.dtd">
<!-- Generated by graphviz version 2.40.1 (20161225.0304)
 -->
<!-- Title: src/util.h Pages: 1 -->
<svg width="4626pt" height="267pt"
 viewBox="0.00 0.00 4625.84 267.00" xmlns="http://www.w3.org/2000/svg" xmlns:xlink="http://www.w3.org/1999/xlink">
<g id="graph0" class="graph" transform="scale(1 1) rotate(0) translate(4 263)">
<title>src/util.h</title>
<polygon fill="#ffffff" stroke="transparent" points="-4,4 -4,-263 4621.8423,-263 4621.8423,4 -4,4"/>
<!-- Node1 -->
<g id="node1" class="node">
<title>Node1</title>
<polygon fill="#bfbfbf" stroke="#000000" points="2079.3916,-240.5 2079.3916,-258.5 2132.623,-258.5 2132.623,-240.5 2079.3916,-240.5"/>
<text text-anchor="middle" x="2106.0073" y="-246.5" font-family="Helvetica,sans-Serif" font-size="10.00" fill="#000000">src/util.h</text>
</g>
<!-- Node2 -->
<g id="node2" class="node">
<title>Node2</title>
<g id="a_node2"><a xlink:href="../../de/dd2/async-wrap_8cc.html" target="_top" xlink:title="src/async&#45;wrap.cc">
<polygon fill="#ffffff" stroke="#000000" points="0,-185.5 0,-203.5 96.0146,-203.5 96.0146,-185.5 0,-185.5"/>
<text text-anchor="middle" x="48.0073" y="-191.5" font-family="Helvetica,sans-Serif" font-size="10.00" fill="#000000">src/async&#45;wrap.cc</text>
</a>
</g>
</g>
<!-- Node1&#45;&gt;Node2 -->
<g id="edge1" class="edge">
<title>Node1&#45;&gt;Node2</title>
<path fill="none" stroke="#191970" d="M2068.8415,-249.3786C1829.9123,-248.4895 507.2662,-241.9004 105.0073,-204 102.1108,-203.7271 99.139,-203.3941 96.1463,-203.0181"/>
<polygon fill="#191970" stroke="#191970" points="2069.0702,-252.8794 2079.0828,-249.4157 2069.0956,-245.8794 2069.0702,-252.8794"/>
</g>
<!-- Node3 -->
<g id="node3" class="node">
<title>Node3</title>
<g id="a_node3"><a xlink:href="../../dc/ded/cares__wrap_8cc.html" target="_top" xlink:title="src/cares_wrap.cc">
<polygon fill="#ffffff" stroke="#000000" points="113.7192,-185.5 113.7192,-203.5 210.2954,-203.5 210.2954,-185.5 113.7192,-185.5"/>
<text text-anchor="middle" x="162.0073" y="-191.5" font-family="Helvetica,sans-Serif" font-size="10.00" fill="#000000">src/cares_wrap.cc</text>
</a>
</g>
</g>
<!-- Node1&#45;&gt;Node3 -->
<g id="edge2" class="edge">
<title>Node1&#45;&gt;Node3</title>
<path fill="none" stroke="#191970" d="M2069.1719,-249.3214C1839.129,-248.0992 597.3456,-239.9087 219.0073,-204 216.2108,-203.7346 213.3442,-203.4136 210.4562,-203.0523"/>
<polygon fill="#191970" stroke="#191970" points="2069.336,-252.8222 2079.3541,-249.3744 2069.3725,-245.8223 2069.336,-252.8222"/>
</g>
<!-- Node4 -->
<g id="node4" class="node">
<title>Node4</title>
<g id="a_node4"><a xlink:href="../../d3/d36/connect__wrap_8cc.html" target="_top" xlink:title="src/connect_wrap.cc">
<polygon fill="#ffffff" stroke="#000000" points="228.4336,-185.5 228.4336,-203.5 335.5811,-203.5 335.5811,-185.5 228.4336,-185.5"/>
<text text-anchor="middle" x="282.0073" y="-191.5" font-family="Helvetica,sans-Serif" font-size="10.00" fill="#000000">src/connect_wrap.cc</text>
</a>
</g>
</g>
<!-- Node1&#45;&gt;Node4 -->
<g id="edge3" class="edge">
<title>Node1&#45;&gt;Node4</title>
<path fill="none" stroke="#191970" d="M2069.2316,-249.1711C1848.4827,-247.1028 697.021,-234.9684 345.0073,-204 342.0323,-203.7383 338.984,-203.4261 335.9111,-203.077"/>
<polygon fill="#191970" stroke="#191970" points="2069.2887,-252.6717 2079.3208,-249.2646 2069.3537,-245.672 2069.2887,-252.6717"/>
</g>
<!-- Node5 -->
<g id="node5" class="node">
<title>Node5</title>
<g id="a_node5"><a xlink:href="../../d7/d47/connection__wrap_8cc.html" target="_top" xlink:title="src/connection_wrap.cc">
<polygon fill="#ffffff" stroke="#000000" points="353.7612,-185.5 353.7612,-203.5 474.2534,-203.5 474.2534,-185.5 353.7612,-185.5"/>
<text text-anchor="middle" x="414.0073" y="-191.5" font-family="Helvetica,sans-Serif" font-size="10.00" fill="#000000">src/connection_wrap.cc</text>
</a>
</g>
</g>
<!-- Node1&#45;&gt;Node5 -->
<g id="edge4" class="edge">
<title>Node1&#45;&gt;Node5</title>
<path fill="none" stroke="#191970" d="M2069.1842,-249.0133C1858.7078,-246.1484 806.0719,-230.6888 483.0073,-204 480.2356,-203.771 477.4049,-203.5065 474.5483,-203.2147"/>
<polygon fill="#191970" stroke="#191970" points="2069.3444,-252.5156 2079.3909,-249.1513 2069.4391,-245.5163 2069.3444,-252.5156"/>
</g>
<!-- Node6 -->
<g id="node6" class="node">
<title>Node6</title>
<g id="a_node6"><a xlink:href="../../d6/d2f/fs__event__wrap_8cc.html" target="_top" xlink:title="src/fs_event_wrap.cc">
<polygon fill="#ffffff" stroke="#000000" points="492.0444,-185.5 492.0444,-203.5 601.9702,-203.5 601.9702,-185.5 492.0444,-185.5"/>
<text text-anchor="middle" x="547.0073" y="-191.5" font-family="Helvetica,sans-Serif" font-size="10.00" fill="#000000">src/fs_event_wrap.cc</text>
</a>
</g>
</g>
<!-- Node1&#45;&gt;Node6 -->
<g id="edge5" class="edge">
<title>Node1&#45;&gt;Node6</title>
<path fill="none" stroke="#191970" d="M2069.2574,-248.9655C1868.9496,-245.9632 907.0304,-230.384 611.0073,-204 608.0983,-203.7407 605.12,-203.4361 602.1166,-203.0981"/>
<polygon fill="#191970" stroke="#191970" points="2069.2189,-252.4652 2079.2699,-249.1145 2069.3231,-245.4659 2069.2189,-252.4652"/>
</g>
<!-- Node7 -->
<g id="node7" class="node">
<title>Node7</title>
<g id="a_node7"><a xlink:href="../../df/dcb/handle__wrap_8cc.html" target="_top" xlink:title="src/handle_wrap.cc">
<polygon fill="#ffffff" stroke="#000000" points="619.9312,-185.5 619.9312,-203.5 722.0835,-203.5 722.0835,-185.5 619.9312,-185.5"/>
<text text-anchor="middle" x="671.0073" y="-191.5" font-family="Helvetica,sans-Serif" font-size="10.00" fill="#000000">src/handle_wrap.cc</text>
</a>
</g>
</g>
<!-- Node1&#45;&gt;Node7 -->
<g id="edge6" class="edge">
<title>Node1&#45;&gt;Node7</title>
<path fill="none" stroke="#191970" d="M2069.0566,-248.8334C1878.5388,-245.3111 1005.7185,-228.1122 736.0073,-204 731.5772,-203.6039 726.9883,-203.1081 722.3919,-202.552"/>
<polygon fill="#191970" stroke="#191970" points="2069.0591,-252.334 2079.1218,-249.0185 2069.1879,-245.3351 2069.0591,-252.334"/>
</g>
<!-- Node8 -->
<g id="node8" class="node">
<title>Node8</title>
<g id="a_node8"><a xlink:href="../../d4/dee/inspector__socket_8h.html" target="_top" xlink:title="src/inspector_socket.h">
<polygon fill="#ffffff" stroke="#000000" points="908.2637,-185.5 908.2637,-203.5 1023.751,-203.5 1023.751,-185.5 908.2637,-185.5"/>
<text text-anchor="middle" x="966.0073" y="-191.5" font-family="Helvetica,sans-Serif" font-size="10.00" fill="#000000">src/inspector_socket.h</text>
</a>
</g>
</g>
<!-- Node1&#45;&gt;Node8 -->
<g id="edge7" class="edge">
<title>Node1&#45;&gt;Node8</title>
<path fill="none" stroke="#191970" d="M2068.7569,-249.1071C1931.4578,-247.4054 1440.7796,-239.082 1038.0073,-204 1033.4854,-203.6061 1028.8115,-203.1352 1024.1177,-202.6166"/>
<polygon fill="#191970" stroke="#191970" points="2069.0842,-252.6112 2079.1254,-249.2312 2069.168,-245.6117 2069.0842,-252.6112"/>
</g>
<!-- Node11 -->
<g id="node11" class="node">
<title>Node11</title>
<g id="a_node11"><a xlink:href="../../d5/d2d/inspector__agent_8cc.html" target="_top" xlink:title="src/inspector_agent.cc">
<polygon fill="#ffffff" stroke="#000000" points="777.9829,-.5 777.9829,-18.5 894.0317,-18.5 894.0317,-.5 777.9829,-.5"/>
<text text-anchor="middle" x="836.0073" y="-6.5" font-family="Helvetica,sans-Serif" font-size="10.00" fill="#000000">src/inspector_agent.cc</text>
</a>
</g>
</g>
<!-- Node1&#45;&gt;Node11 -->
<g id="edge25" class="edge">
<title>Node1&#45;&gt;Node11</title>
<path fill="none" stroke="#191970" d="M2069.1738,-248.9329C1856.3532,-245.5732 792.6796,-227.6172 769.0073,-204 714.6479,-149.767 798.8529,-49.4403 827.2192,-18.6955"/>
<polygon fill="#191970" stroke="#191970" points="2069.1619,-252.4331 2079.2157,-249.0906 2069.2719,-245.4339 2069.1619,-252.4331"/>
</g>
<!-- Node12 -->
<g id="node12" class="node">
<title>Node12</title>
<g id="a_node12"><a xlink:href="../../d1/d89/inspector__io_8cc.html" target="_top" xlink:title="src/inspector_io.cc">
<polygon fill="#ffffff" stroke="#000000" points="962.6035,-.5 962.6035,-18.5 1061.4111,-18.5 1061.4111,-.5 962.6035,-.5"/>
<text text-anchor="middle" x="1012.0073" y="-6.5" font-family="Helvetica,sans-Serif" font-size="10.00" fill="#000000">src/inspector_io.cc</text>
</a>
</g>
</g>
<!-- Node1&#45;&gt;Node12 -->
<g id="edge26" class="edge">
<title>Node1&#45;&gt;Node12</title>
<path fill="none" stroke="#191970" d="M2068.9966,-248.6735C1897.3067,-244.7224 1185.0346,-226.9974 1144.0073,-204 1104.8492,-182.0504 1035.5088,-54.1835 1016.7811,-18.655"/>
<polygon fill="#191970" stroke="#191970" points="2068.9813,-252.174 2079.0587,-248.9035 2069.1413,-245.1758 2068.9813,-252.174"/>
</g>
<!-- Node14 -->
<g id="node13" class="node">
<title>Node14</title>
<g id="a_node13"><a xlink:href="../../de/da5/inspector__socket_8cc.html" target="_top" xlink:title="src/inspector_socket.cc">
<polygon fill="#ffffff" stroke="#000000" points="776.0444,-125.5 776.0444,-143.5 895.9702,-143.5 895.9702,-125.5 776.0444,-125.5"/>
<text text-anchor="middle" x="836.0073" y="-131.5" font-family="Helvetica,sans-Serif" font-size="10.00" fill="#000000">src/inspector_socket.cc</text>
</a>
</g>
</g>
<!-- Node1&#45;&gt;Node14 -->
<g id="edge27" class="edge">
<title>Node1&#45;&gt;Node14</title>
<path fill="none" stroke="#191970" d="M2069.2111,-248.9153C1872.6453,-245.6911 953.3084,-229.3022 899.0073,-204 871.2555,-191.0687 850.2878,-159.6485 841.1069,-143.8688"/>
<polygon fill="#191970" stroke="#191970" points="2069.2612,-252.4165 2079.3169,-249.0799 2069.3752,-245.4174 2069.2612,-252.4165"/>
</g>
<!-- Node15 -->
<g id="node14" class="node">
<title>Node15</title>
<g id="a_node14"><a xlink:href="../../d8/dc3/node__mutex_8h.html" target="_top" xlink:title="src/node_mutex.h">
<polygon fill="#ffffff" stroke="#000000" points="1192.2637,-185.5 1192.2637,-203.5 1287.751,-203.5 1287.751,-185.5 1192.2637,-185.5"/>
<text text-anchor="middle" x="1240.0073" y="-191.5" font-family="Helvetica,sans-Serif" font-size="10.00" fill="#000000">src/node_mutex.h</text>
</a>
</g>
</g>
<!-- Node1&#45;&gt;Node15 -->
<g id="edge14" class="edge">
<title>Node1&#45;&gt;Node15</title>
<path fill="none" stroke="#191970" d="M2068.9039,-248.6606C1954.4237,-245.8006 1596.6677,-234.8413 1302.0073,-204 1297.4586,-203.5239 1292.7336,-202.9483 1288.0126,-202.3187"/>
<polygon fill="#191970" stroke="#191970" points="2069.1304,-252.1671 2079.2129,-248.9125 2069.3014,-245.1691 2069.1304,-252.1671"/>
</g>
<!-- Node17 -->
<g id="node16" class="node">
<title>Node17</title>
<g id="a_node16"><a xlink:href="../../dc/dfd/node_8cc.html" target="_top" xlink:title="src/node.cc">
<polygon fill="#ffffff" stroke="#000000" points="1084.4409,-60.5 1084.4409,-78.5 1151.5737,-78.5 1151.5737,-60.5 1084.4409,-60.5"/>
<text text-anchor="middle" x="1118.0073" y="-66.5" font-family="Helvetica,sans-Serif" font-size="10.00" fill="#000000">src/node.cc</text>
</a>
</g>
</g>
<!-- Node1&#45;&gt;Node17 -->
<g id="edge31" class="edge">
<title>Node1&#45;&gt;Node17</title>
<path fill="none" stroke="#191970" d="M2068.8984,-248.8511C1899.0977,-245.7369 1202.8628,-231.3368 1166.0073,-204 1124.5877,-173.2778 1118.7875,-103.6882 1118.0685,-78.6721"/>
<polygon fill="#191970" stroke="#191970" points="2069.0233,-252.3538 2079.0852,-249.0359 2069.1503,-245.355 2069.0233,-252.3538"/>
</g>
<!-- Node20 -->
<g id="node17" class="node">
<title>Node20</title>
<g id="a_node17"><a xlink:href="../../d7/d44/node__platform_8cc.html" target="_top" xlink:title="src/node_platform.cc">
<polygon fill="#ffffff" stroke="#000000" points="1181.5986,-60.5 1181.5986,-78.5 1290.416,-78.5 1290.416,-60.5 1181.5986,-60.5"/>
<text text-anchor="middle" x="1236.0073" y="-66.5" font-family="Helvetica,sans-Serif" font-size="10.00" fill="#000000">src/node_platform.cc</text>
</a>
</g>
</g>
<!-- Node1&#45;&gt;Node20 -->
<g id="edge43" class="edge">
<title>Node1&#45;&gt;Node20</title>
<path fill="none" stroke="#191970" d="M2068.7895,-249.0823C1900.0895,-247.0109 1214.0409,-236.6011 1183.0073,-204 1157.2668,-176.9593 1168.305,-154.3165 1183.0073,-120 1190.7153,-102.009 1208.3291,-87.3886 1221.1415,-78.5941"/>
<polygon fill="#191970" stroke="#191970" points="2068.8767,-252.5835 2078.9181,-249.2042 2068.961,-245.584 2068.8767,-252.5835"/>
</g>
<!-- Node23 -->
<g id="node18" class="node">
<title>Node23</title>
<g id="a_node18"><a xlink:href="../../d5/d61/node__crypto_8cc.html" target="_top" xlink:title="src/node_crypto.cc">
<polygon fill="#ffffff" stroke="#000000" points="1522.0444,-125.5 1522.0444,-143.5 1621.9702,-143.5 1621.9702,-125.5 1522.0444,-125.5"/>
<text text-anchor="middle" x="1572.0073" y="-131.5" font-family="Helvetica,sans-Serif" font-size="10.00" fill="#000000">src/node_crypto.cc</text>
</a>
</g>
</g>
<!-- Node1&#45;&gt;Node23 -->
<g id="edge36" class="edge">
<title>Node1&#45;&gt;Node23</title>
<path fill="none" stroke="#191970" d="M2069.2693,-248.7033C1919.9537,-245.2896 1365.2968,-230.8363 1340.0073,-204 1299.4987,-161.0138 1255.7315,-207.3633 1513.0073,-149 1520.5165,-147.2965 1528.5406,-145.3855 1536.1754,-143.5239"/>
<polygon fill="#191970" stroke="#191970" points="2069.2301,-252.2032 2079.3067,-248.93 2069.3883,-245.205 2069.2301,-252.2032"/>
</g>
<!-- Node27 -->
<g id="node21" class="node">
<title>Node27</title>
<g id="a_node21"><a xlink:href="../../df/def/node__trace__writer_8cc.html" target="_top" xlink:title="src/tracing/node_trace\l_writer.cc">
<polygon fill="#ffffff" stroke="#000000" points="1547.5371,-55.5 1547.5371,-83.5 1662.4775,-83.5 1662.4775,-55.5 1547.5371,-55.5"/>
<text text-anchor="start" x="1555.5371" y="-71.5" font-family="Helvetica,sans-Serif" font-size="10.00" fill="#000000">src/tracing/node_trace</text>
<text text-anchor="middle" x="1605.0073" y="-61.5" font-family="Helvetica,sans-Serif" font-size="10.00" fill="#000000">_writer.cc</text>
</a>
</g>
</g>
<!-- Node1&#45;&gt;Node27 -->
<g id="edge58" class="edge">
<title>Node1&#45;&gt;Node27</title>
<path fill="none" stroke="#191970" d="M2068.9837,-248.5942C1923.4009,-244.8556 1397.073,-229.6058 1373.0073,-204 1367.2241,-197.8467 1367.4641,-191.3704 1373.0073,-185 1449.0073,-97.659 1555.0073,-236.341 1631.0073,-149 1647.3076,-130.2673 1630.231,-101.0888 1617.094,-83.7777"/>
<polygon fill="#191970" stroke="#191970" points="2069.0985,-252.0981 2079.1842,-248.8532 2069.2763,-245.1004 2069.0985,-252.0981"/>
</g>
<!-- Node28 -->
<g id="node22" class="node">
<title>Node28</title>
<g id="a_node22"><a xlink:href="../../d2/d6f/base64_8h.html" target="_top" xlink:title="src/base64.h">
<polygon fill="#ffffff" stroke="#ff0000" points="778.3794,-185.5 778.3794,-203.5 851.6353,-203.5 851.6353,-185.5 778.3794,-185.5"/>
<text text-anchor="middle" x="815.0073" y="-191.5" font-family="Helvetica,sans-Serif" font-size="10.00" fill="#000000">src/base64.h</text>
</a>
</g>
</g>
<!-- Node1&#45;&gt;Node28 -->
<g id="edge28" class="edge">
<title>Node1&#45;&gt;Node28</title>
<path fill="none" stroke="#191970" d="M2068.8989,-248.8774C1889.1723,-245.7489 1107.961,-230.8257 866.0073,-204 861.3525,-203.4839 856.4844,-202.7855 851.6818,-202.0002"/>
<polygon fill="#191970" stroke="#191970" points="2069.0919,-252.3811 2079.1508,-249.0544 2069.2127,-245.3822 2069.0919,-252.3811"/>
</g>
<!-- Node30 -->
<g id="node23" class="node">
<title>Node30</title>
<g id="a_node23"><a xlink:href="../../d3/dbf/module__wrap_8cc.html" target="_top" xlink:title="src/module_wrap.cc">
<polygon fill="#ffffff" stroke="#000000" points="1381.5469,-185.5 1381.5469,-203.5 1486.4678,-203.5 1486.4678,-185.5 1381.5469,-185.5"/>
<text text-anchor="middle" x="1434.0073" y="-191.5" font-family="Helvetica,sans-Serif" font-size="10.00" fill="#000000">src/module_wrap.cc</text>
</a>
</g>
</g>
<!-- Node1&#45;&gt;Node30 -->
<g id="edge30" class="edge">
<title>Node1&#45;&gt;Node30</title>
<path fill="none" stroke="#191970" d="M2069.1379,-247.7868C1973.9011,-243.1379 1711.9613,-228.9314 1495.0073,-204 1492.2389,-203.6819 1489.4036,-203.3304 1486.5435,-202.9555"/>
<polygon fill="#191970" stroke="#191970" points="2068.9773,-251.283 2079.1345,-248.2694 2069.3149,-244.2912 2068.9773,-251.283"/>
</g>
<!-- Node31 -->
<g id="node24" class="node">
<title>Node31</title>
<g id="a_node24"><a xlink:href="../../d8/d91/node__api_8cc.html" target="_top" xlink:title="src/node_api.cc">
<polygon fill="#ffffff" stroke="#000000" points="1503.9878,-185.5 1503.9878,-203.5 1590.0269,-203.5 1590.0269,-185.5 1503.9878,-185.5"/>
<text text-anchor="middle" x="1547.0073" y="-191.5" font-family="Helvetica,sans-Serif" font-size="10.00" fill="#000000">src/node_api.cc</text>
</a>
</g>
</g>
<!-- Node1&#45;&gt;Node31 -->
<g id="edge32" class="edge">
<title>Node1&#45;&gt;Node31</title>
<path fill="none" stroke="#191970" d="M2069.2174,-247.3528C1985.4752,-242.2134 1774.3105,-227.8289 1599.0073,-204 1596.0974,-203.6045 1593.1024,-203.1594 1590.0892,-202.6833"/>
<polygon fill="#191970" stroke="#191970" points="2069.0566,-250.8494 2079.2503,-247.9616 2069.4806,-243.8623 2069.0566,-250.8494"/>
</g>
<!-- Node32 -->
<g id="node25" class="node">
<title>Node32</title>
<g id="a_node25"><a xlink:href="../../d2/deb/node__buffer_8cc.html" target="_top" xlink:title="src/node_buffer.cc">
<polygon fill="#ffffff" stroke="#000000" points="1608.2358,-185.5 1608.2358,-203.5 1705.7788,-203.5 1705.7788,-185.5 1608.2358,-185.5"/>
<text text-anchor="middle" x="1657.0073" y="-191.5" font-family="Helvetica,sans-Serif" font-size="10.00" fill="#000000">src/node_buffer.cc</text>
</a>
</g>
</g>
<!-- Node1&#45;&gt;Node32 -->
<g id="edge33" class="edge">
<title>Node1&#45;&gt;Node32</title>
<path fill="none" stroke="#191970" d="M2069.3277,-245.856C1999.8538,-238.818 1844.3505,-222.4149 1714.0073,-204 1711.3252,-203.6211 1708.5748,-203.2164 1705.8004,-202.7956"/>
<polygon fill="#191970" stroke="#191970" points="2069.0311,-249.3438 2079.3318,-246.8649 2069.7335,-242.3791 2069.0311,-249.3438"/>
</g>
<!-- Node33 -->
<g id="node26" class="node">
<title>Node33</title>
<g id="a_node26"><a xlink:href="../../d1/d72/node__config_8cc.html" target="_top" xlink:title="src/node_config.cc">
<polygon fill="#ffffff" stroke="#000000" points="1723.3179,-185.5 1723.3179,-203.5 1822.6968,-203.5 1822.6968,-185.5 1723.3179,-185.5"/>
<text text-anchor="middle" x="1773.0073" y="-191.5" font-family="Helvetica,sans-Serif" font-size="10.00" fill="#000000">src/node_config.cc</text>
</a>
</g>
</g>
<!-- Node1&#45;&gt;Node33 -->
<g id="edge34" class="edge">
<title>Node1&#45;&gt;Node33</title>
<path fill="none" stroke="#191970" d="M2069.1817,-243.4177C2009.2366,-233.5168 1890.4831,-213.9029 1822.9797,-202.7537"/>
<polygon fill="#191970" stroke="#191970" points="2068.8827,-246.9157 2079.3194,-245.0921 2070.0235,-240.0092 2068.8827,-246.9157"/>
</g>
<!-- Node34 -->
<g id="node27" class="node">
<title>Node34</title>
<g id="a_node27"><a xlink:href="../../d2/d17/node__contextify_8cc.html" target="_top" xlink:title="src/node_contextify.cc">
<polygon fill="#ffffff" stroke="#000000" points="1840.9082,-185.5 1840.9082,-203.5 1955.1064,-203.5 1955.1064,-185.5 1840.9082,-185.5"/>
<text text-anchor="middle" x="1898.0073" y="-191.5" font-family="Helvetica,sans-Serif" font-size="10.00" fill="#000000">src/node_contextify.cc</text>
</a>
</g>
</g>
<!-- Node1&#45;&gt;Node34 -->
<g id="edge35" class="edge">
<title>Node1&#45;&gt;Node34</title>
<path fill="none" stroke="#191970" d="M2069.4177,-239.8248C2030.6997,-229.5869 1970.0799,-213.5577 1932.2687,-203.5595"/>
<polygon fill="#191970" stroke="#191970" points="2068.6783,-243.2496 2079.2408,-242.4223 2070.4678,-236.4822 2068.6783,-243.2496"/>
</g>
<!-- Node35 -->
<g id="node28" class="node">
<title>Node35</title>
<g id="a_node28"><a xlink:href="../../df/dea/node__crypto__bio_8cc.html" target="_top" xlink:title="src/node_crypto_bio.cc">
<polygon fill="#ffffff" stroke="#000000" points="1973.5913,-185.5 1973.5913,-203.5 2092.4233,-203.5 2092.4233,-185.5 1973.5913,-185.5"/>
<text text-anchor="middle" x="2033.0073" y="-191.5" font-family="Helvetica,sans-Serif" font-size="10.00" fill="#000000">src/node_crypto_bio.cc</text>
</a>
</g>
</g>
<!-- Node1&#45;&gt;Node35 -->
<g id="edge37" class="edge">
<title>Node1&#45;&gt;Node35</title>
<path fill="none" stroke="#191970" d="M2085.6337,-234.15C2072.6794,-224.3899 2056.3331,-212.0742 2045.3237,-203.7795"/>
<polygon fill="#191970" stroke="#191970" points="2083.8599,-237.1957 2093.9529,-240.4179 2088.0721,-231.6049 2083.8599,-237.1957"/>
</g>
<!-- Node36 -->
<g id="node29" class="node">
<title>Node36</title>
<g id="a_node29"><a xlink:href="../../d5/d9c/node__debug__options_8cc.html" target="_top" xlink:title="src/node_debug_options.cc">
<polygon fill="#ffffff" stroke="#000000" points="2110.8525,-185.5 2110.8525,-203.5 2249.1621,-203.5 2249.1621,-185.5 2110.8525,-185.5"/>
<text text-anchor="middle" x="2180.0073" y="-191.5" font-family="Helvetica,sans-Serif" font-size="10.00" fill="#000000">src/node_debug_options.cc</text>
</a>
</g>
</g>
<!-- Node1&#45;&gt;Node36 -->
<g id="edge38" class="edge">
<title>Node1&#45;&gt;Node36</title>
<path fill="none" stroke="#191970" d="M2126.3344,-234.392C2139.6138,-224.5222 2156.5162,-211.9596 2167.7696,-203.5956"/>
<polygon fill="#191970" stroke="#191970" points="2124.165,-231.6435 2118.2269,-240.4179 2128.3407,-237.2617 2124.165,-231.6435"/>
</g>
<!-- Node37 -->
<g id="node30" class="node">
<title>Node37</title>
<g id="a_node30"><a xlink:href="../../d6/dad/node__dtrace_8cc.html" target="_top" xlink:title="src/node_dtrace.cc">
<polygon fill="#ffffff" stroke="#000000" points="2266.7637,-185.5 2266.7637,-203.5 2367.251,-203.5 2367.251,-185.5 2266.7637,-185.5"/>
<text text-anchor="middle" x="2317.0073" y="-191.5" font-family="Helvetica,sans-Serif" font-size="10.00" fill="#000000">src/node_dtrace.cc</text>
</a>
</g>
</g>
<!-- Node1&#45;&gt;Node37 -->
<g id="edge39" class="edge">
<title>Node1&#45;&gt;Node37</title>
<path fill="none" stroke="#191970" d="M2142.4482,-240.0012C2181.7633,-229.7532 2243.8998,-213.5565 2282.4621,-203.5047"/>
<polygon fill="#191970" stroke="#191970" points="2141.5244,-236.625 2132.7306,-242.5342 2143.2901,-243.3986 2141.5244,-236.625"/>
</g>
<!-- Node38 -->
<g id="node31" class="node">
<title>Node38</title>
<g id="a_node31"><a xlink:href="../../dd/daa/node__file_8cc.html" target="_top" xlink:title="src/node_file.cc">
<polygon fill="#ffffff" stroke="#000000" points="2385.2686,-185.5 2385.2686,-203.5 2470.7461,-203.5 2470.7461,-185.5 2385.2686,-185.5"/>
<text text-anchor="middle" x="2428.0073" y="-191.5" font-family="Helvetica,sans-Serif" font-size="10.00" fill="#000000">src/node_file.cc</text>
</a>
</g>
</g>
<!-- Node1&#45;&gt;Node38 -->
<g id="edge40" class="edge">
<title>Node1&#45;&gt;Node38</title>
<path fill="none" stroke="#191970" d="M2142.9347,-243.4421C2194.9595,-234.87 2292.7837,-218.6138 2376.0073,-204 2378.9902,-203.4762 2382.0681,-202.9296 2385.167,-202.3748"/>
<polygon fill="#191970" stroke="#191970" points="2142.1529,-240.0237 2132.8541,-245.1014 2143.2898,-246.9307 2142.1529,-240.0237"/>
</g>
<!-- Node39 -->
<g id="node32" class="node">
<title>Node39</title>
<g id="a_node32"><a xlink:href="../../d1/d90/node__http__parser_8cc.html" target="_top" xlink:title="src/node_http_parser.cc">
<polygon fill="#ffffff" stroke="#000000" points="2488.6406,-185.5 2488.6406,-203.5 2611.374,-203.5 2611.374,-185.5 2488.6406,-185.5"/>
<text text-anchor="middle" x="2550.0073" y="-191.5" font-family="Helvetica,sans-Serif" font-size="10.00" fill="#000000">src/node_http_parser.cc</text>
</a>
</g>
</g>
<!-- Node1&#45;&gt;Node39 -->
<g id="edge41" class="edge">
<title>Node1&#45;&gt;Node39</title>
<path fill="none" stroke="#191970" d="M2142.8499,-245.189C2209.9453,-237.3 2356.5394,-219.8878 2480.0073,-204 2482.805,-203.64 2485.665,-203.268 2488.5536,-202.8891"/>
<polygon fill="#191970" stroke="#191970" points="2142.3033,-241.7291 2132.7798,-246.3717 2143.1198,-248.6813 2142.3033,-241.7291"/>
</g>
<!-- Node40 -->
<g id="node33" class="node">
<title>Node40</title>
<g id="a_node33"><a xlink:href="../../dc/de7/node__lttng_8cc.html" target="_top" xlink:title="src/node_lttng.cc">
<polygon fill="#ffffff" stroke="#000000" points="2629.2095,-185.5 2629.2095,-203.5 2720.8052,-203.5 2720.8052,-185.5 2629.2095,-185.5"/>
<text text-anchor="middle" x="2675.0073" y="-191.5" font-family="Helvetica,sans-Serif" font-size="10.00" fill="#000000">src/node_lttng.cc</text>
</a>
</g>
</g>
<!-- Node1&#45;&gt;Node40 -->
<g id="edge42" class="edge">
<title>Node1&#45;&gt;Node40</title>
<path fill="none" stroke="#191970" d="M2142.9852,-247.2807C2227.6431,-241.9696 2441.9613,-227.2167 2620.0073,-204 2622.986,-203.6116 2626.0498,-203.1779 2629.1344,-202.7157"/>
<polygon fill="#191970" stroke="#191970" points="2142.6112,-243.7971 2132.8474,-247.9103 2143.0451,-250.7836 2142.6112,-243.7971"/>
</g>
<!-- Node41 -->
<g id="node34" class="node">
<title>Node41</title>
<g id="a_node34"><a xlink:href="../../dc/de6/node__stat__watcher_8cc.html" target="_top" xlink:title="src/node_stat_watcher.cc">
<polygon fill="#ffffff" stroke="#000000" points="2738.5864,-185.5 2738.5864,-203.5 2867.4282,-203.5 2867.4282,-185.5 2738.5864,-185.5"/>
<text text-anchor="middle" x="2803.0073" y="-191.5" font-family="Helvetica,sans-Serif" font-size="10.00" fill="#000000">src/node_stat_watcher.cc</text>
</a>
</g>
</g>
<!-- Node1&#45;&gt;Node41 -->
<g id="edge44" class="edge">
<title>Node1&#45;&gt;Node41</title>
<path fill="none" stroke="#191970" d="M2142.945,-247.5389C2239.5525,-242.2512 2507.6224,-226.5598 2730.0073,-204 2732.8047,-203.7162 2735.6604,-203.4111 2738.5437,-203.0903"/>
<polygon fill="#191970" stroke="#191970" points="2142.6099,-244.0519 2132.8147,-248.0895 2142.9899,-251.0415 2142.6099,-244.0519"/>
</g>
<!-- Node42 -->
<g id="node35" class="node">
<title>Node42</title>
<g id="a_node35"><a xlink:href="../../df/dcb/node__url_8cc.html" target="_top" xlink:title="src/node_url.cc">
<polygon fill="#ffffff" stroke="#000000" points="2885.1035,-185.5 2885.1035,-203.5 2968.9111,-203.5 2968.9111,-185.5 2885.1035,-185.5"/>
<text text-anchor="middle" x="2927.0073" y="-191.5" font-family="Helvetica,sans-Serif" font-size="10.00" fill="#000000">src/node_url.cc</text>
</a>
</g>
</g>
<!-- Node1&#45;&gt;Node42 -->
<g id="edge45" class="edge">
<title>Node1&#45;&gt;Node42</title>
<path fill="none" stroke="#191970" d="M2142.7246,-248.9588C2253.7083,-246.9742 2595.2863,-238.3029 2876.0073,-204 2878.9575,-203.6395 2881.9946,-203.2141 2885.0471,-202.7465"/>
<polygon fill="#191970" stroke="#191970" points="2142.6523,-245.4594 2132.7138,-249.1306 2142.7725,-252.4584 2142.6523,-245.4594"/>
</g>
<!-- Node43 -->
<g id="node36" class="node">
<title>Node43</title>
<g id="a_node36"><a xlink:href="../../d6/d35/node__v8_8cc.html" target="_top" xlink:title="src/node_v8.cc">
<polygon fill="#ffffff" stroke="#000000" points="2987.3794,-185.5 2987.3794,-203.5 3070.6353,-203.5 3070.6353,-185.5 2987.3794,-185.5"/>
<text text-anchor="middle" x="3029.0073" y="-191.5" font-family="Helvetica,sans-Serif" font-size="10.00" fill="#000000">src/node_v8.cc</text>
</a>
</g>
</g>
<!-- Node1&#45;&gt;Node43 -->
<g id="edge46" class="edge">
<title>Node1&#45;&gt;Node43</title>
<path fill="none" stroke="#191970" d="M2143.0765,-248.2195C2287.4661,-243.1302 2812.4195,-223.6554 2978.0073,-204 2981.0482,-203.639 2984.1809,-203.2064 2987.3275,-202.7275"/>
<polygon fill="#191970" stroke="#191970" points="2142.8341,-244.7257 2132.963,-248.5743 2143.0796,-251.7214 2142.8341,-244.7257"/>
</g>
<!-- Node44 -->
<g id="node37" class="node">
<title>Node44</title>
<g id="a_node37"><a xlink:href="../../df/d31/node__watchdog_8cc.html" target="_top" xlink:title="src/node_watchdog.cc">
<polygon fill="#ffffff" stroke="#000000" points="3088.2563,-185.5 3088.2563,-203.5 3203.7583,-203.5 3203.7583,-185.5 3088.2563,-185.5"/>
<text text-anchor="middle" x="3146.0073" y="-191.5" font-family="Helvetica,sans-Serif" font-size="10.00" fill="#000000">src/node_watchdog.cc</text>
</a>
</g>
</g>
<!-- Node1&#45;&gt;Node44 -->
<g id="edge47" class="edge">
<title>Node1&#45;&gt;Node44</title>
<path fill="none" stroke="#191970" d="M2142.9431,-249.0546C2272.1419,-247.2241 2715.7102,-238.6462 3080.0073,-204 3082.6579,-203.7479 3085.365,-203.4644 3088.097,-203.1573"/>
<polygon fill="#191970" stroke="#191970" points="2142.752,-245.5567 2132.8009,-249.1934 2142.8479,-252.5561 2142.752,-245.5567"/>
</g>
<!-- Node45 -->
<g id="node38" class="node">
<title>Node45</title>
<g id="a_node38"><a xlink:href="../../d9/d0d/node__zlib_8cc.html" target="_top" xlink:title="src/node_zlib.cc">
<polygon fill="#ffffff" stroke="#000000" points="3222.1577,-185.5 3222.1577,-203.5 3309.8569,-203.5 3309.8569,-185.5 3222.1577,-185.5"/>
<text text-anchor="middle" x="3266.0073" y="-191.5" font-family="Helvetica,sans-Serif" font-size="10.00" fill="#000000">src/node_zlib.cc</text>
</a>
</g>
</g>
<!-- Node1&#45;&gt;Node45 -->
<g id="edge48" class="edge">
<title>Node1&#45;&gt;Node45</title>
<path fill="none" stroke="#191970" d="M2143.1039,-248.6558C2310.7461,-244.7361 2998.6758,-227.5029 3213.0073,-204 3215.9809,-203.6739 3219.0392,-203.2809 3222.1145,-202.8429"/>
<polygon fill="#191970" stroke="#191970" points="2142.9616,-245.158 2133.0457,-248.8895 2143.1243,-252.1561 2142.9616,-245.158"/>
</g>
<!-- Node46 -->
<g id="node39" class="node">
<title>Node46</title>
<g id="a_node39"><a xlink:href="../../d7/d2c/pipe__wrap_8cc.html" target="_top" xlink:title="src/pipe_wrap.cc">
<polygon fill="#ffffff" stroke="#000000" points="3327.4927,-185.5 3327.4927,-203.5 3418.522,-203.5 3418.522,-185.5 3327.4927,-185.5"/>
<text text-anchor="middle" x="3373.0073" y="-191.5" font-family="Helvetica,sans-Serif" font-size="10.00" fill="#000000">src/pipe_wrap.cc</text>
</a>
</g>
</g>
<!-- Node1&#45;&gt;Node46 -->
<g id="edge49" class="edge">
<title>Node1&#45;&gt;Node46</title>
<path fill="none" stroke="#191970" d="M2142.8763,-248.7972C2319.7475,-245.3218 3082.4533,-229.1256 3319.0073,-204 3321.7524,-203.7084 3324.5685,-203.361 3327.4043,-202.9741"/>
<polygon fill="#191970" stroke="#191970" points="2142.7093,-245.2997 2132.7796,-248.9943 2142.846,-252.2984 2142.7093,-245.2997"/>
</g>
<!-- Node47 -->
<g id="node40" class="node">
<title>Node47</title>
<g id="a_node40"><a xlink:href="../../d8/d14/process__wrap_8cc.html" target="_top" xlink:title="src/process_wrap.cc">
<polygon fill="#ffffff" stroke="#000000" points="3436.4385,-185.5 3436.4385,-203.5 3543.5762,-203.5 3543.5762,-185.5 3436.4385,-185.5"/>
<text text-anchor="middle" x="3490.0073" y="-191.5" font-family="Helvetica,sans-Serif" font-size="10.00" fill="#000000">src/process_wrap.cc</text>
</a>
</g>
</g>
<!-- Node1&#45;&gt;Node47 -->
<g id="edge50" class="edge">
<title>Node1&#45;&gt;Node47</title>
<path fill="none" stroke="#191970" d="M2142.8414,-248.819C2329.0839,-245.2863 3168.3819,-228.2736 3428.0073,-204 3430.7179,-203.7466 3433.4903,-203.4521 3436.2867,-203.1269"/>
<polygon fill="#191970" stroke="#191970" points="2142.6746,-245.3214 2132.7424,-249.0095 2142.8066,-252.3202 2142.6746,-245.3214"/>
</g>
<!-- Node48 -->
<g id="node41" class="node">
<title>Node48</title>
<g id="a_node41"><a xlink:href="../../d2/d9f/signal__wrap_8cc.html" target="_top" xlink:title="src/signal_wrap.cc">
<polygon fill="#ffffff" stroke="#000000" points="3561.8818,-185.5 3561.8818,-203.5 3660.1328,-203.5 3660.1328,-185.5 3561.8818,-185.5"/>
<text text-anchor="middle" x="3611.0073" y="-191.5" font-family="Helvetica,sans-Serif" font-size="10.00" fill="#000000">src/signal_wrap.cc</text>
</a>
</g>
</g>
<!-- Node1&#45;&gt;Node48 -->
<g id="edge51" class="edge">
<title>Node1&#45;&gt;Node48</title>
<path fill="none" stroke="#191970" d="M2142.8189,-248.9965C2339.4158,-246.2081 3267.2961,-231.7703 3553.0073,-204 3555.8509,-203.7236 3558.7664,-203.394 3561.7039,-203.0262"/>
<polygon fill="#191970" stroke="#191970" points="2142.6684,-245.4982 2132.7186,-249.1386 2142.7669,-252.4975 2142.6684,-245.4982"/>
</g>
<!-- Node49 -->
<g id="node42" class="node">
<title>Node49</title>
<g id="a_node42"><a xlink:href="../../d5/d09/spawn__sync_8cc.html" target="_top" xlink:title="src/spawn_sync.cc">
<polygon fill="#ffffff" stroke="#000000" points="3678.0493,-185.5 3678.0493,-203.5 3777.9653,-203.5 3777.9653,-185.5 3678.0493,-185.5"/>
<text text-anchor="middle" x="3728.0073" y="-191.5" font-family="Helvetica,sans-Serif" font-size="10.00" fill="#000000">src/spawn_sync.cc</text>
</a>
</g>
</g>
<!-- Node1&#45;&gt;Node49 -->
<g id="edge52" class="edge">
<title>Node1&#45;&gt;Node49</title>
<path fill="none" stroke="#191970" d="M2143.097,-249.0786C2349.5632,-246.6329 3359.0239,-233.3417 3669.0073,-204 3671.8994,-203.7262 3674.8646,-203.3987 3677.8524,-203.0325"/>
<polygon fill="#191970" stroke="#191970" points="2142.7524,-245.5823 2132.7942,-249.1995 2142.8346,-252.5818 2142.7524,-245.5823"/>
</g>
<!-- Node50 -->
<g id="node43" class="node">
<title>Node50</title>
<g id="a_node43"><a xlink:href="../../d6/d00/stream__base_8cc.html" target="_top" xlink:title="src/stream_base.cc">
<polygon fill="#ffffff" stroke="#000000" points="3795.6602,-185.5 3795.6602,-203.5 3898.3545,-203.5 3898.3545,-185.5 3795.6602,-185.5"/>
<text text-anchor="middle" x="3847.0073" y="-191.5" font-family="Helvetica,sans-Serif" font-size="10.00" fill="#000000">src/stream_base.cc</text>
</a>
</g>
</g>
<!-- Node1&#45;&gt;Node50 -->
<g id="edge53" class="edge">
<title>Node1&#45;&gt;Node50</title>
<path fill="none" stroke="#191970" d="M2142.7931,-249.1557C2357.6198,-247.0465 3451.9858,-234.9245 3787.0073,-204 3789.7378,-203.748 3792.5325,-203.4491 3795.3503,-203.1156"/>
<polygon fill="#191970" stroke="#191970" points="2142.6385,-245.6569 2132.673,-249.254 2142.7065,-252.6566 2142.6385,-245.6569"/>
</g>
<!-- Node51 -->
<g id="node44" class="node">
<title>Node51</title>
<g id="a_node44"><a xlink:href="../../dc/d29/stream__wrap_8cc.html" target="_top" xlink:title="src/stream_wrap.cc">
<polygon fill="#ffffff" stroke="#000000" points="3916.665,-185.5 3916.665,-203.5 4019.3496,-203.5 4019.3496,-185.5 3916.665,-185.5"/>
<text text-anchor="middle" x="3968.0073" y="-191.5" font-family="Helvetica,sans-Serif" font-size="10.00" fill="#000000">src/stream_wrap.cc</text>
</a>
</g>
</g>
<!-- Node1&#45;&gt;Node51 -->
<g id="edge54" class="edge">
<title>Node1&#45;&gt;Node51</title>
<path fill="none" stroke="#191970" d="M2142.9028,-249.2186C2366.8878,-247.412 3546.6883,-236.4721 3907.0073,-204 3910.103,-203.721 3913.2801,-203.3833 3916.4804,-203.0038"/>
<polygon fill="#191970" stroke="#191970" points="2142.6467,-245.7204 2132.675,-249.3001 2142.7026,-252.7202 2142.6467,-245.7204"/>
</g>
<!-- Node52 -->
<g id="node45" class="node">
<title>Node52</title>
<g id="a_node45"><a xlink:href="../../d3/dfb/tcp__wrap_8cc.html" target="_top" xlink:title="src/tcp_wrap.cc">
<polygon fill="#ffffff" stroke="#000000" points="4037.2759,-185.5 4037.2759,-203.5 4122.7388,-203.5 4122.7388,-185.5 4037.2759,-185.5"/>
<text text-anchor="middle" x="4080.0073" y="-191.5" font-family="Helvetica,sans-Serif" font-size="10.00" fill="#000000">src/tcp_wrap.cc</text>
</a>
</g>
</g>
<!-- Node1&#45;&gt;Node52 -->
<g id="edge55" class="edge">
<title>Node1&#45;&gt;Node52</title>
<path fill="none" stroke="#191970" d="M2143.1616,-249.4172C2376.548,-248.7769 3642.7388,-243.5059 4028.0073,-204 4031.02,-203.6911 4034.12,-203.3039 4037.2349,-202.8639"/>
<polygon fill="#191970" stroke="#191970" points="2142.827,-245.918 2132.8362,-249.4443 2142.8454,-252.9179 2142.827,-245.918"/>
</g>
<!-- Node53 -->
<g id="node46" class="node">
<title>Node53</title>
<g id="a_node46"><a xlink:href="../../d7/dc1/timer__wrap_8cc.html" target="_top" xlink:title="src/timer_wrap.cc">
<polygon fill="#ffffff" stroke="#000000" points="4140.835,-185.5 4140.835,-203.5 4235.1797,-203.5 4235.1797,-185.5 4140.835,-185.5"/>
<text text-anchor="middle" x="4188.0073" y="-191.5" font-family="Helvetica,sans-Serif" font-size="10.00" fill="#000000">src/timer_wrap.cc</text>
</a>
</g>
</g>
<!-- Node1&#45;&gt;Node53 -->
<g id="edge56" class="edge">
<title>Node1&#45;&gt;Node53</title>
<path fill="none" stroke="#191970" d="M2143.2555,-249.4051C2384.1433,-248.6799 3724.5602,-242.9266 4132.0073,-204 4134.8541,-203.728 4137.7745,-203.3958 4140.7154,-203.0204"/>
<polygon fill="#191970" stroke="#191970" points="2142.925,-245.906 2132.9352,-249.4351 2142.9454,-252.9059 2142.925,-245.906"/>
</g>
<!-- Node54 -->
<g id="node47" class="node">
<title>Node54</title>
<g id="a_node47"><a xlink:href="../../da/de5/tls__wrap_8cc.html" target="_top" xlink:title="src/tls_wrap.cc">
<polygon fill="#ffffff" stroke="#000000" points="4252.9458,-185.5 4252.9458,-203.5 4335.0688,-203.5 4335.0688,-185.5 4252.9458,-185.5"/>
<text text-anchor="middle" x="4294.0073" y="-191.5" font-family="Helvetica,sans-Serif" font-size="10.00" fill="#000000">src/tls_wrap.cc</text>
</a>
</g>
</g>
<!-- Node1&#45;&gt;Node54 -->
<g id="edge57" class="edge">
<title>Node1&#45;&gt;Node54</title>
<path fill="none" stroke="#191970" d="M2143.29,-249.0813C2410.296,-246.033 4027.3141,-226.7316 4244.0073,-204 4246.9072,-203.6958 4249.8904,-203.3122 4252.8871,-202.8746"/>
<polygon fill="#191970" stroke="#191970" points="2142.9318,-245.585 2132.9723,-249.1986 2143.0115,-252.5846 2142.9318,-245.585"/>
</g>
<!-- Node55 -->
<g id="node48" class="node">
<title>Node55</title>
<g id="a_node48"><a xlink:href="../../de/d6d/tty__wrap_8cc.html" target="_top" xlink:title="src/tty_wrap.cc">
<polygon fill="#ffffff" stroke="#000000" points="4352.6675,-185.5 4352.6675,-203.5 4435.3472,-203.5 4435.3472,-185.5 4352.6675,-185.5"/>
<text text-anchor="middle" x="4394.0073" y="-191.5" font-family="Helvetica,sans-Serif" font-size="10.00" fill="#000000">src/tty_wrap.cc</text>
</a>
</g>
</g>
<!-- Node1&#45;&gt;Node55 -->
<g id="edge59" class="edge">
<title>Node1&#45;&gt;Node55</title>
<path fill="none" stroke="#191970" d="M2142.8849,-249.1234C2415.7261,-246.2877 4116.5829,-227.7481 4344.0073,-204 4346.8195,-203.7063 4349.7099,-203.3377 4352.615,-202.9173"/>
<polygon fill="#191970" stroke="#191970" points="2142.6844,-245.6251 2132.7212,-249.2286 2142.7569,-252.6248 2142.6844,-245.6251"/>
</g>
<!-- Node56 -->
<g id="node49" class="node">
<title>Node56</title>
<g id="a_node49"><a xlink:href="../../d1/d05/udp__wrap_8cc.html" target="_top" xlink:title="src/udp_wrap.cc">
<polygon fill="#ffffff" stroke="#000000" points="4453.6035,-185.5 4453.6035,-203.5 4542.4111,-203.5 4542.4111,-185.5 4453.6035,-185.5"/>
<text text-anchor="middle" x="4498.0073" y="-191.5" font-family="Helvetica,sans-Serif" font-size="10.00" fill="#000000">src/udp_wrap.cc</text>
</a>
</g>
</g>
<!-- Node1&#45;&gt;Node56 -->
<g id="edge60" class="edge">
<title>Node1&#45;&gt;Node56</title>
<path fill="none" stroke="#191970" d="M2142.7804,-249.1284C2422.1831,-246.26 4205.7599,-227.135 4444.0073,-204 4447.1339,-203.6964 4450.3517,-203.3132 4453.5852,-202.876"/>
<polygon fill="#191970" stroke="#191970" points="2142.7185,-245.6288 2132.7549,-249.231 2142.7902,-252.6284 2142.7185,-245.6288"/>
</g>
<!-- Node57 -->
<g id="node50" class="node">
<title>Node57</title>
<g id="a_node50"><a xlink:href="../../d9/d6f/util_8cc.html" target="_top" xlink:title="src/util.cc">
<polygon fill="#ffffff" stroke="#000000" points="4560.1724,-185.5 4560.1724,-203.5 4617.8423,-203.5 4617.8423,-185.5 4560.1724,-185.5"/>
<text text-anchor="middle" x="4589.0073" y="-191.5" font-family="Helvetica,sans-Serif" font-size="10.00" fill="#000000">src/util.cc</text>
</a>
</g>
</g>
<!-- Node1&#45;&gt;Node57 -->
<g id="edge61" class="edge">
<title>Node1&#45;&gt;Node57</title>
<path fill="none" stroke="#191970" d="M2143.1169,-249.317C2430.9481,-247.8312 4302.4698,-236.9465 4551.0073,-204 4553.9735,-203.6068 4557.0426,-203.0681 4560.0916,-202.4456"/>
<polygon fill="#191970" stroke="#191970" points="2142.788,-245.8186 2132.806,-249.3697 2142.8238,-252.8185 2142.788,-245.8186"/>
</g>
<!-- Node9 -->
<g id="node9" class="node">
<title>Node9</title>
<g id="a_node9"><a xlink:href="../../d7/de7/inspector__socket__server_8h.html" target="_top" xlink:title="src/inspector_socket\l_server.h">
<polygon fill="#ffffff" stroke="#ff0000" points="914.4336,-120.5 914.4336,-148.5 1021.5811,-148.5 1021.5811,-120.5 914.4336,-120.5"/>
<text text-anchor="start" x="922.4336" y="-136.5" font-family="Helvetica,sans-Serif" font-size="10.00" fill="#000000">src/inspector_socket</text>
<text text-anchor="middle" x="968.0073" y="-126.5" font-family="Helvetica,sans-Serif" font-size="10.00" fill="#000000">_server.h</text>
</a>
</g>
</g>
<!-- Node8&#45;&gt;Node9 -->
<g id="edge8" class="edge">
<title>Node8&#45;&gt;Node9</title>
<path fill="none" stroke="#191970" d="M966.6511,-175.1865C966.9364,-166.6283 967.2661,-156.7354 967.5291,-148.8477"/>
<polygon fill="#191970" stroke="#191970" points="963.1463,-175.2762 966.3111,-185.3873 970.1424,-175.5095 963.1463,-175.2762"/>
</g>
<!-- Node8&#45;&gt;Node14 -->
<g id="edge13" class="edge">
<title>Node8&#45;&gt;Node14</title>
<path fill="none" stroke="#191970" d="M936.9724,-181.0993C912.1476,-169.6417 877.1085,-153.4698 855.5114,-143.5019"/>
<polygon fill="#191970" stroke="#191970" points="935.7168,-184.3745 946.2631,-185.3873 938.6502,-178.0188 935.7168,-184.3745"/>
</g>
<!-- Node10 -->
<g id="node10" class="node">
<title>Node10</title>
<g id="a_node10"><a xlink:href="../../d1/dc8/inspector__io_8h.html" target="_top" xlink:title="src/inspector_io.h">
<polygon fill="#ffffff" stroke="#000000" points="927.8228,-60.5 927.8228,-78.5 1022.1919,-78.5 1022.1919,-60.5 927.8228,-60.5"/>
<text text-anchor="middle" x="975.0073" y="-66.5" font-family="Helvetica,sans-Serif" font-size="10.00" fill="#000000">src/inspector_io.h</text>
</a>
</g>
</g>
<!-- Node9&#45;&gt;Node10 -->
<g id="edge9" class="edge">
<title>Node9&#45;&gt;Node10</title>
<path fill="none" stroke="#191970" d="M970.6054,-110.3747C971.7999,-99.2832 973.1448,-86.7952 974.0301,-78.5743"/>
<polygon fill="#191970" stroke="#191970" points="967.1172,-110.0787 969.5262,-120.396 974.0769,-110.8282 967.1172,-110.0787"/>
</g>
<!-- Node9&#45;&gt;Node12 -->
<g id="edge12" class="edge">
<title>Node9&#45;&gt;Node12</title>
<path fill="none" stroke="#191970" d="M940.963,-113.5221C923.6852,-97.4705 906.6515,-74.8004 919.0073,-55 930.6166,-36.396 952.2822,-25.1904 971.7825,-18.5567"/>
<polygon fill="#191970" stroke="#191970" points="938.985,-116.4422 948.8139,-120.3973 943.5967,-111.1761 938.985,-116.4422"/>
</g>
<!-- Node10&#45;&gt;Node11 -->
<g id="edge10" class="edge">
<title>Node10&#45;&gt;Node11</title>
<path fill="none" stroke="#191970" d="M944.6644,-56.4023C918.0831,-44.9284 880.1583,-28.558 856.8617,-18.5019"/>
<polygon fill="#191970" stroke="#191970" points="943.3279,-59.6375 953.8962,-60.3873 946.1021,-53.2107 943.3279,-59.6375"/>
</g>
<!-- Node10&#45;&gt;Node12 -->
<g id="edge11" class="edge">
<title>Node10&#45;&gt;Node12</title>
<path fill="none" stroke="#191970" d="M985.9841,-51.6998C992.6706,-40.8569 1000.9374,-27.4513 1006.3349,-18.6985"/>
<polygon fill="#191970" stroke="#191970" points="982.8967,-50.0384 980.6268,-60.3873 988.8549,-53.7127 982.8967,-50.0384"/>
</g>
<!-- Node15&#45;&gt;Node10 -->
<g id="edge15" class="edge">
<title>Node15&#45;&gt;Node10</title>
<path fill="none" stroke="#191970" d="M1211.439,-181.0244C1157.0986,-155.3921 1040.1722,-100.2382 994.1646,-78.5364"/>
<polygon fill="#191970" stroke="#191970" points="1209.9837,-184.2077 1220.5212,-185.3085 1212.9701,-177.8767 1209.9837,-184.2077"/>
</g>
<!-- Node15&#45;&gt;Node12 -->
<g id="edge16" class="edge">
<title>Node15&#45;&gt;Node12</title>
<path fill="none" stroke="#191970" d="M1271.5825,-180.6254C1284.3942,-173.2256 1297.8409,-162.7642 1305.0073,-149 1314.3207,-131.1121 1310.7863,-67.5729 1299.0073,-55 1283.012,-37.9266 1139.5055,-21.7061 1061.678,-14.067"/>
<polygon fill="#191970" stroke="#191970" points="1269.6493,-177.6893 1262.4647,-185.476 1272.937,-183.8692 1269.6493,-177.6893"/>
</g>
<!-- Node16 -->
<g id="node15" class="node">
<title>Node16</title>
<g id="a_node15"><a xlink:href="../../d4/d4f/node__platform_8h.html" target="_top" xlink:title="src/node_platform.h">
<polygon fill="#ffffff" stroke="#ff0000" points="1191.8179,-125.5 1191.8179,-143.5 1296.1968,-143.5 1296.1968,-125.5 1191.8179,-125.5"/>
<text text-anchor="middle" x="1244.0073" y="-131.5" font-family="Helvetica,sans-Serif" font-size="10.00" fill="#000000">src/node_platform.h</text>
</a>
</g>
</g>
<!-- Node15&#45;&gt;Node16 -->
<g id="edge17" class="edge">
<title>Node15&#45;&gt;Node16</title>
<path fill="none" stroke="#191970" d="M1241.2824,-175.3734C1241.9886,-164.7812 1242.8341,-152.0976 1243.3941,-143.6985"/>
<polygon fill="#191970" stroke="#191970" points="1237.7879,-175.1766 1240.6148,-185.3873 1244.7724,-175.6423 1237.7879,-175.1766"/>
</g>
<!-- Node15&#45;&gt;Node23 -->
<g id="edge20" class="edge">
<title>Node15&#45;&gt;Node23</title>
<path fill="none" stroke="#191970" d="M1297.882,-185.3833C1365.4151,-174.6518 1472.9432,-157.2494 1513.0073,-149 1520.859,-147.3833 1529.2487,-145.4486 1537.1649,-143.5271"/>
<polygon fill="#191970" stroke="#191970" points="1297.1402,-181.9571 1287.8123,-186.9811 1298.2373,-188.8706 1297.1402,-181.9571"/>
</g>
<!-- Node24 -->
<g id="node19" class="node">
<title>Node24</title>
<g id="a_node19"><a xlink:href="../../d7/db0/node__trace__buffer_8h.html" target="_top" xlink:title="src/tracing/node_trace\l_buffer.h">
<polygon fill="#ffffff" stroke="#ff0000" points="1370.5371,-55.5 1370.5371,-83.5 1485.4775,-83.5 1485.4775,-55.5 1370.5371,-55.5"/>
<text text-anchor="start" x="1378.5371" y="-71.5" font-family="Helvetica,sans-Serif" font-size="10.00" fill="#000000">src/tracing/node_trace</text>
<text text-anchor="middle" x="1428.0073" y="-61.5" font-family="Helvetica,sans-Serif" font-size="10.00" fill="#000000">_buffer.h</text>
</a>
</g>
</g>
<!-- Node15&#45;&gt;Node24 -->
<g id="edge21" class="edge">
<title>Node15&#45;&gt;Node24</title>
<path fill="none" stroke="#191970" d="M1273.7894,-181.6659C1293.2889,-173.5722 1317.8613,-162.1732 1338.0073,-149 1367.8448,-129.4898 1397.9777,-100.5725 1414.6984,-83.5205"/>
<polygon fill="#191970" stroke="#191970" points="1272.3388,-178.4772 1264.3863,-185.4777 1274.9687,-184.9644 1272.3388,-178.4772"/>
</g>
<!-- Node26 -->
<g id="node20" class="node">
<title>Node26</title>
<g id="a_node20"><a xlink:href="../../de/da5/node__trace__writer_8h.html" target="_top" xlink:title="src/tracing/node_trace\l_writer.h">
<polygon fill="#ffffff" stroke="#ff0000" points="1389.5371,-120.5 1389.5371,-148.5 1504.4775,-148.5 1504.4775,-120.5 1389.5371,-120.5"/>
<text text-anchor="start" x="1397.5371" y="-136.5" font-family="Helvetica,sans-Serif" font-size="10.00" fill="#000000">src/tracing/node_trace</text>
<text text-anchor="middle" x="1447.0073" y="-126.5" font-family="Helvetica,sans-Serif" font-size="10.00" fill="#000000">_writer.h</text>
</a>
</g>
</g>
<!-- Node15&#45;&gt;Node26 -->
<g id="edge22" class="edge">
<title>Node15&#45;&gt;Node26</title>
<path fill="none" stroke="#191970" d="M1281.4654,-182.4832C1315.293,-172.6781 1363.1346,-158.8109 1398.6934,-148.504"/>
<polygon fill="#191970" stroke="#191970" points="1280.0764,-179.2416 1271.4462,-185.3873 1282.0252,-185.9649 1280.0764,-179.2416"/>
</g>
<!-- Node16&#45;&gt;Node17 -->
<g id="edge18" class="edge">
<title>Node16&#45;&gt;Node17</title>
<path fill="none" stroke="#191970" d="M1217.3594,-120.7531C1192.7993,-108.0832 1157.0347,-89.6332 1135.7845,-78.6708"/>
<polygon fill="#191970" stroke="#191970" points="1215.9958,-123.9878 1226.4876,-125.462 1219.2051,-117.7668 1215.9958,-123.9878"/>
</g>
<!-- Node16&#45;&gt;Node20 -->
<g id="edge19" class="edge">
<title>Node16&#45;&gt;Node20</title>
<path fill="none" stroke="#191970" d="M1241.6684,-115.4959C1240.1868,-103.4586 1238.3357,-88.4178 1237.162,-78.8821"/>
<polygon fill="#191970" stroke="#191970" points="1238.1995,-115.9645 1242.895,-125.462 1245.1471,-115.1093 1238.1995,-115.9645"/>
</g>
<!-- Node26&#45;&gt;Node24 -->
<g id="edge23" class="edge">
<title>Node26&#45;&gt;Node24</title>
<path fill="none" stroke="#191970" d="M1440.0496,-110.6971C1437.3866,-101.5871 1434.436,-91.4929 1432.122,-83.5765"/>
<polygon fill="#191970" stroke="#191970" points="1436.7194,-111.7796 1442.8846,-120.396 1443.4383,-109.8156 1436.7194,-111.7796"/>
</g>
<!-- Node26&#45;&gt;Node27 -->
<g id="edge24" class="edge">
<title>Node26&#45;&gt;Node27</title>
<path fill="none" stroke="#191970" d="M1490.6537,-116.5442C1515.9366,-106.143 1547.3058,-93.238 1570.7906,-83.5765"/>
<polygon fill="#191970" stroke="#191970" points="1489.2074,-113.3546 1481.291,-120.396 1491.8706,-119.8282 1489.2074,-113.3546"/>
</g>
<!-- Node28&#45;&gt;Node14 -->
<g id="edge29" class="edge">
<title>Node28&#45;&gt;Node14</title>
<path fill="none" stroke="#191970" d="M821.5848,-175.7072C825.3153,-165.0487 829.8172,-152.186 832.7879,-143.6985"/>
<polygon fill="#191970" stroke="#191970" points="818.1968,-174.7925 818.1968,-185.3873 824.8038,-177.105 818.1968,-174.7925"/>
</g>
</g>
</svg>
