<?xml version="1.0" encoding="UTF-8" standalone="no"?>
<!DOCTYPE svg PUBLIC "-//W3C//DTD SVG 1.1//EN"
 "http://www.w3.org/Graphics/SVG/1.1/DTD/svg11.dtd">
<!-- Generated by graphviz version 2.40.1 (20161225.0304)
 -->
<!-- Title: src/inspector_io.cc Pages: 1 -->
<svg width="1415pt" height="302pt"
 viewBox="0.00 0.00 1415.01 302.00" xmlns="http://www.w3.org/2000/svg" xmlns:xlink="http://www.w3.org/1999/xlink">
<g id="graph0" class="graph" transform="scale(1 1) rotate(0) translate(4 298)">
<title>src/inspector_io.cc</title>
<polygon fill="#ffffff" stroke="transparent" points="-4,4 -4,-298 1411.0122,-298 1411.0122,4 -4,4"/>
<!-- Node0 -->
<g id="node1" class="node">
<title>Node0</title>
<polygon fill="#bfbfbf" stroke="#000000" points="809.2119,-275.5 809.2119,-293.5 908.0195,-293.5 908.0195,-275.5 809.2119,-275.5"/>
<text text-anchor="middle" x="858.6157" y="-281.5" font-family="Helvetica,sans-Serif" font-size="10.00" fill="#000000">src/inspector_io.cc</text>
</g>
<!-- Node1 -->
<g id="node2" class="node">
<title>Node1</title>
<g id="a_node2"><a xlink:href="../../d1/dc8/inspector__io_8h.html" target="_top" xlink:title="inspector_io.h">
<polygon fill="#ffffff" stroke="#000000" points="365.4854,-220.5 365.4854,-238.5 443.7461,-238.5 443.7461,-220.5 365.4854,-220.5"/>
<text text-anchor="middle" x="404.6157" y="-226.5" font-family="Helvetica,sans-Serif" font-size="10.00" fill="#000000">inspector_io.h</text>
</a>
</g>
</g>
<!-- Node0&#45;&gt;Node1 -->
<g id="edge1" class="edge">
<title>Node0&#45;&gt;Node1</title>
<path fill="none" stroke="#191970" d="M809.1655,-278.5093C721.823,-267.9282 541.2442,-246.0519 453.97,-235.479"/>
<polygon fill="#191970" stroke="#191970" points="454.1502,-231.9754 443.8019,-234.2472 453.3083,-238.9246 454.1502,-231.9754"/>
</g>
<!-- Node2 -->
<g id="node3" class="node">
<title>Node2</title>
<g id="a_node3"><a xlink:href="../../d7/de7/inspector__socket__server_8h.html" target="_top" xlink:title="inspector_socket_server.h">
<polygon fill="#ffffff" stroke="#000000" points="125.5273,-165.5 125.5273,-183.5 257.7041,-183.5 257.7041,-165.5 125.5273,-165.5"/>
<text text-anchor="middle" x="191.6157" y="-171.5" font-family="Helvetica,sans-Serif" font-size="10.00" fill="#000000">inspector_socket_server.h</text>
</a>
</g>
</g>
<!-- Node0&#45;&gt;Node2 -->
<g id="edge28" class="edge">
<title>Node0&#45;&gt;Node2</title>
<path fill="none" stroke="#191970" d="M808.8785,-281.7799C699.6304,-275.5146 441.6845,-259.0545 356.6157,-239 306.4259,-227.168 251.2064,-203.1695 219.0717,-188.0151"/>
<polygon fill="#191970" stroke="#191970" points="220.403,-184.7722 209.8711,-183.6192 217.3853,-191.0883 220.403,-184.7722"/>
</g>
<!-- Node11 -->
<g id="node12" class="node">
<title>Node11</title>
<g id="a_node12"><a xlink:href="../../d8/d3c/util_8h.html" target="_top" xlink:title="util.h">
<polygon fill="#ffffff" stroke="#000000" points="625.0542,-55.5 625.0542,-73.5 662.1772,-73.5 662.1772,-55.5 625.0542,-55.5"/>
<text text-anchor="middle" x="643.6157" y="-61.5" font-family="Helvetica,sans-Serif" font-size="10.00" fill="#000000">util.h</text>
</a>
</g>
</g>
<!-- Node0&#45;&gt;Node11 -->
<g id="edge40" class="edge">
<title>Node0&#45;&gt;Node11</title>
<path fill="none" stroke="#191970" d="M808.918,-277.914C782.3689,-271.9427 751.0419,-260.5832 730.6157,-239 689.5321,-195.5894 724.0824,-160.8153 692.6157,-110 685.5251,-98.5495 674.7977,-88.1327 665.1861,-80.1644"/>
<polygon fill="#191970" stroke="#191970" points="667.1666,-77.269 657.1462,-73.8278 662.8336,-82.7667 667.1666,-77.269"/>
</g>
<!-- Node14 -->
<g id="node15" class="node">
<title>Node14</title>
<polygon fill="#ffffff" stroke="#bfbfbf" points="0,-55.5 0,-73.5 43.2314,-73.5 43.2314,-55.5 0,-55.5"/>
<text text-anchor="middle" x="21.6157" y="-61.5" font-family="Helvetica,sans-Serif" font-size="10.00" fill="#000000">vector</text>
</g>
<!-- Node0&#45;&gt;Node14 -->
<g id="edge45" class="edge">
<title>Node0&#45;&gt;Node14</title>
<path fill="none" stroke="#191970" d="M808.9522,-281.93C689.9245,-275.541 390.9662,-258.0729 292.6157,-239 212.1619,-223.3977 189.8791,-220.7249 116.6157,-184 79.3416,-165.3155 64.686,-163.0454 40.6157,-129 31.1388,-115.5957 26.3403,-97.455 23.94,-83.8262"/>
<polygon fill="#191970" stroke="#191970" points="27.3597,-83.0244 22.4378,-73.6423 20.4347,-84.046 27.3597,-83.0244"/>
</g>
<!-- Node16 -->
<g id="node17" class="node">
<title>Node16</title>
<g id="a_node17"><a xlink:href="../../d8/dc3/node__mutex_8h.html" target="_top" xlink:title="node_mutex.h">
<polygon fill="#ffffff" stroke="#000000" points="603.9263,-110.5 603.9263,-128.5 683.3052,-128.5 683.3052,-110.5 603.9263,-110.5"/>
<text text-anchor="middle" x="643.6157" y="-116.5" font-family="Helvetica,sans-Serif" font-size="10.00" fill="#000000">node_mutex.h</text>
</a>
</g>
</g>
<!-- Node0&#45;&gt;Node16 -->
<g id="edge38" class="edge">
<title>Node0&#45;&gt;Node16</title>
<path fill="none" stroke="#191970" d="M809.9776,-275.4544C769.0279,-267.0073 714.5087,-253.5465 697.6157,-239 666.8213,-212.483 652.717,-164.8463 646.9995,-138.4341"/>
<polygon fill="#191970" stroke="#191970" points="650.4155,-137.6664 645.0384,-128.5374 643.549,-139.0271 650.4155,-137.6664"/>
</g>
<!-- Node18 -->
<g id="node19" class="node">
<title>Node18</title>
<g id="a_node19"><a xlink:href="../../d5/d81/env_8h.html" target="_top" xlink:title="env.h">
<polygon fill="#ffffff" stroke="#000000" points="739.7529,-220.5 739.7529,-238.5 779.4785,-238.5 779.4785,-220.5 739.7529,-220.5"/>
<text text-anchor="middle" x="759.6157" y="-226.5" font-family="Helvetica,sans-Serif" font-size="10.00" fill="#000000">env.h</text>
</a>
</g>
</g>
<!-- Node0&#45;&gt;Node18 -->
<g id="edge29" class="edge">
<title>Node0&#45;&gt;Node18</title>
<path fill="none" stroke="#191970" d="M842.2679,-275.4179C826.6476,-266.7399 802.8759,-253.5334 784.8296,-243.5077"/>
<polygon fill="#191970" stroke="#191970" points="786.4292,-240.3925 775.9878,-238.5956 783.0297,-246.5117 786.4292,-240.3925"/>
</g>
<!-- Node19 -->
<g id="node20" class="node">
<title>Node19</title>
<g id="a_node20"><a xlink:href="../../d9/d50/env-inl_8h.html" target="_top" xlink:title="env&#45;inl.h">
<polygon fill="#ffffff" stroke="#000000" points="797.7168,-220.5 797.7168,-238.5 851.5146,-238.5 851.5146,-220.5 797.7168,-220.5"/>
<text text-anchor="middle" x="824.6157" y="-226.5" font-family="Helvetica,sans-Serif" font-size="10.00" fill="#000000">env&#45;inl.h</text>
</a>
</g>
</g>
<!-- Node0&#45;&gt;Node19 -->
<g id="edge30" class="edge">
<title>Node0&#45;&gt;Node19</title>
<path fill="none" stroke="#191970" d="M853.0013,-275.4179C848.3049,-267.8207 841.4628,-256.7527 835.6729,-247.3866"/>
<polygon fill="#191970" stroke="#191970" points="838.5875,-245.445 830.3521,-238.7795 832.6333,-249.1258 838.5875,-245.445"/>
</g>
<!-- Node20 -->
<g id="node21" class="node">
<title>Node20</title>
<g id="a_node21"><a xlink:href="../../d1/d77/node_8h.html" target="_top" xlink:title="node.h">
<polygon fill="#ffffff" stroke="#000000" points="869.3228,-220.5 869.3228,-238.5 915.9087,-238.5 915.9087,-220.5 869.3228,-220.5"/>
<text text-anchor="middle" x="892.6157" y="-226.5" font-family="Helvetica,sans-Serif" font-size="10.00" fill="#000000">node.h</text>
</a>
</g>
</g>
<!-- Node0&#45;&gt;Node20 -->
<g id="edge31" class="edge">
<title>Node0&#45;&gt;Node20</title>
<path fill="none" stroke="#191970" d="M864.2301,-275.4179C868.9266,-267.8207 875.7686,-256.7527 881.5585,-247.3866"/>
<polygon fill="#191970" stroke="#191970" points="884.5981,-249.1258 886.8793,-238.7795 878.644,-245.445 884.5981,-249.1258"/>
</g>
<!-- Node25 -->
<g id="node26" class="node">
<title>Node25</title>
<g id="a_node26"><a xlink:href="../../d0/da7/node__crypto_8h.html" target="_top" xlink:title="node_crypto.h">
<polygon fill="#ffffff" stroke="#000000" points="933.9263,-220.5 933.9263,-238.5 1013.3052,-238.5 1013.3052,-220.5 933.9263,-220.5"/>
<text text-anchor="middle" x="973.6157" y="-226.5" font-family="Helvetica,sans-Serif" font-size="10.00" fill="#000000">node_crypto.h</text>
</a>
</g>
</g>
<!-- Node0&#45;&gt;Node25 -->
<g id="edge37" class="edge">
<title>Node0&#45;&gt;Node25</title>
<path fill="none" stroke="#191970" d="M877.6056,-275.4179C896.0834,-266.5807 924.3805,-253.0473 945.474,-242.9591"/>
<polygon fill="#191970" stroke="#191970" points="947.0864,-246.0677 954.5976,-238.5956 944.0661,-239.7528 947.0864,-246.0677"/>
</g>
<!-- Node26 -->
<g id="node27" class="node">
<title>Node26</title>
<polygon fill="#ffffff" stroke="#bfbfbf" points="1031.4854,-220.5 1031.4854,-238.5 1109.7461,-238.5 1109.7461,-220.5 1031.4854,-220.5"/>
<text text-anchor="middle" x="1070.6157" y="-226.5" font-family="Helvetica,sans-Serif" font-size="10.00" fill="#000000">v8&#45;inspector.h</text>
</g>
<!-- Node0&#45;&gt;Node26 -->
<g id="edge39" class="edge">
<title>Node0&#45;&gt;Node26</title>
<path fill="none" stroke="#191970" d="M893.6232,-275.4179C929.8661,-266.0152 986.6016,-251.2961 1026.0303,-241.067"/>
<polygon fill="#191970" stroke="#191970" points="1027.108,-244.4033 1035.9086,-238.5042 1025.3501,-237.6276 1027.108,-244.4033"/>
</g>
<!-- Node27 -->
<g id="node28" class="node">
<title>Node27</title>
<polygon fill="#ffffff" stroke="#bfbfbf" points="1127.9434,-220.5 1127.9434,-238.5 1167.2881,-238.5 1167.2881,-220.5 1127.9434,-220.5"/>
<text text-anchor="middle" x="1147.6157" y="-226.5" font-family="Helvetica,sans-Serif" font-size="10.00" fill="#000000">zlib.h</text>
</g>
<!-- Node0&#45;&gt;Node27 -->
<g id="edge41" class="edge">
<title>Node0&#45;&gt;Node27</title>
<path fill="none" stroke="#191970" d="M908.4189,-277.9506C958.923,-270.8268 1039.4309,-258.1499 1117.7257,-238.9239"/>
<polygon fill="#191970" stroke="#191970" points="1118.9017,-242.2378 1127.757,-236.4209 1117.2071,-235.446 1118.9017,-242.2378"/>
</g>
<!-- Node28 -->
<g id="node29" class="node">
<title>Node28</title>
<polygon fill="#ffffff" stroke="#bfbfbf" points="1184.835,-220.5 1184.835,-238.5 1236.3965,-238.5 1236.3965,-220.5 1184.835,-220.5"/>
<text text-anchor="middle" x="1210.6157" y="-226.5" font-family="Helvetica,sans-Serif" font-size="10.00" fill="#000000">sstream</text>
</g>
<!-- Node0&#45;&gt;Node28 -->
<g id="edge42" class="edge">
<title>Node0&#45;&gt;Node28</title>
<path fill="none" stroke="#191970" d="M908.2661,-279.4252C969.1123,-272.7573 1075.4734,-259.651 1174.8142,-239.1821"/>
<polygon fill="#191970" stroke="#191970" points="1175.6408,-242.585 1184.713,-237.1127 1174.2084,-235.7331 1175.6408,-242.585"/>
</g>
<!-- Node29 -->
<g id="node30" class="node">
<title>Node29</title>
<polygon fill="#ffffff" stroke="#bfbfbf" points="1254.5889,-220.5 1254.5889,-238.5 1340.6426,-238.5 1340.6426,-220.5 1254.5889,-220.5"/>
<text text-anchor="middle" x="1297.6157" y="-226.5" font-family="Helvetica,sans-Serif" font-size="10.00" fill="#000000">unicode/unistr.h</text>
</g>
<!-- Node0&#45;&gt;Node29 -->
<g id="edge43" class="edge">
<title>Node0&#45;&gt;Node29</title>
<path fill="none" stroke="#191970" d="M908.2334,-279.6875C980.1231,-272.4897 1117.6474,-257.8773 1244.6199,-239.0698"/>
<polygon fill="#191970" stroke="#191970" points="1245.1473,-242.5299 1254.5207,-237.5914 1244.1135,-235.6067 1245.1473,-242.5299"/>
</g>
<!-- Node30 -->
<g id="node31" class="node">
<title>Node30</title>
<polygon fill="#ffffff" stroke="#bfbfbf" points="1358.2192,-220.5 1358.2192,-238.5 1407.0122,-238.5 1407.0122,-220.5 1358.2192,-220.5"/>
<text text-anchor="middle" x="1382.6157" y="-226.5" font-family="Helvetica,sans-Serif" font-size="10.00" fill="#000000">string.h</text>
</g>
<!-- Node0&#45;&gt;Node30 -->
<g id="edge44" class="edge">
<title>Node0&#45;&gt;Node30</title>
<path fill="none" stroke="#191970" d="M908.1736,-282.9824C995.5032,-279.6412 1182.4969,-269.503 1348.0053,-239.0109"/>
<polygon fill="#191970" stroke="#191970" points="1348.6845,-242.4446 1357.8697,-237.1643 1347.3964,-235.5641 1348.6845,-242.4446"/>
</g>
<!-- Node1&#45;&gt;Node2 -->
<g id="edge2" class="edge">
<title>Node1&#45;&gt;Node2</title>
<path fill="none" stroke="#191970" d="M369.4431,-220.4179C333.0293,-211.0152 276.0262,-196.2961 236.4115,-186.067"/>
<polygon fill="#191970" stroke="#191970" points="237.0441,-182.6156 226.4866,-183.5042 235.2939,-189.3933 237.0441,-182.6156"/>
</g>
<!-- Node4 -->
<g id="node5" class="node">
<title>Node4</title>
<polygon fill="#ffffff" stroke="#bfbfbf" points="485.5591,-55.5 485.5591,-73.5 537.6724,-73.5 537.6724,-55.5 485.5591,-55.5"/>
<text text-anchor="middle" x="511.6157" y="-61.5" font-family="Helvetica,sans-Serif" font-size="10.00" fill="#000000">memory</text>
</g>
<!-- Node1&#45;&gt;Node4 -->
<g id="edge26" class="edge">
<title>Node1&#45;&gt;Node4</title>
<path fill="none" stroke="#191970" d="M405.4324,-220.4725C407.7603,-199.1963 416.0774,-145.0655 442.6157,-110 452.7472,-96.6131 468.0304,-85.9588 481.6402,-78.3354"/>
<polygon fill="#191970" stroke="#191970" points="483.5024,-81.3101 490.711,-73.5457 480.2338,-75.1201 483.5024,-81.3101"/>
</g>
<!-- Node5 -->
<g id="node6" class="node">
<title>Node5</title>
<polygon fill="#ffffff" stroke="#bfbfbf" points="555.8252,-55.5 555.8252,-73.5 607.4063,-73.5 607.4063,-55.5 555.8252,-55.5"/>
<text text-anchor="middle" x="581.6157" y="-61.5" font-family="Helvetica,sans-Serif" font-size="10.00" fill="#000000">stddef.h</text>
</g>
<!-- Node1&#45;&gt;Node5 -->
<g id="edge27" class="edge">
<title>Node1&#45;&gt;Node5</title>
<path fill="none" stroke="#191970" d="M426.3203,-220.4013C458.9068,-205.7165 520.4934,-173.8356 556.6157,-129 567.3172,-115.7171 573.8395,-97.3192 577.5258,-83.5706"/>
<polygon fill="#191970" stroke="#191970" points="580.9574,-84.2698 579.8998,-73.7279 574.1526,-82.6284 580.9574,-84.2698"/>
</g>
<!-- Node6 -->
<g id="node7" class="node">
<title>Node6</title>
<g id="a_node7"><a xlink:href="../../dc/d2b/node__debug__options_8h.html" target="_top" xlink:title="node_debug_options.h">
<polygon fill="#ffffff" stroke="#000000" points="349.7344,-55.5 349.7344,-73.5 467.4971,-73.5 467.4971,-55.5 349.7344,-55.5"/>
<text text-anchor="middle" x="408.6157" y="-61.5" font-family="Helvetica,sans-Serif" font-size="10.00" fill="#000000">node_debug_options.h</text>
</a>
</g>
</g>
<!-- Node1&#45;&gt;Node6 -->
<g id="edge20" class="edge">
<title>Node1&#45;&gt;Node6</title>
<path fill="none" stroke="#191970" d="M404.8422,-220.1561C405.4775,-193.9504 407.2859,-119.3557 408.1478,-83.8021"/>
<polygon fill="#191970" stroke="#191970" points="411.6482,-83.8233 408.3917,-73.7414 404.6503,-83.6536 411.6482,-83.8233"/>
</g>
<!-- Node13 -->
<g id="node14" class="node">
<title>Node13</title>
<polygon fill="#ffffff" stroke="#bfbfbf" points="297.5337,-55.5 297.5337,-73.5 331.6978,-73.5 331.6978,-55.5 297.5337,-55.5"/>
<text text-anchor="middle" x="314.6157" y="-61.5" font-family="Helvetica,sans-Serif" font-size="10.00" fill="#000000">uv.h</text>
</g>
<!-- Node1&#45;&gt;Node13 -->
<g id="edge24" class="edge">
<title>Node1&#45;&gt;Node13</title>
<path fill="none" stroke="#191970" d="M399.5191,-220.1561C385.1013,-193.7235 343.8305,-118.0604 324.6453,-82.8875"/>
<polygon fill="#191970" stroke="#191970" points="327.5177,-80.8444 319.6565,-73.7414 321.3724,-84.1964 327.5177,-80.8444"/>
</g>
<!-- Node1&#45;&gt;Node16 -->
<g id="edge21" class="edge">
<title>Node1&#45;&gt;Node16</title>
<path fill="none" stroke="#191970" d="M443.836,-226.9534C483.2874,-222.8383 544.5673,-212.0844 589.6157,-184 608.3216,-172.3383 623.7414,-152.006 633.2474,-137.2815"/>
<polygon fill="#191970" stroke="#191970" points="636.353,-138.9132 638.6153,-128.5627 630.3921,-135.2432 636.353,-138.9132"/>
</g>
<!-- Node17 -->
<g id="node18" class="node">
<title>Node17</title>
<polygon fill="#ffffff" stroke="#bfbfbf" points="275.7119,-165.5 275.7119,-183.5 319.5195,-183.5 319.5195,-165.5 275.7119,-165.5"/>
<text text-anchor="middle" x="297.6157" y="-171.5" font-family="Helvetica,sans-Serif" font-size="10.00" fill="#000000">deque</text>
</g>
<!-- Node1&#45;&gt;Node17 -->
<g id="edge25" class="edge">
<title>Node1&#45;&gt;Node17</title>
<path fill="none" stroke="#191970" d="M386.9468,-220.4179C369.9094,-211.6603 343.8995,-198.2907 324.3318,-188.2326"/>
<polygon fill="#191970" stroke="#191970" points="325.8048,-185.0544 315.3108,-183.5956 322.6046,-191.2801 325.8048,-185.0544"/>
</g>
<!-- Node3 -->
<g id="node4" class="node">
<title>Node3</title>
<g id="a_node4"><a xlink:href="../../db/de0/inspector__agent_8h.html" target="_top" xlink:title="inspector_agent.h">
<polygon fill="#ffffff" stroke="#000000" points="451.8647,-110.5 451.8647,-128.5 547.3667,-128.5 547.3667,-110.5 451.8647,-110.5"/>
<text text-anchor="middle" x="499.6157" y="-116.5" font-family="Helvetica,sans-Serif" font-size="10.00" fill="#000000">inspector_agent.h</text>
</a>
</g>
</g>
<!-- Node2&#45;&gt;Node3 -->
<g id="edge3" class="edge">
<title>Node2&#45;&gt;Node3</title>
<path fill="none" stroke="#191970" d="M242.1308,-165.4795C296.8692,-155.7047 384.073,-140.1326 441.5849,-129.8626"/>
<polygon fill="#191970" stroke="#191970" points="442.3806,-133.276 451.6096,-128.0725 441.1501,-126.385 442.3806,-133.276"/>
</g>
<!-- Node7 -->
<g id="node8" class="node">
<title>Node7</title>
<polygon fill="#ffffff" stroke="#bfbfbf" points="249.3892,-.5 249.3892,-18.5 289.8423,-18.5 289.8423,-.5 249.3892,-.5"/>
<text text-anchor="middle" x="269.6157" y="-6.5" font-family="Helvetica,sans-Serif" font-size="10.00" fill="#000000">string</text>
</g>
<!-- Node2&#45;&gt;Node7 -->
<g id="edge18" class="edge">
<title>Node2&#45;&gt;Node7</title>
<path fill="none" stroke="#191970" d="M209.8729,-165.3518C223.3842,-157.583 241.0406,-145.1278 250.6157,-129 269.2245,-97.6564 271.3359,-53.9013 270.7648,-28.9601"/>
<polygon fill="#191970" stroke="#191970" points="274.2491,-28.4997 270.3465,-18.6499 267.2548,-28.7836 274.2491,-28.4997"/>
</g>
<!-- Node9 -->
<g id="node10" class="node">
<title>Node9</title>
<g id="a_node10"><a xlink:href="../../d4/dee/inspector__socket_8h.html" target="_top" xlink:title="inspector_socket.h">
<polygon fill="#ffffff" stroke="#000000" points="141.9263,-110.5 141.9263,-128.5 241.3052,-128.5 241.3052,-110.5 141.9263,-110.5"/>
<text text-anchor="middle" x="191.6157" y="-116.5" font-family="Helvetica,sans-Serif" font-size="10.00" fill="#000000">inspector_socket.h</text>
</a>
</g>
</g>
<!-- Node2&#45;&gt;Node9 -->
<g id="edge9" class="edge">
<title>Node2&#45;&gt;Node9</title>
<path fill="none" stroke="#191970" d="M191.6157,-165.4179C191.6157,-158.2164 191.6157,-147.8962 191.6157,-138.8632"/>
<polygon fill="#191970" stroke="#191970" points="195.1158,-138.7794 191.6157,-128.7795 188.1158,-138.7795 195.1158,-138.7794"/>
</g>
<!-- Node2&#45;&gt;Node13 -->
<g id="edge16" class="edge">
<title>Node2&#45;&gt;Node13</title>
<path fill="none" stroke="#191970" d="M221.6456,-165.3981C241.3103,-158.169 266.4515,-146.3587 283.6157,-129 296.285,-116.1872 304.5489,-97.1905 309.3326,-83.1289"/>
<polygon fill="#191970" stroke="#191970" points="312.6926,-84.1106 312.3278,-73.522 306.0099,-82.027 312.6926,-84.1106"/>
</g>
<!-- Node2&#45;&gt;Node14 -->
<g id="edge19" class="edge">
<title>Node2&#45;&gt;Node14</title>
<path fill="none" stroke="#191970" d="M178.203,-165.4004C159.5606,-152.7944 124.7116,-129.3793 94.6157,-110 78.239,-99.4547 59.6005,-87.844 45.2559,-78.9908"/>
<polygon fill="#191970" stroke="#191970" points="46.867,-75.8725 36.5165,-73.6101 43.197,-81.8333 46.867,-75.8725"/>
</g>
<!-- Node15 -->
<g id="node16" class="node">
<title>Node15</title>
<polygon fill="#ffffff" stroke="#bfbfbf" points="49.8892,-110.5 49.8892,-128.5 85.3423,-128.5 85.3423,-110.5 49.8892,-110.5"/>
<text text-anchor="middle" x="67.6157" y="-116.5" font-family="Helvetica,sans-Serif" font-size="10.00" fill="#000000">map</text>
</g>
<!-- Node2&#45;&gt;Node15 -->
<g id="edge17" class="edge">
<title>Node2&#45;&gt;Node15</title>
<path fill="none" stroke="#191970" d="M171.1396,-165.4179C150.3141,-156.1807 117.9205,-141.8126 94.921,-131.6112"/>
<polygon fill="#191970" stroke="#191970" points="96.2606,-128.3766 85.7003,-127.5214 93.4223,-134.7754 96.2606,-128.3766"/>
</g>
<!-- Node3&#45;&gt;Node4 -->
<g id="edge4" class="edge">
<title>Node3&#45;&gt;Node4</title>
<path fill="none" stroke="#191970" d="M501.5973,-110.4179C503.1858,-103.1372 505.4698,-92.669 507.4559,-83.5659"/>
<polygon fill="#191970" stroke="#191970" points="510.8789,-84.2957 509.5911,-73.7795 504.0398,-82.8035 510.8789,-84.2957"/>
</g>
<!-- Node3&#45;&gt;Node5 -->
<g id="edge5" class="edge">
<title>Node3&#45;&gt;Node5</title>
<path fill="none" stroke="#191970" d="M513.1564,-110.4179C525.7383,-101.9788 544.7053,-89.257 559.4868,-79.3426"/>
<polygon fill="#191970" stroke="#191970" points="561.6997,-82.0727 568.055,-73.5956 557.8004,-76.2593 561.6997,-82.0727"/>
</g>
<!-- Node3&#45;&gt;Node6 -->
<g id="edge6" class="edge">
<title>Node3&#45;&gt;Node6</title>
<path fill="none" stroke="#191970" d="M484.5889,-110.4179C470.3626,-101.8195 448.7804,-88.7754 432.2499,-78.7844"/>
<polygon fill="#191970" stroke="#191970" points="434.0336,-75.7729 423.6648,-73.5956 430.4127,-81.7637 434.0336,-75.7729"/>
</g>
<!-- Node8 -->
<g id="node9" class="node">
<title>Node8</title>
<polygon fill="#ffffff" stroke="#bfbfbf" points="706.165,-55.5 706.165,-73.5 741.0664,-73.5 741.0664,-55.5 706.165,-55.5"/>
<text text-anchor="middle" x="723.6157" y="-61.5" font-family="Helvetica,sans-Serif" font-size="10.00" fill="#000000">v8.h</text>
</g>
<!-- Node3&#45;&gt;Node8 -->
<g id="edge8" class="edge">
<title>Node3&#45;&gt;Node8</title>
<path fill="none" stroke="#191970" d="M536.6048,-110.4179C581.4338,-99.4107 655.9357,-81.1179 696.038,-71.2713"/>
<polygon fill="#191970" stroke="#191970" points="697.042,-74.6288 705.919,-68.8452 695.3728,-67.8307 697.042,-74.6288"/>
</g>
<!-- Node6&#45;&gt;Node7 -->
<g id="edge7" class="edge">
<title>Node6&#45;&gt;Node7</title>
<path fill="none" stroke="#191970" d="M385.6627,-55.4179C362.0052,-46.057 325.0307,-31.4268 299.1939,-21.2036"/>
<polygon fill="#191970" stroke="#191970" points="300.4743,-17.9462 289.8879,-17.5214 297.8987,-24.4552 300.4743,-17.9462"/>
</g>
<!-- Node9&#45;&gt;Node7 -->
<g id="edge14" class="edge">
<title>Node9&#45;&gt;Node7</title>
<path fill="none" stroke="#191970" d="M197.9988,-110.4982C210.9112,-92.2885 240.3317,-50.798 257.1714,-27.0496"/>
<polygon fill="#191970" stroke="#191970" points="260.2152,-28.808 263.1445,-18.6261 254.5051,-24.759 260.2152,-28.808"/>
</g>
<!-- Node10 -->
<g id="node11" class="node">
<title>Node10</title>
<polygon fill="#ffffff" stroke="#bfbfbf" points="61.4263,-55.5 61.4263,-73.5 135.8052,-73.5 135.8052,-55.5 61.4263,-55.5"/>
<text text-anchor="middle" x="98.6157" y="-61.5" font-family="Helvetica,sans-Serif" font-size="10.00" fill="#000000">http_parser.h</text>
</g>
<!-- Node9&#45;&gt;Node10 -->
<g id="edge10" class="edge">
<title>Node9&#45;&gt;Node10</title>
<path fill="none" stroke="#191970" d="M176.2587,-110.4179C161.7197,-101.8195 139.6632,-88.7754 122.7694,-78.7844"/>
<polygon fill="#191970" stroke="#191970" points="124.3847,-75.6735 113.9956,-73.5956 120.8214,-81.6987 124.3847,-75.6735"/>
</g>
<!-- Node9&#45;&gt;Node11 -->
<g id="edge11" class="edge">
<title>Node9&#45;&gt;Node11</title>
<path fill="none" stroke="#191970" d="M241.3052,-117.9045C319.3985,-114.5882 475.5399,-104.6893 614.8931,-73.9595"/>
<polygon fill="#191970" stroke="#191970" points="615.9074,-77.3189 624.8962,-71.7108 614.372,-70.4894 615.9074,-77.3189"/>
</g>
<!-- Node12 -->
<g id="node13" class="node">
<title>Node12</title>
<g id="a_node13"><a xlink:href="../../d5/d8c/util-inl_8h.html" target="_top" xlink:title="util&#45;inl.h">
<polygon fill="#ffffff" stroke="#000000" points="153.3867,-55.5 153.3867,-73.5 203.8447,-73.5 203.8447,-55.5 153.3867,-55.5"/>
<text text-anchor="middle" x="178.6157" y="-61.5" font-family="Helvetica,sans-Serif" font-size="10.00" fill="#000000">util&#45;inl.h</text>
</a>
</g>
</g>
<!-- Node9&#45;&gt;Node12 -->
<g id="edge12" class="edge">
<title>Node9&#45;&gt;Node12</title>
<path fill="none" stroke="#191970" d="M189.469,-110.4179C187.7482,-103.1372 185.2738,-92.669 183.1222,-83.5659"/>
<polygon fill="#191970" stroke="#191970" points="186.5155,-82.7062 180.809,-73.7795 179.7032,-84.3164 186.5155,-82.7062"/>
</g>
<!-- Node9&#45;&gt;Node13 -->
<g id="edge13" class="edge">
<title>Node9&#45;&gt;Node13</title>
<path fill="none" stroke="#191970" d="M211.9267,-110.4179C232.8231,-101.0739 265.4611,-86.4797 288.3182,-76.2591"/>
<polygon fill="#191970" stroke="#191970" points="289.7523,-79.4519 297.4524,-72.1746 286.8948,-73.0616 289.7523,-79.4519"/>
</g>
<!-- Node9&#45;&gt;Node14 -->
<g id="edge15" class="edge">
<title>Node9&#45;&gt;Node14</title>
<path fill="none" stroke="#191970" d="M163.5437,-110.4179C133.0791,-100.5617 84.5582,-84.8638 52.8931,-74.6192"/>
<polygon fill="#191970" stroke="#191970" points="53.8406,-71.2472 43.2488,-71.4989 51.6859,-77.9073 53.8406,-71.2472"/>
</g>
<!-- Node16&#45;&gt;Node11 -->
<g id="edge22" class="edge">
<title>Node16&#45;&gt;Node11</title>
<path fill="none" stroke="#191970" d="M643.6157,-110.4179C643.6157,-103.2164 643.6157,-92.8962 643.6157,-83.8632"/>
<polygon fill="#191970" stroke="#191970" points="647.1158,-83.7794 643.6157,-73.7795 640.1158,-83.7795 647.1158,-83.7794"/>
</g>
<!-- Node16&#45;&gt;Node13 -->
<g id="edge23" class="edge">
<title>Node16&#45;&gt;Node13</title>
<path fill="none" stroke="#191970" d="M603.9013,-114.5471C537.2352,-106.0737 404.6753,-88.5041 341.6595,-73.7633"/>
<polygon fill="#191970" stroke="#191970" points="342.3527,-70.3294 331.8052,-71.3298 340.6744,-77.1253 342.3527,-70.3294"/>
</g>
<!-- Node20&#45;&gt;Node8 -->
<g id="edge32" class="edge">
<title>Node20&#45;&gt;Node8</title>
<path fill="none" stroke="#191970" d="M869.1005,-222.044C835.2458,-211.1351 776.0043,-191.3263 768.6157,-184 740.779,-156.3979 729.9276,-109.9104 725.8782,-83.7976"/>
<polygon fill="#191970" stroke="#191970" points="729.3162,-83.1047 724.4944,-73.6707 722.3806,-84.0525 729.3162,-83.1047"/>
</g>
<!-- Node21 -->
<g id="node22" class="node">
<title>Node21</title>
<g id="a_node22"><a xlink:href="../../da/d9c/node__version_8h.html" target="_top" xlink:title="node_version.h">
<polygon fill="#ffffff" stroke="#000000" points="777.4238,-165.5 777.4238,-183.5 861.8076,-183.5 861.8076,-165.5 777.4238,-165.5"/>
<text text-anchor="middle" x="819.6157" y="-171.5" font-family="Helvetica,sans-Serif" font-size="10.00" fill="#000000">node_version.h</text>
</a>
</g>
</g>
<!-- Node20&#45;&gt;Node21 -->
<g id="edge33" class="edge">
<title>Node20&#45;&gt;Node21</title>
<path fill="none" stroke="#191970" d="M880.5613,-220.4179C869.5324,-212.1084 852.9925,-199.6469 839.9251,-189.8015"/>
<polygon fill="#191970" stroke="#191970" points="842.0251,-187.0016 831.9321,-183.7795 837.8128,-192.5924 842.0251,-187.0016"/>
</g>
<!-- Node22 -->
<g id="node23" class="node">
<title>Node22</title>
<polygon fill="#ffffff" stroke="#bfbfbf" points="879.8301,-165.5 879.8301,-183.5 931.4014,-183.5 931.4014,-165.5 879.8301,-165.5"/>
<text text-anchor="middle" x="905.6157" y="-171.5" font-family="Helvetica,sans-Serif" font-size="10.00" fill="#000000">assert.h</text>
</g>
<!-- Node20&#45;&gt;Node22 -->
<g id="edge34" class="edge">
<title>Node20&#45;&gt;Node22</title>
<path fill="none" stroke="#191970" d="M894.7624,-220.4179C896.4833,-213.1372 898.9576,-202.669 901.1092,-193.5659"/>
<polygon fill="#191970" stroke="#191970" points="904.5282,-194.3164 903.4224,-183.7795 897.7159,-192.7062 904.5282,-194.3164"/>
</g>
<!-- Node23 -->
<g id="node24" class="node">
<title>Node23</title>
<polygon fill="#ffffff" stroke="#bfbfbf" points="949.4951,-165.5 949.4951,-183.5 997.7363,-183.5 997.7363,-165.5 949.4951,-165.5"/>
<text text-anchor="middle" x="973.6157" y="-171.5" font-family="Helvetica,sans-Serif" font-size="10.00" fill="#000000">stdint.h</text>
</g>
<!-- Node20&#45;&gt;Node23 -->
<g id="edge35" class="edge">
<title>Node20&#45;&gt;Node23</title>
<path fill="none" stroke="#191970" d="M905.9912,-220.4179C918.4197,-211.9788 937.1555,-199.257 951.7567,-189.3426"/>
<polygon fill="#191970" stroke="#191970" points="953.9134,-192.1088 960.2203,-183.5956 949.9811,-186.3176 953.9134,-192.1088"/>
</g>
<!-- Node24 -->
<g id="node25" class="node">
<title>Node24</title>
<polygon fill="#ffffff" stroke="#bfbfbf" points="1015.606,-165.5 1015.606,-183.5 1081.6255,-183.5 1081.6255,-165.5 1015.606,-165.5"/>
<text text-anchor="middle" x="1048.6157" y="-171.5" font-family="Helvetica,sans-Serif" font-size="10.00" fill="#000000">sys/types.h</text>
</g>
<!-- Node20&#45;&gt;Node24 -->
<g id="edge36" class="edge">
<title>Node20&#45;&gt;Node24</title>
<path fill="none" stroke="#191970" d="M915.9705,-221.2659C941.7819,-212.1658 983.6371,-197.4091 1013.4247,-186.9071"/>
<polygon fill="#191970" stroke="#191970" points="1014.7561,-190.1489 1023.0234,-183.5229 1012.4286,-183.5472 1014.7561,-190.1489"/>
</g>
</g>
</svg>
