<?xml version="1.0" encoding="UTF-8" standalone="no"?>
<!DOCTYPE svg PUBLIC "-//W3C//DTD SVG 1.1//EN"
 "http://www.w3.org/Graphics/SVG/1.1/DTD/svg11.dtd">
<!-- Generated by graphviz version 2.40.1 (20161225.0304)
 -->
<!-- Title: src/node_version.h Pages: 1 -->
<svg width="2654pt" height="202pt"
 viewBox="0.00 0.00 2654.14 202.00" xmlns="http://www.w3.org/2000/svg" xmlns:xlink="http://www.w3.org/1999/xlink">
<g id="graph0" class="graph" transform="scale(1 1) rotate(0) translate(4 198)">
<title>src/node_version.h</title>
<polygon fill="#ffffff" stroke="transparent" points="-4,4 -4,-198 2650.1401,-198 2650.1401,4 -4,4"/>
<!-- Node1 -->
<g id="node1" class="node">
<title>Node1</title>
<polygon fill="#bfbfbf" stroke="#000000" points="553.3203,-175.5 553.3203,-193.5 653.8125,-193.5 653.8125,-175.5 553.3203,-175.5"/>
<text text-anchor="middle" x="603.5664" y="-181.5" font-family="Helvetica,sans-Serif" font-size="10.00" fill="#000000">src/node_version.h</text>
</g>
<!-- Node2 -->
<g id="node2" class="node">
<title>Node2</title>
<g id="a_node2"><a xlink:href="../../d1/d77/node_8h.html" target="_top" xlink:title="src/node.h">
<polygon fill="#ffffff" stroke="#000000" points="1181.2192,-120.5 1181.2192,-138.5 1243.9136,-138.5 1243.9136,-120.5 1181.2192,-120.5"/>
<text text-anchor="middle" x="1212.5664" y="-126.5" font-family="Helvetica,sans-Serif" font-size="10.00" fill="#000000">src/node.h</text>
</a>
</g>
</g>
<!-- Node1&#45;&gt;Node2 -->
<g id="edge1" class="edge">
<title>Node1&#45;&gt;Node2</title>
<path fill="none" stroke="#191970" d="M663.9148,-179.0498C791.4936,-167.5279 1084.7713,-141.0414 1181.2018,-132.3326"/>
<polygon fill="#191970" stroke="#191970" points="663.5662,-175.567 653.9216,-179.9523 664.1959,-182.5386 663.5662,-175.567"/>
</g>
<!-- Node13 -->
<g id="node13" class="node">
<title>Node13</title>
<g id="a_node13"><a xlink:href="../../dc/dfd/node_8cc.html" target="_top" xlink:title="src/node.cc">
<polygon fill="#ffffff" stroke="#000000" points="0,-.5 0,-18.5 67.1328,-18.5 67.1328,-.5 0,-.5"/>
<text text-anchor="middle" x="33.5664" y="-6.5" font-family="Helvetica,sans-Serif" font-size="10.00" fill="#000000">src/node.cc</text>
</a>
</g>
</g>
<!-- Node1&#45;&gt;Node13 -->
<g id="edge51" class="edge">
<title>Node1&#45;&gt;Node13</title>
<path fill="none" stroke="#191970" d="M542.9175,-183.2467C409.5091,-179.0771 97.2911,-161.1116 32.5664,-84 16.9321,-65.3736 24.8,-33.9264 30.0829,-18.5343"/>
<polygon fill="#191970" stroke="#191970" points="542.8731,-186.7469 552.9726,-183.5453 543.081,-179.7499 542.8731,-186.7469"/>
</g>
<!-- Node3 -->
<g id="node3" class="node">
<title>Node3</title>
<g id="a_node3"><a xlink:href="../../dd/dd0/backtrace__posix_8cc.html" target="_top" xlink:title="src/backtrace_posix.cc">
<polygon fill="#ffffff" stroke="#000000" points="2528.9927,-60.5 2528.9927,-78.5 2646.1401,-78.5 2646.1401,-60.5 2528.9927,-60.5"/>
<text text-anchor="middle" x="2587.5664" y="-66.5" font-family="Helvetica,sans-Serif" font-size="10.00" fill="#000000">src/backtrace_posix.cc</text>
</a>
</g>
</g>
<!-- Node2&#45;&gt;Node3 -->
<g id="edge2" class="edge">
<title>Node2&#45;&gt;Node3</title>
<path fill="none" stroke="#191970" d="M1253.9887,-129.0358C1447.7547,-126.7144 2265.9287,-115.2125 2519.5664,-84 2529.8697,-82.7321 2540.9246,-80.6797 2551.0632,-78.5129"/>
<polygon fill="#191970" stroke="#191970" points="1253.8929,-125.5365 1243.935,-129.1546 1253.9757,-132.5361 1253.8929,-125.5365"/>
</g>
<!-- Node4 -->
<g id="node4" class="node">
<title>Node4</title>
<g id="a_node4"><a xlink:href="../../d6/d08/backtrace__win32_8cc.html" target="_top" xlink:title="src/backtrace_win32.cc">
<polygon fill="#ffffff" stroke="#000000" points="61.6011,-60.5 61.6011,-78.5 181.5317,-78.5 181.5317,-60.5 61.6011,-60.5"/>
<text text-anchor="middle" x="121.5664" y="-66.5" font-family="Helvetica,sans-Serif" font-size="10.00" fill="#000000">src/backtrace_win32.cc</text>
</a>
</g>
</g>
<!-- Node2&#45;&gt;Node4 -->
<g id="edge3" class="edge">
<title>Node2&#45;&gt;Node4</title>
<path fill="none" stroke="#191970" d="M1170.6186,-128.5436C1003.5221,-124.5928 384.9665,-108.5876 190.5664,-84 180.244,-82.6944 169.1694,-80.6573 158.9801,-78.5183"/>
<polygon fill="#191970" stroke="#191970" points="1170.8834,-132.0507 1180.9628,-128.7864 1171.0477,-125.0526 1170.8834,-132.0507"/>
</g>
<!-- Node5 -->
<g id="node5" class="node">
<title>Node5</title>
<g id="a_node5"><a xlink:href="../../dc/ded/cares__wrap_8cc.html" target="_top" xlink:title="src/cares_wrap.cc">
<polygon fill="#ffffff" stroke="#000000" points="199.2783,-60.5 199.2783,-78.5 295.8545,-78.5 295.8545,-60.5 199.2783,-60.5"/>
<text text-anchor="middle" x="247.5664" y="-66.5" font-family="Helvetica,sans-Serif" font-size="10.00" fill="#000000">src/cares_wrap.cc</text>
</a>
</g>
</g>
<!-- Node2&#45;&gt;Node5 -->
<g id="edge4" class="edge">
<title>Node2&#45;&gt;Node5</title>
<path fill="none" stroke="#191970" d="M1170.7575,-128.5103C1015.8896,-124.6722 475.0618,-109.6955 304.5664,-84 295.984,-82.7065 286.8169,-80.6735 278.3995,-78.5345"/>
<polygon fill="#191970" stroke="#191970" points="1170.7293,-132.0105 1180.8123,-128.7572 1170.9012,-125.0126 1170.7293,-132.0105"/>
</g>
<!-- Node6 -->
<g id="node6" class="node">
<title>Node6</title>
<g id="a_node6"><a xlink:href="../../d6/d2f/fs__event__wrap_8cc.html" target="_top" xlink:title="src/fs_event_wrap.cc">
<polygon fill="#ffffff" stroke="#000000" points="313.6035,-60.5 313.6035,-78.5 423.5293,-78.5 423.5293,-60.5 313.6035,-60.5"/>
<text text-anchor="middle" x="368.5664" y="-66.5" font-family="Helvetica,sans-Serif" font-size="10.00" fill="#000000">src/fs_event_wrap.cc</text>
</a>
</g>
</g>
<!-- Node2&#45;&gt;Node6 -->
<g id="edge5" class="edge">
<title>Node2&#45;&gt;Node6</title>
<path fill="none" stroke="#191970" d="M1170.8262,-127.973C1030.6126,-122.7012 577.2102,-104.4623 432.5664,-84 423.0909,-82.6595 412.943,-80.6376 403.5843,-78.5257"/>
<polygon fill="#191970" stroke="#191970" points="1171.0123,-131.4823 1181.1361,-128.3584 1171.2739,-124.4872 1171.0123,-131.4823"/>
</g>
<!-- Node7 -->
<g id="node7" class="node">
<title>Node7</title>
<g id="a_node7"><a xlink:href="../../df/dcb/handle__wrap_8cc.html" target="_top" xlink:title="src/handle_wrap.cc">
<polygon fill="#ffffff" stroke="#000000" points="441.4902,-60.5 441.4902,-78.5 543.6426,-78.5 543.6426,-60.5 441.4902,-60.5"/>
<text text-anchor="middle" x="492.5664" y="-66.5" font-family="Helvetica,sans-Serif" font-size="10.00" fill="#000000">src/handle_wrap.cc</text>
</a>
</g>
</g>
<!-- Node2&#45;&gt;Node7 -->
<g id="edge6" class="edge">
<title>Node2&#45;&gt;Node7</title>
<path fill="none" stroke="#191970" d="M1170.9612,-129.0557C1066.3988,-127.4151 784.4027,-119.7445 552.5664,-84 543.7756,-82.6446 534.378,-80.6439 525.6911,-78.5588"/>
<polygon fill="#191970" stroke="#191970" points="1171.047,-132.5573 1181.0972,-129.2043 1171.1496,-125.558 1171.047,-132.5573"/>
</g>
<!-- Node8 -->
<g id="node8" class="node">
<title>Node8</title>
<g id="a_node8"><a xlink:href="../../d5/d2d/inspector__agent_8cc.html" target="_top" xlink:title="src/inspector_agent.cc">
<polygon fill="#ffffff" stroke="#000000" points="561.542,-60.5 561.542,-78.5 677.5908,-78.5 677.5908,-60.5 561.542,-60.5"/>
<text text-anchor="middle" x="619.5664" y="-66.5" font-family="Helvetica,sans-Serif" font-size="10.00" fill="#000000">src/inspector_agent.cc</text>
</a>
</g>
</g>
<!-- Node2&#45;&gt;Node8 -->
<g id="edge7" class="edge">
<title>Node2&#45;&gt;Node8</title>
<path fill="none" stroke="#191970" d="M1170.7231,-127.686C1081.3862,-123.4177 865.5461,-110.9969 686.5664,-84 677.0342,-82.5622 666.8266,-80.5826 657.3252,-78.548"/>
<polygon fill="#191970" stroke="#191970" points="1170.8268,-131.1947 1180.9797,-128.1666 1171.1545,-124.2023 1170.8268,-131.1947"/>
</g>
<!-- Node9 -->
<g id="node9" class="node">
<title>Node9</title>
<g id="a_node9"><a xlink:href="../../d1/d89/inspector__io_8cc.html" target="_top" xlink:title="src/inspector_io.cc">
<polygon fill="#ffffff" stroke="#000000" points="695.1626,-60.5 695.1626,-78.5 793.9702,-78.5 793.9702,-60.5 695.1626,-60.5"/>
<text text-anchor="middle" x="744.5664" y="-66.5" font-family="Helvetica,sans-Serif" font-size="10.00" fill="#000000">src/inspector_io.cc</text>
</a>
</g>
</g>
<!-- Node2&#45;&gt;Node9 -->
<g id="edge8" class="edge">
<title>Node2&#45;&gt;Node9</title>
<path fill="none" stroke="#191970" d="M1170.6228,-126.7162C1096.106,-121.3555 935.9285,-107.9581 802.5664,-84 794.3938,-82.5318 785.665,-80.5652 777.5257,-78.5551"/>
<polygon fill="#191970" stroke="#191970" points="1170.7601,-130.2346 1180.9822,-127.4492 1171.2542,-123.2521 1170.7601,-130.2346"/>
</g>
<!-- Node10 -->
<g id="node10" class="node">
<title>Node10</title>
<g id="a_node10"><a xlink:href="../../da/d74/inspector__socket__server_8cc.html" target="_top" xlink:title="src/inspector_socket\l_server.cc">
<polygon fill="#ffffff" stroke="#000000" points="811.9927,-55.5 811.9927,-83.5 919.1401,-83.5 919.1401,-55.5 811.9927,-55.5"/>
<text text-anchor="start" x="819.9927" y="-71.5" font-family="Helvetica,sans-Serif" font-size="10.00" fill="#000000">src/inspector_socket</text>
<text text-anchor="middle" x="865.5664" y="-61.5" font-family="Helvetica,sans-Serif" font-size="10.00" fill="#000000">_server.cc</text>
</a>
</g>
</g>
<!-- Node2&#45;&gt;Node10 -->
<g id="edge9" class="edge">
<title>Node2&#45;&gt;Node10</title>
<path fill="none" stroke="#191970" d="M1171.1127,-123.3812C1116.5259,-115.1772 1017.6197,-99.8058 933.5664,-84 928.9398,-83.13 924.1447,-82.1885 919.3398,-81.2176"/>
<polygon fill="#191970" stroke="#191970" points="1170.6908,-126.857 1181.0988,-124.8763 1171.7273,-119.9341 1170.6908,-126.857"/>
</g>
<!-- Node11 -->
<g id="node11" class="node">
<title>Node11</title>
<g id="a_node11"><a xlink:href="../../d8/d1c/node__buffer_8h.html" target="_top" xlink:title="src/node_buffer.h">
<polygon fill="#ffffff" stroke="#000000" points="1166.0142,-60.5 1166.0142,-78.5 1259.1187,-78.5 1259.1187,-60.5 1166.0142,-60.5"/>
<text text-anchor="middle" x="1212.5664" y="-66.5" font-family="Helvetica,sans-Serif" font-size="10.00" fill="#000000">src/node_buffer.h</text>
</a>
</g>
</g>
<!-- Node2&#45;&gt;Node11 -->
<g id="edge10" class="edge">
<title>Node2&#45;&gt;Node11</title>
<path fill="none" stroke="#191970" d="M1212.5664,-110.3734C1212.5664,-99.7812 1212.5664,-87.0976 1212.5664,-78.6985"/>
<polygon fill="#191970" stroke="#191970" points="1209.0665,-110.3873 1212.5664,-120.3873 1216.0665,-110.3873 1209.0665,-110.3873"/>
</g>
<!-- Node2&#45;&gt;Node13 -->
<g id="edge30" class="edge">
<title>Node2&#45;&gt;Node13</title>
<path fill="none" stroke="#191970" d="M1170.8786,-129.2509C968.5577,-127.8676 96.8729,-119.8396 52.5664,-84 32.8485,-68.0502 31.9334,-34.7381 32.7721,-18.6217"/>
<polygon fill="#191970" stroke="#191970" points="1171.0642,-132.7521 1181.0873,-129.3189 1171.1109,-125.7522 1171.0642,-132.7521"/>
</g>
<!-- Node15 -->
<g id="node15" class="node">
<title>Node15</title>
<g id="a_node15"><a xlink:href="../../d2/deb/node__buffer_8cc.html" target="_top" xlink:title="src/node_buffer.cc">
<polygon fill="#ffffff" stroke="#000000" points="305.7949,-.5 305.7949,-18.5 403.3379,-18.5 403.3379,-.5 305.7949,-.5"/>
<text text-anchor="middle" x="354.5664" y="-6.5" font-family="Helvetica,sans-Serif" font-size="10.00" fill="#000000">src/node_buffer.cc</text>
</a>
</g>
</g>
<!-- Node2&#45;&gt;Node15 -->
<g id="edge31" class="edge">
<title>Node2&#45;&gt;Node15</title>
<path fill="none" stroke="#191970" d="M1170.841,-124.6845C1109.3743,-117.1298 997.8471,-101.5322 961.5664,-84 943.9862,-75.5046 946.5858,-62.5191 928.5664,-55 822.486,-10.7349 526.7393,-32.3041 412.5664,-19 409.6272,-18.6575 406.6097,-18.2707 403.5692,-17.854"/>
<polygon fill="#191970" stroke="#191970" points="1170.6334,-128.1849 1180.9819,-125.9137 1171.4757,-121.2357 1170.6334,-128.1849"/>
</g>
<!-- Node16 -->
<g id="node16" class="node">
<title>Node16</title>
<g id="a_node16"><a xlink:href="../../d5/d61/node__crypto_8cc.html" target="_top" xlink:title="src/node_crypto.cc">
<polygon fill="#ffffff" stroke="#000000" points="421.6035,-.5 421.6035,-18.5 521.5293,-18.5 521.5293,-.5 421.6035,-.5"/>
<text text-anchor="middle" x="471.5664" y="-6.5" font-family="Helvetica,sans-Serif" font-size="10.00" fill="#000000">src/node_crypto.cc</text>
</a>
</g>
</g>
<!-- Node2&#45;&gt;Node16 -->
<g id="edge34" class="edge">
<title>Node2&#45;&gt;Node16</title>
<path fill="none" stroke="#191970" d="M1170.7781,-126.0415C1126.5484,-121.1531 1055.54,-109.7493 999.5664,-84 980.2655,-75.1211 981.3922,-62.6351 961.5664,-55 782.1858,14.0806 721.3722,-42.2957 530.5664,-19 527.6828,-18.6479 524.7242,-18.2592 521.7415,-17.8461"/>
<polygon fill="#191970" stroke="#191970" points="1170.5684,-129.5385 1180.8777,-127.0955 1171.2951,-122.5763 1170.5684,-129.5385"/>
</g>
<!-- Node17 -->
<g id="node17" class="node">
<title>Node17</title>
<g id="a_node17"><a xlink:href="../../dd/daa/node__file_8cc.html" target="_top" xlink:title="src/node_file.cc">
<polygon fill="#ffffff" stroke="#000000" points="539.8276,-.5 539.8276,-18.5 625.3052,-18.5 625.3052,-.5 539.8276,-.5"/>
<text text-anchor="middle" x="582.5664" y="-6.5" font-family="Helvetica,sans-Serif" font-size="10.00" fill="#000000">src/node_file.cc</text>
</a>
</g>
</g>
<!-- Node2&#45;&gt;Node17 -->
<g id="edge35" class="edge">
<title>Node2&#45;&gt;Node17</title>
<path fill="none" stroke="#191970" d="M1170.6255,-123.4153C1134.1148,-117.012 1080.466,-104.8881 1037.5664,-84 1018.4651,-74.6995 1019.3345,-62.7833 999.5664,-55 847.8904,4.7196 795.9921,-41.6671 634.5664,-19 631.5674,-18.5789 628.4774,-18.1085 625.3699,-17.6085"/>
<polygon fill="#191970" stroke="#191970" points="1170.4674,-126.9379 1180.9098,-125.1473 1171.63,-120.0351 1170.4674,-126.9379"/>
</g>
<!-- Node18 -->
<g id="node18" class="node">
<title>Node18</title>
<g id="a_node18"><a xlink:href="../../d3/d48/node__http2_8cc.html" target="_top" xlink:title="src/node_http2.cc">
<polygon fill="#ffffff" stroke="#000000" points="643.0986,-.5 643.0986,-18.5 738.0342,-18.5 738.0342,-.5 643.0986,-.5"/>
<text text-anchor="middle" x="690.5664" y="-6.5" font-family="Helvetica,sans-Serif" font-size="10.00" fill="#000000">src/node_http2.cc</text>
</a>
</g>
</g>
<!-- Node2&#45;&gt;Node18 -->
<g id="edge36" class="edge">
<title>Node2&#45;&gt;Node18</title>
<path fill="none" stroke="#191970" d="M1171.324,-119.6467C1143.349,-112.0528 1106.0549,-100.1161 1075.5664,-84 1056.7838,-74.0716 1057.2349,-63.0317 1037.5664,-55 917.327,-5.8997 876.0942,-37.68 747.5664,-19 744.4887,-18.5527 741.3206,-18.0744 738.129,-17.5792"/>
<polygon fill="#191970" stroke="#191970" points="1170.617,-123.0799 1181.1791,-122.2477 1172.4033,-116.3117 1170.617,-123.0799"/>
</g>
<!-- Node19 -->
<g id="node19" class="node">
<title>Node19</title>
<g id="a_node19"><a xlink:href="../../d1/d90/node__http__parser_8cc.html" target="_top" xlink:title="src/node_http_parser.cc">
<polygon fill="#ffffff" stroke="#000000" points="756.1997,-.5 756.1997,-18.5 878.9331,-18.5 878.9331,-.5 756.1997,-.5"/>
<text text-anchor="middle" x="817.5664" y="-6.5" font-family="Helvetica,sans-Serif" font-size="10.00" fill="#000000">src/node_http_parser.cc</text>
</a>
</g>
</g>
<!-- Node2&#45;&gt;Node19 -->
<g id="edge37" class="edge">
<title>Node2&#45;&gt;Node19</title>
<path fill="none" stroke="#191970" d="M1179.5566,-116.4978C1159.8534,-108.2119 1134.6461,-96.6741 1113.5664,-84 1095.3588,-73.0527 1095.0235,-63.5311 1075.5664,-55 1057.7069,-47.1693 947.9872,-29.4104 877.5008,-18.5398"/>
<polygon fill="#191970" stroke="#191970" points="1178.4466,-119.8261 1189.0254,-120.4088 1181.1189,-113.3563 1178.4466,-119.8261"/>
</g>
<!-- Node20 -->
<g id="node20" class="node">
<title>Node20</title>
<g id="a_node20"><a xlink:href="../../dc/d3a/node__serdes_8cc.html" target="_top" xlink:title="src/node_serdes.cc">
<polygon fill="#ffffff" stroke="#000000" points="897.2119,-.5 897.2119,-18.5 999.9209,-18.5 999.9209,-.5 897.2119,-.5"/>
<text text-anchor="middle" x="948.5664" y="-6.5" font-family="Helvetica,sans-Serif" font-size="10.00" fill="#000000">src/node_serdes.cc</text>
</a>
</g>
</g>
<!-- Node2&#45;&gt;Node20 -->
<g id="edge42" class="edge">
<title>Node2&#45;&gt;Node20</title>
<path fill="none" stroke="#191970" d="M1193.6358,-113.8985C1169.9102,-94.5897 1130.3276,-63.2437 1113.5664,-55 1077.5694,-37.2955 1033.6529,-25.6105 1000.1799,-18.5199"/>
<polygon fill="#191970" stroke="#191970" points="1191.6312,-116.7806 1201.5877,-120.4026 1196.0631,-111.3622 1191.6312,-116.7806"/>
</g>
<!-- Node21 -->
<g id="node21" class="node">
<title>Node21</title>
<g id="a_node21"><a xlink:href="../../d9/d0d/node__zlib_8cc.html" target="_top" xlink:title="src/node_zlib.cc">
<polygon fill="#ffffff" stroke="#000000" points="1834.7168,-.5 1834.7168,-18.5 1922.416,-18.5 1922.416,-.5 1834.7168,-.5"/>
<text text-anchor="middle" x="1878.5664" y="-6.5" font-family="Helvetica,sans-Serif" font-size="10.00" fill="#000000">src/node_zlib.cc</text>
</a>
</g>
</g>
<!-- Node2&#45;&gt;Node21 -->
<g id="edge46" class="edge">
<title>Node2&#45;&gt;Node21</title>
<path fill="none" stroke="#191970" d="M1232.0887,-113.8605C1258.2942,-93.0164 1302.605,-58.3477 1311.5664,-55 1418.8282,-14.9298 1711.9385,-33.1214 1825.5664,-19 1828.5349,-18.6311 1831.5895,-18.206 1834.6621,-17.7444"/>
<polygon fill="#191970" stroke="#191970" points="1229.608,-111.3622 1223.973,-120.3342 1233.9731,-116.8345 1229.608,-111.3622"/>
</g>
<!-- Node22 -->
<g id="node22" class="node">
<title>Node22</title>
<g id="a_node22"><a xlink:href="../../d7/d2c/pipe__wrap_8cc.html" target="_top" xlink:title="src/pipe_wrap.cc">
<polygon fill="#ffffff" stroke="#000000" points="1940.0518,-.5 1940.0518,-18.5 2031.0811,-18.5 2031.0811,-.5 1940.0518,-.5"/>
<text text-anchor="middle" x="1985.5664" y="-6.5" font-family="Helvetica,sans-Serif" font-size="10.00" fill="#000000">src/pipe_wrap.cc</text>
</a>
</g>
</g>
<!-- Node2&#45;&gt;Node22 -->
<g id="edge47" class="edge">
<title>Node2&#45;&gt;Node22</title>
<path fill="none" stroke="#191970" d="M1242.0315,-116.2622C1260.5729,-107.6453 1284.8311,-95.8412 1305.5664,-84 1325.9047,-72.3855 1327.3511,-62.4176 1349.5664,-55 1472.4765,-13.9606 1802.8864,-34.25 1931.5664,-19 1934.3077,-18.6751 1937.1209,-18.3019 1939.9545,-17.8956"/>
<polygon fill="#191970" stroke="#191970" points="1240.5271,-113.1016 1232.9056,-120.4611 1243.4531,-119.4608 1240.5271,-113.1016"/>
</g>
<!-- Node23 -->
<g id="node23" class="node">
<title>Node23</title>
<g id="a_node23"><a xlink:href="../../d6/d00/stream__base_8cc.html" target="_top" xlink:title="src/stream_base.cc">
<polygon fill="#ffffff" stroke="#000000" points="2049.2192,-.5 2049.2192,-18.5 2151.9136,-18.5 2151.9136,-.5 2049.2192,-.5"/>
<text text-anchor="middle" x="2100.5664" y="-6.5" font-family="Helvetica,sans-Serif" font-size="10.00" fill="#000000">src/stream_base.cc</text>
</a>
</g>
</g>
<!-- Node2&#45;&gt;Node23 -->
<g id="edge48" class="edge">
<title>Node2&#45;&gt;Node23</title>
<path fill="none" stroke="#191970" d="M1253.9373,-117.5065C1279.7215,-109.4023 1313.2603,-97.7011 1341.5664,-84 1363.3202,-73.4704 1364.5413,-62.3448 1387.5664,-55 1526.0242,-10.8334 1896.0515,-34.3838 2040.5664,-19 2043.2931,-18.7097 2046.0848,-18.3805 2048.9002,-18.023"/>
<polygon fill="#191970" stroke="#191970" points="1252.6325,-114.2463 1244.1096,-120.54 1254.697,-120.9349 1252.6325,-114.2463"/>
</g>
<!-- Node25 -->
<g id="node25" class="node">
<title>Node25</title>
<g id="a_node25"><a xlink:href="../../df/db9/string__bytes_8cc.html" target="_top" xlink:title="src/string_bytes.cc">
<polygon fill="#ffffff" stroke="#000000" points="2170.165,-.5 2170.165,-18.5 2268.9678,-18.5 2268.9678,-.5 2170.165,-.5"/>
<text text-anchor="middle" x="2219.5664" y="-6.5" font-family="Helvetica,sans-Serif" font-size="10.00" fill="#000000">src/string_bytes.cc</text>
</a>
</g>
</g>
<!-- Node2&#45;&gt;Node25 -->
<g id="edge49" class="edge">
<title>Node2&#45;&gt;Node25</title>
<path fill="none" stroke="#191970" d="M1254.1168,-122.1625C1288.5409,-115.1423 1338.1842,-102.81 1378.5664,-84 1399.1292,-74.4219 1399.0804,-62.2746 1420.5664,-55 1576.5098,-2.2019 1996.8192,-36.1126 2160.5664,-19 2163.662,-18.6765 2166.8424,-18.2983 2170.0451,-17.8828"/>
<polygon fill="#191970" stroke="#191970" points="1253.0808,-118.7995 1243.9492,-124.1719 1254.438,-125.6666 1253.0808,-118.7995"/>
</g>
<!-- Node31 -->
<g id="node31" class="node">
<title>Node31</title>
<g id="a_node31"><a xlink:href="../../d1/d72/node__config_8cc.html" target="_top" xlink:title="src/node_config.cc">
<polygon fill="#ffffff" stroke="#000000" points="1429.877,-60.5 1429.877,-78.5 1529.2559,-78.5 1529.2559,-60.5 1429.877,-60.5"/>
<text text-anchor="middle" x="1479.5664" y="-66.5" font-family="Helvetica,sans-Serif" font-size="10.00" fill="#000000">src/node_config.cc</text>
</a>
</g>
</g>
<!-- Node2&#45;&gt;Node31 -->
<g id="edge32" class="edge">
<title>Node2&#45;&gt;Node31</title>
<path fill="none" stroke="#191970" d="M1254.1242,-120.2147C1295.1597,-111.0392 1359.6986,-96.5898 1415.5664,-84 1423.3462,-82.2468 1431.6566,-80.3683 1439.6257,-78.564"/>
<polygon fill="#191970" stroke="#191970" points="1253.2129,-116.832 1244.2174,-122.4295 1254.7402,-123.6634 1253.2129,-116.832"/>
</g>
<!-- Node32 -->
<g id="node32" class="node">
<title>Node32</title>
<g id="a_node32"><a xlink:href="../../d2/d17/node__contextify_8cc.html" target="_top" xlink:title="src/node_contextify.cc">
<polygon fill="#ffffff" stroke="#000000" points="1547.4673,-60.5 1547.4673,-78.5 1661.6655,-78.5 1661.6655,-60.5 1547.4673,-60.5"/>
<text text-anchor="middle" x="1604.5664" y="-66.5" font-family="Helvetica,sans-Serif" font-size="10.00" fill="#000000">src/node_contextify.cc</text>
</a>
</g>
</g>
<!-- Node2&#45;&gt;Node32 -->
<g id="edge33" class="edge">
<title>Node2&#45;&gt;Node32</title>
<path fill="none" stroke="#191970" d="M1254.3577,-124.7199C1316.5416,-117.3696 1437.0075,-102.2151 1538.5664,-84 1547.4579,-82.4053 1556.9715,-80.4581 1565.9287,-78.5147"/>
<polygon fill="#191970" stroke="#191970" points="1253.6894,-121.2743 1244.1656,-125.9163 1254.5055,-128.2265 1253.6894,-121.2743"/>
</g>
<!-- Node33 -->
<g id="node33" class="node">
<title>Node33</title>
<g id="a_node33"><a xlink:href="../../d2/d68/node__main_8cc.html" target="_top" xlink:title="src/node_main.cc">
<polygon fill="#ffffff" stroke="#000000" points="1679.3818,-60.5 1679.3818,-78.5 1773.751,-78.5 1773.751,-60.5 1679.3818,-60.5"/>
<text text-anchor="middle" x="1726.5664" y="-66.5" font-family="Helvetica,sans-Serif" font-size="10.00" fill="#000000">src/node_main.cc</text>
</a>
</g>
</g>
<!-- Node2&#45;&gt;Node33 -->
<g id="edge38" class="edge">
<title>Node2&#45;&gt;Node33</title>
<path fill="none" stroke="#191970" d="M1254.4394,-127.5062C1335.3683,-123.1758 1518.673,-111.0429 1670.5664,-84 1678.5752,-82.5741 1687.1222,-80.5989 1695.0651,-78.5648"/>
<polygon fill="#191970" stroke="#191970" points="1253.9736,-124.0257 1244.17,-128.043 1254.3391,-131.0162 1253.9736,-124.0257"/>
</g>
<!-- Node34 -->
<g id="node34" class="node">
<title>Node34</title>
<g id="a_node34"><a xlink:href="../../d2/da2/node__os_8cc.html" target="_top" xlink:title="src/node_os.cc">
<polygon fill="#ffffff" stroke="#000000" points="1791.9385,-60.5 1791.9385,-78.5 1875.1943,-78.5 1875.1943,-60.5 1791.9385,-60.5"/>
<text text-anchor="middle" x="1833.5664" y="-66.5" font-family="Helvetica,sans-Serif" font-size="10.00" fill="#000000">src/node_os.cc</text>
</a>
</g>
</g>
<!-- Node2&#45;&gt;Node34 -->
<g id="edge39" class="edge">
<title>Node2&#45;&gt;Node34</title>
<path fill="none" stroke="#191970" d="M1254.064,-128.9832C1348.6002,-127.1988 1586.9311,-119.2622 1782.5664,-84 1790.0855,-82.6447 1798.0899,-80.6441 1805.4746,-78.559"/>
<polygon fill="#191970" stroke="#191970" points="1253.9853,-125.484 1244.0483,-129.1591 1254.1082,-132.4829 1253.9853,-125.484"/>
</g>
<!-- Node35 -->
<g id="node35" class="node">
<title>Node35</title>
<g id="a_node35"><a xlink:href="../../da/d00/node__perf_8cc.html" target="_top" xlink:title="src/node_perf.cc">
<polygon fill="#ffffff" stroke="#000000" points="1893.6035,-60.5 1893.6035,-78.5 1983.5293,-78.5 1983.5293,-60.5 1893.6035,-60.5"/>
<text text-anchor="middle" x="1938.5664" y="-66.5" font-family="Helvetica,sans-Serif" font-size="10.00" fill="#000000">src/node_perf.cc</text>
</a>
</g>
</g>
<!-- Node2&#45;&gt;Node35 -->
<g id="edge40" class="edge">
<title>Node2&#45;&gt;Node35</title>
<path fill="none" stroke="#191970" d="M1254.3911,-127.7367C1381.5453,-122.2071 1762.2769,-104.3589 1884.5664,-84 1892.6097,-82.661 1901.1885,-80.6395 1909.0855,-78.5276"/>
<polygon fill="#191970" stroke="#191970" points="1254.1194,-124.2451 1244.2799,-128.1736 1254.4217,-131.2385 1254.1194,-124.2451"/>
</g>
<!-- Node36 -->
<g id="node36" class="node">
<title>Node36</title>
<g id="a_node36"><a xlink:href="../../d1/d21/node__perf__common_8h.html" target="_top" xlink:title="src/node_perf_common.h">
<polygon fill="#ffffff" stroke="#000000" points="2001.8696,-60.5 2001.8696,-78.5 2131.2632,-78.5 2131.2632,-60.5 2001.8696,-60.5"/>
<text text-anchor="middle" x="2066.5664" y="-66.5" font-family="Helvetica,sans-Serif" font-size="10.00" fill="#000000">src/node_perf_common.h</text>
</a>
</g>
</g>
<!-- Node2&#45;&gt;Node36 -->
<g id="edge41" class="edge">
<title>Node2&#45;&gt;Node36</title>
<path fill="none" stroke="#191970" d="M1254.197,-129.0491C1371.0711,-127.3579 1711.9924,-119.5066 1992.5664,-84 2003.3464,-82.6358 2014.915,-80.632 2025.6276,-78.5467"/>
<polygon fill="#191970" stroke="#191970" points="1253.8658,-125.5532 1243.9148,-129.1901 1253.9619,-132.5526 1253.8658,-125.5532"/>
</g>
<!-- Node37 -->
<g id="node37" class="node">
<title>Node37</title>
<g id="a_node37"><a xlink:href="../../df/dcb/node__url_8cc.html" target="_top" xlink:title="src/node_url.cc">
<polygon fill="#ffffff" stroke="#000000" points="2149.6626,-60.5 2149.6626,-78.5 2233.4702,-78.5 2233.4702,-60.5 2149.6626,-60.5"/>
<text text-anchor="middle" x="2191.5664" y="-66.5" font-family="Helvetica,sans-Serif" font-size="10.00" fill="#000000">src/node_url.cc</text>
</a>
</g>
</g>
<!-- Node2&#45;&gt;Node37 -->
<g id="edge43" class="edge">
<title>Node2&#45;&gt;Node37</title>
<path fill="none" stroke="#191970" d="M1254.2636,-128.7182C1411.2096,-125.5798 1966.3039,-112.6586 2140.5664,-84 2148.287,-82.7303 2156.5031,-80.7052 2164.0346,-78.5663"/>
<polygon fill="#191970" stroke="#191970" points="1254.0141,-125.2224 1244.0852,-128.9192 1254.1523,-132.221 1254.0141,-125.2224"/>
</g>
<!-- Node38 -->
<g id="node38" class="node">
<title>Node38</title>
<g id="a_node38"><a xlink:href="../../da/dc5/node__util_8cc.html" target="_top" xlink:title="src/node_util.cc">
<polygon fill="#ffffff" stroke="#000000" points="2251.8276,-60.5 2251.8276,-78.5 2337.3052,-78.5 2337.3052,-60.5 2251.8276,-60.5"/>
<text text-anchor="middle" x="2294.5664" y="-66.5" font-family="Helvetica,sans-Serif" font-size="10.00" fill="#000000">src/node_util.cc</text>
</a>
</g>
</g>
<!-- Node2&#45;&gt;Node38 -->
<g id="edge44" class="edge">
<title>Node2&#45;&gt;Node38</title>
<path fill="none" stroke="#191970" d="M1254.0843,-128.927C1421.4882,-126.4219 2047.2342,-115.1304 2242.5664,-84 2250.526,-82.7315 2259.0062,-80.6788 2266.7589,-78.5121"/>
<polygon fill="#191970" stroke="#191970" points="1253.9023,-125.4292 1243.9549,-129.0762 1254.0054,-132.4285 1253.9023,-125.4292"/>
</g>
<!-- Node39 -->
<g id="node39" class="node">
<title>Node39</title>
<g id="a_node39"><a xlink:href="../../d6/d35/node__v8_8cc.html" target="_top" xlink:title="src/node_v8.cc">
<polygon fill="#ffffff" stroke="#000000" points="2354.9385,-60.5 2354.9385,-78.5 2438.1943,-78.5 2438.1943,-60.5 2354.9385,-60.5"/>
<text text-anchor="middle" x="2396.5664" y="-66.5" font-family="Helvetica,sans-Serif" font-size="10.00" fill="#000000">src/node_v8.cc</text>
</a>
</g>
</g>
<!-- Node2&#45;&gt;Node39 -->
<g id="edge45" class="edge">
<title>Node2&#45;&gt;Node39</title>
<path fill="none" stroke="#191970" d="M1254.1716,-129.1777C1432.1275,-127.5919 2130.0241,-119.2076 2346.5664,-84 2354.2385,-82.7526 2362.3986,-80.7069 2369.853,-78.5401"/>
<polygon fill="#191970" stroke="#191970" points="1254.1328,-125.6778 1244.1636,-129.2645 1254.1936,-132.6775 1254.1328,-125.6778"/>
</g>
<!-- Node40 -->
<g id="node40" class="node">
<title>Node40</title>
<g id="a_node40"><a xlink:href="../../d5/d6e/uv_8cc.html" target="_top" xlink:title="src/uv.cc">
<polygon fill="#ffffff" stroke="#000000" points="2456.2109,-60.5 2456.2109,-78.5 2510.9219,-78.5 2510.9219,-60.5 2456.2109,-60.5"/>
<text text-anchor="middle" x="2483.5664" y="-66.5" font-family="Helvetica,sans-Serif" font-size="10.00" fill="#000000">src/uv.cc</text>
</a>
</g>
</g>
<!-- Node2&#45;&gt;Node40 -->
<g id="edge50" class="edge">
<title>Node2&#45;&gt;Node40</title>
<path fill="none" stroke="#191970" d="M1254.3726,-128.816C1456.655,-125.3911 2328.9605,-109.2628 2447.5664,-84 2453.2339,-82.7928 2459.1563,-80.7604 2464.5227,-78.5933"/>
<polygon fill="#191970" stroke="#191970" points="1254.1059,-125.3199 1244.1661,-128.9876 1254.2236,-132.3189 1254.1059,-125.3199"/>
</g>
<!-- Node12 -->
<g id="node12" class="node">
<title>Node12</title>
<g id="a_node12"><a xlink:href="../../d4/da3/js__stream_8cc.html" target="_top" xlink:title="src/js_stream.cc">
<polygon fill="#ffffff" stroke="#000000" points="1504.4507,-.5 1504.4507,-18.5 1592.6821,-18.5 1592.6821,-.5 1504.4507,-.5"/>
<text text-anchor="middle" x="1548.5664" y="-6.5" font-family="Helvetica,sans-Serif" font-size="10.00" fill="#000000">src/js_stream.cc</text>
</a>
</g>
</g>
<!-- Node11&#45;&gt;Node12 -->
<g id="edge11" class="edge">
<title>Node11&#45;&gt;Node12</title>
<path fill="none" stroke="#191970" d="M1258.3492,-58.2386C1263.4713,-57.0915 1268.6227,-55.9871 1273.5664,-55 1371.5873,-35.4292 1397.0359,-35.8183 1495.5664,-19 1498.423,-18.5124 1501.3649,-18.0036 1504.3296,-17.4859"/>
<polygon fill="#191970" stroke="#191970" points="1257.5607,-54.8285 1248.5974,-60.4775 1259.127,-61.651 1257.5607,-54.8285"/>
</g>
<!-- Node11&#45;&gt;Node13 -->
<g id="edge12" class="edge">
<title>Node11&#45;&gt;Node13</title>
<path fill="none" stroke="#191970" d="M1155.5238,-66.584C1098.1788,-63.6533 1007.2429,-59.0083 928.5664,-55 592.5548,-37.8812 185.5802,-17.2167 67.2967,-11.2121"/>
<polygon fill="#191970" stroke="#191970" points="1155.6643,-70.0956 1165.83,-67.1107 1156.0217,-63.1047 1155.6643,-70.0956"/>
</g>
<!-- Node14 -->
<g id="node14" class="node">
<title>Node14</title>
<g id="a_node14"><a xlink:href="../../d8/d91/node__api_8cc.html" target="_top" xlink:title="src/node_api.cc">
<polygon fill="#ffffff" stroke="#000000" points="1610.5469,-.5 1610.5469,-18.5 1696.5859,-18.5 1696.5859,-.5 1610.5469,-.5"/>
<text text-anchor="middle" x="1653.5664" y="-6.5" font-family="Helvetica,sans-Serif" font-size="10.00" fill="#000000">src/node_api.cc</text>
</a>
</g>
</g>
<!-- Node11&#45;&gt;Node14 -->
<g id="edge13" class="edge">
<title>Node11&#45;&gt;Node14</title>
<path fill="none" stroke="#191970" d="M1257.0765,-58.2461C1262.6084,-57.0467 1268.2034,-55.928 1273.5664,-55 1418.072,-29.9943 1456.4524,-40.1916 1601.5664,-19 1604.4723,-18.5756 1607.4642,-18.1089 1610.4752,-17.6171"/>
<polygon fill="#191970" stroke="#191970" points="1256.2326,-54.8485 1247.2512,-60.4685 1257.777,-61.676 1256.2326,-54.8485"/>
</g>
<!-- Node11&#45;&gt;Node15 -->
<g id="edge14" class="edge">
<title>Node11&#45;&gt;Node15</title>
<path fill="none" stroke="#191970" d="M1155.801,-66.2445C985.4404,-56.4282 485.7864,-27.2867 412.5664,-19 409.6261,-18.6672 406.6077,-18.2879 403.5666,-17.877"/>
<polygon fill="#191970" stroke="#191970" points="1155.6383,-69.7408 1165.823,-66.8215 1156.0407,-62.7524 1155.6383,-69.7408"/>
</g>
<!-- Node11&#45;&gt;Node16 -->
<g id="edge15" class="edge">
<title>Node11&#45;&gt;Node16</title>
<path fill="none" stroke="#191970" d="M1155.7634,-65.5753C1003.1901,-54.9936 591.8395,-26.1881 530.5664,-19 527.6812,-18.6615 524.7213,-18.2834 521.7376,-17.8785"/>
<polygon fill="#191970" stroke="#191970" points="1155.6451,-69.0754 1165.8632,-66.2753 1156.1292,-62.0921 1155.6451,-69.0754"/>
</g>
<!-- Node11&#45;&gt;Node17 -->
<g id="edge16" class="edge">
<title>Node11&#45;&gt;Node17</title>
<path fill="none" stroke="#191970" d="M1155.6717,-64.674C1014.9617,-52.7188 660.1314,-22.4444 634.5664,-19 631.565,-18.5956 628.4734,-18.1376 625.3646,-17.6466"/>
<polygon fill="#191970" stroke="#191970" points="1155.5643,-68.1774 1165.8247,-65.5364 1156.1569,-61.2025 1155.5643,-68.1774"/>
</g>
<!-- Node11&#45;&gt;Node18 -->
<g id="edge17" class="edge">
<title>Node11&#45;&gt;Node18</title>
<path fill="none" stroke="#191970" d="M1155.6865,-63.4102C1036.0123,-50.5853 767.5238,-21.7446 747.5664,-19 744.4854,-18.5763 741.3147,-18.1159 738.1213,-17.6339"/>
<polygon fill="#191970" stroke="#191970" points="1155.4454,-66.9043 1165.7614,-64.4897 1156.1912,-59.9441 1155.4454,-66.9043"/>
</g>
<!-- Node11&#45;&gt;Node19 -->
<g id="edge18" class="edge">
<title>Node11&#45;&gt;Node19</title>
<path fill="none" stroke="#191970" d="M1155.6084,-60.8481C1081.4002,-49.576 952.2601,-29.9598 876.9006,-18.5128"/>
<polygon fill="#191970" stroke="#191970" points="1155.2913,-64.3401 1165.7036,-62.3816 1156.3426,-57.4194 1155.2913,-64.3401"/>
</g>
<!-- Node11&#45;&gt;Node20 -->
<g id="edge19" class="edge">
<title>Node11&#45;&gt;Node20</title>
<path fill="none" stroke="#191970" d="M1164.9763,-58.125C1160.4456,-57.061 1155.9199,-56.0053 1151.5664,-55 1095.612,-42.0795 1030.8547,-27.6567 989.8142,-18.5819"/>
<polygon fill="#191970" stroke="#191970" points="1164.3015,-61.5619 1174.838,-60.4516 1165.9088,-54.7489 1164.3015,-61.5619"/>
</g>
<!-- Node11&#45;&gt;Node21 -->
<g id="edge20" class="edge">
<title>Node11&#45;&gt;Node21</title>
<path fill="none" stroke="#191970" d="M1256.4165,-58.1464C1262.1567,-56.9344 1267.9824,-55.8397 1273.5664,-55 1516.6878,-18.4424 1581.5167,-48.7353 1825.5664,-19 1828.5358,-18.6382 1831.591,-18.2184 1834.6641,-17.7608"/>
<polygon fill="#191970" stroke="#191970" points="1255.2401,-54.8231 1246.2472,-60.4248 1256.7706,-61.6538 1255.2401,-54.8231"/>
</g>
<!-- Node11&#45;&gt;Node22 -->
<g id="edge21" class="edge">
<title>Node11&#45;&gt;Node22</title>
<path fill="none" stroke="#191970" d="M1269.58,-60.2804C1283.301,-58.3024 1297.9332,-56.3915 1311.5664,-55 1586.1595,-26.973 1657.404,-50.9662 1931.5664,-19 1934.3083,-18.6803 1937.122,-18.3111 1939.956,-17.9078"/>
<polygon fill="#191970" stroke="#191970" points="1268.6784,-56.8755 1259.2969,-61.7986 1269.7008,-63.8004 1268.6784,-56.8755"/>
</g>
<!-- Node11&#45;&gt;Node23 -->
<g id="edge22" class="edge">
<title>Node11&#45;&gt;Node23</title>
<path fill="none" stroke="#191970" d="M1269.6609,-62.7688C1294.2241,-60.0514 1323.279,-57.0744 1349.5664,-55 1656.141,-30.8075 1734.7177,-51.0906 2040.5664,-19 2043.2935,-18.7139 2046.0856,-18.3879 2048.9012,-18.033"/>
<polygon fill="#191970" stroke="#191970" points="1268.9786,-59.3233 1259.4301,-63.9141 1269.7574,-66.2798 1268.9786,-59.3233"/>
</g>
<!-- Node24 -->
<g id="node24" class="node">
<title>Node24</title>
<g id="a_node24"><a xlink:href="../../dc/d29/stream__wrap_8cc.html" target="_top" xlink:title="src/stream_wrap.cc">
<polygon fill="#ffffff" stroke="#000000" points="1714.2241,-.5 1714.2241,-18.5 1816.9087,-18.5 1816.9087,-.5 1714.2241,-.5"/>
<text text-anchor="middle" x="1765.5664" y="-6.5" font-family="Helvetica,sans-Serif" font-size="10.00" fill="#000000">src/stream_wrap.cc</text>
</a>
</g>
</g>
<!-- Node11&#45;&gt;Node24 -->
<g id="edge23" class="edge">
<title>Node11&#45;&gt;Node24</title>
<path fill="none" stroke="#191970" d="M1256.6388,-58.198C1262.3093,-56.9875 1268.0574,-55.8792 1273.5664,-55 1463.8243,-24.6364 1514.2884,-42.0808 1705.5664,-19 1708.3934,-18.6589 1711.2916,-18.284 1714.2143,-17.8864"/>
<polygon fill="#191970" stroke="#191970" points="1255.572,-54.8504 1246.5838,-60.4596 1257.1082,-61.6798 1255.572,-54.8504"/>
</g>
<!-- Node11&#45;&gt;Node25 -->
<g id="edge24" class="edge">
<title>Node11&#45;&gt;Node25</title>
<path fill="none" stroke="#191970" d="M1269.5948,-64.251C1303.7854,-61.2346 1348.1408,-57.5506 1387.5664,-55 1730.7769,-32.7966 1818.4645,-54.3936 2160.5664,-19 2163.6624,-18.6797 2166.843,-18.304 2170.0458,-17.8903"/>
<polygon fill="#191970" stroke="#191970" points="1268.9778,-60.7919 1259.327,-65.1637 1269.5976,-67.7645 1268.9778,-60.7919"/>
</g>
<!-- Node26 -->
<g id="node26" class="node">
<title>Node26</title>
<g id="a_node26"><a xlink:href="../../d3/dfb/tcp__wrap_8cc.html" target="_top" xlink:title="src/tcp_wrap.cc">
<polygon fill="#ffffff" stroke="#000000" points="1017.835,-.5 1017.835,-18.5 1103.2979,-18.5 1103.2979,-.5 1017.835,-.5"/>
<text text-anchor="middle" x="1060.5664" y="-6.5" font-family="Helvetica,sans-Serif" font-size="10.00" fill="#000000">src/tcp_wrap.cc</text>
</a>
</g>
</g>
<!-- Node11&#45;&gt;Node26 -->
<g id="edge25" class="edge">
<title>Node11&#45;&gt;Node26</title>
<path fill="none" stroke="#191970" d="M1180.1477,-56.7032C1151.0471,-45.2161 1109.0701,-28.6462 1083.3712,-18.5019"/>
<polygon fill="#191970" stroke="#191970" points="1178.8942,-59.9711 1189.4809,-60.3873 1181.4644,-53.46 1178.8942,-59.9711"/>
</g>
<!-- Node27 -->
<g id="node27" class="node">
<title>Node27</title>
<g id="a_node27"><a xlink:href="../../da/de5/tls__wrap_8cc.html" target="_top" xlink:title="src/tls_wrap.cc">
<polygon fill="#ffffff" stroke="#000000" points="1121.5049,-.5 1121.5049,-18.5 1203.6279,-18.5 1203.6279,-.5 1121.5049,-.5"/>
<text text-anchor="middle" x="1162.5664" y="-6.5" font-family="Helvetica,sans-Serif" font-size="10.00" fill="#000000">src/tls_wrap.cc</text>
</a>
</g>
</g>
<!-- Node11&#45;&gt;Node27 -->
<g id="edge26" class="edge">
<title>Node11&#45;&gt;Node27</title>
<path fill="none" stroke="#191970" d="M1198.5483,-52.6783C1189.3778,-41.6737 1177.7468,-27.7165 1170.2318,-18.6985"/>
<polygon fill="#191970" stroke="#191970" points="1195.8818,-54.9457 1204.9725,-60.3873 1201.2594,-50.4644 1195.8818,-54.9457"/>
</g>
<!-- Node28 -->
<g id="node28" class="node">
<title>Node28</title>
<g id="a_node28"><a xlink:href="../../de/d6d/tty__wrap_8cc.html" target="_top" xlink:title="src/tty_wrap.cc">
<polygon fill="#ffffff" stroke="#000000" points="1221.2266,-.5 1221.2266,-18.5 1303.9063,-18.5 1303.9063,-.5 1221.2266,-.5"/>
<text text-anchor="middle" x="1262.5664" y="-6.5" font-family="Helvetica,sans-Serif" font-size="10.00" fill="#000000">src/tty_wrap.cc</text>
</a>
</g>
</g>
<!-- Node11&#45;&gt;Node28 -->
<g id="edge27" class="edge">
<title>Node11&#45;&gt;Node28</title>
<path fill="none" stroke="#191970" d="M1226.5845,-52.6783C1235.755,-41.6737 1247.386,-27.7165 1254.901,-18.6985"/>
<polygon fill="#191970" stroke="#191970" points="1223.8734,-50.4644 1220.1603,-60.3873 1229.251,-54.9457 1223.8734,-50.4644"/>
</g>
<!-- Node29 -->
<g id="node29" class="node">
<title>Node29</title>
<g id="a_node29"><a xlink:href="../../d1/d05/udp__wrap_8cc.html" target="_top" xlink:title="src/udp_wrap.cc">
<polygon fill="#ffffff" stroke="#000000" points="1322.1626,-.5 1322.1626,-18.5 1410.9702,-18.5 1410.9702,-.5 1322.1626,-.5"/>
<text text-anchor="middle" x="1366.5664" y="-6.5" font-family="Helvetica,sans-Serif" font-size="10.00" fill="#000000">src/udp_wrap.cc</text>
</a>
</g>
</g>
<!-- Node11&#45;&gt;Node29 -->
<g id="edge28" class="edge">
<title>Node11&#45;&gt;Node29</title>
<path fill="none" stroke="#191970" d="M1245.4116,-56.7032C1274.8951,-45.2161 1317.4245,-28.6462 1343.4616,-18.5019"/>
<polygon fill="#191970" stroke="#191970" points="1244.0028,-53.4957 1235.9557,-60.3873 1246.5441,-60.0182 1244.0028,-53.4957"/>
</g>
<!-- Node30 -->
<g id="node30" class="node">
<title>Node30</title>
<g id="a_node30"><a xlink:href="../../d9/d6f/util_8cc.html" target="_top" xlink:title="src/util.cc">
<polygon fill="#ffffff" stroke="#000000" points="1428.7314,-.5 1428.7314,-18.5 1486.4014,-18.5 1486.4014,-.5 1428.7314,-.5"/>
<text text-anchor="middle" x="1457.5664" y="-6.5" font-family="Helvetica,sans-Serif" font-size="10.00" fill="#000000">src/util.cc</text>
</a>
</g>
</g>
<!-- Node11&#45;&gt;Node30 -->
<g id="edge29" class="edge">
<title>Node11&#45;&gt;Node30</title>
<path fill="none" stroke="#191970" d="M1259.9142,-58.0301C1301.8826,-47.8439 1364.8245,-32.5201 1419.5664,-19 1422.4712,-18.2826 1425.5001,-17.5311 1428.5245,-16.7785"/>
<polygon fill="#191970" stroke="#191970" points="1258.87,-54.6818 1249.9772,-60.441 1260.5205,-61.4844 1258.87,-54.6818"/>
</g>
</g>
</svg>
