<?xml version="1.0" encoding="UTF-8" standalone="no"?>
<!DOCTYPE svg PUBLIC "-//W3C//DTD SVG 1.1//EN"
 "http://www.w3.org/Graphics/SVG/1.1/DTD/svg11.dtd">
<!-- Generated by graphviz version 2.40.1 (20161225.0304)
 -->
<!-- Title: src/node_http2.cc Pages: 1 -->
<svg width="365pt" height="192pt"
 viewBox="0.00 0.00 365.46 192.00" xmlns="http://www.w3.org/2000/svg" xmlns:xlink="http://www.w3.org/1999/xlink">
<g id="graph0" class="graph" transform="scale(1 1) rotate(0) translate(4 188)">
<title>src/node_http2.cc</title>
<polygon fill="#ffffff" stroke="transparent" points="-4,4 -4,-188 361.4604,-188 361.4604,4 -4,4"/>
<!-- Node0 -->
<g id="node1" class="node">
<title>Node0</title>
<polygon fill="#bfbfbf" stroke="#000000" points="90.9829,-165.5 90.9829,-183.5 185.9185,-183.5 185.9185,-165.5 90.9829,-165.5"/>
<text text-anchor="middle" x="138.4507" y="-171.5" font-family="Helvetica,sans-Serif" font-size="10.00" fill="#000000">src/node_http2.cc</text>
</g>
<!-- Node1 -->
<g id="node2" class="node">
<title>Node1</title>
<g id="a_node2"><a xlink:href="../../d1/d77/node_8h.html" target="_top" xlink:title="node.h">
<polygon fill="#ffffff" stroke="#000000" points="115.1577,-55.5 115.1577,-73.5 161.7437,-73.5 161.7437,-55.5 115.1577,-55.5"/>
<text text-anchor="middle" x="138.4507" y="-61.5" font-family="Helvetica,sans-Serif" font-size="10.00" fill="#000000">node.h</text>
</a>
</g>
</g>
<!-- Node0&#45;&gt;Node1 -->
<g id="edge1" class="edge">
<title>Node0&#45;&gt;Node1</title>
<path fill="none" stroke="#191970" d="M138.4507,-165.4982C138.4507,-147.6913 138.4507,-107.6225 138.4507,-83.6515"/>
<polygon fill="#191970" stroke="#191970" points="141.9508,-83.6261 138.4507,-73.6261 134.9508,-83.6262 141.9508,-83.6261"/>
</g>
<!-- Node7 -->
<g id="node8" class="node">
<title>Node7</title>
<g id="a_node8"><a xlink:href="../../d8/d1c/node__buffer_8h.html" target="_top" xlink:title="node_buffer.h">
<polygon fill="#ffffff" stroke="#000000" points="33.9526,-110.5 33.9526,-128.5 110.9487,-128.5 110.9487,-110.5 33.9526,-110.5"/>
<text text-anchor="middle" x="72.4507" y="-116.5" font-family="Helvetica,sans-Serif" font-size="10.00" fill="#000000">node_buffer.h</text>
</a>
</g>
</g>
<!-- Node0&#45;&gt;Node7 -->
<g id="edge7" class="edge">
<title>Node0&#45;&gt;Node7</title>
<path fill="none" stroke="#191970" d="M127.5521,-165.4179C117.7707,-157.2667 103.1948,-145.1201 91.491,-135.3669"/>
<polygon fill="#191970" stroke="#191970" points="93.5089,-132.4926 83.586,-128.7795 89.0276,-137.8701 93.5089,-132.4926"/>
</g>
<!-- Node8 -->
<g id="node9" class="node">
<title>Node8</title>
<g id="a_node9"><a xlink:href="../../d3/d52/node__http2_8h.html" target="_top" xlink:title="node_http2.h">
<polygon fill="#ffffff" stroke="#000000" points="166.2563,-110.5 166.2563,-128.5 240.645,-128.5 240.645,-110.5 166.2563,-110.5"/>
<text text-anchor="middle" x="203.4507" y="-116.5" font-family="Helvetica,sans-Serif" font-size="10.00" fill="#000000">node_http2.h</text>
</a>
</g>
</g>
<!-- Node0&#45;&gt;Node8 -->
<g id="edge10" class="edge">
<title>Node0&#45;&gt;Node8</title>
<path fill="none" stroke="#191970" d="M149.1841,-165.4179C158.8173,-157.2667 173.1723,-145.1201 184.6988,-135.3669"/>
<polygon fill="#191970" stroke="#191970" points="187.111,-137.9108 192.4841,-128.7795 182.5894,-132.5671 187.111,-137.9108"/>
</g>
<!-- Node2 -->
<g id="node3" class="node">
<title>Node2</title>
<polygon fill="#ffffff" stroke="#bfbfbf" points="0,-.5 0,-18.5 34.9014,-18.5 34.9014,-.5 0,-.5"/>
<text text-anchor="middle" x="17.4507" y="-6.5" font-family="Helvetica,sans-Serif" font-size="10.00" fill="#000000">v8.h</text>
</g>
<!-- Node1&#45;&gt;Node2 -->
<g id="edge2" class="edge">
<title>Node1&#45;&gt;Node2</title>
<path fill="none" stroke="#191970" d="M118.47,-55.4179C98.239,-46.222 66.8204,-31.9408 44.3964,-21.7481"/>
<polygon fill="#191970" stroke="#191970" points="45.6497,-18.4732 35.0977,-17.5214 42.7531,-24.8458 45.6497,-18.4732"/>
</g>
<!-- Node3 -->
<g id="node4" class="node">
<title>Node3</title>
<g id="a_node4"><a xlink:href="../../da/d9c/node__version_8h.html" target="_top" xlink:title="node_version.h">
<polygon fill="#ffffff" stroke="#000000" points="53.2588,-.5 53.2588,-18.5 137.6426,-18.5 137.6426,-.5 53.2588,-.5"/>
<text text-anchor="middle" x="95.4507" y="-6.5" font-family="Helvetica,sans-Serif" font-size="10.00" fill="#000000">node_version.h</text>
</a>
</g>
</g>
<!-- Node1&#45;&gt;Node3 -->
<g id="edge3" class="edge">
<title>Node1&#45;&gt;Node3</title>
<path fill="none" stroke="#191970" d="M131.3501,-55.4179C125.2867,-47.6624 116.3956,-36.29 108.9789,-26.8035"/>
<polygon fill="#191970" stroke="#191970" points="111.6221,-24.5018 102.7055,-18.7795 106.1075,-28.8133 111.6221,-24.5018"/>
</g>
<!-- Node4 -->
<g id="node5" class="node">
<title>Node4</title>
<polygon fill="#ffffff" stroke="#bfbfbf" points="155.665,-.5 155.665,-18.5 207.2363,-18.5 207.2363,-.5 155.665,-.5"/>
<text text-anchor="middle" x="181.4507" y="-6.5" font-family="Helvetica,sans-Serif" font-size="10.00" fill="#000000">assert.h</text>
</g>
<!-- Node1&#45;&gt;Node4 -->
<g id="edge4" class="edge">
<title>Node1&#45;&gt;Node4</title>
<path fill="none" stroke="#191970" d="M145.5513,-55.4179C151.6146,-47.6624 160.5058,-36.29 167.9225,-26.8035"/>
<polygon fill="#191970" stroke="#191970" points="170.7939,-28.8133 174.1958,-18.7795 165.2792,-24.5018 170.7939,-28.8133"/>
</g>
<!-- Node5 -->
<g id="node6" class="node">
<title>Node5</title>
<polygon fill="#ffffff" stroke="#bfbfbf" points="225.3301,-.5 225.3301,-18.5 273.5713,-18.5 273.5713,-.5 225.3301,-.5"/>
<text text-anchor="middle" x="249.4507" y="-6.5" font-family="Helvetica,sans-Serif" font-size="10.00" fill="#000000">stdint.h</text>
</g>
<!-- Node1&#45;&gt;Node5 -->
<g id="edge5" class="edge">
<title>Node1&#45;&gt;Node5</title>
<path fill="none" stroke="#191970" d="M156.7801,-55.4179C174.5348,-46.6205 201.6821,-33.1691 222.0123,-23.0956"/>
<polygon fill="#191970" stroke="#191970" points="223.6876,-26.1716 231.0941,-18.5956 220.5797,-19.8994 223.6876,-26.1716"/>
</g>
<!-- Node6 -->
<g id="node7" class="node">
<title>Node6</title>
<polygon fill="#ffffff" stroke="#bfbfbf" points="291.4409,-.5 291.4409,-18.5 357.4604,-18.5 357.4604,-.5 291.4409,-.5"/>
<text text-anchor="middle" x="324.4507" y="-6.5" font-family="Helvetica,sans-Serif" font-size="10.00" fill="#000000">sys/types.h</text>
</g>
<!-- Node1&#45;&gt;Node6 -->
<g id="edge6" class="edge">
<title>Node1&#45;&gt;Node6</title>
<path fill="none" stroke="#191970" d="M162.0077,-57.5342C192.6559,-48.4716 246.6809,-32.4964 283.961,-21.4728"/>
<polygon fill="#191970" stroke="#191970" points="285.4014,-24.6967 293.9985,-18.5047 283.4164,-17.984 285.4014,-24.6967"/>
</g>
<!-- Node7&#45;&gt;Node1 -->
<g id="edge8" class="edge">
<title>Node7&#45;&gt;Node1</title>
<path fill="none" stroke="#191970" d="M83.3492,-110.4179C93.1306,-102.2667 107.7065,-90.1201 119.4104,-80.3669"/>
<polygon fill="#191970" stroke="#191970" points="121.8738,-82.8701 127.3153,-73.7795 117.3924,-77.4926 121.8738,-82.8701"/>
</g>
<!-- Node7&#45;&gt;Node2 -->
<g id="edge9" class="edge">
<title>Node7&#45;&gt;Node2</title>
<path fill="none" stroke="#191970" d="M67.9498,-110.4982C58.9255,-92.4496 38.466,-51.5306 26.5428,-27.6843"/>
<polygon fill="#191970" stroke="#191970" points="29.6164,-26.0052 22.0138,-18.6261 23.3554,-29.1357 29.6164,-26.0052"/>
</g>
</g>
</svg>
