<?xml version="1.0" encoding="UTF-8" standalone="no"?>
<!DOCTYPE svg PUBLIC "-//W3C//DTD SVG 1.1//EN"
 "http://www.w3.org/Graphics/SVG/1.1/DTD/svg11.dtd">
<!-- Generated by graphviz version 2.40.1 (20161225.0304)
 -->
<!-- Title: src/tracing/node_trace_buffer.h Pages: 1 -->
<svg width="275pt" height="157pt"
 viewBox="0.00 0.00 275.04 157.00" xmlns="http://www.w3.org/2000/svg" xmlns:xlink="http://www.w3.org/1999/xlink">
<g id="graph0" class="graph" transform="scale(1 1) rotate(0) translate(4 153)">
<title>src/tracing/node_trace_buffer.h</title>
<polygon fill="#ffffff" stroke="transparent" points="-4,4 -4,-153 271.0366,-153 271.0366,4 -4,4"/>
<!-- Node9 -->
<g id="node1" class="node">
<title>Node9</title>
<polygon fill="#bfbfbf" stroke="#000000" points="89.0962,-120.5 89.0962,-148.5 204.0366,-148.5 204.0366,-120.5 89.0962,-120.5"/>
<text text-anchor="start" x="97.0962" y="-136.5" font-family="Helvetica,sans-Serif" font-size="10.00" fill="#000000">src/tracing/node_trace</text>
<text text-anchor="middle" x="146.5664" y="-126.5" font-family="Helvetica,sans-Serif" font-size="10.00" fill="#000000">_buffer.h</text>
</g>
<!-- Node10 -->
<g id="node2" class="node">
<title>Node10</title>
<g id="a_node2"><a xlink:href="../../de/d9e/agent_8h.html" target="_top" xlink:title="src/tracing/agent.h">
<polygon fill="#ffffff" stroke="#000000" points="35.4336,-60.5 35.4336,-78.5 133.6992,-78.5 133.6992,-60.5 35.4336,-60.5"/>
<text text-anchor="middle" x="84.5664" y="-66.5" font-family="Helvetica,sans-Serif" font-size="10.00" fill="#000000">src/tracing/agent.h</text>
</a>
</g>
</g>
<!-- Node9&#45;&gt;Node10 -->
<g id="edge1" class="edge">
<title>Node9&#45;&gt;Node10</title>
<path fill="none" stroke="#191970" d="M126.142,-113.0873C114.9675,-101.3721 101.7101,-87.4732 93.2219,-78.5743"/>
<polygon fill="#191970" stroke="#191970" points="123.6786,-115.5756 133.1133,-120.396 128.7438,-110.7441 123.6786,-115.5756"/>
</g>
<!-- Node13 -->
<g id="node5" class="node">
<title>Node13</title>
<g id="a_node5"><a xlink:href="../../d4/dc6/node__trace__buffer_8cc.html" target="_top" xlink:title="src/tracing/node_trace\l_buffer.cc">
<polygon fill="#ffffff" stroke="#000000" points="152.0962,-55.5 152.0962,-83.5 267.0366,-83.5 267.0366,-55.5 152.0962,-55.5"/>
<text text-anchor="start" x="160.0962" y="-71.5" font-family="Helvetica,sans-Serif" font-size="10.00" fill="#000000">src/tracing/node_trace</text>
<text text-anchor="middle" x="209.5664" y="-61.5" font-family="Helvetica,sans-Serif" font-size="10.00" fill="#000000">_buffer.cc</text>
</a>
</g>
</g>
<!-- Node9&#45;&gt;Node13 -->
<g id="edge4" class="edge">
<title>Node9&#45;&gt;Node13</title>
<path fill="none" stroke="#191970" d="M167.3814,-113.0243C176.7678,-103.3398 187.5901,-92.1739 195.923,-83.5765"/>
<polygon fill="#191970" stroke="#191970" points="164.683,-110.7793 160.2365,-120.396 169.7095,-115.6512 164.683,-110.7793"/>
</g>
<!-- Node11 -->
<g id="node3" class="node">
<title>Node11</title>
<g id="a_node3"><a xlink:href="../../dc/dfd/node_8cc.html" target="_top" xlink:title="src/node.cc">
<polygon fill="#ffffff" stroke="#000000" points="0,-.5 0,-18.5 67.1328,-18.5 67.1328,-.5 0,-.5"/>
<text text-anchor="middle" x="33.5664" y="-6.5" font-family="Helvetica,sans-Serif" font-size="10.00" fill="#000000">src/node.cc</text>
</a>
</g>
</g>
<!-- Node10&#45;&gt;Node11 -->
<g id="edge2" class="edge">
<title>Node10&#45;&gt;Node11</title>
<path fill="none" stroke="#191970" d="M70.2679,-52.6783C60.914,-41.6737 49.0504,-27.7165 41.3851,-18.6985"/>
<polygon fill="#191970" stroke="#191970" points="67.6773,-55.0347 76.8206,-60.3873 73.0109,-50.5011 67.6773,-55.0347"/>
</g>
<!-- Node12 -->
<g id="node4" class="node">
<title>Node12</title>
<g id="a_node4"><a xlink:href="../../d2/d0e/agent_8cc.html" target="_top" xlink:title="src/tracing/agent.cc">
<polygon fill="#ffffff" stroke="#000000" points="85.2144,-.5 85.2144,-18.5 187.9185,-18.5 187.9185,-.5 85.2144,-.5"/>
<text text-anchor="middle" x="136.5664" y="-6.5" font-family="Helvetica,sans-Serif" font-size="10.00" fill="#000000">src/tracing/agent.cc</text>
</a>
</g>
</g>
<!-- Node10&#45;&gt;Node12 -->
<g id="edge3" class="edge">
<title>Node10&#45;&gt;Node12</title>
<path fill="none" stroke="#191970" d="M99.1453,-52.6783C108.6826,-41.6737 120.7788,-27.7165 128.5944,-18.6985"/>
<polygon fill="#191970" stroke="#191970" points="96.3685,-50.5381 92.4641,-60.3873 101.6583,-55.1226 96.3685,-50.5381"/>
</g>
</g>
</svg>
