<?xml version="1.0" encoding="UTF-8" standalone="no"?>
<!DOCTYPE svg PUBLIC "-//W3C//DTD SVG 1.1//EN"
 "http://www.w3.org/Graphics/SVG/1.1/DTD/svg11.dtd">
<!-- Generated by graphviz version 2.40.1 (20161225.0304)
 -->
<!-- Title: src/tls_wrap.cc Pages: 1 -->
<svg width="1419pt" height="202pt"
 viewBox="0.00 0.00 1419.02 202.00" xmlns="http://www.w3.org/2000/svg" xmlns:xlink="http://www.w3.org/1999/xlink">
<g id="graph0" class="graph" transform="scale(1 1) rotate(0) translate(4 198)">
<title>src/tls_wrap.cc</title>
<polygon fill="#ffffff" stroke="transparent" points="-4,4 -4,-198 1415.0171,-198 1415.0171,4 -4,4"/>
<!-- Node0 -->
<g id="node1" class="node">
<title>Node0</title>
<polygon fill="#bfbfbf" stroke="#000000" points="683.7266,-175.5 683.7266,-193.5 765.8496,-193.5 765.8496,-175.5 683.7266,-175.5"/>
<text text-anchor="middle" x="724.7881" y="-181.5" font-family="Helvetica,sans-Serif" font-size="10.00" fill="#000000">src/tls_wrap.cc</text>
</g>
<!-- Node1 -->
<g id="node2" class="node">
<title>Node1</title>
<g id="a_node2"><a xlink:href="../../d6/d47/tls__wrap_8h.html" target="_top" xlink:title="tls_wrap.h">
<polygon fill="#ffffff" stroke="#000000" points="0,-115.5 0,-133.5 61.5762,-133.5 61.5762,-115.5 0,-115.5"/>
<text text-anchor="middle" x="30.7881" y="-121.5" font-family="Helvetica,sans-Serif" font-size="10.00" fill="#000000">tls_wrap.h</text>
</a>
</g>
</g>
<!-- Node0&#45;&gt;Node1 -->
<g id="edge1" class="edge">
<title>Node0&#45;&gt;Node1</title>
<path fill="none" stroke="#191970" d="M683.49,-183.1286C558.9932,-178.7575 188.6783,-163.9566 70.7881,-139 67.9427,-138.3976 65.0262,-137.6376 62.128,-136.7825"/>
<polygon fill="#191970" stroke="#191970" points="63.0668,-133.4068 52.4738,-133.6008 60.8757,-140.055 63.0668,-133.4068"/>
</g>
<!-- Node2 -->
<g id="node3" class="node">
<title>Node2</title>
<g id="a_node3"><a xlink:href="../../d4/d56/async-wrap_8h.html" target="_top" xlink:title="async&#45;wrap.h">
<polygon fill="#ffffff" stroke="#000000" points="80.0542,-115.5 80.0542,-133.5 155.522,-133.5 155.522,-115.5 80.0542,-115.5"/>
<text text-anchor="middle" x="117.7881" y="-121.5" font-family="Helvetica,sans-Serif" font-size="10.00" fill="#000000">async&#45;wrap.h</text>
</a>
</g>
</g>
<!-- Node0&#45;&gt;Node2 -->
<g id="edge2" class="edge">
<title>Node0&#45;&gt;Node2</title>
<path fill="none" stroke="#191970" d="M683.6147,-182.3233C571.8315,-176.2276 264.4038,-158.1745 164.7881,-139 160.9361,-138.2586 156.9531,-137.3163 153.0102,-136.2692"/>
<polygon fill="#191970" stroke="#191970" points="153.9669,-132.9025 143.3892,-133.505 152.0338,-139.6303 153.9669,-132.9025"/>
</g>
<!-- Node3 -->
<g id="node4" class="node">
<title>Node3</title>
<g id="a_node4"><a xlink:href="../../d5/d30/async-wrap-inl_8h.html" target="_top" xlink:title="async&#45;wrap&#45;inl.h">
<polygon fill="#ffffff" stroke="#000000" points="173.3867,-115.5 173.3867,-133.5 262.1895,-133.5 262.1895,-115.5 173.3867,-115.5"/>
<text text-anchor="middle" x="217.7881" y="-121.5" font-family="Helvetica,sans-Serif" font-size="10.00" fill="#000000">async&#45;wrap&#45;inl.h</text>
</a>
</g>
</g>
<!-- Node0&#45;&gt;Node3 -->
<g id="edge3" class="edge">
<title>Node0&#45;&gt;Node3</title>
<path fill="none" stroke="#191970" d="M683.5605,-182.601C603.5853,-178.424 422.0346,-166.5294 271.7881,-139 267.2617,-138.1706 262.5599,-137.1512 257.9029,-136.0405"/>
<polygon fill="#191970" stroke="#191970" points="258.4181,-132.5607 247.8651,-133.5017 256.7016,-139.347 258.4181,-132.5607"/>
</g>
<!-- Node4 -->
<g id="node5" class="node">
<title>Node4</title>
<g id="a_node5"><a xlink:href="../../d8/d1c/node__buffer_8h.html" target="_top" xlink:title="node_buffer.h">
<polygon fill="#ffffff" stroke="#000000" points="280.29,-115.5 280.29,-133.5 357.2861,-133.5 357.2861,-115.5 280.29,-115.5"/>
<text text-anchor="middle" x="318.7881" y="-121.5" font-family="Helvetica,sans-Serif" font-size="10.00" fill="#000000">node_buffer.h</text>
</a>
</g>
</g>
<!-- Node0&#45;&gt;Node4 -->
<g id="edge4" class="edge">
<title>Node0&#45;&gt;Node4</title>
<path fill="none" stroke="#191970" d="M683.479,-181.6024C616.2864,-176.3683 479.3961,-163.5305 365.7881,-139 362.345,-138.2566 358.7912,-137.3762 355.2518,-136.4224"/>
<polygon fill="#191970" stroke="#191970" points="355.9967,-132.9948 345.4187,-133.5925 354.0607,-139.7218 355.9967,-132.9948"/>
</g>
<!-- Node11 -->
<g id="node12" class="node">
<title>Node11</title>
<g id="a_node12"><a xlink:href="../../d0/da7/node__crypto_8h.html" target="_top" xlink:title="node_crypto.h">
<polygon fill="#ffffff" stroke="#000000" points="375.0986,-115.5 375.0986,-133.5 454.4775,-133.5 454.4775,-115.5 375.0986,-115.5"/>
<text text-anchor="middle" x="414.7881" y="-121.5" font-family="Helvetica,sans-Serif" font-size="10.00" fill="#000000">node_crypto.h</text>
</a>
</g>
</g>
<!-- Node0&#45;&gt;Node11 -->
<g id="edge12" class="edge">
<title>Node0&#45;&gt;Node11</title>
<path fill="none" stroke="#191970" d="M683.3549,-178.7825C631.6256,-171.2998 540.591,-156.9952 463.7881,-139 460.3587,-138.1965 456.8144,-137.2934 453.2734,-136.341"/>
<polygon fill="#191970" stroke="#191970" points="453.9746,-132.9026 443.4007,-133.568 452.0816,-139.6418 453.9746,-132.9026"/>
</g>
<!-- Node12 -->
<g id="node13" class="node">
<title>Node12</title>
<g id="a_node13"><a xlink:href="../../da/d4a/node__crypto__bio_8h.html" target="_top" xlink:title="node_crypto_bio.h">
<polygon fill="#ffffff" stroke="#000000" points="472.6455,-115.5 472.6455,-133.5 570.9307,-133.5 570.9307,-115.5 472.6455,-115.5"/>
<text text-anchor="middle" x="521.7881" y="-121.5" font-family="Helvetica,sans-Serif" font-size="10.00" fill="#000000">node_crypto_bio.h</text>
</a>
</g>
</g>
<!-- Node0&#45;&gt;Node12 -->
<g id="edge13" class="edge">
<title>Node0&#45;&gt;Node12</title>
<path fill="none" stroke="#191970" d="M693.9568,-175.3873C658.7282,-164.9749 600.9519,-147.8982 562.1596,-136.4325"/>
<polygon fill="#191970" stroke="#191970" points="562.8264,-132.9799 552.2444,-133.5019 560.8422,-139.6929 562.8264,-132.9799"/>
</g>
<!-- Node13 -->
<g id="node14" class="node">
<title>Node13</title>
<g id="a_node14"><a xlink:href="../../d8/d53/node__crypto__clienthello_8h.html" target="_top" xlink:title="node_crypto_clienthello.h">
<polygon fill="#ffffff" stroke="#000000" points="589.0815,-115.5 589.0815,-133.5 718.4946,-133.5 718.4946,-115.5 589.0815,-115.5"/>
<text text-anchor="middle" x="653.7881" y="-121.5" font-family="Helvetica,sans-Serif" font-size="10.00" fill="#000000">node_crypto_clienthello.h</text>
</a>
</g>
</g>
<!-- Node0&#45;&gt;Node13 -->
<g id="edge14" class="edge">
<title>Node0&#45;&gt;Node13</title>
<path fill="none" stroke="#191970" d="M714.0047,-175.3873C703.0578,-166.1364 685.886,-151.625 672.6762,-140.4618"/>
<polygon fill="#191970" stroke="#191970" points="674.57,-137.4798 664.6729,-133.6985 670.0518,-142.8264 674.57,-137.4798"/>
</g>
<!-- Node14 -->
<g id="node15" class="node">
<title>Node14</title>
<g id="a_node15"><a xlink:href="../../d7/d99/node__crypto__clienthello-inl_8h.html" target="_top" xlink:title="node_crypto_clienthello\l&#45;inl.h">
<polygon fill="#ffffff" stroke="#000000" points="736.2515,-110.5 736.2515,-138.5 857.3247,-138.5 857.3247,-110.5 736.2515,-110.5"/>
<text text-anchor="start" x="744.2515" y="-126.5" font-family="Helvetica,sans-Serif" font-size="10.00" fill="#000000">node_crypto_clienthello</text>
<text text-anchor="middle" x="796.7881" y="-116.5" font-family="Helvetica,sans-Serif" font-size="10.00" fill="#000000">&#45;inl.h</text>
</a>
</g>
</g>
<!-- Node0&#45;&gt;Node14 -->
<g id="edge15" class="edge">
<title>Node0&#45;&gt;Node14</title>
<path fill="none" stroke="#191970" d="M735.7233,-175.3873C745.34,-167.3734 759.6938,-155.4119 772.0692,-145.0991"/>
<polygon fill="#191970" stroke="#191970" points="774.4046,-147.7089 779.8461,-138.6183 769.9233,-142.3314 774.4046,-147.7089"/>
</g>
<!-- Node15 -->
<g id="node16" class="node">
<title>Node15</title>
<g id="a_node16"><a xlink:href="../../d6/d92/node__counters_8h.html" target="_top" xlink:title="node_counters.h">
<polygon fill="#ffffff" stroke="#000000" points="875.5371,-115.5 875.5371,-133.5 966.0391,-133.5 966.0391,-115.5 875.5371,-115.5"/>
<text text-anchor="middle" x="920.7881" y="-121.5" font-family="Helvetica,sans-Serif" font-size="10.00" fill="#000000">node_counters.h</text>
</a>
</g>
</g>
<!-- Node0&#45;&gt;Node15 -->
<g id="edge16" class="edge">
<title>Node0&#45;&gt;Node15</title>
<path fill="none" stroke="#191970" d="M754.5563,-175.3873C788.5701,-164.9749 844.3541,-147.8982 881.8087,-136.4325"/>
<polygon fill="#191970" stroke="#191970" points="882.8445,-139.7758 891.382,-133.5019 880.7954,-133.0824 882.8445,-139.7758"/>
</g>
<!-- Node16 -->
<g id="node17" class="node">
<title>Node16</title>
<g id="a_node17"><a xlink:href="../../d4/dbf/node__internals_8h.html" target="_top" xlink:title="node_internals.h">
<polygon fill="#ffffff" stroke="#000000" points="983.8154,-115.5 983.8154,-133.5 1073.7607,-133.5 1073.7607,-115.5 983.8154,-115.5"/>
<text text-anchor="middle" x="1028.7881" y="-121.5" font-family="Helvetica,sans-Serif" font-size="10.00" fill="#000000">node_internals.h</text>
</a>
</g>
</g>
<!-- Node0&#45;&gt;Node16 -->
<g id="edge17" class="edge">
<title>Node0&#45;&gt;Node16</title>
<path fill="none" stroke="#191970" d="M766.1394,-178.045C815.8895,-170.0325 901.8335,-155.4045 974.7881,-139 978.8368,-138.0896 983.0391,-137.0789 987.2309,-136.0268"/>
<polygon fill="#191970" stroke="#191970" points="988.109,-139.415 996.9154,-133.5245 986.3577,-132.6376 988.109,-139.415"/>
</g>
<!-- Node17 -->
<g id="node18" class="node">
<title>Node17</title>
<g id="a_node18"><a xlink:href="../../db/d26/stream__base_8h.html" target="_top" xlink:title="stream_base.h">
<polygon fill="#ffffff" stroke="#000000" points="1091.7144,-115.5 1091.7144,-133.5 1173.8618,-133.5 1173.8618,-115.5 1091.7144,-115.5"/>
<text text-anchor="middle" x="1132.7881" y="-121.5" font-family="Helvetica,sans-Serif" font-size="10.00" fill="#000000">stream_base.h</text>
</a>
</g>
</g>
<!-- Node0&#45;&gt;Node17 -->
<g id="edge18" class="edge">
<title>Node0&#45;&gt;Node17</title>
<path fill="none" stroke="#191970" d="M765.9349,-181.3692C832.8741,-175.8077 969.2919,-162.5198 1082.7881,-139 1086.66,-138.1976 1090.6689,-137.246 1094.6547,-136.2196"/>
<polygon fill="#191970" stroke="#191970" points="1095.6967,-139.5633 1104.4242,-133.5565 1093.8557,-132.8098 1095.6967,-139.5633"/>
</g>
<!-- Node18 -->
<g id="node19" class="node">
<title>Node18</title>
<g id="a_node19"><a xlink:href="../../d7/d82/stream__base-inl_8h.html" target="_top" xlink:title="stream_base&#45;inl.h">
<polygon fill="#ffffff" stroke="#000000" points="1192.0469,-115.5 1192.0469,-133.5 1287.5293,-133.5 1287.5293,-115.5 1192.0469,-115.5"/>
<text text-anchor="middle" x="1239.7881" y="-121.5" font-family="Helvetica,sans-Serif" font-size="10.00" fill="#000000">stream_base&#45;inl.h</text>
</a>
</g>
</g>
<!-- Node0&#45;&gt;Node18 -->
<g id="edge19" class="edge">
<title>Node0&#45;&gt;Node18</title>
<path fill="none" stroke="#191970" d="M766.1254,-182.4763C846.7663,-178.07 1030.5077,-165.7771 1182.7881,-139 1187.6247,-138.1495 1192.6558,-137.1068 1197.6376,-135.9742"/>
<polygon fill="#191970" stroke="#191970" points="1198.8089,-139.2926 1207.7161,-133.5556 1197.1754,-132.4858 1198.8089,-139.2926"/>
</g>
<!-- Node19 -->
<g id="node20" class="node">
<title>Node19</title>
<g id="a_node20"><a xlink:href="../../d8/d3c/util_8h.html" target="_top" xlink:title="util.h">
<polygon fill="#ffffff" stroke="#000000" points="1305.2266,-115.5 1305.2266,-133.5 1342.3496,-133.5 1342.3496,-115.5 1305.2266,-115.5"/>
<text text-anchor="middle" x="1323.7881" y="-121.5" font-family="Helvetica,sans-Serif" font-size="10.00" fill="#000000">util.h</text>
</a>
</g>
</g>
<!-- Node0&#45;&gt;Node19 -->
<g id="edge20" class="edge">
<title>Node0&#45;&gt;Node19</title>
<path fill="none" stroke="#191970" d="M765.8583,-183.4211C879.6286,-180.0864 1197.0372,-168.3445 1296.7881,-139 1297.86,-138.6847 1298.9378,-138.3235 1300.0132,-137.9261"/>
<polygon fill="#191970" stroke="#191970" points="1301.7674,-140.9727 1309.4079,-133.6329 1298.8579,-134.606 1301.7674,-140.9727"/>
</g>
<!-- Node20 -->
<g id="node21" class="node">
<title>Node20</title>
<g id="a_node21"><a xlink:href="../../d5/d8c/util-inl_8h.html" target="_top" xlink:title="util&#45;inl.h">
<polygon fill="#ffffff" stroke="#000000" points="1360.5591,-115.5 1360.5591,-133.5 1411.0171,-133.5 1411.0171,-115.5 1360.5591,-115.5"/>
<text text-anchor="middle" x="1385.7881" y="-121.5" font-family="Helvetica,sans-Serif" font-size="10.00" fill="#000000">util&#45;inl.h</text>
</a>
</g>
</g>
<!-- Node0&#45;&gt;Node20 -->
<g id="edge21" class="edge">
<title>Node0&#45;&gt;Node20</title>
<path fill="none" stroke="#191970" d="M766.1553,-183.2769C887.3401,-179.413 1240.0172,-166.0891 1351.7881,-139 1353.7526,-138.5239 1355.7485,-137.9454 1357.7382,-137.2969"/>
<polygon fill="#191970" stroke="#191970" points="1359.3456,-140.4311 1367.4623,-133.6216 1356.8707,-133.8832 1359.3456,-140.4311"/>
</g>
<!-- Node5 -->
<g id="node6" class="node">
<title>Node5</title>
<g id="a_node6"><a xlink:href="../../d1/d77/node_8h.html" target="_top" xlink:title="node.h">
<polygon fill="#ffffff" stroke="#000000" points="327.4951,-55.5 327.4951,-73.5 374.0811,-73.5 374.0811,-55.5 327.4951,-55.5"/>
<text text-anchor="middle" x="350.7881" y="-61.5" font-family="Helvetica,sans-Serif" font-size="10.00" fill="#000000">node.h</text>
</a>
</g>
</g>
<!-- Node4&#45;&gt;Node5 -->
<g id="edge5" class="edge">
<title>Node4&#45;&gt;Node5</title>
<path fill="none" stroke="#191970" d="M323.6482,-115.3873C328.2531,-106.7531 335.302,-93.5365 341.0619,-82.7366"/>
<polygon fill="#191970" stroke="#191970" points="344.2645,-84.1691 345.8822,-73.6985 338.0881,-80.8749 344.2645,-84.1691"/>
</g>
<!-- Node6 -->
<g id="node7" class="node">
<title>Node6</title>
<polygon fill="#ffffff" stroke="#bfbfbf" points="212.3374,-.5 212.3374,-18.5 247.2388,-18.5 247.2388,-.5 212.3374,-.5"/>
<text text-anchor="middle" x="229.7881" y="-6.5" font-family="Helvetica,sans-Serif" font-size="10.00" fill="#000000">v8.h</text>
</g>
<!-- Node4&#45;&gt;Node6 -->
<g id="edge11" class="edge">
<title>Node4&#45;&gt;Node6</title>
<path fill="none" stroke="#191970" d="M311.8044,-115.4761C297.0599,-96.4242 262.5337,-51.8117 243.3111,-26.9736"/>
<polygon fill="#191970" stroke="#191970" points="245.8748,-24.5676 236.9865,-18.8014 240.339,-28.8518 245.8748,-24.5676"/>
</g>
<!-- Node5&#45;&gt;Node6 -->
<g id="edge6" class="edge">
<title>Node5&#45;&gt;Node6</title>
<path fill="none" stroke="#191970" d="M330.8074,-55.4179C310.5764,-46.222 279.1578,-31.9408 256.7338,-21.7481"/>
<polygon fill="#191970" stroke="#191970" points="257.9871,-18.4732 247.4351,-17.5214 255.0905,-24.8458 257.9871,-18.4732"/>
</g>
<!-- Node7 -->
<g id="node8" class="node">
<title>Node7</title>
<g id="a_node8"><a xlink:href="../../da/d9c/node__version_8h.html" target="_top" xlink:title="node_version.h">
<polygon fill="#ffffff" stroke="#000000" points="265.5962,-.5 265.5962,-18.5 349.98,-18.5 349.98,-.5 265.5962,-.5"/>
<text text-anchor="middle" x="307.7881" y="-6.5" font-family="Helvetica,sans-Serif" font-size="10.00" fill="#000000">node_version.h</text>
</a>
</g>
</g>
<!-- Node5&#45;&gt;Node7 -->
<g id="edge7" class="edge">
<title>Node5&#45;&gt;Node7</title>
<path fill="none" stroke="#191970" d="M343.6875,-55.4179C337.6241,-47.6624 328.733,-36.29 321.3163,-26.8035"/>
<polygon fill="#191970" stroke="#191970" points="323.9595,-24.5018 315.0429,-18.7795 318.4449,-28.8133 323.9595,-24.5018"/>
</g>
<!-- Node8 -->
<g id="node9" class="node">
<title>Node8</title>
<polygon fill="#ffffff" stroke="#bfbfbf" points="368.0024,-.5 368.0024,-18.5 419.5737,-18.5 419.5737,-.5 368.0024,-.5"/>
<text text-anchor="middle" x="393.7881" y="-6.5" font-family="Helvetica,sans-Serif" font-size="10.00" fill="#000000">assert.h</text>
</g>
<!-- Node5&#45;&gt;Node8 -->
<g id="edge8" class="edge">
<title>Node5&#45;&gt;Node8</title>
<path fill="none" stroke="#191970" d="M357.8887,-55.4179C363.952,-47.6624 372.8432,-36.29 380.2599,-26.8035"/>
<polygon fill="#191970" stroke="#191970" points="383.1313,-28.8133 386.5332,-18.7795 377.6166,-24.5018 383.1313,-28.8133"/>
</g>
<!-- Node9 -->
<g id="node10" class="node">
<title>Node9</title>
<polygon fill="#ffffff" stroke="#bfbfbf" points="437.6675,-.5 437.6675,-18.5 485.9087,-18.5 485.9087,-.5 437.6675,-.5"/>
<text text-anchor="middle" x="461.7881" y="-6.5" font-family="Helvetica,sans-Serif" font-size="10.00" fill="#000000">stdint.h</text>
</g>
<!-- Node5&#45;&gt;Node9 -->
<g id="edge9" class="edge">
<title>Node5&#45;&gt;Node9</title>
<path fill="none" stroke="#191970" d="M369.1175,-55.4179C386.8722,-46.6205 414.0195,-33.1691 434.3497,-23.0956"/>
<polygon fill="#191970" stroke="#191970" points="436.025,-26.1716 443.4315,-18.5956 432.9171,-19.8994 436.025,-26.1716"/>
</g>
<!-- Node10 -->
<g id="node11" class="node">
<title>Node10</title>
<polygon fill="#ffffff" stroke="#bfbfbf" points="503.7783,-.5 503.7783,-18.5 569.7979,-18.5 569.7979,-.5 503.7783,-.5"/>
<text text-anchor="middle" x="536.7881" y="-6.5" font-family="Helvetica,sans-Serif" font-size="10.00" fill="#000000">sys/types.h</text>
</g>
<!-- Node5&#45;&gt;Node10 -->
<g id="edge10" class="edge">
<title>Node5&#45;&gt;Node10</title>
<path fill="none" stroke="#191970" d="M374.3451,-57.5342C404.9933,-48.4716 459.0183,-32.4964 496.2984,-21.4728"/>
<polygon fill="#191970" stroke="#191970" points="497.7388,-24.6967 506.3359,-18.5047 495.7538,-17.984 497.7388,-24.6967"/>
</g>
</g>
</svg>
