<?xml version="1.0" encoding="UTF-8" standalone="no"?>
<!DOCTYPE svg PUBLIC "-//W3C//DTD SVG 1.1//EN"
 "http://www.w3.org/Graphics/SVG/1.1/DTD/svg11.dtd">
<!-- Generated by graphviz version 2.40.1 (20161225.0304)
 -->
<!-- Title: src/connect_wrap.h Pages: 1 -->
<svg width="466pt" height="82pt"
 viewBox="0.00 0.00 466.31 82.00" xmlns="http://www.w3.org/2000/svg" xmlns:xlink="http://www.w3.org/1999/xlink">
<g id="graph0" class="graph" transform="scale(1 1) rotate(0) translate(4 78)">
<title>src/connect_wrap.h</title>
<polygon fill="#ffffff" stroke="transparent" points="-4,4 -4,-78 462.3052,-78 462.3052,4 -4,4"/>
<!-- Node1 -->
<g id="node1" class="node">
<title>Node1</title>
<polygon fill="#bfbfbf" stroke="#000000" points="196.2192,-55.5 196.2192,-73.5 298.9282,-73.5 298.9282,-55.5 196.2192,-55.5"/>
<text text-anchor="middle" x="247.5737" y="-61.5" font-family="Helvetica,sans-Serif" font-size="10.00" fill="#000000">src/connect_wrap.h</text>
</g>
<!-- Node2 -->
<g id="node2" class="node">
<title>Node2</title>
<g id="a_node2"><a xlink:href="../../d3/d36/connect__wrap_8cc.html" target="_top" xlink:title="src/connect_wrap.cc">
<polygon fill="#ffffff" stroke="#000000" points="0,-.5 0,-18.5 107.1475,-18.5 107.1475,-.5 0,-.5"/>
<text text-anchor="middle" x="53.5737" y="-6.5" font-family="Helvetica,sans-Serif" font-size="10.00" fill="#000000">src/connect_wrap.cc</text>
</a>
</g>
</g>
<!-- Node1&#45;&gt;Node2 -->
<g id="edge1" class="edge">
<title>Node1&#45;&gt;Node2</title>
<path fill="none" stroke="#191970" d="M205.781,-52.6515C169.6451,-42.4068 118.1851,-27.8177 85.334,-18.5042"/>
<polygon fill="#191970" stroke="#191970" points="204.9631,-56.0575 215.5386,-55.4179 206.8724,-49.3229 204.9631,-56.0575"/>
</g>
<!-- Node3 -->
<g id="node3" class="node">
<title>Node3</title>
<g id="a_node3"><a xlink:href="../../d7/d47/connection__wrap_8cc.html" target="_top" xlink:title="src/connection_wrap.cc">
<polygon fill="#ffffff" stroke="#000000" points="125.3276,-.5 125.3276,-18.5 245.8198,-18.5 245.8198,-.5 125.3276,-.5"/>
<text text-anchor="middle" x="185.5737" y="-6.5" font-family="Helvetica,sans-Serif" font-size="10.00" fill="#000000">src/connection_wrap.cc</text>
</a>
</g>
</g>
<!-- Node1&#45;&gt;Node3 -->
<g id="edge2" class="edge">
<title>Node1&#45;&gt;Node3</title>
<path fill="none" stroke="#191970" d="M229.6322,-48.5841C218.7356,-38.9177 205.2048,-26.9147 196.0342,-18.7795"/>
<polygon fill="#191970" stroke="#191970" points="227.5323,-51.4 237.3357,-55.4179 232.1776,-46.1634 227.5323,-51.4"/>
</g>
<!-- Node4 -->
<g id="node4" class="node">
<title>Node4</title>
<g id="a_node4"><a xlink:href="../../d7/d2c/pipe__wrap_8cc.html" target="_top" xlink:title="src/pipe_wrap.cc">
<polygon fill="#ffffff" stroke="#000000" points="264.0591,-.5 264.0591,-18.5 355.0884,-18.5 355.0884,-.5 264.0591,-.5"/>
<text text-anchor="middle" x="309.5737" y="-6.5" font-family="Helvetica,sans-Serif" font-size="10.00" fill="#000000">src/pipe_wrap.cc</text>
</a>
</g>
</g>
<!-- Node1&#45;&gt;Node4 -->
<g id="edge3" class="edge">
<title>Node1&#45;&gt;Node4</title>
<path fill="none" stroke="#191970" d="M265.5152,-48.5841C276.4119,-38.9177 289.9426,-26.9147 299.1133,-18.7795"/>
<polygon fill="#191970" stroke="#191970" points="262.9699,-46.1634 257.8118,-55.4179 267.6152,-51.4 262.9699,-46.1634"/>
</g>
<!-- Node5 -->
<g id="node5" class="node">
<title>Node5</title>
<g id="a_node5"><a xlink:href="../../d3/dfb/tcp__wrap_8cc.html" target="_top" xlink:title="src/tcp_wrap.cc">
<polygon fill="#ffffff" stroke="#000000" points="372.8423,-.5 372.8423,-18.5 458.3052,-18.5 458.3052,-.5 372.8423,-.5"/>
<text text-anchor="middle" x="415.5737" y="-6.5" font-family="Helvetica,sans-Serif" font-size="10.00" fill="#000000">src/tcp_wrap.cc</text>
</a>
</g>
</g>
<!-- Node1&#45;&gt;Node5 -->
<g id="edge4" class="edge">
<title>Node1&#45;&gt;Node5</title>
<path fill="none" stroke="#191970" d="M284.9754,-52.2554C316.1983,-42.0336 359.9863,-27.6983 388.07,-18.5042"/>
<polygon fill="#191970" stroke="#191970" points="283.7302,-48.9802 275.3155,-55.4179 285.9082,-55.6328 283.7302,-48.9802"/>
</g>
</g>
</svg>
