<?xml version="1.0" encoding="UTF-8" standalone="no"?>
<!DOCTYPE svg PUBLIC "-//W3C//DTD SVG 1.1//EN"
 "http://www.w3.org/Graphics/SVG/1.1/DTD/svg11.dtd">
<!-- Generated by graphviz version 2.40.1 (20161225.0304)
 -->
<!-- Title: src/node_api.cc Pages: 1 -->
<!--zoomable 192 -->
<svg id="main" version="1.1" xmlns="http://www.w3.org/2000/svg" xmlns:xlink="http://www.w3.org/1999/xlink" xml:space="preserve" onload="init(evt)">
<style type="text/css"><![CDATA[
.edge:hover path { stroke: red; }
.edge:hover polygon { stroke: red; fill: red; }
]]></style>
<script type="text/javascript"><![CDATA[
var edges = document.getElementsByTagName('g');
if (edges && edges.length) {
  for (var i=0;i<edges.length;i++) {
    if (edges[i].id.substr(0,4)=='edge') {
      edges[i].setAttribute('class','edge');
    }
  }
}
]]></script>
        <defs>
                <circle id="rim" cx="0" cy="0" r="7"/>
                <circle id="rim2" cx="0" cy="0" r="3.5"/>
                <g id="zoomPlus">
                        <use xlink:href="#rim" fill="#404040">
                                <set attributeName="fill" to="#808080" begin="zoomplus.mouseover" end="zoomplus.mouseout"/>
                        </use>
                        <path d="M-4,0h8M0,-4v8" fill="none" stroke="white" stroke-width="1.5" pointer-events="none"/>
                </g>
                <g id="zoomMin">
                        <use xlink:href="#rim" fill="#404040">
                                <set attributeName="fill" to="#808080" begin="zoomminus.mouseover" end="zoomminus.mouseout"/>
                        </use>
                        <path d="M-4,0h8" fill="none" stroke="white" stroke-width="1.5" pointer-events="none"/>
                </g>
                <g id="dirArrow">
                        <path fill="none" stroke="white" stroke-width="1.5" d="M0,-3.0v7 M-2.5,-0.5L0,-3.0L2.5,-0.5"/>
                </g>
               <g id="resetDef">
                       <use xlink:href="#rim2" fill="#404040">
                               <set attributeName="fill" to="#808080" begin="reset.mouseover" end="reset.mouseout"/>
                       </use>
               </g>
        </defs>

<script type="text/javascript">
var viewWidth = 846;
var viewHeight = 192;
var sectionId = 'dynsection-0';
</script>
<script xlink:href="../../svgpan.js"/>
<svg id="graph" class="graph">
<g id="viewport">
<title>src/node_api.cc</title>
<polygon fill="#ffffff" stroke="transparent" points="-4,4 -4,-188 842.0122,-188 842.0122,4 -4,4"/>
<!-- Node0 -->
<g id="node1" class="node">
<title>Node0</title>
<polygon fill="#bfbfbf" stroke="#000000" points="462.4312,-165.5 462.4312,-183.5 548.4702,-183.5 548.4702,-165.5 462.4312,-165.5"/>
<text text-anchor="middle" x="505.4507" y="-171.5" font-family="Helvetica,sans-Serif" font-size="10.00" fill="#000000">src/node_api.cc</text>
</g>
<!-- Node1 -->
<g id="node2" class="node">
<title>Node1</title>
<g id="a_node2"><a xlink:href="../../d8/d1c/node__buffer_8h.html" target="_top" xlink:title="node_buffer.h">
<polygon fill="#ffffff" stroke="#000000" points="143.9526,-110.5 143.9526,-128.5 220.9487,-128.5 220.9487,-110.5 143.9526,-110.5"/>
<text text-anchor="middle" x="182.4507" y="-116.5" font-family="Helvetica,sans-Serif" font-size="10.00" fill="#000000">node_buffer.h</text>
</a>
</g>
</g>
<!-- Node0&#45;&gt;Node1 -->
<g id="edge1" class="edge">
<title>Node0&#45;&gt;Node1</title>
<path fill="none" stroke="#191970" d="M462.2246,-167.1395C402.3002,-156.9357 294.2845,-138.5429 231.4413,-127.8421"/>
<polygon fill="#191970" stroke="#191970" points="231.8276,-124.3575 221.3819,-126.1292 230.6525,-131.2582 231.8276,-124.3575"/>
</g>
<!-- Node8 -->
<g id="node9" class="node">
<title>Node8</title>
<g id="a_node9"><a xlink:href="../../d4/d14/node__object__wrap_8h.html" target="_top" xlink:title="node_object_wrap.h">
<polygon fill="#ffffff" stroke="#000000" points="35.4165,-55.5 35.4165,-73.5 141.4849,-73.5 141.4849,-55.5 35.4165,-55.5"/>
<text text-anchor="middle" x="88.4507" y="-61.5" font-family="Helvetica,sans-Serif" font-size="10.00" fill="#000000">node_object_wrap.h</text>
</a>
</g>
</g>
<!-- Node0&#45;&gt;Node8 -->
<g id="edge9" class="edge">
<title>Node0&#45;&gt;Node8</title>
<path fill="none" stroke="#191970" d="M462.0635,-167.4114C417.01,-159.6313 344.6834,-145.9624 283.4507,-129 258.9318,-122.2079 253.5592,-118.1296 229.4507,-110 194.7839,-98.31 155.1144,-85.5648 126.702,-76.5454"/>
<polygon fill="#191970" stroke="#191970" points="127.7384,-73.2023 117.1483,-73.5183 125.624,-79.8754 127.7384,-73.2023"/>
</g>
<!-- Node9 -->
<g id="node10" class="node">
<title>Node9</title>
<polygon fill="#ffffff" stroke="#bfbfbf" points="376.0542,-110.5 376.0542,-128.5 424.8472,-128.5 424.8472,-110.5 376.0542,-110.5"/>
<text text-anchor="middle" x="400.4507" y="-116.5" font-family="Helvetica,sans-Serif" font-size="10.00" fill="#000000">string.h</text>
</g>
<!-- Node0&#45;&gt;Node9 -->
<g id="edge12" class="edge">
<title>Node0&#45;&gt;Node9</title>
<path fill="none" stroke="#191970" d="M488.1121,-165.4179C471.4691,-156.7001 446.1012,-143.4122 426.9296,-133.3699"/>
<polygon fill="#191970" stroke="#191970" points="428.2974,-130.1353 417.8151,-128.5956 425.0493,-136.3362 428.2974,-130.1353"/>
</g>
<!-- Node10 -->
<g id="node11" class="node">
<title>Node10</title>
<polygon fill="#ffffff" stroke="#bfbfbf" points="442.8867,-110.5 442.8867,-128.5 500.0146,-128.5 500.0146,-110.5 442.8867,-110.5"/>
<text text-anchor="middle" x="471.4507" y="-116.5" font-family="Helvetica,sans-Serif" font-size="10.00" fill="#000000">algorithm</text>
</g>
<!-- Node0&#45;&gt;Node10 -->
<g id="edge13" class="edge">
<title>Node0&#45;&gt;Node10</title>
<path fill="none" stroke="#191970" d="M499.8363,-165.4179C495.1398,-157.8207 488.2978,-146.7527 482.5079,-137.3866"/>
<polygon fill="#191970" stroke="#191970" points="485.4224,-135.445 477.1871,-128.7795 479.4683,-139.1258 485.4224,-135.445"/>
</g>
<!-- Node11 -->
<g id="node12" class="node">
<title>Node11</title>
<polygon fill="#ffffff" stroke="#bfbfbf" points="517.835,-110.5 517.835,-128.5 561.0664,-128.5 561.0664,-110.5 517.835,-110.5"/>
<text text-anchor="middle" x="539.4507" y="-116.5" font-family="Helvetica,sans-Serif" font-size="10.00" fill="#000000">cmath</text>
</g>
<!-- Node0&#45;&gt;Node11 -->
<g id="edge14" class="edge">
<title>Node0&#45;&gt;Node11</title>
<path fill="none" stroke="#191970" d="M511.0651,-165.4179C515.7615,-157.8207 522.6036,-146.7527 528.3935,-137.3866"/>
<polygon fill="#191970" stroke="#191970" points="531.4331,-139.1258 533.7143,-128.7795 525.4789,-135.445 531.4331,-139.1258"/>
</g>
<!-- Node12 -->
<g id="node13" class="node">
<title>Node12</title>
<polygon fill="#ffffff" stroke="#bfbfbf" points="578.835,-110.5 578.835,-128.5 622.0664,-128.5 622.0664,-110.5 578.835,-110.5"/>
<text text-anchor="middle" x="600.4507" y="-116.5" font-family="Helvetica,sans-Serif" font-size="10.00" fill="#000000">vector</text>
</g>
<!-- Node0&#45;&gt;Node12 -->
<g id="edge15" class="edge">
<title>Node0&#45;&gt;Node12</title>
<path fill="none" stroke="#191970" d="M521.138,-165.4179C535.9897,-156.8195 558.5205,-143.7754 575.7776,-133.7844"/>
<polygon fill="#191970" stroke="#191970" points="577.8394,-136.635 584.7401,-128.5956 574.3321,-130.577 577.8394,-136.635"/>
</g>
<!-- Node13 -->
<g id="node14" class="node">
<title>Node13</title>
<polygon fill="#ffffff" stroke="#bfbfbf" points="640.3687,-110.5 640.3687,-128.5 674.5327,-128.5 674.5327,-110.5 640.3687,-110.5"/>
<text text-anchor="middle" x="657.4507" y="-116.5" font-family="Helvetica,sans-Serif" font-size="10.00" fill="#000000">uv.h</text>
</g>
<!-- Node0&#45;&gt;Node13 -->
<g id="edge16" class="edge">
<title>Node0&#45;&gt;Node13</title>
<path fill="none" stroke="#191970" d="M530.5623,-165.4634C554.1616,-156.9642 590.7033,-143.7863 630.7055,-129.2625"/>
<polygon fill="#191970" stroke="#191970" points="631.9079,-132.5496 640.1119,-125.8456 629.5178,-125.9702 631.9079,-132.5496"/>
</g>
<!-- Node14 -->
<g id="node15" class="node">
<title>Node14</title>
<g id="a_node15"><a xlink:href="../../d1/db7/node__api_8h.html" target="_top" xlink:title="node_api.h">
<polygon fill="#ffffff" stroke="#000000" points="292.7046,-110.5 292.7046,-128.5 358.1968,-128.5 358.1968,-110.5 292.7046,-110.5"/>
<text text-anchor="middle" x="325.4507" y="-116.5" font-family="Helvetica,sans-Serif" font-size="10.00" fill="#000000">node_api.h</text>
</a>
</g>
</g>
<!-- Node0&#45;&gt;Node14 -->
<g id="edge17" class="edge">
<title>Node0&#45;&gt;Node14</title>
<path fill="none" stroke="#191970" d="M475.7273,-165.4179C445.4124,-156.155 398.2115,-141.7325 364.8085,-131.526"/>
<polygon fill="#191970" stroke="#191970" points="365.5053,-128.0792 354.919,-128.5042 363.4597,-134.7737 365.5053,-128.0792"/>
</g>
<!-- Node18 -->
<g id="node19" class="node">
<title>Node18</title>
<g id="a_node19"><a xlink:href="../../d4/dbf/node__internals_8h.html" target="_top" xlink:title="node_internals.h">
<polygon fill="#ffffff" stroke="#000000" points="692.478,-110.5 692.478,-128.5 782.4233,-128.5 782.4233,-110.5 692.478,-110.5"/>
<text text-anchor="middle" x="737.4507" y="-116.5" font-family="Helvetica,sans-Serif" font-size="10.00" fill="#000000">node_internals.h</text>
</a>
</g>
</g>
<!-- Node0&#45;&gt;Node18 -->
<g id="edge23" class="edge">
<title>Node0&#45;&gt;Node18</title>
<path fill="none" stroke="#191970" d="M543.501,-165.4795C583.4533,-156.008 646.3662,-141.0933 689.6439,-130.8335"/>
<polygon fill="#191970" stroke="#191970" points="690.4567,-134.2379 699.3796,-128.5255 688.8419,-127.4267 690.4567,-134.2379"/>
</g>
<!-- Node19 -->
<g id="node20" class="node">
<title>Node19</title>
<g id="a_node20"><a xlink:href="../../d8/d3c/util_8h.html" target="_top" xlink:title="util.h">
<polygon fill="#ffffff" stroke="#000000" points="800.8892,-110.5 800.8892,-128.5 838.0122,-128.5 838.0122,-110.5 800.8892,-110.5"/>
<text text-anchor="middle" x="819.4507" y="-116.5" font-family="Helvetica,sans-Serif" font-size="10.00" fill="#000000">util.h</text>
</a>
</g>
</g>
<!-- Node0&#45;&gt;Node19 -->
<g id="edge24" class="edge">
<title>Node0&#45;&gt;Node19</title>
<path fill="none" stroke="#191970" d="M548.5437,-169.95C602.9393,-163.7016 699.4384,-150.9401 790.6542,-128.8328"/>
<polygon fill="#191970" stroke="#191970" points="791.7312,-132.1721 800.6018,-126.3788 790.0546,-125.3758 791.7312,-132.1721"/>
</g>
<!-- Node2 -->
<g id="node3" class="node">
<title>Node2</title>
<g id="a_node3"><a xlink:href="../../d1/d77/node_8h.html" target="_top" xlink:title="node.h">
<polygon fill="#ffffff" stroke="#000000" points="159.1577,-55.5 159.1577,-73.5 205.7437,-73.5 205.7437,-55.5 159.1577,-55.5"/>
<text text-anchor="middle" x="182.4507" y="-61.5" font-family="Helvetica,sans-Serif" font-size="10.00" fill="#000000">node.h</text>
</a>
</g>
</g>
<!-- Node1&#45;&gt;Node2 -->
<g id="edge2" class="edge">
<title>Node1&#45;&gt;Node2</title>
<path fill="none" stroke="#191970" d="M182.4507,-110.4179C182.4507,-103.2164 182.4507,-92.8962 182.4507,-83.8632"/>
<polygon fill="#191970" stroke="#191970" points="185.9508,-83.7794 182.4507,-73.7795 178.9508,-83.7795 185.9508,-83.7794"/>
</g>
<!-- Node3 -->
<g id="node4" class="node">
<title>Node3</title>
<polygon fill="#ffffff" stroke="#bfbfbf" points="0,-.5 0,-18.5 34.9014,-18.5 34.9014,-.5 0,-.5"/>
<text text-anchor="middle" x="17.4507" y="-6.5" font-family="Helvetica,sans-Serif" font-size="10.00" fill="#000000">v8.h</text>
</g>
<!-- Node1&#45;&gt;Node3 -->
<g id="edge8" class="edge">
<title>Node1&#45;&gt;Node3</title>
<path fill="none" stroke="#191970" d="M143.8426,-113.1516C102.8113,-105.587 41.7639,-91.7145 26.4507,-74 15.8321,-61.7163 14.2948,-42.9167 14.9916,-28.7772"/>
<polygon fill="#191970" stroke="#191970" points="18.4925,-28.9226 15.8986,-18.6502 11.5204,-28.2981 18.4925,-28.9226"/>
</g>
<!-- Node2&#45;&gt;Node3 -->
<g id="edge3" class="edge">
<title>Node2&#45;&gt;Node3</title>
<path fill="none" stroke="#191970" d="M158.7581,-57.0147C132.868,-48.7769 89.9524,-34.9524 44.7248,-19.3703"/>
<polygon fill="#191970" stroke="#191970" points="45.6387,-15.983 35.0439,-16.02 43.3493,-22.598 45.6387,-15.983"/>
</g>
<!-- Node4 -->
<g id="node5" class="node">
<title>Node4</title>
<g id="a_node5"><a xlink:href="../../da/d9c/node__version_8h.html" target="_top" xlink:title="node_version.h">
<polygon fill="#ffffff" stroke="#000000" points="122.2588,-.5 122.2588,-18.5 206.6426,-18.5 206.6426,-.5 122.2588,-.5"/>
<text text-anchor="middle" x="164.4507" y="-6.5" font-family="Helvetica,sans-Serif" font-size="10.00" fill="#000000">node_version.h</text>
</a>
</g>
</g>
<!-- Node2&#45;&gt;Node4 -->
<g id="edge4" class="edge">
<title>Node2&#45;&gt;Node4</title>
<path fill="none" stroke="#191970" d="M179.4783,-55.4179C177.0956,-48.1372 173.6696,-37.669 170.6904,-28.5659"/>
<polygon fill="#191970" stroke="#191970" points="173.9244,-27.1948 167.4876,-18.7795 167.2717,-29.3721 173.9244,-27.1948"/>
</g>
<!-- Node5 -->
<g id="node6" class="node">
<title>Node5</title>
<polygon fill="#ffffff" stroke="#bfbfbf" points="52.665,-.5 52.665,-18.5 104.2363,-18.5 104.2363,-.5 52.665,-.5"/>
<text text-anchor="middle" x="78.4507" y="-6.5" font-family="Helvetica,sans-Serif" font-size="10.00" fill="#000000">assert.h</text>
</g>
<!-- Node2&#45;&gt;Node5 -->
<g id="edge5" class="edge">
<title>Node2&#45;&gt;Node5</title>
<path fill="none" stroke="#191970" d="M165.2772,-55.4179C148.7927,-46.7001 123.6665,-33.4122 104.6774,-23.3699"/>
<polygon fill="#191970" stroke="#191970" points="106.1259,-20.1767 95.6497,-18.5956 102.8534,-26.3646 106.1259,-20.1767"/>
</g>
<!-- Node6 -->
<g id="node7" class="node">
<title>Node6</title>
<polygon fill="#ffffff" stroke="#bfbfbf" points="308.3301,-.5 308.3301,-18.5 356.5713,-18.5 356.5713,-.5 308.3301,-.5"/>
<text text-anchor="middle" x="332.4507" y="-6.5" font-family="Helvetica,sans-Serif" font-size="10.00" fill="#000000">stdint.h</text>
</g>
<!-- Node2&#45;&gt;Node6 -->
<g id="edge6" class="edge">
<title>Node2&#45;&gt;Node6</title>
<path fill="none" stroke="#191970" d="M205.8882,-55.9063C230.8012,-46.7715 270.4261,-32.2424 298.6994,-21.8755"/>
<polygon fill="#191970" stroke="#191970" points="300,-25.1265 308.1839,-18.3978 297.5902,-18.5544 300,-25.1265"/>
</g>
<!-- Node7 -->
<g id="node8" class="node">
<title>Node7</title>
<polygon fill="#ffffff" stroke="#bfbfbf" points="224.4409,-.5 224.4409,-18.5 290.4604,-18.5 290.4604,-.5 224.4409,-.5"/>
<text text-anchor="middle" x="257.4507" y="-6.5" font-family="Helvetica,sans-Serif" font-size="10.00" fill="#000000">sys/types.h</text>
</g>
<!-- Node2&#45;&gt;Node7 -->
<g id="edge7" class="edge">
<title>Node2&#45;&gt;Node7</title>
<path fill="none" stroke="#191970" d="M194.8354,-55.4179C206.2347,-47.0584 223.3644,-34.4966 236.8272,-24.6239"/>
<polygon fill="#191970" stroke="#191970" points="239.0533,-27.3317 245.0476,-18.5956 234.9137,-21.6869 239.0533,-27.3317"/>
</g>
<!-- Node8&#45;&gt;Node3 -->
<g id="edge10" class="edge">
<title>Node8&#45;&gt;Node3</title>
<path fill="none" stroke="#191970" d="M76.7265,-55.4179C66.1019,-47.1876 50.219,-34.8839 37.5676,-25.0836"/>
<polygon fill="#191970" stroke="#191970" points="39.4785,-22.1365 29.4296,-18.7795 35.1917,-27.6704 39.4785,-22.1365"/>
</g>
<!-- Node8&#45;&gt;Node5 -->
<g id="edge11" class="edge">
<title>Node8&#45;&gt;Node5</title>
<path fill="none" stroke="#191970" d="M86.7994,-55.4179C85.49,-48.2164 83.6136,-37.8962 81.9713,-28.8632"/>
<polygon fill="#191970" stroke="#191970" points="85.3703,-27.992 80.1379,-18.7795 78.4832,-29.2443 85.3703,-27.992"/>
</g>
<!-- Node15 -->
<g id="node16" class="node">
<title>Node15</title>
<polygon fill="#ffffff" stroke="#bfbfbf" points="374.6602,-.5 374.6602,-18.5 426.2412,-18.5 426.2412,-.5 374.6602,-.5"/>
<text text-anchor="middle" x="400.4507" y="-6.5" font-family="Helvetica,sans-Serif" font-size="10.00" fill="#000000">stddef.h</text>
</g>
<!-- Node14&#45;&gt;Node15 -->
<g id="edge18" class="edge">
<title>Node14&#45;&gt;Node15</title>
<path fill="none" stroke="#191970" d="M341.2,-110.4405C353.8321,-102.4004 371.1054,-89.5356 381.4507,-74 390.5495,-60.3362 395.3853,-42.2211 397.896,-28.6681"/>
<polygon fill="#191970" stroke="#191970" points="401.3903,-28.9794 399.5006,-18.5544 394.4768,-27.8824 401.3903,-28.9794"/>
</g>
<!-- Node16 -->
<g id="node17" class="node">
<title>Node16</title>
<polygon fill="#ffffff" stroke="#bfbfbf" points="428.1577,-55.5 428.1577,-73.5 484.7437,-73.5 484.7437,-55.5 428.1577,-55.5"/>
<text text-anchor="middle" x="456.4507" y="-61.5" font-family="Helvetica,sans-Serif" font-size="10.00" fill="#000000">stdbool.h</text>
</g>
<!-- Node14&#45;&gt;Node16 -->
<g id="edge19" class="edge">
<title>Node14&#45;&gt;Node16</title>
<path fill="none" stroke="#191970" d="M347.0827,-110.4179C368.4157,-101.4613 401.2386,-87.6806 425.3632,-77.552"/>
<polygon fill="#191970" stroke="#191970" points="426.9211,-80.6939 434.7866,-73.5956 424.2113,-74.2397 426.9211,-80.6939"/>
</g>
<!-- Node17 -->
<g id="node18" class="node">
<title>Node17</title>
<g id="a_node18"><a xlink:href="../../d6/d96/node__api__types_8h.html" target="_top" xlink:title="node_api_types.h">
<polygon fill="#ffffff" stroke="#000000" points="277.9731,-55.5 277.9731,-73.5 372.9282,-73.5 372.9282,-55.5 277.9731,-55.5"/>
<text text-anchor="middle" x="325.4507" y="-61.5" font-family="Helvetica,sans-Serif" font-size="10.00" fill="#000000">node_api_types.h</text>
</a>
</g>
</g>
<!-- Node14&#45;&gt;Node17 -->
<g id="edge20" class="edge">
<title>Node14&#45;&gt;Node17</title>
<path fill="none" stroke="#191970" d="M325.4507,-110.4179C325.4507,-103.2164 325.4507,-92.8962 325.4507,-83.8632"/>
<polygon fill="#191970" stroke="#191970" points="328.9508,-83.7794 325.4507,-73.7795 321.9508,-83.7795 328.9508,-83.7794"/>
</g>
<!-- Node17&#45;&gt;Node6 -->
<g id="edge22" class="edge">
<title>Node17&#45;&gt;Node6</title>
<path fill="none" stroke="#191970" d="M326.6066,-55.4179C327.5231,-48.2164 328.8366,-37.8962 329.9863,-28.8632"/>
<polygon fill="#191970" stroke="#191970" points="333.479,-29.1414 331.2697,-18.7795 326.535,-28.2575 333.479,-29.1414"/>
</g>
<!-- Node17&#45;&gt;Node15 -->
<g id="edge21" class="edge">
<title>Node17&#45;&gt;Node15</title>
<path fill="none" stroke="#191970" d="M337.8354,-55.4179C349.2347,-47.0584 366.3644,-34.4966 379.8272,-24.6239"/>
<polygon fill="#191970" stroke="#191970" points="382.0533,-27.3317 388.0476,-18.5956 377.9137,-21.6869 382.0533,-27.3317"/>
</g>
</g>
</svg>
        <g id="navigator" transform="translate(0 0)" fill="#404254">
                <rect fill="#f2f5e9" fill-opacity="0.5" stroke="#606060" stroke-width=".5" x="0" y="0" width="60" height="60"/>
                <use id="zoomplus" xlink:href="#zoomPlus" x="17" y="9" onmousedown="handleZoom(evt,'in')"/>
                <use id="zoomminus" xlink:href="#zoomMin" x="42" y="9" onmousedown="handleZoom(evt,'out')"/>
                <use id="reset" xlink:href="#resetDef" x="30" y="36" onmousedown="handleReset()"/>
                <g id="arrowUp" xlink:href="#dirArrow" transform="translate(30 24)" onmousedown="handlePan(0,-1)">
                  <use xlink:href="#rim" fill="#404040">
                        <set attributeName="fill" to="#808080" begin="arrowUp.mouseover" end="arrowUp.mouseout"/>
                  </use>
                  <path fill="none" stroke="white" stroke-width="1.5" d="M0,-3.0v7 M-2.5,-0.5L0,-3.0L2.5,-0.5"/>
                </g>
                <g id="arrowRight" xlink:href="#dirArrow" transform="rotate(90) translate(36 -43)" onmousedown="handlePan(1,0)">
                  <use xlink:href="#rim" fill="#404040">
                        <set attributeName="fill" to="#808080" begin="arrowRight.mouseover" end="arrowRight.mouseout"/>
                  </use>
                  <path fill="none" stroke="white" stroke-width="1.5" d="M0,-3.0v7 M-2.5,-0.5L0,-3.0L2.5,-0.5"/>
                </g>
                <g id="arrowDown" xlink:href="#dirArrow" transform="rotate(180) translate(-30 -48)" onmousedown="handlePan(0,1)">
                  <use xlink:href="#rim" fill="#404040">
                        <set attributeName="fill" to="#808080" begin="arrowDown.mouseover" end="arrowDown.mouseout"/>
                  </use>
                  <path fill="none" stroke="white" stroke-width="1.5" d="M0,-3.0v7 M-2.5,-0.5L0,-3.0L2.5,-0.5"/>
                </g>
                <g id="arrowLeft" xlink:href="#dirArrow" transform="rotate(270) translate(-36 17)" onmousedown="handlePan(-1,0)">
                  <use xlink:href="#rim" fill="#404040">
                        <set attributeName="fill" to="#808080" begin="arrowLeft.mouseover" end="arrowLeft.mouseout"/>
                  </use>
                  <path fill="none" stroke="white" stroke-width="1.5" d="M0,-3.0v7 M-2.5,-0.5L0,-3.0L2.5,-0.5"/>
                </g>
        </g>
        <svg viewBox="0 0 15 15" width="100%" height="30px" preserveAspectRatio="xMaxYMin meet">
         <g id="arrow_out" transform="scale(0.3 0.3)">
          <a xlink:href="node__api_8cc__incl_org.svg" target="_base">
           <rect id="button" ry="5" rx="5" y="6" x="6" height="38" width="38"
                fill="#f2f5e9" fill-opacity="0.5" stroke="#606060" stroke-width="1.0"/>
           <path id="arrow"
             d="M 11.500037,31.436501 C 11.940474,20.09759 22.043105,11.32322 32.158766,21.979434 L 37.068811,17.246167 C 37.068811,17.246167 37.088388,32 37.088388,32 L 22.160133,31.978069 C 22.160133,31.978069 26.997745,27.140456 26.997745,27.140456 C 18.528582,18.264221 13.291696,25.230495 11.500037,31.436501 z"
             style="fill:#404040;"/>
          </a>
         </g>
        </svg>
</svg>
