<?xml version="1.0" encoding="UTF-8" standalone="no"?>
<!DOCTYPE svg PUBLIC "-//W3C//DTD SVG 1.1//EN"
 "http://www.w3.org/Graphics/SVG/1.1/DTD/svg11.dtd">
<!-- Generated by graphviz version 2.40.1 (20161225.0304)
 -->
<!-- Title: src/tls_wrap.h Pages: 1 -->
<svg width="208pt" height="82pt"
 viewBox="0.00 0.00 208.02 82.00" xmlns="http://www.w3.org/2000/svg" xmlns:xlink="http://www.w3.org/1999/xlink">
<g id="graph0" class="graph" transform="scale(1 1) rotate(0) translate(4 78)">
<title>src/tls_wrap.h</title>
<polygon fill="#ffffff" stroke="transparent" points="-4,4 -4,-78 204.0244,-78 204.0244,4 -4,4"/>
<!-- Node1 -->
<g id="node1" class="node">
<title>Node1</title>
<polygon fill="#bfbfbf" stroke="#000000" points="65.1206,-55.5 65.1206,-73.5 142.8052,-73.5 142.8052,-55.5 65.1206,-55.5"/>
<text text-anchor="middle" x="103.9629" y="-61.5" font-family="Helvetica,sans-Serif" font-size="10.00" fill="#000000">src/tls_wrap.h</text>
</g>
<!-- Node2 -->
<g id="node2" class="node">
<title>Node2</title>
<g id="a_node2"><a xlink:href="../../d5/d61/node__crypto_8cc.html" target="_top" xlink:title="src/node_crypto.cc">
<polygon fill="#ffffff" stroke="#000000" points="0,-.5 0,-18.5 99.9258,-18.5 99.9258,-.5 0,-.5"/>
<text text-anchor="middle" x="49.9629" y="-6.5" font-family="Helvetica,sans-Serif" font-size="10.00" fill="#000000">src/node_crypto.cc</text>
</a>
</g>
</g>
<!-- Node1&#45;&gt;Node2 -->
<g id="edge1" class="edge">
<title>Node1&#45;&gt;Node2</title>
<path fill="none" stroke="#191970" d="M87.7755,-48.0129C78.3851,-38.4485 66.9043,-26.7552 59.0736,-18.7795"/>
<polygon fill="#191970" stroke="#191970" points="85.5425,-50.7343 95.0459,-55.4179 90.5374,-45.8301 85.5425,-50.7343"/>
</g>
<!-- Node3 -->
<g id="node3" class="node">
<title>Node3</title>
<g id="a_node3"><a xlink:href="../../da/de5/tls__wrap_8cc.html" target="_top" xlink:title="src/tls_wrap.cc">
<polygon fill="#ffffff" stroke="#000000" points="117.9014,-.5 117.9014,-18.5 200.0244,-18.5 200.0244,-.5 117.9014,-.5"/>
<text text-anchor="middle" x="158.9629" y="-6.5" font-family="Helvetica,sans-Serif" font-size="10.00" fill="#000000">src/tls_wrap.cc</text>
</a>
</g>
</g>
<!-- Node1&#45;&gt;Node3 -->
<g id="edge2" class="edge">
<title>Node1&#45;&gt;Node3</title>
<path fill="none" stroke="#191970" d="M120.1637,-48.2992C129.7801,-38.6828 141.628,-26.8349 149.6834,-18.7795"/>
<polygon fill="#191970" stroke="#191970" points="117.6412,-45.8719 113.045,-55.4179 122.591,-50.8217 117.6412,-45.8719"/>
</g>
</g>
</svg>
