<?xml version="1.0" encoding="UTF-8" standalone="no"?>
<!DOCTYPE svg PUBLIC "-//W3C//DTD SVG 1.1//EN"
 "http://www.w3.org/Graphics/SVG/1.1/DTD/svg11.dtd">
<!-- Generated by graphviz version 2.40.1 (20161225.0304)
 -->
<!-- Title: src/util.cc Pages: 1 -->
<svg width="450pt" height="192pt"
 viewBox="0.00 0.00 449.57 192.00" xmlns="http://www.w3.org/2000/svg" xmlns:xlink="http://www.w3.org/1999/xlink">
<g id="graph0" class="graph" transform="scale(1 1) rotate(0) translate(4 188)">
<title>src/util.cc</title>
<polygon fill="#ffffff" stroke="transparent" points="-4,4 -4,-188 445.5713,-188 445.5713,4 -4,4"/>
<!-- Node0 -->
<g id="node1" class="node">
<title>Node0</title>
<polygon fill="#bfbfbf" stroke="#000000" points="161.7266,-165.5 161.7266,-183.5 219.3965,-183.5 219.3965,-165.5 161.7266,-165.5"/>
<text text-anchor="middle" x="190.5615" y="-171.5" font-family="Helvetica,sans-Serif" font-size="10.00" fill="#000000">src/util.cc</text>
</g>
<!-- Node1 -->
<g id="node2" class="node">
<title>Node1</title>
<g id="a_node2"><a xlink:href="../../d8/d3c/util_8h.html" target="_top" xlink:title="util.h">
<polygon fill="#ffffff" stroke="#000000" points="0,-110.5 0,-128.5 37.123,-128.5 37.123,-110.5 0,-110.5"/>
<text text-anchor="middle" x="18.5615" y="-116.5" font-family="Helvetica,sans-Serif" font-size="10.00" fill="#000000">util.h</text>
</a>
</g>
</g>
<!-- Node0&#45;&gt;Node1 -->
<g id="edge1" class="edge">
<title>Node0&#45;&gt;Node1</title>
<path fill="none" stroke="#191970" d="M161.5436,-165.5279C134.3548,-157.0782 92.3519,-143.9149 46.9541,-129.0809"/>
<polygon fill="#191970" stroke="#191970" points="47.812,-125.679 37.2193,-125.8913 45.6324,-132.331 47.812,-125.679"/>
</g>
<!-- Node2 -->
<g id="node3" class="node">
<title>Node2</title>
<g id="a_node3"><a xlink:href="../../d8/dbe/string__bytes_8h.html" target="_top" xlink:title="string_bytes.h">
<polygon fill="#ffffff" stroke="#000000" points="55.4336,-110.5 55.4336,-128.5 133.6895,-128.5 133.6895,-110.5 55.4336,-110.5"/>
<text text-anchor="middle" x="94.5615" y="-116.5" font-family="Helvetica,sans-Serif" font-size="10.00" fill="#000000">string_bytes.h</text>
</a>
</g>
</g>
<!-- Node0&#45;&gt;Node2 -->
<g id="edge2" class="edge">
<title>Node0&#45;&gt;Node2</title>
<path fill="none" stroke="#191970" d="M174.7091,-165.4179C159.7011,-156.8195 136.9331,-143.7754 119.4943,-133.7844"/>
<polygon fill="#191970" stroke="#191970" points="120.8543,-130.5299 110.4375,-128.5956 117.3745,-136.6037 120.8543,-130.5299"/>
</g>
<!-- Node3 -->
<g id="node4" class="node">
<title>Node3</title>
<g id="a_node4"><a xlink:href="../../d8/d1c/node__buffer_8h.html" target="_top" xlink:title="node_buffer.h">
<polygon fill="#ffffff" stroke="#000000" points="152.0635,-110.5 152.0635,-128.5 229.0596,-128.5 229.0596,-110.5 152.0635,-110.5"/>
<text text-anchor="middle" x="190.5615" y="-116.5" font-family="Helvetica,sans-Serif" font-size="10.00" fill="#000000">node_buffer.h</text>
</a>
</g>
</g>
<!-- Node0&#45;&gt;Node3 -->
<g id="edge3" class="edge">
<title>Node0&#45;&gt;Node3</title>
<path fill="none" stroke="#191970" d="M190.5615,-165.4179C190.5615,-158.2164 190.5615,-147.8962 190.5615,-138.8632"/>
<polygon fill="#191970" stroke="#191970" points="194.0616,-138.7794 190.5615,-128.7795 187.0616,-138.7795 194.0616,-138.7794"/>
</g>
<!-- Node10 -->
<g id="node11" class="node">
<title>Node10</title>
<g id="a_node11"><a xlink:href="../../d4/dbf/node__internals_8h.html" target="_top" xlink:title="node_internals.h">
<polygon fill="#ffffff" stroke="#000000" points="246.5889,-110.5 246.5889,-128.5 336.5342,-128.5 336.5342,-110.5 246.5889,-110.5"/>
<text text-anchor="middle" x="291.5615" y="-116.5" font-family="Helvetica,sans-Serif" font-size="10.00" fill="#000000">node_internals.h</text>
</a>
</g>
</g>
<!-- Node0&#45;&gt;Node10 -->
<g id="edge11" class="edge">
<title>Node0&#45;&gt;Node10</title>
<path fill="none" stroke="#191970" d="M207.2396,-165.4179C223.1755,-156.7399 247.4274,-143.5334 265.8383,-133.5077"/>
<polygon fill="#191970" stroke="#191970" points="267.7502,-136.4519 274.8587,-128.5956 264.4025,-130.3043 267.7502,-136.4519"/>
</g>
<!-- Node11 -->
<g id="node12" class="node">
<title>Node11</title>
<polygon fill="#ffffff" stroke="#bfbfbf" points="354.8301,-110.5 354.8301,-128.5 400.293,-128.5 400.293,-110.5 354.8301,-110.5"/>
<text text-anchor="middle" x="377.5615" y="-116.5" font-family="Helvetica,sans-Serif" font-size="10.00" fill="#000000">stdio.h</text>
</g>
<!-- Node0&#45;&gt;Node11 -->
<g id="edge12" class="edge">
<title>Node0&#45;&gt;Node11</title>
<path fill="none" stroke="#191970" d="M219.4221,-166.0567C248.6102,-157.5112 295.2832,-143.8297 344.5982,-129.2785"/>
<polygon fill="#191970" stroke="#191970" points="345.8921,-132.5459 354.492,-126.3579 343.9102,-125.8323 345.8921,-132.5459"/>
</g>
<!-- Node4 -->
<g id="node5" class="node">
<title>Node4</title>
<g id="a_node5"><a xlink:href="../../d1/d77/node_8h.html" target="_top" xlink:title="node.h">
<polygon fill="#ffffff" stroke="#000000" points="199.2686,-55.5 199.2686,-73.5 245.8545,-73.5 245.8545,-55.5 199.2686,-55.5"/>
<text text-anchor="middle" x="222.5615" y="-61.5" font-family="Helvetica,sans-Serif" font-size="10.00" fill="#000000">node.h</text>
</a>
</g>
</g>
<!-- Node3&#45;&gt;Node4 -->
<g id="edge4" class="edge">
<title>Node3&#45;&gt;Node4</title>
<path fill="none" stroke="#191970" d="M195.8457,-110.4179C200.2198,-102.8998 206.5715,-91.9829 211.9842,-82.6799"/>
<polygon fill="#191970" stroke="#191970" points="215.1588,-84.1831 217.1626,-73.7795 209.1084,-80.6628 215.1588,-84.1831"/>
</g>
<!-- Node5 -->
<g id="node6" class="node">
<title>Node5</title>
<polygon fill="#ffffff" stroke="#bfbfbf" points="84.1108,-.5 84.1108,-18.5 119.0122,-18.5 119.0122,-.5 84.1108,-.5"/>
<text text-anchor="middle" x="101.5615" y="-6.5" font-family="Helvetica,sans-Serif" font-size="10.00" fill="#000000">v8.h</text>
</g>
<!-- Node3&#45;&gt;Node5 -->
<g id="edge10" class="edge">
<title>Node3&#45;&gt;Node5</title>
<path fill="none" stroke="#191970" d="M183.2783,-110.4982C168.4145,-92.1273 134.3798,-50.0619 115.254,-26.4233"/>
<polygon fill="#191970" stroke="#191970" points="117.9563,-24.1988 108.9454,-18.6261 112.5144,-28.6018 117.9563,-24.1988"/>
</g>
<!-- Node4&#45;&gt;Node5 -->
<g id="edge5" class="edge">
<title>Node4&#45;&gt;Node5</title>
<path fill="none" stroke="#191970" d="M202.5808,-55.4179C182.3498,-46.222 150.9312,-31.9408 128.5073,-21.7481"/>
<polygon fill="#191970" stroke="#191970" points="129.7606,-18.4732 119.2086,-17.5214 126.8639,-24.8458 129.7606,-18.4732"/>
</g>
<!-- Node6 -->
<g id="node7" class="node">
<title>Node6</title>
<g id="a_node7"><a xlink:href="../../da/d9c/node__version_8h.html" target="_top" xlink:title="node_version.h">
<polygon fill="#ffffff" stroke="#000000" points="137.3696,-.5 137.3696,-18.5 221.7534,-18.5 221.7534,-.5 137.3696,-.5"/>
<text text-anchor="middle" x="179.5615" y="-6.5" font-family="Helvetica,sans-Serif" font-size="10.00" fill="#000000">node_version.h</text>
</a>
</g>
</g>
<!-- Node4&#45;&gt;Node6 -->
<g id="edge6" class="edge">
<title>Node4&#45;&gt;Node6</title>
<path fill="none" stroke="#191970" d="M215.4609,-55.4179C209.3976,-47.6624 200.5064,-36.29 193.0897,-26.8035"/>
<polygon fill="#191970" stroke="#191970" points="195.733,-24.5018 186.8164,-18.7795 190.2183,-28.8133 195.733,-24.5018"/>
</g>
<!-- Node7 -->
<g id="node8" class="node">
<title>Node7</title>
<polygon fill="#ffffff" stroke="#bfbfbf" points="239.7759,-.5 239.7759,-18.5 291.3472,-18.5 291.3472,-.5 239.7759,-.5"/>
<text text-anchor="middle" x="265.5615" y="-6.5" font-family="Helvetica,sans-Serif" font-size="10.00" fill="#000000">assert.h</text>
</g>
<!-- Node4&#45;&gt;Node7 -->
<g id="edge7" class="edge">
<title>Node4&#45;&gt;Node7</title>
<path fill="none" stroke="#191970" d="M229.6621,-55.4179C235.7255,-47.6624 244.6166,-36.29 252.0333,-26.8035"/>
<polygon fill="#191970" stroke="#191970" points="254.9048,-28.8133 258.3067,-18.7795 249.3901,-24.5018 254.9048,-28.8133"/>
</g>
<!-- Node8 -->
<g id="node9" class="node">
<title>Node8</title>
<polygon fill="#ffffff" stroke="#bfbfbf" points="309.4409,-.5 309.4409,-18.5 357.6821,-18.5 357.6821,-.5 309.4409,-.5"/>
<text text-anchor="middle" x="333.5615" y="-6.5" font-family="Helvetica,sans-Serif" font-size="10.00" fill="#000000">stdint.h</text>
</g>
<!-- Node4&#45;&gt;Node8 -->
<g id="edge8" class="edge">
<title>Node4&#45;&gt;Node8</title>
<path fill="none" stroke="#191970" d="M240.8909,-55.4179C258.6456,-46.6205 285.793,-33.1691 306.1231,-23.0956"/>
<polygon fill="#191970" stroke="#191970" points="307.7985,-26.1716 315.2049,-18.5956 304.6906,-19.8994 307.7985,-26.1716"/>
</g>
<!-- Node9 -->
<g id="node10" class="node">
<title>Node9</title>
<polygon fill="#ffffff" stroke="#bfbfbf" points="375.5518,-.5 375.5518,-18.5 441.5713,-18.5 441.5713,-.5 375.5518,-.5"/>
<text text-anchor="middle" x="408.5615" y="-6.5" font-family="Helvetica,sans-Serif" font-size="10.00" fill="#000000">sys/types.h</text>
</g>
<!-- Node4&#45;&gt;Node9 -->
<g id="edge9" class="edge">
<title>Node4&#45;&gt;Node9</title>
<path fill="none" stroke="#191970" d="M246.1186,-57.5342C276.7667,-48.4716 330.7918,-32.4964 368.0718,-21.4728"/>
<polygon fill="#191970" stroke="#191970" points="369.5122,-24.6967 378.1093,-18.5047 367.5273,-17.984 369.5122,-24.6967"/>
</g>
</g>
</svg>
