<?xml version="1.0" encoding="UTF-8" standalone="no"?>
<!DOCTYPE svg PUBLIC "-//W3C//DTD SVG 1.1//EN"
 "http://www.w3.org/Graphics/SVG/1.1/DTD/svg11.dtd">
<!-- Generated by graphviz version 2.40.1 (20161225.0304)
 -->
<!-- Title: src/node_crypto_clienthello.h Pages: 1 -->
<svg width="258pt" height="82pt"
 viewBox="0.00 0.00 258.04 82.00" xmlns="http://www.w3.org/2000/svg" xmlns:xlink="http://www.w3.org/1999/xlink">
<g id="graph0" class="graph" transform="scale(1 1) rotate(0) translate(4 78)">
<title>src/node_crypto_clienthello.h</title>
<polygon fill="#ffffff" stroke="transparent" points="-4,4 -4,-78 254.0415,-78 254.0415,4 -4,4"/>
<!-- Node1 -->
<g id="node1" class="node">
<title>Node1</title>
<polygon fill="#bfbfbf" stroke="#000000" points="69.2192,-55.5 69.2192,-73.5 214.7407,-73.5 214.7407,-55.5 69.2192,-55.5"/>
<text text-anchor="middle" x="141.98" y="-61.5" font-family="Helvetica,sans-Serif" font-size="10.00" fill="#000000">src/node_crypto_clienthello.h</text>
</g>
<!-- Node2 -->
<g id="node2" class="node">
<title>Node2</title>
<g id="a_node2"><a xlink:href="../../d5/df7/node__crypto__clienthello_8cc.html" target="_top" xlink:title="src/node_crypto_clienthello.cc">
<polygon fill="#ffffff" stroke="#000000" points="0,-.5 0,-18.5 149.96,-18.5 149.96,-.5 0,-.5"/>
<text text-anchor="middle" x="74.98" y="-6.5" font-family="Helvetica,sans-Serif" font-size="10.00" fill="#000000">src/node_crypto_clienthello.cc</text>
</a>
</g>
</g>
<!-- Node1&#45;&gt;Node2 -->
<g id="edge1" class="edge">
<title>Node1&#45;&gt;Node2</title>
<path fill="none" stroke="#191970" d="M122.9371,-48.8678C111.1033,-39.1535 96.2914,-26.9944 86.284,-18.7795"/>
<polygon fill="#191970" stroke="#191970" points="120.9662,-51.7782 130.9163,-55.4179 125.4077,-46.3676 120.9662,-51.7782"/>
</g>
<!-- Node3 -->
<g id="node3" class="node">
<title>Node3</title>
<g id="a_node3"><a xlink:href="../../da/de5/tls__wrap_8cc.html" target="_top" xlink:title="src/tls_wrap.cc">
<polygon fill="#ffffff" stroke="#000000" points="167.9185,-.5 167.9185,-18.5 250.0415,-18.5 250.0415,-.5 167.9185,-.5"/>
<text text-anchor="middle" x="208.98" y="-6.5" font-family="Helvetica,sans-Serif" font-size="10.00" fill="#000000">src/tls_wrap.cc</text>
</a>
</g>
</g>
<!-- Node1&#45;&gt;Node3 -->
<g id="edge2" class="edge">
<title>Node1&#45;&gt;Node3</title>
<path fill="none" stroke="#191970" d="M161.0229,-48.8678C172.8567,-39.1535 187.6686,-26.9944 197.6759,-18.7795"/>
<polygon fill="#191970" stroke="#191970" points="158.5522,-46.3676 153.0437,-55.4179 162.9937,-51.7782 158.5522,-46.3676"/>
</g>
</g>
</svg>
