<?xml version="1.0" encoding="UTF-8" standalone="no"?>
<!DOCTYPE svg PUBLIC "-//W3C//DTD SVG 1.1//EN"
 "http://www.w3.org/Graphics/SVG/1.1/DTD/svg11.dtd">
<!-- Generated by graphviz version 2.40.1 (20161225.0304)
 -->
<!-- Title: src/node_crypto_clienthello&#45;inl.h Pages: 1 -->
<svg width="258pt" height="92pt"
 viewBox="0.00 0.00 258.04 92.00" xmlns="http://www.w3.org/2000/svg" xmlns:xlink="http://www.w3.org/1999/xlink">
<g id="graph0" class="graph" transform="scale(1 1) rotate(0) translate(4 88)">
<title>src/node_crypto_clienthello&#45;inl.h</title>
<polygon fill="#ffffff" stroke="transparent" points="-4,4 -4,-88 254.0415,-88 254.0415,4 -4,4"/>
<!-- Node1 -->
<g id="node1" class="node">
<title>Node1</title>
<polygon fill="#bfbfbf" stroke="#000000" points="73.3892,-55.5 73.3892,-83.5 210.5708,-83.5 210.5708,-55.5 73.3892,-55.5"/>
<text text-anchor="start" x="81.3892" y="-71.5" font-family="Helvetica,sans-Serif" font-size="10.00" fill="#000000">src/node_crypto_clienthello</text>
<text text-anchor="middle" x="141.98" y="-61.5" font-family="Helvetica,sans-Serif" font-size="10.00" fill="#000000">&#45;inl.h</text>
</g>
<!-- Node2 -->
<g id="node2" class="node">
<title>Node2</title>
<g id="a_node2"><a xlink:href="../../d5/df7/node__crypto__clienthello_8cc.html" target="_top" xlink:title="src/node_crypto_clienthello.cc">
<polygon fill="#ffffff" stroke="#000000" points="0,-.5 0,-18.5 149.96,-18.5 149.96,-.5 0,-.5"/>
<text text-anchor="middle" x="74.98" y="-6.5" font-family="Helvetica,sans-Serif" font-size="10.00" fill="#000000">src/node_crypto_clienthello.cc</text>
</a>
</g>
</g>
<!-- Node1&#45;&gt;Node2 -->
<g id="edge1" class="edge">
<title>Node1&#45;&gt;Node2</title>
<path fill="none" stroke="#191970" d="M118.5389,-48.508C107.1101,-38.2733 93.9597,-26.4967 85.124,-18.5842"/>
<polygon fill="#191970" stroke="#191970" points="116.3175,-51.2169 126.1019,-55.2808 120.9873,-46.0023 116.3175,-51.2169"/>
</g>
<!-- Node3 -->
<g id="node3" class="node">
<title>Node3</title>
<g id="a_node3"><a xlink:href="../../da/de5/tls__wrap_8cc.html" target="_top" xlink:title="src/tls_wrap.cc">
<polygon fill="#ffffff" stroke="#000000" points="167.9185,-.5 167.9185,-18.5 250.0415,-18.5 250.0415,-.5 167.9185,-.5"/>
<text text-anchor="middle" x="208.98" y="-6.5" font-family="Helvetica,sans-Serif" font-size="10.00" fill="#000000">src/tls_wrap.cc</text>
</a>
</g>
</g>
<!-- Node1&#45;&gt;Node3 -->
<g id="edge2" class="edge">
<title>Node1&#45;&gt;Node3</title>
<path fill="none" stroke="#191970" d="M165.421,-48.508C176.8498,-38.2733 190.0003,-26.4967 198.836,-18.5842"/>
<polygon fill="#191970" stroke="#191970" points="162.9726,-46.0023 157.858,-55.2808 167.6425,-51.2169 162.9726,-46.0023"/>
</g>
</g>
</svg>
