<?xml version="1.0" encoding="UTF-8" standalone="no"?>
<!DOCTYPE svg PUBLIC "-//W3C//DTD SVG 1.1//EN"
 "http://www.w3.org/Graphics/SVG/1.1/DTD/svg11.dtd">
<!-- Generated by graphviz version 2.40.1 (20161225.0304)
 -->
<!-- Title: src/tracing/node_trace_buffer.h Pages: 1 -->
<svg width="392pt" height="212pt"
 viewBox="0.00 0.00 392.27 212.00" xmlns="http://www.w3.org/2000/svg" xmlns:xlink="http://www.w3.org/1999/xlink">
<g id="graph0" class="graph" transform="scale(1 1) rotate(0) translate(4 208)">
<title>src/tracing/node_trace_buffer.h</title>
<polygon fill="#ffffff" stroke="transparent" points="-4,4 -4,-208 388.2656,-208 388.2656,4 -4,4"/>
<!-- Node0 -->
<g id="node1" class="node">
<title>Node0</title>
<polygon fill="#bfbfbf" stroke="#000000" points="142.2192,-175.5 142.2192,-203.5 257.1597,-203.5 257.1597,-175.5 142.2192,-175.5"/>
<text text-anchor="start" x="150.2192" y="-191.5" font-family="Helvetica,sans-Serif" font-size="10.00" fill="#000000">src/tracing/node_trace</text>
<text text-anchor="middle" x="199.6895" y="-181.5" font-family="Helvetica,sans-Serif" font-size="10.00" fill="#000000">_buffer.h</text>
</g>
<!-- Node1 -->
<g id="node2" class="node">
<title>Node1</title>
<g id="a_node2"><a xlink:href="../../d8/dc3/node__mutex_8h.html" target="_top" xlink:title="node_mutex.h">
<polygon fill="#ffffff" stroke="#000000" points="0,-55.5 0,-73.5 79.3789,-73.5 79.3789,-55.5 0,-55.5"/>
<text text-anchor="middle" x="39.6895" y="-61.5" font-family="Helvetica,sans-Serif" font-size="10.00" fill="#000000">node_mutex.h</text>
</a>
</g>
</g>
<!-- Node0&#45;&gt;Node1 -->
<g id="edge1" class="edge">
<title>Node0&#45;&gt;Node1</title>
<path fill="none" stroke="#191970" d="M165.3771,-175.3058C146.1688,-166.4467 122.3962,-153.9018 103.6895,-139 82.9527,-122.4811 63.7965,-98.5459 51.9505,-82.2969"/>
<polygon fill="#191970" stroke="#191970" points="54.5096,-79.8558 45.8638,-73.732 48.8037,-83.9108 54.5096,-79.8558"/>
</g>
<!-- Node4 -->
<g id="node5" class="node">
<title>Node4</title>
<g id="a_node5"><a xlink:href="../../de/da5/node__trace__writer_8h.html" target="_top" xlink:title="tracing/node_trace\l_writer.h">
<polygon fill="#ffffff" stroke="#000000" points="112.2734,-110.5 112.2734,-138.5 211.1055,-138.5 211.1055,-110.5 112.2734,-110.5"/>
<text text-anchor="start" x="120.2734" y="-126.5" font-family="Helvetica,sans-Serif" font-size="10.00" fill="#000000">tracing/node_trace</text>
<text text-anchor="middle" x="161.6895" y="-116.5" font-family="Helvetica,sans-Serif" font-size="10.00" fill="#000000">_writer.h</text>
</a>
</g>
</g>
<!-- Node0&#45;&gt;Node4 -->
<g id="edge4" class="edge">
<title>Node0&#45;&gt;Node4</title>
<path fill="none" stroke="#191970" d="M191.444,-175.396C186.6636,-167.219 180.5289,-156.7254 175.0731,-147.393"/>
<polygon fill="#191970" stroke="#191970" points="177.9874,-145.443 169.9188,-138.5765 171.9443,-148.9759 177.9874,-145.443"/>
</g>
<!-- Node7 -->
<g id="node8" class="node">
<title>Node7</title>
<polygon fill="#ffffff" stroke="#bfbfbf" points="267.1133,-55.5 267.1133,-73.5 384.2656,-73.5 384.2656,-55.5 267.1133,-55.5"/>
<text text-anchor="middle" x="325.6895" y="-61.5" font-family="Helvetica,sans-Serif" font-size="10.00" fill="#000000">libplatform/v8&#45;tracing.h</text>
</g>
<!-- Node0&#45;&gt;Node7 -->
<g id="edge10" class="edge">
<title>Node0&#45;&gt;Node7</title>
<path fill="none" stroke="#191970" d="M207.8354,-175.4229C218.0369,-158.5735 236.7395,-130.1163 257.6895,-110 270.3432,-97.8498 286.6137,-86.8334 300.0665,-78.6845"/>
<polygon fill="#191970" stroke="#191970" points="302.0025,-81.6065 308.8508,-73.5225 298.4559,-75.5715 302.0025,-81.6065"/>
</g>
<!-- Node8 -->
<g id="node9" class="node">
<title>Node8</title>
<polygon fill="#ffffff" stroke="#bfbfbf" points="266.9629,-115.5 266.9629,-133.5 312.416,-133.5 312.416,-115.5 266.9629,-115.5"/>
<text text-anchor="middle" x="289.6895" y="-121.5" font-family="Helvetica,sans-Serif" font-size="10.00" fill="#000000">atomic</text>
</g>
<!-- Node0&#45;&gt;Node8 -->
<g id="edge11" class="edge">
<title>Node0&#45;&gt;Node8</title>
<path fill="none" stroke="#191970" d="M219.2181,-175.396C233.9118,-164.7838 254.0081,-150.2699 268.9809,-139.4562"/>
<polygon fill="#191970" stroke="#191970" points="271.0674,-142.2666 277.125,-133.5743 266.969,-136.5919 271.0674,-142.2666"/>
</g>
<!-- Node2 -->
<g id="node3" class="node">
<title>Node2</title>
<g id="a_node3"><a xlink:href="../../d8/d3c/util_8h.html" target="_top" xlink:title="util.h">
<polygon fill="#ffffff" stroke="#000000" points="21.1279,-.5 21.1279,-18.5 58.251,-18.5 58.251,-.5 21.1279,-.5"/>
<text text-anchor="middle" x="39.6895" y="-6.5" font-family="Helvetica,sans-Serif" font-size="10.00" fill="#000000">util.h</text>
</a>
</g>
</g>
<!-- Node1&#45;&gt;Node2 -->
<g id="edge2" class="edge">
<title>Node1&#45;&gt;Node2</title>
<path fill="none" stroke="#191970" d="M39.6895,-55.4179C39.6895,-48.2164 39.6895,-37.8962 39.6895,-28.8632"/>
<polygon fill="#191970" stroke="#191970" points="43.1896,-28.7794 39.6895,-18.7795 36.1896,-28.7795 43.1896,-28.7794"/>
</g>
<!-- Node3 -->
<g id="node4" class="node">
<title>Node3</title>
<polygon fill="#ffffff" stroke="#bfbfbf" points="83.6074,-.5 83.6074,-18.5 117.7715,-18.5 117.7715,-.5 83.6074,-.5"/>
<text text-anchor="middle" x="100.6895" y="-6.5" font-family="Helvetica,sans-Serif" font-size="10.00" fill="#000000">uv.h</text>
</g>
<!-- Node1&#45;&gt;Node3 -->
<g id="edge3" class="edge">
<title>Node1&#45;&gt;Node3</title>
<path fill="none" stroke="#191970" d="M49.7624,-55.4179C58.715,-47.3458 72.0132,-35.3556 82.7758,-25.6517"/>
<polygon fill="#191970" stroke="#191970" points="85.3145,-28.0753 90.3977,-18.7795 80.627,-22.8764 85.3145,-28.0753"/>
</g>
<!-- Node4&#45;&gt;Node1 -->
<g id="edge7" class="edge">
<title>Node4&#45;&gt;Node1</title>
<path fill="none" stroke="#191970" d="M133.0859,-110.4327C113.2338,-100.6693 86.9327,-87.7344 67.3004,-78.0792"/>
<polygon fill="#191970" stroke="#191970" points="68.7741,-74.9036 58.2559,-73.6311 65.6848,-81.185 68.7741,-74.9036"/>
</g>
<!-- Node4&#45;&gt;Node3 -->
<g id="edge9" class="edge">
<title>Node4&#45;&gt;Node3</title>
<path fill="none" stroke="#191970" d="M150.6901,-110.4613C143.302,-100.6189 133.6773,-86.9565 126.6895,-74 118.7195,-59.2226 111.7362,-41.4671 107.0194,-28.3294"/>
<polygon fill="#191970" stroke="#191970" points="110.2082,-26.8429 103.6185,-18.5467 103.5963,-29.1415 110.2082,-26.8429"/>
</g>
<!-- Node5 -->
<g id="node6" class="node">
<title>Node5</title>
<polygon fill="#ffffff" stroke="#bfbfbf" points="135.9087,-55.5 135.9087,-73.5 187.4702,-73.5 187.4702,-55.5 135.9087,-55.5"/>
<text text-anchor="middle" x="161.6895" y="-61.5" font-family="Helvetica,sans-Serif" font-size="10.00" fill="#000000">sstream</text>
</g>
<!-- Node4&#45;&gt;Node5 -->
<g id="edge5" class="edge">
<title>Node4&#45;&gt;Node5</title>
<path fill="none" stroke="#191970" d="M161.6895,-110.2808C161.6895,-102.3776 161.6895,-92.4316 161.6895,-83.8308"/>
<polygon fill="#191970" stroke="#191970" points="165.1896,-83.5842 161.6895,-73.5842 158.1896,-83.5842 165.1896,-83.5842"/>
</g>
<!-- Node6 -->
<g id="node7" class="node">
<title>Node6</title>
<polygon fill="#ffffff" stroke="#bfbfbf" points="205.7856,-55.5 205.7856,-73.5 249.5933,-73.5 249.5933,-55.5 205.7856,-55.5"/>
<text text-anchor="middle" x="227.6895" y="-61.5" font-family="Helvetica,sans-Serif" font-size="10.00" fill="#000000">queue</text>
</g>
<!-- Node4&#45;&gt;Node6 -->
<g id="edge6" class="edge">
<title>Node4&#45;&gt;Node6</title>
<path fill="none" stroke="#191970" d="M177.3305,-110.2808C187.1963,-101.312 199.9558,-89.7124 210.1625,-80.4335"/>
<polygon fill="#191970" stroke="#191970" points="212.6518,-82.9007 217.6968,-73.5842 207.9431,-77.7211 212.6518,-82.9007"/>
</g>
<!-- Node4&#45;&gt;Node7 -->
<g id="edge8" class="edge">
<title>Node4&#45;&gt;Node7</title>
<path fill="none" stroke="#191970" d="M200.1402,-110.4327C227.6757,-100.3587 264.4408,-86.908 291.0644,-77.1677"/>
<polygon fill="#191970" stroke="#191970" points="292.5425,-80.3539 300.7312,-73.6311 290.1374,-73.78 292.5425,-80.3539"/>
</g>
</g>
</svg>
