<?xml version="1.0" encoding="UTF-8" standalone="no"?>
<!DOCTYPE svg PUBLIC "-//W3C//DTD SVG 1.1//EN"
 "http://www.w3.org/Graphics/SVG/1.1/DTD/svg11.dtd">
<!-- Generated by graphviz version 2.40.1 (20161225.0304)
 -->
<!-- Title: src/node_platform.h Pages: 1 -->
<svg width="386pt" height="137pt"
 viewBox="0.00 0.00 385.99 137.00" xmlns="http://www.w3.org/2000/svg" xmlns:xlink="http://www.w3.org/1999/xlink">
<g id="graph0" class="graph" transform="scale(1 1) rotate(0) translate(4 133)">
<title>src/node_platform.h</title>
<polygon fill="#ffffff" stroke="transparent" points="-4,4 -4,-133 381.9858,-133 381.9858,4 -4,4"/>
<!-- Node0 -->
<g id="node1" class="node">
<title>Node0</title>
<polygon fill="#bfbfbf" stroke="#000000" points="130.7144,-110.5 130.7144,-128.5 235.0933,-128.5 235.0933,-110.5 130.7144,-110.5"/>
<text text-anchor="middle" x="182.9038" y="-116.5" font-family="Helvetica,sans-Serif" font-size="10.00" fill="#000000">src/node_platform.h</text>
</g>
<!-- Node1 -->
<g id="node2" class="node">
<title>Node1</title>
<polygon fill="#ffffff" stroke="#bfbfbf" points="0,-55.5 0,-73.5 43.8076,-73.5 43.8076,-55.5 0,-55.5"/>
<text text-anchor="middle" x="21.9038" y="-61.5" font-family="Helvetica,sans-Serif" font-size="10.00" fill="#000000">queue</text>
</g>
<!-- Node0&#45;&gt;Node1 -->
<g id="edge1" class="edge">
<title>Node0&#45;&gt;Node1</title>
<path fill="none" stroke="#191970" d="M156.3179,-110.4179C128.0725,-100.7688 83.438,-85.521 53.437,-75.2722"/>
<polygon fill="#191970" stroke="#191970" points="54.463,-71.9242 43.8685,-72.0035 52.2001,-78.5483 54.463,-71.9242"/>
</g>
<!-- Node2 -->
<g id="node3" class="node">
<title>Node2</title>
<polygon fill="#ffffff" stroke="#bfbfbf" points="62.2881,-55.5 62.2881,-73.5 105.5195,-73.5 105.5195,-55.5 62.2881,-55.5"/>
<text text-anchor="middle" x="83.9038" y="-61.5" font-family="Helvetica,sans-Serif" font-size="10.00" fill="#000000">vector</text>
</g>
<!-- Node0&#45;&gt;Node2 -->
<g id="edge2" class="edge">
<title>Node0&#45;&gt;Node2</title>
<path fill="none" stroke="#191970" d="M166.556,-110.4179C150.9357,-101.7399 127.164,-88.5334 109.1176,-78.5077"/>
<polygon fill="#191970" stroke="#191970" points="110.7173,-75.3925 100.2759,-73.5956 107.3177,-81.5117 110.7173,-75.3925"/>
</g>
<!-- Node3 -->
<g id="node4" class="node">
<title>Node3</title>
<polygon fill="#ffffff" stroke="#bfbfbf" points="123.2168,-55.5 123.2168,-73.5 242.5908,-73.5 242.5908,-55.5 123.2168,-55.5"/>
<text text-anchor="middle" x="182.9038" y="-61.5" font-family="Helvetica,sans-Serif" font-size="10.00" fill="#000000">libplatform/libplatform.h</text>
</g>
<!-- Node0&#45;&gt;Node3 -->
<g id="edge3" class="edge">
<title>Node0&#45;&gt;Node3</title>
<path fill="none" stroke="#191970" d="M182.9038,-110.4179C182.9038,-103.2164 182.9038,-92.8962 182.9038,-83.8632"/>
<polygon fill="#191970" stroke="#191970" points="186.4039,-83.7794 182.9038,-73.7795 179.4039,-83.7795 186.4039,-83.7794"/>
</g>
<!-- Node4 -->
<g id="node5" class="node">
<title>Node4</title>
<g id="a_node5"><a xlink:href="../../d8/dc3/node__mutex_8h.html" target="_top" xlink:title="node_mutex.h">
<polygon fill="#ffffff" stroke="#000000" points="260.2144,-55.5 260.2144,-73.5 339.5933,-73.5 339.5933,-55.5 260.2144,-55.5"/>
<text text-anchor="middle" x="299.9038" y="-61.5" font-family="Helvetica,sans-Serif" font-size="10.00" fill="#000000">node_mutex.h</text>
</a>
</g>
</g>
<!-- Node0&#45;&gt;Node4 -->
<g id="edge4" class="edge">
<title>Node0&#45;&gt;Node4</title>
<path fill="none" stroke="#191970" d="M202.224,-110.4179C221.0231,-101.5807 249.8123,-88.0473 271.2727,-77.9591"/>
<polygon fill="#191970" stroke="#191970" points="272.994,-81.0174 280.5549,-73.5956 270.016,-74.6824 272.994,-81.0174"/>
</g>
<!-- Node6 -->
<g id="node7" class="node">
<title>Node6</title>
<polygon fill="#ffffff" stroke="#bfbfbf" points="343.8218,-.5 343.8218,-18.5 377.9858,-18.5 377.9858,-.5 343.8218,-.5"/>
<text text-anchor="middle" x="360.9038" y="-6.5" font-family="Helvetica,sans-Serif" font-size="10.00" fill="#000000">uv.h</text>
</g>
<!-- Node0&#45;&gt;Node6 -->
<g id="edge7" class="edge">
<title>Node0&#45;&gt;Node6</title>
<path fill="none" stroke="#191970" d="M235.2217,-111.3497C277.891,-103.6221 333.5299,-90.7158 348.9038,-74 359.9768,-61.9606 362.4027,-43.1311 362.3986,-28.9184"/>
<polygon fill="#191970" stroke="#191970" points="365.8881,-28.5807 361.9931,-18.7278 358.8936,-28.8591 365.8881,-28.5807"/>
</g>
<!-- Node5 -->
<g id="node6" class="node">
<title>Node5</title>
<g id="a_node6"><a xlink:href="../../d8/d3c/util_8h.html" target="_top" xlink:title="util.h">
<polygon fill="#ffffff" stroke="#000000" points="281.3423,-.5 281.3423,-18.5 318.4653,-18.5 318.4653,-.5 281.3423,-.5"/>
<text text-anchor="middle" x="299.9038" y="-6.5" font-family="Helvetica,sans-Serif" font-size="10.00" fill="#000000">util.h</text>
</a>
</g>
</g>
<!-- Node4&#45;&gt;Node5 -->
<g id="edge5" class="edge">
<title>Node4&#45;&gt;Node5</title>
<path fill="none" stroke="#191970" d="M299.9038,-55.4179C299.9038,-48.2164 299.9038,-37.8962 299.9038,-28.8632"/>
<polygon fill="#191970" stroke="#191970" points="303.4039,-28.7794 299.9038,-18.7795 296.4039,-28.7795 303.4039,-28.7794"/>
</g>
<!-- Node4&#45;&gt;Node6 -->
<g id="edge6" class="edge">
<title>Node4&#45;&gt;Node6</title>
<path fill="none" stroke="#191970" d="M309.9767,-55.4179C318.9293,-47.3458 332.2276,-35.3556 342.9901,-25.6517"/>
<polygon fill="#191970" stroke="#191970" points="345.5289,-28.0753 350.612,-18.7795 340.8414,-22.8764 345.5289,-28.0753"/>
</g>
</g>
</svg>
