<?xml version="1.0" encoding="UTF-8" standalone="no"?>
<!DOCTYPE svg PUBLIC "-//W3C//DTD SVG 1.1//EN"
 "http://www.w3.org/Graphics/SVG/1.1/DTD/svg11.dtd">
<!-- Generated by graphviz version 2.40.1 (20161225.0304)
 -->
<!-- Title: node_http_request_t Pages: 1 -->
<svg width="121pt" height="112pt"
 viewBox="0.00 0.00 121.34 112.00" xmlns="http://www.w3.org/2000/svg" xmlns:xlink="http://www.w3.org/1999/xlink">
<g id="graph0" class="graph" transform="scale(1 1) rotate(0) translate(4 108)">
<title>node_http_request_t</title>
<polygon fill="#ffffff" stroke="transparent" points="-4,4 -4,-108 117.3394,-108 117.3394,4 -4,4"/>
<!-- Node1 -->
<g id="node1" class="node">
<title>Node1</title>
<polygon fill="#bfbfbf" stroke="#000000" points="0,-.5 0,-18.5 107.7432,-18.5 107.7432,-.5 0,-.5"/>
<text text-anchor="middle" x="53.8716" y="-6.5" font-family="Helvetica,sans-Serif" font-size="10.00" fill="#000000">node_http_request_t</text>
</g>
<!-- Node2 -->
<g id="node2" class="node">
<title>Node2</title>
<polygon fill="#ffffff" stroke="#bfbfbf" points="33.645,-85.5 33.645,-103.5 74.0981,-103.5 74.0981,-85.5 33.645,-85.5"/>
<text text-anchor="middle" x="53.8716" y="-91.5" font-family="Helvetica,sans-Serif" font-size="10.00" fill="#000000">string</text>
</g>
<!-- Node2&#45;&gt;Node1 -->
<g id="edge1" class="edge">
<title>Node2&#45;&gt;Node1</title>
<path fill="none" stroke="#9a32cd" stroke-dasharray="5,2" d="M53.8716,-75.3165C53.8716,-57.5727 53.8716,-31.9761 53.8716,-18.5311"/>
<polygon fill="#9a32cd" stroke="#9a32cd" points="50.3717,-75.4035 53.8716,-85.4035 57.3717,-75.4035 50.3717,-75.4035"/>
<text text-anchor="middle" x="83.6055" y="-59" font-family="Helvetica,sans-Serif" font-size="10.00" fill="#000000"> method</text>
<text text-anchor="middle" x="83.6055" y="-49" font-family="Helvetica,sans-Serif" font-size="10.00" fill="#000000">forwardedFor</text>
<text text-anchor="middle" x="83.6055" y="-39" font-family="Helvetica,sans-Serif" font-size="10.00" fill="#000000">url</text>
</g>
</g>
</svg>
