<?xml version="1.0" encoding="UTF-8" standalone="no"?>
<!DOCTYPE svg PUBLIC "-//W3C//DTD SVG 1.1//EN"
 "http://www.w3.org/Graphics/SVG/1.1/DTD/svg11.dtd">
<!-- Generated by graphviz version 2.40.1 (20161225.0304)
 -->
<!-- Title: src/env.cc Pages: 1 -->
<svg width="560pt" height="82pt"
 viewBox="0.00 0.00 560.43 82.00" xmlns="http://www.w3.org/2000/svg" xmlns:xlink="http://www.w3.org/1999/xlink">
<g id="graph0" class="graph" transform="scale(1 1) rotate(0) translate(4 78)">
<title>src/env.cc</title>
<polygon fill="#ffffff" stroke="transparent" points="-4,4 -4,-78 556.4268,-78 556.4268,4 -4,4"/>
<!-- Node0 -->
<g id="node1" class="node">
<title>Node0</title>
<polygon fill="#bfbfbf" stroke="#000000" points="245.7266,-55.5 245.7266,-73.5 305.999,-73.5 305.999,-55.5 245.7266,-55.5"/>
<text text-anchor="middle" x="275.8628" y="-61.5" font-family="Helvetica,sans-Serif" font-size="10.00" fill="#000000">src/env.cc</text>
</g>
<!-- Node1 -->
<g id="node2" class="node">
<title>Node1</title>
<g id="a_node2"><a xlink:href="../../d5/d81/env_8h.html" target="_top" xlink:title="env.h">
<polygon fill="#ffffff" stroke="#000000" points="0,-.5 0,-18.5 39.7256,-18.5 39.7256,-.5 0,-.5"/>
<text text-anchor="middle" x="19.8628" y="-6.5" font-family="Helvetica,sans-Serif" font-size="10.00" fill="#000000">env.h</text>
</a>
</g>
</g>
<!-- Node0&#45;&gt;Node1 -->
<g id="edge1" class="edge">
<title>Node0&#45;&gt;Node1</title>
<path fill="none" stroke="#191970" d="M245.4918,-59.5942C203.4975,-52.5554 125.2062,-38.5147 49.4427,-18.9023"/>
<polygon fill="#191970" stroke="#191970" points="50.2993,-15.5086 39.7384,-16.3553 48.5223,-22.2793 50.2993,-15.5086"/>
</g>
<!-- Node2 -->
<g id="node3" class="node">
<title>Node2</title>
<g id="a_node3"><a xlink:href="../../d9/d50/env-inl_8h.html" target="_top" xlink:title="env&#45;inl.h">
<polygon fill="#ffffff" stroke="#000000" points="57.9639,-.5 57.9639,-18.5 111.7617,-18.5 111.7617,-.5 57.9639,-.5"/>
<text text-anchor="middle" x="84.8628" y="-6.5" font-family="Helvetica,sans-Serif" font-size="10.00" fill="#000000">env&#45;inl.h</text>
</a>
</g>
</g>
<!-- Node0&#45;&gt;Node2 -->
<g id="edge2" class="edge">
<title>Node0&#45;&gt;Node2</title>
<path fill="none" stroke="#191970" d="M245.5983,-55.7851C211.946,-46.0946 157.5921,-30.443 121.5464,-20.0633"/>
<polygon fill="#191970" stroke="#191970" points="122.4756,-16.6887 111.8975,-17.2849 120.5385,-23.4154 122.4756,-16.6887"/>
</g>
<!-- Node3 -->
<g id="node4" class="node">
<title>Node3</title>
<g id="a_node4"><a xlink:href="../../d4/d56/async-wrap_8h.html" target="_top" xlink:title="async&#45;wrap.h">
<polygon fill="#ffffff" stroke="#000000" points="130.1289,-.5 130.1289,-18.5 205.5967,-18.5 205.5967,-.5 130.1289,-.5"/>
<text text-anchor="middle" x="167.8628" y="-6.5" font-family="Helvetica,sans-Serif" font-size="10.00" fill="#000000">async&#45;wrap.h</text>
</a>
</g>
</g>
<!-- Node0&#45;&gt;Node3 -->
<g id="edge3" class="edge">
<title>Node0&#45;&gt;Node3</title>
<path fill="none" stroke="#191970" d="M258.0288,-55.4179C240.8321,-46.6603 214.5792,-33.2907 194.8285,-23.2326"/>
<polygon fill="#191970" stroke="#191970" points="196.2227,-20.0148 185.7233,-18.5956 193.046,-26.2526 196.2227,-20.0148"/>
</g>
<!-- Node4 -->
<g id="node5" class="node">
<title>Node4</title>
<polygon fill="#ffffff" stroke="#bfbfbf" points="223.4121,-.5 223.4121,-18.5 258.3135,-18.5 258.3135,-.5 223.4121,-.5"/>
<text text-anchor="middle" x="240.8628" y="-6.5" font-family="Helvetica,sans-Serif" font-size="10.00" fill="#000000">v8.h</text>
</g>
<!-- Node0&#45;&gt;Node4 -->
<g id="edge4" class="edge">
<title>Node0&#45;&gt;Node4</title>
<path fill="none" stroke="#191970" d="M270.0833,-55.4179C265.2487,-47.8207 258.2054,-36.7527 252.2452,-27.3866"/>
<polygon fill="#191970" stroke="#191970" points="255.0895,-25.337 246.7679,-18.7795 249.1839,-29.0952 255.0895,-25.337"/>
</g>
<!-- Node5 -->
<g id="node6" class="node">
<title>Node5</title>
<polygon fill="#ffffff" stroke="#bfbfbf" points="276.7373,-.5 276.7373,-18.5 344.9883,-18.5 344.9883,-.5 276.7373,-.5"/>
<text text-anchor="middle" x="310.8628" y="-6.5" font-family="Helvetica,sans-Serif" font-size="10.00" fill="#000000">v8&#45;profiler.h</text>
</g>
<!-- Node0&#45;&gt;Node5 -->
<g id="edge5" class="edge">
<title>Node0&#45;&gt;Node5</title>
<path fill="none" stroke="#191970" d="M281.6423,-55.4179C286.4769,-47.8207 293.5202,-36.7527 299.4804,-27.3866"/>
<polygon fill="#191970" stroke="#191970" points="302.5417,-29.0952 304.9577,-18.7795 296.6361,-25.337 302.5417,-29.0952"/>
</g>
<!-- Node6 -->
<g id="node7" class="node">
<title>Node6</title>
<polygon fill="#ffffff" stroke="#bfbfbf" points="363.3506,-.5 363.3506,-18.5 414.375,-18.5 414.375,-.5 363.3506,-.5"/>
<text text-anchor="middle" x="388.8628" y="-6.5" font-family="Helvetica,sans-Serif" font-size="10.00" fill="#000000">unistd.h</text>
</g>
<!-- Node0&#45;&gt;Node6 -->
<g id="edge6" class="edge">
<title>Node0&#45;&gt;Node6</title>
<path fill="none" stroke="#191970" d="M294.5224,-55.4179C312.597,-46.6205 340.2335,-33.1691 360.93,-23.0956"/>
<polygon fill="#191970" stroke="#191970" points="362.7157,-26.1191 370.1754,-18.5956 359.6521,-19.825 362.7157,-26.1191"/>
</g>
<!-- Node7 -->
<g id="node8" class="node">
<title>Node7</title>
<polygon fill="#ffffff" stroke="#bfbfbf" points="432.1313,-.5 432.1313,-18.5 477.5942,-18.5 477.5942,-.5 432.1313,-.5"/>
<text text-anchor="middle" x="454.8628" y="-6.5" font-family="Helvetica,sans-Serif" font-size="10.00" fill="#000000">stdio.h</text>
</g>
<!-- Node0&#45;&gt;Node7 -->
<g id="edge7" class="edge">
<title>Node0&#45;&gt;Node7</title>
<path fill="none" stroke="#191970" d="M305.421,-55.4179C337.6373,-45.519 389.0307,-29.7277 422.3615,-19.4864"/>
<polygon fill="#191970" stroke="#191970" points="423.5535,-22.7817 432.0844,-16.4989 421.4975,-16.0905 423.5535,-22.7817"/>
</g>
<!-- Node8 -->
<g id="node9" class="node">
<title>Node8</title>
<polygon fill="#ffffff" stroke="#bfbfbf" points="495.2988,-.5 495.2988,-18.5 552.4268,-18.5 552.4268,-.5 495.2988,-.5"/>
<text text-anchor="middle" x="523.8628" y="-6.5" font-family="Helvetica,sans-Serif" font-size="10.00" fill="#000000">algorithm</text>
</g>
<!-- Node0&#45;&gt;Node8 -->
<g id="edge8" class="edge">
<title>Node0&#45;&gt;Node8</title>
<path fill="none" stroke="#191970" d="M306.3457,-58.3152C345.5976,-50.2666 416.1498,-35.5148 485.4412,-19.2757"/>
<polygon fill="#191970" stroke="#191970" points="486.2759,-22.675 495.2068,-16.975 484.6706,-15.8615 486.2759,-22.675"/>
</g>
</g>
</svg>
