<?xml version="1.0" encoding="UTF-8" standalone="no"?>
<!DOCTYPE svg PUBLIC "-//W3C//DTD SVG 1.1//EN"
 "http://www.w3.org/Graphics/SVG/1.1/DTD/svg11.dtd">
<!-- Generated by graphviz version 2.40.1 (20161225.0304)
 -->
<!-- Title: src/node_crypto_bio.cc Pages: 1 -->
<svg width="456pt" height="82pt"
 viewBox="0.00 0.00 455.54 82.00" xmlns="http://www.w3.org/2000/svg" xmlns:xlink="http://www.w3.org/1999/xlink">
<g id="graph0" class="graph" transform="scale(1 1) rotate(0) translate(4 78)">
<title>src/node_crypto_bio.cc</title>
<polygon fill="#ffffff" stroke="transparent" points="-4,4 -4,-78 451.5391,-78 451.5391,4 -4,4"/>
<!-- Node0 -->
<g id="node1" class="node">
<title>Node0</title>
<polygon fill="#bfbfbf" stroke="#000000" points="199.7266,-55.5 199.7266,-73.5 318.5586,-73.5 318.5586,-55.5 199.7266,-55.5"/>
<text text-anchor="middle" x="259.1426" y="-61.5" font-family="Helvetica,sans-Serif" font-size="10.00" fill="#000000">src/node_crypto_bio.cc</text>
</g>
<!-- Node1 -->
<g id="node2" class="node">
<title>Node1</title>
<g id="a_node2"><a xlink:href="../../da/d4a/node__crypto__bio_8h.html" target="_top" xlink:title="node_crypto_bio.h">
<polygon fill="#ffffff" stroke="#000000" points="0,-.5 0,-18.5 98.2852,-18.5 98.2852,-.5 0,-.5"/>
<text text-anchor="middle" x="49.1426" y="-6.5" font-family="Helvetica,sans-Serif" font-size="10.00" fill="#000000">node_crypto_bio.h</text>
</a>
</g>
</g>
<!-- Node0&#45;&gt;Node1 -->
<g id="edge1" class="edge">
<title>Node0&#45;&gt;Node1</title>
<path fill="none" stroke="#191970" d="M224.4653,-55.4179C188.6406,-46.0352 132.6027,-31.3586 93.5564,-21.1322"/>
<polygon fill="#191970" stroke="#191970" points="94.0828,-17.6521 83.5223,-18.5042 92.3092,-24.4237 94.0828,-17.6521"/>
</g>
<!-- Node2 -->
<g id="node3" class="node">
<title>Node2</title>
<polygon fill="#ffffff" stroke="#bfbfbf" points="116.6772,-.5 116.6772,-18.5 191.6079,-18.5 191.6079,-.5 116.6772,-.5"/>
<text text-anchor="middle" x="154.1426" y="-6.5" font-family="Helvetica,sans-Serif" font-size="10.00" fill="#000000">openssl/bio.h</text>
</g>
<!-- Node0&#45;&gt;Node2 -->
<g id="edge2" class="edge">
<title>Node0&#45;&gt;Node2</title>
<path fill="none" stroke="#191970" d="M241.804,-55.4179C225.161,-46.7001 199.7931,-33.4122 180.6215,-23.3699"/>
<polygon fill="#191970" stroke="#191970" points="181.9893,-20.1353 171.507,-18.5956 178.7412,-26.3362 181.9893,-20.1353"/>
</g>
<!-- Node3 -->
<g id="node4" class="node">
<title>Node3</title>
<g id="a_node4"><a xlink:href="../../d8/d3c/util_8h.html" target="_top" xlink:title="util.h">
<polygon fill="#ffffff" stroke="#000000" points="209.5811,-.5 209.5811,-18.5 246.7041,-18.5 246.7041,-.5 209.5811,-.5"/>
<text text-anchor="middle" x="228.1426" y="-6.5" font-family="Helvetica,sans-Serif" font-size="10.00" fill="#000000">util.h</text>
</a>
</g>
</g>
<!-- Node0&#45;&gt;Node3 -->
<g id="edge3" class="edge">
<title>Node0&#45;&gt;Node3</title>
<path fill="none" stroke="#191970" d="M254.0236,-55.4179C249.7861,-47.8998 243.6329,-36.9829 238.3894,-27.6799"/>
<polygon fill="#191970" stroke="#191970" points="241.332,-25.7724 233.3728,-18.7795 235.234,-29.2096 241.332,-25.7724"/>
</g>
<!-- Node4 -->
<g id="node5" class="node">
<title>Node4</title>
<g id="a_node5"><a xlink:href="../../d5/d8c/util-inl_8h.html" target="_top" xlink:title="util&#45;inl.h">
<polygon fill="#ffffff" stroke="#000000" points="264.9136,-.5 264.9136,-18.5 315.3716,-18.5 315.3716,-.5 264.9136,-.5"/>
<text text-anchor="middle" x="290.1426" y="-6.5" font-family="Helvetica,sans-Serif" font-size="10.00" fill="#000000">util&#45;inl.h</text>
</a>
</g>
</g>
<!-- Node0&#45;&gt;Node4 -->
<g id="edge4" class="edge">
<title>Node0&#45;&gt;Node4</title>
<path fill="none" stroke="#191970" d="M264.2616,-55.4179C268.499,-47.8998 274.6522,-36.9829 279.8958,-27.6799"/>
<polygon fill="#191970" stroke="#191970" points="283.0512,-29.2096 284.9123,-18.7795 276.9531,-25.7724 283.0512,-29.2096"/>
</g>
<!-- Node5 -->
<g id="node6" class="node">
<title>Node5</title>
<polygon fill="#ffffff" stroke="#bfbfbf" points="333.5859,-.5 333.5859,-18.5 380.6992,-18.5 380.6992,-.5 333.5859,-.5"/>
<text text-anchor="middle" x="357.1426" y="-6.5" font-family="Helvetica,sans-Serif" font-size="10.00" fill="#000000">limits.h</text>
</g>
<!-- Node0&#45;&gt;Node5 -->
<g id="edge5" class="edge">
<title>Node0&#45;&gt;Node5</title>
<path fill="none" stroke="#191970" d="M275.3253,-55.4179C290.7878,-46.7399 314.3194,-33.5334 332.1834,-23.5077"/>
<polygon fill="#191970" stroke="#191970" points="333.9283,-26.542 340.9358,-18.5956 330.5023,-20.4377 333.9283,-26.542"/>
</g>
<!-- Node6 -->
<g id="node7" class="node">
<title>Node6</title>
<polygon fill="#ffffff" stroke="#bfbfbf" points="398.7461,-.5 398.7461,-18.5 447.5391,-18.5 447.5391,-.5 398.7461,-.5"/>
<text text-anchor="middle" x="423.1426" y="-6.5" font-family="Helvetica,sans-Serif" font-size="10.00" fill="#000000">string.h</text>
</g>
<!-- Node0&#45;&gt;Node6 -->
<g id="edge6" class="edge">
<title>Node0&#45;&gt;Node6</title>
<path fill="none" stroke="#191970" d="M286.2238,-55.4179C314.3416,-45.9881 358.4038,-31.2112 388.9155,-20.9786"/>
<polygon fill="#191970" stroke="#191970" points="390.3327,-24.195 398.7009,-17.6969 388.1069,-17.5582 390.3327,-24.195"/>
</g>
</g>
</svg>
