<?xml version="1.0" encoding="UTF-8" standalone="no"?>
<!DOCTYPE svg PUBLIC "-//W3C//DTD SVG 1.1//EN"
 "http://www.w3.org/Graphics/SVG/1.1/DTD/svg11.dtd">
<!-- Generated by graphviz version 2.40.1 (20161225.0304)
 -->
<!-- Title: src/async&#45;wrap.h Pages: 1 -->
<!--zoomable 82 -->
<svg id="main" version="1.1" xmlns="http://www.w3.org/2000/svg" xmlns:xlink="http://www.w3.org/1999/xlink" xml:space="preserve" onload="init(evt)">
<style type="text/css"><![CDATA[
.edge:hover path { stroke: red; }
.edge:hover polygon { stroke: red; fill: red; }
]]></style>
<script type="text/javascript"><![CDATA[
var edges = document.getElementsByTagName('g');
if (edges && edges.length) {
  for (var i=0;i<edges.length;i++) {
    if (edges[i].id.substr(0,4)=='edge') {
      edges[i].setAttribute('class','edge');
    }
  }
}
]]></script>
        <defs>
                <circle id="rim" cx="0" cy="0" r="7"/>
                <circle id="rim2" cx="0" cy="0" r="3.5"/>
                <g id="zoomPlus">
                        <use xlink:href="#rim" fill="#404040">
                                <set attributeName="fill" to="#808080" begin="zoomplus.mouseover" end="zoomplus.mouseout"/>
                        </use>
                        <path d="M-4,0h8M0,-4v8" fill="none" stroke="white" stroke-width="1.5" pointer-events="none"/>
                </g>
                <g id="zoomMin">
                        <use xlink:href="#rim" fill="#404040">
                                <set attributeName="fill" to="#808080" begin="zoomminus.mouseover" end="zoomminus.mouseout"/>
                        </use>
                        <path d="M-4,0h8" fill="none" stroke="white" stroke-width="1.5" pointer-events="none"/>
                </g>
                <g id="dirArrow">
                        <path fill="none" stroke="white" stroke-width="1.5" d="M0,-3.0v7 M-2.5,-0.5L0,-3.0L2.5,-0.5"/>
                </g>
               <g id="resetDef">
                       <use xlink:href="#rim2" fill="#404040">
                               <set attributeName="fill" to="#808080" begin="reset.mouseover" end="reset.mouseout"/>
                       </use>
               </g>
        </defs>

<script type="text/javascript">
var viewWidth = 1684;
var viewHeight = 82;
var sectionId = 'dynsection-0';
</script>
<script xlink:href="../../svgpan.js"/>
<svg id="graph" class="graph">
<g id="viewport">
<title>src/async&#45;wrap.h</title>
<polygon fill="#ffffff" stroke="transparent" points="-4,4 -4,-78 1680.0688,-78 1680.0688,4 -4,4"/>
<!-- Node1 -->
<g id="node1" class="node">
<title>Node1</title>
<polygon fill="#bfbfbf" stroke="#000000" points="750.2192,-55.5 750.2192,-73.5 841.7954,-73.5 841.7954,-55.5 750.2192,-55.5"/>
<text text-anchor="middle" x="796.0073" y="-61.5" font-family="Helvetica,sans-Serif" font-size="10.00" fill="#000000">src/async&#45;wrap.h</text>
</g>
<!-- Node2 -->
<g id="node2" class="node">
<title>Node2</title>
<g id="a_node2"><a xlink:href="../../de/dd2/async-wrap_8cc.html" target="_top" xlink:title="src/async&#45;wrap.cc">
<polygon fill="#ffffff" stroke="#000000" points="0,-.5 0,-18.5 96.0146,-18.5 96.0146,-.5 0,-.5"/>
<text text-anchor="middle" x="48.0073" y="-6.5" font-family="Helvetica,sans-Serif" font-size="10.00" fill="#000000">src/async&#45;wrap.cc</text>
</a>
</g>
</g>
<!-- Node1&#45;&gt;Node2 -->
<g id="edge1" class="edge">
<title>Node1&#45;&gt;Node2</title>
<path fill="none" stroke="#191970" d="M739.9644,-62.699C622.1014,-58.4962 340.0472,-46.2566 105.0073,-19 102.1173,-18.6649 99.1506,-18.2837 96.1617,-17.8714"/>
<polygon fill="#191970" stroke="#191970" points="740.0649,-66.2046 750.1816,-63.0577 740.3106,-59.2089 740.0649,-66.2046"/>
</g>
<!-- Node3 -->
<g id="node3" class="node">
<title>Node3</title>
<g id="a_node3"><a xlink:href="../../dc/ded/cares__wrap_8cc.html" target="_top" xlink:title="src/cares_wrap.cc">
<polygon fill="#ffffff" stroke="#000000" points="113.7192,-.5 113.7192,-18.5 210.2954,-18.5 210.2954,-.5 113.7192,-.5"/>
<text text-anchor="middle" x="162.0073" y="-6.5" font-family="Helvetica,sans-Serif" font-size="10.00" fill="#000000">src/cares_wrap.cc</text>
</a>
</g>
</g>
<!-- Node1&#45;&gt;Node3 -->
<g id="edge2" class="edge">
<title>Node1&#45;&gt;Node3</title>
<path fill="none" stroke="#191970" d="M739.66,-61.678C636.2238,-56.1377 409.2096,-42.3052 219.0073,-19 216.2191,-18.6584 213.359,-18.2778 210.4759,-17.871"/>
<polygon fill="#191970" stroke="#191970" points="739.702,-65.1851 749.8733,-62.2196 740.0727,-58.1949 739.702,-65.1851"/>
</g>
<!-- Node4 -->
<g id="node4" class="node">
<title>Node4</title>
<g id="a_node4"><a xlink:href="../../d3/d7d/env_8cc.html" target="_top" xlink:title="src/env.cc">
<polygon fill="#ffffff" stroke="#000000" points="227.8711,-.5 227.8711,-18.5 288.1436,-18.5 288.1436,-.5 227.8711,-.5"/>
<text text-anchor="middle" x="258.0073" y="-6.5" font-family="Helvetica,sans-Serif" font-size="10.00" fill="#000000">src/env.cc</text>
</a>
</g>
</g>
<!-- Node1&#45;&gt;Node4 -->
<g id="edge3" class="edge">
<title>Node1&#45;&gt;Node4</title>
<path fill="none" stroke="#191970" d="M739.963,-62.0976C647.2707,-57.5198 456.4313,-45.5354 297.0073,-19 294.1201,-18.5194 291.1306,-17.9409 288.1499,-17.3094"/>
<polygon fill="#191970" stroke="#191970" points="739.8093,-65.5942 749.9667,-62.5816 740.1476,-58.6024 739.8093,-65.5942"/>
</g>
<!-- Node5 -->
<g id="node5" class="node">
<title>Node5</title>
<g id="a_node5"><a xlink:href="../../d6/d2f/fs__event__wrap_8cc.html" target="_top" xlink:title="src/fs_event_wrap.cc">
<polygon fill="#ffffff" stroke="#000000" points="306.0444,-.5 306.0444,-18.5 415.9702,-18.5 415.9702,-.5 306.0444,-.5"/>
<text text-anchor="middle" x="361.0073" y="-6.5" font-family="Helvetica,sans-Serif" font-size="10.00" fill="#000000">src/fs_event_wrap.cc</text>
</a>
</g>
</g>
<!-- Node1&#45;&gt;Node5 -->
<g id="edge4" class="edge">
<title>Node1&#45;&gt;Node5</title>
<path fill="none" stroke="#191970" d="M739.6722,-58.0408C666.9196,-49.596 536.4023,-34.096 425.0073,-19 422.1132,-18.6078 419.1469,-18.1973 416.1527,-17.7762"/>
<polygon fill="#191970" stroke="#191970" points="739.6415,-61.5606 749.9779,-59.2347 740.4471,-54.6071 739.6415,-61.5606"/>
</g>
<!-- Node6 -->
<g id="node6" class="node">
<title>Node6</title>
<g id="a_node6"><a xlink:href="../../df/dcb/handle__wrap_8cc.html" target="_top" xlink:title="src/handle_wrap.cc">
<polygon fill="#ffffff" stroke="#000000" points="433.9312,-.5 433.9312,-18.5 536.0835,-18.5 536.0835,-.5 433.9312,-.5"/>
<text text-anchor="middle" x="485.0073" y="-6.5" font-family="Helvetica,sans-Serif" font-size="10.00" fill="#000000">src/handle_wrap.cc</text>
</a>
</g>
</g>
<!-- Node1&#45;&gt;Node6 -->
<g id="edge5" class="edge">
<title>Node1&#45;&gt;Node6</title>
<path fill="none" stroke="#191970" d="M740.0264,-54.5998C682.0066,-44.3391 592.1077,-28.4406 536.0008,-18.5181"/>
<polygon fill="#191970" stroke="#191970" points="739.6615,-58.0895 750.1182,-56.3846 740.8805,-51.1965 739.6615,-58.0895"/>
</g>
<!-- Node7 -->
<g id="node7" class="node">
<title>Node7</title>
<g id="a_node7"><a xlink:href="../../d4/da3/js__stream_8cc.html" target="_top" xlink:title="src/js_stream.cc">
<polygon fill="#ffffff" stroke="#000000" points="553.8916,-.5 553.8916,-18.5 642.123,-18.5 642.123,-.5 553.8916,-.5"/>
<text text-anchor="middle" x="598.0073" y="-6.5" font-family="Helvetica,sans-Serif" font-size="10.00" fill="#000000">src/js_stream.cc</text>
</a>
</g>
</g>
<!-- Node1&#45;&gt;Node7 -->
<g id="edge6" class="edge">
<title>Node1&#45;&gt;Node7</title>
<path fill="none" stroke="#191970" d="M753.3529,-52.6515C716.472,-42.4068 663.9509,-27.8177 630.4225,-18.5042"/>
<polygon fill="#191970" stroke="#191970" points="752.7397,-56.1137 763.3117,-55.4179 754.6132,-49.369 752.7397,-56.1137"/>
</g>
<!-- Node8 -->
<g id="node8" class="node">
<title>Node8</title>
<g id="a_node8"><a xlink:href="../../dc/dfd/node_8cc.html" target="_top" xlink:title="src/node.cc">
<polygon fill="#ffffff" stroke="#000000" points="660.4409,-.5 660.4409,-18.5 727.5737,-18.5 727.5737,-.5 660.4409,-.5"/>
<text text-anchor="middle" x="694.0073" y="-6.5" font-family="Helvetica,sans-Serif" font-size="10.00" fill="#000000">src/node.cc</text>
</a>
</g>
</g>
<!-- Node1&#45;&gt;Node8 -->
<g id="edge7" class="edge">
<title>Node1&#45;&gt;Node8</title>
<path fill="none" stroke="#191970" d="M770.3137,-50.6456C751.6961,-40.6067 727.0518,-27.3181 710.8756,-18.5956"/>
<polygon fill="#191970" stroke="#191970" points="768.701,-53.7524 779.1641,-55.4179 772.0233,-47.591 768.701,-53.7524"/>
</g>
<!-- Node9 -->
<g id="node9" class="node">
<title>Node9</title>
<g id="a_node9"><a xlink:href="../../d5/d61/node__crypto_8cc.html" target="_top" xlink:title="src/node_crypto.cc">
<polygon fill="#ffffff" stroke="#000000" points="746.0444,-.5 746.0444,-18.5 845.9702,-18.5 845.9702,-.5 746.0444,-.5"/>
<text text-anchor="middle" x="796.0073" y="-6.5" font-family="Helvetica,sans-Serif" font-size="10.00" fill="#000000">src/node_crypto.cc</text>
</a>
</g>
</g>
<!-- Node1&#45;&gt;Node9 -->
<g id="edge8" class="edge">
<title>Node1&#45;&gt;Node9</title>
<path fill="none" stroke="#191970" d="M796.0073,-45.383C796.0073,-36.3738 796.0073,-26.0373 796.0073,-18.7795"/>
<polygon fill="#191970" stroke="#191970" points="792.5074,-45.4178 796.0073,-55.4179 799.5074,-45.4179 792.5074,-45.4178"/>
</g>
<!-- Node10 -->
<g id="node10" class="node">
<title>Node10</title>
<g id="a_node10"><a xlink:href="../../d1/d90/node__http__parser_8cc.html" target="_top" xlink:title="src/node_http_parser.cc">
<polygon fill="#ffffff" stroke="#000000" points="863.6406,-.5 863.6406,-18.5 986.374,-18.5 986.374,-.5 863.6406,-.5"/>
<text text-anchor="middle" x="925.0073" y="-6.5" font-family="Helvetica,sans-Serif" font-size="10.00" fill="#000000">src/node_http_parser.cc</text>
</a>
</g>
</g>
<!-- Node1&#45;&gt;Node10 -->
<g id="edge9" class="edge">
<title>Node1&#45;&gt;Node10</title>
<path fill="none" stroke="#191970" d="M826.5844,-51.4633C850.3321,-41.3383 882.6553,-27.5571 903.674,-18.5956"/>
<polygon fill="#191970" stroke="#191970" points="825.1352,-48.2762 817.3091,-55.4179 827.8806,-54.7154 825.1352,-48.2762"/>
</g>
<!-- Node11 -->
<g id="node11" class="node">
<title>Node11</title>
<g id="a_node11"><a xlink:href="../../dc/de6/node__stat__watcher_8cc.html" target="_top" xlink:title="src/node_stat_watcher.cc">
<polygon fill="#ffffff" stroke="#000000" points="1004.5864,-.5 1004.5864,-18.5 1133.4282,-18.5 1133.4282,-.5 1004.5864,-.5"/>
<text text-anchor="middle" x="1069.0073" y="-6.5" font-family="Helvetica,sans-Serif" font-size="10.00" fill="#000000">src/node_stat_watcher.cc</text>
</a>
</g>
</g>
<!-- Node1&#45;&gt;Node11 -->
<g id="edge10" class="edge">
<title>Node1&#45;&gt;Node11</title>
<path fill="none" stroke="#191970" d="M850.6361,-53.4942C901.5926,-43.2282 976.691,-28.0985 1024.2082,-18.5255"/>
<polygon fill="#191970" stroke="#191970" points="849.8938,-50.0733 840.782,-55.4795 851.2763,-56.9355 849.8938,-50.0733"/>
</g>
<!-- Node12 -->
<g id="node12" class="node">
<title>Node12</title>
<g id="a_node12"><a xlink:href="../../d9/d0d/node__zlib_8cc.html" target="_top" xlink:title="src/node_zlib.cc">
<polygon fill="#ffffff" stroke="#000000" points="1151.1577,-.5 1151.1577,-18.5 1238.8569,-18.5 1238.8569,-.5 1151.1577,-.5"/>
<text text-anchor="middle" x="1195.0073" y="-6.5" font-family="Helvetica,sans-Serif" font-size="10.00" fill="#000000">src/node_zlib.cc</text>
</a>
</g>
</g>
<!-- Node1&#45;&gt;Node12 -->
<g id="edge11" class="edge">
<title>Node1&#45;&gt;Node12</title>
<path fill="none" stroke="#191970" d="M852.1427,-57.9339C920.6826,-49.7288 1040.0744,-34.8289 1142.0073,-19 1144.9633,-18.541 1148.0084,-18.0483 1151.0741,-17.5375"/>
<polygon fill="#191970" stroke="#191970" points="851.5136,-54.484 841.9986,-59.1438 852.3427,-61.4348 851.5136,-54.484"/>
</g>
<!-- Node13 -->
<g id="node13" class="node">
<title>Node13</title>
<g id="a_node13"><a xlink:href="../../d7/d2c/pipe__wrap_8cc.html" target="_top" xlink:title="src/pipe_wrap.cc">
<polygon fill="#ffffff" stroke="#000000" points="1256.4927,-.5 1256.4927,-18.5 1347.522,-18.5 1347.522,-.5 1256.4927,-.5"/>
<text text-anchor="middle" x="1302.0073" y="-6.5" font-family="Helvetica,sans-Serif" font-size="10.00" fill="#000000">src/pipe_wrap.cc</text>
</a>
</g>
</g>
<!-- Node1&#45;&gt;Node13 -->
<g id="edge12" class="edge">
<title>Node1&#45;&gt;Node13</title>
<path fill="none" stroke="#191970" d="M852.034,-60.1987C937.6114,-53.3268 1105.9271,-38.6217 1248.0073,-19 1250.7419,-18.6224 1253.5498,-18.2084 1256.3795,-17.7711"/>
<polygon fill="#191970" stroke="#191970" points="851.7053,-56.7137 842.0152,-60.9977 852.2619,-63.6916 851.7053,-56.7137"/>
</g>
<!-- Node14 -->
<g id="node14" class="node">
<title>Node14</title>
<g id="a_node14"><a xlink:href="../../d2/d9f/signal__wrap_8cc.html" target="_top" xlink:title="src/signal_wrap.cc">
<polygon fill="#ffffff" stroke="#000000" points="1365.8818,-.5 1365.8818,-18.5 1464.1328,-18.5 1464.1328,-.5 1365.8818,-.5"/>
<text text-anchor="middle" x="1415.0073" y="-6.5" font-family="Helvetica,sans-Serif" font-size="10.00" fill="#000000">src/signal_wrap.cc</text>
</a>
</g>
</g>
<!-- Node1&#45;&gt;Node14 -->
<g id="edge13" class="edge">
<title>Node1&#45;&gt;Node14</title>
<path fill="none" stroke="#191970" d="M851.9367,-61.4765C953.0178,-55.6757 1172.7431,-41.5251 1357.0073,-19 1359.8432,-18.6533 1362.7526,-18.2688 1365.6855,-17.859"/>
<polygon fill="#191970" stroke="#191970" points="851.7334,-57.9823 841.9483,-62.0446 852.131,-64.971 851.7334,-57.9823"/>
</g>
<!-- Node15 -->
<g id="node15" class="node">
<title>Node15</title>
<g id="a_node15"><a xlink:href="../../d7/dc1/timer__wrap_8cc.html" target="_top" xlink:title="src/timer_wrap.cc">
<polygon fill="#ffffff" stroke="#000000" points="1481.835,-.5 1481.835,-18.5 1576.1797,-18.5 1576.1797,-.5 1481.835,-.5"/>
<text text-anchor="middle" x="1529.0073" y="-6.5" font-family="Helvetica,sans-Serif" font-size="10.00" fill="#000000">src/timer_wrap.cc</text>
</a>
</g>
</g>
<!-- Node1&#45;&gt;Node15 -->
<g id="edge14" class="edge">
<title>Node1&#45;&gt;Node15</title>
<path fill="none" stroke="#191970" d="M852.2089,-62.6421C968.4507,-58.3772 1243.6177,-46.0955 1473.0073,-19 1475.8473,-18.6645 1478.7625,-18.2832 1481.6994,-17.8706"/>
<polygon fill="#191970" stroke="#191970" points="851.9909,-59.1476 842.1239,-63.0065 852.2438,-66.143 851.9909,-59.1476"/>
</g>
<!-- Node16 -->
<g id="node16" class="node">
<title>Node16</title>
<g id="a_node16"><a xlink:href="../../da/de5/tls__wrap_8cc.html" target="_top" xlink:title="src/tls_wrap.cc">
<polygon fill="#ffffff" stroke="#000000" points="1593.9458,-.5 1593.9458,-18.5 1676.0688,-18.5 1676.0688,-.5 1593.9458,-.5"/>
<text text-anchor="middle" x="1635.0073" y="-6.5" font-family="Helvetica,sans-Serif" font-size="10.00" fill="#000000">src/tls_wrap.cc</text>
</a>
</g>
</g>
<!-- Node1&#45;&gt;Node16 -->
<g id="edge15" class="edge">
<title>Node1&#45;&gt;Node16</title>
<path fill="none" stroke="#191970" d="M852.0761,-63.769C981.6199,-61.5346 1311.5509,-52.7178 1585.0073,-19 1587.9012,-18.6432 1590.8799,-18.2205 1593.8734,-17.7548"/>
<polygon fill="#191970" stroke="#191970" points="851.938,-60.2707 841.9975,-63.9364 852.0543,-67.2698 851.938,-60.2707"/>
</g>
</g>
</svg>
        <g id="navigator" transform="translate(0 0)" fill="#404254">
                <rect fill="#f2f5e9" fill-opacity="0.5" stroke="#606060" stroke-width=".5" x="0" y="0" width="60" height="60"/>
                <use id="zoomplus" xlink:href="#zoomPlus" x="17" y="9" onmousedown="handleZoom(evt,'in')"/>
                <use id="zoomminus" xlink:href="#zoomMin" x="42" y="9" onmousedown="handleZoom(evt,'out')"/>
                <use id="reset" xlink:href="#resetDef" x="30" y="36" onmousedown="handleReset()"/>
                <g id="arrowUp" xlink:href="#dirArrow" transform="translate(30 24)" onmousedown="handlePan(0,-1)">
                  <use xlink:href="#rim" fill="#404040">
                        <set attributeName="fill" to="#808080" begin="arrowUp.mouseover" end="arrowUp.mouseout"/>
                  </use>
                  <path fill="none" stroke="white" stroke-width="1.5" d="M0,-3.0v7 M-2.5,-0.5L0,-3.0L2.5,-0.5"/>
                </g>
                <g id="arrowRight" xlink:href="#dirArrow" transform="rotate(90) translate(36 -43)" onmousedown="handlePan(1,0)">
                  <use xlink:href="#rim" fill="#404040">
                        <set attributeName="fill" to="#808080" begin="arrowRight.mouseover" end="arrowRight.mouseout"/>
                  </use>
                  <path fill="none" stroke="white" stroke-width="1.5" d="M0,-3.0v7 M-2.5,-0.5L0,-3.0L2.5,-0.5"/>
                </g>
                <g id="arrowDown" xlink:href="#dirArrow" transform="rotate(180) translate(-30 -48)" onmousedown="handlePan(0,1)">
                  <use xlink:href="#rim" fill="#404040">
                        <set attributeName="fill" to="#808080" begin="arrowDown.mouseover" end="arrowDown.mouseout"/>
                  </use>
                  <path fill="none" stroke="white" stroke-width="1.5" d="M0,-3.0v7 M-2.5,-0.5L0,-3.0L2.5,-0.5"/>
                </g>
                <g id="arrowLeft" xlink:href="#dirArrow" transform="rotate(270) translate(-36 17)" onmousedown="handlePan(-1,0)">
                  <use xlink:href="#rim" fill="#404040">
                        <set attributeName="fill" to="#808080" begin="arrowLeft.mouseover" end="arrowLeft.mouseout"/>
                  </use>
                  <path fill="none" stroke="white" stroke-width="1.5" d="M0,-3.0v7 M-2.5,-0.5L0,-3.0L2.5,-0.5"/>
                </g>
        </g>
        <svg viewBox="0 0 15 15" width="100%" height="30px" preserveAspectRatio="xMaxYMin meet">
         <g id="arrow_out" transform="scale(0.3 0.3)">
          <a xlink:href="async-wrap_8h__dep__incl_org.svg" target="_base">
           <rect id="button" ry="5" rx="5" y="6" x="6" height="38" width="38"
                fill="#f2f5e9" fill-opacity="0.5" stroke="#606060" stroke-width="1.0"/>
           <path id="arrow"
             d="M 11.500037,31.436501 C 11.940474,20.09759 22.043105,11.32322 32.158766,21.979434 L 37.068811,17.246167 C 37.068811,17.246167 37.088388,32 37.088388,32 L 22.160133,31.978069 C 22.160133,31.978069 26.997745,27.140456 26.997745,27.140456 C 18.528582,18.264221 13.291696,25.230495 11.500037,31.436501 z"
             style="fill:#404040;"/>
          </a>
         </g>
        </svg>
</svg>
