<?xml version="1.0" encoding="UTF-8" standalone="no"?>
<!DOCTYPE svg PUBLIC "-//W3C//DTD SVG 1.1//EN"
 "http://www.w3.org/Graphics/SVG/1.1/DTD/svg11.dtd">
<!-- Generated by graphviz version 2.40.1 (20161225.0304)
 -->
<!-- Title: src/stream_wrap.cc Pages: 1 -->
<svg width="1493pt" height="192pt"
 viewBox="0.00 0.00 1492.63 192.00" xmlns="http://www.w3.org/2000/svg" xmlns:xlink="http://www.w3.org/1999/xlink">
<g id="graph0" class="graph" transform="scale(1 1) rotate(0) translate(4 188)">
<title>src/stream_wrap.cc</title>
<polygon fill="#ffffff" stroke="transparent" points="-4,4 -4,-188 1488.6255,-188 1488.6255,4 -4,4"/>
<!-- Node0 -->
<g id="node1" class="node">
<title>Node0</title>
<polygon fill="#bfbfbf" stroke="#000000" points="772.7266,-165.5 772.7266,-183.5 875.4111,-183.5 875.4111,-165.5 772.7266,-165.5"/>
<text text-anchor="middle" x="824.0688" y="-171.5" font-family="Helvetica,sans-Serif" font-size="10.00" fill="#000000">src/stream_wrap.cc</text>
</g>
<!-- Node1 -->
<g id="node2" class="node">
<title>Node1</title>
<g id="a_node2"><a xlink:href="../../da/d2f/stream__wrap_8h.html" target="_top" xlink:title="stream_wrap.h">
<polygon fill="#ffffff" stroke="#000000" points="0,-110.5 0,-128.5 82.1377,-128.5 82.1377,-110.5 0,-110.5"/>
<text text-anchor="middle" x="41.0688" y="-116.5" font-family="Helvetica,sans-Serif" font-size="10.00" fill="#000000">stream_wrap.h</text>
</a>
</g>
</g>
<!-- Node0&#45;&gt;Node1 -->
<g id="edge1" class="edge">
<title>Node0&#45;&gt;Node1</title>
<path fill="none" stroke="#191970" d="M772.3172,-173.522C653.7287,-170.8002 353.113,-161.1693 92.2475,-128.9928"/>
<polygon fill="#191970" stroke="#191970" points="92.5609,-125.5049 82.2046,-127.7404 91.6946,-132.4511 92.5609,-125.5049"/>
</g>
<!-- Node2 -->
<g id="node3" class="node">
<title>Node2</title>
<g id="a_node3"><a xlink:href="../../db/d26/stream__base_8h.html" target="_top" xlink:title="stream_base.h">
<polygon fill="#ffffff" stroke="#000000" points="99.9951,-110.5 99.9951,-128.5 182.1426,-128.5 182.1426,-110.5 99.9951,-110.5"/>
<text text-anchor="middle" x="141.0688" y="-116.5" font-family="Helvetica,sans-Serif" font-size="10.00" fill="#000000">stream_base.h</text>
</a>
</g>
</g>
<!-- Node0&#45;&gt;Node2 -->
<g id="edge2" class="edge">
<title>Node0&#45;&gt;Node2</title>
<path fill="none" stroke="#191970" d="M772.5844,-172.824C666.1044,-168.9199 413.8138,-157.4058 192.3954,-129.0286"/>
<polygon fill="#191970" stroke="#191970" points="192.5757,-125.5228 182.2087,-127.7082 191.6758,-132.4647 192.5757,-125.5228"/>
</g>
<!-- Node3 -->
<g id="node4" class="node">
<title>Node3</title>
<g id="a_node4"><a xlink:href="../../d7/d82/stream__base-inl_8h.html" target="_top" xlink:title="stream_base&#45;inl.h">
<polygon fill="#ffffff" stroke="#000000" points="200.3276,-110.5 200.3276,-128.5 295.8101,-128.5 295.8101,-110.5 200.3276,-110.5"/>
<text text-anchor="middle" x="248.0688" y="-116.5" font-family="Helvetica,sans-Serif" font-size="10.00" fill="#000000">stream_base&#45;inl.h</text>
</a>
</g>
</g>
<!-- Node0&#45;&gt;Node3 -->
<g id="edge3" class="edge">
<title>Node0&#45;&gt;Node3</title>
<path fill="none" stroke="#191970" d="M772.3617,-171.3031C680.5976,-165.3379 483.0614,-151.1851 305.9457,-129.0186"/>
<polygon fill="#191970" stroke="#191970" points="306.2829,-125.5335 295.9231,-127.7528 305.4057,-132.4783 306.2829,-125.5335"/>
</g>
<!-- Node4 -->
<g id="node5" class="node">
<title>Node4</title>
<g id="a_node5"><a xlink:href="../../d9/d50/env-inl_8h.html" target="_top" xlink:title="env&#45;inl.h">
<polygon fill="#ffffff" stroke="#000000" points="314.1699,-110.5 314.1699,-128.5 367.9678,-128.5 367.9678,-110.5 314.1699,-110.5"/>
<text text-anchor="middle" x="341.0688" y="-116.5" font-family="Helvetica,sans-Serif" font-size="10.00" fill="#000000">env&#45;inl.h</text>
</a>
</g>
</g>
<!-- Node0&#45;&gt;Node4 -->
<g id="edge4" class="edge">
<title>Node0&#45;&gt;Node4</title>
<path fill="none" stroke="#191970" d="M772.4169,-171.875C690.682,-167.146 526.4527,-155.3093 378.2807,-128.9566"/>
<polygon fill="#191970" stroke="#191970" points="378.5565,-125.4499 368.0936,-127.117 377.3125,-132.3385 378.5565,-125.4499"/>
</g>
<!-- Node5 -->
<g id="node6" class="node">
<title>Node5</title>
<g id="a_node6"><a xlink:href="../../d5/d81/env_8h.html" target="_top" xlink:title="env.h">
<polygon fill="#ffffff" stroke="#000000" points="386.2061,-110.5 386.2061,-128.5 425.9316,-128.5 425.9316,-110.5 386.2061,-110.5"/>
<text text-anchor="middle" x="406.0688" y="-116.5" font-family="Helvetica,sans-Serif" font-size="10.00" fill="#000000">env.h</text>
</a>
</g>
</g>
<!-- Node0&#45;&gt;Node5 -->
<g id="edge5" class="edge">
<title>Node0&#45;&gt;Node5</title>
<path fill="none" stroke="#191970" d="M772.5522,-171.7629C699.4635,-167.1593 561.5031,-155.8143 435.9901,-128.8107"/>
<polygon fill="#191970" stroke="#191970" points="436.7245,-125.3886 426.2072,-126.6681 435.2269,-132.2265 436.7245,-125.3886"/>
</g>
<!-- Node6 -->
<g id="node7" class="node">
<title>Node6</title>
<g id="a_node7"><a xlink:href="../../da/db4/handle__wrap_8h.html" target="_top" xlink:title="handle_wrap.h">
<polygon fill="#ffffff" stroke="#000000" points="444.2661,-110.5 444.2661,-128.5 525.8716,-128.5 525.8716,-110.5 444.2661,-110.5"/>
<text text-anchor="middle" x="485.0688" y="-116.5" font-family="Helvetica,sans-Serif" font-size="10.00" fill="#000000">handle_wrap.h</text>
</a>
</g>
</g>
<!-- Node0&#45;&gt;Node6 -->
<g id="edge6" class="edge">
<title>Node0&#45;&gt;Node6</title>
<path fill="none" stroke="#191970" d="M772.5661,-166.8936C716.7931,-158.5439 624.9509,-144.4689 535.9722,-129.1141"/>
<polygon fill="#191970" stroke="#191970" points="536.4305,-125.6414 525.9796,-127.3821 535.235,-132.5385 536.4305,-125.6414"/>
</g>
<!-- Node7 -->
<g id="node8" class="node">
<title>Node7</title>
<g id="a_node8"><a xlink:href="../../d8/d1c/node__buffer_8h.html" target="_top" xlink:title="node_buffer.h">
<polygon fill="#ffffff" stroke="#000000" points="543.5708,-110.5 543.5708,-128.5 620.5669,-128.5 620.5669,-110.5 543.5708,-110.5"/>
<text text-anchor="middle" x="582.0688" y="-116.5" font-family="Helvetica,sans-Serif" font-size="10.00" fill="#000000">node_buffer.h</text>
</a>
</g>
</g>
<!-- Node0&#45;&gt;Node7 -->
<g id="edge7" class="edge">
<title>Node0&#45;&gt;Node7</title>
<path fill="none" stroke="#191970" d="M784.3785,-165.4795C742.2424,-155.9031 675.6223,-140.7622 630.4435,-130.4942"/>
<polygon fill="#191970" stroke="#191970" points="631.1076,-127.056 620.5806,-128.2527 629.5562,-133.8819 631.1076,-127.056"/>
</g>
<!-- Node14 -->
<g id="node15" class="node">
<title>Node14</title>
<g id="a_node15"><a xlink:href="../../d6/d92/node__counters_8h.html" target="_top" xlink:title="node_counters.h">
<polygon fill="#ffffff" stroke="#000000" points="638.8179,-110.5 638.8179,-128.5 729.3198,-128.5 729.3198,-110.5 638.8179,-110.5"/>
<text text-anchor="middle" x="684.0688" y="-116.5" font-family="Helvetica,sans-Serif" font-size="10.00" fill="#000000">node_counters.h</text>
</a>
</g>
</g>
<!-- Node0&#45;&gt;Node14 -->
<g id="edge15" class="edge">
<title>Node0&#45;&gt;Node14</title>
<path fill="none" stroke="#191970" d="M800.9507,-165.4179C777.9494,-156.3817 742.4496,-142.4353 716.6068,-132.2828"/>
<polygon fill="#191970" stroke="#191970" points="717.8087,-128.9946 707.2213,-128.5956 715.2491,-135.5098 717.8087,-128.9946"/>
</g>
<!-- Node15 -->
<g id="node16" class="node">
<title>Node15</title>
<g id="a_node16"><a xlink:href="../../d8/d39/pipe__wrap_8h.html" target="_top" xlink:title="pipe_wrap.h">
<polygon fill="#ffffff" stroke="#000000" points="746.8276,-110.5 746.8276,-128.5 817.3101,-128.5 817.3101,-110.5 746.8276,-110.5"/>
<text text-anchor="middle" x="782.0688" y="-116.5" font-family="Helvetica,sans-Serif" font-size="10.00" fill="#000000">pipe_wrap.h</text>
</a>
</g>
</g>
<!-- Node0&#45;&gt;Node15 -->
<g id="edge16" class="edge">
<title>Node0&#45;&gt;Node15</title>
<path fill="none" stroke="#191970" d="M817.1334,-165.4179C811.211,-157.6624 802.5267,-146.29 795.2824,-136.8035"/>
<polygon fill="#191970" stroke="#191970" points="798.0058,-134.6029 789.155,-128.7795 792.4425,-138.8514 798.0058,-134.6029"/>
</g>
<!-- Node16 -->
<g id="node17" class="node">
<title>Node16</title>
<g id="a_node17"><a xlink:href="../../d6/dae/req-wrap_8h.html" target="_top" xlink:title="req&#45;wrap.h">
<polygon fill="#ffffff" stroke="#000000" points="835.1699,-110.5 835.1699,-128.5 898.9678,-128.5 898.9678,-110.5 835.1699,-110.5"/>
<text text-anchor="middle" x="867.0688" y="-116.5" font-family="Helvetica,sans-Serif" font-size="10.00" fill="#000000">req&#45;wrap.h</text>
</a>
</g>
</g>
<!-- Node0&#45;&gt;Node16 -->
<g id="edge17" class="edge">
<title>Node0&#45;&gt;Node16</title>
<path fill="none" stroke="#191970" d="M831.1694,-165.4179C837.2328,-157.6624 846.1239,-146.29 853.5407,-136.8035"/>
<polygon fill="#191970" stroke="#191970" points="856.4121,-138.8133 859.814,-128.7795 850.8974,-134.5018 856.4121,-138.8133"/>
</g>
<!-- Node17 -->
<g id="node18" class="node">
<title>Node17</title>
<g id="a_node18"><a xlink:href="../../dd/d0b/req-wrap-inl_8h.html" target="_top" xlink:title="req&#45;wrap&#45;inl.h">
<polygon fill="#ffffff" stroke="#000000" points="916.5024,-110.5 916.5024,-128.5 993.6353,-128.5 993.6353,-110.5 916.5024,-110.5"/>
<text text-anchor="middle" x="955.0688" y="-116.5" font-family="Helvetica,sans-Serif" font-size="10.00" fill="#000000">req&#45;wrap&#45;inl.h</text>
</a>
</g>
</g>
<!-- Node0&#45;&gt;Node17 -->
<g id="edge18" class="edge">
<title>Node0&#45;&gt;Node17</title>
<path fill="none" stroke="#191970" d="M845.7008,-165.4179C867.0338,-156.4613 899.8568,-142.6806 923.9814,-132.552"/>
<polygon fill="#191970" stroke="#191970" points="925.5393,-135.6939 933.4047,-128.5956 922.8295,-129.2397 925.5393,-135.6939"/>
</g>
<!-- Node18 -->
<g id="node19" class="node">
<title>Node18</title>
<g id="a_node19"><a xlink:href="../../d3/d24/tcp__wrap_8h.html" target="_top" xlink:title="tcp_wrap.h">
<polygon fill="#ffffff" stroke="#000000" points="1011.6108,-110.5 1011.6108,-128.5 1076.5269,-128.5 1076.5269,-110.5 1011.6108,-110.5"/>
<text text-anchor="middle" x="1044.0688" y="-116.5" font-family="Helvetica,sans-Serif" font-size="10.00" fill="#000000">tcp_wrap.h</text>
</a>
</g>
</g>
<!-- Node0&#45;&gt;Node18 -->
<g id="edge19" class="edge">
<title>Node0&#45;&gt;Node18</title>
<path fill="none" stroke="#191970" d="M860.3974,-165.4179C899.1004,-155.7421 960.3225,-140.4366 1001.3199,-130.1872"/>
<polygon fill="#191970" stroke="#191970" points="1002.4286,-133.5178 1011.2812,-127.6969 1000.7308,-126.7268 1002.4286,-133.5178"/>
</g>
<!-- Node19 -->
<g id="node20" class="node">
<title>Node19</title>
<g id="a_node20"><a xlink:href="../../d4/d02/udp__wrap_8h.html" target="_top" xlink:title="udp_wrap.h">
<polygon fill="#ffffff" stroke="#000000" points="1094.9385,-110.5 1094.9385,-128.5 1163.1992,-128.5 1163.1992,-110.5 1094.9385,-110.5"/>
<text text-anchor="middle" x="1129.0688" y="-116.5" font-family="Helvetica,sans-Serif" font-size="10.00" fill="#000000">udp_wrap.h</text>
</a>
</g>
</g>
<!-- Node0&#45;&gt;Node19 -->
<g id="edge20" class="edge">
<title>Node0&#45;&gt;Node19</title>
<path fill="none" stroke="#191970" d="M875.6841,-166.1284C926.2541,-157.7854 1005.7571,-144.2954 1084.4221,-129.0625"/>
<polygon fill="#191970" stroke="#191970" points="1085.3618,-132.4453 1094.5086,-127.0986 1084.024,-125.5743 1085.3618,-132.4453"/>
</g>
<!-- Node20 -->
<g id="node21" class="node">
<title>Node20</title>
<g id="a_node21"><a xlink:href="../../d8/d3c/util_8h.html" target="_top" xlink:title="util.h">
<polygon fill="#ffffff" stroke="#000000" points="1181.5073,-110.5 1181.5073,-128.5 1218.6304,-128.5 1218.6304,-110.5 1181.5073,-110.5"/>
<text text-anchor="middle" x="1200.0688" y="-116.5" font-family="Helvetica,sans-Serif" font-size="10.00" fill="#000000">util.h</text>
</a>
</g>
</g>
<!-- Node0&#45;&gt;Node20 -->
<g id="edge21" class="edge">
<title>Node0&#45;&gt;Node20</title>
<path fill="none" stroke="#191970" d="M875.6414,-170.9497C942.0773,-165.674 1061.127,-153.8444 1171.2891,-128.7596"/>
<polygon fill="#191970" stroke="#191970" points="1172.2871,-132.1211 1181.2375,-126.4519 1170.7053,-125.3021 1172.2871,-132.1211"/>
</g>
<!-- Node21 -->
<g id="node22" class="node">
<title>Node21</title>
<g id="a_node22"><a xlink:href="../../d5/d8c/util-inl_8h.html" target="_top" xlink:title="util&#45;inl.h">
<polygon fill="#ffffff" stroke="#000000" points="1236.8398,-110.5 1236.8398,-128.5 1287.2979,-128.5 1287.2979,-110.5 1236.8398,-110.5"/>
<text text-anchor="middle" x="1262.0688" y="-116.5" font-family="Helvetica,sans-Serif" font-size="10.00" fill="#000000">util&#45;inl.h</text>
</a>
</g>
</g>
<!-- Node0&#45;&gt;Node21 -->
<g id="edge22" class="edge">
<title>Node0&#45;&gt;Node21</title>
<path fill="none" stroke="#191970" d="M875.4887,-171.3595C950.7526,-166.1815 1095.3875,-154.0294 1226.7206,-129.0052"/>
<polygon fill="#191970" stroke="#191970" points="1227.4013,-132.4385 1236.5541,-127.1023 1226.0713,-125.566 1227.4013,-132.4385"/>
</g>
<!-- Node22 -->
<g id="node23" class="node">
<title>Node22</title>
<polygon fill="#ffffff" stroke="#bfbfbf" points="1305.2266,-110.5 1305.2266,-128.5 1352.9111,-128.5 1352.9111,-110.5 1305.2266,-110.5"/>
<text text-anchor="middle" x="1329.0688" y="-116.5" font-family="Helvetica,sans-Serif" font-size="10.00" fill="#000000">stdlib.h</text>
</g>
<!-- Node0&#45;&gt;Node22 -->
<g id="edge23" class="edge">
<title>Node0&#45;&gt;Node22</title>
<path fill="none" stroke="#191970" d="M875.4941,-172.6427C960.9072,-168.8829 1137.4098,-158.2503 1295.1592,-128.8429"/>
<polygon fill="#191970" stroke="#191970" points="1295.8681,-132.271 1305.042,-126.971 1294.5654,-125.3932 1295.8681,-132.271"/>
</g>
<!-- Node23 -->
<g id="node24" class="node">
<title>Node23</title>
<polygon fill="#ffffff" stroke="#bfbfbf" points="1370.6724,-110.5 1370.6724,-128.5 1419.4653,-128.5 1419.4653,-110.5 1370.6724,-110.5"/>
<text text-anchor="middle" x="1395.0688" y="-116.5" font-family="Helvetica,sans-Serif" font-size="10.00" fill="#000000">string.h</text>
</g>
<!-- Node0&#45;&gt;Node23 -->
<g id="edge24" class="edge">
<title>Node0&#45;&gt;Node23</title>
<path fill="none" stroke="#191970" d="M875.6981,-173.4891C970.3228,-170.9098 1177.8644,-161.8834 1360.2844,-129.0242"/>
<polygon fill="#191970" stroke="#191970" points="1361.1205,-132.4294 1370.3269,-127.1862 1359.8602,-125.5438 1361.1205,-132.4294"/>
</g>
<!-- Node24 -->
<g id="node25" class="node">
<title>Node24</title>
<polygon fill="#ffffff" stroke="#bfbfbf" points="1437.5122,-110.5 1437.5122,-128.5 1484.6255,-128.5 1484.6255,-110.5 1437.5122,-110.5"/>
<text text-anchor="middle" x="1461.0688" y="-116.5" font-family="Helvetica,sans-Serif" font-size="10.00" fill="#000000">limits.h</text>
</g>
<!-- Node0&#45;&gt;Node24 -->
<g id="edge25" class="edge">
<title>Node0&#45;&gt;Node24</title>
<path fill="none" stroke="#191970" d="M875.6399,-171.9782C998.1894,-165.7719 1305.0959,-148.9207 1427.5328,-128.6561"/>
<polygon fill="#191970" stroke="#191970" points="1428.1602,-132.0996 1437.4133,-126.9391 1426.9617,-125.203 1428.1602,-132.0996"/>
</g>
<!-- Node8 -->
<g id="node9" class="node">
<title>Node8</title>
<g id="a_node9"><a xlink:href="../../d1/d77/node_8h.html" target="_top" xlink:title="node.h">
<polygon fill="#ffffff" stroke="#000000" points="590.7759,-55.5 590.7759,-73.5 637.3618,-73.5 637.3618,-55.5 590.7759,-55.5"/>
<text text-anchor="middle" x="614.0688" y="-61.5" font-family="Helvetica,sans-Serif" font-size="10.00" fill="#000000">node.h</text>
</a>
</g>
</g>
<!-- Node7&#45;&gt;Node8 -->
<g id="edge8" class="edge">
<title>Node7&#45;&gt;Node8</title>
<path fill="none" stroke="#191970" d="M587.353,-110.4179C591.7271,-102.8998 598.0788,-91.9829 603.4915,-82.6799"/>
<polygon fill="#191970" stroke="#191970" points="606.6661,-84.1831 608.6699,-73.7795 600.6157,-80.6628 606.6661,-84.1831"/>
</g>
<!-- Node9 -->
<g id="node10" class="node">
<title>Node9</title>
<polygon fill="#ffffff" stroke="#bfbfbf" points="475.6182,-.5 475.6182,-18.5 510.5195,-18.5 510.5195,-.5 475.6182,-.5"/>
<text text-anchor="middle" x="493.0688" y="-6.5" font-family="Helvetica,sans-Serif" font-size="10.00" fill="#000000">v8.h</text>
</g>
<!-- Node7&#45;&gt;Node9 -->
<g id="edge14" class="edge">
<title>Node7&#45;&gt;Node9</title>
<path fill="none" stroke="#191970" d="M574.7856,-110.4982C559.9219,-92.1273 525.8871,-50.0619 506.7614,-26.4233"/>
<polygon fill="#191970" stroke="#191970" points="509.4637,-24.1988 500.4527,-18.6261 504.0218,-28.6018 509.4637,-24.1988"/>
</g>
<!-- Node8&#45;&gt;Node9 -->
<g id="edge9" class="edge">
<title>Node8&#45;&gt;Node9</title>
<path fill="none" stroke="#191970" d="M594.0882,-55.4179C573.8571,-46.222 542.4385,-31.9408 520.0146,-21.7481"/>
<polygon fill="#191970" stroke="#191970" points="521.2679,-18.4732 510.7159,-17.5214 518.3712,-24.8458 521.2679,-18.4732"/>
</g>
<!-- Node10 -->
<g id="node11" class="node">
<title>Node10</title>
<g id="a_node11"><a xlink:href="../../da/d9c/node__version_8h.html" target="_top" xlink:title="node_version.h">
<polygon fill="#ffffff" stroke="#000000" points="528.877,-.5 528.877,-18.5 613.2607,-18.5 613.2607,-.5 528.877,-.5"/>
<text text-anchor="middle" x="571.0688" y="-6.5" font-family="Helvetica,sans-Serif" font-size="10.00" fill="#000000">node_version.h</text>
</a>
</g>
</g>
<!-- Node8&#45;&gt;Node10 -->
<g id="edge10" class="edge">
<title>Node8&#45;&gt;Node10</title>
<path fill="none" stroke="#191970" d="M606.9683,-55.4179C600.9049,-47.6624 592.0138,-36.29 584.597,-26.8035"/>
<polygon fill="#191970" stroke="#191970" points="587.2403,-24.5018 578.3237,-18.7795 581.7256,-28.8133 587.2403,-24.5018"/>
</g>
<!-- Node11 -->
<g id="node12" class="node">
<title>Node11</title>
<polygon fill="#ffffff" stroke="#bfbfbf" points="631.2832,-.5 631.2832,-18.5 682.8545,-18.5 682.8545,-.5 631.2832,-.5"/>
<text text-anchor="middle" x="657.0688" y="-6.5" font-family="Helvetica,sans-Serif" font-size="10.00" fill="#000000">assert.h</text>
</g>
<!-- Node8&#45;&gt;Node11 -->
<g id="edge11" class="edge">
<title>Node8&#45;&gt;Node11</title>
<path fill="none" stroke="#191970" d="M621.1694,-55.4179C627.2328,-47.6624 636.1239,-36.29 643.5407,-26.8035"/>
<polygon fill="#191970" stroke="#191970" points="646.4121,-28.8133 649.814,-18.7795 640.8974,-24.5018 646.4121,-28.8133"/>
</g>
<!-- Node12 -->
<g id="node13" class="node">
<title>Node12</title>
<polygon fill="#ffffff" stroke="#bfbfbf" points="700.9482,-.5 700.9482,-18.5 749.1895,-18.5 749.1895,-.5 700.9482,-.5"/>
<text text-anchor="middle" x="725.0688" y="-6.5" font-family="Helvetica,sans-Serif" font-size="10.00" fill="#000000">stdint.h</text>
</g>
<!-- Node8&#45;&gt;Node12 -->
<g id="edge12" class="edge">
<title>Node8&#45;&gt;Node12</title>
<path fill="none" stroke="#191970" d="M632.3982,-55.4179C650.1529,-46.6205 677.3003,-33.1691 697.6304,-23.0956"/>
<polygon fill="#191970" stroke="#191970" points="699.3058,-26.1716 706.7122,-18.5956 696.1979,-19.8994 699.3058,-26.1716"/>
</g>
<!-- Node13 -->
<g id="node14" class="node">
<title>Node13</title>
<polygon fill="#ffffff" stroke="#bfbfbf" points="767.0591,-.5 767.0591,-18.5 833.0786,-18.5 833.0786,-.5 767.0591,-.5"/>
<text text-anchor="middle" x="800.0688" y="-6.5" font-family="Helvetica,sans-Serif" font-size="10.00" fill="#000000">sys/types.h</text>
</g>
<!-- Node8&#45;&gt;Node13 -->
<g id="edge13" class="edge">
<title>Node8&#45;&gt;Node13</title>
<path fill="none" stroke="#191970" d="M637.6259,-57.5342C668.274,-48.4716 722.2991,-32.4964 759.5791,-21.4728"/>
<polygon fill="#191970" stroke="#191970" points="761.0196,-24.6967 769.6166,-18.5047 759.0346,-17.984 761.0196,-24.6967"/>
</g>
</g>
</svg>
