<?xml version="1.0" encoding="UTF-8" standalone="no"?>
<!DOCTYPE svg PUBLIC "-//W3C//DTD SVG 1.1//EN"
 "http://www.w3.org/Graphics/SVG/1.1/DTD/svg11.dtd">
<!-- Generated by graphviz version 2.40.1 (20161225.0304)
 -->
<!-- Title: src/util&#45;inl.h Pages: 1 -->
<!--zoomable 267 -->
<svg id="main" version="1.1" xmlns="http://www.w3.org/2000/svg" xmlns:xlink="http://www.w3.org/1999/xlink" xml:space="preserve" onload="init(evt)">
<style type="text/css"><![CDATA[
.edge:hover path { stroke: red; }
.edge:hover polygon { stroke: red; fill: red; }
]]></style>
<script type="text/javascript"><![CDATA[
var edges = document.getElementsByTagName('g');
if (edges && edges.length) {
  for (var i=0;i<edges.length;i++) {
    if (edges[i].id.substr(0,4)=='edge') {
      edges[i].setAttribute('class','edge');
    }
  }
}
]]></script>
        <defs>
                <circle id="rim" cx="0" cy="0" r="7"/>
                <circle id="rim2" cx="0" cy="0" r="3.5"/>
                <g id="zoomPlus">
                        <use xlink:href="#rim" fill="#404040">
                                <set attributeName="fill" to="#808080" begin="zoomplus.mouseover" end="zoomplus.mouseout"/>
                        </use>
                        <path d="M-4,0h8M0,-4v8" fill="none" stroke="white" stroke-width="1.5" pointer-events="none"/>
                </g>
                <g id="zoomMin">
                        <use xlink:href="#rim" fill="#404040">
                                <set attributeName="fill" to="#808080" begin="zoomminus.mouseover" end="zoomminus.mouseout"/>
                        </use>
                        <path d="M-4,0h8" fill="none" stroke="white" stroke-width="1.5" pointer-events="none"/>
                </g>
                <g id="dirArrow">
                        <path fill="none" stroke="white" stroke-width="1.5" d="M0,-3.0v7 M-2.5,-0.5L0,-3.0L2.5,-0.5"/>
                </g>
               <g id="resetDef">
                       <use xlink:href="#rim2" fill="#404040">
                               <set attributeName="fill" to="#808080" begin="reset.mouseover" end="reset.mouseout"/>
                       </use>
               </g>
        </defs>

<script type="text/javascript">
var viewWidth = 3488;
var viewHeight = 267;
var sectionId = 'dynsection-0';
</script>
<script xlink:href="../../svgpan.js"/>
<svg id="graph" class="graph">
<g id="viewport">
<title>src/util&#45;inl.h</title>
<polygon fill="#ffffff" stroke="transparent" points="-4,4 -4,-263 3484.4111,-263 3484.4111,4 -4,4"/>
<!-- Node1 -->
<g id="node1" class="node">
<title>Node1</title>
<polygon fill="#bfbfbf" stroke="#000000" points="1753.7241,-240.5 1753.7241,-258.5 1820.2905,-258.5 1820.2905,-240.5 1753.7241,-240.5"/>
<text text-anchor="middle" x="1787.0073" y="-246.5" font-family="Helvetica,sans-Serif" font-size="10.00" fill="#000000">src/util&#45;inl.h</text>
</g>
<!-- Node2 -->
<g id="node2" class="node">
<title>Node2</title>
<g id="a_node2"><a xlink:href="../../de/dd2/async-wrap_8cc.html" target="_top" xlink:title="src/async&#45;wrap.cc">
<polygon fill="#ffffff" stroke="#000000" points="0,-185.5 0,-203.5 96.0146,-203.5 96.0146,-185.5 0,-185.5"/>
<text text-anchor="middle" x="48.0073" y="-191.5" font-family="Helvetica,sans-Serif" font-size="10.00" fill="#000000">src/async&#45;wrap.cc</text>
</a>
</g>
</g>
<!-- Node1&#45;&gt;Node2 -->
<g id="edge1" class="edge">
<title>Node1&#45;&gt;Node2</title>
<path fill="none" stroke="#191970" d="M1743.332,-249.1363C1512.919,-247.0934 436.6759,-235.9707 105.0073,-204 102.1114,-203.7208 99.1401,-203.383 96.1477,-203.0034"/>
<polygon fill="#191970" stroke="#191970" points="1743.628,-252.639 1753.6584,-249.2268 1743.6894,-245.6392 1743.628,-252.639"/>
</g>
<!-- Node3 -->
<g id="node3" class="node">
<title>Node3</title>
<g id="a_node3"><a xlink:href="../../dc/ded/cares__wrap_8cc.html" target="_top" xlink:title="src/cares_wrap.cc">
<polygon fill="#ffffff" stroke="#000000" points="113.7192,-185.5 113.7192,-203.5 210.2954,-203.5 210.2954,-185.5 113.7192,-185.5"/>
<text text-anchor="middle" x="162.0073" y="-191.5" font-family="Helvetica,sans-Serif" font-size="10.00" fill="#000000">src/cares_wrap.cc</text>
</a>
</g>
</g>
<!-- Node1&#45;&gt;Node3 -->
<g id="edge2" class="edge">
<title>Node1&#45;&gt;Node3</title>
<path fill="none" stroke="#191970" d="M1743.4973,-249.0391C1522.9378,-246.5804 526.8641,-233.9807 219.0073,-204 216.2115,-203.7277 213.3454,-203.4014 210.4578,-203.036"/>
<polygon fill="#191970" stroke="#191970" points="1743.6652,-252.5411 1753.7033,-249.1518 1743.7425,-245.5415 1743.6652,-252.5411"/>
</g>
<!-- Node4 -->
<g id="node4" class="node">
<title>Node4</title>
<g id="a_node4"><a xlink:href="../../d3/d36/connect__wrap_8cc.html" target="_top" xlink:title="src/connect_wrap.cc">
<polygon fill="#ffffff" stroke="#000000" points="228.4336,-185.5 228.4336,-203.5 335.5811,-203.5 335.5811,-185.5 228.4336,-185.5"/>
<text text-anchor="middle" x="282.0073" y="-191.5" font-family="Helvetica,sans-Serif" font-size="10.00" fill="#000000">src/connect_wrap.cc</text>
</a>
</g>
</g>
<!-- Node1&#45;&gt;Node4 -->
<g id="edge3" class="edge">
<title>Node1&#45;&gt;Node4</title>
<path fill="none" stroke="#191970" d="M1743.3623,-248.8191C1533.4882,-245.4381 626.6595,-229.589 345.0073,-204 342.0331,-203.7298 338.9854,-203.4109 335.9129,-203.0566"/>
<polygon fill="#191970" stroke="#191970" points="1743.6157,-252.3235 1753.6705,-248.9841 1743.7278,-245.3244 1743.6157,-252.3235"/>
</g>
<!-- Node5 -->
<g id="node5" class="node">
<title>Node5</title>
<g id="a_node5"><a xlink:href="../../d7/d47/connection__wrap_8cc.html" target="_top" xlink:title="src/connection_wrap.cc">
<polygon fill="#ffffff" stroke="#000000" points="353.7612,-185.5 353.7612,-203.5 474.2534,-203.5 474.2534,-185.5 353.7612,-185.5"/>
<text text-anchor="middle" x="414.0073" y="-191.5" font-family="Helvetica,sans-Serif" font-size="10.00" fill="#000000">src/connection_wrap.cc</text>
</a>
</g>
</g>
<!-- Node1&#45;&gt;Node5 -->
<g id="edge4" class="edge">
<title>Node1&#45;&gt;Node5</title>
<path fill="none" stroke="#191970" d="M1743.1598,-248.5719C1545.4887,-244.2954 735.9254,-225.7664 483.0073,-204 480.2364,-203.7615 477.4064,-203.4892 474.5503,-203.1911"/>
<polygon fill="#191970" stroke="#191970" points="1743.3688,-252.0771 1753.4418,-248.7934 1743.5196,-245.0787 1743.3688,-252.0771"/>
</g>
<!-- Node6 -->
<g id="node6" class="node">
<title>Node6</title>
<g id="a_node6"><a xlink:href="../../d6/d2f/fs__event__wrap_8cc.html" target="_top" xlink:title="src/fs_event_wrap.cc">
<polygon fill="#ffffff" stroke="#000000" points="492.0444,-185.5 492.0444,-203.5 601.9702,-203.5 601.9702,-185.5 492.0444,-185.5"/>
<text text-anchor="middle" x="547.0073" y="-191.5" font-family="Helvetica,sans-Serif" font-size="10.00" fill="#000000">src/fs_event_wrap.cc</text>
</a>
</g>
</g>
<!-- Node1&#45;&gt;Node6 -->
<g id="edge5" class="edge">
<title>Node1&#45;&gt;Node6</title>
<path fill="none" stroke="#191970" d="M1743.3208,-248.4469C1558.1562,-243.885 837.2609,-225.1062 611.0073,-204 608.0994,-203.7287 605.122,-203.4146 602.1192,-203.069"/>
<polygon fill="#191970" stroke="#191970" points="1743.4084,-251.95 1753.4912,-248.6964 1743.5801,-244.9521 1743.4084,-251.95"/>
</g>
<!-- Node7 -->
<g id="node7" class="node">
<title>Node7</title>
<g id="a_node7"><a xlink:href="../../df/dcb/handle__wrap_8cc.html" target="_top" xlink:title="src/handle_wrap.cc">
<polygon fill="#ffffff" stroke="#000000" points="619.9312,-185.5 619.9312,-203.5 722.0835,-203.5 722.0835,-185.5 619.9312,-185.5"/>
<text text-anchor="middle" x="671.0073" y="-191.5" font-family="Helvetica,sans-Serif" font-size="10.00" fill="#000000">src/handle_wrap.cc</text>
</a>
</g>
</g>
<!-- Node1&#45;&gt;Node7 -->
<g id="edge6" class="edge">
<title>Node1&#45;&gt;Node7</title>
<path fill="none" stroke="#191970" d="M1743.3512,-248.284C1570.316,-243.3614 932.3157,-224.2074 731.0073,-204 728.174,-203.7156 725.271,-203.3855 722.3444,-203.0225"/>
<polygon fill="#191970" stroke="#191970" points="1743.505,-251.7897 1753.6001,-248.5744 1743.7033,-244.7925 1743.505,-251.7897"/>
</g>
<!-- Node8 -->
<g id="node8" class="node">
<title>Node8</title>
<g id="a_node8"><a xlink:href="../../d4/dee/inspector__socket_8h.html" target="_top" xlink:title="src/inspector_socket.h">
<polygon fill="#ffffff" stroke="#000000" points="740.2637,-185.5 740.2637,-203.5 855.751,-203.5 855.751,-185.5 740.2637,-185.5"/>
<text text-anchor="middle" x="798.0073" y="-191.5" font-family="Helvetica,sans-Serif" font-size="10.00" fill="#000000">src/inspector_socket.h</text>
</a>
</g>
</g>
<!-- Node1&#45;&gt;Node8 -->
<g id="edge7" class="edge">
<title>Node1&#45;&gt;Node8</title>
<path fill="none" stroke="#191970" d="M1743.5369,-248.6024C1611.7872,-245.6117 1205.4045,-234.3967 870.0073,-204 865.4868,-203.5903 860.8139,-203.108 856.1208,-202.5815"/>
<polygon fill="#191970" stroke="#191970" points="1743.554,-252.1035 1753.6296,-248.8275 1743.7102,-245.1053 1743.554,-252.1035"/>
</g>
<!-- Node14 -->
<g id="node14" class="node">
<title>Node14</title>
<g id="a_node14"><a xlink:href="../../de/da5/inspector__socket_8cc.html" target="_top" xlink:title="src/inspector_socket.cc">
<polygon fill="#ffffff" stroke="#000000" points="824.0444,-125.5 824.0444,-143.5 943.9702,-143.5 943.9702,-125.5 824.0444,-125.5"/>
<text text-anchor="middle" x="884.0073" y="-131.5" font-family="Helvetica,sans-Serif" font-size="10.00" fill="#000000">src/inspector_socket.cc</text>
</a>
</g>
</g>
<!-- Node1&#45;&gt;Node14 -->
<g id="edge15" class="edge">
<title>Node1&#45;&gt;Node14</title>
<path fill="none" stroke="#191970" d="M1743.4869,-248.6672C1570.0692,-245.1692 936.0588,-230.6009 903.0073,-204 884.8822,-189.4123 883.0652,-159.3338 883.4267,-143.9753"/>
<polygon fill="#191970" stroke="#191970" points="1743.4613,-252.1673 1753.5292,-248.8677 1743.6011,-245.1687 1743.4613,-252.1673"/>
</g>
<!-- Node15 -->
<g id="node15" class="node">
<title>Node15</title>
<g id="a_node15"><a xlink:href="../../d3/dbf/module__wrap_8cc.html" target="_top" xlink:title="src/module_wrap.cc">
<polygon fill="#ffffff" stroke="#000000" points="911.5469,-185.5 911.5469,-203.5 1016.4678,-203.5 1016.4678,-185.5 911.5469,-185.5"/>
<text text-anchor="middle" x="964.0073" y="-191.5" font-family="Helvetica,sans-Serif" font-size="10.00" fill="#000000">src/module_wrap.cc</text>
</a>
</g>
</g>
<!-- Node1&#45;&gt;Node15 -->
<g id="edge16" class="edge">
<title>Node1&#45;&gt;Node15</title>
<path fill="none" stroke="#191970" d="M1743.164,-248.3373C1626.2089,-244.921 1297.1773,-233.2527 1025.0073,-204 1022.2366,-203.7022 1019.3995,-203.3669 1016.538,-203.0048"/>
<polygon fill="#191970" stroke="#191970" points="1743.393,-251.8452 1753.4892,-248.6334 1743.5937,-244.848 1743.393,-251.8452"/>
</g>
<!-- Node16 -->
<g id="node16" class="node">
<title>Node16</title>
<g id="a_node16"><a xlink:href="../../d2/deb/node__buffer_8cc.html" target="_top" xlink:title="src/node_buffer.cc">
<polygon fill="#ffffff" stroke="#000000" points="1034.2358,-185.5 1034.2358,-203.5 1131.7788,-203.5 1131.7788,-185.5 1034.2358,-185.5"/>
<text text-anchor="middle" x="1083.0073" y="-191.5" font-family="Helvetica,sans-Serif" font-size="10.00" fill="#000000">src/node_buffer.cc</text>
</a>
</g>
</g>
<!-- Node1&#45;&gt;Node16 -->
<g id="edge17" class="edge">
<title>Node1&#45;&gt;Node16</title>
<path fill="none" stroke="#191970" d="M1743.4097,-247.8643C1638.9529,-243.6341 1366.2318,-230.7454 1140.0073,-204 1137.3173,-203.682 1134.5607,-203.3254 1131.7814,-202.9418"/>
<polygon fill="#191970" stroke="#191970" points="1743.4362,-251.3681 1753.5679,-248.2698 1743.7154,-244.3737 1743.4362,-251.3681"/>
</g>
<!-- Node17 -->
<g id="node17" class="node">
<title>Node17</title>
<g id="a_node17"><a xlink:href="../../d1/d72/node__config_8cc.html" target="_top" xlink:title="src/node_config.cc">
<polygon fill="#ffffff" stroke="#000000" points="1149.3179,-185.5 1149.3179,-203.5 1248.6968,-203.5 1248.6968,-185.5 1149.3179,-185.5"/>
<text text-anchor="middle" x="1199.0073" y="-191.5" font-family="Helvetica,sans-Serif" font-size="10.00" fill="#000000">src/node_config.cc</text>
</a>
</g>
</g>
<!-- Node1&#45;&gt;Node17 -->
<g id="edge18" class="edge">
<title>Node1&#45;&gt;Node17</title>
<path fill="none" stroke="#191970" d="M1743.3219,-246.8385C1652.6555,-241.0737 1437.5309,-226.143 1258.0073,-204 1255.0212,-203.6317 1251.9545,-203.2249 1248.8638,-202.7931"/>
<polygon fill="#191970" stroke="#191970" points="1743.2957,-250.3437 1753.4962,-247.4801 1743.7363,-243.3576 1743.2957,-250.3437"/>
</g>
<!-- Node18 -->
<g id="node18" class="node">
<title>Node18</title>
<g id="a_node18"><a xlink:href="../../d2/d17/node__contextify_8cc.html" target="_top" xlink:title="src/node_contextify.cc">
<polygon fill="#ffffff" stroke="#000000" points="1266.9082,-185.5 1266.9082,-203.5 1381.1064,-203.5 1381.1064,-185.5 1266.9082,-185.5"/>
<text text-anchor="middle" x="1324.0073" y="-191.5" font-family="Helvetica,sans-Serif" font-size="10.00" fill="#000000">src/node_contextify.cc</text>
</a>
</g>
</g>
<!-- Node1&#45;&gt;Node18 -->
<g id="edge19" class="edge">
<title>Node1&#45;&gt;Node18</title>
<path fill="none" stroke="#191970" d="M1743.2928,-244.9068C1670.1136,-237.1242 1518.2111,-220.57 1390.0073,-204 1387.1371,-203.629 1384.198,-203.2399 1381.2309,-202.8397"/>
<polygon fill="#191970" stroke="#191970" points="1743.1928,-248.4157 1753.5063,-245.9904 1743.9314,-241.4548 1743.1928,-248.4157"/>
</g>
<!-- Node19 -->
<g id="node19" class="node">
<title>Node19</title>
<g id="a_node19"><a xlink:href="../../d5/d61/node__crypto_8cc.html" target="_top" xlink:title="src/node_crypto.cc">
<polygon fill="#ffffff" stroke="#000000" points="1399.0444,-185.5 1399.0444,-203.5 1498.9702,-203.5 1498.9702,-185.5 1399.0444,-185.5"/>
<text text-anchor="middle" x="1449.0073" y="-191.5" font-family="Helvetica,sans-Serif" font-size="10.00" fill="#000000">src/node_crypto.cc</text>
</a>
</g>
</g>
<!-- Node1&#45;&gt;Node19 -->
<g id="edge20" class="edge">
<title>Node1&#45;&gt;Node19</title>
<path fill="none" stroke="#191970" d="M1743.7262,-242.4572C1681.1094,-232.2681 1565.512,-213.4579 1499.2262,-202.6717"/>
<polygon fill="#191970" stroke="#191970" points="1743.2412,-245.9243 1753.6736,-244.0759 1744.3655,-239.0151 1743.2412,-245.9243"/>
</g>
<!-- Node20 -->
<g id="node20" class="node">
<title>Node20</title>
<g id="a_node20"><a xlink:href="../../df/dea/node__crypto__bio_8cc.html" target="_top" xlink:title="src/node_crypto_bio.cc">
<polygon fill="#ffffff" stroke="#000000" points="1516.5913,-185.5 1516.5913,-203.5 1635.4233,-203.5 1635.4233,-185.5 1516.5913,-185.5"/>
<text text-anchor="middle" x="1576.0073" y="-191.5" font-family="Helvetica,sans-Serif" font-size="10.00" fill="#000000">src/node_crypto_bio.cc</text>
</a>
</g>
</g>
<!-- Node1&#45;&gt;Node20 -->
<g id="edge21" class="edge">
<title>Node1&#45;&gt;Node20</title>
<path fill="none" stroke="#191970" d="M1743.7343,-238.2203C1704.3944,-227.9658 1647.0904,-213.0288 1610.6872,-203.5398"/>
<polygon fill="#191970" stroke="#191970" points="1743.0142,-241.6495 1753.5737,-240.7851 1744.7799,-234.8758 1743.0142,-241.6495"/>
</g>
<!-- Node21 -->
<g id="node21" class="node">
<title>Node21</title>
<g id="a_node21"><a xlink:href="../../d1/d90/node__http__parser_8cc.html" target="_top" xlink:title="src/node_http_parser.cc">
<polygon fill="#ffffff" stroke="#000000" points="1653.6406,-185.5 1653.6406,-203.5 1776.374,-203.5 1776.374,-185.5 1653.6406,-185.5"/>
<text text-anchor="middle" x="1715.0073" y="-191.5" font-family="Helvetica,sans-Serif" font-size="10.00" fill="#000000">src/node_http_parser.cc</text>
</a>
</g>
</g>
<!-- Node1&#45;&gt;Node21 -->
<g id="edge22" class="edge">
<title>Node1&#45;&gt;Node21</title>
<path fill="none" stroke="#191970" d="M1766.9128,-234.15C1754.136,-224.3899 1738.0135,-212.0742 1727.155,-203.7795"/>
<polygon fill="#191970" stroke="#191970" points="1765.0466,-237.1288 1775.118,-240.4179 1769.2959,-231.5661 1765.0466,-237.1288"/>
</g>
<!-- Node22 -->
<g id="node22" class="node">
<title>Node22</title>
<g id="a_node22"><a xlink:href="../../dc/de6/node__stat__watcher_8cc.html" target="_top" xlink:title="src/node_stat_watcher.cc">
<polygon fill="#ffffff" stroke="#000000" points="1794.5864,-185.5 1794.5864,-203.5 1923.4282,-203.5 1923.4282,-185.5 1794.5864,-185.5"/>
<text text-anchor="middle" x="1859.0073" y="-191.5" font-family="Helvetica,sans-Serif" font-size="10.00" fill="#000000">src/node_stat_watcher.cc</text>
</a>
</g>
</g>
<!-- Node1&#45;&gt;Node22 -->
<g id="edge23" class="edge">
<title>Node1&#45;&gt;Node22</title>
<path fill="none" stroke="#191970" d="M1807.1018,-234.15C1819.8787,-224.3899 1836.0011,-212.0742 1846.8597,-203.7795"/>
<polygon fill="#191970" stroke="#191970" points="1804.7187,-231.5661 1798.8967,-240.4179 1808.968,-237.1288 1804.7187,-231.5661"/>
</g>
<!-- Node23 -->
<g id="node23" class="node">
<title>Node23</title>
<g id="a_node23"><a xlink:href="../../df/dcb/node__url_8cc.html" target="_top" xlink:title="src/node_url.cc">
<polygon fill="#ffffff" stroke="#000000" points="1941.1035,-185.5 1941.1035,-203.5 2024.9111,-203.5 2024.9111,-185.5 1941.1035,-185.5"/>
<text text-anchor="middle" x="1983.0073" y="-191.5" font-family="Helvetica,sans-Serif" font-size="10.00" fill="#000000">src/node_url.cc</text>
</a>
</g>
</g>
<!-- Node1&#45;&gt;Node23 -->
<g id="edge24" class="edge">
<title>Node1&#45;&gt;Node23</title>
<path fill="none" stroke="#191970" d="M1829.2309,-237.6515C1865.7393,-227.4068 1917.7299,-212.8177 1950.9196,-203.5042"/>
<polygon fill="#191970" stroke="#191970" points="1828.0552,-234.3462 1819.3727,-240.4179 1829.9465,-241.0859 1828.0552,-234.3462"/>
</g>
<!-- Node24 -->
<g id="node24" class="node">
<title>Node24</title>
<g id="a_node24"><a xlink:href="../../d6/d35/node__v8_8cc.html" target="_top" xlink:title="src/node_v8.cc">
<polygon fill="#ffffff" stroke="#000000" points="2043.3794,-185.5 2043.3794,-203.5 2126.6353,-203.5 2126.6353,-185.5 2043.3794,-185.5"/>
<text text-anchor="middle" x="2085.0073" y="-191.5" font-family="Helvetica,sans-Serif" font-size="10.00" fill="#000000">src/node_v8.cc</text>
</a>
</g>
</g>
<!-- Node1&#45;&gt;Node24 -->
<g id="edge25" class="edge">
<title>Node1&#45;&gt;Node24</title>
<path fill="none" stroke="#191970" d="M1830.5774,-241.5011C1879.9298,-232.4343 1962.7594,-217.1981 2034.0073,-204 2037.0183,-203.4422 2040.1291,-202.8651 2043.26,-202.2835"/>
<polygon fill="#191970" stroke="#191970" points="1829.7735,-238.0901 1820.5704,-243.3393 1831.0382,-244.9749 1829.7735,-238.0901"/>
</g>
<!-- Node25 -->
<g id="node25" class="node">
<title>Node25</title>
<g id="a_node25"><a xlink:href="../../df/d31/node__watchdog_8cc.html" target="_top" xlink:title="src/node_watchdog.cc">
<polygon fill="#ffffff" stroke="#000000" points="2144.2563,-185.5 2144.2563,-203.5 2259.7583,-203.5 2259.7583,-185.5 2144.2563,-185.5"/>
<text text-anchor="middle" x="2202.0073" y="-191.5" font-family="Helvetica,sans-Serif" font-size="10.00" fill="#000000">src/node_watchdog.cc</text>
</a>
</g>
</g>
<!-- Node1&#45;&gt;Node25 -->
<g id="edge26" class="edge">
<title>Node1&#45;&gt;Node25</title>
<path fill="none" stroke="#191970" d="M1830.7771,-243.9836C1896.9139,-235.6053 2026.2545,-219.0526 2136.0073,-204 2138.6452,-203.6382 2141.3418,-203.2648 2144.0654,-202.8846"/>
<polygon fill="#191970" stroke="#191970" points="1830.1993,-240.5287 1820.7179,-245.2566 1831.0782,-247.4734 1830.1993,-240.5287"/>
</g>
<!-- Node26 -->
<g id="node26" class="node">
<title>Node26</title>
<g id="a_node26"><a xlink:href="../../d9/d0d/node__zlib_8cc.html" target="_top" xlink:title="src/node_zlib.cc">
<polygon fill="#ffffff" stroke="#000000" points="2278.1577,-185.5 2278.1577,-203.5 2365.8569,-203.5 2365.8569,-185.5 2278.1577,-185.5"/>
<text text-anchor="middle" x="2322.0073" y="-191.5" font-family="Helvetica,sans-Serif" font-size="10.00" fill="#000000">src/node_zlib.cc</text>
</a>
</g>
</g>
<!-- Node1&#45;&gt;Node26 -->
<g id="edge27" class="edge">
<title>Node1&#45;&gt;Node26</title>
<path fill="none" stroke="#191970" d="M1830.4416,-246.6176C1915.0804,-240.7316 2107.9182,-226.0016 2269.0073,-204 2271.9712,-203.5952 2275.0222,-203.1432 2278.0923,-202.662"/>
<polygon fill="#191970" stroke="#191970" points="1830.1615,-243.1285 1820.4258,-247.3078 1830.6428,-250.1119 1830.1615,-243.1285"/>
</g>
<!-- Node27 -->
<g id="node27" class="node">
<title>Node27</title>
<g id="a_node27"><a xlink:href="../../d7/d2c/pipe__wrap_8cc.html" target="_top" xlink:title="src/pipe_wrap.cc">
<polygon fill="#ffffff" stroke="#000000" points="2383.4927,-185.5 2383.4927,-203.5 2474.522,-203.5 2474.522,-185.5 2383.4927,-185.5"/>
<text text-anchor="middle" x="2429.0073" y="-191.5" font-family="Helvetica,sans-Serif" font-size="10.00" fill="#000000">src/pipe_wrap.cc</text>
</a>
</g>
</g>
<!-- Node1&#45;&gt;Node27 -->
<g id="edge28" class="edge">
<title>Node1&#45;&gt;Node27</title>
<path fill="none" stroke="#191970" d="M1830.7026,-247.5698C1928.5055,-242.9323 2172.3724,-229.6032 2375.0073,-204 2377.7461,-203.654 2380.5572,-203.2644 2383.3894,-202.8456"/>
<polygon fill="#191970" stroke="#191970" points="1830.4279,-244.0788 1820.6024,-248.0423 1830.7551,-251.0711 1830.4279,-244.0788"/>
</g>
<!-- Node28 -->
<g id="node28" class="node">
<title>Node28</title>
<g id="a_node28"><a xlink:href="../../d8/d14/process__wrap_8cc.html" target="_top" xlink:title="src/process_wrap.cc">
<polygon fill="#ffffff" stroke="#000000" points="2492.4385,-185.5 2492.4385,-203.5 2599.5762,-203.5 2599.5762,-185.5 2492.4385,-185.5"/>
<text text-anchor="middle" x="2546.0073" y="-191.5" font-family="Helvetica,sans-Serif" font-size="10.00" fill="#000000">src/process_wrap.cc</text>
</a>
</g>
</g>
<!-- Node1&#45;&gt;Node28 -->
<g id="edge29" class="edge">
<title>Node1&#45;&gt;Node28</title>
<path fill="none" stroke="#191970" d="M1830.5015,-247.9748C1940.3183,-243.8387 2237.5958,-230.8698 2484.0073,-204 2486.7137,-203.7049 2489.4827,-203.3768 2492.2764,-203.025"/>
<polygon fill="#191970" stroke="#191970" points="1830.3304,-244.4786 1820.4673,-248.3476 1830.5904,-251.4738 1830.3304,-244.4786"/>
</g>
<!-- Node29 -->
<g id="node29" class="node">
<title>Node29</title>
<g id="a_node29"><a xlink:href="../../d2/d9f/signal__wrap_8cc.html" target="_top" xlink:title="src/signal_wrap.cc">
<polygon fill="#ffffff" stroke="#000000" points="2617.8818,-185.5 2617.8818,-203.5 2716.1328,-203.5 2716.1328,-185.5 2617.8818,-185.5"/>
<text text-anchor="middle" x="2667.0073" y="-191.5" font-family="Helvetica,sans-Serif" font-size="10.00" fill="#000000">src/signal_wrap.cc</text>
</a>
</g>
</g>
<!-- Node1&#45;&gt;Node29 -->
<g id="edge30" class="edge">
<title>Node1&#45;&gt;Node29</title>
<path fill="none" stroke="#191970" d="M1830.5104,-248.7309C1953.235,-246.2083 2312.5288,-236.3919 2609.0073,-204 2611.8474,-203.6897 2614.7601,-203.3336 2617.6955,-202.9455"/>
<polygon fill="#191970" stroke="#191970" points="1830.318,-245.2339 1820.39,-248.9332 1830.458,-252.2325 1830.318,-245.2339"/>
</g>
<!-- Node30 -->
<g id="node30" class="node">
<title>Node30</title>
<g id="a_node30"><a xlink:href="../../d6/d00/stream__base_8cc.html" target="_top" xlink:title="src/stream_base.cc">
<polygon fill="#ffffff" stroke="#000000" points="2733.6602,-185.5 2733.6602,-203.5 2836.3545,-203.5 2836.3545,-185.5 2733.6602,-185.5"/>
<text text-anchor="middle" x="2785.0073" y="-191.5" font-family="Helvetica,sans-Serif" font-size="10.00" fill="#000000">src/stream_base.cc</text>
</a>
</g>
</g>
<!-- Node1&#45;&gt;Node30 -->
<g id="edge31" class="edge">
<title>Node1&#45;&gt;Node30</title>
<path fill="none" stroke="#191970" d="M1830.5847,-249.066C1964.4728,-247.3725 2381.5691,-239.4129 2725.0073,-204 2727.7349,-203.7187 2730.5274,-203.3966 2733.3434,-203.0449"/>
<polygon fill="#191970" stroke="#191970" points="1830.2942,-245.5691 1820.3374,-249.1902 1830.3791,-252.5686 1830.2942,-245.5691"/>
</g>
<!-- Node31 -->
<g id="node31" class="node">
<title>Node31</title>
<g id="a_node31"><a xlink:href="../../dc/d29/stream__wrap_8cc.html" target="_top" xlink:title="src/stream_wrap.cc">
<polygon fill="#ffffff" stroke="#000000" points="2854.665,-185.5 2854.665,-203.5 2957.3496,-203.5 2957.3496,-185.5 2854.665,-185.5"/>
<text text-anchor="middle" x="2906.0073" y="-191.5" font-family="Helvetica,sans-Serif" font-size="10.00" fill="#000000">src/stream_wrap.cc</text>
</a>
</g>
</g>
<!-- Node1&#45;&gt;Node31 -->
<g id="edge32" class="edge">
<title>Node1&#45;&gt;Node31</title>
<path fill="none" stroke="#191970" d="M1830.4857,-248.2785C2003.4646,-243.3182 2643.1915,-223.9919 2845.0073,-204 2848.1004,-203.6936 2851.2755,-203.3347 2854.4743,-202.9392"/>
<polygon fill="#191970" stroke="#191970" points="1830.3726,-244.7802 1820.4767,-248.5644 1830.5726,-251.7773 1830.3726,-244.7802"/>
</g>
<!-- Node32 -->
<g id="node32" class="node">
<title>Node32</title>
<g id="a_node32"><a xlink:href="../../d3/dfb/tcp__wrap_8cc.html" target="_top" xlink:title="src/tcp_wrap.cc">
<polygon fill="#ffffff" stroke="#000000" points="2975.2759,-185.5 2975.2759,-203.5 3060.7388,-203.5 3060.7388,-185.5 2975.2759,-185.5"/>
<text text-anchor="middle" x="3018.0073" y="-191.5" font-family="Helvetica,sans-Serif" font-size="10.00" fill="#000000">src/tcp_wrap.cc</text>
</a>
</g>
</g>
<!-- Node1&#45;&gt;Node32 -->
<g id="edge33" class="edge">
<title>Node1&#45;&gt;Node32</title>
<path fill="none" stroke="#191970" d="M1830.5184,-248.6502C2015.7456,-244.9046 2739.4356,-228.9405 2966.0073,-204 2969.0176,-203.6686 2972.1159,-203.2648 2975.2294,-202.8128"/>
<polygon fill="#191970" stroke="#191970" points="1830.2751,-245.1543 1820.3475,-248.8545 1830.4158,-252.1528 1830.2751,-245.1543"/>
</g>
<!-- Node33 -->
<g id="node33" class="node">
<title>Node33</title>
<g id="a_node33"><a xlink:href="../../d7/dc1/timer__wrap_8cc.html" target="_top" xlink:title="src/timer_wrap.cc">
<polygon fill="#ffffff" stroke="#000000" points="3078.835,-185.5 3078.835,-203.5 3173.1797,-203.5 3173.1797,-185.5 3078.835,-185.5"/>
<text text-anchor="middle" x="3126.0073" y="-191.5" font-family="Helvetica,sans-Serif" font-size="10.00" fill="#000000">src/timer_wrap.cc</text>
</a>
</g>
</g>
<!-- Node1&#45;&gt;Node33 -->
<g id="edge34" class="edge">
<title>Node1&#45;&gt;Node33</title>
<path fill="none" stroke="#191970" d="M1830.486,-248.7336C2025.6003,-245.1752 2821.6653,-229.3554 3070.0073,-204 3072.8523,-203.7095 3075.7713,-203.363 3078.7111,-202.9767"/>
<polygon fill="#191970" stroke="#191970" points="1830.2687,-245.2369 1820.3338,-248.9175 1830.3956,-252.2357 1830.2687,-245.2369"/>
</g>
<!-- Node34 -->
<g id="node34" class="node">
<title>Node34</title>
<g id="a_node34"><a xlink:href="../../da/de5/tls__wrap_8cc.html" target="_top" xlink:title="src/tls_wrap.cc">
<polygon fill="#ffffff" stroke="#000000" points="3190.9458,-185.5 3190.9458,-203.5 3273.0688,-203.5 3273.0688,-185.5 3190.9458,-185.5"/>
<text text-anchor="middle" x="3232.0073" y="-191.5" font-family="Helvetica,sans-Serif" font-size="10.00" fill="#000000">src/tls_wrap.cc</text>
</a>
</g>
</g>
<!-- Node1&#45;&gt;Node34 -->
<g id="edge35" class="edge">
<title>Node1&#45;&gt;Node34</title>
<path fill="none" stroke="#191970" d="M1830.5876,-248.99C2036.205,-246.4441 2910.6546,-234.0202 3182.0073,-204 3184.9055,-203.6794 3187.8873,-203.2835 3190.883,-202.8372"/>
<polygon fill="#191970" stroke="#191970" points="1830.432,-245.4915 1820.4757,-249.1139 1830.5178,-252.491 1830.432,-245.4915"/>
</g>
<!-- Node35 -->
<g id="node35" class="node">
<title>Node35</title>
<g id="a_node35"><a xlink:href="../../de/d6d/tty__wrap_8cc.html" target="_top" xlink:title="src/tty_wrap.cc">
<polygon fill="#ffffff" stroke="#000000" points="3290.6675,-185.5 3290.6675,-203.5 3373.3472,-203.5 3373.3472,-185.5 3290.6675,-185.5"/>
<text text-anchor="middle" x="3332.0073" y="-191.5" font-family="Helvetica,sans-Serif" font-size="10.00" fill="#000000">src/tty_wrap.cc</text>
</a>
</g>
</g>
<!-- Node1&#45;&gt;Node35 -->
<g id="edge36" class="edge">
<title>Node1&#45;&gt;Node35</title>
<path fill="none" stroke="#191970" d="M1830.5485,-249.1001C2044.9391,-246.99 2989.7742,-236.0079 3282.0073,-204 3284.818,-203.6922 3287.7072,-203.3128 3290.6115,-202.8847"/>
<polygon fill="#191970" stroke="#191970" points="1830.2873,-245.6024 1820.3218,-249.1995 1830.3554,-252.6021 1830.2873,-245.6024"/>
</g>
<!-- Node36 -->
<g id="node36" class="node">
<title>Node36</title>
<g id="a_node36"><a xlink:href="../../d1/d05/udp__wrap_8cc.html" target="_top" xlink:title="src/udp_wrap.cc">
<polygon fill="#ffffff" stroke="#000000" points="3391.6035,-185.5 3391.6035,-203.5 3480.4111,-203.5 3480.4111,-185.5 3391.6035,-185.5"/>
<text text-anchor="middle" x="3436.0073" y="-191.5" font-family="Helvetica,sans-Serif" font-size="10.00" fill="#000000">src/udp_wrap.cc</text>
</a>
</g>
</g>
<!-- Node1&#45;&gt;Node36 -->
<g id="edge37" class="edge">
<title>Node1&#45;&gt;Node36</title>
<path fill="none" stroke="#191970" d="M1830.5757,-249.116C2053.5504,-247.0198 3068.6615,-235.8609 3382.0073,-204 3385.1325,-203.6822 3388.3492,-203.2885 3391.582,-202.8438"/>
<polygon fill="#191970" stroke="#191970" points="1830.5295,-245.6162 1820.5625,-249.209 1830.5946,-252.6159 1830.5295,-245.6162"/>
</g>
<!-- Node9 -->
<g id="node9" class="node">
<title>Node9</title>
<g id="a_node9"><a xlink:href="../../d7/de7/inspector__socket__server_8h.html" target="_top" xlink:title="src/inspector_socket\l_server.h">
<polygon fill="#ffffff" stroke="#000000" points="698.4336,-120.5 698.4336,-148.5 805.5811,-148.5 805.5811,-120.5 698.4336,-120.5"/>
<text text-anchor="start" x="706.4336" y="-136.5" font-family="Helvetica,sans-Serif" font-size="10.00" fill="#000000">src/inspector_socket</text>
<text text-anchor="middle" x="752.0073" y="-126.5" font-family="Helvetica,sans-Serif" font-size="10.00" fill="#000000">_server.h</text>
</a>
</g>
</g>
<!-- Node8&#45;&gt;Node9 -->
<g id="edge8" class="edge">
<title>Node8&#45;&gt;Node9</title>
<path fill="none" stroke="#191970" d="M784.7283,-177.1795C777.8416,-168.1969 769.5301,-157.3558 763.0072,-148.8477"/>
<polygon fill="#191970" stroke="#191970" points="782.1589,-179.5807 791.0209,-185.3873 787.7142,-175.3217 782.1589,-179.5807"/>
</g>
<!-- Node8&#45;&gt;Node14 -->
<g id="edge14" class="edge">
<title>Node8&#45;&gt;Node14</title>
<path fill="none" stroke="#191970" d="M819.4333,-179.5516C835.6715,-168.2227 857.4495,-153.0287 871.1046,-143.5019"/>
<polygon fill="#191970" stroke="#191970" points="817.2675,-176.795 811.0689,-185.3873 821.2728,-182.5359 817.2675,-176.795"/>
</g>
<!-- Node10 -->
<g id="node10" class="node">
<title>Node10</title>
<g id="a_node10"><a xlink:href="../../d1/dc8/inspector__io_8h.html" target="_top" xlink:title="src/inspector_io.h">
<polygon fill="#ffffff" stroke="#000000" points="629.8228,-60.5 629.8228,-78.5 724.1919,-78.5 724.1919,-60.5 629.8228,-60.5"/>
<text text-anchor="middle" x="677.0073" y="-66.5" font-family="Helvetica,sans-Serif" font-size="10.00" fill="#000000">src/inspector_io.h</text>
</a>
</g>
</g>
<!-- Node9&#45;&gt;Node10 -->
<g id="edge9" class="edge">
<title>Node9&#45;&gt;Node10</title>
<path fill="none" stroke="#191970" d="M728.07,-113.7543C714.3959,-101.9034 697.9413,-87.6427 687.4777,-78.5743"/>
<polygon fill="#191970" stroke="#191970" points="725.8843,-116.4915 735.7334,-120.396 730.4688,-111.2017 725.8843,-116.4915"/>
</g>
<!-- Node12 -->
<g id="node12" class="node">
<title>Node12</title>
<g id="a_node12"><a xlink:href="../../d1/d89/inspector__io_8cc.html" target="_top" xlink:title="src/inspector_io.cc">
<polygon fill="#ffffff" stroke="#000000" points="702.6035,-.5 702.6035,-18.5 801.4111,-18.5 801.4111,-.5 702.6035,-.5"/>
<text text-anchor="middle" x="752.0073" y="-6.5" font-family="Helvetica,sans-Serif" font-size="10.00" fill="#000000">src/inspector_io.cc</text>
</a>
</g>
</g>
<!-- Node9&#45;&gt;Node12 -->
<g id="edge12" class="edge">
<title>Node9&#45;&gt;Node12</title>
<path fill="none" stroke="#191970" d="M752.0073,-109.9957C752.0073,-82.0593 752.0073,-37.8007 752.0073,-18.736"/>
<polygon fill="#191970" stroke="#191970" points="748.5074,-110.1609 752.0073,-120.1609 755.5074,-110.1609 748.5074,-110.1609"/>
</g>
<!-- Node13 -->
<g id="node13" class="node">
<title>Node13</title>
<g id="a_node13"><a xlink:href="../../da/d74/inspector__socket__server_8cc.html" target="_top" xlink:title="src/inspector_socket\l_server.cc">
<polygon fill="#ffffff" stroke="#000000" points="780.4336,-55.5 780.4336,-83.5 887.5811,-83.5 887.5811,-55.5 780.4336,-55.5"/>
<text text-anchor="start" x="788.4336" y="-71.5" font-family="Helvetica,sans-Serif" font-size="10.00" fill="#000000">src/inspector_socket</text>
<text text-anchor="middle" x="834.0073" y="-61.5" font-family="Helvetica,sans-Serif" font-size="10.00" fill="#000000">_server.cc</text>
</a>
</g>
</g>
<!-- Node9&#45;&gt;Node13 -->
<g id="edge13" class="edge">
<title>Node9&#45;&gt;Node13</title>
<path fill="none" stroke="#191970" d="M777.6574,-114.1677C790.1962,-104.2283 804.9738,-92.5144 816.2493,-83.5765"/>
<polygon fill="#191970" stroke="#191970" points="775.4625,-111.4412 769.8001,-120.396 779.8109,-116.9268 775.4625,-111.4412"/>
</g>
<!-- Node11 -->
<g id="node11" class="node">
<title>Node11</title>
<g id="a_node11"><a xlink:href="../../d5/d2d/inspector__agent_8cc.html" target="_top" xlink:title="src/inspector_agent.cc">
<polygon fill="#ffffff" stroke="#000000" points="568.9829,-.5 568.9829,-18.5 685.0317,-18.5 685.0317,-.5 568.9829,-.5"/>
<text text-anchor="middle" x="627.0073" y="-6.5" font-family="Helvetica,sans-Serif" font-size="10.00" fill="#000000">src/inspector_agent.cc</text>
</a>
</g>
</g>
<!-- Node10&#45;&gt;Node11 -->
<g id="edge10" class="edge">
<title>Node10&#45;&gt;Node11</title>
<path fill="none" stroke="#191970" d="M662.9892,-52.6783C653.8187,-41.6737 642.1877,-27.7165 634.6727,-18.6985"/>
<polygon fill="#191970" stroke="#191970" points="660.3227,-54.9457 669.4134,-60.3873 665.7003,-50.4644 660.3227,-54.9457"/>
</g>
<!-- Node10&#45;&gt;Node12 -->
<g id="edge11" class="edge">
<title>Node10&#45;&gt;Node12</title>
<path fill="none" stroke="#191970" d="M696.4338,-53.9588C710.4124,-42.7759 728.7946,-28.0702 740.5092,-18.6985"/>
<polygon fill="#191970" stroke="#191970" points="694.0205,-51.4073 688.3982,-60.3873 698.3934,-56.8734 694.0205,-51.4073"/>
</g>
</g>
</svg>
        <g id="navigator" transform="translate(0 0)" fill="#404254">
                <rect fill="#f2f5e9" fill-opacity="0.5" stroke="#606060" stroke-width=".5" x="0" y="0" width="60" height="60"/>
                <use id="zoomplus" xlink:href="#zoomPlus" x="17" y="9" onmousedown="handleZoom(evt,'in')"/>
                <use id="zoomminus" xlink:href="#zoomMin" x="42" y="9" onmousedown="handleZoom(evt,'out')"/>
                <use id="reset" xlink:href="#resetDef" x="30" y="36" onmousedown="handleReset()"/>
                <g id="arrowUp" xlink:href="#dirArrow" transform="translate(30 24)" onmousedown="handlePan(0,-1)">
                  <use xlink:href="#rim" fill="#404040">
                        <set attributeName="fill" to="#808080" begin="arrowUp.mouseover" end="arrowUp.mouseout"/>
                  </use>
                  <path fill="none" stroke="white" stroke-width="1.5" d="M0,-3.0v7 M-2.5,-0.5L0,-3.0L2.5,-0.5"/>
                </g>
                <g id="arrowRight" xlink:href="#dirArrow" transform="rotate(90) translate(36 -43)" onmousedown="handlePan(1,0)">
                  <use xlink:href="#rim" fill="#404040">
                        <set attributeName="fill" to="#808080" begin="arrowRight.mouseover" end="arrowRight.mouseout"/>
                  </use>
                  <path fill="none" stroke="white" stroke-width="1.5" d="M0,-3.0v7 M-2.5,-0.5L0,-3.0L2.5,-0.5"/>
                </g>
                <g id="arrowDown" xlink:href="#dirArrow" transform="rotate(180) translate(-30 -48)" onmousedown="handlePan(0,1)">
                  <use xlink:href="#rim" fill="#404040">
                        <set attributeName="fill" to="#808080" begin="arrowDown.mouseover" end="arrowDown.mouseout"/>
                  </use>
                  <path fill="none" stroke="white" stroke-width="1.5" d="M0,-3.0v7 M-2.5,-0.5L0,-3.0L2.5,-0.5"/>
                </g>
                <g id="arrowLeft" xlink:href="#dirArrow" transform="rotate(270) translate(-36 17)" onmousedown="handlePan(-1,0)">
                  <use xlink:href="#rim" fill="#404040">
                        <set attributeName="fill" to="#808080" begin="arrowLeft.mouseover" end="arrowLeft.mouseout"/>
                  </use>
                  <path fill="none" stroke="white" stroke-width="1.5" d="M0,-3.0v7 M-2.5,-0.5L0,-3.0L2.5,-0.5"/>
                </g>
        </g>
        <svg viewBox="0 0 15 15" width="100%" height="30px" preserveAspectRatio="xMaxYMin meet">
         <g id="arrow_out" transform="scale(0.3 0.3)">
          <a xlink:href="util-inl_8h__dep__incl_org.svg" target="_base">
           <rect id="button" ry="5" rx="5" y="6" x="6" height="38" width="38"
                fill="#f2f5e9" fill-opacity="0.5" stroke="#606060" stroke-width="1.0"/>
           <path id="arrow"
             d="M 11.500037,31.436501 C 11.940474,20.09759 22.043105,11.32322 32.158766,21.979434 L 37.068811,17.246167 C 37.068811,17.246167 37.088388,32 37.088388,32 L 22.160133,31.978069 C 22.160133,31.978069 26.997745,27.140456 26.997745,27.140456 C 18.528582,18.264221 13.291696,25.230495 11.500037,31.436501 z"
             style="fill:#404040;"/>
          </a>
         </g>
        </svg>
</svg>
