<?xml version="1.0" encoding="UTF-8" standalone="no"?>
<!DOCTYPE svg PUBLIC "-//W3C//DTD SVG 1.1//EN"
 "http://www.w3.org/Graphics/SVG/1.1/DTD/svg11.dtd">
<!-- Generated by graphviz version 2.40.1 (20161225.0304)
 -->
<!-- Title: src/string_search.h Pages: 1 -->
<svg width="228pt" height="82pt"
 viewBox="0.00 0.00 228.23 82.00" xmlns="http://www.w3.org/2000/svg" xmlns:xlink="http://www.w3.org/1999/xlink">
<g id="graph0" class="graph" transform="scale(1 1) rotate(0) translate(4 78)">
<title>src/string_search.h</title>
<polygon fill="#ffffff" stroke="transparent" points="-4,4 -4,-78 224.2295,-78 224.2295,4 -4,4"/>
<!-- Node1 -->
<g id="node1" class="node">
<title>Node1</title>
<polygon fill="#bfbfbf" stroke="#000000" points="57.5327,-55.5 57.5327,-73.5 158.0103,-73.5 158.0103,-55.5 57.5327,-55.5"/>
<text text-anchor="middle" x="107.7715" y="-61.5" font-family="Helvetica,sans-Serif" font-size="10.00" fill="#000000">src/string_search.h</text>
</g>
<!-- Node2 -->
<g id="node2" class="node">
<title>Node2</title>
<g id="a_node2"><a xlink:href="../../d2/deb/node__buffer_8cc.html" target="_top" xlink:title="src/node_buffer.cc">
<polygon fill="#ffffff" stroke="#000000" points="0,-.5 0,-18.5 97.543,-18.5 97.543,-.5 0,-.5"/>
<text text-anchor="middle" x="48.7715" y="-6.5" font-family="Helvetica,sans-Serif" font-size="10.00" fill="#000000">src/node_buffer.cc</text>
</a>
</g>
</g>
<!-- Node1&#45;&gt;Node2 -->
<g id="edge1" class="edge">
<title>Node1&#45;&gt;Node2</title>
<path fill="none" stroke="#191970" d="M90.6981,-48.5841C80.3287,-38.9177 67.4527,-26.9147 58.7258,-18.7795"/>
<polygon fill="#191970" stroke="#191970" points="88.3276,-51.1592 98.0288,-55.4179 93.1007,-46.0389 88.3276,-51.1592"/>
</g>
<!-- Node3 -->
<g id="node3" class="node">
<title>Node3</title>
<g id="a_node3"><a xlink:href="../../da/d50/string__search_8cc.html" target="_top" xlink:title="src/string_search.cc">
<polygon fill="#ffffff" stroke="#000000" points="115.3135,-.5 115.3135,-18.5 220.2295,-18.5 220.2295,-.5 115.3135,-.5"/>
<text text-anchor="middle" x="167.7715" y="-6.5" font-family="Helvetica,sans-Serif" font-size="10.00" fill="#000000">src/string_search.cc</text>
</a>
</g>
</g>
<!-- Node1&#45;&gt;Node3 -->
<g id="edge2" class="edge">
<title>Node1&#45;&gt;Node3</title>
<path fill="none" stroke="#191970" d="M125.1342,-48.5841C135.6794,-38.9177 148.7737,-26.9147 157.6484,-18.7795"/>
<polygon fill="#191970" stroke="#191970" points="122.6858,-46.0805 117.6793,-55.4179 127.4159,-51.2406 122.6858,-46.0805"/>
</g>
</g>
</svg>
