<?xml version="1.0" encoding="UTF-8" standalone="no"?>
<!DOCTYPE svg PUBLIC "-//W3C//DTD SVG 1.1//EN"
 "http://www.w3.org/Graphics/SVG/1.1/DTD/svg11.dtd">
<!-- Generated by graphviz version 2.40.1 (20161225.0304)
 -->
<!-- Title: src/tracing/node_trace_writer.h Pages: 1 -->
<svg width="368pt" height="222pt"
 viewBox="0.00 0.00 368.04 222.00" xmlns="http://www.w3.org/2000/svg" xmlns:xlink="http://www.w3.org/1999/xlink">
<g id="graph0" class="graph" transform="scale(1 1) rotate(0) translate(4 218)">
<title>src/tracing/node_trace_writer.h</title>
<polygon fill="#ffffff" stroke="transparent" points="-4,4 -4,-218 364.0366,-218 364.0366,4 -4,4"/>
<!-- Node7 -->
<g id="node1" class="node">
<title>Node7</title>
<polygon fill="#bfbfbf" stroke="#000000" points="112.0962,-185.5 112.0962,-213.5 227.0366,-213.5 227.0366,-185.5 112.0962,-185.5"/>
<text text-anchor="start" x="120.0962" y="-201.5" font-family="Helvetica,sans-Serif" font-size="10.00" fill="#000000">src/tracing/node_trace</text>
<text text-anchor="middle" x="169.5664" y="-191.5" font-family="Helvetica,sans-Serif" font-size="10.00" fill="#000000">_writer.h</text>
</g>
<!-- Node8 -->
<g id="node2" class="node">
<title>Node8</title>
<g id="a_node2"><a xlink:href="../../de/d9e/agent_8h.html" target="_top" xlink:title="src/tracing/agent.h">
<polygon fill="#ffffff" stroke="#000000" points="35.4336,-60.5 35.4336,-78.5 133.6992,-78.5 133.6992,-60.5 35.4336,-60.5"/>
<text text-anchor="middle" x="84.5664" y="-66.5" font-family="Helvetica,sans-Serif" font-size="10.00" fill="#000000">src/tracing/agent.h</text>
</a>
</g>
</g>
<!-- Node7&#45;&gt;Node8 -->
<g id="edge1" class="edge">
<title>Node7&#45;&gt;Node8</title>
<path fill="none" stroke="#191970" d="M134.8067,-179.6741C123.3124,-171.5352 111.4583,-161.1479 103.5664,-149 89.0323,-126.6279 85.5983,-94.2399 84.7995,-78.6123"/>
<polygon fill="#191970" stroke="#191970" points="133.1953,-182.8068 143.4547,-185.4517 137.0839,-176.9862 133.1953,-182.8068"/>
</g>
<!-- Node11 -->
<g id="node5" class="node">
<title>Node11</title>
<g id="a_node5"><a xlink:href="../../d7/db0/node__trace__buffer_8h.html" target="_top" xlink:title="src/tracing/node_trace\l_buffer.h">
<polygon fill="#ffffff" stroke="#000000" points="112.0962,-120.5 112.0962,-148.5 227.0366,-148.5 227.0366,-120.5 112.0962,-120.5"/>
<text text-anchor="start" x="120.0962" y="-136.5" font-family="Helvetica,sans-Serif" font-size="10.00" fill="#000000">src/tracing/node_trace</text>
<text text-anchor="middle" x="169.5664" y="-126.5" font-family="Helvetica,sans-Serif" font-size="10.00" fill="#000000">_buffer.h</text>
</a>
</g>
</g>
<!-- Node7&#45;&gt;Node11 -->
<g id="edge4" class="edge">
<title>Node7&#45;&gt;Node11</title>
<path fill="none" stroke="#191970" d="M169.5664,-175.1081C169.5664,-166.1539 169.5664,-156.3227 169.5664,-148.5765"/>
<polygon fill="#191970" stroke="#191970" points="166.0665,-175.3959 169.5664,-185.396 173.0665,-175.396 166.0665,-175.3959"/>
</g>
<!-- Node13 -->
<g id="node7" class="node">
<title>Node13</title>
<g id="a_node7"><a xlink:href="../../df/def/node__trace__writer_8cc.html" target="_top" xlink:title="src/tracing/node_trace\l_writer.cc">
<polygon fill="#ffffff" stroke="#000000" points="245.0962,-120.5 245.0962,-148.5 360.0366,-148.5 360.0366,-120.5 245.0962,-120.5"/>
<text text-anchor="start" x="253.0962" y="-136.5" font-family="Helvetica,sans-Serif" font-size="10.00" fill="#000000">src/tracing/node_trace</text>
<text text-anchor="middle" x="302.5664" y="-126.5" font-family="Helvetica,sans-Serif" font-size="10.00" fill="#000000">_writer.cc</text>
</a>
</g>
</g>
<!-- Node7&#45;&gt;Node13 -->
<g id="edge7" class="edge">
<title>Node7&#45;&gt;Node13</title>
<path fill="none" stroke="#191970" d="M207.4365,-180.9921C228.5177,-170.6892 254.3432,-158.0677 273.7637,-148.5765"/>
<polygon fill="#191970" stroke="#191970" points="205.873,-177.8605 198.4254,-185.396 208.9467,-184.1496 205.873,-177.8605"/>
</g>
<!-- Node9 -->
<g id="node3" class="node">
<title>Node9</title>
<g id="a_node3"><a xlink:href="../../dc/dfd/node_8cc.html" target="_top" xlink:title="src/node.cc">
<polygon fill="#ffffff" stroke="#000000" points="0,-.5 0,-18.5 67.1328,-18.5 67.1328,-.5 0,-.5"/>
<text text-anchor="middle" x="33.5664" y="-6.5" font-family="Helvetica,sans-Serif" font-size="10.00" fill="#000000">src/node.cc</text>
</a>
</g>
</g>
<!-- Node8&#45;&gt;Node9 -->
<g id="edge2" class="edge">
<title>Node8&#45;&gt;Node9</title>
<path fill="none" stroke="#191970" d="M70.2679,-52.6783C60.914,-41.6737 49.0504,-27.7165 41.3851,-18.6985"/>
<polygon fill="#191970" stroke="#191970" points="67.6773,-55.0347 76.8206,-60.3873 73.0109,-50.5011 67.6773,-55.0347"/>
</g>
<!-- Node10 -->
<g id="node4" class="node">
<title>Node10</title>
<g id="a_node4"><a xlink:href="../../d2/d0e/agent_8cc.html" target="_top" xlink:title="src/tracing/agent.cc">
<polygon fill="#ffffff" stroke="#000000" points="85.2144,-.5 85.2144,-18.5 187.9185,-18.5 187.9185,-.5 85.2144,-.5"/>
<text text-anchor="middle" x="136.5664" y="-6.5" font-family="Helvetica,sans-Serif" font-size="10.00" fill="#000000">src/tracing/agent.cc</text>
</a>
</g>
</g>
<!-- Node8&#45;&gt;Node10 -->
<g id="edge3" class="edge">
<title>Node8&#45;&gt;Node10</title>
<path fill="none" stroke="#191970" d="M99.1453,-52.6783C108.6826,-41.6737 120.7788,-27.7165 128.5944,-18.6985"/>
<polygon fill="#191970" stroke="#191970" points="96.3685,-50.5381 92.4641,-60.3873 101.6583,-55.1226 96.3685,-50.5381"/>
</g>
<!-- Node11&#45;&gt;Node8 -->
<g id="edge5" class="edge">
<title>Node11&#45;&gt;Node8</title>
<path fill="none" stroke="#191970" d="M142.8711,-114.0859C127.2893,-102.1704 108.4024,-87.7275 96.4328,-78.5743"/>
<polygon fill="#191970" stroke="#191970" points="141.053,-117.1017 151.1227,-120.396 145.3052,-111.5412 141.053,-117.1017"/>
</g>
<!-- Node12 -->
<g id="node6" class="node">
<title>Node12</title>
<g id="a_node6"><a xlink:href="../../d4/dc6/node__trace__buffer_8cc.html" target="_top" xlink:title="src/tracing/node_trace\l_buffer.cc">
<polygon fill="#ffffff" stroke="#000000" points="152.0962,-55.5 152.0962,-83.5 267.0366,-83.5 267.0366,-55.5 152.0962,-55.5"/>
<text text-anchor="start" x="160.0962" y="-71.5" font-family="Helvetica,sans-Serif" font-size="10.00" fill="#000000">src/tracing/node_trace</text>
<text text-anchor="middle" x="209.5664" y="-61.5" font-family="Helvetica,sans-Serif" font-size="10.00" fill="#000000">_buffer.cc</text>
</a>
</g>
</g>
<!-- Node11&#45;&gt;Node12 -->
<g id="edge6" class="edge">
<title>Node11&#45;&gt;Node12</title>
<path fill="none" stroke="#191970" d="M183.4945,-111.8669C189.2837,-102.4594 195.8228,-91.8334 200.9039,-83.5765"/>
<polygon fill="#191970" stroke="#191970" points="180.506,-110.045 178.2458,-120.396 186.4676,-113.7137 180.506,-110.045"/>
</g>
</g>
</svg>
