<?xml version="1.0" encoding="UTF-8" standalone="no"?>
<!DOCTYPE svg PUBLIC "-//W3C//DTD SVG 1.1//EN"
 "http://www.w3.org/Graphics/SVG/1.1/DTD/svg11.dtd">
<!-- Generated by graphviz version 2.40.1 (20161225.0304)
 -->
<!-- Title: src/node_config.cc Pages: 1 -->
<svg width="690pt" height="137pt"
 viewBox="0.00 0.00 690.33 137.00" xmlns="http://www.w3.org/2000/svg" xmlns:xlink="http://www.w3.org/1999/xlink">
<g id="graph0" class="graph" transform="scale(1 1) rotate(0) translate(4 133)">
<title>src/node_config.cc</title>
<polygon fill="#ffffff" stroke="transparent" points="-4,4 -4,-133 686.332,-133 686.332,4 -4,4"/>
<!-- Node0 -->
<g id="node1" class="node">
<title>Node0</title>
<polygon fill="#bfbfbf" stroke="#000000" points="346.7612,-110.5 346.7612,-128.5 446.1401,-128.5 446.1401,-110.5 346.7612,-110.5"/>
<text text-anchor="middle" x="396.4507" y="-116.5" font-family="Helvetica,sans-Serif" font-size="10.00" fill="#000000">src/node_config.cc</text>
</g>
<!-- Node1 -->
<g id="node2" class="node">
<title>Node1</title>
<g id="a_node2"><a xlink:href="../../d1/d77/node_8h.html" target="_top" xlink:title="node.h">
<polygon fill="#ffffff" stroke="#000000" points="158.1577,-55.5 158.1577,-73.5 204.7437,-73.5 204.7437,-55.5 158.1577,-55.5"/>
<text text-anchor="middle" x="181.4507" y="-61.5" font-family="Helvetica,sans-Serif" font-size="10.00" fill="#000000">node.h</text>
</a>
</g>
</g>
<!-- Node0&#45;&gt;Node1 -->
<g id="edge1" class="edge">
<title>Node0&#45;&gt;Node1</title>
<path fill="none" stroke="#191970" d="M358.1169,-110.4986C323.1029,-102.159 269.6795,-89.1415 214.7429,-74.2718"/>
<polygon fill="#191970" stroke="#191970" points="215.4031,-70.8242 204.8348,-71.574 213.564,-77.5783 215.4031,-70.8242"/>
</g>
<!-- Node7 -->
<g id="node8" class="node">
<title>Node7</title>
<g id="a_node8"><a xlink:href="../../da/d1f/node__i18n_8h.html" target="_top" xlink:title="node_i18n.h">
<polygon fill="#ffffff" stroke="#000000" points="222.9238,-55.5 222.9238,-73.5 293.9775,-73.5 293.9775,-55.5 222.9238,-55.5"/>
<text text-anchor="middle" x="258.4507" y="-61.5" font-family="Helvetica,sans-Serif" font-size="10.00" fill="#000000">node_i18n.h</text>
</a>
</g>
</g>
<!-- Node0&#45;&gt;Node7 -->
<g id="edge7" class="edge">
<title>Node0&#45;&gt;Node7</title>
<path fill="none" stroke="#191970" d="M373.6628,-110.4179C351.09,-101.4215 316.3055,-87.5581 290.861,-77.4172"/>
<polygon fill="#191970" stroke="#191970" points="291.8577,-74.0467 281.2724,-73.5956 289.266,-80.5493 291.8577,-74.0467"/>
</g>
<!-- Node8 -->
<g id="node9" class="node">
<title>Node8</title>
<g id="a_node9"><a xlink:href="../../d5/d81/env_8h.html" target="_top" xlink:title="env.h">
<polygon fill="#ffffff" stroke="#000000" points="311.5879,-55.5 311.5879,-73.5 351.3135,-73.5 351.3135,-55.5 311.5879,-55.5"/>
<text text-anchor="middle" x="331.4507" y="-61.5" font-family="Helvetica,sans-Serif" font-size="10.00" fill="#000000">env.h</text>
</a>
</g>
</g>
<!-- Node0&#45;&gt;Node8 -->
<g id="edge8" class="edge">
<title>Node0&#45;&gt;Node8</title>
<path fill="none" stroke="#191970" d="M385.7173,-110.4179C376.0841,-102.2667 361.729,-90.1201 350.2025,-80.3669"/>
<polygon fill="#191970" stroke="#191970" points="352.312,-77.5671 342.4173,-73.7795 347.7904,-82.9108 352.312,-77.5671"/>
</g>
<!-- Node9 -->
<g id="node10" class="node">
<title>Node9</title>
<g id="a_node10"><a xlink:href="../../d9/d50/env-inl_8h.html" target="_top" xlink:title="env&#45;inl.h">
<polygon fill="#ffffff" stroke="#000000" points="369.5518,-55.5 369.5518,-73.5 423.3496,-73.5 423.3496,-55.5 369.5518,-55.5"/>
<text text-anchor="middle" x="396.4507" y="-61.5" font-family="Helvetica,sans-Serif" font-size="10.00" fill="#000000">env&#45;inl.h</text>
</a>
</g>
</g>
<!-- Node0&#45;&gt;Node9 -->
<g id="edge9" class="edge">
<title>Node0&#45;&gt;Node9</title>
<path fill="none" stroke="#191970" d="M396.4507,-110.4179C396.4507,-103.2164 396.4507,-92.8962 396.4507,-83.8632"/>
<polygon fill="#191970" stroke="#191970" points="399.9508,-83.7794 396.4507,-73.7795 392.9508,-83.7795 399.9508,-83.7794"/>
</g>
<!-- Node10 -->
<g id="node11" class="node">
<title>Node10</title>
<g id="a_node11"><a xlink:href="../../d8/d3c/util_8h.html" target="_top" xlink:title="util.h">
<polygon fill="#ffffff" stroke="#000000" points="440.8892,-55.5 440.8892,-73.5 478.0122,-73.5 478.0122,-55.5 440.8892,-55.5"/>
<text text-anchor="middle" x="459.4507" y="-61.5" font-family="Helvetica,sans-Serif" font-size="10.00" fill="#000000">util.h</text>
</a>
</g>
</g>
<!-- Node0&#45;&gt;Node10 -->
<g id="edge10" class="edge">
<title>Node0&#45;&gt;Node10</title>
<path fill="none" stroke="#191970" d="M406.8539,-110.4179C416.1906,-102.2667 430.104,-90.1201 441.2758,-80.3669"/>
<polygon fill="#191970" stroke="#191970" points="443.5901,-82.9927 448.8215,-73.7795 438.9865,-77.7194 443.5901,-82.9927"/>
</g>
<!-- Node11 -->
<g id="node12" class="node">
<title>Node11</title>
<g id="a_node12"><a xlink:href="../../d5/d8c/util-inl_8h.html" target="_top" xlink:title="util&#45;inl.h">
<polygon fill="#ffffff" stroke="#000000" points="496.2217,-55.5 496.2217,-73.5 546.6797,-73.5 546.6797,-55.5 496.2217,-55.5"/>
<text text-anchor="middle" x="521.4507" y="-61.5" font-family="Helvetica,sans-Serif" font-size="10.00" fill="#000000">util&#45;inl.h</text>
</a>
</g>
</g>
<!-- Node0&#45;&gt;Node11 -->
<g id="edge11" class="edge">
<title>Node0&#45;&gt;Node11</title>
<path fill="none" stroke="#191970" d="M417.0919,-110.4179C437.3573,-101.5011 468.4892,-87.803 491.4796,-77.6873"/>
<polygon fill="#191970" stroke="#191970" points="493.0353,-80.8267 500.7788,-73.5956 490.216,-74.4195 493.0353,-80.8267"/>
</g>
<!-- Node12 -->
<g id="node13" class="node">
<title>Node12</title>
<g id="a_node13"><a xlink:href="../../dc/d2b/node__debug__options_8h.html" target="_top" xlink:title="node_debug_options.h">
<polygon fill="#ffffff" stroke="#000000" points="564.5693,-55.5 564.5693,-73.5 682.332,-73.5 682.332,-55.5 564.5693,-55.5"/>
<text text-anchor="middle" x="623.4507" y="-61.5" font-family="Helvetica,sans-Serif" font-size="10.00" fill="#000000">node_debug_options.h</text>
</a>
</g>
</g>
<!-- Node0&#45;&gt;Node12 -->
<g id="edge12" class="edge">
<title>Node0&#45;&gt;Node12</title>
<path fill="none" stroke="#191970" d="M433.6809,-110.4795C472.6899,-101.0279 534.0701,-86.1561 576.4065,-75.8984"/>
<polygon fill="#191970" stroke="#191970" points="577.3055,-79.2819 586.2001,-73.5255 575.6571,-72.4787 577.3055,-79.2819"/>
</g>
<!-- Node2 -->
<g id="node3" class="node">
<title>Node2</title>
<polygon fill="#ffffff" stroke="#bfbfbf" points="0,-.5 0,-18.5 34.9014,-18.5 34.9014,-.5 0,-.5"/>
<text text-anchor="middle" x="17.4507" y="-6.5" font-family="Helvetica,sans-Serif" font-size="10.00" fill="#000000">v8.h</text>
</g>
<!-- Node1&#45;&gt;Node2 -->
<g id="edge2" class="edge">
<title>Node1&#45;&gt;Node2</title>
<path fill="none" stroke="#191970" d="M158.1376,-56.8963C132.6007,-48.5371 90.211,-34.5739 44.6182,-19.0161"/>
<polygon fill="#191970" stroke="#191970" points="45.7485,-15.7036 35.1539,-15.7792 43.4832,-22.327 45.7485,-15.7036"/>
</g>
<!-- Node3 -->
<g id="node4" class="node">
<title>Node3</title>
<g id="a_node4"><a xlink:href="../../da/d9c/node__version_8h.html" target="_top" xlink:title="node_version.h">
<polygon fill="#ffffff" stroke="#000000" points="53.2588,-.5 53.2588,-18.5 137.6426,-18.5 137.6426,-.5 53.2588,-.5"/>
<text text-anchor="middle" x="95.4507" y="-6.5" font-family="Helvetica,sans-Serif" font-size="10.00" fill="#000000">node_version.h</text>
</a>
</g>
</g>
<!-- Node1&#45;&gt;Node3 -->
<g id="edge3" class="edge">
<title>Node1&#45;&gt;Node3</title>
<path fill="none" stroke="#191970" d="M167.2495,-55.4179C153.9294,-46.8992 133.7857,-34.0166 118.2215,-24.0627"/>
<polygon fill="#191970" stroke="#191970" points="119.9832,-21.0348 109.6729,-18.5956 116.2117,-26.932 119.9832,-21.0348"/>
</g>
<!-- Node4 -->
<g id="node5" class="node">
<title>Node4</title>
<polygon fill="#ffffff" stroke="#bfbfbf" points="155.665,-.5 155.665,-18.5 207.2363,-18.5 207.2363,-.5 155.665,-.5"/>
<text text-anchor="middle" x="181.4507" y="-6.5" font-family="Helvetica,sans-Serif" font-size="10.00" fill="#000000">assert.h</text>
</g>
<!-- Node1&#45;&gt;Node4 -->
<g id="edge4" class="edge">
<title>Node1&#45;&gt;Node4</title>
<path fill="none" stroke="#191970" d="M181.4507,-55.4179C181.4507,-48.2164 181.4507,-37.8962 181.4507,-28.8632"/>
<polygon fill="#191970" stroke="#191970" points="184.9508,-28.7794 181.4507,-18.7795 177.9508,-28.7795 184.9508,-28.7794"/>
</g>
<!-- Node5 -->
<g id="node6" class="node">
<title>Node5</title>
<polygon fill="#ffffff" stroke="#bfbfbf" points="225.3301,-.5 225.3301,-18.5 273.5713,-18.5 273.5713,-.5 225.3301,-.5"/>
<text text-anchor="middle" x="249.4507" y="-6.5" font-family="Helvetica,sans-Serif" font-size="10.00" fill="#000000">stdint.h</text>
</g>
<!-- Node1&#45;&gt;Node5 -->
<g id="edge5" class="edge">
<title>Node1&#45;&gt;Node5</title>
<path fill="none" stroke="#191970" d="M192.6795,-55.4179C202.8551,-47.1876 218.067,-34.8839 230.1837,-25.0836"/>
<polygon fill="#191970" stroke="#191970" points="232.4038,-27.7895 237.9779,-18.7795 228.0017,-22.3469 232.4038,-27.7895"/>
</g>
<!-- Node6 -->
<g id="node7" class="node">
<title>Node6</title>
<polygon fill="#ffffff" stroke="#bfbfbf" points="291.4409,-.5 291.4409,-18.5 357.4604,-18.5 357.4604,-.5 291.4409,-.5"/>
<text text-anchor="middle" x="324.4507" y="-6.5" font-family="Helvetica,sans-Serif" font-size="10.00" fill="#000000">sys/types.h</text>
</g>
<!-- Node1&#45;&gt;Node6 -->
<g id="edge6" class="edge">
<title>Node1&#45;&gt;Node6</title>
<path fill="none" stroke="#191970" d="M204.7444,-55.5409C228.1834,-46.5259 264.5597,-32.535 291.0635,-22.3412"/>
<polygon fill="#191970" stroke="#191970" points="292.6134,-25.4951 300.6904,-18.6386 290.1005,-18.9617 292.6134,-25.4951"/>
</g>
<!-- Node13 -->
<g id="node14" class="node">
<title>Node13</title>
<polygon fill="#ffffff" stroke="#bfbfbf" points="603.2241,-.5 603.2241,-18.5 643.6772,-18.5 643.6772,-.5 603.2241,-.5"/>
<text text-anchor="middle" x="623.4507" y="-6.5" font-family="Helvetica,sans-Serif" font-size="10.00" fill="#000000">string</text>
</g>
<!-- Node12&#45;&gt;Node13 -->
<g id="edge13" class="edge">
<title>Node12&#45;&gt;Node13</title>
<path fill="none" stroke="#191970" d="M623.4507,-55.4179C623.4507,-48.2164 623.4507,-37.8962 623.4507,-28.8632"/>
<polygon fill="#191970" stroke="#191970" points="626.9508,-28.7794 623.4507,-18.7795 619.9508,-28.7795 626.9508,-28.7794"/>
</g>
</g>
</svg>
