<?xml version="1.0" encoding="UTF-8" standalone="no"?>
<!DOCTYPE svg PUBLIC "-//W3C//DTD SVG 1.1//EN"
 "http://www.w3.org/Graphics/SVG/1.1/DTD/svg11.dtd">
<!-- Generated by graphviz version 2.40.1 (20161225.0304)
 -->
<!-- Title: src/node_constants.cc Pages: 1 -->
<!--zoomable 82 -->
<svg id="main" version="1.1" xmlns="http://www.w3.org/2000/svg" xmlns:xlink="http://www.w3.org/1999/xlink" xml:space="preserve" onload="init(evt)">
<style type="text/css"><![CDATA[
.edge:hover path { stroke: red; }
.edge:hover polygon { stroke: red; fill: red; }
]]></style>
<script type="text/javascript"><![CDATA[
var edges = document.getElementsByTagName('g');
if (edges && edges.length) {
  for (var i=0;i<edges.length;i++) {
    if (edges[i].id.substr(0,4)=='edge') {
      edges[i].setAttribute('class','edge');
    }
  }
}
]]></script>
        <defs>
                <circle id="rim" cx="0" cy="0" r="7"/>
                <circle id="rim2" cx="0" cy="0" r="3.5"/>
                <g id="zoomPlus">
                        <use xlink:href="#rim" fill="#404040">
                                <set attributeName="fill" to="#808080" begin="zoomplus.mouseover" end="zoomplus.mouseout"/>
                        </use>
                        <path d="M-4,0h8M0,-4v8" fill="none" stroke="white" stroke-width="1.5" pointer-events="none"/>
                </g>
                <g id="zoomMin">
                        <use xlink:href="#rim" fill="#404040">
                                <set attributeName="fill" to="#808080" begin="zoomminus.mouseover" end="zoomminus.mouseout"/>
                        </use>
                        <path d="M-4,0h8" fill="none" stroke="white" stroke-width="1.5" pointer-events="none"/>
                </g>
                <g id="dirArrow">
                        <path fill="none" stroke="white" stroke-width="1.5" d="M0,-3.0v7 M-2.5,-0.5L0,-3.0L2.5,-0.5"/>
                </g>
               <g id="resetDef">
                       <use xlink:href="#rim2" fill="#404040">
                               <set attributeName="fill" to="#808080" begin="reset.mouseover" end="reset.mouseout"/>
                       </use>
               </g>
        </defs>

<script type="text/javascript">
var viewWidth = 824;
var viewHeight = 82;
var sectionId = 'dynsection-0';
</script>
<script xlink:href="../../svgpan.js"/>
<svg id="graph" class="graph">
<g id="viewport">
<title>src/node_constants.cc</title>
<polygon fill="#ffffff" stroke="transparent" points="-4,4 -4,-78 819.8618,-78 819.8618,4 -4,4"/>
<!-- Node0 -->
<g id="node1" class="node">
<title>Node0</title>
<polygon fill="#bfbfbf" stroke="#000000" points="351.7266,-55.5 351.7266,-73.5 467.2236,-73.5 467.2236,-55.5 351.7266,-55.5"/>
<text text-anchor="middle" x="409.4751" y="-61.5" font-family="Helvetica,sans-Serif" font-size="10.00" fill="#000000">src/node_constants.cc</text>
</g>
<!-- Node1 -->
<g id="node2" class="node">
<title>Node1</title>
<g id="a_node2"><a xlink:href="../../db/dcc/node__constants_8h.html" target="_top" xlink:title="node_constants.h">
<polygon fill="#ffffff" stroke="#000000" points="0,-.5 0,-18.5 94.9502,-18.5 94.9502,-.5 0,-.5"/>
<text text-anchor="middle" x="47.4751" y="-6.5" font-family="Helvetica,sans-Serif" font-size="10.00" fill="#000000">node_constants.h</text>
</a>
</g>
</g>
<!-- Node0&#45;&gt;Node1 -->
<g id="edge1" class="edge">
<title>Node0&#45;&gt;Node1</title>
<path fill="none" stroke="#191970" d="M351.6119,-56.2555C292.2044,-47.7099 196.8005,-33.7623 105.1273,-19.2407"/>
<polygon fill="#191970" stroke="#191970" points="105.5484,-15.7638 95.1231,-17.6512 104.45,-22.677 105.5484,-15.7638"/>
</g>
<!-- Node2 -->
<g id="node3" class="node">
<title>Node2</title>
<g id="a_node3"><a xlink:href="../../d5/d81/env_8h.html" target="_top" xlink:title="env.h">
<polygon fill="#ffffff" stroke="#000000" points="112.6123,-.5 112.6123,-18.5 152.3379,-18.5 152.3379,-.5 112.6123,-.5"/>
<text text-anchor="middle" x="132.4751" y="-6.5" font-family="Helvetica,sans-Serif" font-size="10.00" fill="#000000">env.h</text>
</a>
</g>
</g>
<!-- Node0&#45;&gt;Node2 -->
<g id="edge2" class="edge">
<title>Node0&#45;&gt;Node2</title>
<path fill="none" stroke="#191970" d="M351.6191,-56.1535C303.3223,-48.6728 232.5599,-36.5238 162.2544,-18.9194"/>
<polygon fill="#191970" stroke="#191970" points="162.8935,-15.4706 152.3394,-16.399 161.1689,-22.2548 162.8935,-15.4706"/>
</g>
<!-- Node3 -->
<g id="node4" class="node">
<title>Node3</title>
<g id="a_node4"><a xlink:href="../../d9/d50/env-inl_8h.html" target="_top" xlink:title="env&#45;inl.h">
<polygon fill="#ffffff" stroke="#000000" points="170.5762,-.5 170.5762,-18.5 224.374,-18.5 224.374,-.5 170.5762,-.5"/>
<text text-anchor="middle" x="197.4751" y="-6.5" font-family="Helvetica,sans-Serif" font-size="10.00" fill="#000000">env&#45;inl.h</text>
</a>
</g>
</g>
<!-- Node0&#45;&gt;Node3 -->
<g id="edge3" class="edge">
<title>Node0&#45;&gt;Node3</title>
<path fill="none" stroke="#191970" d="M374.3991,-55.4873C340.8804,-46.8625 288.6691,-33.3962 234.3932,-19.2312"/>
<polygon fill="#191970" stroke="#191970" points="235.158,-15.8136 224.5981,-16.673 233.3891,-22.5864 235.158,-15.8136"/>
</g>
<!-- Node4 -->
<g id="node5" class="node">
<title>Node4</title>
<polygon fill="#ffffff" stroke="#bfbfbf" points="242.3931,-.5 242.3931,-18.5 276.5571,-18.5 276.5571,-.5 242.3931,-.5"/>
<text text-anchor="middle" x="259.4751" y="-6.5" font-family="Helvetica,sans-Serif" font-size="10.00" fill="#000000">uv.h</text>
</g>
<!-- Node0&#45;&gt;Node4 -->
<g id="edge4" class="edge">
<title>Node0&#45;&gt;Node4</title>
<path fill="none" stroke="#191970" d="M384.7056,-55.4179C357.5814,-45.4723 314.2348,-29.5785 286.3163,-19.3418"/>
<polygon fill="#191970" stroke="#191970" points="287.381,-16.0043 276.7873,-15.8478 284.9711,-22.5765 287.381,-16.0043"/>
</g>
<!-- Node5 -->
<g id="node6" class="node">
<title>Node5</title>
<polygon fill="#ffffff" stroke="#bfbfbf" points="294.8027,-.5 294.8027,-18.5 334.1475,-18.5 334.1475,-.5 294.8027,-.5"/>
<text text-anchor="middle" x="314.4751" y="-6.5" font-family="Helvetica,sans-Serif" font-size="10.00" fill="#000000">zlib.h</text>
</g>
<!-- Node0&#45;&gt;Node5 -->
<g id="edge5" class="edge">
<title>Node0&#45;&gt;Node5</title>
<path fill="none" stroke="#191970" d="M393.7878,-55.4179C378.9361,-46.8195 356.4053,-33.7754 339.1482,-23.7844"/>
<polygon fill="#191970" stroke="#191970" points="340.5936,-20.577 330.1857,-18.5956 337.0864,-26.635 340.5936,-20.577"/>
</g>
<!-- Node6 -->
<g id="node7" class="node">
<title>Node6</title>
<polygon fill="#ffffff" stroke="#bfbfbf" points="352.6328,-.5 352.6328,-18.5 400.3174,-18.5 400.3174,-.5 352.6328,-.5"/>
<text text-anchor="middle" x="376.4751" y="-6.5" font-family="Helvetica,sans-Serif" font-size="10.00" fill="#000000">errno.h</text>
</g>
<!-- Node0&#45;&gt;Node6 -->
<g id="edge6" class="edge">
<title>Node0&#45;&gt;Node6</title>
<path fill="none" stroke="#191970" d="M404.0258,-55.4179C399.4675,-47.8207 392.8267,-36.7527 387.2071,-27.3866"/>
<polygon fill="#191970" stroke="#191970" points="390.189,-25.5536 382.0428,-18.7795 384.1865,-29.1552 390.189,-25.5536"/>
</g>
<!-- Node7 -->
<g id="node8" class="node">
<title>Node7</title>
<polygon fill="#ffffff" stroke="#bfbfbf" points="417.9629,-.5 417.9629,-18.5 468.9873,-18.5 468.9873,-.5 417.9629,-.5"/>
<text text-anchor="middle" x="443.4751" y="-6.5" font-family="Helvetica,sans-Serif" font-size="10.00" fill="#000000">unistd.h</text>
</g>
<!-- Node0&#45;&gt;Node7 -->
<g id="edge7" class="edge">
<title>Node0&#45;&gt;Node7</title>
<path fill="none" stroke="#191970" d="M415.0895,-55.4179C419.786,-47.8207 426.628,-36.7527 432.4179,-27.3866"/>
<polygon fill="#191970" stroke="#191970" points="435.4575,-29.1258 437.7387,-18.7795 429.5034,-25.445 435.4575,-29.1258"/>
</g>
<!-- Node8 -->
<g id="node9" class="node">
<title>Node8</title>
<polygon fill="#ffffff" stroke="#bfbfbf" points="487.1353,-.5 487.1353,-18.5 529.8149,-18.5 529.8149,-.5 487.1353,-.5"/>
<text text-anchor="middle" x="508.4751" y="-6.5" font-family="Helvetica,sans-Serif" font-size="10.00" fill="#000000">fcntl.h</text>
</g>
<!-- Node0&#45;&gt;Node8 -->
<g id="edge8" class="edge">
<title>Node0&#45;&gt;Node8</title>
<path fill="none" stroke="#191970" d="M425.8229,-55.4179C441.4432,-46.7399 465.2149,-33.5334 483.2613,-23.5077"/>
<polygon fill="#191970" stroke="#191970" points="485.0612,-26.5117 492.103,-18.5956 481.6616,-20.3925 485.0612,-26.5117"/>
</g>
<!-- Node9 -->
<g id="node10" class="node">
<title>Node9</title>
<polygon fill="#ffffff" stroke="#bfbfbf" points="548.2412,-.5 548.2412,-18.5 598.709,-18.5 598.709,-.5 548.2412,-.5"/>
<text text-anchor="middle" x="573.4751" y="-6.5" font-family="Helvetica,sans-Serif" font-size="10.00" fill="#000000">signal.h</text>
</g>
<!-- Node0&#45;&gt;Node9 -->
<g id="edge9" class="edge">
<title>Node0&#45;&gt;Node9</title>
<path fill="none" stroke="#191970" d="M436.5564,-55.4179C464.429,-46.0704 507.969,-31.4685 538.4467,-21.2473"/>
<polygon fill="#191970" stroke="#191970" points="539.8722,-24.4609 548.2403,-17.9629 537.6464,-17.8242 539.8722,-24.4609"/>
</g>
<!-- Node10 -->
<g id="node11" class="node">
<title>Node10</title>
<polygon fill="#ffffff" stroke="#bfbfbf" points="616.4653,-.5 616.4653,-18.5 682.4849,-18.5 682.4849,-.5 616.4653,-.5"/>
<text text-anchor="middle" x="649.4751" y="-6.5" font-family="Helvetica,sans-Serif" font-size="10.00" fill="#000000">sys/types.h</text>
</g>
<!-- Node0&#45;&gt;Node10 -->
<g id="edge10" class="edge">
<title>Node0&#45;&gt;Node10</title>
<path fill="none" stroke="#191970" d="M448.8375,-55.4795C492.1414,-45.5556 561.5208,-29.6562 606.2908,-19.3964"/>
<polygon fill="#191970" stroke="#191970" points="607.3154,-22.7524 616.2809,-17.107 605.7517,-15.9293 607.3154,-22.7524"/>
</g>
<!-- Node11 -->
<g id="node12" class="node">
<title>Node11</title>
<polygon fill="#ffffff" stroke="#bfbfbf" points="700.3569,-.5 700.3569,-18.5 758.5933,-18.5 758.5933,-.5 700.3569,-.5"/>
<text text-anchor="middle" x="729.4751" y="-6.5" font-family="Helvetica,sans-Serif" font-size="10.00" fill="#000000">sys/stat.h</text>
</g>
<!-- Node0&#45;&gt;Node11 -->
<g id="edge11" class="edge">
<title>Node0&#45;&gt;Node11</title>
<path fill="none" stroke="#191970" d="M467.2559,-56.6442C522.2635,-48.8342 607.5553,-35.8663 690.2631,-19.1196"/>
<polygon fill="#191970" stroke="#191970" points="690.9776,-22.5461 700.0731,-17.1127 689.5745,-15.6881 690.9776,-22.5461"/>
</g>
<!-- Node12 -->
<g id="node13" class="node">
<title>Node12</title>
<polygon fill="#ffffff" stroke="#bfbfbf" points="777.0884,-.5 777.0884,-18.5 815.8618,-18.5 815.8618,-.5 777.0884,-.5"/>
<text text-anchor="middle" x="796.4751" y="-6.5" font-family="Helvetica,sans-Serif" font-size="10.00" fill="#000000">limits</text>
</g>
<!-- Node0&#45;&gt;Node12 -->
<g id="edge12" class="edge">
<title>Node0&#45;&gt;Node12</title>
<path fill="none" stroke="#191970" d="M467.4138,-60.5421C536.6107,-55.0601 655.8649,-43.2223 766.9288,-18.7056"/>
<polygon fill="#191970" stroke="#191970" points="767.9718,-22.0586 776.9609,-16.451 766.4368,-15.229 767.9718,-22.0586"/>
</g>
</g>
</svg>
        <g id="navigator" transform="translate(0 0)" fill="#404254">
                <rect fill="#f2f5e9" fill-opacity="0.5" stroke="#606060" stroke-width=".5" x="0" y="0" width="60" height="60"/>
                <use id="zoomplus" xlink:href="#zoomPlus" x="17" y="9" onmousedown="handleZoom(evt,'in')"/>
                <use id="zoomminus" xlink:href="#zoomMin" x="42" y="9" onmousedown="handleZoom(evt,'out')"/>
                <use id="reset" xlink:href="#resetDef" x="30" y="36" onmousedown="handleReset()"/>
                <g id="arrowUp" xlink:href="#dirArrow" transform="translate(30 24)" onmousedown="handlePan(0,-1)">
                  <use xlink:href="#rim" fill="#404040">
                        <set attributeName="fill" to="#808080" begin="arrowUp.mouseover" end="arrowUp.mouseout"/>
                  </use>
                  <path fill="none" stroke="white" stroke-width="1.5" d="M0,-3.0v7 M-2.5,-0.5L0,-3.0L2.5,-0.5"/>
                </g>
                <g id="arrowRight" xlink:href="#dirArrow" transform="rotate(90) translate(36 -43)" onmousedown="handlePan(1,0)">
                  <use xlink:href="#rim" fill="#404040">
                        <set attributeName="fill" to="#808080" begin="arrowRight.mouseover" end="arrowRight.mouseout"/>
                  </use>
                  <path fill="none" stroke="white" stroke-width="1.5" d="M0,-3.0v7 M-2.5,-0.5L0,-3.0L2.5,-0.5"/>
                </g>
                <g id="arrowDown" xlink:href="#dirArrow" transform="rotate(180) translate(-30 -48)" onmousedown="handlePan(0,1)">
                  <use xlink:href="#rim" fill="#404040">
                        <set attributeName="fill" to="#808080" begin="arrowDown.mouseover" end="arrowDown.mouseout"/>
                  </use>
                  <path fill="none" stroke="white" stroke-width="1.5" d="M0,-3.0v7 M-2.5,-0.5L0,-3.0L2.5,-0.5"/>
                </g>
                <g id="arrowLeft" xlink:href="#dirArrow" transform="rotate(270) translate(-36 17)" onmousedown="handlePan(-1,0)">
                  <use xlink:href="#rim" fill="#404040">
                        <set attributeName="fill" to="#808080" begin="arrowLeft.mouseover" end="arrowLeft.mouseout"/>
                  </use>
                  <path fill="none" stroke="white" stroke-width="1.5" d="M0,-3.0v7 M-2.5,-0.5L0,-3.0L2.5,-0.5"/>
                </g>
        </g>
        <svg viewBox="0 0 15 15" width="100%" height="30px" preserveAspectRatio="xMaxYMin meet">
         <g id="arrow_out" transform="scale(0.3 0.3)">
          <a xlink:href="node__constants_8cc__incl_org.svg" target="_base">
           <rect id="button" ry="5" rx="5" y="6" x="6" height="38" width="38"
                fill="#f2f5e9" fill-opacity="0.5" stroke="#606060" stroke-width="1.0"/>
           <path id="arrow"
             d="M 11.500037,31.436501 C 11.940474,20.09759 22.043105,11.32322 32.158766,21.979434 L 37.068811,17.246167 C 37.068811,17.246167 37.088388,32 37.088388,32 L 22.160133,31.978069 C 22.160133,31.978069 26.997745,27.140456 26.997745,27.140456 C 18.528582,18.264221 13.291696,25.230495 11.500037,31.436501 z"
             style="fill:#404040;"/>
          </a>
         </g>
        </svg>
</svg>
