<?xml version="1.0" encoding="UTF-8" standalone="no"?>
<!DOCTYPE svg PUBLIC "-//W3C//DTD SVG 1.1//EN"
 "http://www.w3.org/Graphics/SVG/1.1/DTD/svg11.dtd">
<!-- Generated by graphviz version 2.40.1 (20161225.0304)
 -->
<!-- Title: src/node_crypto.cc Pages: 1 -->
<!--zoomable 192 -->
<svg id="main" version="1.1" xmlns="http://www.w3.org/2000/svg" xmlns:xlink="http://www.w3.org/1999/xlink" xml:space="preserve" onload="init(evt)">
<style type="text/css"><![CDATA[
.edge:hover path { stroke: red; }
.edge:hover polygon { stroke: red; fill: red; }
]]></style>
<script type="text/javascript"><![CDATA[
var edges = document.getElementsByTagName('g');
if (edges && edges.length) {
  for (var i=0;i<edges.length;i++) {
    if (edges[i].id.substr(0,4)=='edge') {
      edges[i].setAttribute('class','edge');
    }
  }
}
]]></script>
        <defs>
                <circle id="rim" cx="0" cy="0" r="7"/>
                <circle id="rim2" cx="0" cy="0" r="3.5"/>
                <g id="zoomPlus">
                        <use xlink:href="#rim" fill="#404040">
                                <set attributeName="fill" to="#808080" begin="zoomplus.mouseover" end="zoomplus.mouseout"/>
                        </use>
                        <path d="M-4,0h8M0,-4v8" fill="none" stroke="white" stroke-width="1.5" pointer-events="none"/>
                </g>
                <g id="zoomMin">
                        <use xlink:href="#rim" fill="#404040">
                                <set attributeName="fill" to="#808080" begin="zoomminus.mouseover" end="zoomminus.mouseout"/>
                        </use>
                        <path d="M-4,0h8" fill="none" stroke="white" stroke-width="1.5" pointer-events="none"/>
                </g>
                <g id="dirArrow">
                        <path fill="none" stroke="white" stroke-width="1.5" d="M0,-3.0v7 M-2.5,-0.5L0,-3.0L2.5,-0.5"/>
                </g>
               <g id="resetDef">
                       <use xlink:href="#rim2" fill="#404040">
                               <set attributeName="fill" to="#808080" begin="reset.mouseover" end="reset.mouseout"/>
                       </use>
               </g>
        </defs>

<script type="text/javascript">
var viewWidth = 2087;
var viewHeight = 192;
var sectionId = 'dynsection-0';
</script>
<script xlink:href="../../svgpan.js"/>
<svg id="graph" class="graph">
<g id="viewport">
<title>src/node_crypto.cc</title>
<polygon fill="#ffffff" stroke="transparent" points="-4,4 -4,-188 2082.7559,-188 2082.7559,4 -4,4"/>
<!-- Node0 -->
<g id="node1" class="node">
<title>Node0</title>
<polygon fill="#bfbfbf" stroke="#000000" points="981.4878,-165.5 981.4878,-183.5 1081.4136,-183.5 1081.4136,-165.5 981.4878,-165.5"/>
<text text-anchor="middle" x="1031.4507" y="-171.5" font-family="Helvetica,sans-Serif" font-size="10.00" fill="#000000">src/node_crypto.cc</text>
</g>
<!-- Node1 -->
<g id="node2" class="node">
<title>Node1</title>
<g id="a_node2"><a xlink:href="../../d1/d77/node_8h.html" target="_top" xlink:title="node.h">
<polygon fill="#ffffff" stroke="#000000" points="126.1577,-55.5 126.1577,-73.5 172.7437,-73.5 172.7437,-55.5 126.1577,-55.5"/>
<text text-anchor="middle" x="149.4507" y="-61.5" font-family="Helvetica,sans-Serif" font-size="10.00" fill="#000000">node.h</text>
</a>
</g>
</g>
<!-- Node0&#45;&gt;Node1 -->
<g id="edge1" class="edge">
<title>Node0&#45;&gt;Node1</title>
<path fill="none" stroke="#191970" d="M981.247,-173.4446C801.7139,-169.4654 200.4796,-154.2969 168.4507,-129 155.0185,-118.391 150.7401,-98.7757 149.5361,-83.9511"/>
<polygon fill="#191970" stroke="#191970" points="153.0256,-83.6233 149.114,-73.777 146.0316,-83.9135 153.0256,-83.6233"/>
</g>
<!-- Node2 -->
<g id="node3" class="node">
<title>Node2</title>
<polygon fill="#ffffff" stroke="#bfbfbf" points="0,-.5 0,-18.5 34.9014,-18.5 34.9014,-.5 0,-.5"/>
<text text-anchor="middle" x="17.4507" y="-6.5" font-family="Helvetica,sans-Serif" font-size="10.00" fill="#000000">v8.h</text>
</g>
<!-- Node0&#45;&gt;Node2 -->
<g id="edge25" class="edge">
<title>Node0&#45;&gt;Node2</title>
<path fill="none" stroke="#191970" d="M981.4061,-173.9502C784.4829,-171.5652 71.986,-160.7634 36.4507,-129 8.4936,-104.0104 10.2861,-55.7712 13.9337,-28.854"/>
<polygon fill="#191970" stroke="#191970" points="17.4259,-29.1772 15.5291,-18.7535 10.5117,-28.0849 17.4259,-29.1772"/>
</g>
<!-- Node7 -->
<g id="node8" class="node">
<title>Node7</title>
<g id="a_node8"><a xlink:href="../../d8/d1c/node__buffer_8h.html" target="_top" xlink:title="node_buffer.h">
<polygon fill="#ffffff" stroke="#000000" points="44.9526,-110.5 44.9526,-128.5 121.9487,-128.5 121.9487,-110.5 44.9526,-110.5"/>
<text text-anchor="middle" x="83.4507" y="-116.5" font-family="Helvetica,sans-Serif" font-size="10.00" fill="#000000">node_buffer.h</text>
</a>
</g>
</g>
<!-- Node0&#45;&gt;Node7 -->
<g id="edge7" class="edge">
<title>Node0&#45;&gt;Node7</title>
<path fill="none" stroke="#191970" d="M981.2417,-172.8113C817.6927,-167.1751 301.2851,-148.2762 135.4507,-129 134.3568,-128.8728 133.2512,-128.7367 132.1374,-128.5928"/>
<polygon fill="#191970" stroke="#191970" points="132.3859,-125.0922 121.9861,-127.116 131.3781,-132.0193 132.3859,-125.0922"/>
</g>
<!-- Node8 -->
<g id="node9" class="node">
<title>Node8</title>
<g id="a_node9"><a xlink:href="../../db/dcc/node__constants_8h.html" target="_top" xlink:title="node_constants.h">
<polygon fill="#ffffff" stroke="#000000" points="176.9756,-110.5 176.9756,-128.5 271.9258,-128.5 271.9258,-110.5 176.9756,-110.5"/>
<text text-anchor="middle" x="224.4507" y="-116.5" font-family="Helvetica,sans-Serif" font-size="10.00" fill="#000000">node_constants.h</text>
</a>
</g>
</g>
<!-- Node0&#45;&gt;Node8 -->
<g id="edge10" class="edge">
<title>Node0&#45;&gt;Node8</title>
<path fill="none" stroke="#191970" d="M981.1919,-173.3209C861.6675,-170.1158 550.942,-159.4268 282.0105,-129.0692"/>
<polygon fill="#191970" stroke="#191970" points="282.392,-125.5901 272.0599,-127.9347 281.599,-132.545 282.392,-125.5901"/>
</g>
<!-- Node9 -->
<g id="node10" class="node">
<title>Node9</title>
<g id="a_node10"><a xlink:href="../../d0/da7/node__crypto_8h.html" target="_top" xlink:title="node_crypto.h">
<polygon fill="#ffffff" stroke="#000000" points="289.7612,-110.5 289.7612,-128.5 369.1401,-128.5 369.1401,-110.5 289.7612,-110.5"/>
<text text-anchor="middle" x="329.4507" y="-116.5" font-family="Helvetica,sans-Serif" font-size="10.00" fill="#000000">node_crypto.h</text>
</a>
</g>
</g>
<!-- Node0&#45;&gt;Node9 -->
<g id="edge11" class="edge">
<title>Node0&#45;&gt;Node9</title>
<path fill="none" stroke="#191970" d="M981.27,-173.0888C873.135,-169.598 609.9715,-158.6884 379.4873,-128.9711"/>
<polygon fill="#191970" stroke="#191970" points="379.599,-125.4561 369.2303,-127.6332 378.6936,-132.3973 379.599,-125.4561"/>
</g>
<!-- Node10 -->
<g id="node11" class="node">
<title>Node10</title>
<g id="a_node11"><a xlink:href="../../da/d4a/node__crypto__bio_8h.html" target="_top" xlink:title="node_crypto_bio.h">
<polygon fill="#ffffff" stroke="#000000" points="387.3081,-110.5 387.3081,-128.5 485.5933,-128.5 485.5933,-110.5 387.3081,-110.5"/>
<text text-anchor="middle" x="436.4507" y="-116.5" font-family="Helvetica,sans-Serif" font-size="10.00" fill="#000000">node_crypto_bio.h</text>
</a>
</g>
</g>
<!-- Node0&#45;&gt;Node10 -->
<g id="edge12" class="edge">
<title>Node0&#45;&gt;Node10</title>
<path fill="none" stroke="#191970" d="M981.3426,-171.5608C887.9238,-165.7969 680.624,-151.6701 495.9439,-129.1011"/>
<polygon fill="#191970" stroke="#191970" points="496.1272,-125.5973 485.774,-127.8468 495.2703,-132.5447 496.1272,-125.5973"/>
</g>
<!-- Node11 -->
<g id="node12" class="node">
<title>Node11</title>
<g id="a_node12"><a xlink:href="../../d2/d75/node__crypto__groups_8h.html" target="_top" xlink:title="node_crypto_groups.h">
<polygon fill="#ffffff" stroke="#000000" points="503.6924,-110.5 503.6924,-128.5 619.209,-128.5 619.209,-110.5 503.6924,-110.5"/>
<text text-anchor="middle" x="561.4507" y="-116.5" font-family="Helvetica,sans-Serif" font-size="10.00" fill="#000000">node_crypto_groups.h</text>
</a>
</g>
</g>
<!-- Node0&#45;&gt;Node11 -->
<g id="edge13" class="edge">
<title>Node0&#45;&gt;Node11</title>
<path fill="none" stroke="#191970" d="M981.4678,-169.0675C906.0203,-160.8037 758.5604,-144.404 633.4507,-129 632.1837,-128.844 630.9042,-128.6855 629.6154,-128.5249"/>
<polygon fill="#191970" stroke="#191970" points="629.9582,-125.0405 619.5985,-127.2603 629.0814,-131.9853 629.9582,-125.0405"/>
</g>
<!-- Node12 -->
<g id="node13" class="node">
<title>Node12</title>
<g id="a_node13"><a xlink:href="../../d8/dc3/node__mutex_8h.html" target="_top" xlink:title="node_mutex.h">
<polygon fill="#ffffff" stroke="#000000" points="675.7612,-110.5 675.7612,-128.5 755.1401,-128.5 755.1401,-110.5 675.7612,-110.5"/>
<text text-anchor="middle" x="715.4507" y="-116.5" font-family="Helvetica,sans-Serif" font-size="10.00" fill="#000000">node_mutex.h</text>
</a>
</g>
</g>
<!-- Node0&#45;&gt;Node12 -->
<g id="edge14" class="edge">
<title>Node0&#45;&gt;Node12</title>
<path fill="none" stroke="#191970" d="M980.9964,-166.3545C929.1775,-157.8943 845.9288,-144.0419 765.0913,-129.2689"/>
<polygon fill="#191970" stroke="#191970" points="765.7147,-125.8249 755.2473,-127.463 764.4516,-132.71 765.7147,-125.8249"/>
</g>
<!-- Node13 -->
<g id="node14" class="node">
<title>Node13</title>
<g id="a_node14"><a xlink:href="../../d8/d3c/util_8h.html" target="_top" xlink:title="util.h">
<polygon fill="#ffffff" stroke="#000000" points="635.8892,-55.5 635.8892,-73.5 673.0122,-73.5 673.0122,-55.5 635.8892,-55.5"/>
<text text-anchor="middle" x="654.4507" y="-61.5" font-family="Helvetica,sans-Serif" font-size="10.00" fill="#000000">util.h</text>
</a>
</g>
</g>
<!-- Node0&#45;&gt;Node13 -->
<g id="edge23" class="edge">
<title>Node0&#45;&gt;Node13</title>
<path fill="none" stroke="#191970" d="M981.1949,-171.4991C886.4737,-165.3759 688.968,-150.2068 666.4507,-129 654.4122,-117.6622 652.169,-98.4384 652.4826,-83.9203"/>
<polygon fill="#191970" stroke="#191970" points="656.0017,-83.7286 653.1439,-73.5265 649.0159,-83.284 656.0017,-83.7286"/>
</g>
<!-- Node15 -->
<g id="node16" class="node">
<title>Node15</title>
<g id="a_node16"><a xlink:href="../../d6/d47/tls__wrap_8h.html" target="_top" xlink:title="tls_wrap.h">
<polygon fill="#ffffff" stroke="#000000" points="772.6626,-110.5 772.6626,-128.5 834.2388,-128.5 834.2388,-110.5 772.6626,-110.5"/>
<text text-anchor="middle" x="803.4507" y="-116.5" font-family="Helvetica,sans-Serif" font-size="10.00" fill="#000000">tls_wrap.h</text>
</a>
</g>
</g>
<!-- Node0&#45;&gt;Node15 -->
<g id="edge17" class="edge">
<title>Node0&#45;&gt;Node15</title>
<path fill="none" stroke="#191970" d="M994.0564,-165.4795C952.7704,-155.5201 886.535,-139.5423 844.0198,-129.2864"/>
<polygon fill="#191970" stroke="#191970" points="844.819,-125.8789 834.2771,-126.9362 843.1775,-132.6837 844.819,-125.8789"/>
</g>
<!-- Node16 -->
<g id="node17" class="node">
<title>Node16</title>
<g id="a_node17"><a xlink:href="../../d4/d56/async-wrap_8h.html" target="_top" xlink:title="async&#45;wrap.h">
<polygon fill="#ffffff" stroke="#000000" points="852.7168,-110.5 852.7168,-128.5 928.1846,-128.5 928.1846,-110.5 852.7168,-110.5"/>
<text text-anchor="middle" x="890.4507" y="-116.5" font-family="Helvetica,sans-Serif" font-size="10.00" fill="#000000">async&#45;wrap.h</text>
</a>
</g>
</g>
<!-- Node0&#45;&gt;Node16 -->
<g id="edge18" class="edge">
<title>Node0&#45;&gt;Node16</title>
<path fill="none" stroke="#191970" d="M1008.1674,-165.4179C985.0018,-156.3817 949.2484,-142.4353 923.2211,-132.2828"/>
<polygon fill="#191970" stroke="#191970" points="924.3568,-128.969 913.7686,-128.5956 921.813,-135.4904 924.3568,-128.969"/>
</g>
<!-- Node17 -->
<g id="node18" class="node">
<title>Node17</title>
<g id="a_node18"><a xlink:href="../../d5/d30/async-wrap-inl_8h.html" target="_top" xlink:title="async&#45;wrap&#45;inl.h">
<polygon fill="#ffffff" stroke="#000000" points="946.0493,-110.5 946.0493,-128.5 1034.8521,-128.5 1034.8521,-110.5 946.0493,-110.5"/>
<text text-anchor="middle" x="990.4507" y="-116.5" font-family="Helvetica,sans-Serif" font-size="10.00" fill="#000000">async&#45;wrap&#45;inl.h</text>
</a>
</g>
</g>
<!-- Node0&#45;&gt;Node17 -->
<g id="edge19" class="edge">
<title>Node0&#45;&gt;Node17</title>
<path fill="none" stroke="#191970" d="M1024.6804,-165.4179C1018.899,-157.6624 1010.4214,-146.29 1003.3497,-136.8035"/>
<polygon fill="#191970" stroke="#191970" points="1006.1509,-134.7051 997.3681,-128.7795 1000.5387,-138.8888 1006.1509,-134.7051"/>
</g>
<!-- Node18 -->
<g id="node19" class="node">
<title>Node18</title>
<g id="a_node19"><a xlink:href="../../d5/d81/env_8h.html" target="_top" xlink:title="env.h">
<polygon fill="#ffffff" stroke="#000000" points="1052.5879,-110.5 1052.5879,-128.5 1092.3135,-128.5 1092.3135,-110.5 1052.5879,-110.5"/>
<text text-anchor="middle" x="1072.4507" y="-116.5" font-family="Helvetica,sans-Serif" font-size="10.00" fill="#000000">env.h</text>
</a>
</g>
</g>
<!-- Node0&#45;&gt;Node18 -->
<g id="edge20" class="edge">
<title>Node0&#45;&gt;Node18</title>
<path fill="none" stroke="#191970" d="M1038.221,-165.4179C1044.0024,-157.6624 1052.48,-146.29 1059.5517,-136.8035"/>
<polygon fill="#191970" stroke="#191970" points="1062.3627,-138.8888 1065.5333,-128.7795 1056.7505,-134.7051 1062.3627,-138.8888"/>
</g>
<!-- Node19 -->
<g id="node20" class="node">
<title>Node19</title>
<g id="a_node20"><a xlink:href="../../d9/d50/env-inl_8h.html" target="_top" xlink:title="env&#45;inl.h">
<polygon fill="#ffffff" stroke="#000000" points="1110.5518,-110.5 1110.5518,-128.5 1164.3496,-128.5 1164.3496,-110.5 1110.5518,-110.5"/>
<text text-anchor="middle" x="1137.4507" y="-116.5" font-family="Helvetica,sans-Serif" font-size="10.00" fill="#000000">env&#45;inl.h</text>
</a>
</g>
</g>
<!-- Node0&#45;&gt;Node19 -->
<g id="edge21" class="edge">
<title>Node0&#45;&gt;Node19</title>
<path fill="none" stroke="#191970" d="M1048.9544,-165.4179C1065.8326,-156.6603 1091.5994,-143.2907 1110.9843,-133.2326"/>
<polygon fill="#191970" stroke="#191970" points="1112.6566,-136.308 1119.9209,-128.5956 1109.4327,-130.0946 1112.6566,-136.308"/>
</g>
<!-- Node20 -->
<g id="node21" class="node">
<title>Node20</title>
<g id="a_node21"><a xlink:href="../../d8/dbe/string__bytes_8h.html" target="_top" xlink:title="string_bytes.h">
<polygon fill="#ffffff" stroke="#000000" points="1182.3228,-110.5 1182.3228,-128.5 1260.5786,-128.5 1260.5786,-110.5 1182.3228,-110.5"/>
<text text-anchor="middle" x="1221.4507" y="-116.5" font-family="Helvetica,sans-Serif" font-size="10.00" fill="#000000">string_bytes.h</text>
</a>
</g>
</g>
<!-- Node0&#45;&gt;Node20 -->
<g id="edge22" class="edge">
<title>Node0&#45;&gt;Node20</title>
<path fill="none" stroke="#191970" d="M1062.8253,-165.4179C1094.9623,-156.115 1145.0775,-141.608 1180.3614,-131.3943"/>
<polygon fill="#191970" stroke="#191970" points="1181.7128,-134.6468 1190.3452,-128.5042 1179.7664,-127.9229 1181.7128,-134.6468"/>
</g>
<!-- Node21 -->
<g id="node22" class="node">
<title>Node21</title>
<g id="a_node22"><a xlink:href="../../d5/d8c/util-inl_8h.html" target="_top" xlink:title="util&#45;inl.h">
<polygon fill="#ffffff" stroke="#000000" points="1278.2217,-110.5 1278.2217,-128.5 1328.6797,-128.5 1328.6797,-110.5 1278.2217,-110.5"/>
<text text-anchor="middle" x="1303.4507" y="-116.5" font-family="Helvetica,sans-Serif" font-size="10.00" fill="#000000">util&#45;inl.h</text>
</a>
</g>
</g>
<!-- Node0&#45;&gt;Node21 -->
<g id="edge24" class="edge">
<title>Node0&#45;&gt;Node21</title>
<path fill="none" stroke="#191970" d="M1081.8542,-166.1242C1128.0339,-158.167 1198.4739,-145.3201 1268.077,-129.1869"/>
<polygon fill="#191970" stroke="#191970" points="1268.9517,-132.5768 1277.8901,-126.8888 1267.3555,-125.7612 1268.9517,-132.5768"/>
</g>
<!-- Node22 -->
<g id="node23" class="node">
<title>Node22</title>
<g id="a_node23"><a xlink:href="../../da/d63/_c_n_n_i_c_hash_whitelist_8inc.html" target="_top" xlink:title="CNNICHashWhitelist.inc">
<polygon fill="#ffffff" stroke="#000000" points="1346.2734,-110.5 1346.2734,-128.5 1470.6279,-128.5 1470.6279,-110.5 1346.2734,-110.5"/>
<text text-anchor="middle" x="1408.4507" y="-116.5" font-family="Helvetica,sans-Serif" font-size="10.00" fill="#000000">CNNICHashWhitelist.inc</text>
</a>
</g>
</g>
<!-- Node0&#45;&gt;Node22 -->
<g id="edge26" class="edge">
<title>Node0&#45;&gt;Node22</title>
<path fill="none" stroke="#191970" d="M1081.5134,-167.1964C1146.8416,-157.6658 1261.6112,-140.9222 1336.3203,-130.023"/>
<polygon fill="#191970" stroke="#191970" points="1337.1969,-133.4323 1346.5868,-128.5252 1336.1863,-126.5056 1337.1969,-133.4323"/>
</g>
<!-- Node23 -->
<g id="node24" class="node">
<title>Node23</title>
<g id="a_node24"><a xlink:href="../../db/dc0/_start_com_and_wo_sign_data_8inc.html" target="_top" xlink:title="StartComAndWoSignData.inc">
<polygon fill="#ffffff" stroke="#000000" points="1488.6768,-110.5 1488.6768,-128.5 1636.2246,-128.5 1636.2246,-110.5 1488.6768,-110.5"/>
<text text-anchor="middle" x="1562.4507" y="-116.5" font-family="Helvetica,sans-Serif" font-size="10.00" fill="#000000">StartComAndWoSignData.inc</text>
</a>
</g>
</g>
<!-- Node0&#45;&gt;Node23 -->
<g id="edge27" class="edge">
<title>Node0&#45;&gt;Node23</title>
<path fill="none" stroke="#191970" d="M1081.5271,-169.6243C1162.4921,-161.6949 1327.4501,-145.349 1477.8979,-129.1568"/>
<polygon fill="#191970" stroke="#191970" points="1478.6772,-132.5931 1488.2442,-128.041 1477.9265,-125.6335 1478.6772,-132.5931"/>
</g>
<!-- Node24 -->
<g id="node25" class="node">
<title>Node24</title>
<polygon fill="#ffffff" stroke="#bfbfbf" points="1654.6084,-110.5 1654.6084,-128.5 1702.293,-128.5 1702.293,-110.5 1654.6084,-110.5"/>
<text text-anchor="middle" x="1678.4507" y="-116.5" font-family="Helvetica,sans-Serif" font-size="10.00" fill="#000000">errno.h</text>
</g>
<!-- Node0&#45;&gt;Node24 -->
<g id="edge28" class="edge">
<title>Node0&#45;&gt;Node24</title>
<path fill="none" stroke="#191970" d="M1081.5433,-172.1235C1204.4935,-166.0817 1519.6029,-149.2824 1644.3726,-128.7724"/>
<polygon fill="#191970" stroke="#191970" points="1645.1773,-132.1853 1654.4355,-127.034 1643.9856,-125.2875 1645.1773,-132.1853"/>
</g>
<!-- Node25 -->
<g id="node26" class="node">
<title>Node25</title>
<polygon fill="#ffffff" stroke="#bfbfbf" points="1719.894,-110.5 1719.894,-128.5 1767.0073,-128.5 1767.0073,-110.5 1719.894,-110.5"/>
<text text-anchor="middle" x="1743.4507" y="-116.5" font-family="Helvetica,sans-Serif" font-size="10.00" fill="#000000">limits.h</text>
</g>
<!-- Node0&#45;&gt;Node25 -->
<g id="edge29" class="edge">
<title>Node0&#45;&gt;Node25</title>
<path fill="none" stroke="#191970" d="M1081.4308,-172.5951C1213.8136,-167.3258 1572.2545,-151.5477 1709.9132,-128.8653"/>
<polygon fill="#191970" stroke="#191970" points="1710.5696,-132.3038 1719.8261,-127.1495 1709.3757,-125.4063 1710.5696,-132.3038"/>
</g>
<!-- Node26 -->
<g id="node27" class="node">
<title>Node26</title>
<polygon fill="#ffffff" stroke="#bfbfbf" points="1785.165,-110.5 1785.165,-128.5 1831.7363,-128.5 1831.7363,-110.5 1785.165,-110.5"/>
<text text-anchor="middle" x="1808.4507" y="-116.5" font-family="Helvetica,sans-Serif" font-size="10.00" fill="#000000">math.h</text>
</g>
<!-- Node0&#45;&gt;Node26 -->
<g id="edge30" class="edge">
<title>Node0&#45;&gt;Node26</title>
<path fill="none" stroke="#191970" d="M1081.4739,-172.9297C1222.7436,-168.2648 1623.7395,-153.3791 1774.817,-128.8699"/>
<polygon fill="#191970" stroke="#191970" points="1775.5583,-132.2942 1784.8289,-127.1652 1774.3833,-125.3935 1775.5583,-132.2942"/>
</g>
<!-- Node27 -->
<g id="node28" class="node">
<title>Node27</title>
<polygon fill="#ffffff" stroke="#bfbfbf" points="1849.6084,-110.5 1849.6084,-128.5 1897.293,-128.5 1897.293,-110.5 1849.6084,-110.5"/>
<text text-anchor="middle" x="1873.4507" y="-116.5" font-family="Helvetica,sans-Serif" font-size="10.00" fill="#000000">stdlib.h</text>
</g>
<!-- Node0&#45;&gt;Node27 -->
<g id="edge31" class="edge">
<title>Node0&#45;&gt;Node27</title>
<path fill="none" stroke="#191970" d="M1081.6325,-173.1502C1231.4346,-168.8932 1674.6669,-154.5871 1839.4646,-128.7244"/>
<polygon fill="#191970" stroke="#191970" points="1840.1441,-132.1598 1849.4444,-127.0847 1839.0092,-125.2524 1840.1441,-132.1598"/>
</g>
<!-- Node28 -->
<g id="node29" class="node">
<title>Node28</title>
<polygon fill="#ffffff" stroke="#bfbfbf" points="1915.0542,-110.5 1915.0542,-128.5 1963.8472,-128.5 1963.8472,-110.5 1915.0542,-110.5"/>
<text text-anchor="middle" x="1939.4507" y="-116.5" font-family="Helvetica,sans-Serif" font-size="10.00" fill="#000000">string.h</text>
</g>
<!-- Node0&#45;&gt;Node28 -->
<g id="edge32" class="edge">
<title>Node0&#45;&gt;Node28</title>
<path fill="none" stroke="#191970" d="M1081.4164,-173.4011C1239.2724,-169.6984 1726.873,-156.4336 1904.7216,-128.8945"/>
<polygon fill="#191970" stroke="#191970" points="1905.4125,-132.3283 1914.7243,-127.2745 1904.2933,-125.4184 1905.4125,-132.3283"/>
</g>
<!-- Node29 -->
<g id="node30" class="node">
<title>Node29</title>
<g id="a_node30"><a xlink:href="../../db/db9/node__root__certs_8h.html" target="_top" xlink:title="node_root_certs.h">
<polygon fill="#ffffff" stroke="#000000" points="1982.1455,-110.5 1982.1455,-128.5 2078.7559,-128.5 2078.7559,-110.5 1982.1455,-110.5"/>
<text text-anchor="middle" x="2030.4507" y="-116.5" font-family="Helvetica,sans-Serif" font-size="10.00" fill="#000000">node_root_certs.h</text>
</a>
</g>
</g>
<!-- Node0&#45;&gt;Node29 -->
<g id="edge33" class="edge">
<title>Node0&#45;&gt;Node29</title>
<path fill="none" stroke="#191970" d="M1081.5914,-174.0851C1221.0636,-172.5023 1625.5198,-164.9992 1972.107,-128.8943"/>
<polygon fill="#191970" stroke="#191970" points="1972.5067,-132.3717 1982.0859,-127.8451 1971.7747,-125.41 1972.5067,-132.3717"/>
</g>
<!-- Node1&#45;&gt;Node2 -->
<g id="edge2" class="edge">
<title>Node1&#45;&gt;Node2</title>
<path fill="none" stroke="#191970" d="M127.6536,-55.4179C104.8706,-45.9249 69.0818,-31.013 44.5073,-20.7736"/>
<polygon fill="#191970" stroke="#191970" points="45.6287,-17.4492 35.0518,-16.8338 42.9364,-23.9108 45.6287,-17.4492"/>
</g>
<!-- Node3 -->
<g id="node4" class="node">
<title>Node3</title>
<g id="a_node4"><a xlink:href="../../da/d9c/node__version_8h.html" target="_top" xlink:title="node_version.h">
<polygon fill="#ffffff" stroke="#000000" points="53.2588,-.5 53.2588,-18.5 137.6426,-18.5 137.6426,-.5 53.2588,-.5"/>
<text text-anchor="middle" x="95.4507" y="-6.5" font-family="Helvetica,sans-Serif" font-size="10.00" fill="#000000">node_version.h</text>
</a>
</g>
</g>
<!-- Node1&#45;&gt;Node3 -->
<g id="edge3" class="edge">
<title>Node1&#45;&gt;Node3</title>
<path fill="none" stroke="#191970" d="M140.5337,-55.4179C132.6861,-47.425 121.0667,-35.5903 111.5896,-25.9377"/>
<polygon fill="#191970" stroke="#191970" points="114.0648,-23.463 104.5614,-18.7795 109.0699,-28.3672 114.0648,-23.463"/>
</g>
<!-- Node4 -->
<g id="node5" class="node">
<title>Node4</title>
<polygon fill="#ffffff" stroke="#bfbfbf" points="155.665,-.5 155.665,-18.5 207.2363,-18.5 207.2363,-.5 155.665,-.5"/>
<text text-anchor="middle" x="181.4507" y="-6.5" font-family="Helvetica,sans-Serif" font-size="10.00" fill="#000000">assert.h</text>
</g>
<!-- Node1&#45;&gt;Node4 -->
<g id="edge4" class="edge">
<title>Node1&#45;&gt;Node4</title>
<path fill="none" stroke="#191970" d="M154.7348,-55.4179C159.109,-47.8998 165.4606,-36.9829 170.8733,-27.6799"/>
<polygon fill="#191970" stroke="#191970" points="174.048,-29.1831 176.0517,-18.7795 167.9975,-25.6628 174.048,-29.1831"/>
</g>
<!-- Node5 -->
<g id="node6" class="node">
<title>Node5</title>
<polygon fill="#ffffff" stroke="#bfbfbf" points="225.3301,-.5 225.3301,-18.5 273.5713,-18.5 273.5713,-.5 225.3301,-.5"/>
<text text-anchor="middle" x="249.4507" y="-6.5" font-family="Helvetica,sans-Serif" font-size="10.00" fill="#000000">stdint.h</text>
</g>
<!-- Node1&#45;&gt;Node5 -->
<g id="edge5" class="edge">
<title>Node1&#45;&gt;Node5</title>
<path fill="none" stroke="#191970" d="M165.9636,-55.4179C181.7417,-46.7399 205.7535,-33.5334 223.9822,-23.5077"/>
<polygon fill="#191970" stroke="#191970" points="225.8377,-26.4816 232.9132,-18.5956 222.4643,-20.3481 225.8377,-26.4816"/>
</g>
<!-- Node6 -->
<g id="node7" class="node">
<title>Node6</title>
<polygon fill="#ffffff" stroke="#bfbfbf" points="291.4409,-.5 291.4409,-18.5 357.4604,-18.5 357.4604,-.5 291.4409,-.5"/>
<text text-anchor="middle" x="324.4507" y="-6.5" font-family="Helvetica,sans-Serif" font-size="10.00" fill="#000000">sys/types.h</text>
</g>
<!-- Node1&#45;&gt;Node6 -->
<g id="edge6" class="edge">
<title>Node1&#45;&gt;Node6</title>
<path fill="none" stroke="#191970" d="M173.052,-57.0825C202.0076,-47.9821 251.4905,-32.4304 285.9744,-21.5925"/>
<polygon fill="#191970" stroke="#191970" points="287.2233,-24.8689 295.7138,-18.5316 285.1244,-18.191 287.2233,-24.8689"/>
</g>
<!-- Node7&#45;&gt;Node1 -->
<g id="edge8" class="edge">
<title>Node7&#45;&gt;Node1</title>
<path fill="none" stroke="#191970" d="M94.3492,-110.4179C104.1306,-102.2667 118.7065,-90.1201 130.4104,-80.3669"/>
<polygon fill="#191970" stroke="#191970" points="132.8738,-82.8701 138.3153,-73.7795 128.3924,-77.4926 132.8738,-82.8701"/>
</g>
<!-- Node7&#45;&gt;Node2 -->
<g id="edge9" class="edge">
<title>Node7&#45;&gt;Node2</title>
<path fill="none" stroke="#191970" d="M78.0496,-110.4982C67.1721,-92.369 42.4495,-51.1647 28.1702,-27.3659"/>
<polygon fill="#191970" stroke="#191970" points="31.0726,-25.4003 22.9264,-18.6261 25.0701,-29.0018 31.0726,-25.4003"/>
</g>
<!-- Node12&#45;&gt;Node13 -->
<g id="edge15" class="edge">
<title>Node12&#45;&gt;Node13</title>
<path fill="none" stroke="#191970" d="M705.3778,-110.4179C696.4252,-102.3458 683.1269,-90.3556 672.3644,-80.6517"/>
<polygon fill="#191970" stroke="#191970" points="674.5131,-77.8764 664.7424,-73.7795 669.8256,-83.0753 674.5131,-77.8764"/>
</g>
<!-- Node14 -->
<g id="node15" class="node">
<title>Node14</title>
<polygon fill="#ffffff" stroke="#bfbfbf" points="698.3687,-55.5 698.3687,-73.5 732.5327,-73.5 732.5327,-55.5 698.3687,-55.5"/>
<text text-anchor="middle" x="715.4507" y="-61.5" font-family="Helvetica,sans-Serif" font-size="10.00" fill="#000000">uv.h</text>
</g>
<!-- Node12&#45;&gt;Node14 -->
<g id="edge16" class="edge">
<title>Node12&#45;&gt;Node14</title>
<path fill="none" stroke="#191970" d="M715.4507,-110.4179C715.4507,-103.2164 715.4507,-92.8962 715.4507,-83.8632"/>
<polygon fill="#191970" stroke="#191970" points="718.9508,-83.7794 715.4507,-73.7795 711.9508,-83.7795 718.9508,-83.7794"/>
</g>
</g>
</svg>
        <g id="navigator" transform="translate(0 0)" fill="#404254">
                <rect fill="#f2f5e9" fill-opacity="0.5" stroke="#606060" stroke-width=".5" x="0" y="0" width="60" height="60"/>
                <use id="zoomplus" xlink:href="#zoomPlus" x="17" y="9" onmousedown="handleZoom(evt,'in')"/>
                <use id="zoomminus" xlink:href="#zoomMin" x="42" y="9" onmousedown="handleZoom(evt,'out')"/>
                <use id="reset" xlink:href="#resetDef" x="30" y="36" onmousedown="handleReset()"/>
                <g id="arrowUp" xlink:href="#dirArrow" transform="translate(30 24)" onmousedown="handlePan(0,-1)">
                  <use xlink:href="#rim" fill="#404040">
                        <set attributeName="fill" to="#808080" begin="arrowUp.mouseover" end="arrowUp.mouseout"/>
                  </use>
                  <path fill="none" stroke="white" stroke-width="1.5" d="M0,-3.0v7 M-2.5,-0.5L0,-3.0L2.5,-0.5"/>
                </g>
                <g id="arrowRight" xlink:href="#dirArrow" transform="rotate(90) translate(36 -43)" onmousedown="handlePan(1,0)">
                  <use xlink:href="#rim" fill="#404040">
                        <set attributeName="fill" to="#808080" begin="arrowRight.mouseover" end="arrowRight.mouseout"/>
                  </use>
                  <path fill="none" stroke="white" stroke-width="1.5" d="M0,-3.0v7 M-2.5,-0.5L0,-3.0L2.5,-0.5"/>
                </g>
                <g id="arrowDown" xlink:href="#dirArrow" transform="rotate(180) translate(-30 -48)" onmousedown="handlePan(0,1)">
                  <use xlink:href="#rim" fill="#404040">
                        <set attributeName="fill" to="#808080" begin="arrowDown.mouseover" end="arrowDown.mouseout"/>
                  </use>
                  <path fill="none" stroke="white" stroke-width="1.5" d="M0,-3.0v7 M-2.5,-0.5L0,-3.0L2.5,-0.5"/>
                </g>
                <g id="arrowLeft" xlink:href="#dirArrow" transform="rotate(270) translate(-36 17)" onmousedown="handlePan(-1,0)">
                  <use xlink:href="#rim" fill="#404040">
                        <set attributeName="fill" to="#808080" begin="arrowLeft.mouseover" end="arrowLeft.mouseout"/>
                  </use>
                  <path fill="none" stroke="white" stroke-width="1.5" d="M0,-3.0v7 M-2.5,-0.5L0,-3.0L2.5,-0.5"/>
                </g>
        </g>
        <svg viewBox="0 0 15 15" width="100%" height="30px" preserveAspectRatio="xMaxYMin meet">
         <g id="arrow_out" transform="scale(0.3 0.3)">
          <a xlink:href="node__crypto_8cc__incl_org.svg" target="_base">
           <rect id="button" ry="5" rx="5" y="6" x="6" height="38" width="38"
                fill="#f2f5e9" fill-opacity="0.5" stroke="#606060" stroke-width="1.0"/>
           <path id="arrow"
             d="M 11.500037,31.436501 C 11.940474,20.09759 22.043105,11.32322 32.158766,21.979434 L 37.068811,17.246167 C 37.068811,17.246167 37.088388,32 37.088388,32 L 22.160133,31.978069 C 22.160133,31.978069 26.997745,27.140456 26.997745,27.140456 C 18.528582,18.264221 13.291696,25.230495 11.500037,31.436501 z"
             style="fill:#404040;"/>
          </a>
         </g>
        </svg>
</svg>
