<?xml version="1.0" encoding="UTF-8" standalone="no"?>
<!DOCTYPE svg PUBLIC "-//W3C//DTD SVG 1.1//EN"
 "http://www.w3.org/Graphics/SVG/1.1/DTD/svg11.dtd">
<!-- Generated by graphviz version 2.40.1 (20161225.0304)
 -->
<!-- Title: src/node_counters.cc Pages: 1 -->
<svg width="347pt" height="82pt"
 viewBox="0.00 0.00 346.65 82.00" xmlns="http://www.w3.org/2000/svg" xmlns:xlink="http://www.w3.org/1999/xlink">
<g id="graph0" class="graph" transform="scale(1 1) rotate(0) translate(4 78)">
<title>src/node_counters.cc</title>
<polygon fill="#ffffff" stroke="transparent" points="-4,4 -4,-78 342.6475,-78 342.6475,4 -4,4"/>
<!-- Node0 -->
<g id="node1" class="node">
<title>Node0</title>
<polygon fill="#bfbfbf" stroke="#000000" points="124.7266,-55.5 124.7266,-73.5 235.7754,-73.5 235.7754,-55.5 124.7266,-55.5"/>
<text text-anchor="middle" x="180.251" y="-61.5" font-family="Helvetica,sans-Serif" font-size="10.00" fill="#000000">src/node_counters.cc</text>
</g>
<!-- Node1 -->
<g id="node2" class="node">
<title>Node1</title>
<g id="a_node2"><a xlink:href="../../d6/d92/node__counters_8h.html" target="_top" xlink:title="node_counters.h">
<polygon fill="#ffffff" stroke="#000000" points="0,-.5 0,-18.5 90.502,-18.5 90.502,-.5 0,-.5"/>
<text text-anchor="middle" x="45.251" y="-6.5" font-family="Helvetica,sans-Serif" font-size="10.00" fill="#000000">node_counters.h</text>
</a>
</g>
</g>
<!-- Node0&#45;&gt;Node1 -->
<g id="edge1" class="edge">
<title>Node0&#45;&gt;Node1</title>
<path fill="none" stroke="#191970" d="M157.9585,-55.4179C135.8764,-46.4215 101.848,-32.5581 76.9567,-22.4172"/>
<polygon fill="#191970" stroke="#191970" points="78.1581,-19.1273 67.5766,-18.5956 75.517,-25.61 78.1581,-19.1273"/>
</g>
<!-- Node2 -->
<g id="node3" class="node">
<title>Node2</title>
<polygon fill="#ffffff" stroke="#bfbfbf" points="108.1689,-.5 108.1689,-18.5 142.333,-18.5 142.333,-.5 108.1689,-.5"/>
<text text-anchor="middle" x="125.251" y="-6.5" font-family="Helvetica,sans-Serif" font-size="10.00" fill="#000000">uv.h</text>
</g>
<!-- Node0&#45;&gt;Node2 -->
<g id="edge2" class="edge">
<title>Node0&#45;&gt;Node2</title>
<path fill="none" stroke="#191970" d="M171.1688,-55.4179C163.176,-47.425 151.3413,-35.5903 141.6887,-25.9377"/>
<polygon fill="#191970" stroke="#191970" points="144.0764,-23.3757 134.5304,-18.7795 139.1266,-28.3254 144.0764,-23.3757"/>
</g>
<!-- Node3 -->
<g id="node4" class="node">
<title>Node3</title>
<g id="a_node4"><a xlink:href="../../d5/d81/env_8h.html" target="_top" xlink:title="env.h">
<polygon fill="#ffffff" stroke="#000000" points="160.3882,-.5 160.3882,-18.5 200.1138,-18.5 200.1138,-.5 160.3882,-.5"/>
<text text-anchor="middle" x="180.251" y="-6.5" font-family="Helvetica,sans-Serif" font-size="10.00" fill="#000000">env.h</text>
</a>
</g>
</g>
<!-- Node0&#45;&gt;Node3 -->
<g id="edge3" class="edge">
<title>Node0&#45;&gt;Node3</title>
<path fill="none" stroke="#191970" d="M180.251,-55.4179C180.251,-48.2164 180.251,-37.8962 180.251,-28.8632"/>
<polygon fill="#191970" stroke="#191970" points="183.7511,-28.7794 180.251,-18.7795 176.7511,-28.7795 183.7511,-28.7794"/>
</g>
<!-- Node4 -->
<g id="node5" class="node">
<title>Node4</title>
<g id="a_node5"><a xlink:href="../../d9/d50/env-inl_8h.html" target="_top" xlink:title="env&#45;inl.h">
<polygon fill="#ffffff" stroke="#000000" points="218.3521,-.5 218.3521,-18.5 272.1499,-18.5 272.1499,-.5 218.3521,-.5"/>
<text text-anchor="middle" x="245.251" y="-6.5" font-family="Helvetica,sans-Serif" font-size="10.00" fill="#000000">env&#45;inl.h</text>
</a>
</g>
</g>
<!-- Node0&#45;&gt;Node4 -->
<g id="edge4" class="edge">
<title>Node0&#45;&gt;Node4</title>
<path fill="none" stroke="#191970" d="M190.9844,-55.4179C200.6176,-47.2667 214.9726,-35.1201 226.4991,-25.3669"/>
<polygon fill="#191970" stroke="#191970" points="228.9113,-27.9108 234.2843,-18.7795 224.3897,-22.5671 228.9113,-27.9108"/>
</g>
<!-- Node5 -->
<g id="node6" class="node">
<title>Node5</title>
<polygon fill="#ffffff" stroke="#bfbfbf" points="289.8545,-.5 289.8545,-18.5 338.6475,-18.5 338.6475,-.5 289.8545,-.5"/>
<text text-anchor="middle" x="314.251" y="-6.5" font-family="Helvetica,sans-Serif" font-size="10.00" fill="#000000">string.h</text>
</g>
<!-- Node0&#45;&gt;Node5 -->
<g id="edge5" class="edge">
<title>Node0&#45;&gt;Node5</title>
<path fill="none" stroke="#191970" d="M202.3784,-55.4179C224.2969,-46.4215 258.0732,-32.5581 282.7801,-22.4172"/>
<polygon fill="#191970" stroke="#191970" points="284.1687,-25.6306 292.0907,-18.5956 281.5107,-19.1549 284.1687,-25.6306"/>
</g>
</g>
</svg>
