<?xml version="1.0" encoding="UTF-8" standalone="no"?>
<!DOCTYPE svg PUBLIC "-//W3C//DTD SVG 1.1//EN"
 "http://www.w3.org/Graphics/SVG/1.1/DTD/svg11.dtd">
<!-- Generated by graphviz version 2.40.1 (20161225.0304)
 -->
<!-- Title: src/pipe_wrap.h Pages: 1 -->
<svg width="359pt" height="82pt"
 viewBox="0.00 0.00 358.59 82.00" xmlns="http://www.w3.org/2000/svg" xmlns:xlink="http://www.w3.org/1999/xlink">
<g id="graph0" class="graph" transform="scale(1 1) rotate(0) translate(4 78)">
<title>src/pipe_wrap.h</title>
<polygon fill="#ffffff" stroke="transparent" points="-4,4 -4,-78 354.5884,-78 354.5884,4 -4,4"/>
<!-- Node1 -->
<g id="node1" class="node">
<title>Node1</title>
<polygon fill="#bfbfbf" stroke="#000000" points="140.9507,-55.5 140.9507,-73.5 227.5415,-73.5 227.5415,-55.5 140.9507,-55.5"/>
<text text-anchor="middle" x="184.2461" y="-61.5" font-family="Helvetica,sans-Serif" font-size="10.00" fill="#000000">src/pipe_wrap.h</text>
</g>
<!-- Node2 -->
<g id="node2" class="node">
<title>Node2</title>
<g id="a_node2"><a xlink:href="../../d7/d47/connection__wrap_8cc.html" target="_top" xlink:title="src/connection_wrap.cc">
<polygon fill="#ffffff" stroke="#000000" points="0,-.5 0,-18.5 120.4922,-18.5 120.4922,-.5 0,-.5"/>
<text text-anchor="middle" x="60.2461" y="-6.5" font-family="Helvetica,sans-Serif" font-size="10.00" fill="#000000">src/connection_wrap.cc</text>
</a>
</g>
</g>
<!-- Node1&#45;&gt;Node2 -->
<g id="edge1" class="edge">
<title>Node1&#45;&gt;Node2</title>
<path fill="none" stroke="#191970" d="M154.5493,-51.328C131.751,-41.2159 100.8668,-27.5172 80.7526,-18.5956"/>
<polygon fill="#191970" stroke="#191970" points="153.2097,-54.5627 163.77,-55.4179 156.048,-48.1639 153.2097,-54.5627"/>
</g>
<!-- Node3 -->
<g id="node3" class="node">
<title>Node3</title>
<g id="a_node3"><a xlink:href="../../d7/d2c/pipe__wrap_8cc.html" target="_top" xlink:title="src/pipe_wrap.cc">
<polygon fill="#ffffff" stroke="#000000" points="138.7314,-.5 138.7314,-18.5 229.7607,-18.5 229.7607,-.5 138.7314,-.5"/>
<text text-anchor="middle" x="184.2461" y="-6.5" font-family="Helvetica,sans-Serif" font-size="10.00" fill="#000000">src/pipe_wrap.cc</text>
</a>
</g>
</g>
<!-- Node1&#45;&gt;Node3 -->
<g id="edge2" class="edge">
<title>Node1&#45;&gt;Node3</title>
<path fill="none" stroke="#191970" d="M184.2461,-45.383C184.2461,-36.3738 184.2461,-26.0373 184.2461,-18.7795"/>
<polygon fill="#191970" stroke="#191970" points="180.7462,-45.4178 184.2461,-55.4179 187.7462,-45.4179 180.7462,-45.4178"/>
</g>
<!-- Node4 -->
<g id="node4" class="node">
<title>Node4</title>
<g id="a_node4"><a xlink:href="../../dc/d29/stream__wrap_8cc.html" target="_top" xlink:title="src/stream_wrap.cc">
<polygon fill="#ffffff" stroke="#000000" points="247.9038,-.5 247.9038,-18.5 350.5884,-18.5 350.5884,-.5 247.9038,-.5"/>
<text text-anchor="middle" x="299.2461" y="-6.5" font-family="Helvetica,sans-Serif" font-size="10.00" fill="#000000">src/stream_wrap.cc</text>
</a>
</g>
</g>
<!-- Node1&#45;&gt;Node4 -->
<g id="edge3" class="edge">
<title>Node1&#45;&gt;Node4</title>
<path fill="none" stroke="#191970" d="M212.3556,-51.0563C233.4418,-40.9716 261.7403,-27.4376 280.228,-18.5956"/>
<polygon fill="#191970" stroke="#191970" points="210.7472,-47.9458 203.236,-55.4179 213.7675,-54.2607 210.7472,-47.9458"/>
</g>
</g>
</svg>
