<?xml version="1.0" encoding="UTF-8" standalone="no"?>
<!DOCTYPE svg PUBLIC "-//W3C//DTD SVG 1.1//EN"
 "http://www.w3.org/Graphics/SVG/1.1/DTD/svg11.dtd">
<!-- Generated by graphviz version 2.40.1 (20161225.0304)
 -->
<!-- Title: src/node_buffer.h Pages: 1 -->
<svg width="2058pt" height="82pt"
 viewBox="0.00 0.00 2057.95 82.00" xmlns="http://www.w3.org/2000/svg" xmlns:xlink="http://www.w3.org/1999/xlink">
<g id="graph0" class="graph" transform="scale(1 1) rotate(0) translate(4 78)">
<title>src/node_buffer.h</title>
<polygon fill="#ffffff" stroke="transparent" points="-4,4 -4,-78 2053.9507,-78 2053.9507,4 -4,4"/>
<!-- Node7 -->
<g id="node1" class="node">
<title>Node7</title>
<polygon fill="#bfbfbf" stroke="#000000" points="1005.5635,-55.5 1005.5635,-73.5 1098.668,-73.5 1098.668,-55.5 1005.5635,-55.5"/>
<text text-anchor="middle" x="1052.1157" y="-61.5" font-family="Helvetica,sans-Serif" font-size="10.00" fill="#000000">src/node_buffer.h</text>
</g>
<!-- Node8 -->
<g id="node2" class="node">
<title>Node8</title>
<g id="a_node2"><a xlink:href="../../d4/da3/js__stream_8cc.html" target="_top" xlink:title="src/js_stream.cc">
<polygon fill="#ffffff" stroke="#000000" points="0,-.5 0,-18.5 88.2314,-18.5 88.2314,-.5 0,-.5"/>
<text text-anchor="middle" x="44.1157" y="-6.5" font-family="Helvetica,sans-Serif" font-size="10.00" fill="#000000">src/js_stream.cc</text>
</a>
</g>
</g>
<!-- Node7&#45;&gt;Node8 -->
<g id="edge1" class="edge">
<title>Node7&#45;&gt;Node8</title>
<path fill="none" stroke="#191970" d="M995.2205,-62.7601C817.2846,-57.1656 272.78,-38.8433 97.1157,-19 94.2361,-18.6747 91.2768,-18.2889 88.2992,-17.862"/>
<polygon fill="#191970" stroke="#191970" points="995.3072,-66.2645 1005.4119,-63.0792 995.5264,-59.2679 995.3072,-66.2645"/>
</g>
<!-- Node9 -->
<g id="node3" class="node">
<title>Node9</title>
<g id="a_node3"><a xlink:href="../../dc/dfd/node_8cc.html" target="_top" xlink:title="src/node.cc">
<polygon fill="#ffffff" stroke="#000000" points="106.5493,-.5 106.5493,-18.5 173.6821,-18.5 173.6821,-.5 106.5493,-.5"/>
<text text-anchor="middle" x="140.1157" y="-6.5" font-family="Helvetica,sans-Serif" font-size="10.00" fill="#000000">src/node.cc</text>
</a>
</g>
</g>
<!-- Node7&#45;&gt;Node9 -->
<g id="edge2" class="edge">
<title>Node7&#45;&gt;Node9</title>
<path fill="none" stroke="#191970" d="M995.2521,-62.7508C828.224,-57.4179 340.9291,-40.415 183.1157,-19 180.0854,-18.5888 176.9522,-18.0741 173.8223,-17.4984"/>
<polygon fill="#191970" stroke="#191970" points="995.2102,-66.2511 1005.3163,-63.0703 995.4324,-59.2546 995.2102,-66.2511"/>
</g>
<!-- Node10 -->
<g id="node4" class="node">
<title>Node10</title>
<g id="a_node4"><a xlink:href="../../d8/d91/node__api_8cc.html" target="_top" xlink:title="src/node_api.cc">
<polygon fill="#ffffff" stroke="#000000" points="192.0962,-.5 192.0962,-18.5 278.1353,-18.5 278.1353,-.5 192.0962,-.5"/>
<text text-anchor="middle" x="235.1157" y="-6.5" font-family="Helvetica,sans-Serif" font-size="10.00" fill="#000000">src/node_api.cc</text>
</a>
</g>
</g>
<!-- Node7&#45;&gt;Node10 -->
<g id="edge3" class="edge">
<title>Node7&#45;&gt;Node10</title>
<path fill="none" stroke="#191970" d="M995.0806,-63.4703C867.6862,-60.6538 550.4951,-50.7724 287.1157,-19 284.2002,-18.6483 281.201,-18.2361 278.1847,-17.784"/>
<polygon fill="#191970" stroke="#191970" points="995.2964,-66.9756 1005.3693,-63.6914 995.4468,-59.9772 995.2964,-66.9756"/>
</g>
<!-- Node11 -->
<g id="node5" class="node">
<title>Node11</title>
<g id="a_node5"><a xlink:href="../../d2/deb/node__buffer_8cc.html" target="_top" xlink:title="src/node_buffer.cc">
<polygon fill="#ffffff" stroke="#000000" points="296.3442,-.5 296.3442,-18.5 393.8872,-18.5 393.8872,-.5 296.3442,-.5"/>
<text text-anchor="middle" x="345.1157" y="-6.5" font-family="Helvetica,sans-Serif" font-size="10.00" fill="#000000">src/node_buffer.cc</text>
</a>
</g>
</g>
<!-- Node7&#45;&gt;Node11 -->
<g id="edge4" class="edge">
<title>Node7&#45;&gt;Node11</title>
<path fill="none" stroke="#191970" d="M995.4038,-62.2876C882.4012,-57.49 621.2447,-44.4552 403.1157,-19 400.1766,-18.657 397.1591,-18.2698 394.1187,-17.8528"/>
<polygon fill="#191970" stroke="#191970" points="995.4102,-65.7908 1005.5481,-62.7129 995.7035,-58.797 995.4102,-65.7908"/>
</g>
<!-- Node12 -->
<g id="node6" class="node">
<title>Node12</title>
<g id="a_node6"><a xlink:href="../../d5/d61/node__crypto_8cc.html" target="_top" xlink:title="src/node_crypto.cc">
<polygon fill="#ffffff" stroke="#000000" points="412.1528,-.5 412.1528,-18.5 512.0786,-18.5 512.0786,-.5 412.1528,-.5"/>
<text text-anchor="middle" x="462.1157" y="-6.5" font-family="Helvetica,sans-Serif" font-size="10.00" fill="#000000">src/node_crypto.cc</text>
</a>
</g>
</g>
<!-- Node7&#45;&gt;Node12 -->
<g id="edge5" class="edge">
<title>Node7&#45;&gt;Node12</title>
<path fill="none" stroke="#191970" d="M995.2668,-61.018C897.9386,-54.7463 693.2267,-40.2006 521.1157,-19 518.2325,-18.6448 515.2742,-18.2537 512.2917,-17.8388"/>
<polygon fill="#191970" stroke="#191970" points="995.2684,-64.5252 1005.4714,-61.6705 995.7151,-57.5394 995.2684,-64.5252"/>
</g>
<!-- Node13 -->
<g id="node7" class="node">
<title>Node13</title>
<g id="a_node7"><a xlink:href="../../dd/daa/node__file_8cc.html" target="_top" xlink:title="src/node_file.cc">
<polygon fill="#ffffff" stroke="#000000" points="530.377,-.5 530.377,-18.5 615.8545,-18.5 615.8545,-.5 530.377,-.5"/>
<text text-anchor="middle" x="573.1157" y="-6.5" font-family="Helvetica,sans-Serif" font-size="10.00" fill="#000000">src/node_file.cc</text>
</a>
</g>
</g>
<!-- Node7&#45;&gt;Node13 -->
<g id="edge6" class="edge">
<title>Node7&#45;&gt;Node13</title>
<path fill="none" stroke="#191970" d="M995.4339,-59.8149C913.4892,-52.7346 757.2595,-38.0842 625.1157,-19 622.1183,-18.5671 619.0297,-18.088 615.923,-17.5817"/>
<polygon fill="#191970" stroke="#191970" points="995.2702,-63.3136 1005.5329,-60.6816 995.8688,-56.3392 995.2702,-63.3136"/>
</g>
<!-- Node14 -->
<g id="node8" class="node">
<title>Node14</title>
<g id="a_node8"><a xlink:href="../../d3/d48/node__http2_8cc.html" target="_top" xlink:title="src/node_http2.cc">
<polygon fill="#ffffff" stroke="#000000" points="633.6479,-.5 633.6479,-18.5 728.5835,-18.5 728.5835,-.5 633.6479,-.5"/>
<text text-anchor="middle" x="681.1157" y="-6.5" font-family="Helvetica,sans-Serif" font-size="10.00" fill="#000000">src/node_http2.cc</text>
</a>
</g>
</g>
<!-- Node7&#45;&gt;Node14 -->
<g id="edge7" class="edge">
<title>Node7&#45;&gt;Node14</title>
<path fill="none" stroke="#191970" d="M995.4063,-56.652C932.4804,-47.8577 827.9533,-32.9938 738.1157,-19 735.0428,-18.5213 731.8782,-18.0193 728.6893,-17.5065"/>
<polygon fill="#191970" stroke="#191970" points="995.1313,-60.1474 1005.519,-58.0631 996.0987,-53.2146 995.1313,-60.1474"/>
</g>
<!-- Node15 -->
<g id="node9" class="node">
<title>Node15</title>
<g id="a_node9"><a xlink:href="../../d1/d90/node__http__parser_8cc.html" target="_top" xlink:title="src/node_http_parser.cc">
<polygon fill="#ffffff" stroke="#000000" points="746.749,-.5 746.749,-18.5 869.4824,-18.5 869.4824,-.5 746.749,-.5"/>
<text text-anchor="middle" x="808.1157" y="-6.5" font-family="Helvetica,sans-Serif" font-size="10.00" fill="#000000">src/node_http_parser.cc</text>
</a>
</g>
</g>
<!-- Node7&#45;&gt;Node15 -->
<g id="edge8" class="edge">
<title>Node7&#45;&gt;Node15</title>
<path fill="none" stroke="#191970" d="M1002.1469,-53.2365C956.6295,-42.9765 890.2716,-28.0187 848.156,-18.5255"/>
<polygon fill="#191970" stroke="#191970" points="1001.5724,-56.6948 1012.0973,-55.4795 1003.1117,-49.8661 1001.5724,-56.6948"/>
</g>
<!-- Node16 -->
<g id="node10" class="node">
<title>Node16</title>
<g id="a_node10"><a xlink:href="../../dc/d3a/node__serdes_8cc.html" target="_top" xlink:title="src/node_serdes.cc">
<polygon fill="#ffffff" stroke="#000000" points="887.7612,-.5 887.7612,-18.5 990.4702,-18.5 990.4702,-.5 887.7612,-.5"/>
<text text-anchor="middle" x="939.1157" y="-6.5" font-family="Helvetica,sans-Serif" font-size="10.00" fill="#000000">src/node_serdes.cc</text>
</a>
</g>
</g>
<!-- Node7&#45;&gt;Node16 -->
<g id="edge9" class="edge">
<title>Node7&#45;&gt;Node16</title>
<path fill="none" stroke="#191970" d="M1024.2147,-50.9198C1003.5253,-40.8498 975.8875,-27.3977 957.8031,-18.5956"/>
<polygon fill="#191970" stroke="#191970" points="1022.9328,-54.1884 1033.4561,-55.4179 1025.9963,-47.8944 1022.9328,-54.1884"/>
</g>
<!-- Node17 -->
<g id="node11" class="node">
<title>Node17</title>
<g id="a_node11"><a xlink:href="../../d9/d0d/node__zlib_8cc.html" target="_top" xlink:title="src/node_zlib.cc">
<polygon fill="#ffffff" stroke="#000000" points="1008.2661,-.5 1008.2661,-18.5 1095.9653,-18.5 1095.9653,-.5 1008.2661,-.5"/>
<text text-anchor="middle" x="1052.1157" y="-6.5" font-family="Helvetica,sans-Serif" font-size="10.00" fill="#000000">src/node_zlib.cc</text>
</a>
</g>
</g>
<!-- Node7&#45;&gt;Node17 -->
<g id="edge10" class="edge">
<title>Node7&#45;&gt;Node17</title>
<path fill="none" stroke="#191970" d="M1052.1157,-45.383C1052.1157,-36.3738 1052.1157,-26.0373 1052.1157,-18.7795"/>
<polygon fill="#191970" stroke="#191970" points="1048.6158,-45.4178 1052.1157,-55.4179 1055.6158,-45.4179 1048.6158,-45.4178"/>
</g>
<!-- Node18 -->
<g id="node12" class="node">
<title>Node18</title>
<g id="a_node12"><a xlink:href="../../d7/d2c/pipe__wrap_8cc.html" target="_top" xlink:title="src/pipe_wrap.cc">
<polygon fill="#ffffff" stroke="#000000" points="1113.6011,-.5 1113.6011,-18.5 1204.6304,-18.5 1204.6304,-.5 1113.6011,-.5"/>
<text text-anchor="middle" x="1159.1157" y="-6.5" font-family="Helvetica,sans-Serif" font-size="10.00" fill="#000000">src/pipe_wrap.cc</text>
</a>
</g>
</g>
<!-- Node7&#45;&gt;Node18 -->
<g id="edge11" class="edge">
<title>Node7&#45;&gt;Node18</title>
<path fill="none" stroke="#191970" d="M1078.8016,-50.7829C1098.3628,-40.7282 1124.374,-27.3579 1141.4206,-18.5956"/>
<polygon fill="#191970" stroke="#191970" points="1077.0784,-47.7334 1069.7846,-55.4179 1080.2785,-53.9591 1077.0784,-47.7334"/>
</g>
<!-- Node19 -->
<g id="node13" class="node">
<title>Node19</title>
<g id="a_node13"><a xlink:href="../../d6/d00/stream__base_8cc.html" target="_top" xlink:title="src/stream_base.cc">
<polygon fill="#ffffff" stroke="#000000" points="1222.7686,-.5 1222.7686,-18.5 1325.4629,-18.5 1325.4629,-.5 1222.7686,-.5"/>
<text text-anchor="middle" x="1274.1157" y="-6.5" font-family="Helvetica,sans-Serif" font-size="10.00" fill="#000000">src/stream_base.cc</text>
</a>
</g>
</g>
<!-- Node7&#45;&gt;Node19 -->
<g id="edge12" class="edge">
<title>Node7&#45;&gt;Node19</title>
<path fill="none" stroke="#191970" d="M1098.6211,-52.9784C1140.031,-42.7192 1199.7774,-27.9172 1237.7715,-18.5042"/>
<polygon fill="#191970" stroke="#191970" points="1097.6394,-49.6157 1088.7745,-55.4179 1099.3228,-56.4103 1097.6394,-49.6157"/>
</g>
<!-- Node20 -->
<g id="node14" class="node">
<title>Node20</title>
<g id="a_node14"><a xlink:href="../../dc/d29/stream__wrap_8cc.html" target="_top" xlink:title="src/stream_wrap.cc">
<polygon fill="#ffffff" stroke="#000000" points="1343.7734,-.5 1343.7734,-18.5 1446.458,-18.5 1446.458,-.5 1343.7734,-.5"/>
<text text-anchor="middle" x="1395.1157" y="-6.5" font-family="Helvetica,sans-Serif" font-size="10.00" fill="#000000">src/stream_wrap.cc</text>
</a>
</g>
</g>
<!-- Node7&#45;&gt;Node20 -->
<g id="edge13" class="edge">
<title>Node7&#45;&gt;Node20</title>
<path fill="none" stroke="#191970" d="M1108.8482,-55.403C1174.1608,-44.9301 1280.5171,-27.8759 1343.5615,-17.7667"/>
<polygon fill="#191970" stroke="#191970" points="1108.0509,-51.986 1098.7312,-57.0252 1109.1592,-58.8977 1108.0509,-51.986"/>
</g>
<!-- Node21 -->
<g id="node15" class="node">
<title>Node21</title>
<g id="a_node15"><a xlink:href="../../df/db9/string__bytes_8cc.html" target="_top" xlink:title="src/string_bytes.cc">
<polygon fill="#ffffff" stroke="#000000" points="1464.7144,-.5 1464.7144,-18.5 1563.5171,-18.5 1563.5171,-.5 1464.7144,-.5"/>
<text text-anchor="middle" x="1514.1157" y="-6.5" font-family="Helvetica,sans-Serif" font-size="10.00" fill="#000000">src/string_bytes.cc</text>
</a>
</g>
</g>
<!-- Node7&#45;&gt;Node21 -->
<g id="edge14" class="edge">
<title>Node7&#45;&gt;Node21</title>
<path fill="none" stroke="#191970" d="M1108.8538,-58.9471C1186.9605,-51.1084 1331.9402,-35.8606 1455.1157,-19 1458.1995,-18.5779 1461.3707,-18.1242 1464.5666,-17.6523"/>
<polygon fill="#191970" stroke="#191970" points="1108.348,-55.4801 1098.7457,-59.9576 1109.0443,-62.4454 1108.348,-55.4801"/>
</g>
<!-- Node22 -->
<g id="node16" class="node">
<title>Node22</title>
<g id="a_node16"><a xlink:href="../../d3/dfb/tcp__wrap_8cc.html" target="_top" xlink:title="src/tcp_wrap.cc">
<polygon fill="#ffffff" stroke="#000000" points="1581.3843,-.5 1581.3843,-18.5 1666.8472,-18.5 1666.8472,-.5 1581.3843,-.5"/>
<text text-anchor="middle" x="1624.1157" y="-6.5" font-family="Helvetica,sans-Serif" font-size="10.00" fill="#000000">src/tcp_wrap.cc</text>
</a>
</g>
</g>
<!-- Node7&#45;&gt;Node22 -->
<g id="edge15" class="edge">
<title>Node7&#45;&gt;Node22</title>
<path fill="none" stroke="#191970" d="M1108.9443,-61.271C1204.7662,-55.4368 1404.4421,-41.6018 1572.1157,-19 1575.1171,-18.5954 1578.2087,-18.1373 1581.3174,-17.6462"/>
<polygon fill="#191970" stroke="#191970" points="1108.6614,-57.7816 1098.8901,-61.877 1109.0826,-64.769 1108.6614,-57.7816"/>
</g>
<!-- Node23 -->
<g id="node17" class="node">
<title>Node23</title>
<g id="a_node17"><a xlink:href="../../da/de5/tls__wrap_8cc.html" target="_top" xlink:title="src/tls_wrap.cc">
<polygon fill="#ffffff" stroke="#000000" points="1685.0542,-.5 1685.0542,-18.5 1767.1772,-18.5 1767.1772,-.5 1685.0542,-.5"/>
<text text-anchor="middle" x="1726.1157" y="-6.5" font-family="Helvetica,sans-Serif" font-size="10.00" fill="#000000">src/tls_wrap.cc</text>
</a>
</g>
</g>
<!-- Node7&#45;&gt;Node23 -->
<g id="edge16" class="edge">
<title>Node7&#45;&gt;Node23</title>
<path fill="none" stroke="#191970" d="M1109.0821,-62.539C1219.0824,-58.2679 1468.2285,-46.2367 1676.1157,-19 1679.0068,-18.6212 1681.9834,-18.1822 1684.9754,-17.7048"/>
<polygon fill="#191970" stroke="#191970" points="1108.7366,-59.0496 1098.8774,-62.9284 1109.0036,-66.0445 1108.7366,-59.0496"/>
</g>
<!-- Node24 -->
<g id="node18" class="node">
<title>Node24</title>
<g id="a_node18"><a xlink:href="../../de/d6d/tty__wrap_8cc.html" target="_top" xlink:title="src/tty_wrap.cc">
<polygon fill="#ffffff" stroke="#000000" points="1784.7759,-.5 1784.7759,-18.5 1867.4556,-18.5 1867.4556,-.5 1784.7759,-.5"/>
<text text-anchor="middle" x="1826.1157" y="-6.5" font-family="Helvetica,sans-Serif" font-size="10.00" fill="#000000">src/tty_wrap.cc</text>
</a>
</g>
</g>
<!-- Node7&#45;&gt;Node24 -->
<g id="edge17" class="edge">
<title>Node7&#45;&gt;Node24</title>
<path fill="none" stroke="#191970" d="M1109.155,-63.3372C1231.6978,-60.3082 1529.0324,-50.1131 1776.1157,-19 1778.921,-18.6467 1781.8063,-18.2334 1784.7076,-17.7804"/>
<polygon fill="#191970" stroke="#191970" points="1108.8041,-59.8445 1098.8913,-63.5841 1108.9726,-66.8425 1108.8041,-59.8445"/>
</g>
<!-- Node25 -->
<g id="node19" class="node">
<title>Node25</title>
<g id="a_node19"><a xlink:href="../../d1/d05/udp__wrap_8cc.html" target="_top" xlink:title="src/udp_wrap.cc">
<polygon fill="#ffffff" stroke="#000000" points="1885.7119,-.5 1885.7119,-18.5 1974.5195,-18.5 1974.5195,-.5 1885.7119,-.5"/>
<text text-anchor="middle" x="1930.1157" y="-6.5" font-family="Helvetica,sans-Serif" font-size="10.00" fill="#000000">src/udp_wrap.cc</text>
</a>
</g>
</g>
<!-- Node7&#45;&gt;Node25 -->
<g id="edge18" class="edge">
<title>Node7&#45;&gt;Node25</title>
<path fill="none" stroke="#191970" d="M1108.7691,-63.691C1242.6614,-61.2739 1588.9676,-52.0675 1876.1157,-19 1879.2364,-18.6406 1882.4498,-18.2161 1885.6802,-17.7491"/>
<polygon fill="#191970" stroke="#191970" points="1108.6791,-60.1919 1098.7419,-63.8664 1108.8016,-67.1908 1108.6791,-60.1919"/>
</g>
<!-- Node26 -->
<g id="node20" class="node">
<title>Node26</title>
<g id="a_node20"><a xlink:href="../../d9/d6f/util_8cc.html" target="_top" xlink:title="src/util.cc">
<polygon fill="#ffffff" stroke="#000000" points="1992.2808,-.5 1992.2808,-18.5 2049.9507,-18.5 2049.9507,-.5 1992.2808,-.5"/>
<text text-anchor="middle" x="2021.1157" y="-6.5" font-family="Helvetica,sans-Serif" font-size="10.00" fill="#000000">src/util.cc</text>
</a>
</g>
</g>
<!-- Node7&#45;&gt;Node26 -->
<g id="edge19" class="edge">
<title>Node7&#45;&gt;Node26</title>
<path fill="none" stroke="#191970" d="M1109.0062,-62.3705C1297.8731,-55.2108 1896.999,-31.7429 1983.1157,-19 1986.0756,-18.562 1989.1406,-17.994 1992.1871,-17.3535"/>
<polygon fill="#191970" stroke="#191970" points="1108.601,-58.8833 1098.7405,-62.7589 1108.8657,-65.8783 1108.601,-58.8833"/>
</g>
</g>
</svg>
