<?xml version="1.0" encoding="UTF-8" standalone="no"?>
<!DOCTYPE svg PUBLIC "-//W3C//DTD SVG 1.1//EN"
 "http://www.w3.org/Graphics/SVG/1.1/DTD/svg11.dtd">
<!-- Generated by graphviz version 2.40.1 (20161225.0304)
 -->
<!-- Title: src/node_dtrace.h Pages: 1 -->
<svg width="234pt" height="92pt"
 viewBox="0.00 0.00 233.83 92.00" xmlns="http://www.w3.org/2000/svg" xmlns:xlink="http://www.w3.org/1999/xlink">
<g id="graph0" class="graph" transform="scale(1 1) rotate(0) translate(4 88)">
<title>src/node_dtrace.h</title>
<polygon fill="#ffffff" stroke="transparent" points="-4,4 -4,-88 229.8271,-88 229.8271,4 -4,4"/>
<!-- Node1 -->
<g id="node1" class="node">
<title>Node1</title>
<polygon fill="#bfbfbf" stroke="#000000" points="63.2192,-65.5 63.2192,-83.5 159.2681,-83.5 159.2681,-65.5 63.2192,-65.5"/>
<text text-anchor="middle" x="111.2437" y="-71.5" font-family="Helvetica,sans-Serif" font-size="10.00" fill="#000000">src/node_dtrace.h</text>
</g>
<!-- Node2 -->
<g id="node2" class="node">
<title>Node2</title>
<g id="a_node2"><a xlink:href="../../d6/dad/node__dtrace_8cc.html" target="_top" xlink:title="src/node_dtrace.cc">
<polygon fill="#ffffff" stroke="#000000" points="0,-5.5 0,-23.5 100.4873,-23.5 100.4873,-5.5 0,-5.5"/>
<text text-anchor="middle" x="50.2437" y="-11.5" font-family="Helvetica,sans-Serif" font-size="10.00" fill="#000000">src/node_dtrace.cc</text>
</a>
</g>
</g>
<!-- Node1&#45;&gt;Node2 -->
<g id="edge1" class="edge">
<title>Node1&#45;&gt;Node2</title>
<path fill="none" stroke="#191970" d="M94.7961,-58.3221C83.5119,-47.2229 68.9435,-32.8933 59.5954,-23.6985"/>
<polygon fill="#191970" stroke="#191970" points="92.3954,-60.8701 101.9791,-65.3873 97.3041,-55.8796 92.3954,-60.8701"/>
</g>
<!-- Node3 -->
<g id="node3" class="node">
<title>Node3</title>
<g id="a_node3"><a xlink:href="../../da/d25/node__win32__etw__provider_8cc.html" target="_top" xlink:title="src/node_win32_etw\l_provider.cc">
<polygon fill="#ffffff" stroke="#000000" points="118.6602,-.5 118.6602,-28.5 225.8271,-28.5 225.8271,-.5 118.6602,-.5"/>
<text text-anchor="start" x="126.6602" y="-16.5" font-family="Helvetica,sans-Serif" font-size="10.00" fill="#000000">src/node_win32_etw</text>
<text text-anchor="middle" x="172.2437" y="-6.5" font-family="Helvetica,sans-Serif" font-size="10.00" fill="#000000">_provider.cc</text>
</a>
</g>
</g>
<!-- Node1&#45;&gt;Node3 -->
<g id="edge2" class="edge">
<title>Node1&#45;&gt;Node3</title>
<path fill="none" stroke="#191970" d="M127.7215,-58.2923C137.0625,-49.1044 148.6466,-37.7103 157.6569,-28.8477"/>
<polygon fill="#191970" stroke="#191970" points="125.1832,-55.8796 120.5082,-65.3873 130.0919,-60.8701 125.1832,-55.8796"/>
</g>
</g>
</svg>
