<?xml version="1.0" encoding="UTF-8" standalone="no"?>
<!DOCTYPE svg PUBLIC "-//W3C//DTD SVG 1.1//EN"
 "http://www.w3.org/Graphics/SVG/1.1/DTD/svg11.dtd">
<!-- Generated by graphviz version 2.40.1 (20161225.0304)
 -->
<!-- Title: src/stream_wrap.h Pages: 1 -->
<!--zoomable 82 -->
<svg id="main" version="1.1" xmlns="http://www.w3.org/2000/svg" xmlns:xlink="http://www.w3.org/1999/xlink" xml:space="preserve" onload="init(evt)">
<style type="text/css"><![CDATA[
.edge:hover path { stroke: red; }
.edge:hover polygon { stroke: red; fill: red; }
]]></style>
<script type="text/javascript"><![CDATA[
var edges = document.getElementsByTagName('g');
if (edges && edges.length) {
  for (var i=0;i<edges.length;i++) {
    if (edges[i].id.substr(0,4)=='edge') {
      edges[i].setAttribute('class','edge');
    }
  }
}
]]></script>
        <defs>
                <circle id="rim" cx="0" cy="0" r="7"/>
                <circle id="rim2" cx="0" cy="0" r="3.5"/>
                <g id="zoomPlus">
                        <use xlink:href="#rim" fill="#404040">
                                <set attributeName="fill" to="#808080" begin="zoomplus.mouseover" end="zoomplus.mouseout"/>
                        </use>
                        <path d="M-4,0h8M0,-4v8" fill="none" stroke="white" stroke-width="1.5" pointer-events="none"/>
                </g>
                <g id="zoomMin">
                        <use xlink:href="#rim" fill="#404040">
                                <set attributeName="fill" to="#808080" begin="zoomminus.mouseover" end="zoomminus.mouseout"/>
                        </use>
                        <path d="M-4,0h8" fill="none" stroke="white" stroke-width="1.5" pointer-events="none"/>
                </g>
                <g id="dirArrow">
                        <path fill="none" stroke="white" stroke-width="1.5" d="M0,-3.0v7 M-2.5,-0.5L0,-3.0L2.5,-0.5"/>
                </g>
               <g id="resetDef">
                       <use xlink:href="#rim2" fill="#404040">
                               <set attributeName="fill" to="#808080" begin="reset.mouseover" end="reset.mouseout"/>
                       </use>
               </g>
        </defs>

<script type="text/javascript">
var viewWidth = 684;
var viewHeight = 82;
var sectionId = 'dynsection-0';
</script>
<script xlink:href="../../svgpan.js"/>
<svg id="graph" class="graph">
<g id="viewport">
<title>src/stream_wrap.h</title>
<polygon fill="#ffffff" stroke="transparent" points="-4,4 -4,-78 679.5859,-78 679.5859,4 -4,4"/>
<!-- Node1 -->
<g id="node1" class="node">
<title>Node1</title>
<polygon fill="#bfbfbf" stroke="#000000" points="310.123,-55.5 310.123,-73.5 408.3691,-73.5 408.3691,-55.5 310.123,-55.5"/>
<text text-anchor="middle" x="359.2461" y="-61.5" font-family="Helvetica,sans-Serif" font-size="10.00" fill="#000000">src/stream_wrap.h</text>
</g>
<!-- Node2 -->
<g id="node2" class="node">
<title>Node2</title>
<g id="a_node2"><a xlink:href="../../d7/d47/connection__wrap_8cc.html" target="_top" xlink:title="src/connection_wrap.cc">
<polygon fill="#ffffff" stroke="#000000" points="0,-.5 0,-18.5 120.4922,-18.5 120.4922,-.5 0,-.5"/>
<text text-anchor="middle" x="60.2461" y="-6.5" font-family="Helvetica,sans-Serif" font-size="10.00" fill="#000000">src/connection_wrap.cc</text>
</a>
</g>
</g>
<!-- Node1&#45;&gt;Node2 -->
<g id="edge1" class="edge">
<title>Node1&#45;&gt;Node2</title>
<path fill="none" stroke="#191970" d="M300.1108,-53.6223C244.291,-43.3544 161.5713,-28.1384 109.3118,-18.5255"/>
<polygon fill="#191970" stroke="#191970" points="299.7389,-57.1125 310.2071,-55.4795 301.0054,-50.228 299.7389,-57.1125"/>
</g>
<!-- Node3 -->
<g id="node3" class="node">
<title>Node3</title>
<g id="a_node3"><a xlink:href="../../d7/d2c/pipe__wrap_8cc.html" target="_top" xlink:title="src/pipe_wrap.cc">
<polygon fill="#ffffff" stroke="#000000" points="138.7314,-.5 138.7314,-18.5 229.7607,-18.5 229.7607,-.5 138.7314,-.5"/>
<text text-anchor="middle" x="184.2461" y="-6.5" font-family="Helvetica,sans-Serif" font-size="10.00" fill="#000000">src/pipe_wrap.cc</text>
</a>
</g>
</g>
<!-- Node1&#45;&gt;Node3 -->
<g id="edge2" class="edge">
<title>Node1&#45;&gt;Node3</title>
<path fill="none" stroke="#191970" d="M320.7076,-52.3879C288.1574,-42.1578 242.2763,-27.7381 212.8959,-18.5042"/>
<polygon fill="#191970" stroke="#191970" points="319.759,-55.7585 330.3484,-55.4179 321.8579,-49.0806 319.759,-55.7585"/>
</g>
<!-- Node4 -->
<g id="node4" class="node">
<title>Node4</title>
<g id="a_node4"><a xlink:href="../../d6/d00/stream__base_8cc.html" target="_top" xlink:title="src/stream_base.cc">
<polygon fill="#ffffff" stroke="#000000" points="247.8989,-.5 247.8989,-18.5 350.5933,-18.5 350.5933,-.5 247.8989,-.5"/>
<text text-anchor="middle" x="299.2461" y="-6.5" font-family="Helvetica,sans-Serif" font-size="10.00" fill="#000000">src/stream_base.cc</text>
</a>
</g>
</g>
<!-- Node1&#45;&gt;Node4 -->
<g id="edge3" class="edge">
<title>Node1&#45;&gt;Node4</title>
<path fill="none" stroke="#191970" d="M341.8833,-48.5841C331.3382,-38.9177 318.2439,-26.9147 309.3691,-18.7795"/>
<polygon fill="#191970" stroke="#191970" points="339.6017,-51.2406 349.3383,-55.4179 344.3318,-46.0805 339.6017,-51.2406"/>
</g>
<!-- Node5 -->
<g id="node5" class="node">
<title>Node5</title>
<g id="a_node5"><a xlink:href="../../dc/d29/stream__wrap_8cc.html" target="_top" xlink:title="src/stream_wrap.cc">
<polygon fill="#ffffff" stroke="#000000" points="368.9038,-.5 368.9038,-18.5 471.5884,-18.5 471.5884,-.5 368.9038,-.5"/>
<text text-anchor="middle" x="420.2461" y="-6.5" font-family="Helvetica,sans-Serif" font-size="10.00" fill="#000000">src/stream_wrap.cc</text>
</a>
</g>
</g>
<!-- Node1&#45;&gt;Node5 -->
<g id="edge4" class="edge">
<title>Node1&#45;&gt;Node5</title>
<path fill="none" stroke="#191970" d="M376.8982,-48.5841C387.6191,-38.9177 400.9316,-26.9147 409.9543,-18.7795"/>
<polygon fill="#191970" stroke="#191970" points="374.4022,-46.122 369.319,-55.4179 379.0897,-51.3209 374.4022,-46.122"/>
</g>
<!-- Node6 -->
<g id="node6" class="node">
<title>Node6</title>
<g id="a_node6"><a xlink:href="../../d3/dfb/tcp__wrap_8cc.html" target="_top" xlink:title="src/tcp_wrap.cc">
<polygon fill="#ffffff" stroke="#000000" points="489.5146,-.5 489.5146,-18.5 574.9775,-18.5 574.9775,-.5 489.5146,-.5"/>
<text text-anchor="middle" x="532.2461" y="-6.5" font-family="Helvetica,sans-Serif" font-size="10.00" fill="#000000">src/tcp_wrap.cc</text>
</a>
</g>
</g>
<!-- Node1&#45;&gt;Node6 -->
<g id="edge5" class="edge">
<title>Node1&#45;&gt;Node6</title>
<path fill="none" stroke="#191970" d="M397.3441,-52.3879C429.5223,-42.1578 474.8791,-27.7381 503.9238,-18.5042"/>
<polygon fill="#191970" stroke="#191970" points="396.2831,-49.0525 387.8135,-55.4179 398.404,-55.7235 396.2831,-49.0525"/>
</g>
<!-- Node7 -->
<g id="node7" class="node">
<title>Node7</title>
<g id="a_node7"><a xlink:href="../../de/d6d/tty__wrap_8cc.html" target="_top" xlink:title="src/tty_wrap.cc">
<polygon fill="#ffffff" stroke="#000000" points="592.9063,-.5 592.9063,-18.5 675.5859,-18.5 675.5859,-.5 592.9063,-.5"/>
<text text-anchor="middle" x="634.2461" y="-6.5" font-family="Helvetica,sans-Serif" font-size="10.00" fill="#000000">src/tty_wrap.cc</text>
</a>
</g>
</g>
<!-- Node1&#45;&gt;Node7 -->
<g id="edge6" class="edge">
<title>Node1&#45;&gt;Node7</title>
<path fill="none" stroke="#191970" d="M414.1918,-53.5109C466.8299,-42.9832 545.0981,-27.3296 592.7216,-17.8049"/>
<polygon fill="#191970" stroke="#191970" points="413.4682,-50.0862 404.3488,-55.4795 414.8411,-56.9502 413.4682,-50.0862"/>
</g>
</g>
</svg>
        <g id="navigator" transform="translate(0 0)" fill="#404254">
                <rect fill="#f2f5e9" fill-opacity="0.5" stroke="#606060" stroke-width=".5" x="0" y="0" width="60" height="60"/>
                <use id="zoomplus" xlink:href="#zoomPlus" x="17" y="9" onmousedown="handleZoom(evt,'in')"/>
                <use id="zoomminus" xlink:href="#zoomMin" x="42" y="9" onmousedown="handleZoom(evt,'out')"/>
                <use id="reset" xlink:href="#resetDef" x="30" y="36" onmousedown="handleReset()"/>
                <g id="arrowUp" xlink:href="#dirArrow" transform="translate(30 24)" onmousedown="handlePan(0,-1)">
                  <use xlink:href="#rim" fill="#404040">
                        <set attributeName="fill" to="#808080" begin="arrowUp.mouseover" end="arrowUp.mouseout"/>
                  </use>
                  <path fill="none" stroke="white" stroke-width="1.5" d="M0,-3.0v7 M-2.5,-0.5L0,-3.0L2.5,-0.5"/>
                </g>
                <g id="arrowRight" xlink:href="#dirArrow" transform="rotate(90) translate(36 -43)" onmousedown="handlePan(1,0)">
                  <use xlink:href="#rim" fill="#404040">
                        <set attributeName="fill" to="#808080" begin="arrowRight.mouseover" end="arrowRight.mouseout"/>
                  </use>
                  <path fill="none" stroke="white" stroke-width="1.5" d="M0,-3.0v7 M-2.5,-0.5L0,-3.0L2.5,-0.5"/>
                </g>
                <g id="arrowDown" xlink:href="#dirArrow" transform="rotate(180) translate(-30 -48)" onmousedown="handlePan(0,1)">
                  <use xlink:href="#rim" fill="#404040">
                        <set attributeName="fill" to="#808080" begin="arrowDown.mouseover" end="arrowDown.mouseout"/>
                  </use>
                  <path fill="none" stroke="white" stroke-width="1.5" d="M0,-3.0v7 M-2.5,-0.5L0,-3.0L2.5,-0.5"/>
                </g>
                <g id="arrowLeft" xlink:href="#dirArrow" transform="rotate(270) translate(-36 17)" onmousedown="handlePan(-1,0)">
                  <use xlink:href="#rim" fill="#404040">
                        <set attributeName="fill" to="#808080" begin="arrowLeft.mouseover" end="arrowLeft.mouseout"/>
                  </use>
                  <path fill="none" stroke="white" stroke-width="1.5" d="M0,-3.0v7 M-2.5,-0.5L0,-3.0L2.5,-0.5"/>
                </g>
        </g>
        <svg viewBox="0 0 15 15" width="100%" height="30px" preserveAspectRatio="xMaxYMin meet">
         <g id="arrow_out" transform="scale(0.3 0.3)">
          <a xlink:href="stream__wrap_8h__dep__incl_org.svg" target="_base">
           <rect id="button" ry="5" rx="5" y="6" x="6" height="38" width="38"
                fill="#f2f5e9" fill-opacity="0.5" stroke="#606060" stroke-width="1.0"/>
           <path id="arrow"
             d="M 11.500037,31.436501 C 11.940474,20.09759 22.043105,11.32322 32.158766,21.979434 L 37.068811,17.246167 C 37.068811,17.246167 37.088388,32 37.088388,32 L 22.160133,31.978069 C 22.160133,31.978069 26.997745,27.140456 26.997745,27.140456 C 18.528582,18.264221 13.291696,25.230495 11.500037,31.436501 z"
             style="fill:#404040;"/>
          </a>
         </g>
        </svg>
</svg>
