<?xml version="1.0" encoding="UTF-8" standalone="no"?>
<!DOCTYPE svg PUBLIC "-//W3C//DTD SVG 1.1//EN"
 "http://www.w3.org/Graphics/SVG/1.1/DTD/svg11.dtd">
<!-- Generated by graphviz version 2.40.1 (20161225.0304)
 -->
<!-- Title: src/node_perf.h Pages: 1 -->
<svg width="184pt" height="82pt"
 viewBox="0.00 0.00 183.53 82.00" xmlns="http://www.w3.org/2000/svg" xmlns:xlink="http://www.w3.org/1999/xlink">
<g id="graph0" class="graph" transform="scale(1 1) rotate(0) translate(4 78)">
<title>src/node_perf.h</title>
<polygon fill="#ffffff" stroke="transparent" points="-4,4 -4,-78 179.5293,-78 179.5293,4 -4,4"/>
<!-- Node1 -->
<g id="node1" class="node">
<title>Node1</title>
<polygon fill="#bfbfbf" stroke="#000000" points="38.8228,-55.5 38.8228,-73.5 124.3101,-73.5 124.3101,-55.5 38.8228,-55.5"/>
<text text-anchor="middle" x="81.5664" y="-61.5" font-family="Helvetica,sans-Serif" font-size="10.00" fill="#000000">src/node_perf.h</text>
</g>
<!-- Node2 -->
<g id="node2" class="node">
<title>Node2</title>
<g id="a_node2"><a xlink:href="../../dc/dfd/node_8cc.html" target="_top" xlink:title="src/node.cc">
<polygon fill="#ffffff" stroke="#000000" points="0,-.5 0,-18.5 67.1328,-18.5 67.1328,-.5 0,-.5"/>
<text text-anchor="middle" x="33.5664" y="-6.5" font-family="Helvetica,sans-Serif" font-size="10.00" fill="#000000">src/node.cc</text>
</a>
</g>
</g>
<!-- Node1&#45;&gt;Node2 -->
<g id="edge1" class="edge">
<title>Node1&#45;&gt;Node2</title>
<path fill="none" stroke="#191970" d="M66.9267,-47.7253C58.6268,-38.215 48.5558,-26.6754 41.6648,-18.7795"/>
<polygon fill="#191970" stroke="#191970" points="64.4278,-50.185 73.6402,-55.4179 69.7018,-45.5822 64.4278,-50.185"/>
</g>
<!-- Node3 -->
<g id="node3" class="node">
<title>Node3</title>
<g id="a_node3"><a xlink:href="../../da/d00/node__perf_8cc.html" target="_top" xlink:title="src/node_perf.cc">
<polygon fill="#ffffff" stroke="#000000" points="85.6035,-.5 85.6035,-18.5 175.5293,-18.5 175.5293,-.5 85.6035,-.5"/>
<text text-anchor="middle" x="130.5664" y="-6.5" font-family="Helvetica,sans-Serif" font-size="10.00" fill="#000000">src/node_perf.cc</text>
</a>
</g>
</g>
<!-- Node1&#45;&gt;Node3 -->
<g id="edge2" class="edge">
<title>Node1&#45;&gt;Node3</title>
<path fill="none" stroke="#191970" d="M96.5111,-47.7253C104.9839,-38.215 115.2647,-26.6754 122.2993,-18.7795"/>
<polygon fill="#191970" stroke="#191970" points="93.6965,-45.623 89.6578,-55.4179 98.9232,-50.2795 93.6965,-45.623"/>
</g>
</g>
</svg>
