<?xml version="1.0" encoding="UTF-8" standalone="no"?>
<!DOCTYPE svg PUBLIC "-//W3C//DTD SVG 1.1//EN"
 "http://www.w3.org/Graphics/SVG/1.1/DTD/svg11.dtd">
<!-- Generated by graphviz version 2.40.1 (20161225.0304)
 -->
<!-- Title: src/async&#45;wrap.cc Pages: 1 -->
<svg width="635pt" height="82pt"
 viewBox="0.00 0.00 634.86 82.00" xmlns="http://www.w3.org/2000/svg" xmlns:xlink="http://www.w3.org/1999/xlink">
<g id="graph0" class="graph" transform="scale(1 1) rotate(0) translate(4 78)">
<title>src/async&#45;wrap.cc</title>
<polygon fill="#ffffff" stroke="transparent" points="-4,4 -4,-78 630.8594,-78 630.8594,4 -4,4"/>
<!-- Node0 -->
<g id="node1" class="node">
<title>Node0</title>
<polygon fill="#bfbfbf" stroke="#000000" points="299.7266,-55.5 299.7266,-73.5 395.7412,-73.5 395.7412,-55.5 299.7266,-55.5"/>
<text text-anchor="middle" x="347.7339" y="-61.5" font-family="Helvetica,sans-Serif" font-size="10.00" fill="#000000">src/async&#45;wrap.cc</text>
</g>
<!-- Node1 -->
<g id="node2" class="node">
<title>Node1</title>
<g id="a_node2"><a xlink:href="../../d4/d56/async-wrap_8h.html" target="_top" xlink:title="async&#45;wrap.h">
<polygon fill="#ffffff" stroke="#000000" points="0,-.5 0,-18.5 75.4678,-18.5 75.4678,-.5 0,-.5"/>
<text text-anchor="middle" x="37.7339" y="-6.5" font-family="Helvetica,sans-Serif" font-size="10.00" fill="#000000">async&#45;wrap.h</text>
</a>
</g>
</g>
<!-- Node0&#45;&gt;Node1 -->
<g id="edge1" class="edge">
<title>Node0&#45;&gt;Node1</title>
<path fill="none" stroke="#191970" d="M299.6696,-56.6017C248.9464,-48.1731 166.4162,-34.1951 85.5341,-19.1102"/>
<polygon fill="#191970" stroke="#191970" points="86.1542,-15.6656 75.6808,-17.2654 84.8659,-22.546 86.1542,-15.6656"/>
</g>
<!-- Node2 -->
<g id="node3" class="node">
<title>Node2</title>
<g id="a_node3"><a xlink:href="../../d5/d30/async-wrap-inl_8h.html" target="_top" xlink:title="async&#45;wrap&#45;inl.h">
<polygon fill="#ffffff" stroke="#000000" points="93.3325,-.5 93.3325,-18.5 182.1353,-18.5 182.1353,-.5 93.3325,-.5"/>
<text text-anchor="middle" x="137.7339" y="-6.5" font-family="Helvetica,sans-Serif" font-size="10.00" fill="#000000">async&#45;wrap&#45;inl.h</text>
</a>
</g>
</g>
<!-- Node0&#45;&gt;Node2 -->
<g id="edge2" class="edge">
<title>Node0&#45;&gt;Node2</title>
<path fill="none" stroke="#191970" d="M313.0567,-55.4179C277.2319,-46.0352 221.194,-31.3586 182.1477,-21.1322"/>
<polygon fill="#191970" stroke="#191970" points="182.6741,-17.6521 172.1136,-18.5042 180.9005,-24.4237 182.6741,-17.6521"/>
</g>
<!-- Node3 -->
<g id="node4" class="node">
<title>Node3</title>
<g id="a_node4"><a xlink:href="../../d5/d81/env_8h.html" target="_top" xlink:title="env.h">
<polygon fill="#ffffff" stroke="#000000" points="199.8711,-.5 199.8711,-18.5 239.5967,-18.5 239.5967,-.5 199.8711,-.5"/>
<text text-anchor="middle" x="219.7339" y="-6.5" font-family="Helvetica,sans-Serif" font-size="10.00" fill="#000000">env.h</text>
</a>
</g>
</g>
<!-- Node0&#45;&gt;Node3 -->
<g id="edge3" class="edge">
<title>Node0&#45;&gt;Node3</title>
<path fill="none" stroke="#191970" d="M326.5973,-55.4179C305.3784,-46.3004 272.5257,-32.184 248.8474,-22.0097"/>
<polygon fill="#191970" stroke="#191970" points="250.2068,-18.7845 239.6373,-18.0522 247.4433,-25.2159 250.2068,-18.7845"/>
</g>
<!-- Node4 -->
<g id="node5" class="node">
<title>Node4</title>
<g id="a_node5"><a xlink:href="../../d9/d50/env-inl_8h.html" target="_top" xlink:title="env&#45;inl.h">
<polygon fill="#ffffff" stroke="#000000" points="257.835,-.5 257.835,-18.5 311.6328,-18.5 311.6328,-.5 257.835,-.5"/>
<text text-anchor="middle" x="284.7339" y="-6.5" font-family="Helvetica,sans-Serif" font-size="10.00" fill="#000000">env&#45;inl.h</text>
</a>
</g>
</g>
<!-- Node0&#45;&gt;Node4 -->
<g id="edge4" class="edge">
<title>Node0&#45;&gt;Node4</title>
<path fill="none" stroke="#191970" d="M337.3307,-55.4179C327.9939,-47.2667 314.0806,-35.1201 302.9087,-25.3669"/>
<polygon fill="#191970" stroke="#191970" points="305.1981,-22.7194 295.3631,-18.7795 300.5945,-27.9927 305.1981,-22.7194"/>
</g>
<!-- Node5 -->
<g id="node6" class="node">
<title>Node5</title>
<g id="a_node6"><a xlink:href="../../d8/d3c/util_8h.html" target="_top" xlink:title="util.h">
<polygon fill="#ffffff" stroke="#000000" points="329.1724,-.5 329.1724,-18.5 366.2954,-18.5 366.2954,-.5 329.1724,-.5"/>
<text text-anchor="middle" x="347.7339" y="-6.5" font-family="Helvetica,sans-Serif" font-size="10.00" fill="#000000">util.h</text>
</a>
</g>
</g>
<!-- Node0&#45;&gt;Node5 -->
<g id="edge5" class="edge">
<title>Node0&#45;&gt;Node5</title>
<path fill="none" stroke="#191970" d="M347.7339,-55.4179C347.7339,-48.2164 347.7339,-37.8962 347.7339,-28.8632"/>
<polygon fill="#191970" stroke="#191970" points="351.234,-28.7794 347.7339,-18.7795 344.234,-28.7795 351.234,-28.7794"/>
</g>
<!-- Node6 -->
<g id="node7" class="node">
<title>Node6</title>
<g id="a_node7"><a xlink:href="../../d5/d8c/util-inl_8h.html" target="_top" xlink:title="util&#45;inl.h">
<polygon fill="#ffffff" stroke="#000000" points="384.5049,-.5 384.5049,-18.5 434.9629,-18.5 434.9629,-.5 384.5049,-.5"/>
<text text-anchor="middle" x="409.7339" y="-6.5" font-family="Helvetica,sans-Serif" font-size="10.00" fill="#000000">util&#45;inl.h</text>
</a>
</g>
</g>
<!-- Node0&#45;&gt;Node6 -->
<g id="edge6" class="edge">
<title>Node0&#45;&gt;Node6</title>
<path fill="none" stroke="#191970" d="M357.9719,-55.4179C367.0713,-47.3458 380.5876,-35.3556 391.5265,-25.6517"/>
<polygon fill="#191970" stroke="#191970" points="394.1153,-28.0339 399.2734,-18.7795 389.47,-22.7974 394.1153,-28.0339"/>
</g>
<!-- Node7 -->
<g id="node8" class="node">
<title>Node7</title>
<polygon fill="#ffffff" stroke="#bfbfbf" points="452.6519,-.5 452.6519,-18.5 486.8159,-18.5 486.8159,-.5 452.6519,-.5"/>
<text text-anchor="middle" x="469.7339" y="-6.5" font-family="Helvetica,sans-Serif" font-size="10.00" fill="#000000">uv.h</text>
</g>
<!-- Node0&#45;&gt;Node7 -->
<g id="edge7" class="edge">
<title>Node0&#45;&gt;Node7</title>
<path fill="none" stroke="#191970" d="M367.8797,-55.4179C388.3958,-46.1688 420.3228,-31.7755 442.9566,-21.5717"/>
<polygon fill="#191970" stroke="#191970" points="444.6492,-24.6479 452.3272,-17.3473 441.7723,-18.2665 444.6492,-24.6479"/>
</g>
<!-- Node8 -->
<g id="node9" class="node">
<title>Node8</title>
<polygon fill="#ffffff" stroke="#bfbfbf" points="505.2832,-.5 505.2832,-18.5 540.1846,-18.5 540.1846,-.5 505.2832,-.5"/>
<text text-anchor="middle" x="522.7339" y="-6.5" font-family="Helvetica,sans-Serif" font-size="10.00" fill="#000000">v8.h</text>
</g>
<!-- Node0&#45;&gt;Node8 -->
<g id="edge8" class="edge">
<title>Node0&#45;&gt;Node8</title>
<path fill="none" stroke="#191970" d="M378.4601,-55.445C406.5386,-47.0842 449.4165,-34.1022 495.4864,-18.9892"/>
<polygon fill="#191970" stroke="#191970" points="496.6486,-22.2914 505.0498,-15.8361 494.4567,-15.6434 496.6486,-22.2914"/>
</g>
<!-- Node9 -->
<g id="node10" class="node">
<title>Node9</title>
<polygon fill="#ffffff" stroke="#bfbfbf" points="558.6084,-.5 558.6084,-18.5 626.8594,-18.5 626.8594,-.5 558.6084,-.5"/>
<text text-anchor="middle" x="592.7339" y="-6.5" font-family="Helvetica,sans-Serif" font-size="10.00" fill="#000000">v8&#45;profiler.h</text>
</g>
<!-- Node0&#45;&gt;Node9 -->
<g id="edge9" class="edge">
<title>Node0&#45;&gt;Node9</title>
<path fill="none" stroke="#191970" d="M387.9163,-55.4795C432.0893,-45.5631 502.841,-29.68 548.547,-19.4195"/>
<polygon fill="#191970" stroke="#191970" points="549.4747,-22.7984 558.4652,-17.193 547.9414,-15.9684 549.4747,-22.7984"/>
</g>
</g>
</svg>
