<?xml version="1.0" encoding="UTF-8" standalone="no"?>
<!DOCTYPE svg PUBLIC "-//W3C//DTD SVG 1.1//EN"
 "http://www.w3.org/Graphics/SVG/1.1/DTD/svg11.dtd">
<!-- Generated by graphviz version 2.40.1 (20161225.0304)
 -->
<!-- Title: src/node_debug_options.cc Pages: 1 -->
<svg width="379pt" height="137pt"
 viewBox="0.00 0.00 379.44 137.00" xmlns="http://www.w3.org/2000/svg" xmlns:xlink="http://www.w3.org/1999/xlink">
<g id="graph0" class="graph" transform="scale(1 1) rotate(0) translate(4 133)">
<title>src/node_debug_options.cc</title>
<polygon fill="#ffffff" stroke="transparent" points="-4,4 -4,-133 375.4429,-133 375.4429,4 -4,4"/>
<!-- Node0 -->
<g id="node1" class="node">
<title>Node0</title>
<polygon fill="#bfbfbf" stroke="#000000" points="156.7266,-110.5 156.7266,-128.5 295.0361,-128.5 295.0361,-110.5 156.7266,-110.5"/>
<text text-anchor="middle" x="225.8813" y="-116.5" font-family="Helvetica,sans-Serif" font-size="10.00" fill="#000000">src/node_debug_options.cc</text>
</g>
<!-- Node1 -->
<g id="node2" class="node">
<title>Node1</title>
<g id="a_node2"><a xlink:href="../../dc/d2b/node__debug__options_8h.html" target="_top" xlink:title="node_debug_options.h">
<polygon fill="#ffffff" stroke="#000000" points="0,-55.5 0,-73.5 117.7627,-73.5 117.7627,-55.5 0,-55.5"/>
<text text-anchor="middle" x="58.8813" y="-61.5" font-family="Helvetica,sans-Serif" font-size="10.00" fill="#000000">node_debug_options.h</text>
</a>
</g>
</g>
<!-- Node0&#45;&gt;Node1 -->
<g id="edge1" class="edge">
<title>Node0&#45;&gt;Node1</title>
<path fill="none" stroke="#191970" d="M198.3047,-110.4179C170.3004,-101.1949 126.7644,-86.8567 95.7981,-76.6582"/>
<polygon fill="#191970" stroke="#191970" points="96.8144,-73.3081 86.2214,-73.5042 94.6247,-79.9568 96.8144,-73.3081"/>
</g>
<!-- Node3 -->
<g id="node4" class="node">
<title>Node3</title>
<polygon fill="#ffffff" stroke="#bfbfbf" points="136.0391,-55.5 136.0391,-73.5 183.7236,-73.5 183.7236,-55.5 136.0391,-55.5"/>
<text text-anchor="middle" x="159.8813" y="-61.5" font-family="Helvetica,sans-Serif" font-size="10.00" fill="#000000">errno.h</text>
</g>
<!-- Node0&#45;&gt;Node3 -->
<g id="edge3" class="edge">
<title>Node0&#45;&gt;Node3</title>
<path fill="none" stroke="#191970" d="M214.9828,-110.4179C205.2014,-102.2667 190.6255,-90.1201 178.9217,-80.3669"/>
<polygon fill="#191970" stroke="#191970" points="180.9396,-77.4926 171.0167,-73.7795 176.4583,-82.8701 180.9396,-77.4926"/>
</g>
<!-- Node4 -->
<g id="node5" class="node">
<title>Node4</title>
<polygon fill="#ffffff" stroke="#bfbfbf" points="202.0391,-55.5 202.0391,-73.5 249.7236,-73.5 249.7236,-55.5 202.0391,-55.5"/>
<text text-anchor="middle" x="225.8813" y="-61.5" font-family="Helvetica,sans-Serif" font-size="10.00" fill="#000000">stdlib.h</text>
</g>
<!-- Node0&#45;&gt;Node4 -->
<g id="edge4" class="edge">
<title>Node0&#45;&gt;Node4</title>
<path fill="none" stroke="#191970" d="M225.8813,-110.4179C225.8813,-103.2164 225.8813,-92.8962 225.8813,-83.8632"/>
<polygon fill="#191970" stroke="#191970" points="229.3814,-83.7794 225.8813,-73.7795 222.3814,-83.7795 229.3814,-83.7794"/>
</g>
<!-- Node5 -->
<g id="node6" class="node">
<title>Node5</title>
<polygon fill="#ffffff" stroke="#bfbfbf" points="267.4849,-55.5 267.4849,-73.5 316.2778,-73.5 316.2778,-55.5 267.4849,-55.5"/>
<text text-anchor="middle" x="291.8813" y="-61.5" font-family="Helvetica,sans-Serif" font-size="10.00" fill="#000000">string.h</text>
</g>
<!-- Node0&#45;&gt;Node5 -->
<g id="edge5" class="edge">
<title>Node0&#45;&gt;Node5</title>
<path fill="none" stroke="#191970" d="M236.7799,-110.4179C246.5613,-102.2667 261.1372,-90.1201 272.841,-80.3669"/>
<polygon fill="#191970" stroke="#191970" points="275.3044,-82.8701 280.746,-73.7795 270.8231,-77.4926 275.3044,-82.8701"/>
</g>
<!-- Node6 -->
<g id="node7" class="node">
<title>Node6</title>
<g id="a_node7"><a xlink:href="../../d8/d3c/util_8h.html" target="_top" xlink:title="util.h">
<polygon fill="#ffffff" stroke="#000000" points="334.3198,-55.5 334.3198,-73.5 371.4429,-73.5 371.4429,-55.5 334.3198,-55.5"/>
<text text-anchor="middle" x="352.8813" y="-61.5" font-family="Helvetica,sans-Serif" font-size="10.00" fill="#000000">util.h</text>
</a>
</g>
</g>
<!-- Node0&#45;&gt;Node6 -->
<g id="edge6" class="edge">
<title>Node0&#45;&gt;Node6</title>
<path fill="none" stroke="#191970" d="M246.8528,-110.4179C268.0589,-101.2341 300.9764,-86.9785 324.5061,-76.7885"/>
<polygon fill="#191970" stroke="#191970" points="326.1684,-79.8828 333.9539,-72.6969 323.3865,-73.4593 326.1684,-79.8828"/>
</g>
<!-- Node2 -->
<g id="node3" class="node">
<title>Node2</title>
<polygon fill="#ffffff" stroke="#bfbfbf" points="38.6548,-.5 38.6548,-18.5 79.1079,-18.5 79.1079,-.5 38.6548,-.5"/>
<text text-anchor="middle" x="58.8813" y="-6.5" font-family="Helvetica,sans-Serif" font-size="10.00" fill="#000000">string</text>
</g>
<!-- Node1&#45;&gt;Node2 -->
<g id="edge2" class="edge">
<title>Node1&#45;&gt;Node2</title>
<path fill="none" stroke="#191970" d="M58.8813,-55.4179C58.8813,-48.2164 58.8813,-37.8962 58.8813,-28.8632"/>
<polygon fill="#191970" stroke="#191970" points="62.3814,-28.7794 58.8813,-18.7795 55.3814,-28.7795 62.3814,-28.7794"/>
</g>
</g>
</svg>
