<?xml version="1.0" encoding="UTF-8" standalone="no"?>
<!DOCTYPE svg PUBLIC "-//W3C//DTD SVG 1.1//EN"
 "http://www.w3.org/Graphics/SVG/1.1/DTD/svg11.dtd">
<!-- Generated by graphviz version 2.40.1 (20161225.0304)
 -->
<!-- Title: src/node_api_types.h Pages: 1 -->
<svg width="126pt" height="82pt"
 viewBox="0.00 0.00 125.91 82.00" xmlns="http://www.w3.org/2000/svg" xmlns:xlink="http://www.w3.org/1999/xlink">
<g id="graph0" class="graph" transform="scale(1 1) rotate(0) translate(4 78)">
<title>src/node_api_types.h</title>
<polygon fill="#ffffff" stroke="transparent" points="-4,4 -4,-78 121.9111,-78 121.9111,4 -4,4"/>
<!-- Node0 -->
<g id="node1" class="node">
<title>Node0</title>
<polygon fill="#bfbfbf" stroke="#000000" points="4.2588,-55.5 4.2588,-73.5 115.3223,-73.5 115.3223,-55.5 4.2588,-55.5"/>
<text text-anchor="middle" x="59.7905" y="-61.5" font-family="Helvetica,sans-Serif" font-size="10.00" fill="#000000">src/node_api_types.h</text>
</g>
<!-- Node1 -->
<g id="node2" class="node">
<title>Node1</title>
<polygon fill="#ffffff" stroke="#bfbfbf" points="0,-.5 0,-18.5 51.5811,-18.5 51.5811,-.5 0,-.5"/>
<text text-anchor="middle" x="25.7905" y="-6.5" font-family="Helvetica,sans-Serif" font-size="10.00" fill="#000000">stddef.h</text>
</g>
<!-- Node0&#45;&gt;Node1 -->
<g id="edge1" class="edge">
<title>Node0&#45;&gt;Node1</title>
<path fill="none" stroke="#191970" d="M54.1761,-55.4179C49.4797,-47.8207 42.6376,-36.7527 36.8477,-27.3866"/>
<polygon fill="#191970" stroke="#191970" points="39.7623,-25.445 31.5269,-18.7795 33.8081,-29.1258 39.7623,-25.445"/>
</g>
<!-- Node2 -->
<g id="node3" class="node">
<title>Node2</title>
<polygon fill="#ffffff" stroke="#bfbfbf" points="69.6699,-.5 69.6699,-18.5 117.9111,-18.5 117.9111,-.5 69.6699,-.5"/>
<text text-anchor="middle" x="93.7905" y="-6.5" font-family="Helvetica,sans-Serif" font-size="10.00" fill="#000000">stdint.h</text>
</g>
<!-- Node0&#45;&gt;Node2 -->
<g id="edge2" class="edge">
<title>Node0&#45;&gt;Node2</title>
<path fill="none" stroke="#191970" d="M65.4049,-55.4179C70.1014,-47.8207 76.9434,-36.7527 82.7333,-27.3866"/>
<polygon fill="#191970" stroke="#191970" points="85.773,-29.1258 88.0541,-18.7795 79.8188,-25.445 85.773,-29.1258"/>
</g>
</g>
</svg>
