<?xml version="1.0" encoding="UTF-8" standalone="no"?>
<!DOCTYPE svg PUBLIC "-//W3C//DTD SVG 1.1//EN"
 "http://www.w3.org/Graphics/SVG/1.1/DTD/svg11.dtd">
<!-- Generated by graphviz version 2.40.1 (20161225.0304)
 -->
<!-- Title: src/string_bytes.cc Pages: 1 -->
<svg width="530pt" height="192pt"
 viewBox="0.00 0.00 530.14 192.00" xmlns="http://www.w3.org/2000/svg" xmlns:xlink="http://www.w3.org/1999/xlink">
<g id="graph0" class="graph" transform="scale(1 1) rotate(0) translate(4 188)">
<title>src/string_bytes.cc</title>
<polygon fill="#ffffff" stroke="transparent" points="-4,4 -4,-188 526.1377,-188 526.1377,4 -4,4"/>
<!-- Node0 -->
<g id="node1" class="node">
<title>Node0</title>
<polygon fill="#bfbfbf" stroke="#000000" points="231.7266,-165.5 231.7266,-183.5 330.5293,-183.5 330.5293,-165.5 231.7266,-165.5"/>
<text text-anchor="middle" x="281.1279" y="-171.5" font-family="Helvetica,sans-Serif" font-size="10.00" fill="#000000">src/string_bytes.cc</text>
</g>
<!-- Node1 -->
<g id="node2" class="node">
<title>Node1</title>
<g id="a_node2"><a xlink:href="../../d8/dbe/string__bytes_8h.html" target="_top" xlink:title="string_bytes.h">
<polygon fill="#ffffff" stroke="#000000" points="0,-110.5 0,-128.5 78.2559,-128.5 78.2559,-110.5 0,-110.5"/>
<text text-anchor="middle" x="39.1279" y="-116.5" font-family="Helvetica,sans-Serif" font-size="10.00" fill="#000000">string_bytes.h</text>
</a>
</g>
</g>
<!-- Node0&#45;&gt;Node1 -->
<g id="edge1" class="edge">
<title>Node0&#45;&gt;Node1</title>
<path fill="none" stroke="#191970" d="M241.4375,-165.4795C199.5508,-155.9597 133.4689,-140.9411 88.3068,-130.677"/>
<polygon fill="#191970" stroke="#191970" points="88.9654,-127.2375 78.4384,-128.4342 87.414,-134.0634 88.9654,-127.2375"/>
</g>
<!-- Node2 -->
<g id="node3" class="node">
<title>Node2</title>
<g id="a_node3"><a xlink:href="../../d2/d6f/base64_8h.html" target="_top" xlink:title="base64.h">
<polygon fill="#ffffff" stroke="#000000" points="96.5542,-110.5 96.5542,-128.5 153.7017,-128.5 153.7017,-110.5 96.5542,-110.5"/>
<text text-anchor="middle" x="125.1279" y="-116.5" font-family="Helvetica,sans-Serif" font-size="10.00" fill="#000000">base64.h</text>
</a>
</g>
</g>
<!-- Node0&#45;&gt;Node2 -->
<g id="edge2" class="edge">
<title>Node0&#45;&gt;Node2</title>
<path fill="none" stroke="#191970" d="M255.3677,-165.4179C229.4345,-156.2748 189.2428,-142.1046 160.367,-131.924"/>
<polygon fill="#191970" stroke="#191970" points="161.262,-128.5285 150.6671,-128.5042 158.9344,-135.1302 161.262,-128.5285"/>
</g>
<!-- Node5 -->
<g id="node6" class="node">
<title>Node5</title>
<g id="a_node6"><a xlink:href="../../d1/d77/node_8h.html" target="_top" xlink:title="node.h">
<polygon fill="#ffffff" stroke="#000000" points="290.835,-55.5 290.835,-73.5 337.4209,-73.5 337.4209,-55.5 290.835,-55.5"/>
<text text-anchor="middle" x="314.1279" y="-61.5" font-family="Helvetica,sans-Serif" font-size="10.00" fill="#000000">node.h</text>
</a>
</g>
</g>
<!-- Node0&#45;&gt;Node5 -->
<g id="edge5" class="edge">
<title>Node0&#45;&gt;Node5</title>
<path fill="none" stroke="#191970" d="M283.9491,-165.4453C286.7996,-156.27 291.3151,-141.662 295.1279,-129 299.7098,-113.7841 304.7911,-96.5129 308.5452,-83.6743"/>
<polygon fill="#191970" stroke="#191970" points="312.0155,-84.2762 311.4567,-73.6961 305.2957,-82.3154 312.0155,-84.2762"/>
</g>
<!-- Node6 -->
<g id="node7" class="node">
<title>Node6</title>
<polygon fill="#ffffff" stroke="#bfbfbf" points="164.6772,-.5 164.6772,-18.5 199.5786,-18.5 199.5786,-.5 164.6772,-.5"/>
<text text-anchor="middle" x="182.1279" y="-6.5" font-family="Helvetica,sans-Serif" font-size="10.00" fill="#000000">v8.h</text>
</g>
<!-- Node0&#45;&gt;Node6 -->
<g id="edge14" class="edge">
<title>Node0&#45;&gt;Node6</title>
<path fill="none" stroke="#191970" d="M252.6364,-165.4995C234.9841,-158.4168 213.4083,-146.7335 201.1279,-129 180.1779,-98.7472 179.0025,-53.9441 180.3487,-28.6682"/>
<polygon fill="#191970" stroke="#191970" points="183.8498,-28.7785 181.0827,-18.5514 176.8681,-28.2719 183.8498,-28.7785"/>
</g>
<!-- Node11 -->
<g id="node12" class="node">
<title>Node11</title>
<g id="a_node12"><a xlink:href="../../d8/d1c/node__buffer_8h.html" target="_top" xlink:title="node_buffer.h">
<polygon fill="#ffffff" stroke="#000000" points="209.6299,-110.5 209.6299,-128.5 286.626,-128.5 286.626,-110.5 209.6299,-110.5"/>
<text text-anchor="middle" x="248.1279" y="-116.5" font-family="Helvetica,sans-Serif" font-size="10.00" fill="#000000">node_buffer.h</text>
</a>
</g>
</g>
<!-- Node0&#45;&gt;Node11 -->
<g id="edge11" class="edge">
<title>Node0&#45;&gt;Node11</title>
<path fill="none" stroke="#191970" d="M275.6787,-165.4179C271.1203,-157.8207 264.4795,-146.7527 258.8599,-137.3866"/>
<polygon fill="#191970" stroke="#191970" points="261.8418,-135.5536 253.6956,-128.7795 255.8394,-139.1552 261.8418,-135.5536"/>
</g>
<!-- Node12 -->
<g id="node13" class="node">
<title>Node12</title>
<polygon fill="#ffffff" stroke="#bfbfbf" points="342.5713,-110.5 342.5713,-128.5 389.6846,-128.5 389.6846,-110.5 342.5713,-110.5"/>
<text text-anchor="middle" x="366.1279" y="-116.5" font-family="Helvetica,sans-Serif" font-size="10.00" fill="#000000">limits.h</text>
</g>
<!-- Node0&#45;&gt;Node12 -->
<g id="edge15" class="edge">
<title>Node0&#45;&gt;Node12</title>
<path fill="none" stroke="#191970" d="M295.164,-165.4179C308.3292,-156.8992 328.2387,-144.0166 343.6219,-134.0627"/>
<polygon fill="#191970" stroke="#191970" points="345.5767,-136.9667 352.0711,-128.5956 341.7739,-131.0897 345.5767,-136.9667"/>
</g>
<!-- Node13 -->
<g id="node14" class="node">
<title>Node13</title>
<polygon fill="#ffffff" stroke="#bfbfbf" points="407.7314,-110.5 407.7314,-128.5 456.5244,-128.5 456.5244,-110.5 407.7314,-110.5"/>
<text text-anchor="middle" x="432.1279" y="-116.5" font-family="Helvetica,sans-Serif" font-size="10.00" fill="#000000">string.h</text>
</g>
<!-- Node0&#45;&gt;Node13 -->
<g id="edge16" class="edge">
<title>Node0&#45;&gt;Node13</title>
<path fill="none" stroke="#191970" d="M306.0625,-165.4179C331.1295,-156.2875 369.9595,-142.1441 397.9013,-131.9667"/>
<polygon fill="#191970" stroke="#191970" points="399.4591,-135.1243 407.6573,-128.4131 397.0633,-128.547 399.4591,-135.1243"/>
</g>
<!-- Node14 -->
<g id="node15" class="node">
<title>Node14</title>
<polygon fill="#ffffff" stroke="#bfbfbf" points="474.5122,-110.5 474.5122,-128.5 517.7437,-128.5 517.7437,-110.5 474.5122,-110.5"/>
<text text-anchor="middle" x="496.1279" y="-116.5" font-family="Helvetica,sans-Serif" font-size="10.00" fill="#000000">vector</text>
</g>
<!-- Node0&#45;&gt;Node14 -->
<g id="edge17" class="edge">
<title>Node0&#45;&gt;Node14</title>
<path fill="none" stroke="#191970" d="M320.4149,-165.4454C355.7365,-157.1575 409.2418,-144.241 464.8273,-128.9697"/>
<polygon fill="#191970" stroke="#191970" points="465.7873,-132.3357 474.4921,-126.2962 463.9209,-125.5891 465.7873,-132.3357"/>
</g>
<!-- Node3 -->
<g id="node4" class="node">
<title>Node3</title>
<g id="a_node4"><a xlink:href="../../d8/d3c/util_8h.html" target="_top" xlink:title="util.h">
<polygon fill="#ffffff" stroke="#000000" points="46.5664,-55.5 46.5664,-73.5 83.6895,-73.5 83.6895,-55.5 46.5664,-55.5"/>
<text text-anchor="middle" x="65.1279" y="-61.5" font-family="Helvetica,sans-Serif" font-size="10.00" fill="#000000">util.h</text>
</a>
</g>
</g>
<!-- Node2&#45;&gt;Node3 -->
<g id="edge3" class="edge">
<title>Node2&#45;&gt;Node3</title>
<path fill="none" stroke="#191970" d="M115.2201,-110.4179C106.4143,-102.3458 93.3341,-90.3556 82.748,-80.6517"/>
<polygon fill="#191970" stroke="#191970" points="84.9876,-77.9567 75.251,-73.7795 80.2575,-83.1168 84.9876,-77.9567"/>
</g>
<!-- Node4 -->
<g id="node5" class="node">
<title>Node4</title>
<polygon fill="#ffffff" stroke="#bfbfbf" points="101.3374,-55.5 101.3374,-73.5 152.9185,-73.5 152.9185,-55.5 101.3374,-55.5"/>
<text text-anchor="middle" x="127.1279" y="-61.5" font-family="Helvetica,sans-Serif" font-size="10.00" fill="#000000">stddef.h</text>
</g>
<!-- Node2&#45;&gt;Node4 -->
<g id="edge4" class="edge">
<title>Node2&#45;&gt;Node4</title>
<path fill="none" stroke="#191970" d="M125.4582,-110.4179C125.7201,-103.2164 126.0953,-92.8962 126.4238,-83.8632"/>
<polygon fill="#191970" stroke="#191970" points="129.9247,-83.9001 126.7905,-73.7795 122.9293,-83.6456 129.9247,-83.9001"/>
</g>
<!-- Node5&#45;&gt;Node6 -->
<g id="edge6" class="edge">
<title>Node5&#45;&gt;Node6</title>
<path fill="none" stroke="#191970" d="M292.3308,-55.4179C269.5478,-45.9249 233.7591,-31.013 209.1845,-20.7736"/>
<polygon fill="#191970" stroke="#191970" points="210.306,-17.4492 199.729,-16.8338 207.6136,-23.9108 210.306,-17.4492"/>
</g>
<!-- Node7 -->
<g id="node8" class="node">
<title>Node7</title>
<g id="a_node8"><a xlink:href="../../da/d9c/node__version_8h.html" target="_top" xlink:title="node_version.h">
<polygon fill="#ffffff" stroke="#000000" points="217.936,-.5 217.936,-18.5 302.3198,-18.5 302.3198,-.5 217.936,-.5"/>
<text text-anchor="middle" x="260.1279" y="-6.5" font-family="Helvetica,sans-Serif" font-size="10.00" fill="#000000">node_version.h</text>
</a>
</g>
</g>
<!-- Node5&#45;&gt;Node7 -->
<g id="edge7" class="edge">
<title>Node5&#45;&gt;Node7</title>
<path fill="none" stroke="#191970" d="M305.2109,-55.4179C297.3634,-47.425 285.7439,-35.5903 276.2668,-25.9377"/>
<polygon fill="#191970" stroke="#191970" points="278.7421,-23.463 269.2387,-18.7795 273.7471,-28.3672 278.7421,-23.463"/>
</g>
<!-- Node8 -->
<g id="node9" class="node">
<title>Node8</title>
<polygon fill="#ffffff" stroke="#bfbfbf" points="320.3423,-.5 320.3423,-18.5 371.9136,-18.5 371.9136,-.5 320.3423,-.5"/>
<text text-anchor="middle" x="346.1279" y="-6.5" font-family="Helvetica,sans-Serif" font-size="10.00" fill="#000000">assert.h</text>
</g>
<!-- Node5&#45;&gt;Node8 -->
<g id="edge8" class="edge">
<title>Node5&#45;&gt;Node8</title>
<path fill="none" stroke="#191970" d="M319.4121,-55.4179C323.7862,-47.8998 330.1379,-36.9829 335.5506,-27.6799"/>
<polygon fill="#191970" stroke="#191970" points="338.7252,-29.1831 340.729,-18.7795 332.6748,-25.6628 338.7252,-29.1831"/>
</g>
<!-- Node9 -->
<g id="node10" class="node">
<title>Node9</title>
<polygon fill="#ffffff" stroke="#bfbfbf" points="390.0073,-.5 390.0073,-18.5 438.2485,-18.5 438.2485,-.5 390.0073,-.5"/>
<text text-anchor="middle" x="414.1279" y="-6.5" font-family="Helvetica,sans-Serif" font-size="10.00" fill="#000000">stdint.h</text>
</g>
<!-- Node5&#45;&gt;Node9 -->
<g id="edge9" class="edge">
<title>Node5&#45;&gt;Node9</title>
<path fill="none" stroke="#191970" d="M330.6409,-55.4179C346.419,-46.7399 370.4308,-33.5334 388.6594,-23.5077"/>
<polygon fill="#191970" stroke="#191970" points="390.515,-26.4816 397.5904,-18.5956 387.1415,-20.3481 390.515,-26.4816"/>
</g>
<!-- Node10 -->
<g id="node11" class="node">
<title>Node10</title>
<polygon fill="#ffffff" stroke="#bfbfbf" points="456.1182,-.5 456.1182,-18.5 522.1377,-18.5 522.1377,-.5 456.1182,-.5"/>
<text text-anchor="middle" x="489.1279" y="-6.5" font-family="Helvetica,sans-Serif" font-size="10.00" fill="#000000">sys/types.h</text>
</g>
<!-- Node5&#45;&gt;Node10 -->
<g id="edge10" class="edge">
<title>Node5&#45;&gt;Node10</title>
<path fill="none" stroke="#191970" d="M337.7292,-57.0825C366.6848,-47.9821 416.1677,-32.4304 450.6517,-21.5925"/>
<polygon fill="#191970" stroke="#191970" points="451.9005,-24.8689 460.391,-18.5316 449.8017,-18.191 451.9005,-24.8689"/>
</g>
<!-- Node11&#45;&gt;Node5 -->
<g id="edge12" class="edge">
<title>Node11&#45;&gt;Node5</title>
<path fill="none" stroke="#191970" d="M259.0265,-110.4179C268.8079,-102.2667 283.3838,-90.1201 295.0876,-80.3669"/>
<polygon fill="#191970" stroke="#191970" points="297.551,-82.8701 302.9926,-73.7795 293.0697,-77.4926 297.551,-82.8701"/>
</g>
<!-- Node11&#45;&gt;Node6 -->
<g id="edge13" class="edge">
<title>Node11&#45;&gt;Node6</title>
<path fill="none" stroke="#191970" d="M242.7269,-110.4982C231.8493,-92.369 207.1268,-51.1647 192.8475,-27.3659"/>
<polygon fill="#191970" stroke="#191970" points="195.7499,-25.4003 187.6036,-18.6261 189.7474,-29.0018 195.7499,-25.4003"/>
</g>
</g>
</svg>
