<?xml version="1.0" encoding="UTF-8" standalone="no"?>
<!DOCTYPE svg PUBLIC "-//W3C//DTD SVG 1.1//EN"
 "http://www.w3.org/Graphics/SVG/1.1/DTD/svg11.dtd">
<!-- Generated by graphviz version 2.40.1 (20161225.0304)
 -->
<!-- Title: src/tracing/node_trace_writer.cc Pages: 1 -->
<!--zoomable 212 -->
<svg id="main" version="1.1" xmlns="http://www.w3.org/2000/svg" xmlns:xlink="http://www.w3.org/1999/xlink" xml:space="preserve" onload="init(evt)">
<style type="text/css"><![CDATA[
.edge:hover path { stroke: red; }
.edge:hover polygon { stroke: red; fill: red; }
]]></style>
<script type="text/javascript"><![CDATA[
var edges = document.getElementsByTagName('g');
if (edges && edges.length) {
  for (var i=0;i<edges.length;i++) {
    if (edges[i].id.substr(0,4)=='edge') {
      edges[i].setAttribute('class','edge');
    }
  }
}
]]></script>
        <defs>
                <circle id="rim" cx="0" cy="0" r="7"/>
                <circle id="rim2" cx="0" cy="0" r="3.5"/>
                <g id="zoomPlus">
                        <use xlink:href="#rim" fill="#404040">
                                <set attributeName="fill" to="#808080" begin="zoomplus.mouseover" end="zoomplus.mouseout"/>
                        </use>
                        <path d="M-4,0h8M0,-4v8" fill="none" stroke="white" stroke-width="1.5" pointer-events="none"/>
                </g>
                <g id="zoomMin">
                        <use xlink:href="#rim" fill="#404040">
                                <set attributeName="fill" to="#808080" begin="zoomminus.mouseover" end="zoomminus.mouseout"/>
                        </use>
                        <path d="M-4,0h8" fill="none" stroke="white" stroke-width="1.5" pointer-events="none"/>
                </g>
                <g id="dirArrow">
                        <path fill="none" stroke="white" stroke-width="1.5" d="M0,-3.0v7 M-2.5,-0.5L0,-3.0L2.5,-0.5"/>
                </g>
               <g id="resetDef">
                       <use xlink:href="#rim2" fill="#404040">
                               <set attributeName="fill" to="#808080" begin="reset.mouseover" end="reset.mouseout"/>
                       </use>
               </g>
        </defs>

<script type="text/javascript">
var viewWidth = 558;
var viewHeight = 212;
var sectionId = 'dynsection-0';
</script>
<script xlink:href="../../svgpan.js"/>
<svg id="graph" class="graph">
<g id="viewport">
<title>src/tracing/node_trace_writer.cc</title>
<polygon fill="#ffffff" stroke="transparent" points="-4,4 -4,-208 554.1206,-208 554.1206,4 -4,4"/>
<!-- Node0 -->
<g id="node1" class="node">
<title>Node0</title>
<polygon fill="#bfbfbf" stroke="#000000" points="381.3105,-175.5 381.3105,-203.5 496.251,-203.5 496.251,-175.5 381.3105,-175.5"/>
<text text-anchor="start" x="389.3105" y="-191.5" font-family="Helvetica,sans-Serif" font-size="10.00" fill="#000000">src/tracing/node_trace</text>
<text text-anchor="middle" x="438.7808" y="-181.5" font-family="Helvetica,sans-Serif" font-size="10.00" fill="#000000">_writer.cc</text>
</g>
<!-- Node1 -->
<g id="node2" class="node">
<title>Node1</title>
<g id="a_node2"><a xlink:href="../../de/da5/node__trace__writer_8h.html" target="_top" xlink:title="tracing/node_trace\l_writer.h">
<polygon fill="#ffffff" stroke="#000000" points="126.3647,-110.5 126.3647,-138.5 225.1968,-138.5 225.1968,-110.5 126.3647,-110.5"/>
<text text-anchor="start" x="134.3647" y="-126.5" font-family="Helvetica,sans-Serif" font-size="10.00" fill="#000000">tracing/node_trace</text>
<text text-anchor="middle" x="175.7808" y="-116.5" font-family="Helvetica,sans-Serif" font-size="10.00" fill="#000000">_writer.h</text>
</a>
</g>
</g>
<!-- Node0&#45;&gt;Node1 -->
<g id="edge1" class="edge">
<title>Node0&#45;&gt;Node1</title>
<path fill="none" stroke="#191970" d="M382.0375,-175.476C338.7488,-164.7773 279.2754,-150.0785 235.3117,-139.213"/>
<polygon fill="#191970" stroke="#191970" points="235.883,-135.7489 225.3353,-136.7473 234.2035,-142.5445 235.883,-135.7489"/>
</g>
<!-- Node5 -->
<g id="node6" class="node">
<title>Node5</title>
<g id="a_node6"><a xlink:href="../../d8/d3c/util_8h.html" target="_top" xlink:title="util.h">
<polygon fill="#ffffff" stroke="#000000" points="221.2192,-.5 221.2192,-18.5 258.3423,-18.5 258.3423,-.5 221.2192,-.5"/>
<text text-anchor="middle" x="239.7808" y="-6.5" font-family="Helvetica,sans-Serif" font-size="10.00" fill="#000000">util.h</text>
</a>
</g>
</g>
<!-- Node0&#45;&gt;Node5 -->
<g id="edge11" class="edge">
<title>Node0&#45;&gt;Node5</title>
<path fill="none" stroke="#191970" d="M435.8064,-175.4622C428.9982,-144.5729 411.4988,-72.0985 393.7808,-55 375.8642,-37.7099 307.9752,-22.3963 268.5726,-14.7187"/>
<polygon fill="#191970" stroke="#191970" points="268.9917,-11.2358 258.5136,-12.8039 267.6827,-18.1123 268.9917,-11.2358"/>
</g>
<!-- Node8 -->
<g id="node9" class="node">
<title>Node8</title>
<polygon fill="#ffffff" stroke="#bfbfbf" points="440.3843,-115.5 440.3843,-133.5 489.1772,-133.5 489.1772,-115.5 440.3843,-115.5"/>
<text text-anchor="middle" x="464.7808" y="-121.5" font-family="Helvetica,sans-Serif" font-size="10.00" fill="#000000">string.h</text>
</g>
<!-- Node0&#45;&gt;Node8 -->
<g id="edge9" class="edge">
<title>Node0&#45;&gt;Node8</title>
<path fill="none" stroke="#191970" d="M444.4224,-175.396C448.2308,-165.8748 453.2956,-153.2128 457.4206,-142.9003"/>
<polygon fill="#191970" stroke="#191970" points="460.6867,-144.159 461.151,-133.5743 454.1874,-141.5592 460.6867,-144.159"/>
</g>
<!-- Node9 -->
<g id="node10" class="node">
<title>Node9</title>
<polygon fill="#ffffff" stroke="#bfbfbf" points="507.4409,-115.5 507.4409,-133.5 550.1206,-133.5 550.1206,-115.5 507.4409,-115.5"/>
<text text-anchor="middle" x="528.7808" y="-121.5" font-family="Helvetica,sans-Serif" font-size="10.00" fill="#000000">fcntl.h</text>
</g>
<!-- Node0&#45;&gt;Node9 -->
<g id="edge10" class="edge">
<title>Node0&#45;&gt;Node9</title>
<path fill="none" stroke="#191970" d="M458.3094,-175.396C473.0032,-164.7838 493.0994,-150.2699 508.0722,-139.4562"/>
<polygon fill="#191970" stroke="#191970" points="510.1588,-142.2666 516.2163,-133.5743 506.0603,-136.5919 510.1588,-142.2666"/>
</g>
<!-- Node2 -->
<g id="node3" class="node">
<title>Node2</title>
<polygon fill="#ffffff" stroke="#bfbfbf" points="0,-55.5 0,-73.5 51.5615,-73.5 51.5615,-55.5 0,-55.5"/>
<text text-anchor="middle" x="25.7808" y="-61.5" font-family="Helvetica,sans-Serif" font-size="10.00" fill="#000000">sstream</text>
</g>
<!-- Node1&#45;&gt;Node2 -->
<g id="edge2" class="edge">
<title>Node1&#45;&gt;Node2</title>
<path fill="none" stroke="#191970" d="M140.6124,-110.4327C115.6494,-100.4474 82.3927,-87.1448 58.0958,-77.426"/>
<polygon fill="#191970" stroke="#191970" points="59.1931,-74.0954 48.6084,-73.6311 56.5933,-80.5947 59.1931,-74.0954"/>
</g>
<!-- Node3 -->
<g id="node4" class="node">
<title>Node3</title>
<polygon fill="#ffffff" stroke="#bfbfbf" points="69.877,-55.5 69.877,-73.5 113.6846,-73.5 113.6846,-55.5 69.877,-55.5"/>
<text text-anchor="middle" x="91.7808" y="-61.5" font-family="Helvetica,sans-Serif" font-size="10.00" fill="#000000">queue</text>
</g>
<!-- Node1&#45;&gt;Node3 -->
<g id="edge3" class="edge">
<title>Node1&#45;&gt;Node3</title>
<path fill="none" stroke="#191970" d="M155.8739,-110.2808C142.9446,-101.0456 126.1102,-89.021 112.9389,-79.613"/>
<polygon fill="#191970" stroke="#191970" points="114.6703,-76.5485 104.4986,-73.5842 110.6016,-82.2447 114.6703,-76.5485"/>
</g>
<!-- Node4 -->
<g id="node5" class="node">
<title>Node4</title>
<g id="a_node5"><a xlink:href="../../d8/dc3/node__mutex_8h.html" target="_top" xlink:title="node_mutex.h">
<polygon fill="#ffffff" stroke="#000000" points="170.0913,-55.5 170.0913,-73.5 249.4702,-73.5 249.4702,-55.5 170.0913,-55.5"/>
<text text-anchor="middle" x="209.7808" y="-61.5" font-family="Helvetica,sans-Serif" font-size="10.00" fill="#000000">node_mutex.h</text>
</a>
</g>
</g>
<!-- Node1&#45;&gt;Node4 -->
<g id="edge4" class="edge">
<title>Node1&#45;&gt;Node4</title>
<path fill="none" stroke="#191970" d="M183.8383,-110.2808C188.5684,-101.9336 194.5898,-91.3076 199.6405,-82.3946"/>
<polygon fill="#191970" stroke="#191970" points="202.748,-84.01 204.6331,-73.5842 196.6578,-80.5589 202.748,-84.01"/>
</g>
<!-- Node6 -->
<g id="node7" class="node">
<title>Node6</title>
<polygon fill="#ffffff" stroke="#bfbfbf" points="161.6987,-.5 161.6987,-18.5 195.8628,-18.5 195.8628,-.5 161.6987,-.5"/>
<text text-anchor="middle" x="178.7808" y="-6.5" font-family="Helvetica,sans-Serif" font-size="10.00" fill="#000000">uv.h</text>
</g>
<!-- Node1&#45;&gt;Node6 -->
<g id="edge8" class="edge">
<title>Node1&#45;&gt;Node6</title>
<path fill="none" stroke="#191970" d="M169.3693,-110.4311C163.7822,-96.4204 157.1058,-74.2795 160.7808,-55 162.5479,-45.7295 166.171,-35.9365 169.7066,-27.8202"/>
<polygon fill="#191970" stroke="#191970" points="172.9502,-29.1455 173.9918,-18.6019 166.6025,-26.1946 172.9502,-29.1455"/>
</g>
<!-- Node7 -->
<g id="node8" class="node">
<title>Node7</title>
<polygon fill="#ffffff" stroke="#bfbfbf" points="267.2046,-55.5 267.2046,-73.5 384.3569,-73.5 384.3569,-55.5 267.2046,-55.5"/>
<text text-anchor="middle" x="325.7808" y="-61.5" font-family="Helvetica,sans-Serif" font-size="10.00" fill="#000000">libplatform/v8&#45;tracing.h</text>
</g>
<!-- Node1&#45;&gt;Node7 -->
<g id="edge7" class="edge">
<title>Node1&#45;&gt;Node7</title>
<path fill="none" stroke="#191970" d="M210.9491,-110.4327C235.9122,-100.4474 269.1688,-87.1448 293.4657,-77.426"/>
<polygon fill="#191970" stroke="#191970" points="294.9682,-80.5947 302.9531,-73.6311 292.3684,-74.0954 294.9682,-80.5947"/>
</g>
<!-- Node4&#45;&gt;Node5 -->
<g id="edge5" class="edge">
<title>Node4&#45;&gt;Node5</title>
<path fill="none" stroke="#191970" d="M214.7347,-55.4179C218.8354,-47.8998 224.7901,-36.9829 229.8645,-27.6799"/>
<polygon fill="#191970" stroke="#191970" points="233.0033,-29.2344 234.7192,-18.7795 226.858,-25.8824 233.0033,-29.2344"/>
</g>
<!-- Node4&#45;&gt;Node6 -->
<g id="edge6" class="edge">
<title>Node4&#45;&gt;Node6</title>
<path fill="none" stroke="#191970" d="M204.6617,-55.4179C200.4243,-47.8998 194.2711,-36.9829 189.0276,-27.6799"/>
<polygon fill="#191970" stroke="#191970" points="191.9702,-25.7724 184.011,-18.7795 185.8721,-29.2096 191.9702,-25.7724"/>
</g>
</g>
</svg>
        <g id="navigator" transform="translate(0 0)" fill="#404254">
                <rect fill="#f2f5e9" fill-opacity="0.5" stroke="#606060" stroke-width=".5" x="0" y="0" width="60" height="60"/>
                <use id="zoomplus" xlink:href="#zoomPlus" x="17" y="9" onmousedown="handleZoom(evt,'in')"/>
                <use id="zoomminus" xlink:href="#zoomMin" x="42" y="9" onmousedown="handleZoom(evt,'out')"/>
                <use id="reset" xlink:href="#resetDef" x="30" y="36" onmousedown="handleReset()"/>
                <g id="arrowUp" xlink:href="#dirArrow" transform="translate(30 24)" onmousedown="handlePan(0,-1)">
                  <use xlink:href="#rim" fill="#404040">
                        <set attributeName="fill" to="#808080" begin="arrowUp.mouseover" end="arrowUp.mouseout"/>
                  </use>
                  <path fill="none" stroke="white" stroke-width="1.5" d="M0,-3.0v7 M-2.5,-0.5L0,-3.0L2.5,-0.5"/>
                </g>
                <g id="arrowRight" xlink:href="#dirArrow" transform="rotate(90) translate(36 -43)" onmousedown="handlePan(1,0)">
                  <use xlink:href="#rim" fill="#404040">
                        <set attributeName="fill" to="#808080" begin="arrowRight.mouseover" end="arrowRight.mouseout"/>
                  </use>
                  <path fill="none" stroke="white" stroke-width="1.5" d="M0,-3.0v7 M-2.5,-0.5L0,-3.0L2.5,-0.5"/>
                </g>
                <g id="arrowDown" xlink:href="#dirArrow" transform="rotate(180) translate(-30 -48)" onmousedown="handlePan(0,1)">
                  <use xlink:href="#rim" fill="#404040">
                        <set attributeName="fill" to="#808080" begin="arrowDown.mouseover" end="arrowDown.mouseout"/>
                  </use>
                  <path fill="none" stroke="white" stroke-width="1.5" d="M0,-3.0v7 M-2.5,-0.5L0,-3.0L2.5,-0.5"/>
                </g>
                <g id="arrowLeft" xlink:href="#dirArrow" transform="rotate(270) translate(-36 17)" onmousedown="handlePan(-1,0)">
                  <use xlink:href="#rim" fill="#404040">
                        <set attributeName="fill" to="#808080" begin="arrowLeft.mouseover" end="arrowLeft.mouseout"/>
                  </use>
                  <path fill="none" stroke="white" stroke-width="1.5" d="M0,-3.0v7 M-2.5,-0.5L0,-3.0L2.5,-0.5"/>
                </g>
        </g>
        <svg viewBox="0 0 15 15" width="100%" height="30px" preserveAspectRatio="xMaxYMin meet">
         <g id="arrow_out" transform="scale(0.3 0.3)">
          <a xlink:href="node__trace__writer_8cc__incl_org.svg" target="_base">
           <rect id="button" ry="5" rx="5" y="6" x="6" height="38" width="38"
                fill="#f2f5e9" fill-opacity="0.5" stroke="#606060" stroke-width="1.0"/>
           <path id="arrow"
             d="M 11.500037,31.436501 C 11.940474,20.09759 22.043105,11.32322 32.158766,21.979434 L 37.068811,17.246167 C 37.068811,17.246167 37.088388,32 37.088388,32 L 22.160133,31.978069 C 22.160133,31.978069 26.997745,27.140456 26.997745,27.140456 C 18.528582,18.264221 13.291696,25.230495 11.500037,31.436501 z"
             style="fill:#404040;"/>
          </a>
         </g>
        </svg>
</svg>
