<?xml version="1.0" encoding="UTF-8" standalone="no"?>
<!DOCTYPE svg PUBLIC "-//W3C//DTD SVG 1.1//EN"
 "http://www.w3.org/Graphics/SVG/1.1/DTD/svg11.dtd">
<!-- Generated by graphviz version 2.40.1 (20161225.0304)
 -->
<!-- Title: src/base64.h Pages: 1 -->
<svg width="244pt" height="82pt"
 viewBox="0.00 0.00 244.36 82.00" xmlns="http://www.w3.org/2000/svg" xmlns:xlink="http://www.w3.org/1999/xlink">
<g id="graph0" class="graph" transform="scale(1 1) rotate(0) translate(4 78)">
<title>src/base64.h</title>
<polygon fill="#ffffff" stroke="transparent" points="-4,4 -4,-78 240.3643,-78 240.3643,4 -4,4"/>
<!-- Node3 -->
<g id="node1" class="node">
<title>Node3</title>
<polygon fill="#bfbfbf" stroke="#000000" points="86.335,-55.5 86.335,-73.5 159.5908,-73.5 159.5908,-55.5 86.335,-55.5"/>
<text text-anchor="middle" x="122.9629" y="-61.5" font-family="Helvetica,sans-Serif" font-size="10.00" fill="#000000">src/base64.h</text>
</g>
<!-- Node4 -->
<g id="node2" class="node">
<title>Node4</title>
<g id="a_node2"><a xlink:href="../../de/da5/inspector__socket_8cc.html" target="_top" xlink:title="src/inspector_socket.cc">
<polygon fill="#ffffff" stroke="#000000" points="0,-.5 0,-18.5 119.9258,-18.5 119.9258,-.5 0,-.5"/>
<text text-anchor="middle" x="59.9629" y="-6.5" font-family="Helvetica,sans-Serif" font-size="10.00" fill="#000000">src/inspector_socket.cc</text>
</a>
</g>
</g>
<!-- Node3&#45;&gt;Node4 -->
<g id="edge1" class="edge">
<title>Node3&#45;&gt;Node4</title>
<path fill="none" stroke="#191970" d="M104.732,-48.5841C93.6596,-38.9177 79.9106,-26.9147 70.5921,-18.7795"/>
<polygon fill="#191970" stroke="#191970" points="102.7247,-51.4779 112.5597,-55.4179 107.3283,-46.2046 102.7247,-51.4779"/>
</g>
<!-- Node5 -->
<g id="node3" class="node">
<title>Node5</title>
<g id="a_node3"><a xlink:href="../../df/db9/string__bytes_8cc.html" target="_top" xlink:title="src/string_bytes.cc">
<polygon fill="#ffffff" stroke="#000000" points="137.5615,-.5 137.5615,-18.5 236.3643,-18.5 236.3643,-.5 137.5615,-.5"/>
<text text-anchor="middle" x="186.9629" y="-6.5" font-family="Helvetica,sans-Serif" font-size="10.00" fill="#000000">src/string_bytes.cc</text>
</a>
</g>
</g>
<!-- Node3&#45;&gt;Node5 -->
<g id="edge2" class="edge">
<title>Node3&#45;&gt;Node5</title>
<path fill="none" stroke="#191970" d="M141.1531,-48.8678C152.457,-39.1535 166.6057,-26.9944 176.165,-18.7795"/>
<polygon fill="#191970" stroke="#191970" points="138.8342,-46.2457 133.5312,-55.4179 143.3966,-51.5546 138.8342,-46.2457"/>
</g>
</g>
</svg>
