<?xml version="1.0" encoding="UTF-8" standalone="no"?>
<!DOCTYPE svg PUBLIC "-//W3C//DTD SVG 1.1//EN"
 "http://www.w3.org/Graphics/SVG/1.1/DTD/svg11.dtd">
<!-- Generated by graphviz version 2.40.1 (20161225.0304)
 -->
<!-- Title: src/node_mutex.h Pages: 1 -->
<svg width="682pt" height="277pt"
 viewBox="0.00 0.00 682.49 277.00" xmlns="http://www.w3.org/2000/svg" xmlns:xlink="http://www.w3.org/1999/xlink">
<g id="graph0" class="graph" transform="scale(1 1) rotate(0) translate(4 273)">
<title>src/node_mutex.h</title>
<polygon fill="#ffffff" stroke="transparent" points="-4,4 -4,-273 678.4946,-273 678.4946,4 -4,4"/>
<!-- Node3 -->
<g id="node1" class="node">
<title>Node3</title>
<polygon fill="#bfbfbf" stroke="#000000" points="279.2808,-250.5 279.2808,-268.5 374.7681,-268.5 374.7681,-250.5 279.2808,-250.5"/>
<text text-anchor="middle" x="327.0244" y="-256.5" font-family="Helvetica,sans-Serif" font-size="10.00" fill="#000000">src/node_mutex.h</text>
</g>
<!-- Node4 -->
<g id="node2" class="node">
<title>Node4</title>
<g id="a_node2"><a xlink:href="../../d1/dc8/inspector__io_8h.html" target="_top" xlink:title="src/inspector_io.h">
<polygon fill="#ffffff" stroke="#000000" points="127.8398,-190.5 127.8398,-208.5 222.209,-208.5 222.209,-190.5 127.8398,-190.5"/>
<text text-anchor="middle" x="175.0244" y="-196.5" font-family="Helvetica,sans-Serif" font-size="10.00" fill="#000000">src/inspector_io.h</text>
</a>
</g>
</g>
<!-- Node3&#45;&gt;Node4 -->
<g id="edge1" class="edge">
<title>Node3&#45;&gt;Node4</title>
<path fill="none" stroke="#191970" d="M294.6057,-246.7032C265.5052,-235.2161 223.5281,-218.6462 197.8292,-208.5019"/>
<polygon fill="#191970" stroke="#191970" points="293.3522,-249.9711 303.9389,-250.3873 295.9224,-243.46 293.3522,-249.9711"/>
</g>
<!-- Node6 -->
<g id="node4" class="node">
<title>Node6</title>
<g id="a_node4"><a xlink:href="../../d1/d89/inspector__io_8cc.html" target="_top" xlink:title="src/inspector_io.cc">
<polygon fill="#ffffff" stroke="#000000" points="133.6206,-125.5 133.6206,-143.5 232.4282,-143.5 232.4282,-125.5 133.6206,-125.5"/>
<text text-anchor="middle" x="183.0244" y="-131.5" font-family="Helvetica,sans-Serif" font-size="10.00" fill="#000000">src/inspector_io.cc</text>
</a>
</g>
</g>
<!-- Node3&#45;&gt;Node6 -->
<g id="edge4" class="edge">
<title>Node3&#45;&gt;Node6</title>
<path fill="none" stroke="#191970" d="M308.4007,-243.3336C277.794,-216.7653 217.8361,-164.7185 193.5821,-143.6646"/>
<polygon fill="#191970" stroke="#191970" points="306.3549,-246.1925 316.201,-250.1047 310.9437,-240.9063 306.3549,-246.1925"/>
</g>
<!-- Node7 -->
<g id="node5" class="node">
<title>Node7</title>
<g id="a_node5"><a xlink:href="../../d4/d4f/node__platform_8h.html" target="_top" xlink:title="src/node_platform.h">
<polygon fill="#ffffff" stroke="#000000" points="250.835,-125.5 250.835,-143.5 355.2139,-143.5 355.2139,-125.5 250.835,-125.5"/>
<text text-anchor="middle" x="303.0244" y="-131.5" font-family="Helvetica,sans-Serif" font-size="10.00" fill="#000000">src/node_platform.h</text>
</a>
</g>
</g>
<!-- Node3&#45;&gt;Node7 -->
<g id="edge5" class="edge">
<title>Node3&#45;&gt;Node7</title>
<path fill="none" stroke="#191970" d="M317.3046,-241.5054C313.3786,-233.3473 309.2549,-223.4324 307.0244,-214 301.1728,-189.2545 301.6665,-159.0108 302.407,-143.9562"/>
<polygon fill="#191970" stroke="#191970" points="314.196,-243.1139 321.855,-250.4345 320.4328,-239.9355 314.196,-243.1139"/>
</g>
<!-- Node14 -->
<g id="node12" class="node">
<title>Node14</title>
<g id="a_node12"><a xlink:href="../../d5/d61/node__crypto_8cc.html" target="_top" xlink:title="src/node_crypto.cc">
<polygon fill="#ffffff" stroke="#000000" points="316.0615,-190.5 316.0615,-208.5 415.9873,-208.5 415.9873,-190.5 316.0615,-190.5"/>
<text text-anchor="middle" x="366.0244" y="-196.5" font-family="Helvetica,sans-Serif" font-size="10.00" fill="#000000">src/node_crypto.cc</text>
</a>
</g>
</g>
<!-- Node3&#45;&gt;Node14 -->
<g id="edge13" class="edge">
<title>Node3&#45;&gt;Node14</title>
<path fill="none" stroke="#191970" d="M338.5945,-241.6998C345.6424,-230.8569 354.3561,-217.4513 360.0454,-208.6985"/>
<polygon fill="#191970" stroke="#191970" points="335.463,-240.0954 332.9477,-250.3873 341.3322,-243.9103 335.463,-240.0954"/>
</g>
<!-- Node15 -->
<g id="node13" class="node">
<title>Node15</title>
<g id="a_node13"><a xlink:href="../../d7/db0/node__trace__buffer_8h.html" target="_top" xlink:title="src/tracing/node_trace\l_buffer.h">
<polygon fill="#ffffff" stroke="#000000" points="559.5542,-120.5 559.5542,-148.5 674.4946,-148.5 674.4946,-120.5 559.5542,-120.5"/>
<text text-anchor="start" x="567.5542" y="-136.5" font-family="Helvetica,sans-Serif" font-size="10.00" fill="#000000">src/tracing/node_trace</text>
<text text-anchor="middle" x="617.0244" y="-126.5" font-family="Helvetica,sans-Serif" font-size="10.00" fill="#000000">_buffer.h</text>
</a>
</g>
</g>
<!-- Node3&#45;&gt;Node15 -->
<g id="edge14" class="edge">
<title>Node3&#45;&gt;Node15</title>
<path fill="none" stroke="#191970" d="M385.1937,-252.7852C443.6397,-245.1999 528.9605,-231.5866 557.0244,-214 582.6661,-197.9313 601.2888,-166.6811 610.5065,-148.5143"/>
<polygon fill="#191970" stroke="#191970" points="384.4531,-249.3511 374.975,-254.0858 385.337,-256.2951 384.4531,-249.3511"/>
</g>
<!-- Node17 -->
<g id="node15" class="node">
<title>Node17</title>
<g id="a_node15"><a xlink:href="../../de/da5/node__trace__writer_8h.html" target="_top" xlink:title="src/tracing/node_trace\l_writer.h">
<polygon fill="#ffffff" stroke="#000000" points="433.5542,-185.5 433.5542,-213.5 548.4946,-213.5 548.4946,-185.5 433.5542,-185.5"/>
<text text-anchor="start" x="441.5542" y="-201.5" font-family="Helvetica,sans-Serif" font-size="10.00" fill="#000000">src/tracing/node_trace</text>
<text text-anchor="middle" x="491.0244" y="-191.5" font-family="Helvetica,sans-Serif" font-size="10.00" fill="#000000">_writer.h</text>
</a>
</g>
</g>
<!-- Node3&#45;&gt;Node17 -->
<g id="edge17" class="edge">
<title>Node3&#45;&gt;Node17</title>
<path fill="none" stroke="#191970" d="M361.6185,-246.8436C388.3003,-237.082 425.1817,-223.5888 452.7467,-213.504"/>
<polygon fill="#191970" stroke="#191970" points="360.1212,-243.6645 351.9325,-250.3873 362.5263,-250.2383 360.1212,-243.6645"/>
</g>
<!-- Node5 -->
<g id="node3" class="node">
<title>Node5</title>
<g id="a_node3"><a xlink:href="../../d5/d2d/inspector__agent_8cc.html" target="_top" xlink:title="src/inspector_agent.cc">
<polygon fill="#ffffff" stroke="#000000" points="0,-125.5 0,-143.5 116.0488,-143.5 116.0488,-125.5 0,-125.5"/>
<text text-anchor="middle" x="58.0244" y="-131.5" font-family="Helvetica,sans-Serif" font-size="10.00" fill="#000000">src/inspector_agent.cc</text>
</a>
</g>
</g>
<!-- Node4&#45;&gt;Node5 -->
<g id="edge2" class="edge">
<title>Node4&#45;&gt;Node5</title>
<path fill="none" stroke="#191970" d="M149.9766,-185.5846C127.1805,-172.9201 94.1768,-154.5847 74.5318,-143.6708"/>
<polygon fill="#191970" stroke="#191970" points="148.3147,-188.6651 158.7561,-190.462 151.7142,-182.546 148.3147,-188.6651"/>
</g>
<!-- Node4&#45;&gt;Node6 -->
<g id="edge3" class="edge">
<title>Node4&#45;&gt;Node6</title>
<path fill="none" stroke="#191970" d="M177.3634,-180.4959C178.8449,-168.4586 180.6961,-153.4178 181.8697,-143.8821"/>
<polygon fill="#191970" stroke="#191970" points="173.8846,-180.1093 176.1368,-190.462 180.8322,-180.9645 173.8846,-180.1093"/>
</g>
<!-- Node8 -->
<g id="node6" class="node">
<title>Node8</title>
<g id="a_node6"><a xlink:href="../../dc/dfd/node_8cc.html" target="_top" xlink:title="src/node.cc">
<polygon fill="#ffffff" stroke="#000000" points="318.458,-.5 318.458,-18.5 385.5908,-18.5 385.5908,-.5 318.458,-.5"/>
<text text-anchor="middle" x="352.0244" y="-6.5" font-family="Helvetica,sans-Serif" font-size="10.00" fill="#000000">src/node.cc</text>
</a>
</g>
</g>
<!-- Node7&#45;&gt;Node8 -->
<g id="edge6" class="edge">
<title>Node7&#45;&gt;Node8</title>
<path fill="none" stroke="#191970" d="M300.248,-115.0272C298.7301,-98.3638 298.6025,-74.1114 307.0244,-55 313.7447,-39.7499 328.0392,-26.7499 338.7246,-18.5988"/>
<polygon fill="#191970" stroke="#191970" points="296.7988,-115.667 301.4331,-125.1945 303.7517,-114.8565 296.7988,-115.667"/>
</g>
<!-- Node9 -->
<g id="node7" class="node">
<title>Node9</title>
<g id="a_node7"><a xlink:href="../../de/d9e/agent_8h.html" target="_top" xlink:title="src/tracing/agent.h">
<polygon fill="#ffffff" stroke="#000000" points="442.8916,-60.5 442.8916,-78.5 541.1572,-78.5 541.1572,-60.5 442.8916,-60.5"/>
<text text-anchor="middle" x="492.0244" y="-66.5" font-family="Helvetica,sans-Serif" font-size="10.00" fill="#000000">src/tracing/agent.h</text>
</a>
</g>
</g>
<!-- Node7&#45;&gt;Node9 -->
<g id="edge7" class="edge">
<title>Node7&#45;&gt;Node9</title>
<path fill="none" stroke="#191970" d="M339.1783,-122.0661C376.155,-109.3493 432.7122,-89.8984 465.664,-78.5658"/>
<polygon fill="#191970" stroke="#191970" points="337.6222,-118.9 329.3041,-125.462 339.8987,-125.5195 337.6222,-118.9"/>
</g>
<!-- Node11 -->
<g id="node9" class="node">
<title>Node11</title>
<g id="a_node9"><a xlink:href="../../d7/d44/node__platform_8cc.html" target="_top" xlink:title="src/node_platform.cc">
<polygon fill="#ffffff" stroke="#000000" points="315.6157,-60.5 315.6157,-78.5 424.4331,-78.5 424.4331,-60.5 315.6157,-60.5"/>
<text text-anchor="middle" x="370.0244" y="-66.5" font-family="Helvetica,sans-Serif" font-size="10.00" fill="#000000">src/node_platform.cc</text>
</a>
</g>
</g>
<!-- Node7&#45;&gt;Node11 -->
<g id="edge10" class="edge">
<title>Node7&#45;&gt;Node11</title>
<path fill="none" stroke="#191970" d="M319.6413,-118.3791C332.4519,-105.9509 349.7221,-89.1962 360.3536,-78.8821"/>
<polygon fill="#191970" stroke="#191970" points="317.0808,-115.9868 312.3405,-125.462 321.955,-121.011 317.0808,-115.9868"/>
</g>
<!-- Node12 -->
<g id="node10" class="node">
<title>Node12</title>
<g id="a_node10"><a xlink:href="../../db/d4b/trace__event_8h.html" target="_top" xlink:title="src/tracing/trace_event.h">
<polygon fill="#ffffff" stroke="#000000" points="134.2759,-60.5 134.2759,-78.5 259.7729,-78.5 259.7729,-60.5 134.2759,-60.5"/>
<text text-anchor="middle" x="197.0244" y="-66.5" font-family="Helvetica,sans-Serif" font-size="10.00" fill="#000000">src/tracing/trace_event.h</text>
</a>
</g>
</g>
<!-- Node7&#45;&gt;Node12 -->
<g id="edge11" class="edge">
<title>Node7&#45;&gt;Node12</title>
<path fill="none" stroke="#191970" d="M279.5005,-120.075C258.8835,-107.4324 229.5405,-89.4391 211.9798,-78.6708"/>
<polygon fill="#191970" stroke="#191970" points="277.9311,-123.2182 288.2856,-125.462 281.5903,-117.2508 277.9311,-123.2182"/>
</g>
<!-- Node9&#45;&gt;Node8 -->
<g id="edge8" class="edge">
<title>Node9&#45;&gt;Node8</title>
<path fill="none" stroke="#191970" d="M461.4632,-56.4023C434.6907,-44.9284 396.493,-28.558 373.0288,-18.5019"/>
<polygon fill="#191970" stroke="#191970" points="460.1912,-59.665 470.7614,-60.3873 462.9487,-53.231 460.1912,-59.665"/>
</g>
<!-- Node10 -->
<g id="node8" class="node">
<title>Node10</title>
<g id="a_node8"><a xlink:href="../../d2/d0e/agent_8cc.html" target="_top" xlink:title="src/tracing/agent.cc">
<polygon fill="#ffffff" stroke="#000000" points="440.6724,-.5 440.6724,-18.5 543.3765,-18.5 543.3765,-.5 440.6724,-.5"/>
<text text-anchor="middle" x="492.0244" y="-6.5" font-family="Helvetica,sans-Serif" font-size="10.00" fill="#000000">src/tracing/agent.cc</text>
</a>
</g>
</g>
<!-- Node9&#45;&gt;Node10 -->
<g id="edge9" class="edge">
<title>Node9&#45;&gt;Node10</title>
<path fill="none" stroke="#191970" d="M492.0244,-50.3734C492.0244,-39.7812 492.0244,-27.0976 492.0244,-18.6985"/>
<polygon fill="#191970" stroke="#191970" points="488.5245,-50.3873 492.0244,-60.3873 495.5245,-50.3873 488.5245,-50.3873"/>
</g>
<!-- Node13 -->
<g id="node11" class="node">
<title>Node13</title>
<g id="a_node11"><a xlink:href="../../db/d07/trace__event_8cc.html" target="_top" xlink:title="src/tracing/trace_event.cc">
<polygon fill="#ffffff" stroke="#000000" points="132.0566,-.5 132.0566,-18.5 261.9922,-18.5 261.9922,-.5 132.0566,-.5"/>
<text text-anchor="middle" x="197.0244" y="-6.5" font-family="Helvetica,sans-Serif" font-size="10.00" fill="#000000">src/tracing/trace_event.cc</text>
</a>
</g>
</g>
<!-- Node12&#45;&gt;Node13 -->
<g id="edge12" class="edge">
<title>Node12&#45;&gt;Node13</title>
<path fill="none" stroke="#191970" d="M197.0244,-50.3734C197.0244,-39.7812 197.0244,-27.0976 197.0244,-18.6985"/>
<polygon fill="#191970" stroke="#191970" points="193.5245,-50.3873 197.0244,-60.3873 200.5245,-50.3873 193.5245,-50.3873"/>
</g>
<!-- Node15&#45;&gt;Node9 -->
<g id="edge15" class="edge">
<title>Node15&#45;&gt;Node9</title>
<path fill="none" stroke="#191970" d="M580.9164,-115.7238C557.4457,-103.5191 527.8922,-88.1513 509.475,-78.5743"/>
<polygon fill="#191970" stroke="#191970" points="579.4143,-118.8877 589.9013,-120.396 582.6438,-112.6771 579.4143,-118.8877"/>
</g>
<!-- Node16 -->
<g id="node14" class="node">
<title>Node16</title>
<g id="a_node14"><a xlink:href="../../d4/dc6/node__trace__buffer_8cc.html" target="_top" xlink:title="src/tracing/node_trace\l_buffer.cc">
<polygon fill="#ffffff" stroke="#000000" points="559.5542,-55.5 559.5542,-83.5 674.4946,-83.5 674.4946,-55.5 559.5542,-55.5"/>
<text text-anchor="start" x="567.5542" y="-71.5" font-family="Helvetica,sans-Serif" font-size="10.00" fill="#000000">src/tracing/node_trace</text>
<text text-anchor="middle" x="617.0244" y="-61.5" font-family="Helvetica,sans-Serif" font-size="10.00" fill="#000000">_buffer.cc</text>
</a>
</g>
</g>
<!-- Node15&#45;&gt;Node16 -->
<g id="edge16" class="edge">
<title>Node15&#45;&gt;Node16</title>
<path fill="none" stroke="#191970" d="M617.0244,-110.1081C617.0244,-101.1539 617.0244,-91.3227 617.0244,-83.5765"/>
<polygon fill="#191970" stroke="#191970" points="613.5245,-110.3959 617.0244,-120.396 620.5245,-110.396 613.5245,-110.3959"/>
</g>
<!-- Node17&#45;&gt;Node9 -->
<g id="edge18" class="edge">
<title>Node17&#45;&gt;Node9</title>
<path fill="none" stroke="#191970" d="M448.7689,-180.076C436.6148,-172.2539 424.8179,-161.9603 418.0244,-149 412.0406,-137.5844 412.0043,-131.3966 418.0244,-120 428.5583,-100.0583 450.8996,-86.5056 468.2934,-78.502"/>
<polygon fill="#191970" stroke="#191970" points="447.2317,-183.234 457.6156,-185.3377 450.81,-177.2176 447.2317,-183.234"/>
</g>
<!-- Node17&#45;&gt;Node15 -->
<g id="edge19" class="edge">
<title>Node17&#45;&gt;Node15</title>
<path fill="none" stroke="#191970" d="M527.4398,-180.7143C547.3114,-170.4631 571.5043,-157.9826 589.7376,-148.5765"/>
<polygon fill="#191970" stroke="#191970" points="525.647,-177.7008 518.3645,-185.396 528.8563,-183.9218 525.647,-177.7008"/>
</g>
<!-- Node18 -->
<g id="node16" class="node">
<title>Node18</title>
<g id="a_node16"><a xlink:href="../../df/def/node__trace__writer_8cc.html" target="_top" xlink:title="src/tracing/node_trace\l_writer.cc">
<polygon fill="#ffffff" stroke="#000000" points="426.5542,-120.5 426.5542,-148.5 541.4946,-148.5 541.4946,-120.5 426.5542,-120.5"/>
<text text-anchor="start" x="434.5542" y="-136.5" font-family="Helvetica,sans-Serif" font-size="10.00" fill="#000000">src/tracing/node_trace</text>
<text text-anchor="middle" x="484.0244" y="-126.5" font-family="Helvetica,sans-Serif" font-size="10.00" fill="#000000">_writer.cc</text>
</a>
</g>
</g>
<!-- Node17&#45;&gt;Node18 -->
<g id="edge20" class="edge">
<title>Node17&#45;&gt;Node18</title>
<path fill="none" stroke="#191970" d="M488.4293,-175.4029C487.4566,-166.3703 486.3837,-156.4078 485.5403,-148.5765"/>
<polygon fill="#191970" stroke="#191970" points="484.9548,-175.8282 489.5055,-185.396 491.9146,-175.0787 484.9548,-175.8282"/>
</g>
</g>
</svg>
