<?xml version="1.0" encoding="UTF-8" standalone="no"?>
<!DOCTYPE svg PUBLIC "-//W3C//DTD SVG 1.1//EN"
 "http://www.w3.org/Graphics/SVG/1.1/DTD/svg11.dtd">
<!-- Generated by graphviz version 2.40.1 (20161225.0304)
 -->
<!-- Title: http_parsing_state_s Pages: 1 -->
<svg width="140pt" height="242pt"
 viewBox="0.00 0.00 139.60 242.00" xmlns="http://www.w3.org/2000/svg" xmlns:xlink="http://www.w3.org/1999/xlink">
<g id="graph0" class="graph" transform="scale(1 1) rotate(0) translate(4 238)">
<title>http_parsing_state_s</title>
<polygon fill="#ffffff" stroke="transparent" points="-4,4 -4,-238 135.6041,-238 135.6041,4 -4,4"/>
<!-- Node1 -->
<g id="node1" class="node">
<title>Node1</title>
<polygon fill="#bfbfbf" stroke="#000000" points="5.277,-130.5 5.277,-148.5 114.1188,-148.5 114.1188,-130.5 5.277,-130.5"/>
<text text-anchor="middle" x="59.6979" y="-136.5" font-family="Helvetica,sans-Serif" font-size="10.00" fill="#000000">http_parsing_state_s</text>
</g>
<!-- Node2 -->
<g id="node2" class="node">
<title>Node2</title>
<g id="a_node2"><a xlink:href="../../d3/d31/classnode_1_1inspector_1_1_inspector_socket.html" target="_top" xlink:title="InspectorSocket">
<polygon fill="#ffffff" stroke="#000000" points="15.8458,-65.5 15.8458,-83.5 103.5499,-83.5 103.5499,-65.5 15.8458,-65.5"/>
<text text-anchor="middle" x="59.6979" y="-71.5" font-family="Helvetica,sans-Serif" font-size="10.00" fill="#000000">InspectorSocket</text>
</a>
</g>
</g>
<!-- Node1&#45;&gt;Node2 -->
<g id="edge4" class="edge">
<title>Node1&#45;&gt;Node2</title>
<path fill="none" stroke="#9a32cd" stroke-dasharray="5,2" d="M16.4826,-125.4804C10.9916,-121.9257 6.0939,-117.4999 2.6393,-112 -5.4312,-99.1514 8.8335,-89.7764 25.1157,-83.6136"/>
<polygon fill="#9a32cd" stroke="#9a32cd" points="15.0214,-128.67 25.4776,-130.3784 18.369,-122.5223 15.0214,-128.67"/>
<text text-anchor="middle" x="45.2272" y="-104" font-family="Helvetica,sans-Serif" font-size="10.00" fill="#000000"> http_parsing_state</text>
</g>
<!-- Node2&#45;&gt;Node1 -->
<g id="edge1" class="edge">
<title>Node2&#45;&gt;Node1</title>
<path fill="none" stroke="#9a32cd" stroke-dasharray="5,2" d="M84.0184,-89.8555C90.8023,-96.1637 95.4221,-103.8891 91.6979,-112 88.2745,-119.4558 81.7216,-125.6515 75.4327,-130.2625"/>
<polygon fill="#9a32cd" stroke="#9a32cd" points="86.1209,-87.0562 76.1003,-83.6155 81.7882,-92.5541 86.1209,-87.0562"/>
<text text-anchor="middle" x="112.151" y="-104" font-family="Helvetica,sans-Serif" font-size="10.00" fill="#000000"> callback</text>
</g>
<!-- Node3 -->
<g id="node3" class="node">
<title>Node3</title>
<g id="a_node3"><a xlink:href="../../de/d14/structnode_1_1inspector_1_1ws__state__s.html" target="_top" xlink:title="ws_state_s">
<polygon fill="#ffffff" stroke="#000000" points="26.6857,-.5 26.6857,-18.5 92.7101,-18.5 92.7101,-.5 26.6857,-.5"/>
<text text-anchor="middle" x="59.6979" y="-6.5" font-family="Helvetica,sans-Serif" font-size="10.00" fill="#000000">ws_state_s</text>
</a>
</g>
</g>
<!-- Node2&#45;&gt;Node3 -->
<g id="edge3" class="edge">
<title>Node2&#45;&gt;Node3</title>
<path fill="none" stroke="#9a32cd" stroke-dasharray="5,2" d="M33.8649,-59.039C30.0586,-55.5763 26.6754,-51.5553 24.4518,-47 18.9647,-35.7591 30.0202,-25.5978 41.166,-18.697"/>
<polygon fill="#9a32cd" stroke="#9a32cd" points="31.9838,-62.0086 42.0363,-65.355 36.2647,-56.4702 31.9838,-62.0086"/>
<text text-anchor="middle" x="45.8209" y="-39" font-family="Helvetica,sans-Serif" font-size="10.00" fill="#000000"> close_cb</text>
</g>
<!-- Node3&#45;&gt;Node2 -->
<g id="edge2" class="edge">
<title>Node3&#45;&gt;Node2</title>
<path fill="none" stroke="#9a32cd" stroke-dasharray="5,2" d="M68.8796,-28.309C70.7777,-34.2323 71.8847,-40.8374 70.6979,-47 69.4727,-53.3621 66.7888,-60.1234 64.3789,-65.3496"/>
<polygon fill="#9a32cd" stroke="#9a32cd" points="71.9487,-26.5658 64.9332,-18.6265 65.4665,-29.2079 71.9487,-26.5658"/>
<text text-anchor="middle" x="91.8185" y="-39" font-family="Helvetica,sans-Serif" font-size="10.00" fill="#000000"> ws_state</text>
</g>
<!-- Node4 -->
<g id="node4" class="node">
<title>Node4</title>
<polygon fill="#ffffff" stroke="#bfbfbf" points="39.4713,-215.5 39.4713,-233.5 79.9245,-233.5 79.9245,-215.5 39.4713,-215.5"/>
<text text-anchor="middle" x="59.6979" y="-221.5" font-family="Helvetica,sans-Serif" font-size="10.00" fill="#000000">string</text>
</g>
<!-- Node4&#45;&gt;Node1 -->
<g id="edge5" class="edge">
<title>Node4&#45;&gt;Node1</title>
<path fill="none" stroke="#9a32cd" stroke-dasharray="5,2" d="M59.6979,-205.3165C59.6979,-187.5727 59.6979,-161.9761 59.6979,-148.5311"/>
<polygon fill="#9a32cd" stroke="#9a32cd" points="56.198,-205.4035 59.6979,-215.4035 63.198,-205.4035 56.198,-205.4035"/>
<text text-anchor="middle" x="93.609" y="-189" font-family="Helvetica,sans-Serif" font-size="10.00" fill="#000000"> path</text>
<text text-anchor="middle" x="93.609" y="-179" font-family="Helvetica,sans-Serif" font-size="10.00" fill="#000000">ws_key</text>
<text text-anchor="middle" x="93.609" y="-169" font-family="Helvetica,sans-Serif" font-size="10.00" fill="#000000">current_header</text>
</g>
</g>
</svg>
